<svg width="302" height="481" viewBox="0 0 302 481" fill="none" xmlns="http://www.w3.org/2000/svg">
<g clip-path="url(#clip0_1_461)">
<path fill-rule="evenodd" clip-rule="evenodd" d="M263.458 136.025C258.236 140.595 254.063 145.413 249.935 150.591C244.673 157.189 239.71 164.096 235.689 171.505C231.941 178.411 228.929 185.743 226.593 193.237C224.465 200.064 223.008 207.124 222.165 214.222C221.417 220.526 221.3 226.919 221.625 233.258C221.898 238.572 222.978 243.814 223.71 249.084C224.548 255.116 224.727 261.291 226.352 267.163C228.204 273.853 231.192 280.217 234.368 286.397C236.9 291.324 240.285 295.341 243.123 300.53L249.253 295.115C245.848 288.91 242.128 282.845 239.377 276.33C236.953 270.59 235.103 264.602 233.587 258.56C231.857 251.668 230.399 244.659 229.841 237.576C229.379 231.726 229.615 225.816 230.181 219.976C230.877 212.794 232.034 205.618 233.928 198.653C235.632 192.381 238.008 186.279 240.739 180.376C243.669 174.043 246.941 167.812 250.957 162.099C254.737 156.721 258.563 151.663 263.899 147.206C263.444 143.596 263.231 140.143 263.459 136.025H263.458Z" fill="#BF4040"/>
<path fill-rule="evenodd" clip-rule="evenodd" d="M268.338 165.41C264.331 171.383 259.551 176.91 256.318 183.33C252.681 190.55 250.056 198.309 248.186 206.167C246.656 212.6 245.869 219.235 245.711 225.843C245.528 233.476 246.018 241.186 247.479 248.682C248.819 255.555 251.199 262.22 253.843 268.709C255.92 273.806 258.793 278.547 261.267 283.466L277.177 272.222L277.531 167.167C276.117 167.049 274.684 167.069 273.288 166.815C271.6 166.509 269.988 165.878 268.338 165.41Z" fill="#BF4040"/>
<path fill-rule="evenodd" clip-rule="evenodd" d="M300 161.018L296.976 164.708L293.087 167.342H287.961L284.071 166.64L284.425 340.034L300 350.048V161.018ZM283.718 86.003V132.383L297.153 130.098L300 133.261V88.287L291.673 87.76L283.718 86.003ZM300.585 68.854L288.833 67.816L277.08 66L266.633 63.059L258.624 59.599L251.486 56.657L256.186 62.886L262.542 69.806L274.032 76.296L287.091 80.708L294.403 82.005L300.584 82.697L300.585 68.854Z" fill="black"/>
<path fill-rule="evenodd" clip-rule="evenodd" d="M109.593 227.6C109.593 227.6 112.692 232.027 114.189 234.276C116.119 237.175 119.846 243.06 119.846 243.06L251.014 117.625C251.014 117.625 243.768 112.018 240.408 109.895C239.303 109.723 237.226 110.949 237.226 110.949C237.226 110.949 236.34 113.865 235.104 114.463C234.25 114.876 232.276 114.112 232.276 114.112L229.448 116.922C229.448 116.922 227.455 121.826 225.912 123.95C222.589 128.523 218.225 132.303 213.849 135.896C210.456 138.681 206.774 141.143 202.931 143.274C200.175 144.803 197.18 145.862 194.288 147.118C192.432 147.924 188.699 149.488 188.699 149.488L109.593 227.6Z" fill="#FF8080"/>
<path fill-rule="evenodd" clip-rule="evenodd" d="M113.493 232.949L117.377 239.221L246.033 114.5L239.964 110.399L113.493 232.949Z" fill="black"/>
<path fill-rule="evenodd" clip-rule="evenodd" d="M83.25 148.686L83.5 211.046C83.5 211.046 90.86 213.998 94.25 216.016C97.825 218.142 104.25 223.469 104.25 223.469L103.5 140.984L92.75 131.792L83.25 148.686Z" fill="#FF8080"/>
<path fill-rule="evenodd" clip-rule="evenodd" d="M89.75 138.5L90 213.034L97.25 217.009L96.75 136.264L92.75 132.537L89.75 138.5Z" fill="black"/>
<path fill-rule="evenodd" clip-rule="evenodd" d="M81.22 119.439C86.038 116.297 91.746 112.565 96.564 109.423C100.177 113.313 103.359 117.648 107.404 121.093C111.398 124.497 115.868 127.369 120.502 129.846C124.059 131.748 127.839 133.259 131.686 134.481C135.517 135.701 139.446 136.589 143.429 137.135C147.76 137.725 152.159 137.915 156.528 137.769C160.815 137.625 165.113 137.166 169.311 136.287C173.232 135.466 177.047 134.163 180.8 132.764C184.136 131.52 187.427 130.12 190.568 128.448C192.825 127.248 195.172 125.335 197.054 124.363C198.935 125.261 199.904 128.113 202.028 128.724C203.858 129.251 205.913 128.55 207.674 127.826C209.218 127.192 210.384 125.881 211.739 124.909C212.717 124.909 213.771 125.281 214.675 124.909C216.248 124.261 216.653 121.791 218.288 121.318C218.954 121.125 219.65 121.945 220.32 121.767C221.504 121.452 222.127 120.121 223.03 119.298C223.708 119.298 224.437 119.556 225.063 119.298C226.145 118.853 226.719 117.652 227.547 116.829L229.806 117.279C227.547 120.719 225.764 124.519 223.03 127.602C219.57 131.504 215.36 134.736 211.061 137.702C206.244 141.024 201.015 143.759 195.705 146.23C190.375 148.71 184.872 150.887 179.219 152.514C174.426 153.893 169.501 154.904 164.539 155.431C159.823 155.933 155.052 155.836 150.312 155.656C146.232 155.501 142.14 155.225 138.117 154.534C134.519 153.916 130.981 152.947 127.503 151.841C121.352 149.884 115.088 147.99 109.436 144.883C104.588 142.218 100.385 138.513 96.112 135.008C93.441 132.818 90.827 130.539 88.434 128.051C85.837 125.351 83.328 122.506 81.22 119.439Z" fill="#FF8080" stroke="#503030" stroke-width="2" stroke-linecap="round" stroke-linejoin="round"/>
<path fill-rule="evenodd" clip-rule="evenodd" d="M86.804 116.925L92.241 113.269C92.241 113.269 95.088 117.115 96.704 118.876C98.6608 120.998 100.759 122.985 102.985 124.823C105.819 127.173 108.805 129.361 111.934 131.307C116.467 134.126 121.123 136.846 126.101 138.785C131.069 140.721 136.306 142.02 141.574 142.861C146.737 143.685 152.007 143.939 157.234 143.788C162.206 143.644 167.208 143.162 172.054 142.046C177.284 140.843 182.364 138.961 187.247 136.748C192.194 134.505 201.415 128.713 201.415 128.713C201.415 128.713 205.487 128.31 207.381 127.602C209.206 126.919 212.414 124.638 212.414 124.638C212.414 124.638 214.478 125.016 215.397 124.638C216.615 124.136 218.193 121.858 218.193 121.858C218.193 121.858 219.291 122.523 219.871 122.414C220.825 122.236 222.108 120.562 222.108 120.562C222.108 120.562 219.645 123.552 218.193 124.822C214.713 127.87 210.699 130.26 206.821 132.789C203.292 135.091 199.771 137.439 196.009 139.341C190.743 142.005 185.305 144.431 179.641 146.104C173.086 148.039 166.294 149.37 159.471 149.827C153.146 150.251 146.744 149.841 140.475 148.901C134.38 147.987 128.272 146.645 122.559 144.343C116.721 141.99 111.343 138.565 106.155 135.013C102.845 132.747 99.792 130.119 96.834 127.417C94.601 125.377 92.575 123.125 90.495 120.932C89.245 119.615 86.804 116.925 86.804 116.925Z" fill="black"/>
<path fill-rule="evenodd" clip-rule="evenodd" d="M117.002 86.082C116.399 88.626 115.982 91.22 115.195 93.712C114.552 95.747 113.722 97.724 112.824 99.66C112.217 100.967 111.469 102.204 110.791 103.476C110.641 102.166 110.711 100.813 110.339 99.548C109.859 97.91 109.415 96.022 108.081 94.948C106.514 93.685 104.226 93.418 102.209 93.488C100.509 93.548 98.695 94.018 97.354 95.06C95.955 96.146 94.969 97.838 94.531 99.548C94.066 101.364 94.246 103.391 94.87 105.158C95.388 106.628 96.477 107.868 97.58 108.974C98.396 109.793 99.462 110.321 100.403 110.994C100.516 112.041 100.239 113.209 100.742 114.136C101.273 115.119 102.313 115.814 103.339 116.268C104.034 116.577 104.844 116.493 105.597 116.605C105.71 117.503 105.512 118.497 105.936 119.298C106.358 120.095 107.13 120.751 107.968 121.094C108.631 121.364 109.398 121.168 110.114 121.206C110.377 122.066 110.335 123.087 110.904 123.786C111.391 124.386 112.169 124.803 112.937 124.909C114.239 125.089 115.496 124.31 116.776 124.011C117.227 124.759 117.398 125.775 118.131 126.255C118.828 126.713 119.783 126.669 120.615 126.592C121.563 126.504 122.422 125.994 123.325 125.694C123.739 126.442 123.809 127.536 124.567 127.939C125.333 128.346 126.331 127.959 127.164 127.714C127.858 127.511 128.444 127.041 129.084 126.704C129.724 127.378 130.156 128.338 131.004 128.724C131.757 129.067 132.703 129.102 133.487 128.836C134.094 128.631 134.507 128.057 134.955 127.602C135.667 126.88 136.235 126.031 136.875 125.246C135.67 124.497 134.403 123.841 133.262 123.001C132.018 122.086 130.802 121.11 129.762 119.971C128.672 118.781 127.792 117.411 126.938 116.044C125.97 114.494 125.162 112.85 124.341 111.219C123.505 109.557 122.631 107.906 121.97 106.169C121.027 103.689 120.391 101.102 119.712 98.539C119.121 96.309 118.617 94.059 118.131 91.805C117.721 89.905 117.379 87.99 117.002 86.082Z" fill="#FF8080"/>
<path d="M103.607 99.637C102.177 99.631 100.635 100.899 100.426 102.25C100.181 103.827 101.603 105.563 103.043 106.27C104.827 107.144 107.316 106.862 108.991 105.797C111.712 104.065 112.503 100.365 113.737 97.397C115.315 93.603 115.957 89.003 117.067 85.535" stroke="#503030" stroke-width="2" stroke-linecap="round" stroke-linejoin="round"/>
<path d="M108.954 105.613C110.196 104.33 110.889 101.537 110.648 99.407C110.462 97.767 109.628 96.034 108.305 95.035C106.594 93.744 104.149 93.445 102.011 93.653C100.057 93.843 97.987 94.605 96.614 96.001C95.329 97.308 94.754 99.261 94.519 101.073C94.289 102.847 94.456 104.779 95.238 106.39C96.038 108.041 97.491 109.41 99.07 110.357C100.303 111.097 101.789 111.409 103.222 111.547C105.057 111.725 106.966 111.6 108.732 111.071C110.359 110.582 111.87 109.765 113.17 108.671C114.443 107.593 115.336 106.125 116.237 104.723C117.48 102.789 118.366 100.65 119.431 98.613" stroke="#503030" stroke-width="2" stroke-linecap="round" stroke-linejoin="round"/>
<path d="M100.507 111.547C100.347 112.711 100.54 113.925 101.227 114.801C102.104 115.921 103.647 116.492 105.059 116.705C106.685 116.95 108.348 116.362 109.929 115.912C111.454 115.477 112.952 114.885 114.321 114.087C115.546 113.371 116.654 112.453 117.674 111.468C119.164 110.028 120.335 108.294 121.666 106.708M105.777 117.42C105.937 118.24 105.778 119.192 106.257 119.879C106.718 120.543 107.534 121 108.332 121.149C109.636 121.391 110.979 120.829 112.245 120.434C113.472 120.052 114.628 119.459 115.758 118.847C117.314 118.005 118.861 117.11 120.229 115.991C121.624 114.849 122.731 113.399 123.982 112.103M110.408 121.545C110.594 122.259 110.479 123.132 110.968 123.688C111.61 124.421 112.703 124.775 113.682 124.798C114.868 124.827 115.962 124.113 117.035 123.608C118.438 122.949 119.767 122.128 121.027 121.228C122.163 120.418 123.134 119.402 124.221 118.53C125.004 117.902 125.818 117.313 126.617 116.705M116.955 124.079C117.142 125.75 117.881 126.233 118.872 126.624C119.876 127.02 121.057 126.456 122.065 126.068C123.27 125.605 124.299 124.768 125.339 124.005C126.859 122.892 128.213 121.572 129.651 120.355M123.423 125.989C123.503 126.915 124.293 127.629 125.099 127.893C126.056 128.208 127.119 127.633 128.054 127.258C128.896 126.92 129.653 126.385 130.369 125.83C131.304 125.105 132.073 124.19 132.924 123.37M129.49 127.258C129.89 127.867 130.412 128.517 131.088 128.845C131.666 129.126 132.381 129.244 133.004 129.083C133.834 128.87 134.502 128.205 135.08 127.576C135.603 127.006 135.878 126.253 136.278 125.592" stroke="#503030" stroke-width="2" stroke-linecap="round" stroke-linejoin="round"/>
<path fill-rule="evenodd" clip-rule="evenodd" d="M178.834 45.9001C184.836 46.0071 190.85 45.81 196.841 46.223C201.814 46.565 206.775 47.1731 211.698 48.0051C214.925 48.5521 218.101 49.41 221.302 50.112C221.802 53.892 222.331 57.669 222.802 61.454C223.335 65.716 223.753 69.994 224.304 74.254C224.716 77.446 224.967 80.6761 225.654 83.8131C226.065 85.6911 226.754 87.486 227.304 89.322L229.556 89.6461C230.306 88.8361 230.794 87.5591 231.806 87.2161C233.164 86.7561 234.759 87.292 236.009 88.0261C237.812 89.0851 239.127 91.0041 240.211 92.8861C241.256 94.701 242.111 96.756 242.311 98.881C242.435 100.26 242.23 101.648 241.711 102.932C241.322 103.881 240.776 104.912 239.911 105.362C239.054 105.807 238.01 105.362 237.059 105.362C236.559 106.118 236.222 107.039 235.559 107.631C234.54 108.538 233.157 108.819 231.957 109.413C231.307 110.223 230.909 111.398 230.006 111.843C229.233 112.225 228.306 111.843 227.455 111.843C226.705 112.599 226.159 113.705 225.204 114.112C224.413 114.448 223.504 114.112 222.653 114.112C221.803 115.192 221.308 116.792 220.102 117.352C219.228 117.759 218.201 117.244 217.25 117.19C216.5 118.162 216.06 119.57 215 120.107C214.139 120.542 213.099 120.107 212.148 120.107C211.198 120.971 210.356 121.997 209.297 122.699C208.093 123.496 206.769 124.127 205.395 124.481C203.981 124.846 202.475 125.081 201.043 124.805C199.478 124.505 197.983 123.701 196.691 122.699C195.254 121.583 194.069 120.079 193.09 118.486C191.753 116.312 190.828 113.842 190.088 111.357C188.747 106.85 188.308 102.084 187.538 97.423C186.532 91.339 185.814 85.203 184.836 79.114C183.862 73.05 182.781 67.007 181.685 60.967C180.772 55.937 179.784 50.922 178.834 45.899V45.9001Z" fill="#FF8080"/>
<path d="M179.035 46.708C179.035 46.708 181.979 61.961 183.28 69.622C184.831 78.762 185.772 88.022 187.524 97.119C188.712 103.285 188.894 109.969 191.769 115.449C193.741 119.209 196.39 123.506 200.258 124.615C204.011 125.692 208.912 124.437 211.498 121.309C213.671 118.683 214.118 114.172 212.991 110.867C211.767 107.275 208.485 103.223 204.941 103.362C201.253 103.508 197.161 107.832 197.112 111.816C197.068 115.394 200.644 119.364 203.951 119.606C205.996 119.757 208.48 117.644 208.747 115.45C209.058 112.89 206.893 109.183 204.502 109.206C203.067 109.22 201.087 111.026 202.016 113.003" stroke="#503030" stroke-width="2.025" stroke-linecap="round" stroke-linejoin="round"/>
<path d="M183.985 45.949C186.475 54.175 187.115 62.521 188.45 70.852C189.776 79.13 190.166 87.594 191.967 95.767C193.396 102.255 195.011 109.169 197.721 114.785M189.659 45.937C191.559 53.099 192.133 60.645 193.179 68.042C194.198 75.248 194.565 82.596 195.861 89.734C196.803 94.922 197.481 100.132 199.549 105.022M194.714 46.293C196.402 53.138 196.914 60.351 197.843 67.422C198.748 74.309 199.075 81.332 200.227 88.155C201.064 93.114 201.667 98.094 203.505 102.767M199.659 46.886C201.179 53.386 201.639 60.236 202.475 66.949C203.29 73.489 203.584 80.159 204.62 86.638C205.374 91.346 205.917 96.075 207.57 100.513M204.494 47.36C206.014 53.545 206.474 60.06 207.31 66.447C208.125 72.669 208.419 79.014 209.455 85.177C210.209 89.657 210.752 94.156 212.405 98.377M209.918 48.203C211.396 53.955 211.728 59.701 212.506 65.472C213.287 71.267 213.584 77.162 214.592 82.895C215.325 87.062 215.852 91.247 217.46 95.175M215.153 49.022C216.546 54.285 216.967 59.831 217.734 65.268C218.481 70.563 218.751 75.964 219.701 81.21C220.391 85.023 220.889 88.852 222.405 92.445M220.408 49.274C221.59 53.991 222.49 59.639 223.277 64.886C223.987 69.614 224.139 74.472 224.946 79.173C225.532 82.59 225.954 86.022 227.24 89.242M204.625 103.02C206 102.002 207.009 100.893 208.421 100.84C211.441 100.729 213.866 102.71 215.636 104.936C217.521 107.306 218.664 110.676 218.469 113.791C218.329 116.024 217.322 118.438 215.666 119.784C214.838 120.457 213.956 120.297 212.613 120.412" stroke="#503030" stroke-width="2.025" stroke-linecap="round" stroke-linejoin="round"/>
<path d="M209.63 100.767C210.785 99.3941 211.652 98.3351 213.023 98.2471C215.735 98.0731 218.468 100.117 220.238 102.343C222.123 104.711 223.266 108.082 223.071 111.197C222.931 113.43 222.218 115.861 220.268 117.191C219.593 117.651 219.225 118.122 217.882 117.406" stroke="#503030" stroke-width="2.025" stroke-linecap="round" stroke-linejoin="round"/>
<path d="M213.806 98.0381C215.181 97.0211 216.401 95.2281 218.077 95.1621C220.793 95.0541 223.522 97.0321 225.293 99.2581C227.177 101.627 228.321 104.997 228.126 108.113C227.986 110.346 227.076 112.911 225.323 114.106C224.554 114.63 223.94 114.652 222.597 114.173" stroke="#503030" stroke-width="2.025" stroke-linecap="round" stroke-linejoin="round"/>
<path d="M219.52 94.953C220.565 93.343 221.621 92.512 223.022 92.433C225.736 92.281 228.467 94.303 230.238 96.529C232.122 98.898 233.266 102.269 233.071 105.384C232.931 107.617 231.954 110.076 230.267 111.377C229.491 111.977 228.885 112.161 227.432 111.801" stroke="#503030" stroke-width="2.025" stroke-linecap="round" stroke-linejoin="round"/>
<path d="M224.355 91.869C224.851 90.495 226.239 89.556 227.528 89.467C230.239 89.28 232.973 91.337 234.743 93.563C236.628 95.932 237.771 99.303 237.576 102.418C237.436 104.651 236.463 107.115 234.773 108.411C234.13 108.904 233.771 108.633 232.428 108.748" stroke="#503030" stroke-width="2.025" stroke-linecap="round" stroke-linejoin="round"/>
<path d="M229.41 89.496C229.905 87.886 230.915 87.331 232.033 87.213C234.737 86.928 237.478 89.083 239.248 91.309C241.133 93.678 242.154 97.042 242.081 100.164C242.043 101.805 241.515 103.644 240.377 104.734C239.474 105.598 238.225 105.635 236.882 105.75" stroke="#503030" stroke-width="2.025" stroke-linecap="round" stroke-linejoin="round"/>
<path fill-rule="evenodd" clip-rule="evenodd" d="M83.47 1.854L116 41.605C116 41.605 125.168 38.725 129.882 37.847C136.828 36.552 143.902 35.793 150.967 35.643C162.059 35.406 173.217 36.038 184.187 37.686C196.673 39.563 221 46.574 221 46.574L249.963 1.854H83.47Z" fill="#BF4040" stroke="#503030" stroke-width="2" stroke-linecap="round" stroke-linejoin="round"/>
<path fill-rule="evenodd" clip-rule="evenodd" d="M100.154 3.32705L118.804 30.298C126.103 28.0601 130.33 28.513 139.634 27.592L134.983 3.32705H128.538L134.298 24.0791C128.954 24.409 126.56 24.3561 121.155 25.191L107.56 3.32705H100.154ZM144.993 3.32705L149.477 26.885C160.813 25.955 169.37 25.9351 180.705 26.9261L186.347 3.32605H179.08L175.652 22.4851C166.746 22.0151 162.049 21.969 154.571 22.445L151.539 3.32705H144.993ZM197.373 3.32705L189.145 28.2181C197.42 28.826 208.669 33.1851 217.672 35.0801L233.902 3.32705H226.772L214.561 27.7491C209.533 26.538 201.578 24.957 196.55 24.342L203.543 3.32705H197.373Z" fill="white" stroke="white" stroke-width="2" stroke-linecap="round" stroke-linejoin="round"/>
<path fill-rule="evenodd" clip-rule="evenodd" d="M128.655 65.742C129.05 66.179 128.858 66.994 128.561 67.502C128.246 68.044 127.604 68.508 126.973 68.522C126.359 68.531 125.703 68.117 125.386 67.595C125.032 67.012 124.805 66.035 125.292 65.556C126.09 64.773 127.905 64.913 128.655 65.742ZM178.896 54.48C174.142 53.35 169.523 51.715 164.634 51.086C161.471 50.68 158.114 49.991 155.034 50.86C153.101 51.406 149.761 53.368 149.982 54.13C150.092 54.512 150.882 54.494 151.353 54.469C153.534 54.351 155.353 52.599 157.503 52.218C160.113 51.755 162.819 51.998 165.457 52.218C170.005 52.597 174.416 53.726 178.896 54.48Z" fill="#503030" stroke="#503030" stroke-width="2.017" stroke-linecap="round" stroke-linejoin="round"/>
<path d="M153.23 63.485C152.682 62.995 150.205 62.76 150.646 62.201C151.226 61.465 154.581 58.921 156.933 58.013C159.124 57.169 161.543 57.021 163.905 56.969C166.407 56.915 168.976 56.995 171.353 57.753C174.231 58.671 177.36 61.544 179.241 62.197" stroke="#503030" stroke-width="2.017" stroke-linecap="round" stroke-linejoin="round"/>
<path fill-rule="evenodd" clip-rule="evenodd" d="M181.501 68.5779C177.479 67.6939 173.741 63.8739 169.433 62.9439C166.567 62.3249 163.552 62.6139 160.657 63.0639C158.891 63.3364 157.172 63.8572 155.552 64.6109C154.582 65.0649 153.854 65.2959 152.848 66.3809C154.814 67.1439 155 69.8229 156.68 70.6589C159.748 72.1869 163.445 71.6229 166.828 71.3829C169.493 71.1929 172.051 70.1859 174.681 69.6889C176.945 69.2599 179.353 69.7429 181.501 68.5779Z" stroke="#503030" stroke-width="2.017" stroke-linecap="round" stroke-linejoin="round"/>
<path d="M171.353 64.5C171.262 65.67 171.761 66.9801 171.079 68.0071C170.262 69.2371 168.581 70.0601 166.965 70.4971C165.705 70.8371 164.231 70.8761 162.988 70.4971C161.802 70.1341 160.756 69.356 160.108 68.46C159.222 67.234 159.377 65.67 159.011 64.274" stroke="#503030" stroke-width="2.017" stroke-linecap="round" stroke-linejoin="round"/>
<path fill-rule="evenodd" clip-rule="evenodd" d="M166.795 64.535C167.191 64.973 166.999 65.787 166.702 66.295C166.386 66.837 165.744 67.302 165.114 67.315C164.5 67.324 163.844 66.91 163.526 66.388C163.172 65.806 162.946 64.828 163.433 64.35C164.231 63.566 166.046 63.706 166.796 64.535H166.795Z" fill="#503030" stroke="#503030" stroke-width="2.017" stroke-linecap="round" stroke-linejoin="round"/>
<path d="M167.447 78.9909C164.567 78.5389 161.482 76.791 158.988 74.903C156.643 73.126 154.68 70.3589 153.15 68.2969M136.492 56.5229C137.223 57.9929 138.335 59.372 138.686 60.935C139.402 64.125 138.884 67.444 138.412 70.665C137.827 74.652 136.214 78.485 135.258 82.43C134.643 84.965 132.269 87.828 133.598 90.077C134.373 91.391 136.594 90.792 137.994 91.413C139.821 92.223 141.67 93.779 143.134 94.495M153.663 81.745C155.537 83.442 158.281 84.6949 159.286 86.8359C159.764 87.8559 159.843 89.1249 159.286 90.1159C158.63 91.2819 157.238 92.32 155.72 92.606C154.477 92.84 153.149 92.299 152.017 91.814C150.579 91.197 149.774 89.7949 148.315 89.2119C147.266 88.7919 145.97 88.292 144.886 88.646C144.521 88.766 144.088 89.127 144.201 89.438C144.567 90.444 146.571 90.206 147.766 90.569C149.313 91.039 150.875 91.474 152.429 91.927" stroke="#503030" stroke-width="2.017" stroke-linecap="round" stroke-linejoin="round"/>
<path fill-rule="evenodd" clip-rule="evenodd" d="M160.312 102.683C158.382 101.885 155.674 102.052 153.338 102.098C150.961 102.145 148.661 103.063 146.286 102.973C143.579 102.87 141.101 101.393 138.391 101.373C136.402 101.357 134.13 102.088 132.572 102.456C132.697 103.017 132.893 103.746 132.572 104.185C134.57 103.569 137.384 102.695 139.84 102.94C142.154 103.172 143.818 105.38 146.148 105.43C148.87 105.488 150.97 102.927 153.69 102.843C156.289 102.763 159.067 104.475 161.096 104.863C160.556 104.203 160.29 103.143 160.312 102.683Z" fill="#503030" stroke="#503030" stroke-width="2.017" stroke-linecap="round" stroke-linejoin="round"/>
<path d="M154.245 108.86C152.328 109.538 150.539 110.555 148.495 110.893C146.974 111.145 145.367 111.091 143.84 110.861C142.802 110.704 141.842 110.294 140.868 109.958C139.964 109.645 139.095 109.269 138.208 108.925M141.486 116.255C142.881 115.793 144.202 115.341 145.632 115.352C146.824 115.361 147.939 115.728 149.074 116.158" stroke="#503030" stroke-width="2.017" stroke-linecap="round" stroke-linejoin="round"/>
<path fill-rule="evenodd" clip-rule="evenodd" d="M136.234 54.1599C134.334 52.3239 130.179 51.8599 126.924 51.6519C124.557 51.4999 122.16 51.9199 119.894 52.5919C118.611 52.9719 117.79 53.7419 116.27 54.3159C118.867 53.8979 120.802 53.1439 123.124 53.0619C125.481 52.9799 127.85 53.4059 130.154 53.8459C131.777 54.1559 133.28 54.7739 134.714 55.4139C135.344 55.6939 136.7 54.6089 136.234 54.1599Z" fill="#503030" stroke="#503030" stroke-width="2.017" stroke-linecap="round" stroke-linejoin="round"/>
<path d="M136.9 62.2221C135.043 61.4681 133.428 59.3391 131.329 58.6521C128.532 57.7391 125.416 57.6811 122.515 58.1041C120.597 58.3841 118.967 59.4301 117.194 60.0941M136.645 65.212C134.592 64.462 133.071 64.241 131.245 64.036C128.543 63.731 125.789 63.63 123.097 63.96C121.497 64.156 119.832 64.425 118.441 65.17C117.562 65.64 117 66.4801 116.279 67.1351L116.695 70.159C118.135 70.612 119.52 71.262 121.018 71.519C123.063 71.87 125.178 71.8621 127.254 71.7461C129.469 71.6221 131.711 71.4771 133.824 70.7631C134.961 70.3791 136.098 69.842 137.02 69.016C137.666 68.436 138.172 67.232 138.56 66.854C138.2 66.2 136.958 65.558 136.645 65.212Z" stroke="#503030" stroke-width="2.017" stroke-linecap="round" stroke-linejoin="round"/>
<path d="M132.835 65.465C132.744 66.634 133.244 67.945 132.561 68.972C131.744 70.202 130.063 71.024 128.447 71.461C127.187 71.801 125.714 71.841 124.47 71.461C123.285 71.099 122.238 70.321 121.59 69.424C120.704 68.198 120.86 66.634 120.493 65.238M137.176 71.589C135.646 72.979 134.382 74.604 132.59 75.76C131.153 76.687 129.375 77.183 127.768 77.894" stroke="#503030" stroke-width="2.017" stroke-linecap="round" stroke-linejoin="round"/>
<path d="M115.415 42.431C115.494 49.131 115.409 55.833 115.652 62.529C115.89 69.078 116.049 75.647 116.842 82.153C117.637 88.675 118.394 95.284 120.411 101.541C122.175 107.014 124.371 112.508 127.786 117.146C130.338 120.611 133.524 123.811 137.303 125.894C140.466 127.637 144.162 128.494 147.771 128.731C151.923 129.005 156.121 128.141 160.143 127.076C164.611 125.893 168.853 123.93 172.99 121.874C176.299 120.23 179.352 118.12 182.507 116.2C185.059 114.647 187.582 113.047 190.12 111.471" stroke="#503030" stroke-width="2" stroke-linecap="round" stroke-linejoin="round"/>
<path fill-rule="evenodd" clip-rule="evenodd" d="M81.839 119.03C62.98 128.025 44.095 137.086 26.154 143.801L25.801 190.005C25.801 190.005 38.765 178.528 44.716 172.261C50.0048 166.7 54.9633 160.834 59.566 154.693C63.222 149.806 66.395 144.575 69.641 139.409C73.855 132.706 81.839 119.03 81.839 119.03Z" fill="black" stroke="#503030" stroke-width="2" stroke-linecap="round" stroke-linejoin="round"/>
<path fill-rule="evenodd" clip-rule="evenodd" d="M25.5 189.431L25.75 208.811C30.917 204.669 36.19 200.658 41.25 196.388C46.873 191.642 52.723 187.096 57.75 181.729C62.486 176.674 66.427 170.929 70.5 165.332C74.86 159.339 78.94 153.145 83 146.947C86.167 142.114 89.167 137.175 92.25 132.289L81.25 119.866C78.167 125.166 75.216 130.545 72 135.766C68.476 141.488 64.952 147.223 61 152.661C56.87 158.344 52.427 163.811 47.75 169.059C44.5863 172.617 41.2489 176.016 37.75 179.245C33.844 182.841 29.583 186.035 25.5 189.431Z" fill="#503030" stroke="#503030" stroke-width="2" stroke-linecap="round" stroke-linejoin="round"/>
<path fill-rule="evenodd" clip-rule="evenodd" d="M78.781 127.816C77.769 127.531 77.226 129.446 77.125 130.487C76.819 133.624 82.449 136.877 80.469 139.338C78.853 141.346 75.196 137.361 72.781 138.282C71.725 138.685 70.81 139.757 70.594 140.86C69.934 144.227 76.074 148.05 73.813 150.643C71.991 152.731 68.234 148.346 65.593 149.214C64.544 149.559 63.608 150.547 63.313 151.605C62.35 155.059 68.15 159.513 65.656 162.102C63.71 164.122 60.022 159.784 57.344 160.642C56.292 160.98 55.341 161.949 55.031 163.002C54.051 166.342 59.624 170.754 57.156 173.22C54.879 175.496 50.763 170.449 47.656 171.326C46.614 171.62 45.649 172.518 45.281 173.531C44.096 176.789 49.361 181.735 46.594 183.841C44.35 185.549 41.565 180.394 38.75 180.643C37.668 180.738 36.546 181.448 36 182.382C34.107 185.616 38.79 191.888 35.437 193.592C33.46 194.599 32.029 190.391 29.844 189.99C28.911 189.82 27.578 189.79 27.063 190.58C26.547 191.371 27.118 192.569 27.656 193.344C29.571 196.106 32.786 198.645 36.156 198.81C37.315 198.867 38.622 198.195 39.25 197.226C41.408 193.898 36.482 187.488 39.844 185.363C42.398 183.749 45.25 189.181 48.25 188.779C49.384 188.627 50.53 187.749 50.969 186.699C52.387 183.306 46.857 178.269 49.562 175.767C51.997 173.515 56.16 178.679 59.344 177.723C60.415 177.402 61.399 176.429 61.719 175.363C62.726 172.009 57.111 167.597 59.562 165.083C61.528 163.068 65.225 167.423 67.906 166.543C68.956 166.199 69.892 165.21 70.187 164.152C71.154 160.688 65.344 156.221 67.844 153.624C69.847 151.544 73.676 156.079 76.406 155.114C77.485 154.734 78.429 153.652 78.656 152.537C79.35 149.133 73.167 145.297 75.406 142.63C77.09 140.625 80.776 144.647 83.219 143.686C84.279 143.269 85.191 142.165 85.375 141.046C85.874 138.014 80.132 134.762 82.125 132.413C83.382 130.93 85.965 133.893 87.875 133.5C88.8 133.309 90.042 132.838 90.219 131.916C90.396 130.994 89.415 130.101 88.625 129.586C86.001 127.876 82.491 128.22 79.375 127.848C79.178 127.824 78.918 127.958 78.781 127.816Z" fill="white"/>
<path fill-rule="evenodd" clip-rule="evenodd" d="M104.269 216.786C104.511 213.167 104.004 211.039 104.247 207.421C110.477 199.379 115.531 188.171 121.762 180.131C123.45 174.101 132.98 162.883 135.615 160.967C137.464 161.335 139.143 162.064 138.515 164.287C137.888 166.508 135.798 170.222 131.433 175.842C129.573 178.012 125.995 185.892 122.96 190.732C120.004 195.445 116.74 199.963 113.493 204.482C110.502 208.644 107.344 212.685 104.269 216.786Z" fill="#FF8080" stroke="#503030" stroke-width="2" stroke-linecap="round" stroke-linejoin="round"/>
<path fill-rule="evenodd" clip-rule="evenodd" d="M136.315 163.62L134.985 153.465L140.438 150.447L142.644 156.477L136.315 163.62Z" fill="#FF8080" stroke="#503030" stroke-width="2" stroke-linecap="round" stroke-linejoin="round"/>
<path fill-rule="evenodd" clip-rule="evenodd" d="M135.824 180.395C135.824 180.395 133.412 190.485 130.728 194.833C128.035 199.196 123.368 202.017 120.048 205.93C118.033 208.302 115.602 210.518 114.464 213.408C113.367 216.195 114.427 219.489 113.493 222.334C112.739 224.629 109.852 228.606 109.852 228.606L104.026 223.54L104.511 216.786C104.511 216.786 110.9 209.572 113.736 205.689C116.043 202.529 117.876 199.052 120.047 195.798C121.461 193.678 123.042 191.67 124.417 189.526C128.872 182.576 136.972 168.185 136.972 168.185L141.455 165.315L135.824 180.395ZM103.54 142.001L104.018 222.277L103.54 142.001ZM187.045 150.686L114.221 222.093L187.045 150.686ZM104.511 149.72L108.881 145.861L104.511 149.72ZM104.269 156.958L114.949 148.515L104.269 156.958ZM104.269 163.23L121.504 150.927L104.269 163.23ZM104.754 169.985L128.301 152.615L104.754 169.985ZM104.997 177.464L129.913 157.994L104.997 177.464ZM104.754 184.7L128.95 163.791L104.754 184.7ZM105.24 190.732L124.87 173.883L105.24 190.732ZM105.482 196.763L116.886 186.661L105.482 196.763ZM117.862 210.272L118.591 216.786L117.862 210.272ZM122.232 204.241L122.717 212.443L122.232 204.241ZM127.33 198.934L128.3 207.619L127.33 198.934ZM132.67 193.385L133.884 200.864L132.67 193.385ZM136.076 182.784L138.496 197.486L136.076 182.784ZM138.766 172.941L143.597 193.129L138.766 172.941ZM142.648 163.314L148.206 187.824L142.648 163.314ZM147.235 156.958L152.09 183.495L147.235 156.958ZM153.546 156.958L157.188 177.705L153.546 156.958ZM158.644 156.717L162.042 172.88L158.644 156.717ZM164.227 156.476L167.14 168.779L164.227 156.476ZM170.298 155.028L172.228 164.693L170.298 155.028ZM174.423 154.305L175.636 160.095L174.423 154.305ZM179.52 152.857L180.243 156.96L179.52 152.857Z" fill="#BF4040"/>
<path d="M103.54 142.001L104.018 222.277M187.045 150.686L114.221 222.093M104.511 149.72L108.881 145.861M104.269 156.958L114.949 148.515M104.269 163.23L121.504 150.927M104.754 169.985L128.301 152.615M104.997 177.464L129.913 157.994M104.754 184.7L128.95 163.791M105.24 190.732L124.87 173.883M105.482 196.763L116.886 186.661M117.862 210.272L118.591 216.786M122.232 204.241L122.717 212.443M127.33 198.934L128.3 207.619M132.67 193.385L133.884 200.864M136.076 182.784L138.496 197.486M138.766 172.941L143.597 193.129M142.648 163.314L148.206 187.824M147.235 156.958L152.09 183.495M153.546 156.958L157.188 177.705M158.644 156.717L162.042 172.88M164.227 156.476L167.14 168.779M170.298 155.028L172.228 164.693M174.423 154.305L175.636 160.095M179.52 152.857L180.243 156.96M135.824 180.395C135.824 180.395 133.412 190.485 130.728 194.833C128.035 199.196 123.368 202.017 120.048 205.93C118.033 208.302 115.602 210.518 114.464 213.408C113.367 216.195 114.427 219.489 113.493 222.334C112.739 224.629 109.852 228.606 109.852 228.606L104.026 223.54L104.511 216.786C104.511 216.786 110.9 209.572 113.736 205.689C116.043 202.529 117.876 199.052 120.047 195.798C121.461 193.678 123.042 191.67 124.417 189.526C128.872 182.576 136.972 168.185 136.972 168.185L141.455 165.315L135.824 180.395Z" stroke="#503030" stroke-width="2" stroke-linecap="round" stroke-linejoin="round"/>
<path d="M274.827 154.052C273.687 152.226 276.907 148.452 276.92 145.528C276.938 141.794 274.023 138.342 274.35 134.623C274.552 132.349 276.332 130.492 277.066 128.328C277.65 126.606 278.826 124.806 278.399 123.038C277.945 121.155 276.509 118.76 274.563 118.653C272.848 118.559 271.82 120.769 270.773 122.123C268.345 125.268 266.473 128.893 265.216 132.656C263.851 136.744 263.147 138.436 263.173 141.442C263.205 145.191 263.433 147.325 265.909 152.355C265.776 154.628 265.221 156.915 265.509 159.173C265.726 160.863 265.994 162.723 267.084 164.039C268.311 165.521 270.274 166.389 272.155 166.82C275.455 167.575 279.267 167.689 282.299 166.299" stroke="#503030" stroke-width="2" stroke-linecap="round" stroke-linejoin="round"/>
<path d="M268.232 126.412C269.192 127.312 269.815 128.878 271.113 129.113C272.063 129.285 273.048 128.625 273.783 128.004C274.636 127.283 275.064 126.168 275.563 125.171C276.129 124.04 276.523 122.406 276.923 121.631M285.922 141.429C286.106 140.985 286.38 140.567 286.473 140.096C286.603 139.442 286.645 138.741 286.473 138.097C286.236 137.207 285.843 136.241 285.095 135.699C284.223 135.066 282.999 134.911 281.927 135.032C280.769 135.163 279.597 135.695 278.757 136.498C278.178 137.052 277.732 137.835 277.656 138.63C277.594 139.276 277.781 140.005 278.206 140.496C278.835 141.219 279.889 141.478 280.824 141.696C282.48 142.079 284.224 141.921 285.922 141.829C288.063 141.712 290.284 141.7 292.297 140.965C294.087 140.311 295.754 139.211 297.119 137.9C297.941 137.11 298.899 136.214 299.048 135.102C299.247 133.611 298.876 131.709 297.532 130.837C296.737 130.322 295.567 130.767 294.596 130.875C292.156 131.145 289.824 131.965 287.416 132.396C285.342 132.767 283.185 132.726 281.162 133.311C279.117 133.903 277.233 135.065 275.329 135.906" stroke="#503030" stroke-width="2" stroke-linecap="round" stroke-linejoin="round"/>
<path d="M296.52 138.033C297.521 138.967 298.943 139.523 299.524 140.833C299.934 141.756 299.994 142.968 299.654 143.927C299.118 145.444 297.712 146.391 296.52 147.317C295.092 148.425 293.475 149.249 291.817 149.821C290.174 150.388 288.434 150.533 286.723 150.705C285.031 150.875 283.313 151.101 281.629 150.853C280.864 150.739 280.021 150.644 279.408 150.116C278.88 149.661 278.439 148.945 278.363 148.2C278.284 147.429 278.62 146.626 279.016 145.99C279.622 145.017 280.481 144.093 281.498 143.78C282.431 143.493 283.458 143.865 284.372 144.222C285.183 144.539 286.117 144.888 286.592 145.695C286.957 146.315 286.91 147.165 286.854 147.905C286.791 148.725 286.418 149.477 286.2 150.263" stroke="#503030" stroke-width="2" stroke-linecap="round" stroke-linejoin="round"/>
<path d="M297.429 147.61C298.111 148.74 299.199 149.685 299.477 151C299.794 152.496 299.717 154.289 298.931 155.568C298.028 157.034 296.241 157.648 294.698 158.22C292.788 158.928 290.708 158.956 288.691 159.104C286.966 159.23 285.191 159.515 283.504 159.104C282.471 158.852 281.41 158.41 280.637 157.63C280.027 157.015 279.45 156.173 279.408 155.273C279.368 154.416 279.8 153.52 280.364 152.915C281.102 152.125 282.204 151.767 283.231 151.589C284.268 151.409 285.438 151.363 286.371 151.884C287.059 152.268 287.568 153.03 287.872 153.799C288.214 154.662 288.322 155.68 288.145 156.599C287.976 157.482 287.326 158.171 286.917 158.957" stroke="#503030" stroke-width="2" stroke-linecap="round" stroke-linejoin="round"/>
<path d="M296.306 158.072C297.228 158.515 298.82 158.887 299.216 159.988C299.616 161.098 298.818 162.378 298.198 163.377C297.321 164.789 296.073 166.105 294.56 166.766C293.31 167.312 291.847 167.082 290.486 167.061C288.585 167.031 286.649 166.967 284.812 166.471C283.427 166.098 281.753 165.856 280.883 164.703C280.496 164.19 280.432 163.413 280.592 162.788C280.87 161.704 281.681 160.711 282.629 160.135C283.853 159.392 285.534 158.835 286.849 159.399C288.038 159.909 288.689 161.379 289.031 162.64C289.237 163.4 289.19 164.273 288.886 164.998C288.576 165.733 287.819 166.177 287.285 166.766" stroke="#503030" stroke-width="2" stroke-linecap="round" stroke-linejoin="round"/>
<path fill-rule="evenodd" clip-rule="evenodd" d="M82.793 147.69L83.505 210.45C83.505 210.45 78.949 196.592 75.71 190.08C72.687 184 64.931 172.787 64.931 172.787C64.931 172.787 71.228 164.827 74.171 160.697C77.189 156.46 82.793 147.69 82.793 147.69Z" fill="#BF4040" stroke="#503030" stroke-width="2" stroke-linecap="round" stroke-linejoin="round"/>
<path fill-rule="evenodd" clip-rule="evenodd" d="M300 23.272L283.806 38.132L284.006 61.313C284.006 61.313 289.021 62.498 291.581 62.7C294.379 62.92 300 62.502 300 62.502V23.272Z" fill="black"/>
<path fill-rule="evenodd" clip-rule="evenodd" d="M301 15.354L277.825 35.358V60.917L283.606 61.709L284.006 38.132L301 24.065V15.354Z" fill="#FF8080" stroke="#503030" stroke-width="2" stroke-linecap="round" stroke-linejoin="round"/>
<path fill-rule="evenodd" clip-rule="evenodd" d="M301 62.7C295.883 62.502 289.999 62.21 284.578 61.327C278.508 60.339 272.468 58.967 266.66 56.954C260.792 54.921 255.204 52.123 249.714 49.227C245.868 47.199 242.271 44.737 238.55 42.491C241.008 47.841 242.742 53.581 245.926 58.539C249.831 64.619 254.362 70.542 260.081 74.984C265.935 79.531 272.978 82.528 280.018 84.89C285.081 86.59 290.47 87.164 295.768 87.862C297.502 88.091 299.338 88.126 301 88.258V82.513C297.08 82.351 292.69 81.972 288.641 81.076C283.154 79.861 277.739 78.131 272.641 75.776C268.827 74.015 265.117 71.902 261.875 69.238C259.318 67.137 257.201 64.532 255.181 61.916C253.775 60.094 252.176 58.463 251.433 56.123C254.026 57.32 257.216 59.095 260.205 60.37C263.696 61.859 267.245 63.246 270.883 64.332C274.39 65.38 277.986 66.126 281.587 66.785C284.804 67.374 288.051 67.811 291.306 68.122C294.527 68.43 297.81 68.382 301 68.645V62.7Z" fill="#FF8080" stroke="#503030" stroke-width="2" stroke-linecap="round" stroke-linejoin="round"/>
<path fill-rule="evenodd" clip-rule="evenodd" d="M265.717 65.98C265.717 66.803 265.045 67.47 264.217 67.47C263.388 67.47 262.717 66.803 262.717 65.98C262.717 65.156 263.388 64.489 264.217 64.489C265.045 64.489 265.717 65.156 265.717 65.979V65.98ZM274.42 69.484C274.419 69.8114 274.354 70.1353 274.228 70.4374C274.101 70.7394 273.917 71.0137 273.685 71.2444C273.453 71.4752 273.177 71.658 272.874 71.7823C272.572 71.9066 272.247 71.9701 271.92 71.969C270.54 71.969 269.42 70.856 269.42 69.484C269.421 69.1568 269.487 68.8329 269.613 68.531C269.739 68.229 269.923 67.9549 270.156 67.7242C270.388 67.4936 270.663 67.3109 270.966 67.1866C271.268 67.0624 271.593 66.999 271.92 67C273.3 67 274.42 68.112 274.42 69.484ZM285.735 72.816C285.735 74.737 284.168 76.294 282.235 76.294C280.302 76.294 278.735 74.737 278.735 72.816C278.735 70.896 280.302 69.338 282.235 69.338C284.168 69.338 285.735 70.895 285.735 72.816ZM297.92 75.11C297.92 77.58 295.905 79.582 293.42 79.582C290.935 79.582 288.92 77.58 288.92 75.11C288.92 72.64 290.935 70.638 293.42 70.638C295.905 70.638 297.92 72.64 297.92 75.11Z" fill="#FF8080"/>
<path fill-rule="evenodd" clip-rule="evenodd" d="M277.884 84.598V134.49L283.364 132.734V86.53L277.884 84.598ZM277.53 168.045L282.304 166.113L284.602 166.991L284.248 340.386L300.865 350.576L301 359.618L277.354 344.778L277.53 168.045Z" fill="#FF8080" stroke="#503030" stroke-width="2" stroke-linecap="round" stroke-linejoin="round"/>
<path fill-rule="evenodd" clip-rule="evenodd" d="M265.156 157.329C261.267 162.365 256.856 167.042 253.489 172.437C249.961 178.09 247.052 184.147 244.65 190.357C242.187 196.723 240.258 203.327 238.993 210.032C237.816 216.275 237.147 222.655 237.226 229.006C237.301 235.019 238.363 240.991 239.347 246.925C240.268 252.478 241.272 258.043 242.883 263.439C244.283 268.13 246.173 272.675 248.186 277.141C250.082 281.348 252.429 285.34 254.55 289.439L261.974 282.763C258.674 276.322 254.608 270.214 252.075 263.439C249.835 257.447 248.466 251.132 247.479 244.817C246.409 237.973 245.737 231.005 246.065 224.087C246.34 218.278 247.542 212.527 248.893 206.87C250.347 200.779 252.083 194.71 254.55 188.95C256.76 183.79 259.61 178.899 262.682 174.194C264.695 171.108 267.16 168.338 269.399 165.41C268.221 164.473 266.606 163.905 265.864 162.599C264.986 161.056 265.392 159.085 265.156 157.329Z" fill="#503030"/>
<path fill-rule="evenodd" clip-rule="evenodd" d="M267.601 127.237C266.126 126.109 262.65 124.98 261.174 123.852C257.654 127.914 254.102 131.947 250.616 136.037C248.323 138.727 246.012 141.401 243.804 144.16C241.232 147.374 238.679 150.61 236.312 153.975C234.146 157.053 232.073 160.202 230.182 163.452C228.325 166.642 226.687 169.952 225.072 173.268C223.39 176.722 221.727 180.193 220.304 183.76C218.757 187.641 217.255 191.562 216.217 195.607C215.051 200.154 214.38 204.823 213.833 209.484C213.183 215.026 212.756 220.611 212.77 226.192C212.784 231.352 213.295 236.505 213.833 241.638C214.511 248.097 215.097 254.601 216.558 260.93C218.131 267.746 220.506 274.372 223.029 280.9C225.222 286.561 227.723 292.097 230.522 297.484C232.271 300.855 234.382 304.028 236.312 307.3L243.464 300.192C239.831 293.987 235.474 288.148 232.565 281.576C229.645 274.979 227.773 267.943 226.095 260.93C224.336 253.586 222.913 246.12 222.348 238.592C221.824 231.615 222.102 224.578 222.688 217.607C223.229 211.177 223.983 204.717 225.613 198.471C227.36 191.774 230.003 185.311 232.906 179.021C235.554 173.285 238.804 167.831 242.101 162.437C244.864 157.917 247.566 153.313 250.957 149.237C254.651 144.795 259.385 140.833 263.358 137.11C264.267 133.5 266.693 130.847 267.601 127.237Z" fill="#503030"/>
<path d="M241.689 111.158L267.771 127.672" stroke="#503030" stroke-width="2" stroke-linecap="round" stroke-linejoin="round"/>
<path fill-rule="evenodd" clip-rule="evenodd" d="M198.34 169.076L251.803 117.62L261.436 125.04C261.436 125.04 250.936 135.722 246.264 141.553C240.549 148.685 235.219 156.167 230.611 164.05C228.374 167.876 226.621 171.966 224.831 176.017C222.744 180.737 219.051 190.377 219.051 190.377L198.34 169.076Z" fill="#503030" stroke="#503030" stroke-width="2" stroke-linecap="round" stroke-linejoin="round"/>
<path fill-rule="evenodd" clip-rule="evenodd" d="M247.375 122.568C246.429 122.938 245.731 123.975 245.5 124.959C244.784 128.006 249.79 132.108 247.406 134.152C245.476 135.808 242.734 131.123 240.219 131.543C239.079 131.733 237.949 132.647 237.531 133.717C236.421 136.556 241.373 140.991 238.875 142.754C236.843 144.189 234.695 139.792 232.25 139.307C231.545 139.167 230.672 139.06 230.103 139.496C229.534 139.932 229.417 140.799 229.375 141.512C229.17 145.024 234.55 149.6 231.781 151.792C229.46 153.629 226.706 148.408 223.781 147.91C223.083 147.79 222.223 147.711 221.669 148.15C221.116 148.59 221.008 149.442 220.969 150.146C220.755 154.017 226.674 159.101 223.594 161.481C220.736 163.689 217.494 157.209 213.938 156.543C213.227 156.41 212.343 156.315 211.779 156.764C211.215 157.214 211.159 158.094 211.094 158.81C210.587 164.317 218.421 172.843 213.406 175.239C209.402 177.152 208.521 166.828 204.25 165.611C203.34 165.352 201.979 165.513 201.5 166.326C201.02 167.138 201.7 168.271 202.219 169.059C205.785 174.474 211.346 179.149 217.563 181.077C218.265 181.295 219.178 181.381 219.765 180.94C220.352 180.5 220.469 179.603 220.5 178.872C220.743 173.11 211.563 165.737 216.094 162.133C218.876 159.92 222.097 166.325 225.594 167.009C226.299 167.147 227.172 167.256 227.741 166.82C228.31 166.384 228.427 165.517 228.469 164.804C228.699 160.878 222.684 155.76 225.781 153.314C228.115 151.469 230.878 156.704 233.812 157.226C234.518 157.352 235.389 157.451 235.952 157.009C236.513 156.567 236.619 155.702 236.656 154.99C236.839 151.53 231.527 146.991 234.281 144.866C236.136 143.436 238.233 147.619 240.531 148.096C241.213 148.238 242.048 148.356 242.616 147.956C243.184 147.556 243.348 146.733 243.437 146.046C243.855 142.829 239.469 138.469 242 136.419C244.046 134.762 246.842 139.597 249.438 139.121C250.578 138.911 251.691 137.945 252.063 136.854C253.075 133.881 247.769 129.686 250.156 127.63C252.482 125.627 255.767 130.812 258.844 130.736C259.829 130.711 261.239 130.526 261.572 129.604C261.904 128.683 260.932 127.651 260.187 127.009C256.967 124.231 252.285 123.751 248.157 122.692C247.901 122.627 247.62 122.472 247.375 122.568Z" fill="white"/>
<path fill-rule="evenodd" clip-rule="evenodd" d="M137.77 162.723L142.982 157.667L144.91 165.135L139.216 171.166L137.77 162.723ZM127.353 158.774L133.893 154.067L135.386 161.326L129.281 167.576L127.353 158.774Z" fill="#BF4040" stroke="#503030" stroke-width="2" stroke-linecap="round" stroke-linejoin="round"/>
<path fill-rule="evenodd" clip-rule="evenodd" d="M121.5 243.344L183.5 237.879C183.5 237.879 186.548 243.187 188.336 245.666C190.519 248.693 192.836 251.657 195.5 254.276C198.02 256.752 200.838 258.936 203.768 260.916C206.32 262.642 209.142 263.936 211.828 265.449C213.886 266.607 218 268.927 218 268.927C218 268.927 215.133 258.077 214.245 252.547C213.442 247.552 213.13 242.487 212.831 237.438C212.553 232.76 212.284 228.066 212.477 223.384C212.748 216.794 213.375 210.191 214.598 203.708C215.431 199.296 218.134 190.708 218.134 190.708L198.274 169.566L121.5 243.344Z" fill="black" stroke="black" stroke-width="2" stroke-linecap="round" stroke-linejoin="round"/>
<path fill-rule="evenodd" clip-rule="evenodd" d="M192.094 176.698L188.031 180.673L196.469 180.735L194.906 182.195H194.281L186.501 182.35L182.563 186.325L190.563 186.232L188.25 188.375L181.531 187.568L177.031 191.512L184.469 191.916L183.125 193.189L175.625 193.406L171.75 197.381L178.719 197.288L177.469 198.468H170.594L166.563 202.444H173.188L171.063 204.431L165.407 203.81L160.969 207.754L170.344 208.344L170.705 221.955L174.705 218.011L174.344 206.822L176.438 204.835L176.594 216.17L180.594 212.133L180.375 201.17L182.25 199.431L182.594 210.86L186.594 206.698L186.094 195.828L187.625 194.4L187.969 205.208L191.969 201.046L191.469 190.829L192.657 189.711L193.063 199.586L197.063 195.363L196.438 186.17L198.938 183.841L199.219 194.338L203.188 190.208L202.75 178.748L202.688 176.853L200.782 176.823L192.094 176.698ZM206.016 192.1L201.954 196.075L210.391 196.137L208.829 197.597H208.204L200.423 197.752L196.485 201.727L204.485 201.634L202.172 203.777L195.454 202.969L190.954 206.914L198.391 207.317L197.048 208.591L189.548 208.808L185.673 212.783L192.641 212.69L191.391 213.87H184.516L180.485 217.845H187.11L184.985 219.833L179.329 219.212L174.891 223.156L184.266 223.746L184.733 237.041L188.733 233.097L188.266 222.224L190.36 220.237L190.516 231.572L194.516 227.535L194.298 216.572L196.173 214.832L196.516 226.262L200.516 222.1L200.016 211.23L201.548 209.802L201.891 220.609L205.891 216.448L205.391 206.23L206.579 205.112L206.985 214.988L210.985 210.765L210.36 201.572L212.86 199.242L213.141 209.74L214.569 201.926L216.673 194.15L216.61 192.255L214.704 192.225L206.016 192.1ZM209.649 216.87L205.149 220.815L211.104 221.219L210.714 222.702L203.743 222.709L199.868 226.685L206.837 226.591L205.587 227.771H198.712L194.68 231.747H201.305L199.18 233.734L193.524 233.114L189.086 237.057L198.461 237.647L198.928 250.943L202.928 246.998L202.462 236.126L204.555 234.138L204.711 245.473L208.711 241.436L208.493 230.473L210.368 228.734L210.712 240.163L211.747 237.895L211.67 226.289L212.142 217.213L209.649 216.87ZM295.688 34.71C295.133 34.699 294.646 35.136 294.218 35.487C291.297 37.892 288.424 40.777 287.094 44.307C286.822 45.0552 286.789 45.8694 287 46.637C287.978 50.154 290.023 53.705 293.031 55.797C293.822 56.348 295.043 56.98 295.851 56.455C296.659 55.929 296.565 54.565 296.375 53.624C295.745 50.508 290.97 48.817 291.125 45.643C291.285 42.369 296.038 40.993 297.313 37.972C297.594 37.304 297.894 36.463 297.571 35.814C297.247 35.165 296.416 34.726 295.688 34.71ZM288.719 90.115C287.779 90.71 287.255 92.022 287.313 93.127C287.55 97.712 294.796 100.385 294.406 104.959C294.092 108.647 288.51 109.959 287.156 113.407C286.856 114.169 286.822 115.077 287.063 115.86C288.171 119.474 290.541 123.044 293.781 125.021C294.586 125.513 295.812 126.021 296.578 125.471C297.344 124.923 297.251 123.605 297.031 122.692C296.266 119.515 291.096 118.038 291.219 114.773C291.356 111.133 296.918 109.805 298.344 106.45C298.651 105.725 298.727 104.922 298.563 104.152C297.445 99.215 294.49 94.542 290.75 91.108C290.196 90.6 289.454 90.285 288.719 90.115ZM292.938 168.748C292.268 168.928 291.473 169.185 291.144 169.791C290.814 170.397 291.035 171.199 291.25 171.854C292 174.136 295.127 175.48 295.219 177.879C295.399 182.592 289.606 185.723 288.344 190.269C288.182 190.856 288.16 191.474 288.281 192.071C289.212 196.556 294.491 199.924 294.187 204.493C293.896 208.871 288.38 211.382 287 215.549C286.786 216.19 286.743 216.875 286.875 217.537C288.027 223.026 294.597 226.899 294.594 232.506C294.591 237.58 288.837 241.125 287.594 246.046C287.448 246.626 287.438 247.231 287.563 247.816C288.718 253.087 294.789 257.022 294.593 262.413C294.425 267.069 288.863 270.061 287.625 274.556C287.459 275.175 287.448 275.826 287.594 276.45C288.748 281.379 294.641 284.9 294.563 289.96C294.489 294.713 288.858 297.85 287.625 302.444C287.462 303.053 287.451 303.693 287.594 304.307C288.739 309.096 294.737 312.465 294.5 317.382C294.303 321.482 289.094 323.82 287.719 327.692C287.508 328.289 287.443 328.929 287.531 329.556C288.026 332.942 289.078 336.566 291.438 339.059C292.115 339.774 293.194 340.706 294.109 340.336C295.025 339.966 295.143 338.55 295.125 337.568C295.068 334.495 291.327 332.088 291.625 329.028C292.028 324.889 297.212 322.548 298.5 318.593C298.709 317.952 298.74 317.232 298.594 316.574C297.515 311.737 291.598 308.361 291.656 303.407C291.712 298.662 297.361 295.537 298.594 290.953C298.755 290.353 298.767 289.695 298.625 289.09C297.471 284.161 291.55 280.64 291.656 275.58C291.754 270.941 297.296 267.935 298.563 263.469C298.729 262.872 298.751 262.243 298.625 261.636C297.519 256.35 291.547 252.408 291.625 247.009C291.699 241.917 297.425 238.358 298.625 233.407C298.767 232.815 298.767 232.197 298.625 231.605C297.312 226.2 290.689 222.314 290.969 216.761C291.189 212.379 296.772 209.871 298.156 205.705C298.359 205.084 298.402 204.421 298.281 203.779C297.413 199.258 292.201 195.895 292.344 191.295C292.492 186.534 298.158 183.409 299.281 178.779C299.444 178.103 299.423 177.395 299.219 176.729C298.374 174.053 296.651 171.6 294.594 169.679C294.126 169.239 293.558 168.918 292.938 168.748Z" fill="#FF8080"/>
<path d="M83.5 210.798C86.667 212.04 90.05 212.836 93 214.525C96.959 216.79 100.382 219.905 103.75 222.972C106.712 225.661 109.47 228.568 112 231.667C114.862 235.187 117.167 239.121 119.75 242.847" stroke="black" stroke-width="2" stroke-linecap="round" stroke-linejoin="round"/>
<path fill-rule="evenodd" clip-rule="evenodd" d="M38.542 344.701C43.764 340.132 47.937 335.313 52.065 330.135C57.327 323.537 62.29 316.63 66.311 309.221C70.059 302.315 73.071 294.983 75.407 287.489C77.535 280.662 78.992 273.602 79.835 266.504C80.583 260.2 80.7 253.808 80.375 247.468C80.102 242.155 79.022 236.912 78.29 231.642C77.452 225.61 77.273 219.435 75.648 213.563C73.796 206.873 70.808 200.509 67.632 194.329C65.1 189.402 61.715 185.385 58.877 180.196L52.747 185.611C56.152 191.816 59.872 197.881 62.623 204.396C65.047 210.136 66.897 216.124 68.413 222.166C70.143 229.058 71.601 236.068 72.159 243.15C72.621 249 72.385 254.91 71.819 260.75C71.123 267.932 69.966 275.108 68.072 282.073C66.368 288.345 63.992 294.448 61.261 300.35C58.331 306.683 55.059 312.914 51.043 318.628C47.263 324.005 43.437 329.064 38.101 333.52C38.556 337.13 38.77 340.583 38.542 344.701Z" fill="#BF4040"/>
<path fill-rule="evenodd" clip-rule="evenodd" d="M33.662 315.316C37.669 309.343 42.449 303.816 45.682 297.397C49.319 290.176 51.944 282.417 53.814 274.559C55.344 268.127 56.131 261.491 56.289 254.883C56.472 247.25 55.982 239.54 54.521 232.045C53.181 225.172 50.801 218.506 48.157 212.017C46.08 206.92 43.207 202.179 40.733 197.26L24.823 208.504L24.469 313.559C25.883 313.677 27.316 313.657 28.712 313.911C30.4 314.217 32.012 314.848 33.662 315.316Z" fill="#BF4040"/>
<path fill-rule="evenodd" clip-rule="evenodd" d="M2.00001 319.708L5.02401 316.019L8.91301 313.384H14.039L17.929 314.087L17.575 140.692L2.00001 130.678V319.708ZM18.282 394.723V348.343L4.84701 350.628L2.00001 347.465V392.439L10.327 392.966L18.282 394.723ZM1.41501 411.872L13.167 412.91L24.919 414.727L35.366 417.668L43.375 421.128L50.513 424.07L45.813 417.841L39.457 410.921L27.967 404.431L14.908 400.02L7.59601 398.722L1.41501 398.03V411.872Z" fill="black"/>
<path fill-rule="evenodd" clip-rule="evenodd" d="M192.407 253.126C192.407 253.126 189.308 248.699 187.811 246.45C185.881 243.551 182.154 237.666 182.154 237.666L50.986 363.101C50.986 363.101 58.232 368.709 61.592 370.831C62.697 371.003 64.774 369.777 64.774 369.777C64.774 369.777 65.66 366.861 66.896 366.263C67.75 365.85 69.724 366.614 69.724 366.614L72.552 363.804C72.552 363.804 74.545 358.9 76.088 356.776C79.411 352.203 83.775 348.423 88.151 344.83C91.544 342.045 95.226 339.583 99.069 337.452C101.825 335.923 104.82 334.864 107.712 333.608C109.568 332.802 113.301 331.238 113.301 331.238L192.407 253.126Z" fill="#FF8080"/>
<path fill-rule="evenodd" clip-rule="evenodd" d="M188.507 247.777L184.623 241.505L55.967 366.226L62.036 370.327L188.507 247.777Z" fill="black"/>
<path fill-rule="evenodd" clip-rule="evenodd" d="M218.75 332.04L218.5 269.68C218.5 269.68 211.14 266.728 207.75 264.71C204.175 262.584 197.75 257.257 197.75 257.257L198.5 339.742L209.25 348.935L218.75 332.04Z" fill="#FF8080"/>
<path fill-rule="evenodd" clip-rule="evenodd" d="M212.25 342.226L212 267.692L204.75 263.717L205.25 344.462L209.25 348.189L212.25 342.226Z" fill="black"/>
<path fill-rule="evenodd" clip-rule="evenodd" d="M220.78 361.287C215.962 364.429 210.254 368.161 205.436 371.303C201.823 367.413 198.641 363.078 194.596 359.633C190.602 356.23 186.132 353.357 181.498 350.88C177.941 348.978 174.161 347.467 170.314 346.245C166.483 345.025 162.554 344.137 158.571 343.591C154.24 343.001 149.841 342.811 145.472 342.957C141.185 343.101 136.887 343.56 132.689 344.439C128.768 345.26 124.953 346.564 121.2 347.962C117.864 349.206 114.573 350.606 111.432 352.278C109.175 353.478 106.828 355.391 104.947 356.363C103.065 355.465 102.096 352.613 99.972 352.002C98.142 351.475 96.087 352.176 94.326 352.9C92.782 353.534 91.616 354.845 90.261 355.817C89.283 355.817 88.229 355.445 87.325 355.817C85.752 356.465 85.347 358.935 83.712 359.408C83.046 359.601 82.35 358.781 81.68 358.959C80.496 359.274 79.873 360.605 78.97 361.428C78.292 361.428 77.563 361.17 76.937 361.428C75.855 361.873 75.281 363.074 74.453 363.897L72.194 363.447C74.453 360.007 76.236 356.207 78.97 353.124C82.43 349.222 86.64 345.991 90.939 343.024C95.756 339.702 100.985 336.968 106.295 334.496C111.625 332.016 117.128 329.839 122.781 328.212C127.574 326.833 132.499 325.822 137.461 325.295C142.177 324.793 146.948 324.89 151.688 325.07C155.768 325.225 159.86 325.501 163.883 326.192C167.481 326.81 171.02 327.779 174.497 328.886C180.648 330.842 186.912 332.736 192.564 335.843C197.412 338.508 201.615 342.213 205.888 345.718C208.559 347.908 211.173 350.187 213.566 352.675C216.163 355.375 218.672 358.22 220.78 361.287Z" fill="#FF8080" stroke="#503030" stroke-width="2" stroke-linecap="round" stroke-linejoin="round"/>
<path fill-rule="evenodd" clip-rule="evenodd" d="M215.196 363.802L209.759 367.457C209.759 367.457 206.912 363.611 205.296 361.85C203.339 359.728 201.241 357.741 199.015 355.903C196.181 353.553 193.195 351.365 190.066 349.419C185.533 346.6 180.877 343.881 175.899 341.941C170.931 340.005 165.694 338.706 160.426 337.865C155.263 337.041 149.993 336.787 144.766 336.939C139.794 337.082 134.792 337.564 129.946 338.679C124.716 339.883 119.636 341.765 114.753 343.979C109.806 346.221 100.585 352.013 100.585 352.013C100.585 352.013 96.513 352.416 94.619 353.124C92.794 353.807 89.586 356.089 89.586 356.089C89.586 356.089 87.522 355.71 86.603 356.089C85.385 356.589 83.807 358.867 83.807 358.867C83.807 358.867 82.709 358.203 82.129 358.312C81.175 358.491 79.892 360.164 79.892 360.164C79.892 360.164 82.355 357.175 83.807 355.904C87.287 352.856 91.301 350.466 95.179 347.937C98.708 345.635 102.229 343.287 105.991 341.385C111.257 338.721 116.695 336.295 122.359 334.622C128.914 332.687 135.706 331.356 142.529 330.899C148.854 330.475 155.256 330.885 161.525 331.825C167.62 332.739 173.728 334.081 179.441 336.383C185.279 338.736 190.657 342.161 195.845 345.713C199.155 347.979 202.208 350.607 205.166 353.31C207.399 355.349 209.425 357.601 211.505 359.794C212.746 361.12 213.976 362.456 215.196 363.802Z" fill="black"/>
<path fill-rule="evenodd" clip-rule="evenodd" d="M184.998 394.644C185.601 392.1 186.018 389.506 186.805 387.014C187.448 384.979 188.278 383.002 189.176 381.066C189.783 379.759 190.531 378.522 191.209 377.25C191.359 378.56 191.289 379.913 191.661 381.178C192.141 382.816 192.585 384.705 193.919 385.778C195.486 387.041 197.774 387.308 199.791 387.238C201.491 387.178 203.305 386.708 204.646 385.667C206.045 384.58 207.031 382.887 207.469 381.178C207.934 379.362 207.754 377.335 207.13 375.568C206.612 374.098 205.523 372.858 204.42 371.752C203.604 370.933 202.538 370.405 201.597 369.732C201.484 368.685 201.761 367.518 201.258 366.59C200.727 365.607 199.687 364.913 198.661 364.458C197.966 364.15 197.156 364.233 196.403 364.121C196.29 363.223 196.488 362.229 196.064 361.428C195.642 360.631 194.87 359.975 194.032 359.633C193.369 359.363 192.602 359.558 191.886 359.52C191.623 358.66 191.665 357.639 191.096 356.94C190.609 356.34 189.831 355.923 189.063 355.817C187.761 355.637 186.504 356.416 185.224 356.715C184.773 355.967 184.602 354.951 183.869 354.471C183.172 354.013 182.217 354.057 181.385 354.134C180.437 354.222 179.578 354.732 178.675 355.032C178.261 354.284 178.191 353.19 177.433 352.787C176.667 352.381 175.669 352.767 174.836 353.012C174.142 353.215 173.556 353.685 172.916 354.022C172.276 353.349 171.844 352.388 170.996 352.002C170.243 351.659 169.297 351.624 168.513 351.89C167.906 352.095 167.493 352.669 167.045 353.124C166.333 353.846 165.765 354.695 165.125 355.481C166.33 356.229 167.597 356.885 168.738 357.725C169.982 358.64 171.198 359.616 172.238 360.755C173.328 361.945 174.208 363.315 175.062 364.682C176.03 366.232 176.838 367.876 177.659 369.508C178.495 371.168 179.369 372.82 180.03 374.558C180.973 377.038 181.609 379.624 182.288 382.188C182.879 384.416 183.383 386.668 183.869 388.921C184.279 390.821 184.621 392.736 184.998 394.644Z" fill="#FF8080"/>
<path d="M198.393 381.089C199.823 381.095 201.365 379.827 201.574 378.476C201.819 376.899 200.397 375.163 198.957 374.456C197.173 373.582 194.684 373.864 193.009 374.929C190.288 376.661 189.497 380.361 188.263 383.329C186.685 387.123 186.043 391.723 184.933 395.191" stroke="#503030" stroke-width="2" stroke-linecap="round" stroke-linejoin="round"/>
<path d="M193.046 375.113C191.804 376.396 191.111 379.189 191.352 381.319C191.538 382.959 192.372 384.693 193.695 385.691C195.406 386.982 197.851 387.281 199.989 387.073C201.943 386.883 204.013 386.121 205.386 384.725C206.671 383.418 207.246 381.465 207.481 379.653C207.711 377.879 207.544 375.947 206.762 374.336C205.962 372.685 204.509 371.316 202.93 370.369C201.697 369.629 200.211 369.317 198.778 369.179C196.943 369.001 195.034 369.127 193.268 369.655C191.641 370.144 190.13 370.961 188.83 372.055C187.557 373.133 186.664 374.601 185.763 376.003C184.52 377.937 183.634 380.076 182.569 382.113" stroke="#503030" stroke-width="2" stroke-linecap="round" stroke-linejoin="round"/>
<path d="M201.493 369.179C201.653 368.015 201.46 366.801 200.774 365.925C199.896 364.805 198.354 364.234 196.941 364.021C195.315 363.776 193.652 364.364 192.071 364.815C190.546 365.249 189.048 365.841 187.679 366.64C186.454 367.355 185.346 368.274 184.326 369.258C182.836 370.698 181.665 372.432 180.334 374.018M196.223 363.307C196.063 362.487 196.222 361.534 195.743 360.847C195.282 360.183 194.466 359.727 193.668 359.577C192.364 359.335 191.021 359.897 189.755 360.292C188.528 360.675 187.372 361.267 186.242 361.879C184.687 362.721 183.139 363.616 181.771 364.735C180.376 365.877 179.269 367.327 178.018 368.623M191.592 359.18C191.406 358.467 191.521 357.595 191.032 357.038C190.39 356.305 189.297 355.951 188.318 355.928C187.132 355.899 186.038 356.613 184.965 357.118C183.562 357.777 182.233 358.599 180.973 359.498C179.837 360.308 178.866 361.324 177.779 362.196C176.996 362.824 176.182 363.413 175.383 364.021M185.045 356.647C184.858 354.977 184.119 354.493 183.128 354.103C182.124 353.707 180.943 354.27 179.935 354.658C178.73 355.121 177.701 355.958 176.661 356.721C175.141 357.834 173.787 359.154 172.349 360.371M178.577 354.737C178.497 353.812 177.707 353.097 176.901 352.833C175.944 352.518 174.881 353.093 173.946 353.468C173.104 353.806 172.347 354.341 171.631 354.896C170.696 355.621 169.927 356.536 169.076 357.356M172.51 353.468C172.11 352.859 171.588 352.209 170.912 351.881C170.334 351.6 169.619 351.482 168.996 351.643C168.166 351.856 167.498 352.521 166.92 353.15C166.397 353.72 166.122 354.473 165.722 355.134" stroke="#503030" stroke-width="2" stroke-linecap="round" stroke-linejoin="round"/>
<path fill-rule="evenodd" clip-rule="evenodd" d="M123.166 434.827C117.164 434.719 111.15 434.915 105.159 434.503C100.18 434.154 95.2219 433.56 90.302 432.721C87.075 432.174 83.899 431.316 80.698 430.614C80.198 426.834 79.669 423.057 79.198 419.273C78.665 415.01 78.247 410.732 77.696 406.473C77.284 403.28 77.033 400.05 76.346 396.913C75.935 395.035 75.246 393.241 74.696 391.404L72.444 391.08C71.694 391.89 71.206 393.167 70.194 393.51C68.836 393.97 67.241 393.435 65.991 392.7C64.188 391.641 62.873 389.722 61.789 387.84C60.744 386.025 59.889 383.97 59.689 381.845C59.56 380.485 59.776 379.045 60.289 377.795C60.678 376.845 61.224 375.813 62.089 375.364C62.946 374.919 63.99 375.364 64.941 375.364C65.441 374.608 65.778 373.687 66.441 373.095C67.46 372.188 68.843 371.907 70.043 371.313C70.693 370.503 71.091 369.328 71.994 368.883C72.767 368.501 73.694 368.883 74.545 368.883C75.295 368.127 75.841 367.021 76.796 366.614C77.587 366.278 78.496 366.614 79.347 366.614C80.197 365.534 80.692 363.934 81.898 363.374C82.772 362.967 83.799 363.482 84.75 363.536C85.5 362.564 85.94 361.156 87 360.619C87.861 360.184 88.901 360.619 89.852 360.619C90.802 359.755 91.644 358.729 92.703 358.027C93.907 357.23 95.231 356.599 96.605 356.245C98.019 355.88 99.525 355.645 100.957 355.921C102.522 356.221 104.017 357.025 105.309 358.027C106.746 359.143 107.931 360.647 108.91 362.24C110.247 364.415 111.172 366.884 111.912 369.369C113.253 373.876 113.692 378.642 114.462 383.303C115.468 389.387 116.186 395.523 117.164 401.612C118.138 407.676 119.219 413.719 120.315 419.759C121.228 424.789 122.216 429.804 123.166 434.827Z" fill="#FF8080"/>
<path d="M122.965 434.018C122.965 434.018 120.021 418.766 118.72 411.104C117.169 401.964 116.228 392.704 114.476 383.607C113.288 377.441 113.106 370.757 110.231 365.277C108.259 361.517 105.61 357.22 101.742 356.111C97.989 355.034 93.088 356.29 90.502 359.417C88.329 362.044 87.882 366.554 89.009 369.859C90.233 373.451 93.515 377.504 97.059 377.364C100.747 377.218 104.839 372.894 104.888 368.91C104.932 365.332 101.356 361.362 98.049 361.12C96.004 360.969 93.52 363.082 93.253 365.276C92.942 367.836 95.107 371.543 97.498 371.52C98.933 371.506 100.913 369.7 99.984 367.724" stroke="#503030" stroke-width="2.025" stroke-linecap="round" stroke-linejoin="round"/>
<path d="M118.015 434.778C115.525 426.552 114.885 418.206 113.55 409.874C112.224 401.596 111.834 393.132 110.033 384.959C108.604 378.471 106.989 371.557 104.279 365.941M112.341 434.789C110.441 427.627 109.867 420.081 108.821 412.684C107.802 405.478 107.435 398.13 106.139 390.992C105.197 385.804 104.519 380.594 102.451 375.705M107.286 434.433C105.598 427.588 105.086 420.375 104.157 413.305C103.252 406.417 102.925 399.393 101.773 392.571C100.936 387.612 100.333 382.632 98.495 377.959M102.341 433.84C100.821 427.34 100.361 420.49 99.525 413.777C98.71 407.237 98.416 400.567 97.38 394.088C96.626 389.38 96.083 384.651 94.43 380.213M97.506 433.365C95.986 427.181 95.526 420.666 94.69 414.279C93.875 408.057 93.581 401.712 92.545 395.549C91.791 391.069 91.248 386.57 89.595 382.349M92.082 432.523C90.604 426.771 90.272 421.025 89.494 415.254C88.713 409.459 88.416 403.564 87.408 397.831C86.675 393.664 86.148 389.479 84.54 385.552M86.847 431.704C85.454 426.441 85.033 420.895 84.266 415.458C83.519 410.163 83.249 404.762 82.299 399.516C81.609 395.703 81.111 391.874 79.595 388.281M81.592 431.452C80.41 426.735 79.51 421.087 78.723 415.84C78.013 411.112 77.861 406.254 77.054 401.553C76.468 398.136 76.046 394.704 74.76 391.484M97.375 377.707C96 378.724 94.991 379.834 93.579 379.886C90.559 379.997 88.134 378.016 86.364 375.79C84.479 373.421 83.336 370.05 83.531 366.935C83.671 364.702 84.678 362.288 86.334 360.942C87.162 360.269 88.044 360.429 89.387 360.315" stroke="#503030" stroke-width="2.025" stroke-linecap="round" stroke-linejoin="round"/>
<path d="M92.37 379.96C91.215 381.332 90.348 382.392 88.977 382.48C86.265 382.653 83.532 380.609 81.762 378.383C79.877 376.015 78.734 372.644 78.929 369.529C79.069 367.296 79.782 364.865 81.732 363.535C82.407 363.075 82.775 362.605 84.118 363.32" stroke="#503030" stroke-width="2.025" stroke-linecap="round" stroke-linejoin="round"/>
<path d="M88.194 382.688C86.819 383.705 85.599 385.498 83.923 385.564C81.207 385.672 78.478 383.694 76.707 381.468C74.823 379.099 73.679 375.729 73.874 372.613C74.014 370.38 74.924 367.815 76.677 366.62C77.446 366.096 78.06 366.074 79.403 366.553" stroke="#503030" stroke-width="2.025" stroke-linecap="round" stroke-linejoin="round"/>
<path d="M82.48 385.773C81.435 387.383 80.379 388.214 78.978 388.293C76.264 388.445 73.533 386.423 71.762 384.197C69.878 381.828 68.734 378.457 68.929 375.342C69.069 373.109 70.046 370.65 71.733 369.349C72.509 368.75 73.115 368.565 74.568 368.926" stroke="#503030" stroke-width="2.025" stroke-linecap="round" stroke-linejoin="round"/>
<path d="M77.645 388.857C77.149 390.231 75.761 391.17 74.472 391.259C71.761 391.446 69.027 389.389 67.257 387.163C65.372 384.794 64.229 381.424 64.424 378.308C64.564 376.075 65.537 373.611 67.227 372.315C67.87 371.822 68.229 372.093 69.572 371.978" stroke="#503030" stroke-width="2.025" stroke-linecap="round" stroke-linejoin="round"/>
<path d="M72.59 391.23C72.095 392.84 71.085 393.396 69.967 393.513C67.263 393.798 64.522 391.643 62.752 389.417C60.867 387.049 59.846 383.684 59.919 380.563C59.957 378.921 60.485 377.083 61.623 375.993C62.526 375.129 63.775 375.091 65.118 374.976" stroke="#503030" stroke-width="2.025" stroke-linecap="round" stroke-linejoin="round"/>
<path fill-rule="evenodd" clip-rule="evenodd" d="M218.53 478.872L186 439.121C186 439.121 176.832 442.001 172.118 442.879C165.172 444.174 158.098 444.933 151.033 445.084C139.941 445.32 128.783 444.688 117.813 443.04C105.327 441.163 81 434.152 81 434.152L52.037 478.872H218.53Z" fill="#BF4040" stroke="#503030" stroke-width="2" stroke-linecap="round" stroke-linejoin="round"/>
<path fill-rule="evenodd" clip-rule="evenodd" d="M201.846 477.4L183.196 450.428C175.897 452.666 171.67 452.213 162.366 453.134L167.017 477.399H173.462L167.702 456.647C173.046 456.317 175.44 456.37 180.845 455.536L194.441 477.399H201.846V477.4ZM157.007 477.4L152.523 453.84C141.187 454.77 132.63 454.792 121.295 453.8L115.653 477.4H122.92L126.348 458.241C135.254 458.711 139.951 458.758 147.429 458.282L150.461 477.399H157.007V477.4ZM104.627 477.4L112.855 452.508C104.58 451.9 93.331 447.541 84.328 445.646L68.098 477.399H75.228L87.439 452.978C92.467 454.188 100.422 455.769 105.45 456.384L98.457 477.399H104.627V477.4Z" fill="white" stroke="white" stroke-width="2" stroke-linecap="round" stroke-linejoin="round"/>
<path fill-rule="evenodd" clip-rule="evenodd" d="M173.345 414.984C172.95 414.547 173.142 413.732 173.439 413.224C173.754 412.682 174.396 412.218 175.027 412.204C175.641 412.196 176.297 412.609 176.614 413.131C176.968 413.714 177.195 414.691 176.708 415.17C175.91 415.953 174.095 415.813 173.345 414.984ZM123.104 426.246C127.858 427.377 132.477 429.011 137.366 429.64C140.529 430.047 143.886 430.735 146.966 429.866C148.899 429.32 152.239 427.358 152.018 426.597C151.908 426.214 151.118 426.232 150.647 426.257C148.466 426.376 146.647 428.127 144.497 428.508C141.887 428.971 139.181 428.728 136.543 428.508C131.995 428.129 127.584 427 123.104 426.246Z" fill="#503030" stroke="#503030" stroke-width="2.017" stroke-linecap="round" stroke-linejoin="round"/>
<path d="M148.77 417.24C149.318 417.731 151.795 417.966 151.354 418.525C150.774 419.261 147.419 421.806 145.067 422.713C142.876 423.557 140.457 423.705 138.095 423.757C135.593 423.811 133.024 423.731 130.647 422.973C127.769 422.055 124.64 419.183 122.759 418.529" stroke="#503030" stroke-width="2.017" stroke-linecap="round" stroke-linejoin="round"/>
<path fill-rule="evenodd" clip-rule="evenodd" d="M120.499 412.148C124.521 413.032 128.259 416.852 132.567 417.782C135.433 418.401 138.448 418.112 141.343 417.662C143.109 417.389 144.828 416.869 146.448 416.115C147.418 415.661 148.146 415.43 149.152 414.345C147.186 413.582 147 410.903 145.32 410.067C142.252 408.539 138.555 409.103 135.172 409.343C132.507 409.533 129.949 410.54 127.319 411.037C125.055 411.466 122.647 410.982 120.499 412.147V412.148Z" stroke="#503030" stroke-width="2.017" stroke-linecap="round" stroke-linejoin="round"/>
<path d="M130.647 416.226C130.738 415.056 130.239 413.746 130.921 412.719C131.738 411.489 133.419 410.666 135.035 410.229C136.295 409.889 137.769 409.85 139.012 410.229C140.198 410.592 141.244 411.37 141.892 412.266C142.778 413.492 142.623 415.056 142.989 416.452" stroke="#503030" stroke-width="2.017" stroke-linecap="round" stroke-linejoin="round"/>
<path fill-rule="evenodd" clip-rule="evenodd" d="M135.205 416.19C134.809 415.754 135.001 414.939 135.298 414.43C135.614 413.89 136.256 413.424 136.886 413.411C137.5 413.402 138.156 413.816 138.474 414.338C138.828 414.92 139.054 415.898 138.567 416.376C137.769 417.16 135.954 417.02 135.204 416.191L135.205 416.19Z" fill="#503030" stroke="#503030" stroke-width="2.017" stroke-linecap="round" stroke-linejoin="round"/>
<path d="M134.553 401.735C137.433 402.187 140.518 403.935 143.012 405.824C145.357 407.6 147.32 410.367 148.85 412.429M165.508 424.203C164.777 422.733 163.665 421.354 163.314 419.791C162.598 416.601 163.116 413.282 163.588 410.062C164.173 406.074 165.786 402.242 166.742 398.296C167.357 395.761 169.731 392.898 168.402 390.649C167.627 389.336 165.406 389.934 164.006 389.313C162.179 388.503 160.33 386.947 158.866 386.231M148.337 398.981C146.463 397.284 143.719 396.031 142.714 393.89C142.236 392.87 142.157 391.601 142.714 390.61C143.37 389.444 144.762 388.406 146.28 388.12C147.523 387.886 148.851 388.427 149.983 388.912C151.421 389.529 152.226 390.931 153.685 391.514C154.734 391.934 156.03 392.434 157.114 392.08C157.479 391.96 157.912 391.599 157.799 391.288C157.433 390.282 155.429 390.52 154.234 390.157C152.687 389.687 151.125 389.252 149.571 388.799" stroke="#503030" stroke-width="2.017" stroke-linecap="round" stroke-linejoin="round"/>
<path fill-rule="evenodd" clip-rule="evenodd" d="M141.688 378.043C143.618 378.841 146.326 378.674 148.662 378.628C151.039 378.581 153.339 377.664 155.714 377.753C158.421 377.856 160.899 379.333 163.609 379.354C165.598 379.369 167.87 378.638 169.428 378.27C169.303 377.709 169.107 376.98 169.428 376.541C167.43 377.157 164.616 378.031 162.16 377.786C159.846 377.554 158.182 375.346 155.852 375.296C153.13 375.238 151.03 377.8 148.31 377.883C145.711 377.963 142.933 376.251 140.904 375.863C141.444 376.523 141.71 377.583 141.688 378.043Z" fill="#503030" stroke="#503030" stroke-width="2.017" stroke-linecap="round" stroke-linejoin="round"/>
<path d="M147.755 371.866C149.672 371.188 151.461 370.172 153.505 369.833C155.026 369.581 156.633 369.635 158.16 369.865C159.198 370.022 160.158 370.432 161.132 370.769C162.036 371.081 162.905 371.457 163.792 371.801M160.514 364.47C159.119 364.933 157.798 365.385 156.368 365.374C155.176 365.365 154.061 364.998 152.926 364.568" stroke="#503030" stroke-width="2.017" stroke-linecap="round" stroke-linejoin="round"/>
<path fill-rule="evenodd" clip-rule="evenodd" d="M165.766 426.567C167.666 428.402 171.821 428.867 175.076 429.075C177.443 429.226 179.84 428.806 182.106 428.134C183.389 427.754 184.21 426.984 185.73 426.41C183.133 426.828 181.198 427.583 178.876 427.664C176.519 427.746 174.15 427.32 171.846 426.88C170.223 426.57 168.72 425.952 167.286 425.313C166.656 425.031 165.3 426.117 165.766 426.567Z" fill="#503030" stroke="#503030" stroke-width="2.017" stroke-linecap="round" stroke-linejoin="round"/>
<path d="M165.1 418.504C166.957 419.258 168.572 421.388 170.671 422.074C173.468 422.987 176.584 423.045 179.485 422.622C181.403 422.342 183.033 421.296 184.806 420.632M165.355 415.514C167.408 416.264 168.929 416.485 170.755 416.691C173.457 416.995 176.211 417.096 178.903 416.766C180.503 416.57 182.168 416.301 183.559 415.556C184.438 415.086 185 414.246 185.721 413.591L185.305 410.568C183.865 410.114 182.48 409.464 180.982 409.207C178.937 408.856 176.822 408.864 174.746 408.98C172.531 409.104 170.289 409.25 168.176 409.963C167.039 410.348 165.902 410.885 164.98 411.711C164.334 412.289 163.828 413.494 163.44 413.872C163.8 414.526 165.042 415.168 165.355 415.514Z" stroke="#503030" stroke-width="2.017" stroke-linecap="round" stroke-linejoin="round"/>
<path d="M169.165 415.261C169.256 414.092 168.756 412.781 169.439 411.754C170.256 410.524 171.937 409.702 173.553 409.265C174.813 408.925 176.286 408.886 177.53 409.265C178.715 409.627 179.762 410.405 180.41 411.302C181.296 412.528 181.14 414.092 181.507 415.488M164.824 409.137C166.354 407.747 167.618 406.122 169.41 404.966C170.847 404.04 172.625 403.543 174.232 402.832" stroke="#503030" stroke-width="2.017" stroke-linecap="round" stroke-linejoin="round"/>
<path d="M186.585 438.295C186.506 431.595 186.59 424.893 186.348 418.197C186.11 411.648 185.951 405.079 185.158 398.573C184.363 392.051 183.606 385.442 181.589 379.185C179.825 373.712 177.629 368.218 174.214 363.58C171.662 360.115 168.476 356.915 164.697 354.832C161.534 353.089 157.838 352.232 154.229 351.995C150.077 351.721 145.879 352.585 141.857 353.65C137.389 354.833 133.147 356.797 129.01 358.852C125.701 360.496 122.648 362.606 119.493 364.526C116.941 366.079 114.418 367.679 111.88 369.255" stroke="#503030" stroke-width="2" stroke-linecap="round" stroke-linejoin="round"/>
<path fill-rule="evenodd" clip-rule="evenodd" d="M220.161 361.695C239.02 352.701 257.905 343.64 275.846 336.925L276.199 290.721C276.199 290.721 263.235 302.198 257.284 308.465C251.995 314.026 247.037 319.892 242.434 326.033C238.778 330.92 235.605 336.151 232.359 341.317C228.145 348.02 220.161 361.695 220.161 361.695Z" fill="black" stroke="#503030" stroke-width="2" stroke-linecap="round" stroke-linejoin="round"/>
<path fill-rule="evenodd" clip-rule="evenodd" d="M276.5 291.295L276.25 271.915C271.083 276.057 265.81 280.068 260.75 284.338C255.127 289.084 249.277 293.63 244.25 298.997C239.514 304.053 235.573 309.797 231.5 315.394C227.14 321.388 223.06 327.581 219 333.779C215.833 338.612 212.833 343.551 209.75 348.438L220.75 360.86C223.833 355.56 226.784 350.181 230 344.96C233.524 339.238 237.048 333.503 241 328.065C245.13 322.382 249.573 316.915 254.25 311.667C257.414 308.109 260.751 304.71 264.25 301.481C268.156 297.885 272.417 294.691 276.5 291.295Z" fill="#503030" stroke="#503030" stroke-width="2" stroke-linecap="round" stroke-linejoin="round"/>
<path fill-rule="evenodd" clip-rule="evenodd" d="M223.219 352.91C224.231 353.195 224.774 351.28 224.875 350.239C225.181 347.102 219.551 343.849 221.531 341.388C223.147 339.38 226.804 343.365 229.219 342.444C230.275 342.041 231.19 340.969 231.406 339.866C232.066 336.499 225.926 332.676 228.187 330.084C230.009 327.994 233.766 332.38 236.407 331.512C237.456 331.167 238.392 330.179 238.687 329.121C239.65 325.667 233.85 321.213 236.344 318.624C238.29 316.604 241.978 320.942 244.656 320.084C245.708 319.747 246.659 318.777 246.969 317.724C247.949 314.385 242.376 309.972 244.844 307.506C247.121 305.23 251.237 310.277 254.344 309.4C255.386 309.106 256.351 308.208 256.719 307.195C257.904 303.937 252.639 298.991 255.406 296.885C257.65 295.177 260.435 300.332 263.25 300.084C264.332 299.988 265.454 299.278 266 298.344C267.893 295.11 263.21 288.838 266.563 287.134C268.54 286.127 269.971 290.335 272.156 290.736C273.089 290.906 274.422 290.936 274.937 290.146C275.453 289.356 274.882 288.157 274.344 287.382C272.429 284.62 269.214 282.082 265.844 281.916C264.685 281.859 263.378 282.531 262.75 283.5C260.592 286.828 265.518 293.238 262.156 295.363C259.602 296.978 256.75 291.545 253.75 291.947C252.616 292.099 251.47 292.977 251.031 294.027C249.613 297.42 255.143 302.457 252.437 304.959C250.003 307.211 245.84 302.047 242.657 303.003C241.585 303.325 240.601 304.297 240.281 305.363C239.274 308.717 244.889 313.129 242.437 315.643C240.472 317.658 236.775 313.303 234.094 314.183C233.044 314.527 232.108 315.516 231.813 316.574C230.846 320.038 236.656 324.505 234.156 327.102C232.153 329.183 228.324 324.647 225.594 325.612C224.515 325.992 223.571 327.074 223.344 328.189C222.65 331.593 228.833 335.429 226.594 338.096C224.91 340.101 221.224 336.079 218.781 337.04C217.721 337.457 216.809 338.561 216.625 339.68C216.126 342.712 221.868 345.964 219.875 348.313C218.618 349.796 216.035 346.833 214.125 347.226C213.2 347.417 211.958 347.888 211.781 348.81C211.604 349.733 212.585 350.625 213.375 351.14C215.999 352.85 219.509 352.506 222.625 352.879C222.822 352.902 223.082 352.767 223.219 352.909V352.91Z" fill="white"/>
<path fill-rule="evenodd" clip-rule="evenodd" d="M197.732 263.94C197.489 267.56 197.996 269.687 197.753 273.306C191.523 281.346 186.469 292.554 180.238 300.596C178.55 306.624 169.02 317.844 166.385 319.759C164.536 319.391 162.857 318.662 163.485 316.439C164.112 314.219 166.202 310.504 170.567 304.884C172.427 302.714 176.005 294.834 179.04 289.994C181.996 285.281 185.26 280.764 188.507 276.244C191.498 272.082 194.657 268.042 197.732 263.94Z" fill="#FF8080" stroke="#503030" stroke-width="2" stroke-linecap="round" stroke-linejoin="round"/>
<path fill-rule="evenodd" clip-rule="evenodd" d="M165.685 317.107L167.015 327.261L161.562 330.28L159.356 324.249L165.685 317.107Z" fill="#FF8080" stroke="#503030" stroke-width="2" stroke-linecap="round" stroke-linejoin="round"/>
<path fill-rule="evenodd" clip-rule="evenodd" d="M166.176 300.331C166.176 300.331 168.588 290.241 171.272 285.893C173.965 281.53 178.632 278.709 181.952 274.796C183.967 272.424 186.398 270.208 187.536 267.318C188.633 264.531 187.573 261.237 188.507 258.392C189.261 256.097 192.148 252.12 192.148 252.12L197.974 257.186L197.489 263.94C197.489 263.94 191.1 271.154 188.264 275.037C185.957 278.197 184.124 281.674 181.953 284.928C180.539 287.048 178.958 289.056 177.583 291.201C173.128 298.15 165.028 312.541 165.028 312.541L160.545 315.411L166.176 300.331ZM198.46 338.725L197.982 258.449L198.46 338.725ZM114.955 330.04L187.779 258.633L114.955 330.04ZM197.489 331.005L193.119 334.865L197.489 331.005ZM197.732 323.768L187.051 332.211L197.732 323.768ZM197.732 317.496L180.496 329.799L197.732 317.496ZM197.246 310.741L173.699 328.111L197.246 310.741ZM197.003 303.263L172.087 322.733L197.003 303.263ZM197.246 296.025L173.05 316.935L197.246 296.025ZM196.76 289.994L177.13 306.843L196.76 289.994ZM196.518 283.963L185.114 294.065L196.518 283.963ZM184.138 270.454L183.409 263.94L184.138 270.454ZM179.768 276.485L179.283 268.283L179.768 276.485ZM174.67 281.792L173.7 273.108L174.67 281.792ZM169.33 287.34L168.116 279.862L169.33 287.34ZM165.924 297.942L163.504 283.24L165.924 297.942ZM163.234 307.785L158.403 287.597L163.234 307.785ZM159.352 317.412L153.794 292.902L159.352 317.412ZM154.765 323.768L149.91 297.232L154.765 323.768ZM148.454 323.768L144.813 303.021L148.454 323.768ZM143.356 324.01L139.958 307.846L143.356 324.01ZM137.773 324.25L134.86 311.947L137.773 324.25ZM131.702 325.698L129.772 316.033L131.702 325.698ZM127.577 326.422L126.364 320.632L127.577 326.422ZM122.48 327.869L121.757 323.766L122.48 327.869Z" fill="#BF4040"/>
<path d="M198.46 338.725L197.982 258.449M114.955 330.04L187.779 258.633M197.489 331.005L193.119 334.865M197.732 323.768L187.051 332.211M197.732 317.496L180.496 329.799M197.246 310.741L173.699 328.111M197.003 303.263L172.087 322.733M197.246 296.025L173.05 316.935M196.76 289.994L177.13 306.843M196.518 283.963L185.114 294.065M184.138 270.454L183.409 263.94M179.768 276.485L179.283 268.283M174.67 281.792L173.7 273.108M169.33 287.34L168.116 279.862M165.924 297.942L163.504 283.24M163.234 307.785L158.403 287.597M159.352 317.412L153.794 292.902M154.765 323.768L149.91 297.232M148.454 323.768L144.813 303.021M143.356 324.01L139.958 307.846M137.773 324.25L134.86 311.947M131.702 325.698L129.772 316.033M127.577 326.422L126.364 320.632M122.48 327.869L121.757 323.766M166.176 300.331C166.176 300.331 168.588 290.241 171.272 285.893C173.965 281.53 178.632 278.709 181.952 274.796C183.967 272.424 186.398 270.208 187.536 267.318C188.633 264.531 187.573 261.237 188.507 258.392C189.261 256.097 192.148 252.12 192.148 252.12L197.974 257.186L197.489 263.94C197.489 263.94 191.1 271.154 188.264 275.037C185.957 278.197 184.124 281.674 181.953 284.928C180.539 287.048 178.958 289.056 177.583 291.201C173.128 298.15 165.028 312.541 165.028 312.541L160.545 315.411L166.176 300.331Z" stroke="#503030" stroke-width="2" stroke-linecap="round" stroke-linejoin="round"/>
<path d="M27.173 326.674C28.313 328.5 25.093 332.274 25.08 335.199C25.062 338.932 27.977 342.384 27.65 346.103C27.448 348.377 25.668 350.234 24.934 352.398C24.35 354.12 23.174 355.92 23.601 357.688C24.055 359.571 25.491 361.966 27.437 362.073C29.152 362.167 30.18 359.957 31.227 358.603C33.655 355.458 35.527 351.833 36.784 348.07C38.149 343.982 38.853 342.29 38.827 339.284C38.795 335.535 38.567 333.401 36.091 328.371C36.224 326.099 36.779 323.811 36.491 321.553C36.274 319.863 36.006 318.003 34.916 316.687C33.689 315.206 31.726 314.337 29.845 313.907C26.545 313.151 22.733 313.037 19.701 314.427" stroke="#503030" stroke-width="2" stroke-linecap="round" stroke-linejoin="round"/>
<path d="M33.768 354.314C32.808 353.414 32.185 351.848 30.887 351.613C29.937 351.441 28.952 352.101 28.217 352.723C27.364 353.443 26.936 354.559 26.437 355.556C25.871 356.686 25.477 358.32 25.077 359.095M16.078 339.297C15.894 339.742 15.62 340.159 15.527 340.63C15.397 341.284 15.355 341.985 15.527 342.629C15.764 343.519 16.157 344.485 16.905 345.028C17.777 345.66 19.001 345.816 20.073 345.694C21.231 345.563 22.403 345.031 23.243 344.228C23.822 343.674 24.268 342.891 24.344 342.096C24.406 341.451 24.219 340.721 23.794 340.23C23.165 339.507 22.111 339.248 21.176 339.03C19.52 338.647 17.776 338.805 16.078 338.898C13.937 339.014 11.716 339.026 9.703 339.761C7.913 340.415 6.246 341.515 4.881 342.826C4.059 343.616 3.101 344.513 2.952 345.624C2.753 347.115 3.124 349.018 4.468 349.889C5.263 350.404 6.433 349.959 7.404 349.852C9.844 349.581 12.176 348.761 14.584 348.33C16.658 347.959 18.815 348 20.838 347.415C22.883 346.823 24.767 345.661 26.671 344.82" stroke="#503030" stroke-width="2" stroke-linecap="round" stroke-linejoin="round"/>
<path d="M5.47999 342.693C4.47899 341.76 3.05699 341.203 2.47599 339.893C2.06599 338.97 2.00599 337.758 2.34599 336.799C2.88199 335.282 4.28799 334.335 5.47999 333.409C6.90799 332.302 8.52499 331.477 10.183 330.905C11.826 330.338 13.566 330.193 15.277 330.021C16.969 329.851 18.687 329.625 20.371 329.874C21.136 329.987 21.979 330.082 22.592 330.61C23.12 331.066 23.561 331.781 23.637 332.526C23.716 333.297 23.38 334.1 22.984 334.736C22.378 335.709 21.519 336.633 20.502 336.946C19.569 337.233 18.542 336.861 17.628 336.504C16.817 336.187 15.883 335.838 15.408 335.031C15.043 334.411 15.09 333.561 15.146 332.821C15.209 332.001 15.582 331.249 15.8 330.463" stroke="#503030" stroke-width="2" stroke-linecap="round" stroke-linejoin="round"/>
<path d="M4.57101 333.115C3.88901 331.985 2.80101 331.041 2.52301 329.726C2.20601 328.23 2.28301 326.437 3.06901 325.159C3.97201 323.692 5.75901 323.079 7.30201 322.506C9.21201 321.798 11.292 321.77 13.309 321.622C15.034 321.496 16.809 321.211 18.496 321.622C19.529 321.874 20.59 322.316 21.363 323.096C21.973 323.711 22.55 324.553 22.592 325.453C22.632 326.31 22.2 327.207 21.636 327.811C20.898 328.601 19.796 328.959 18.769 329.137C17.732 329.317 16.562 329.363 15.629 328.842C14.941 328.458 14.432 327.696 14.128 326.927C13.7797 326.037 13.6852 325.068 13.855 324.127C14.024 323.244 14.674 322.555 15.083 321.77" stroke="#503030" stroke-width="2" stroke-linecap="round" stroke-linejoin="round"/>
<path d="M5.69399 322.654C4.77199 322.212 3.17999 321.839 2.78399 320.738C2.38399 319.628 3.18199 318.348 3.80199 317.349C4.67899 315.937 5.92699 314.621 7.43999 313.96C8.68999 313.414 10.153 313.644 11.514 313.666C13.415 313.696 15.351 313.759 17.188 314.255C18.573 314.628 20.247 314.87 21.117 316.023C21.504 316.536 21.568 317.313 21.408 317.939C21.13 319.023 20.319 320.015 19.371 320.591C18.147 321.334 16.466 321.891 15.151 321.328C13.962 320.818 13.311 319.347 12.969 318.086C12.7608 317.305 12.8117 316.478 13.114 315.728C13.424 314.993 14.181 314.55 14.714 313.96" stroke="#503030" stroke-width="2" stroke-linecap="round" stroke-linejoin="round"/>
<path fill-rule="evenodd" clip-rule="evenodd" d="M219.207 333.036L218.495 270.276C218.495 270.276 223.051 284.134 226.29 290.646C229.313 296.726 237.069 307.939 237.069 307.939C237.069 307.939 230.772 315.899 227.829 320.029C224.811 324.266 219.207 333.036 219.207 333.036Z" fill="#BF4040" stroke="#503030" stroke-width="2" stroke-linecap="round" stroke-linejoin="round"/>
<path fill-rule="evenodd" clip-rule="evenodd" d="M2 457.454L18.194 442.594L17.994 419.414C17.994 419.414 12.979 418.228 10.419 418.026C7.621 417.806 2 418.224 2 418.224V457.454Z" fill="black"/>
<path fill-rule="evenodd" clip-rule="evenodd" d="M1 465.372L24.175 445.368V419.809L18.394 419.017L17.994 442.594L1 456.661V465.372Z" fill="#FF8080" stroke="#503030" stroke-width="2" stroke-linecap="round" stroke-linejoin="round"/>
<path fill-rule="evenodd" clip-rule="evenodd" d="M1 418.026C6.117 418.224 12.001 418.516 17.422 419.399C23.492 420.387 29.532 421.759 35.34 423.772C41.208 425.805 46.796 428.604 52.286 431.499C56.132 433.527 59.729 435.989 63.45 438.235C60.992 432.885 59.258 427.145 56.074 422.187C52.169 416.107 47.638 410.184 41.919 405.742C36.065 401.195 29.022 398.198 21.982 395.836C16.919 394.136 11.53 393.562 6.232 392.864C4.498 392.635 2.662 392.6 1 392.468V398.213C4.92 398.375 9.31 398.755 13.359 399.65C18.846 400.865 24.261 402.595 29.359 404.95C33.173 406.711 36.883 408.825 40.125 411.488C42.682 413.589 44.799 416.194 46.819 418.81C48.225 420.632 49.824 422.263 50.567 424.603C47.974 423.406 44.784 421.631 41.795 420.356C38.304 418.867 34.755 417.481 31.117 416.394C27.61 415.346 24.014 414.6 20.413 413.941C17.1939 413.357 13.9513 412.911 10.694 412.604C7.473 412.296 4.19 412.345 1 412.081V418.026Z" fill="#FF8080" stroke="#503030" stroke-width="2" stroke-linecap="round" stroke-linejoin="round"/>
<path fill-rule="evenodd" clip-rule="evenodd" d="M36.283 414.747C36.283 413.923 36.955 413.256 37.783 413.256C38.612 413.256 39.283 413.923 39.283 414.746C39.283 415.57 38.612 416.237 37.783 416.237C36.955 416.237 36.283 415.57 36.283 414.747ZM27.58 411.242C27.5809 410.915 27.6463 410.591 27.7725 410.289C27.8986 409.987 28.083 409.712 28.3152 409.482C28.5473 409.251 28.8227 409.068 29.1255 408.944C29.4283 408.819 29.7526 408.756 30.08 408.757C31.46 408.757 32.58 409.87 32.58 411.242C32.5789 411.569 32.5134 411.893 32.3872 412.195C32.261 412.497 32.0766 412.771 31.8444 413.002C31.6123 413.232 31.337 413.415 31.0342 413.539C30.7315 413.664 30.4072 413.727 30.08 413.726C28.7 413.726 27.58 412.614 27.58 411.242ZM16.265 407.91C16.265 405.989 17.832 404.432 19.765 404.432C21.698 404.432 23.265 405.989 23.265 407.91C23.265 409.831 21.698 411.388 19.765 411.388C17.832 411.388 16.265 409.831 16.265 407.91ZM4.07999 405.616C4.07999 403.146 6.09499 401.144 8.57999 401.144C11.065 401.144 13.08 403.146 13.08 405.616C13.08 408.086 11.065 410.088 8.57999 410.088C6.09499 410.088 4.07999 408.086 4.07999 405.616Z" fill="#FF8080"/>
<path fill-rule="evenodd" clip-rule="evenodd" d="M24.116 396.128V346.236L18.636 347.993V394.196L24.116 396.128ZM24.47 312.681L19.696 314.614L17.398 313.735L17.752 140.34L1.135 130.15L1 121.109L24.646 135.949L24.47 312.681Z" fill="#FF8080" stroke="#503030" stroke-width="2" stroke-linecap="round" stroke-linejoin="round"/>
<path fill-rule="evenodd" clip-rule="evenodd" d="M36.844 323.397C40.733 318.361 45.144 313.684 48.511 308.289C52.039 302.636 54.948 296.579 57.35 290.369C59.813 284.003 61.742 277.399 63.007 270.694C64.184 264.451 64.853 258.072 64.774 251.721C64.699 245.707 63.637 239.736 62.653 233.801C61.732 228.248 60.728 222.683 59.117 217.288C57.717 212.596 55.827 208.051 53.814 203.585C51.918 199.378 49.572 195.386 47.45 191.287L40.026 197.963C43.326 204.404 47.392 210.512 49.926 217.288C52.165 223.278 53.534 229.594 54.521 235.91C55.591 242.753 56.263 249.721 55.935 256.64C55.66 262.448 54.458 268.198 53.107 273.856C51.653 279.947 49.917 286.016 47.45 291.776C45.24 296.936 42.39 301.827 39.318 306.532C37.305 309.618 34.84 312.388 32.601 315.316C33.779 316.253 35.394 316.821 36.136 318.127C37.014 319.67 36.608 321.641 36.844 323.397Z" fill="#503030"/>
<path fill-rule="evenodd" clip-rule="evenodd" d="M34.399 353.49C35.874 354.618 39.35 355.746 40.826 356.874C44.346 352.812 47.898 348.779 51.384 344.689C53.677 341.999 55.988 339.325 58.196 336.566C60.768 333.352 63.321 330.116 65.688 326.751C67.854 323.673 69.927 320.525 71.818 317.274C73.675 314.085 75.313 310.774 76.928 307.458C78.61 304.004 80.273 300.534 81.696 296.966C83.243 293.085 84.745 289.164 85.783 285.12C86.949 280.572 87.62 275.904 88.167 271.243C88.817 265.7 89.244 260.115 89.23 254.535C89.216 249.374 88.705 244.221 88.167 239.088C87.489 232.63 86.903 226.125 85.442 219.796C83.869 212.98 81.494 206.355 78.971 199.826C76.7785 194.165 74.2771 188.629 71.478 183.242C69.729 179.872 67.618 176.698 65.688 173.426L58.536 180.534C62.169 186.739 66.526 192.578 69.435 199.15C72.355 205.748 74.227 212.783 75.905 219.796C77.664 227.14 79.087 234.606 79.652 242.135C80.176 249.111 79.898 256.148 79.312 263.119C78.771 269.549 78.017 276.009 76.387 282.255C74.64 288.952 71.997 295.415 69.094 301.705C66.446 307.441 63.196 312.895 59.899 318.289C57.136 322.809 54.434 327.413 51.043 331.489C47.349 335.931 42.615 339.893 38.642 343.616C37.733 347.226 35.307 349.88 34.399 353.49Z" fill="#503030"/>
<path d="M60.311 369.568L34.23 353.054" stroke="#503030" stroke-width="2" stroke-linecap="round" stroke-linejoin="round"/>
<path fill-rule="evenodd" clip-rule="evenodd" d="M103.66 311.65L50.197 363.106L40.564 355.686C40.564 355.686 51.064 345.004 55.736 339.173C61.451 332.041 66.781 324.56 71.389 316.676C73.626 312.85 75.379 308.76 77.169 304.709C79.256 299.989 82.949 290.349 82.949 290.349L103.66 311.649V311.65Z" fill="#503030" stroke="#503030" stroke-width="2" stroke-linecap="round" stroke-linejoin="round"/>
<path fill-rule="evenodd" clip-rule="evenodd" d="M54.625 358.158C55.571 357.788 56.269 356.751 56.5 355.767C57.216 352.72 52.21 348.618 54.594 346.574C56.524 344.918 59.266 349.604 61.781 349.183C62.921 348.993 64.051 348.079 64.469 347.009C65.579 344.17 60.627 339.735 63.125 337.972C65.157 336.537 67.305 340.934 69.75 341.419C70.455 341.559 71.328 341.666 71.897 341.23C72.466 340.794 72.583 339.927 72.625 339.214C72.83 335.702 67.45 331.126 70.219 328.934C72.54 327.097 75.294 332.318 78.219 332.816C78.917 332.936 79.777 333.016 80.331 332.576C80.884 332.136 80.992 331.284 81.031 330.58C81.245 326.709 75.326 321.625 78.406 319.245C81.264 317.037 84.506 323.517 88.063 324.183C88.773 324.316 89.657 324.411 90.221 323.962C90.785 323.512 90.841 322.632 90.906 321.916C91.413 316.409 83.579 307.883 88.594 305.487C92.598 303.574 93.479 313.899 97.75 315.115C98.66 315.374 100.021 315.213 100.5 314.401C100.98 313.588 100.3 312.455 99.781 311.667C96.215 306.252 90.654 301.577 84.438 299.649C83.735 299.431 82.822 299.345 82.235 299.786C81.648 300.226 81.531 301.123 81.5 301.854C81.257 307.616 90.437 314.989 85.906 318.593C83.124 320.806 79.903 314.401 76.406 313.717C75.701 313.579 74.828 313.47 74.259 313.906C73.69 314.342 73.573 315.209 73.531 315.922C73.301 319.848 79.316 324.966 76.219 327.412C73.885 329.257 71.122 324.022 68.188 323.5C67.482 323.374 66.611 323.275 66.048 323.717C65.487 324.159 65.381 325.025 65.344 325.736C65.161 329.196 70.473 333.735 67.719 335.86C65.864 337.291 63.767 333.107 61.469 332.63C60.787 332.489 59.952 332.37 59.384 332.77C58.816 333.171 58.652 333.993 58.563 334.68C58.145 337.897 62.531 342.258 60 344.307C57.954 345.964 55.158 341.129 52.563 341.605C51.423 341.815 50.309 342.781 49.938 343.872C48.925 346.845 54.231 351.04 51.844 353.096C49.518 355.099 46.233 349.914 43.156 349.99C42.171 350.015 40.761 350.2 40.428 351.122C40.096 352.043 41.068 353.075 41.813 353.717C45.033 356.495 49.715 356.975 53.843 358.034C54.099 358.099 54.38 358.254 54.625 358.158Z" fill="white"/>
<path fill-rule="evenodd" clip-rule="evenodd" d="M164.23 318.003L159.018 323.06L157.09 315.59L162.784 309.56L164.23 318.003ZM174.647 321.952L168.107 326.659L166.614 319.4L172.719 313.15L174.647 321.952Z" fill="#BF4040" stroke="#503030" stroke-width="2" stroke-linecap="round" stroke-linejoin="round"/>
<path fill-rule="evenodd" clip-rule="evenodd" d="M180.5 237.382L118.5 242.848C118.5 242.848 115.452 237.54 113.664 235.06C111.481 232.034 109.164 229.069 106.5 226.45C103.98 223.974 101.162 221.79 98.232 219.81C95.68 218.084 92.858 216.79 90.172 215.277C88.114 214.12 84 211.8 84 211.8C84 211.8 86.867 222.65 87.755 228.18C88.558 233.175 88.87 238.24 89.169 243.289C89.447 247.967 89.716 252.661 89.523 257.343C89.252 263.934 88.625 270.536 87.402 277.019C86.569 281.431 83.866 290.019 83.866 290.019L103.726 311.161L180.5 237.382Z" fill="black" stroke="black" stroke-width="2" stroke-linecap="round" stroke-linejoin="round"/>
<path fill-rule="evenodd" clip-rule="evenodd" d="M109.906 304.028L113.969 300.053L105.531 299.991L107.094 298.531H107.719L115.499 298.376L119.437 294.401L111.437 294.494L113.75 292.351L120.469 293.158L124.969 289.214L117.531 288.811L118.875 287.537L126.375 287.32L130.25 283.345L123.281 283.438L124.531 282.258H131.406L135.437 278.283H128.812L130.937 276.295L136.594 276.916L141.031 272.972L131.656 272.382L131.295 258.771L127.295 262.715L127.656 273.904L125.562 275.891L125.406 264.556L121.406 268.593L121.625 279.556L119.75 281.295L119.406 269.866L115.406 274.028L115.906 284.898L114.375 286.326L114.031 275.519L110.031 279.68L110.531 289.897L109.344 291.015L108.937 281.14L104.937 285.363L105.562 294.556L103.062 296.885L102.781 286.388L98.812 290.518L99.25 301.978L99.312 303.873L101.219 303.903L109.906 304.028ZM95.984 288.626L100.046 284.651L91.609 284.589L93.171 283.129H93.796L101.578 282.974L105.515 278.999L97.515 279.092L99.828 276.949L106.546 277.757L111.046 273.813L103.609 273.409L104.953 272.136L112.453 271.918L116.328 267.943L109.358 268.036L110.608 266.856H117.484L121.515 262.881H114.89L117.015 260.893L122.671 261.514L127.109 257.57L117.734 256.98L117.267 243.685L113.267 247.629L113.734 258.502L111.64 260.49L111.484 249.154L107.484 253.191L107.703 264.154L105.828 265.894L105.484 254.464L101.484 258.626L101.984 269.496L100.453 270.924L100.109 260.117L96.109 264.278L96.609 274.496L95.421 275.614L95.015 265.738L91.015 269.962L91.64 279.154L89.14 281.484L88.859 270.986L87.431 278.8L85.328 286.577L85.39 288.471L87.296 288.502L95.984 288.626ZM92.351 263.855L96.851 259.911L90.896 259.507L91.286 258.024L98.257 258.017L102.132 254.042L95.164 254.135L96.414 252.955H103.289L107.319 248.979H100.695L102.82 246.992L108.476 247.613L112.914 243.669L103.539 243.079L103.072 229.784L99.072 233.728L99.539 244.601L97.445 246.588L97.289 235.253L93.289 239.29L93.507 250.253L91.632 251.992L91.289 240.563L90.253 242.831L90.33 254.437L89.858 263.513L92.351 263.855ZM6.313 446.015C6.867 446.027 7.354 445.59 7.781 445.239C10.703 442.834 13.576 439.949 14.906 436.419C15.18 435.691 15.208 434.839 15 434.089C14.022 430.572 11.977 427.021 8.969 424.929C8.178 424.378 6.957 423.746 6.149 424.271C5.341 424.797 5.435 426.161 5.625 427.102C6.255 430.218 11.03 431.909 10.875 435.084C10.715 438.357 5.962 439.732 4.687 442.754C4.406 443.422 4.106 444.263 4.429 444.912C4.753 445.561 5.584 445.999 6.312 446.015H6.313ZM13.281 390.612C14.221 390.016 14.745 388.705 14.687 387.599C14.45 383.014 7.204 380.342 7.594 375.767C7.908 372.079 13.49 370.767 14.844 367.32C15.144 366.557 15.178 365.649 14.937 364.866C13.829 361.252 11.459 357.683 8.219 355.705C7.414 355.213 6.188 354.705 5.422 355.255C4.656 355.803 4.749 357.121 4.969 358.034C5.734 361.212 10.904 362.688 10.781 365.954C10.644 369.594 5.082 370.921 3.656 374.276C3.34929 375.002 3.27284 375.804 3.437 376.574C4.555 381.511 7.51 386.184 11.25 389.618C11.804 390.127 12.546 390.441 13.281 390.612ZM9.063 311.978C9.731 311.798 10.527 311.541 10.856 310.935C11.186 310.329 10.965 309.527 10.75 308.872C10 306.59 6.873 305.246 6.781 302.848C6.601 298.134 12.394 295.003 13.656 290.456C13.817 289.877 13.841 289.243 13.719 288.655C12.788 284.17 7.509 280.802 7.813 276.233C8.104 271.855 13.62 269.344 15 265.177C15.209 264.547 15.261 263.839 15.125 263.189C13.973 257.701 7.403 253.827 7.406 248.22C7.409 243.146 13.163 239.601 14.406 234.68C14.5517 234.1 14.5623 233.495 14.437 232.91C13.282 227.639 7.211 223.704 7.407 218.313C7.575 213.657 13.137 210.665 14.375 206.171C14.543 205.561 14.55 204.891 14.406 204.276C13.252 199.348 7.359 195.826 7.437 190.766C7.511 186.013 13.142 182.876 14.375 178.282C14.536 177.682 14.551 177.023 14.406 176.419C13.261 171.63 7.263 168.261 7.5 163.344C7.697 159.244 12.906 156.906 14.281 153.034C14.491 152.445 14.559 151.788 14.469 151.171C13.974 147.784 12.922 144.159 10.562 141.667C9.885 140.952 8.806 140.02 7.891 140.39C6.975 140.76 6.857 142.176 6.875 143.158C6.932 146.231 10.673 148.638 10.375 151.698C9.972 155.837 4.788 158.178 3.5 162.133C3.29151 162.786 3.25908 163.482 3.406 164.152C4.485 168.989 10.402 172.365 10.344 177.32C10.288 182.064 4.639 185.189 3.406 189.773C3.24438 190.382 3.23374 191.022 3.375 191.636C4.529 196.566 10.45 200.086 10.344 205.146C10.246 209.786 4.704 212.791 3.437 217.257C3.27053 217.854 3.24928 218.483 3.375 219.09C4.481 224.376 10.453 228.319 10.375 233.717C10.301 238.809 4.575 242.369 3.375 247.32C3.2336 247.912 3.2336 248.528 3.375 249.12C4.688 254.526 11.311 258.412 11.031 263.966C10.811 268.348 5.228 270.856 3.844 275.021C3.64077 275.642 3.59778 276.305 3.719 276.947C4.587 281.468 9.799 284.831 9.656 289.431C9.508 294.192 3.842 297.317 2.719 301.947C2.55567 302.624 2.57708 303.332 2.781 303.997C3.626 306.673 5.349 309.126 7.406 311.047C7.87375 311.488 8.44329 311.807 9.063 311.978Z" fill="#FF8080"/>
<path d="M218.5 269.928C215.333 268.686 211.95 267.89 209 266.202C205.041 263.936 201.618 260.822 198.25 257.754C195.288 255.065 192.53 252.158 190 249.059C187.138 245.539 184.833 241.605 182.25 237.879" stroke="black" stroke-width="2" stroke-linecap="round" stroke-linejoin="round"/>
<path fill-rule="evenodd" clip-rule="evenodd" d="M151 225.456C151 225.456 154 230.591 157.5 233.903C161 237.216 166 240.363 166 240.363C166 240.363 161 243.676 157.5 246.988C154 250.301 151 255.27 151 255.27C151 255.27 148 250.3 144.5 246.988C141 243.676 136 240.528 136 240.528C136 240.528 141 237.05 144.5 233.738C148 230.425 151 225.456 151 225.456Z" fill="#FF8080"/>
<path fill-rule="evenodd" clip-rule="evenodd" d="M151 230.425C151 230.425 153 233.848 155.333 236.057C157.667 238.265 161 240.363 161 240.363C161 240.363 157.667 242.571 155.333 244.78C153 246.988 151 250.3 151 250.3C151 250.3 149 246.988 146.667 244.78C144.333 242.571 141 240.473 141 240.473C141 240.473 144.333 238.155 146.667 235.946C149 233.738 151 230.425 151 230.425Z" fill="#BF4040"/>
</g>
<defs>
<clipPath id="clip0_1_461">
<rect width="302" height="480" fill="white" transform="translate(0 0.5)"/>
</clipPath>
</defs>
</svg>
