<svg width="302" height="480" xmlns="http://www.w3.org/2000/svg"><g fill="none" fill-rule="evenodd"><path d="M263.458 135.525c-5.222 4.57-9.395 9.388-13.523 14.566-5.262 6.598-10.225 13.505-14.246 20.914-3.748 6.906-6.76 14.238-9.096 21.732-2.128 6.827-3.585 13.887-4.428 20.985-.748 6.304-.865 12.697-.54 19.036.273 5.314 1.353 10.556 2.085 15.826.838 6.032 1.017 12.207 2.642 18.079 1.852 6.69 4.84 13.054 8.016 19.234 2.532 4.927 5.917 8.944 8.755 14.133l6.13-5.415c-3.405-6.205-7.125-12.27-9.876-18.785-2.424-5.74-4.274-11.728-5.79-17.77-1.73-6.892-3.188-13.901-3.746-20.984-.462-5.85-.226-11.76.34-17.6.696-7.182 1.853-14.358 3.747-21.323 1.704-6.272 4.08-12.374 6.811-18.277 2.93-6.333 6.202-12.564 10.218-18.277 3.78-5.378 7.606-10.436 12.942-14.893-.455-3.61-.668-7.063-.44-11.181z" fill="#F55"/><path d="M268.338 164.91c-4.007 5.973-8.787 11.5-12.02 17.92-3.637 7.22-6.262 14.979-8.132 22.837-1.53 6.433-2.317 13.068-2.475 19.676-.183 7.633.307 15.343 1.768 22.839 1.34 6.873 3.72 13.538 6.364 20.027 2.077 5.097 4.95 9.838 7.424 14.757l15.91-11.244.354-105.055c-1.414-.118-2.847-.098-4.243-.352-1.688-.306-3.3-.937-4.95-1.405z" fill="#F55"/><path fill="#000" d="M300 160.518l-3.024 3.69-3.889 2.634h-5.126l-3.89-.702.354 173.394L300 349.548zM283.718 85.503v46.38l13.435-2.285 2.847 3.163V87.787l-8.327-.527zM300.585 68.354l-11.752-1.038L277.08 65.5l-10.447-2.941-8.009-3.46-7.138-2.942 4.7 6.229 6.356 6.92 11.49 6.49 13.059 4.412 7.312 1.297 6.181.692z"/><path d="M109.593 227.1s3.099 4.427 4.596 6.676c1.93 2.899 5.657 8.784 5.657 8.784l131.168-125.435s-7.246-5.607-10.606-7.73c-1.105-.172-3.182 1.054-3.182 1.054s-.886 2.916-2.122 3.514c-.854.413-2.828-.351-2.828-.351l-2.828 2.81s-1.993 4.904-3.536 7.028c-3.323 4.573-7.687 8.353-12.063 11.946-3.393 2.785-7.075 5.247-10.918 7.378-2.756 1.529-5.751 2.588-8.643 3.844-1.856.806-5.589 2.37-5.589 2.37L109.593 227.1z" fill="#FF5"/><path fill="#000" d="M113.493 232.449l3.884 6.272L246.033 114l-6.069-4.101z"/><path d="M83.25 148.186l.25 62.36s7.36 2.952 10.75 4.97c3.575 2.126 10 7.453 10 7.453l-.75-82.485-10.75-9.192-9.5 16.894z" fill="#FF5"/><path fill="#000" d="M89.75 138l.25 74.534 7.25 3.975-.5-80.745-4-3.727z"/><path d="M81.22 118.939c4.818-3.142 10.526-6.874 15.344-10.016 3.613 3.89 6.795 8.225 10.84 11.67 3.994 3.404 8.464 6.276 13.098 8.753 3.557 1.902 7.337 3.413 11.184 4.635a70.123 70.123 0 0 0 11.743 2.654c4.331.59 8.73.78 13.099.634 4.287-.144 8.585-.603 12.783-1.482 3.921-.821 7.736-2.124 11.489-3.523 3.336-1.244 6.627-2.644 9.768-4.316 2.257-1.2 4.604-3.113 6.486-4.085 1.881.898 2.85 3.75 4.974 4.361 1.83.527 3.885-.174 5.646-.898 1.544-.634 2.71-1.945 4.065-2.917.978 0 2.032.372 2.936 0 1.573-.648 1.978-3.118 3.613-3.591.666-.193 1.362.627 2.032.449 1.184-.315 1.807-1.646 2.71-2.469.678 0 1.407.258 2.033 0 1.082-.445 1.656-1.646 2.484-2.469l2.259.45c-2.259 3.44-4.042 7.24-6.776 10.323-3.46 3.902-7.67 7.134-11.969 10.1-4.817 3.322-10.046 6.057-15.356 8.528-5.33 2.48-10.833 4.657-16.486 6.284-4.793 1.379-9.718 2.39-14.68 2.917-4.716.502-9.487.405-14.227.225-4.08-.155-8.172-.431-12.195-1.122-3.598-.618-7.136-1.587-10.614-2.693-6.151-1.957-12.415-3.851-18.067-6.958-4.848-2.665-9.051-6.37-13.324-9.875-2.671-2.19-5.285-4.469-7.678-6.957-2.597-2.7-5.106-5.545-7.214-8.612z" stroke="#55A" stroke-width="2" fill="#FF5" stroke-linecap="round" stroke-linejoin="round"/><path d="M86.804 116.425l5.437-3.656s2.847 3.846 4.463 5.607a63.843 63.843 0 0 0 6.281 5.947c2.834 2.35 5.82 4.538 8.949 6.484 4.533 2.819 9.189 5.539 14.167 7.478 4.968 1.936 10.205 3.235 15.473 4.076 5.163.824 10.433 1.078 15.66.927 4.972-.144 9.974-.626 14.82-1.742 5.23-1.203 10.31-3.085 15.193-5.298 4.947-2.243 14.168-8.035 14.168-8.035s4.072-.403 5.966-1.111c1.825-.683 5.033-2.964 5.033-2.964s2.064.378 2.983 0c1.218-.502 2.796-2.78 2.796-2.78s1.098.665 1.678.556c.954-.178 2.237-1.852 2.237-1.852s-2.463 2.99-3.915 4.26c-3.48 3.048-7.494 5.438-11.372 7.967-3.529 2.302-7.05 4.65-10.812 6.552-5.266 2.664-10.704 5.09-16.368 6.763-6.555 1.935-13.347 3.266-20.17 3.723-6.325.424-12.727.014-18.996-.926-6.095-.914-12.203-2.256-17.916-4.558-5.838-2.353-11.216-5.778-16.404-9.33-3.31-2.266-6.363-4.894-9.321-7.596-2.233-2.04-4.259-4.292-6.339-6.485-1.25-1.317-3.691-4.007-3.691-4.007z" fill="#000"/><path d="M117.002 85.582c-.603 2.544-1.02 5.138-1.807 7.63-.643 2.035-1.473 4.012-2.371 5.948-.607 1.307-1.355 2.544-2.033 3.816-.15-1.31-.08-2.663-.452-3.928-.48-1.638-.924-3.526-2.258-4.6-1.567-1.263-3.855-1.53-5.872-1.46-1.7.06-3.514.53-4.855 1.572-1.399 1.086-2.385 2.778-2.823 4.488-.465 1.816-.285 3.843.339 5.61.518 1.47 1.607 2.71 2.71 3.816.816.819 1.882 1.347 2.823 2.02.113 1.047-.164 2.215.339 3.142.531.983 1.571 1.678 2.597 2.132.695.309 1.505.225 2.258.337.113.898-.085 1.892.339 2.693.422.797 1.194 1.453 2.032 1.796.663.27 1.43.074 2.146.112.263.86.221 1.881.79 2.58.487.6 1.265 1.017 2.033 1.123 1.302.18 2.559-.599 3.839-.898.451.748.622 1.764 1.355 2.244.697.458 1.652.414 2.484.337.948-.088 1.807-.598 2.71-.898.414.748.484 1.842 1.242 2.245.766.407 1.764.02 2.597-.225.694-.203 1.28-.673 1.92-1.01.64.674 1.072 1.634 1.92 2.02.753.343 1.699.378 2.483.112.607-.205 1.02-.779 1.468-1.234.712-.722 1.28-1.571 1.92-2.356-1.205-.749-2.472-1.405-3.613-2.245-1.244-.915-2.46-1.891-3.5-3.03-1.09-1.19-1.97-2.56-2.824-3.927-.968-1.55-1.776-3.194-2.597-4.825-.836-1.662-1.71-3.313-2.371-5.05-.943-2.48-1.579-5.067-2.258-7.63-.591-2.23-1.095-4.48-1.581-6.734-.41-1.9-.753-3.815-1.13-5.723z" fill="#FF5"/><path d="M103.607 99.137c-1.43-.006-2.972 1.262-3.181 2.613-.245 1.577 1.177 3.313 2.617 4.02 1.784.874 4.273.592 5.948-.473 2.721-1.732 3.512-5.432 4.746-8.4 1.578-3.794 2.22-8.394 3.33-11.862" stroke="#55A" stroke-width="2" stroke-linecap="round" stroke-linejoin="round"/><path d="M108.954 105.113c1.242-1.283 1.935-4.076 1.694-6.206-.186-1.64-1.02-3.373-2.343-4.372-1.711-1.291-4.156-1.59-6.294-1.382-1.954.19-4.024.952-5.397 2.348-1.285 1.307-1.86 3.26-2.095 5.072-.23 1.774-.063 3.706.719 5.317.8 1.651 2.253 3.02 3.832 3.967 1.233.74 2.719 1.052 4.152 1.19 1.835.178 3.744.053 5.51-.476a12.466 12.466 0 0 0 4.438-2.4c1.273-1.078 2.166-2.546 3.067-3.948 1.243-1.934 2.129-4.073 3.194-6.11" stroke="#55A" stroke-width="2" stroke-linecap="round" stroke-linejoin="round"/><path d="M100.507 111.047c-.16 1.164.033 2.378.72 3.254.877 1.12 2.42 1.691 3.832 1.904 1.626.245 3.289-.343 4.87-.793 1.525-.435 3.023-1.027 4.392-1.825 1.225-.716 2.333-1.634 3.353-2.619 1.49-1.44 2.661-3.174 3.992-4.76M105.777 116.92c.16.82.001 1.772.48 2.459.461.664 1.277 1.121 2.075 1.27 1.304.242 2.647-.32 3.913-.715 1.227-.382 2.383-.975 3.513-1.587 1.556-.842 3.103-1.737 4.471-2.856 1.395-1.142 2.502-2.592 3.753-3.888M110.408 121.045c.186.714.071 1.587.56 2.143.642.733 1.735 1.087 2.714 1.11 1.186.029 2.28-.685 3.353-1.19 1.403-.659 2.732-1.48 3.992-2.38 1.136-.81 2.107-1.826 3.194-2.698.783-.628 1.597-1.217 2.396-1.825M116.955 123.579c.187 1.671.926 2.154 1.917 2.545 1.004.396 2.185-.168 3.193-.556 1.205-.463 2.234-1.3 3.274-2.063 1.52-1.113 2.874-2.433 4.312-3.65M123.423 125.489c.08.926.87 1.64 1.676 1.904.957.315 2.02-.26 2.955-.635.842-.338 1.599-.873 2.315-1.428.935-.725 1.704-1.64 2.555-2.46M129.49 126.758c.4.609.922 1.259 1.598 1.587.578.281 1.293.399 1.916.238.83-.213 1.498-.878 2.076-1.507.523-.57.798-1.323 1.198-1.984" stroke="#55A" stroke-width="2" stroke-linecap="round" stroke-linejoin="round"/><path d="M178.834 45.4c6.002.107 12.016-.09 18.007.323 4.973.342 9.934.95 14.857 1.782 3.227.547 6.403 1.405 9.604 2.107.5 3.78 1.029 7.557 1.5 11.342.533 4.262.951 8.54 1.502 12.8.412 3.192.663 6.422 1.35 9.559.411 1.878 1.1 3.673 1.65 5.509l2.252.324c.75-.81 1.238-2.087 2.25-2.43 1.358-.46 2.953.076 4.203.81 1.803 1.059 3.118 2.978 4.202 4.86 1.045 1.815 1.9 3.87 2.1 5.995a8.719 8.719 0 0 1-.6 4.051c-.389.949-.935 1.98-1.8 2.43-.857.445-1.901 0-2.852 0-.5.756-.837 1.677-1.5 2.269-1.019.907-2.402 1.188-3.602 1.782-.65.81-1.048 1.985-1.951 2.43-.773.382-1.7 0-2.551 0-.75.756-1.296 1.862-2.251 2.269-.791.336-1.7 0-2.551 0-.85 1.08-1.345 2.68-2.551 3.24-.874.407-1.901-.108-2.852-.162-.75.972-1.19 2.38-2.25 2.917-.861.435-1.901 0-2.852 0-.95.864-1.792 1.89-2.851 2.592-1.204.797-2.528 1.428-3.902 1.782-1.414.365-2.92.6-4.352.324-1.565-.3-3.06-1.104-4.352-2.106-1.437-1.116-2.622-2.62-3.601-4.213-1.337-2.174-2.262-4.644-3.002-7.129-1.341-4.507-1.78-9.273-2.55-13.934-1.006-6.084-1.724-12.22-2.702-18.309-.974-6.064-2.055-12.107-3.151-18.147-.913-5.03-1.901-10.045-2.851-15.068z" fill="#FF5"/><g stroke="#55A" stroke-linecap="round" stroke-linejoin="round" stroke-width="2.025"><path d="M179.035 46.208s2.944 15.253 4.245 22.914c1.551 9.14 2.492 18.4 4.244 27.497 1.188 6.166 1.37 12.85 4.245 18.33 1.972 3.76 4.621 8.057 8.489 9.166 3.753 1.077 8.654-.178 11.24-3.306 2.173-2.626 2.62-7.137 1.493-10.442-1.224-3.592-4.506-7.644-8.05-7.505-3.688.146-7.78 4.47-7.829 8.454-.044 3.578 3.532 7.548 6.839 7.79 2.045.151 4.529-1.962 4.796-4.156.311-2.56-1.854-6.267-4.245-6.244-1.435.014-3.415 1.82-2.486 3.797"/><path d="M183.985 45.449c2.49 8.226 3.13 16.572 4.465 24.903 1.326 8.278 1.716 16.742 3.517 24.915 1.429 6.488 3.044 13.402 5.754 19.018M189.659 45.437c1.9 7.162 2.474 14.708 3.52 22.105 1.019 7.206 1.386 14.554 2.682 21.692.942 5.188 1.62 10.398 3.688 15.288M194.714 45.793c1.688 6.845 2.2 14.058 3.129 21.129.905 6.887 1.232 13.91 2.384 20.733.837 4.959 1.44 9.939 3.278 14.612M199.659 46.386c1.52 6.5 1.98 13.35 2.816 20.063.815 6.54 1.109 13.21 2.145 19.689.754 4.708 1.297 9.437 2.95 13.875M204.494 46.86c1.52 6.185 1.98 12.7 2.816 19.087.815 6.222 1.109 12.567 2.145 18.73.754 4.48 1.297 8.979 2.95 13.2M209.918 47.703c1.478 5.752 1.81 11.498 2.588 17.269.781 5.795 1.078 11.69 2.086 17.423.733 4.167 1.26 8.352 2.868 12.28M215.153 48.522c1.393 5.263 1.814 10.809 2.581 16.246.747 5.295 1.017 10.696 1.967 15.942.69 3.813 1.188 7.642 2.704 11.235M220.408 48.774c1.182 4.717 2.082 10.365 2.869 15.612.71 4.728.862 9.586 1.669 14.287.586 3.417 1.008 6.849 2.294 10.069M204.625 102.52c1.375-1.018 2.384-2.127 3.796-2.18 3.02-.111 5.445 1.87 7.215 4.096 1.885 2.37 3.028 5.74 2.833 8.855-.14 2.233-1.147 4.647-2.803 5.993-.828.673-1.71.513-3.053.628"/><path d="M209.63 100.267c1.155-1.373 2.022-2.432 3.393-2.52 2.712-.174 5.445 1.87 7.215 4.096 1.885 2.368 3.028 5.739 2.833 8.854-.14 2.233-.853 4.664-2.803 5.994-.675.46-1.043.931-2.386.215"/><path d="M213.806 97.538c1.375-1.017 2.595-2.81 4.271-2.876 2.716-.108 5.445 1.87 7.216 4.096 1.884 2.369 3.028 5.739 2.833 8.855-.14 2.233-1.05 4.798-2.803 5.993-.769.524-1.383.546-2.726.067"/><path d="M219.52 94.453c1.045-1.61 2.101-2.441 3.502-2.52 2.714-.152 5.445 1.87 7.216 4.096 1.884 2.369 3.028 5.74 2.833 8.855-.14 2.233-1.117 4.692-2.804 5.993-.776.6-1.382.784-2.835.424"/><path d="M224.355 91.369c.496-1.374 1.884-2.313 3.173-2.402 2.711-.187 5.445 1.87 7.215 4.096 1.885 2.369 3.028 5.74 2.833 8.855-.14 2.233-1.113 4.697-2.803 5.993-.643.493-1.002.222-2.345.337"/><path d="M229.41 88.996c.495-1.61 1.505-2.165 2.623-2.283 2.704-.285 5.445 1.87 7.215 4.096 1.885 2.369 2.906 5.733 2.833 8.855-.038 1.641-.566 3.48-1.704 4.57-.903.864-2.152.901-3.495 1.016"/></g><g stroke-linecap="round" stroke-linejoin="round" stroke-width="2"><path d="M83.47 1.354L116 41.105s9.168-2.88 13.882-3.758c6.946-1.295 14.02-2.054 21.085-2.204 11.092-.237 22.25.395 33.22 2.043C196.673 39.063 221 46.074 221 46.074l28.963-44.72H83.47z" stroke="#55A" fill="#F55"/><path d="M100.154 2.827l18.65 26.971c7.299-2.238 11.526-1.785 20.83-2.706l-4.651-24.265h-6.445l5.76 20.752c-5.344.33-7.738.277-13.143 1.112L107.56 2.827h-7.405zM144.993 2.827l4.484 23.558c11.336-.93 19.893-.95 31.228.041l5.642-23.6h-7.267l-3.428 19.159c-8.906-.47-13.603-.516-21.081-.04l-3.032-19.118h-6.546zM197.373 2.827l-8.228 24.891c8.275.608 19.524 4.967 28.527 6.862l16.23-31.753h-7.13l-12.211 24.422c-5.028-1.211-12.983-2.792-18.011-3.407l6.993-21.015h-6.17z" stroke="#FFF" fill="#FFF"/></g><g stroke="#55A" stroke-linecap="round" stroke-linejoin="round" stroke-width="2.017"><path d="M128.655 65.242c.395.437.203 1.252-.094 1.76-.315.542-.957 1.006-1.588 1.02-.614.009-1.27-.405-1.587-.927-.354-.583-.581-1.56-.094-2.039.798-.783 2.613-.643 3.363.186h0zM178.896 53.98c-4.754-1.13-9.373-2.765-14.262-3.394-3.163-.406-6.52-1.095-9.6-.226-1.933.546-5.273 2.508-5.052 3.27.11.382.9.364 1.371.339 2.181-.118 4-1.87 6.15-2.251 2.61-.463 5.316-.22 7.954 0 4.548.379 8.959 1.508 13.439 2.262z" fill="#55A"/><path d="M153.23 62.985c-.548-.49-3.025-.725-2.584-1.284.58-.736 3.935-3.28 6.287-4.188 2.191-.844 4.61-.992 6.972-1.044 2.502-.054 5.071.026 7.448.784 2.878.918 6.007 3.791 7.888 4.444"/><path d="M181.501 68.078c-4.022-.884-7.76-4.704-12.068-5.634-2.866-.619-5.881-.33-8.776.12a18.956 18.956 0 0 0-5.105 1.547c-.97.454-1.698.685-2.704 1.77 1.966.763 2.152 3.442 3.832 4.278 3.068 1.528 6.765.964 10.148.724 2.665-.19 5.223-1.197 7.853-1.694 2.264-.429 4.672.055 6.82-1.11z"/><path d="M171.353 64c-.091 1.17.408 2.48-.274 3.507-.817 1.23-2.498 2.053-4.114 2.49-1.26.34-2.734.379-3.977 0-1.186-.363-2.232-1.141-2.88-2.037-.886-1.226-.731-2.79-1.097-4.186"/><path d="M166.795 64.035c.396.438.204 1.252-.093 1.76-.316.542-.958 1.007-1.588 1.02-.614.009-1.27-.405-1.588-.927-.354-.582-.58-1.56-.093-2.038.798-.784 2.613-.644 3.363.185h0z" fill="#55A"/><path d="M167.447 78.491c-2.88-.452-5.965-2.2-8.459-4.088-2.345-1.777-4.308-4.544-5.838-6.606M136.492 56.023c.731 1.47 1.843 2.849 2.194 4.412.716 3.19.198 6.509-.274 9.73-.585 3.987-2.198 7.82-3.154 11.765-.615 2.535-2.989 5.398-1.66 7.647.775 1.314 2.996.715 4.396 1.336 1.827.81 3.676 2.366 5.14 3.082M153.663 81.245c1.874 1.697 4.618 2.95 5.623 5.091.478 1.02.557 2.289 0 3.28-.656 1.166-2.048 2.204-3.566 2.49-1.243.234-2.571-.307-3.703-.792-1.438-.617-2.243-2.019-3.702-2.602-1.049-.42-2.345-.92-3.429-.566-.365.12-.798.481-.685.792.366 1.006 2.37.768 3.565 1.131 1.547.47 3.109.905 4.663 1.358"/><path d="M160.312 102.183c-1.93-.798-4.638-.631-6.974-.585-2.377.047-4.677.965-7.052.875-2.707-.103-5.185-1.58-7.895-1.6-1.989-.016-4.261.715-5.819 1.083.125.561.321 1.29 0 1.729 1.998-.616 4.812-1.49 7.268-1.245 2.314.232 3.978 2.44 6.308 2.49 2.722.058 4.822-2.503 7.542-2.587 2.599-.08 5.377 1.632 7.406 2.02-.54-.66-.806-1.72-.784-2.18z" fill="#55A"/><path d="M154.245 108.36c-1.917.678-3.706 1.695-5.75 2.033-1.521.252-3.128.198-4.655-.032-1.038-.157-1.998-.567-2.972-.903-.904-.313-1.773-.689-2.66-1.033M141.486 115.755c1.395-.462 2.716-.914 4.146-.903 1.192.009 2.307.376 3.442.806"/><path d="M136.234 53.66c-1.9-1.836-6.055-2.3-9.31-2.508-2.367-.152-4.764.268-7.03.94-1.283.38-2.104 1.15-3.624 1.724 2.597-.418 4.532-1.172 6.854-1.254 2.357-.082 4.726.344 7.03.784 1.623.31 3.126.928 4.56 1.568.63.28 1.986-.805 1.52-1.254z" fill="#55A"/><path d="M136.9 61.722c-1.857-.754-3.472-2.883-5.571-3.57-2.797-.913-5.913-.971-8.814-.548-1.918.28-3.548 1.326-5.321 1.99M136.645 64.712c-2.053-.75-3.574-.971-5.4-1.176-2.702-.305-5.456-.406-8.148-.076-1.6.196-3.265.465-4.656 1.21-.879.47-1.441 1.31-2.162 1.965l.416 3.024c1.44.453 2.825 1.103 4.323 1.36 2.045.351 4.16.343 6.236.227 2.215-.124 4.457-.269 6.57-.983 1.137-.384 2.274-.921 3.196-1.747.646-.58 1.152-1.784 1.54-2.162-.36-.654-1.602-1.296-1.915-1.642h0z"/><path d="M132.835 64.965c-.091 1.169.409 2.48-.274 3.507-.817 1.23-2.498 2.052-4.114 2.489-1.26.34-2.733.38-3.977 0-1.185-.362-2.232-1.14-2.88-2.037-.886-1.226-.73-2.79-1.097-4.186M137.176 71.089c-1.53 1.39-2.794 3.015-4.586 4.171-1.437.927-3.215 1.423-4.822 2.134"/></g><path d="M115.415 41.931c.079 6.7-.006 13.402.237 20.098.238 6.549.397 13.118 1.19 19.624.795 6.522 1.552 13.131 3.569 19.388 1.764 5.473 3.96 10.967 7.375 15.605 2.552 3.465 5.738 6.665 9.517 8.748 3.163 1.743 6.859 2.6 10.468 2.837 4.152.274 8.35-.59 12.372-1.655 4.468-1.183 8.71-3.146 12.847-5.202 3.309-1.644 6.362-3.754 9.517-5.674 2.552-1.553 5.075-3.153 7.613-4.729" stroke="#55A" stroke-width="2" stroke-linecap="round" stroke-linejoin="round"/><path d="M81.839 118.53c-18.859 8.995-37.744 18.056-55.685 24.771l-.353 46.204s12.964-11.477 18.915-17.744a196.482 196.482 0 0 0 14.85-17.568c3.656-4.887 6.829-10.118 10.075-15.284 4.214-6.703 12.198-20.378 12.198-20.378z" stroke="#55A" stroke-width="2" fill="#000" stroke-linecap="round" stroke-linejoin="round"/><path d="M25.5 188.931l.25 19.38c5.167-4.142 10.44-8.153 15.5-12.423 5.623-4.746 11.473-9.292 16.5-14.659 4.736-5.055 8.677-10.8 12.75-16.397 4.36-5.993 8.44-12.187 12.5-18.385 3.167-4.833 6.167-9.772 9.25-14.658l-11-12.423c-3.083 5.3-6.034 10.679-9.25 15.9-3.524 5.722-7.048 11.457-11 16.895-4.13 5.683-8.573 11.15-13.25 16.398a144.703 144.703 0 0 1-10 10.186c-3.906 3.596-8.167 6.79-12.25 10.186z" stroke="#55A" stroke-width="2" fill="#55A" stroke-linecap="round" stroke-linejoin="round"/><path d="M78.781 127.316c-1.012-.285-1.555 1.63-1.656 2.671-.306 3.137 5.324 6.39 3.344 8.851-1.616 2.008-5.273-1.977-7.688-1.056-1.056.403-1.971 1.475-2.187 2.578-.66 3.367 5.48 7.19 3.219 9.783-1.822 2.088-5.579-2.297-8.22-1.429-1.049.345-1.985 1.333-2.28 2.391-.963 3.454 4.837 7.908 2.343 10.497-1.946 2.02-5.634-2.318-8.312-1.46-1.052.338-2.003 1.307-2.313 2.36-.98 3.34 4.593 7.752 2.125 10.218-2.277 2.276-6.393-2.771-9.5-1.894-1.042.294-2.007 1.192-2.375 2.205-1.185 3.258 4.08 8.204 1.313 10.31-2.244 1.708-5.029-3.447-7.844-3.198-1.082.095-2.204.805-2.75 1.739-1.893 3.234 2.79 9.506-.563 11.21-1.977 1.007-3.408-3.201-5.593-3.602-.933-.17-2.266-.2-2.781.59-.516.791.055 1.989.593 2.764 1.915 2.762 5.13 5.301 8.5 5.466 1.159.057 2.466-.615 3.094-1.584 2.158-3.328-2.768-9.738.594-11.863 2.554-1.614 5.406 3.818 8.406 3.416 1.134-.152 2.28-1.03 2.719-2.08 1.418-3.393-4.112-8.43-1.407-10.932 2.435-2.252 6.598 2.912 9.782 1.956 1.071-.321 2.055-1.294 2.375-2.36 1.007-3.354-4.608-7.766-2.157-10.28 1.966-2.015 5.663 2.34 8.344 1.46 1.05-.344 1.986-1.333 2.281-2.391.967-3.464-4.843-7.931-2.343-10.528 2.003-2.08 5.832 2.455 8.562 1.49 1.079-.38 2.023-1.462 2.25-2.577.694-3.404-5.489-7.24-3.25-9.907 1.684-2.005 5.37 2.017 7.813 1.056 1.06-.417 1.972-1.521 2.156-2.64.499-3.032-5.243-6.284-3.25-8.633 1.257-1.483 3.84 1.48 5.75 1.087.925-.191 2.167-.662 2.344-1.584.177-.922-.804-1.815-1.594-2.33-2.624-1.71-6.134-1.366-9.25-1.738-.197-.024-.457.111-.594-.031z" fill="#FFF"/><path d="M104.269 216.286c.242-3.619-.265-5.747-.022-9.365 6.23-8.042 11.284-19.25 17.515-27.29 1.688-6.03 11.218-17.248 13.853-19.164 1.849.368 3.528 1.097 2.9 3.32-.627 2.221-2.717 5.935-7.082 11.555-1.86 2.17-5.438 10.05-8.473 14.89-2.956 4.713-6.22 9.231-9.467 13.75-2.991 4.162-6.15 8.203-9.225 12.304h0z" stroke="#55A" stroke-width="2" fill="#FF5" stroke-linecap="round" stroke-linejoin="round"/><path stroke="#55A" stroke-width="2" fill="#FF5" stroke-linecap="round" stroke-linejoin="round" d="M136.315 163.12l-1.33-10.155 5.453-3.018 2.206 6.03z"/><path d="M135.824 179.895s-2.412 10.09-5.096 14.438c-2.693 4.363-7.36 7.184-10.68 11.097-2.015 2.372-4.446 4.588-5.584 7.478-1.097 2.787-.037 6.081-.971 8.926-.754 2.295-3.641 6.272-3.641 6.272l-5.826-5.066.485-6.754s6.389-7.214 9.225-11.097c2.307-3.16 4.14-6.637 6.311-9.891 1.414-2.12 2.995-4.128 4.37-6.272 4.455-6.95 12.555-21.341 12.555-21.341l4.483-2.87-5.631 15.08zM103.54 141.501l.478 80.276M187.045 150.186l-72.824 71.407M104.511 149.22l4.37-3.859M104.269 156.458l10.68-8.443M104.269 162.73l17.235-12.303M104.754 169.485l23.547-17.37M104.997 176.964l24.916-19.47M104.754 184.2l24.196-20.909M105.24 190.232l19.63-16.849M105.482 196.263l11.404-10.102M117.862 209.772l.729 6.514M122.232 203.741l.485 8.202M127.33 198.434l.97 8.685M132.67 192.885l1.214 7.479M136.076 182.284l2.42 14.702M138.766 172.441l4.831 20.188M142.648 162.814l5.558 24.51M147.235 156.458l4.855 26.537M153.546 156.458l3.642 20.747M158.644 156.217l3.398 16.163M164.227 155.976l2.913 12.303M170.298 154.528l1.93 9.665M174.423 153.805l1.213 5.79M179.52 152.357l.723 4.103" stroke="#55A" stroke-width="2" fill="#F55" stroke-linecap="round" stroke-linejoin="round"/><path d="M274.827 153.552c-1.14-1.826 2.08-5.6 2.093-8.524.018-3.734-2.897-7.186-2.57-10.905.202-2.274 1.982-4.131 2.716-6.295.584-1.722 1.76-3.522 1.333-5.29-.454-1.883-1.89-4.278-3.836-4.385-1.715-.094-2.743 2.116-3.79 3.47-2.428 3.145-4.3 6.77-5.557 10.533-1.365 4.088-2.069 5.78-2.043 8.786.032 3.749.26 5.883 2.736 10.913-.133 2.273-.688 4.56-.4 6.818.217 1.69.485 3.55 1.575 4.866 1.227 1.482 3.19 2.35 5.071 2.781 3.3.755 7.112.869 10.144-.521" stroke="#55A" stroke-width="2" stroke-linecap="round" stroke-linejoin="round"/><path d="M268.232 125.912c.96.9 1.583 2.466 2.881 2.701.95.172 1.935-.488 2.67-1.109.853-.721 1.281-1.836 1.78-2.833.566-1.131.96-2.765 1.36-3.54M285.922 140.929c.184-.444.458-.862.551-1.333.13-.654.172-1.355 0-1.999-.237-.89-.63-1.856-1.378-2.398-.872-.633-2.096-.788-3.168-.667-1.158.131-2.33.663-3.17 1.466-.579.554-1.025 1.337-1.101 2.132-.062.646.125 1.375.55 1.866.629.723 1.683.982 2.618 1.2 1.656.383 3.4.225 5.098.133 2.141-.117 4.362-.129 6.375-.864 1.79-.654 3.457-1.754 4.822-3.065.822-.79 1.78-1.686 1.929-2.798.199-1.491-.172-3.393-1.516-4.265-.795-.515-1.965-.07-2.936.038-2.44.27-4.772 1.09-7.18 1.521-2.074.371-4.231.33-6.254.915-2.045.592-3.929 1.754-5.833 2.595" stroke="#55A" stroke-width="2" stroke-linecap="round" stroke-linejoin="round"/><path d="M296.52 137.533c1.001.934 2.423 1.49 3.004 2.8.41.923.47 2.135.13 3.094-.536 1.517-1.942 2.464-3.134 3.39-1.428 1.108-3.045 1.932-4.703 2.504-1.643.567-3.383.712-5.094.884-1.692.17-3.41.396-5.094.148-.765-.114-1.608-.209-2.221-.737-.528-.455-.969-1.171-1.045-1.916-.079-.771.257-1.574.653-2.21.606-.973 1.465-1.897 2.482-2.21.933-.287 1.96.085 2.874.442.811.317 1.745.666 2.22 1.473.365.62.318 1.47.262 2.21-.063.82-.436 1.572-.654 2.358" stroke="#55A" stroke-width="2" stroke-linecap="round" stroke-linejoin="round"/><path d="M297.429 147.11c.682 1.13 1.77 2.075 2.048 3.39.317 1.496.24 3.289-.546 4.568-.903 1.466-2.69 2.08-4.233 2.652-1.91.708-3.99.736-6.007.884-1.725.126-3.5.411-5.187 0-1.033-.252-2.094-.694-2.867-1.474-.61-.615-1.187-1.457-1.229-2.357-.04-.857.392-1.753.956-2.358.738-.79 1.84-1.148 2.867-1.326 1.037-.18 2.207-.226 3.14.295.688.384 1.197 1.146 1.501 1.915.342.863.45 1.881.273 2.8-.169.883-.819 1.572-1.228 2.358" stroke="#55A" stroke-width="2" stroke-linecap="round" stroke-linejoin="round"/><path d="M296.306 157.572c.922.443 2.514.815 2.91 1.916.4 1.11-.398 2.39-1.018 3.389-.877 1.412-2.125 2.728-3.638 3.389-1.25.546-2.713.316-4.074.295-1.901-.03-3.837-.094-5.674-.59-1.385-.373-3.059-.615-3.929-1.768-.387-.513-.451-1.29-.291-1.915.278-1.084 1.089-2.077 2.037-2.653 1.224-.743 2.905-1.3 4.22-.736 1.189.51 1.84 1.98 2.182 3.241.206.76.159 1.633-.145 2.358-.31.735-1.067 1.179-1.601 1.768" stroke="#55A" stroke-width="2" stroke-linecap="round" stroke-linejoin="round"/><path d="M82.793 147.19l.712 62.76s-4.556-13.858-7.795-20.37c-3.023-6.08-10.779-17.293-10.779-17.293s6.297-7.96 9.24-12.09c3.018-4.237 8.622-13.007 8.622-13.007z" stroke="#55A" stroke-width="2" fill="#F55" stroke-linecap="round" stroke-linejoin="round"/><path d="M300 22.772l-16.194 14.86.2 23.181s5.015 1.185 7.575 1.387c2.798.22 8.419-.198 8.419-.198v-39.23z" fill="#000"/><path stroke="#55A" stroke-width="2" fill="#FF5" stroke-linecap="round" stroke-linejoin="round" d="M301 14.854l-23.175 20.004v25.559l5.781.792.4-23.577L301 23.565z"/><path d="M301 62.2c-5.117-.198-11.001-.49-16.422-1.373-6.07-.988-12.11-2.36-17.918-4.373-5.868-2.033-11.456-4.831-16.946-7.727-3.846-2.028-7.443-4.49-11.164-6.736 2.458 5.35 4.192 11.09 7.376 16.048 3.905 6.08 8.436 12.003 14.155 16.445 5.854 4.547 12.897 7.544 19.937 9.906 5.063 1.7 10.452 2.274 15.75 2.972 1.734.229 3.57.264 5.232.396v-5.745c-3.92-.162-8.31-.541-12.359-1.437-5.487-1.215-10.902-2.945-16-5.3-3.814-1.761-7.524-3.874-10.766-6.538-2.557-2.101-4.674-4.706-6.694-7.322-1.406-1.822-3.005-3.453-3.748-5.793 2.593 1.197 5.783 2.972 8.772 4.247 3.491 1.489 7.04 2.876 10.678 3.962 3.507 1.048 7.103 1.794 10.704 2.453 3.217.589 6.464 1.026 9.719 1.337 3.221.308 6.504.26 9.694.523V62.2z" stroke="#55A" stroke-width="2" fill="#FF5" stroke-linecap="round" stroke-linejoin="round"/><path d="M265.717 65.48c0 .823-.672 1.49-1.5 1.49-.829 0-1.5-.667-1.5-1.49 0-.824.671-1.491 1.5-1.491.828 0 1.5.667 1.5 1.49zM274.42 68.984a2.492 2.492 0 0 1-2.5 2.485c-1.38 0-2.5-1.113-2.5-2.485a2.492 2.492 0 0 1 2.5-2.484c1.38 0 2.5 1.112 2.5 2.484zM285.735 72.316c0 1.921-1.567 3.478-3.5 3.478s-3.5-1.557-3.5-3.478c0-1.92 1.567-3.478 3.5-3.478s3.5 1.557 3.5 3.478zM297.92 74.61c0 2.47-2.015 4.472-4.5 4.472s-4.5-2.002-4.5-4.472c0-2.47 2.015-4.472 4.5-4.472s4.5 2.002 4.5 4.472z" fill="#FF5"/><path stroke="#55A" stroke-width="2" fill="#FF5" stroke-linecap="round" stroke-linejoin="round" d="M277.884 84.098v49.892l5.48-1.756V86.03zM277.53 167.545l4.774-1.932 2.298.878-.354 173.395 16.617 10.19.135 9.042-23.646-14.84z"/><path d="M265.156 156.829c-3.889 5.036-8.3 9.713-11.667 15.108-3.528 5.653-6.437 11.71-8.839 17.92-2.463 6.366-4.392 12.97-5.657 19.675-1.177 6.243-1.846 12.623-1.767 18.974.075 6.013 1.137 11.985 2.121 17.919.921 5.553 1.925 11.118 3.536 16.514 1.4 4.691 3.29 9.236 5.303 13.702 1.896 4.207 4.243 8.199 6.364 12.298l7.424-6.676c-3.3-6.441-7.366-12.549-9.899-19.324-2.24-5.992-3.609-12.307-4.596-18.622-1.07-6.844-1.742-13.812-1.414-20.73.275-5.809 1.477-11.56 2.828-17.217 1.454-6.091 3.19-12.16 5.657-17.92 2.21-5.16 5.06-10.051 8.132-14.756 2.013-3.086 4.478-5.856 6.717-8.784-1.178-.937-2.793-1.505-3.535-2.811-.878-1.543-.472-3.514-.708-5.27z" fill="#55A"/><path d="M267.601 126.737c-1.475-1.128-4.951-2.257-6.427-3.385-3.52 4.062-7.072 8.095-10.558 12.185-2.293 2.69-4.604 5.364-6.812 8.123-2.572 3.214-5.125 6.45-7.492 9.815-2.166 3.078-4.239 6.227-6.13 9.477-1.857 3.19-3.495 6.5-5.11 9.816-1.682 3.454-3.345 6.925-4.768 10.492-1.547 3.881-3.049 7.802-4.087 11.847-1.166 4.547-1.837 9.216-2.384 13.877-.65 5.542-1.077 11.127-1.063 16.708.014 5.16.525 10.313 1.063 15.446.678 6.459 1.264 12.963 2.725 19.292 1.573 6.816 3.948 13.442 6.471 19.97a165.972 165.972 0 0 0 7.493 16.584c1.749 3.371 3.86 6.544 5.79 9.816l7.152-7.108c-3.633-6.205-7.99-12.044-10.899-18.616-2.92-6.597-4.792-13.633-6.47-20.646-1.759-7.344-3.182-14.81-3.747-22.338-.524-6.977-.246-14.014.34-20.985.541-6.43 1.295-12.89 2.925-19.136 1.747-6.697 4.39-13.16 7.293-19.45 2.648-5.736 5.898-11.19 9.195-16.584 2.763-4.52 5.465-9.124 8.856-13.2 3.694-4.442 8.428-8.404 12.401-12.127.909-3.61 3.335-6.263 4.243-9.873z" fill="#55A"/><path d="M241.689 110.658l26.082 16.514" stroke="#55A" stroke-width="2" stroke-linecap="round" stroke-linejoin="round"/><path d="M198.34 168.576l53.463-51.456 9.633 7.42s-10.5 10.682-15.172 16.513c-5.715 7.132-11.045 14.614-15.653 22.497-2.237 3.826-3.99 7.916-5.78 11.967-2.087 4.72-5.78 14.36-5.78 14.36l-20.711-21.3z" stroke="#55A" stroke-width="2" fill="#55A" stroke-linecap="round" stroke-linejoin="round"/><path d="M247.375 122.068c-.946.37-1.644 1.407-1.875 2.391-.716 3.047 4.29 7.149 1.906 9.193-1.93 1.656-4.672-3.029-7.187-2.609-1.14.19-2.27 1.104-2.688 2.174-1.11 2.839 3.842 7.274 1.344 9.037-2.032 1.435-4.18-2.962-6.625-3.447-.705-.14-1.578-.247-2.147.189-.569.436-.686 1.303-.728 2.016-.205 3.512 5.175 8.088 2.406 10.28-2.321 1.837-5.075-3.384-8-3.882-.698-.12-1.558-.199-2.112.24-.553.44-.661 1.292-.7 1.996-.214 3.871 5.705 8.955 2.625 11.335-2.858 2.208-6.1-4.272-9.656-4.938-.711-.133-1.595-.228-2.159.221-.564.45-.62 1.33-.685 2.046-.507 5.507 7.327 14.033 2.312 16.429-4.004 1.913-4.885-8.411-9.156-9.628-.91-.259-2.271-.098-2.75.715-.48.812.2 1.945.719 2.733 3.566 5.415 9.127 10.09 15.344 12.018.702.218 1.615.304 2.202-.137.587-.44.704-1.337.735-2.068.243-5.762-8.937-13.135-4.406-16.739 2.782-2.213 6.003 4.192 9.5 4.876.705.138 1.578.247 2.147-.189.569-.436.686-1.303.728-2.016.23-3.926-5.785-9.044-2.688-11.49 2.334-1.845 5.097 3.39 8.031 3.912.706.126 1.577.225 2.14-.217.561-.442.667-1.307.704-2.019.183-3.46-5.129-7.999-2.375-10.124 1.855-1.43 3.952 2.753 6.25 3.23.682.142 1.517.26 2.085-.14.568-.4.732-1.223.821-1.91.418-3.217-3.968-7.577-1.437-9.627 2.046-1.657 4.842 3.178 7.438 2.702 1.14-.21 2.253-1.176 2.625-2.267 1.012-2.973-4.294-7.168-1.907-9.224 2.326-2.003 5.611 3.182 8.688 3.106.985-.025 2.395-.21 2.728-1.132.332-.921-.64-1.953-1.385-2.595-3.22-2.778-7.902-3.258-12.03-4.317-.256-.065-.537-.22-.782-.124z" fill="#FFF"/><path stroke="#55A" stroke-width="2" fill="#F55" stroke-linecap="round" stroke-linejoin="round" d="M137.77 162.223l5.212-5.056 1.928 7.468-5.694 6.031zM127.353 158.274l6.54-4.707 1.493 7.259-6.105 6.25z"/><path d="M121.5 242.844l62-5.465s3.048 5.308 4.836 7.787c2.183 3.027 4.5 5.991 7.164 8.61 2.52 2.476 5.338 4.66 8.268 6.64 2.552 1.726 5.374 3.02 8.06 4.533 2.058 1.158 6.172 3.478 6.172 3.478s-2.867-10.85-3.755-16.38c-.803-4.995-1.115-10.06-1.414-15.109-.278-4.678-.547-9.372-.354-14.054.271-6.59.898-13.193 2.121-19.676.833-4.412 3.536-13 3.536-13l-19.86-21.142-76.774 73.778z" stroke="#000" stroke-width="2" fill="#000" stroke-linecap="round" stroke-linejoin="round"/><path fill="#FF5" d="M192.094 176.198l-4.063 3.975 8.438.062-1.563 1.46h-.625l-7.78.155-3.938 3.975 8-.093-2.313 2.143-6.719-.807-4.5 3.944 7.438.404-1.344 1.273-7.5.217-3.875 3.975 6.969-.093-1.25 1.18h-6.875l-4.031 3.976h6.625l-2.125 1.987-5.656-.621-4.438 3.944 9.375.59.361 13.611 4-3.944-.361-11.189 2.094-1.987.156 11.335 4-4.037-.219-10.963 1.875-1.739.344 11.429 4-4.162-.5-10.87 1.531-1.428.344 10.808 4-4.162-.5-10.217 1.188-1.118.406 9.875 4-4.223-.625-9.193 2.5-2.329.281 10.497 3.969-4.13-.438-11.46-.062-1.895-1.906-.03zM206.016 191.6l-4.062 3.975 8.437.062-1.562 1.46h-.625l-7.781.155-3.938 3.975 8-.093-2.313 2.143-6.718-.808-4.5 3.945 7.437.403-1.343 1.274-7.5.217-3.875 3.975 6.968-.093-1.25 1.18h-6.875l-4.031 3.975h6.625l-2.125 1.988-5.656-.621-4.438 3.944 9.375.59.467 13.295 4-3.944-.467-10.873 2.094-1.987.156 11.335 4-4.037-.218-10.963 1.875-1.74.343 11.43 4-4.162-.5-10.87 1.532-1.428.343 10.807 4-4.161-.5-10.218 1.188-1.118.406 9.876 4-4.223-.625-9.193 2.5-2.33.281 10.498 1.428-7.814 2.104-7.776-.063-1.895-1.906-.03zM209.649 216.37l-4.5 3.945 5.955.404-.39 1.483-6.971.007-3.875 3.976 6.969-.094-1.25 1.18h-6.875l-4.032 3.976h6.625l-2.125 1.987-5.656-.62-4.438 3.943 9.375.59.467 13.296 4-3.945-.466-10.872 2.093-1.988.156 11.335 4-4.037-.218-10.963 1.875-1.739.344 11.429 1.035-2.268-.077-11.606.472-9.076zM295.688 34.21c-.555-.011-1.042.426-1.47.777-2.921 2.405-5.794 5.29-7.124 8.82a3.841 3.841 0 0 0-.094 2.33c.978 3.517 3.023 7.068 6.031 9.16.791.551 2.012 1.183 2.82.658.808-.526.714-1.89.524-2.831-.63-3.116-5.405-4.807-5.25-7.981.16-3.274 4.913-4.65 6.188-7.671.281-.668.581-1.509.258-2.158-.324-.649-1.155-1.087-1.883-1.103zM288.719 89.615c-.94.595-1.464 1.907-1.406 3.012.237 4.585 7.483 7.258 7.093 11.832-.314 3.688-5.896 5-7.25 8.448-.3.762-.334 1.67-.093 2.453 1.108 3.614 3.478 7.184 6.718 9.161.805.492 2.031 1 2.797.45.766-.548.673-1.866.453-2.779-.765-3.177-5.935-4.654-5.812-7.919.137-3.64 5.699-4.968 7.125-8.323a3.844 3.844 0 0 0 .219-2.298c-1.118-4.937-4.073-9.61-7.813-13.044-.554-.508-1.296-.823-2.031-.993zM292.938 168.248c-.67.18-1.465.437-1.794 1.043-.33.606-.109 1.408.106 2.063.75 2.282 3.877 3.626 3.969 6.025.18 4.713-5.613 7.844-6.875 12.39a3.878 3.878 0 0 0-.063 1.802c.931 4.485 6.21 7.853 5.906 12.422-.291 4.378-5.807 6.889-7.187 11.056a3.889 3.889 0 0 0-.125 1.988c1.152 5.489 7.722 9.362 7.719 14.969-.003 5.074-5.757 8.619-7 13.54a3.905 3.905 0 0 0-.031 1.77c1.155 5.271 7.226 9.206 7.03 14.597-.168 4.656-5.73 7.648-6.968 12.143a3.894 3.894 0 0 0-.031 1.894c1.154 4.929 7.047 8.45 6.969 13.51-.074 4.753-5.705 7.89-6.938 12.484a3.845 3.845 0 0 0-.031 1.863c1.145 4.789 7.143 8.158 6.906 13.075-.197 4.1-5.406 6.438-6.781 10.31a3.945 3.945 0 0 0-.188 1.864c.495 3.386 1.547 7.01 3.907 9.503.677.715 1.756 1.647 2.671 1.277.916-.37 1.034-1.786 1.016-2.768-.057-3.073-3.798-5.48-3.5-8.54.403-4.139 5.587-6.48 6.875-10.435.209-.641.24-1.361.094-2.019-1.079-4.837-6.996-8.213-6.938-13.167.056-4.745 5.705-7.87 6.938-12.454.161-.6.173-1.258.031-1.863-1.154-4.929-7.075-8.45-6.969-13.51.098-4.639 5.64-7.645 6.907-12.111a3.89 3.89 0 0 0 .062-1.833c-1.106-5.286-7.078-9.228-7-14.627.074-5.092 5.8-8.651 7-13.602a3.872 3.872 0 0 0 0-1.802c-1.313-5.405-7.936-9.291-7.656-14.844.22-4.382 5.803-6.89 7.187-11.056a3.88 3.88 0 0 0 .125-1.926c-.868-4.521-6.08-7.884-5.937-12.484.148-4.761 5.814-7.886 6.937-12.516a3.885 3.885 0 0 0-.062-2.05c-.845-2.676-2.568-5.129-4.625-7.05a3.938 3.938 0 0 0-1.656-.93z"/><path d="M83.5 210.298c3.167 1.242 6.55 2.038 9.5 3.727 3.959 2.265 7.382 5.38 10.75 8.447a80.464 80.464 0 0 1 8.25 8.695c2.862 3.52 5.167 7.454 7.75 11.18" stroke="#000" stroke-width="2" stroke-linecap="round" stroke-linejoin="round"/><g><path d="M38.542 344.201c5.222-4.569 9.395-9.388 13.523-14.566 5.262-6.598 10.225-13.505 14.246-20.914 3.748-6.906 6.76-14.238 9.096-21.732 2.128-6.827 3.585-13.887 4.428-20.985.748-6.304.865-12.696.54-19.036-.273-5.313-1.353-10.556-2.085-15.826-.838-6.032-1.017-12.207-2.642-18.079-1.852-6.69-4.84-13.054-8.016-19.234-2.532-4.927-5.917-8.944-8.755-14.133l-6.13 5.415c3.405 6.205 7.125 12.27 9.876 18.785 2.424 5.74 4.274 11.728 5.79 17.77 1.73 6.892 3.188 13.902 3.746 20.984.462 5.85.226 11.76-.34 17.6-.696 7.182-1.853 14.358-3.747 21.323-1.704 6.272-4.08 12.375-6.811 18.277-2.93 6.333-6.202 12.564-10.218 18.278-3.78 5.377-7.606 10.436-12.942 14.892.455 3.61.668 7.063.44 11.181z" fill="#F55"/><path d="M33.662 314.816c4.007-5.973 8.787-11.5 12.02-17.919 3.637-7.221 6.262-14.98 8.132-22.838 1.53-6.432 2.317-13.068 2.475-19.676.183-7.633-.307-15.343-1.768-22.838-1.34-6.873-3.72-13.539-6.364-20.028-2.077-5.097-4.95-9.838-7.424-14.757l-15.91 11.244-.354 105.055c1.414.118 2.847.098 4.243.352 1.688.306 3.3.937 4.95 1.405z" fill="#F55"/><path fill="#000" d="M2 319.208l3.024-3.689 3.889-2.635h5.126l3.89.703-.354-173.395L2 130.178zM18.282 394.223v-46.38l-13.435 2.285L2 346.965v44.974l8.327.527zM1.415 411.372l11.752 1.038 11.752 1.817 10.447 2.941 8.009 3.46 7.138 2.942-4.7-6.229-6.356-6.92-11.49-6.49-13.059-4.411-7.312-1.298-6.181-.692z"/><path d="M192.407 252.626s-3.099-4.427-4.596-6.676c-1.93-2.899-5.657-8.784-5.657-8.784L50.986 362.601s7.246 5.608 10.606 7.73c1.105.172 3.182-1.054 3.182-1.054s.886-2.916 2.122-3.514c.854-.413 2.828.351 2.828.351l2.828-2.81s1.993-4.904 3.536-7.028c3.323-4.573 7.687-8.353 12.063-11.946 3.393-2.785 7.075-5.247 10.918-7.378 2.756-1.529 5.751-2.588 8.643-3.844 1.856-.806 5.589-2.37 5.589-2.37l79.106-78.112z" fill="#FF5"/><path fill="#000" d="M188.507 247.277l-3.884-6.272L55.967 365.726l6.069 4.101z"/><path d="M218.75 331.54l-.25-62.36s-7.36-2.952-10.75-4.97c-3.575-2.126-10-7.453-10-7.453l.75 82.485 10.75 9.193 9.5-16.895z" fill="#FF5"/><path fill="#000" d="M212.25 341.726l-.25-74.534-7.25-3.975.5 80.745 4 3.727z"/><path d="M220.78 360.787c-4.818 3.142-10.526 6.874-15.344 10.016-3.613-3.89-6.795-8.225-10.84-11.67-3.994-3.403-8.464-6.276-13.098-8.753-3.557-1.902-7.337-3.413-11.184-4.635a70.123 70.123 0 0 0-11.743-2.654c-4.331-.59-8.73-.78-13.099-.634-4.287.144-8.585.603-12.783 1.482-3.921.821-7.736 2.125-11.489 3.523-3.336 1.244-6.627 2.644-9.768 4.316-2.257 1.2-4.604 3.113-6.485 4.085-1.882-.898-2.851-3.75-4.975-4.361-1.83-.527-3.885.174-5.646.898-1.544.634-2.71 1.945-4.065 2.917-.978 0-2.032-.372-2.936 0-1.573.648-1.978 3.118-3.613 3.591-.666.193-1.362-.627-2.032-.449-1.184.315-1.807 1.646-2.71 2.469-.678 0-1.407-.258-2.033 0-1.082.445-1.656 1.646-2.484 2.469l-2.259-.45c2.259-3.44 4.042-7.24 6.776-10.323 3.46-3.902 7.67-7.133 11.969-10.1 4.817-3.322 10.046-6.056 15.356-8.528 5.33-2.48 10.833-4.657 16.486-6.284 4.793-1.379 9.718-2.39 14.68-2.917 4.716-.502 9.487-.405 14.227-.225 4.08.155 8.172.431 12.195 1.122 3.598.618 7.137 1.587 10.614 2.694 6.151 1.956 12.415 3.85 18.067 6.957 4.848 2.665 9.051 6.37 13.324 9.875 2.671 2.19 5.285 4.469 7.678 6.957 2.597 2.7 5.106 5.545 7.214 8.612z" stroke="#55A" stroke-width="2" fill="#FF5" stroke-linecap="round" stroke-linejoin="round"/><path d="M215.196 363.302l-5.437 3.655s-2.847-3.846-4.463-5.607a63.843 63.843 0 0 0-6.281-5.947c-2.834-2.35-5.82-4.538-8.949-6.484-4.533-2.819-9.189-5.538-14.167-7.478-4.968-1.936-10.205-3.235-15.473-4.076-5.163-.824-10.433-1.078-15.66-.926-4.972.143-9.974.625-14.82 1.74-5.23 1.204-10.31 3.086-15.193 5.3-4.947 2.242-14.168 8.034-14.168 8.034s-4.072.403-5.966 1.111c-1.825.683-5.033 2.965-5.033 2.965s-2.064-.379-2.983 0c-1.218.5-2.796 2.778-2.796 2.778s-1.098-.664-1.678-.555c-.954.179-2.237 1.852-2.237 1.852s2.463-2.989 3.915-4.26c3.48-3.048 7.494-5.438 11.372-7.967 3.529-2.302 7.05-4.65 10.812-6.552 5.266-2.664 10.704-5.09 16.368-6.763 6.555-1.935 13.347-3.266 20.17-3.723 6.325-.424 12.727-.014 18.996.926 6.095.914 12.203 2.256 17.916 4.558 5.838 2.353 11.216 5.778 16.404 9.33 3.31 2.266 6.363 4.894 9.321 7.597 2.233 2.039 4.259 4.291 6.339 6.484a343.784 343.784 0 0 1 3.691 4.008z" fill="#000"/><path d="M184.998 394.144c.603-2.544 1.02-5.138 1.807-7.63.643-2.035 1.473-4.012 2.371-5.948.607-1.307 1.355-2.544 2.033-3.816.15 1.31.08 2.663.452 3.928.48 1.638.924 3.527 2.258 4.6 1.567 1.263 3.855 1.53 5.872 1.46 1.7-.06 3.514-.53 4.855-1.571 1.399-1.087 2.385-2.78 2.823-4.489.465-1.816.285-3.843-.339-5.61-.518-1.47-1.607-2.71-2.71-3.816-.816-.819-1.882-1.347-2.823-2.02-.113-1.047.164-2.214-.339-3.142-.531-.983-1.571-1.677-2.597-2.132-.695-.308-1.505-.225-2.258-.337-.113-.898.085-1.892-.339-2.693-.422-.797-1.194-1.453-2.032-1.795-.663-.27-1.43-.075-2.146-.113-.263-.86-.221-1.881-.79-2.58-.487-.6-1.265-1.017-2.033-1.123-1.302-.18-2.559.599-3.839.898-.451-.748-.622-1.764-1.355-2.244-.697-.458-1.652-.414-2.484-.337-.948.088-1.807.598-2.71.898-.414-.748-.484-1.842-1.242-2.245-.766-.406-1.764-.02-2.597.225-.694.203-1.28.673-1.92 1.01-.64-.673-1.072-1.634-1.92-2.02-.753-.343-1.699-.378-2.483-.112-.607.205-1.02.779-1.468 1.234-.712.722-1.28 1.571-1.92 2.357 1.205.748 2.472 1.404 3.613 2.244 1.244.915 2.46 1.891 3.5 3.03 1.09 1.19 1.97 2.56 2.824 3.927.968 1.55 1.776 3.194 2.597 4.826.836 1.66 1.71 3.312 2.371 5.05.943 2.48 1.579 5.066 2.258 7.63.591 2.228 1.095 4.48 1.581 6.733.41 1.9.753 3.815 1.13 5.723z" fill="#FF5"/><path d="M198.393 380.589c1.43.006 2.972-1.262 3.181-2.613.245-1.577-1.177-3.313-2.617-4.02-1.784-.874-4.273-.592-5.948.473-2.721 1.732-3.512 5.432-4.746 8.4-1.578 3.794-2.22 8.394-3.33 11.862" stroke="#55A" stroke-width="2" stroke-linecap="round" stroke-linejoin="round"/><path d="M193.046 374.613c-1.242 1.283-1.935 4.076-1.694 6.206.186 1.64 1.02 3.374 2.343 4.372 1.711 1.291 4.156 1.59 6.294 1.382 1.954-.19 4.024-.952 5.397-2.348 1.285-1.307 1.86-3.26 2.095-5.072.23-1.774.063-3.706-.719-5.317-.8-1.651-2.253-3.02-3.832-3.967-1.233-.74-2.719-1.052-4.152-1.19-1.835-.178-3.744-.052-5.51.476a12.466 12.466 0 0 0-4.438 2.4c-1.273 1.078-2.166 2.546-3.067 3.948-1.243 1.934-2.129 4.073-3.194 6.11" stroke="#55A" stroke-width="2" stroke-linecap="round" stroke-linejoin="round"/><path d="M201.493 368.679c.16-1.164-.033-2.378-.719-3.254-.878-1.12-2.42-1.691-3.833-1.904-1.626-.245-3.289.343-4.87.794-1.525.434-3.023 1.026-4.392 1.825-1.225.715-2.333 1.634-3.353 2.618-1.49 1.44-2.661 3.174-3.992 4.76M196.223 362.807c-.16-.82-.001-1.773-.48-2.46-.461-.664-1.277-1.12-2.075-1.27-1.304-.242-2.647.32-3.913.715-1.227.383-2.383.975-3.513 1.587-1.555.842-3.103 1.737-4.471 2.856-1.395 1.142-2.502 2.592-3.753 3.888M191.592 358.68c-.186-.713-.071-1.585-.56-2.142-.642-.733-1.735-1.087-2.714-1.11-1.186-.029-2.28.685-3.353 1.19-1.403.659-2.732 1.481-3.992 2.38-1.136.81-2.107 1.826-3.194 2.698-.783.628-1.597 1.217-2.396 1.825M185.045 356.147c-.187-1.67-.926-2.154-1.917-2.544-1.004-.396-2.185.167-3.193.555-1.205.463-2.234 1.3-3.274 2.063-1.52 1.113-2.874 2.433-4.312 3.65M178.577 354.237c-.08-.925-.87-1.64-1.676-1.904-.957-.315-2.02.26-2.955.635-.842.338-1.599.873-2.315 1.428-.935.725-1.704 1.64-2.555 2.46M172.51 352.968c-.4-.609-.922-1.259-1.598-1.587-.578-.281-1.293-.399-1.916-.238-.83.213-1.498.878-2.076 1.507-.523.57-.798 1.323-1.198 1.984" stroke="#55A" stroke-width="2" stroke-linecap="round" stroke-linejoin="round"/><path d="M123.166 434.327c-6.002-.108-12.016.088-18.007-.324a151.307 151.307 0 0 1-14.857-1.782c-3.227-.547-6.403-1.405-9.604-2.107-.5-3.78-1.029-7.557-1.5-11.341-.533-4.263-.951-8.541-1.502-12.8-.412-3.193-.663-6.423-1.35-9.56-.411-1.878-1.1-3.672-1.65-5.509l-2.252-.324c-.75.81-1.238 2.087-2.25 2.43-1.358.46-2.953-.075-4.203-.81-1.803-1.059-3.118-2.978-4.202-4.86-1.045-1.815-1.9-3.87-2.1-5.995-.129-1.36.087-2.8.6-4.05.389-.95.935-1.982 1.8-2.431.857-.445 1.901 0 2.852 0 .5-.756.837-1.677 1.5-2.269 1.019-.907 2.402-1.188 3.602-1.782.65-.81 1.048-1.985 1.951-2.43.773-.382 1.7 0 2.551 0 .75-.756 1.296-1.862 2.251-2.269.791-.336 1.7 0 2.551 0 .85-1.08 1.345-2.68 2.551-3.24.874-.407 1.901.108 2.852.162.75-.972 1.19-2.38 2.25-2.917.861-.435 1.901 0 2.852 0 .95-.864 1.792-1.89 2.851-2.592 1.204-.797 2.528-1.428 3.902-1.782 1.414-.365 2.92-.6 4.352-.324 1.565.3 3.06 1.104 4.352 2.106 1.437 1.116 2.622 2.62 3.601 4.213 1.337 2.175 2.262 4.644 3.002 7.129 1.341 4.507 1.78 9.273 2.55 13.934 1.006 6.084 1.724 12.22 2.702 18.309.974 6.064 2.055 12.107 3.151 18.147.913 5.03 1.901 10.045 2.851 15.068z" fill="#FF5"/><g stroke="#55A" stroke-linecap="round" stroke-linejoin="round" stroke-width="2.025"><path d="M122.965 433.518s-2.944-15.252-4.245-22.914c-1.551-9.14-2.492-18.4-4.244-27.497-1.188-6.166-1.37-12.85-4.245-18.33-1.972-3.76-4.621-8.057-8.489-9.166-3.753-1.077-8.654.179-11.24 3.306-2.173 2.627-2.62 7.137-1.493 10.442 1.224 3.592 4.506 7.645 8.05 7.505 3.688-.146 7.78-4.47 7.829-8.454.044-3.578-3.532-7.548-6.839-7.79-2.045-.151-4.529 1.962-4.796 4.156-.311 2.56 1.854 6.267 4.245 6.244 1.435-.014 3.415-1.82 2.486-3.796"/><path d="M118.015 434.278c-2.49-8.226-3.13-16.572-4.465-24.904-1.326-8.278-1.716-16.742-3.517-24.915-1.429-6.488-3.044-13.402-5.754-19.018M112.341 434.289c-1.9-7.162-2.474-14.708-3.52-22.105-1.019-7.206-1.386-14.554-2.682-21.692-.942-5.188-1.62-10.398-3.688-15.287M107.286 433.933c-1.688-6.845-2.2-14.058-3.129-21.128-.905-6.888-1.232-13.912-2.384-20.734-.837-4.959-1.44-9.939-3.278-14.612M102.341 433.34c-1.52-6.5-1.98-13.35-2.816-20.063-.815-6.54-1.109-13.21-2.145-19.689-.754-4.708-1.297-9.437-2.95-13.875M97.506 432.865c-1.52-6.184-1.98-12.699-2.816-19.086-.815-6.222-1.109-12.567-2.145-18.73-.754-4.48-1.297-8.979-2.95-13.2M92.082 432.023c-1.478-5.752-1.81-11.498-2.588-17.269-.781-5.795-1.078-11.69-2.086-17.423-.733-4.167-1.26-8.352-2.868-12.279M86.847 431.204c-1.393-5.263-1.814-10.809-2.581-16.246-.747-5.295-1.017-10.696-1.967-15.942-.69-3.813-1.188-7.642-2.704-11.235M81.592 430.952c-1.182-4.717-2.082-10.365-2.869-15.612-.71-4.728-.862-9.586-1.669-14.287-.586-3.417-1.008-6.849-2.294-10.069M97.375 377.207c-1.375 1.017-2.384 2.127-3.796 2.179-3.02.111-5.445-1.87-7.215-4.096-1.885-2.369-3.028-5.74-2.833-8.855.14-2.233 1.147-4.647 2.803-5.993.828-.673 1.71-.513 3.053-.627"/><path d="M92.37 379.46c-1.155 1.372-2.022 2.432-3.393 2.52-2.712.173-5.445-1.871-7.215-4.097-1.885-2.368-3.028-5.739-2.833-8.854.14-2.233.853-4.664 2.803-5.994.675-.46 1.043-.93 2.386-.215"/><path d="M88.194 382.188c-1.375 1.017-2.595 2.81-4.271 2.876-2.716.108-5.445-1.87-7.216-4.096-1.884-2.369-3.028-5.739-2.833-8.855.14-2.233 1.05-4.798 2.803-5.993.769-.524 1.383-.546 2.726-.067"/><path d="M82.48 385.273c-1.045 1.61-2.101 2.441-3.502 2.52-2.714.152-5.445-1.87-7.216-4.096-1.884-2.369-3.028-5.74-2.833-8.855.14-2.233 1.117-4.692 2.804-5.993.776-.599 1.382-.784 2.835-.423"/><path d="M77.645 388.357c-.496 1.374-1.884 2.313-3.173 2.402-2.711.187-5.445-1.87-7.215-4.096-1.885-2.369-3.028-5.739-2.833-8.855.14-2.233 1.113-4.697 2.803-5.993.643-.493 1.002-.222 2.345-.337"/><path d="M72.59 390.73c-.495 1.61-1.505 2.166-2.623 2.283-2.704.285-5.445-1.87-7.215-4.096-1.885-2.368-2.906-5.733-2.833-8.854.038-1.642.566-3.48 1.704-4.57.903-.864 2.152-.902 3.495-1.017"/></g><g stroke-linecap="round" stroke-linejoin="round" stroke-width="2"><path d="M218.53 478.372L186 438.621s-9.168 2.88-13.882 3.758c-6.946 1.295-14.02 2.054-21.085 2.205-11.092.236-22.25-.396-33.22-2.044C105.327 440.663 81 433.652 81 433.652l-28.963 44.72H218.53z" stroke="#55A" fill="#F55"/><path d="M201.846 476.9l-18.65-26.972c-7.299 2.238-11.526 1.785-20.83 2.706l4.651 24.265h6.445l-5.76-20.752c5.344-.33 7.738-.277 13.143-1.111l13.596 21.863h7.405zM157.007 476.9l-4.484-23.56c-11.336.93-19.893.952-31.228-.04l-5.642 23.6h7.267l3.428-19.159c8.906.47 13.603.517 21.081.041l3.032 19.117h6.546zM104.627 476.9l8.228-24.892c-8.275-.608-19.524-4.967-28.527-6.862l-16.23 31.753h7.13l12.211-24.421c5.028 1.21 12.983 2.791 18.011 3.406l-6.993 21.015h6.17z" stroke="#FFF" fill="#FFF"/></g><g stroke="#55A" stroke-linecap="round" stroke-linejoin="round" stroke-width="2.017"><path d="M173.345 414.484c-.395-.437-.203-1.252.094-1.76.315-.542.957-1.006 1.588-1.02.614-.008 1.27.405 1.587.927.354.583.581 1.56.094 2.039-.798.783-2.613.643-3.363-.186h0zM123.104 425.746c4.754 1.131 9.373 2.765 14.262 3.394 3.163.407 6.52 1.095 9.6.226 1.933-.546 5.273-2.508 5.052-3.269-.11-.383-.9-.365-1.371-.34-2.181.119-4 1.87-6.15 2.251-2.61.463-5.316.22-7.954 0-4.548-.379-8.959-1.508-13.439-2.262z" fill="#55A"/><path d="M148.77 416.74c.548.491 3.025.726 2.584 1.285-.58.736-3.935 3.281-6.287 4.188-2.191.844-4.61.992-6.972 1.044-2.502.054-5.071-.026-7.448-.784-2.878-.918-6.007-3.79-7.888-4.444"/><path d="M120.499 411.648c4.022.884 7.76 4.704 12.068 5.634 2.866.619 5.881.33 8.776-.12a18.956 18.956 0 0 0 5.105-1.547c.97-.454 1.698-.685 2.704-1.77-1.966-.763-2.152-3.442-3.832-4.278-3.068-1.528-6.765-.964-10.148-.724-2.665.19-5.223 1.197-7.853 1.694-2.264.429-4.672-.055-6.82 1.11z"/><path d="M130.647 415.726c.091-1.17-.408-2.48.274-3.507.817-1.23 2.498-2.053 4.114-2.49 1.26-.34 2.734-.379 3.977 0 1.186.363 2.232 1.141 2.88 2.037.886 1.226.731 2.79 1.097 4.186"/><path d="M135.205 415.69c-.396-.436-.204-1.251.093-1.76.316-.54.958-1.006 1.588-1.019.614-.009 1.27.405 1.588.927.354.582.58 1.56.093 2.038-.798.784-2.613.644-3.363-.185h0z" fill="#55A"/><path d="M134.553 401.235c2.88.452 5.965 2.2 8.459 4.089 2.345 1.776 4.308 4.543 5.838 6.605M165.508 423.703c-.731-1.47-1.843-2.849-2.194-4.412-.716-3.19-.198-6.509.274-9.729.585-3.988 2.198-7.82 3.154-11.766.615-2.535 2.989-5.398 1.66-7.647-.775-1.313-2.996-.715-4.396-1.336-1.827-.81-3.676-2.366-5.14-3.082M148.337 398.481c-1.874-1.697-4.618-2.95-5.623-5.091-.478-1.02-.557-2.289 0-3.28.656-1.166 2.048-2.204 3.566-2.49 1.243-.234 2.571.307 3.703.792 1.438.617 2.243 2.019 3.702 2.602 1.049.42 2.345.92 3.429.566.365-.12.798-.481.685-.792-.366-1.006-2.37-.768-3.565-1.131-1.547-.47-3.109-.905-4.663-1.358"/><path d="M141.688 377.543c1.93.798 4.638.631 6.974.585 2.377-.047 4.677-.964 7.052-.875 2.707.103 5.185 1.58 7.895 1.601 1.989.015 4.261-.716 5.819-1.084-.125-.561-.321-1.29 0-1.729-1.998.616-4.812 1.49-7.268 1.245-2.314-.232-3.978-2.44-6.308-2.49-2.722-.058-4.822 2.504-7.542 2.587-2.599.08-5.377-1.632-7.406-2.02.54.66.806 1.72.784 2.18z" fill="#55A"/><path d="M147.755 371.366c1.917-.678 3.706-1.694 5.75-2.033 1.521-.252 3.128-.198 4.655.032 1.038.157 1.998.567 2.972.904.904.312 1.773.688 2.66 1.032M160.514 363.97c-1.395.463-2.716.915-4.146.904-1.192-.009-2.307-.376-3.442-.806"/><path d="M165.766 426.067c1.9 1.835 6.055 2.3 9.31 2.508 2.367.151 4.764-.269 7.03-.941 1.283-.38 2.104-1.15 3.624-1.724-2.597.418-4.532 1.173-6.854 1.254-2.357.082-4.726-.344-7.03-.784-1.623-.31-3.126-.928-4.56-1.567-.63-.282-1.986.804-1.52 1.254z" fill="#55A"/><path d="M165.1 418.004c1.857.754 3.472 2.884 5.571 3.57 2.797.913 5.913.971 8.814.548 1.918-.28 3.548-1.326 5.321-1.99M165.355 415.014c2.053.75 3.574.971 5.4 1.177 2.702.304 5.456.405 8.148.075 1.6-.196 3.265-.465 4.656-1.21.879-.47 1.441-1.31 2.162-1.965l-.416-3.023c-1.44-.454-2.825-1.104-4.323-1.361-2.045-.351-4.16-.343-6.236-.227-2.215.124-4.457.27-6.57.983-1.137.385-2.274.922-3.196 1.748-.646.578-1.152 1.783-1.54 2.161.36.654 1.602 1.296 1.915 1.642h0z"/><path d="M169.165 414.761c.091-1.169-.409-2.48.274-3.507.817-1.23 2.498-2.052 4.114-2.489 1.26-.34 2.733-.379 3.977 0 1.185.362 2.232 1.14 2.88 2.037.886 1.226.73 2.79 1.097 4.186M164.824 408.637c1.53-1.39 2.794-3.015 4.586-4.171 1.437-.926 3.215-1.423 4.822-2.134"/></g><path d="M186.585 437.795c-.079-6.7.005-13.402-.237-20.098-.238-6.549-.397-13.118-1.19-19.624-.795-6.522-1.552-13.131-3.569-19.388-1.764-5.473-3.96-10.967-7.375-15.605-2.552-3.465-5.738-6.665-9.517-8.748-3.163-1.743-6.859-2.6-10.468-2.837-4.152-.274-8.35.59-12.372 1.655-4.468 1.183-8.71 3.147-12.847 5.202-3.309 1.644-6.362 3.754-9.517 5.674-2.552 1.553-5.075 3.153-7.613 4.729" stroke="#55A" stroke-width="2" stroke-linecap="round" stroke-linejoin="round"/><path d="M220.161 361.195c18.859-8.994 37.744-18.055 55.685-24.77l.353-46.204s-12.964 11.477-18.915 17.744a196.482 196.482 0 0 0-14.85 17.568c-3.656 4.887-6.829 10.118-10.075 15.284-4.214 6.703-12.198 20.378-12.198 20.378z" stroke="#55A" stroke-width="2" fill="#000" stroke-linecap="round" stroke-linejoin="round"/><path d="M276.5 290.795l-.25-19.38c-5.167 4.142-10.44 8.153-15.5 12.423-5.623 4.746-11.473 9.292-16.5 14.659-4.736 5.056-8.677 10.8-12.75 16.397-4.36 5.994-8.44 12.187-12.5 18.385-3.167 4.833-6.167 9.772-9.25 14.659l11 12.422c3.083-5.3 6.034-10.679 9.25-15.9 3.524-5.722 7.048-11.457 11-16.895 4.13-5.683 8.573-11.15 13.25-16.398a144.703 144.703 0 0 1 10-10.186c3.906-3.596 8.167-6.79 12.25-10.186z" stroke="#55A" stroke-width="2" fill="#55A" stroke-linecap="round" stroke-linejoin="round"/><path d="M223.219 352.41c1.012.285 1.555-1.63 1.656-2.671.306-3.137-5.324-6.39-3.344-8.851 1.616-2.008 5.273 1.977 7.688 1.056 1.056-.403 1.971-1.475 2.187-2.578.66-3.367-5.48-7.19-3.219-9.782 1.822-2.09 5.579 2.296 8.22 1.428 1.049-.345 1.985-1.333 2.28-2.391.963-3.454-4.837-7.908-2.343-10.497 1.946-2.02 5.634 2.318 8.312 1.46 1.052-.337 2.003-1.307 2.313-2.36.98-3.339-4.593-7.752-2.125-10.218 2.277-2.276 6.393 2.771 9.5 1.894 1.042-.294 2.007-1.192 2.375-2.205 1.185-3.258-4.08-8.204-1.313-10.31 2.244-1.708 5.029 3.447 7.844 3.199 1.082-.096 2.204-.806 2.75-1.74 1.893-3.234-2.79-9.506.563-11.21 1.977-1.007 3.408 3.201 5.593 3.602.933.17 2.266.2 2.781-.59.516-.79-.055-1.989-.593-2.764-1.915-2.762-5.13-5.3-8.5-5.466-1.159-.057-2.466.615-3.094 1.584-2.158 3.328 2.768 9.738-.594 11.863-2.554 1.615-5.406-3.818-8.406-3.416-1.134.152-2.28 1.03-2.719 2.08-1.418 3.393 4.112 8.43 1.406 10.932-2.434 2.252-6.597-2.912-9.78-1.956-1.072.322-2.056 1.294-2.376 2.36-1.007 3.354 4.608 7.766 2.156 10.28-1.965 2.015-5.662-2.34-8.343-1.46-1.05.344-1.986 1.333-2.281 2.391-.967 3.464 4.843 7.931 2.343 10.528-2.003 2.081-5.832-2.455-8.562-1.49-1.079.38-2.023 1.462-2.25 2.577-.694 3.404 5.489 7.24 3.25 9.907-1.684 2.005-5.37-2.017-7.813-1.056-1.06.417-1.972 1.521-2.156 2.64-.499 3.032 5.243 6.284 3.25 8.633-1.257 1.483-3.84-1.48-5.75-1.087-.925.191-2.167.662-2.344 1.584-.177.923.804 1.815 1.594 2.33 2.624 1.71 6.134 1.366 9.25 1.739.197.023.457-.112.594.03z" fill="#FFF"/><path d="M197.732 263.44c-.243 3.62.264 5.747.021 9.366-6.23 8.04-11.284 19.248-17.515 27.29-1.688 6.028-11.218 17.248-13.853 19.163-1.849-.368-3.528-1.097-2.9-3.32.627-2.22 2.717-5.935 7.082-11.555 1.86-2.17 5.438-10.05 8.473-14.89 2.956-4.713 6.22-9.23 9.467-13.75 2.991-4.162 6.15-8.202 9.225-12.304h0z" stroke="#55A" stroke-width="2" fill="#FF5" stroke-linecap="round" stroke-linejoin="round"/><path stroke="#55A" stroke-width="2" fill="#FF5" stroke-linecap="round" stroke-linejoin="round" d="M165.685 316.607l1.33 10.154-5.453 3.019-2.206-6.031z"/><path d="M166.176 299.831s2.412-10.09 5.096-14.438c2.693-4.363 7.36-7.184 10.68-11.097 2.015-2.372 4.446-4.588 5.584-7.478 1.097-2.787.037-6.081.971-8.926.754-2.295 3.641-6.272 3.641-6.272l5.826 5.066-.485 6.754s-6.389 7.214-9.225 11.097c-2.307 3.16-4.14 6.637-6.311 9.891-1.414 2.12-2.995 4.128-4.37 6.273-4.455 6.949-12.555 21.34-12.555 21.34l-4.483 2.87 5.631-15.08zM198.46 338.225l-.478-80.276M114.955 329.54l72.824-71.407M197.489 330.505l-4.37 3.86M197.732 323.268l-10.681 8.443M197.732 316.996l-17.236 12.303M197.246 310.241l-23.547 17.37M197.003 302.763l-24.916 19.47M197.246 295.525l-24.196 20.91M196.76 289.494l-19.63 16.849M196.518 283.463l-11.404 10.102M184.138 269.954l-.729-6.514M179.768 275.985l-.485-8.202M174.67 281.292l-.97-8.684M169.33 286.84l-1.214-7.478M165.924 297.442l-2.42-14.702M163.234 307.285l-4.831-20.188M159.352 316.912l-5.558-24.51M154.765 323.268l-4.855-26.536M148.454 323.268l-3.641-20.747M143.356 323.51l-3.398-16.164M137.773 323.75l-2.913-12.303M131.702 325.198l-1.93-9.665M127.577 325.922l-1.213-5.79M122.48 327.369l-.723-4.103" stroke="#55A" stroke-width="2" fill="#F55" stroke-linecap="round" stroke-linejoin="round"/><path d="M27.173 326.174c1.14 1.826-2.08 5.6-2.093 8.525-.018 3.733 2.897 7.185 2.57 10.904-.202 2.274-1.982 4.131-2.716 6.295-.584 1.722-1.76 3.522-1.333 5.29.454 1.883 1.89 4.278 3.836 4.385 1.715.094 2.743-2.116 3.79-3.47 2.428-3.145 4.3-6.77 5.557-10.533 1.365-4.088 2.069-5.78 2.043-8.786-.032-3.749-.26-5.883-2.736-10.913.133-2.272.688-4.56.4-6.818-.217-1.69-.485-3.55-1.575-4.866-1.227-1.481-3.19-2.35-5.071-2.78-3.3-.756-7.112-.87-10.144.52" stroke="#55A" stroke-width="2" stroke-linecap="round" stroke-linejoin="round"/><path d="M33.768 353.814c-.96-.9-1.583-2.466-2.881-2.701-.95-.172-1.935.488-2.67 1.11-.853.72-1.281 1.836-1.78 2.833-.566 1.13-.96 2.764-1.36 3.539M16.078 338.797c-.184.445-.458.862-.551 1.333-.13.654-.172 1.355 0 1.999.237.89.63 1.856 1.378 2.399.872.632 2.096.788 3.168.666 1.158-.131 2.33-.663 3.17-1.466.579-.554 1.025-1.337 1.101-2.132.062-.645-.125-1.375-.55-1.866-.629-.723-1.683-.982-2.618-1.2-1.656-.383-3.4-.225-5.098-.132-2.141.116-4.362.128-6.375.863-1.79.654-3.457 1.754-4.822 3.065-.822.79-1.78 1.687-1.929 2.798-.199 1.491.172 3.394 1.516 4.265.795.515 1.965.07 2.936-.037 2.44-.271 4.772-1.091 7.18-1.522 2.074-.371 4.231-.33 6.254-.915 2.045-.592 3.929-1.754 5.833-2.595" stroke="#55A" stroke-width="2" stroke-linecap="round" stroke-linejoin="round"/><path d="M5.48 342.193c-1.001-.933-2.423-1.49-3.004-2.8-.41-.923-.47-2.135-.13-3.094.536-1.517 1.942-2.464 3.134-3.39 1.428-1.107 3.045-1.932 4.703-2.504 1.643-.567 3.383-.712 5.094-.884 1.692-.17 3.41-.396 5.094-.147.765.113 1.608.208 2.221.736.528.456.969 1.171 1.045 1.916.079.771-.257 1.574-.653 2.21-.606.973-1.465 1.897-2.482 2.21-.933.287-1.96-.085-2.874-.442-.811-.317-1.745-.666-2.22-1.473-.365-.62-.318-1.47-.262-2.21.063-.82.436-1.572.654-2.358" stroke="#55A" stroke-width="2" stroke-linecap="round" stroke-linejoin="round"/><path d="M4.571 332.615c-.682-1.13-1.77-2.074-2.048-3.389-.317-1.496-.24-3.289.546-4.567.903-1.467 2.69-2.08 4.233-2.653 1.91-.708 3.99-.736 6.007-.884 1.725-.126 3.5-.411 5.187 0 1.033.252 2.094.694 2.867 1.474.61.615 1.187 1.457 1.229 2.357.04.857-.392 1.754-.956 2.358-.738.79-1.84 1.148-2.867 1.326-1.037.18-2.207.226-3.14-.295-.688-.384-1.197-1.146-1.501-1.915a5.166 5.166 0 0 1-.273-2.8c.169-.883.819-1.572 1.228-2.357" stroke="#55A" stroke-width="2" stroke-linecap="round" stroke-linejoin="round"/><path d="M5.694 322.154c-.922-.442-2.514-.815-2.91-1.916-.4-1.11.398-2.39 1.018-3.389.877-1.412 2.125-2.728 3.638-3.389 1.25-.546 2.713-.316 4.074-.294 1.901.03 3.837.093 5.674.589 1.385.373 3.059.615 3.929 1.768.387.513.451 1.29.291 1.916-.278 1.084-1.089 2.076-2.037 2.652-1.224.743-2.905 1.3-4.22.737-1.189-.51-1.84-1.981-2.182-3.242a3.733 3.733 0 0 1 .145-2.358c.31-.735 1.067-1.178 1.6-1.768" stroke="#55A" stroke-width="2" stroke-linecap="round" stroke-linejoin="round"/><path d="M219.207 332.536l-.712-62.76s4.556 13.858 7.795 20.37c3.023 6.08 10.779 17.293 10.779 17.293s-6.297 7.96-9.24 12.09c-3.018 4.237-8.622 13.007-8.622 13.007z" stroke="#55A" stroke-width="2" fill="#F55" stroke-linecap="round" stroke-linejoin="round"/><path d="M2 456.954l16.194-14.86-.2-23.18s-5.015-1.186-7.575-1.388c-2.798-.22-8.419.198-8.419.198v39.23z" fill="#000"/><path stroke="#55A" stroke-width="2" fill="#FF5" stroke-linecap="round" stroke-linejoin="round" d="M1 464.872l23.175-20.004v-25.559l-5.781-.792-.4 23.577L1 456.161z"/><path d="M1 417.526c5.117.198 11.001.49 16.422 1.373 6.07.988 12.11 2.36 17.918 4.373 5.868 2.033 11.456 4.832 16.946 7.727 3.846 2.028 7.443 4.49 11.164 6.736-2.458-5.35-4.192-11.09-7.376-16.048-3.905-6.08-8.436-12.003-14.155-16.445-5.854-4.547-12.897-7.544-19.937-9.906-5.063-1.7-10.452-2.274-15.75-2.972-1.734-.229-3.57-.264-5.232-.396v5.745c3.92.162 8.31.542 12.359 1.437 5.487 1.215 10.902 2.945 16 5.3 3.814 1.761 7.524 3.875 10.766 6.538 2.557 2.101 4.674 4.706 6.694 7.322 1.406 1.822 3.005 3.453 3.748 5.793-2.593-1.197-5.783-2.972-8.772-4.247-3.491-1.489-7.04-2.875-10.678-3.962-3.507-1.048-7.103-1.794-10.704-2.453a114.602 114.602 0 0 0-9.719-1.337c-3.221-.308-6.504-.259-9.694-.523v5.945z" stroke="#55A" stroke-width="2" fill="#FF5" stroke-linecap="round" stroke-linejoin="round"/><path d="M36.283 414.247c0-.824.672-1.491 1.5-1.491.829 0 1.5.667 1.5 1.49 0 .824-.671 1.491-1.5 1.491-.828 0-1.5-.667-1.5-1.49zM27.58 410.742a2.492 2.492 0 0 1 2.5-2.485c1.38 0 2.5 1.113 2.5 2.485a2.492 2.492 0 0 1-2.5 2.484c-1.38 0-2.5-1.112-2.5-2.484zM16.265 407.41c0-1.921 1.567-3.478 3.5-3.478s3.5 1.557 3.5 3.478c0 1.921-1.567 3.478-3.5 3.478s-3.5-1.557-3.5-3.478zM4.08 405.116c0-2.47 2.015-4.472 4.5-4.472s4.5 2.002 4.5 4.472c0 2.47-2.015 4.472-4.5 4.472s-4.5-2.002-4.5-4.472z" fill="#FF5"/><path stroke="#55A" stroke-width="2" fill="#FF5" stroke-linecap="round" stroke-linejoin="round" d="M24.116 395.628v-49.892l-5.48 1.757v46.203zM24.47 312.181l-4.774 1.933-2.298-.879.354-173.395-16.617-10.19L1 120.609l23.646 14.84z"/><path d="M36.844 322.897c3.889-5.036 8.3-9.713 11.667-15.108 3.528-5.653 6.437-11.71 8.839-17.92 2.463-6.366 4.392-12.97 5.657-19.675 1.177-6.243 1.846-12.622 1.767-18.973-.075-6.014-1.137-11.985-2.121-17.92-.921-5.553-1.925-11.118-3.536-16.513-1.4-4.692-3.29-9.237-5.303-13.703-1.896-4.207-4.242-8.199-6.364-12.298l-7.424 6.676c3.3 6.441 7.366 12.549 9.9 19.325 2.239 5.99 3.608 12.306 4.595 18.622 1.07 6.843 1.742 13.811 1.414 20.73-.275 5.808-1.477 11.558-2.828 17.216-1.454 6.091-3.19 12.16-5.657 17.92-2.21 5.16-5.06 10.051-8.132 14.756-2.013 3.086-4.478 5.856-6.717 8.784 1.178.937 2.793 1.505 3.535 2.811.878 1.543.472 3.514.708 5.27z" fill="#55A"/><path d="M34.399 352.99c1.475 1.128 4.951 2.256 6.427 3.384 3.52-4.062 7.072-8.095 10.558-12.185 2.293-2.69 4.604-5.364 6.812-8.123 2.572-3.214 5.125-6.45 7.492-9.815 2.166-3.078 4.239-6.226 6.13-9.477 1.857-3.189 3.495-6.5 5.11-9.816 1.682-3.454 3.345-6.924 4.768-10.492 1.547-3.881 3.049-7.802 4.087-11.846 1.166-4.548 1.837-9.216 2.384-13.877.65-5.543 1.077-11.128 1.063-16.708-.014-5.161-.525-10.314-1.063-15.447-.678-6.458-1.264-12.963-2.725-19.292-1.573-6.816-3.948-13.441-6.471-19.97a165.972 165.972 0 0 0-7.493-16.584c-1.749-3.37-3.86-6.544-5.79-9.816l-7.152 7.108c3.633 6.205 7.99 12.044 10.899 18.616 2.92 6.598 4.792 13.633 6.47 20.646 1.759 7.344 3.182 14.81 3.747 22.339.524 6.976.246 14.013-.34 20.984-.541 6.43-1.295 12.89-2.925 19.136-1.747 6.697-4.39 13.16-7.293 19.45-2.648 5.736-5.898 11.19-9.195 16.584-2.763 4.52-5.465 9.124-8.856 13.2-3.694 4.442-8.428 8.404-12.401 12.127-.909 3.61-3.335 6.263-4.243 9.873z" fill="#55A"/><path d="M60.311 369.068L34.23 352.554" stroke="#55A" stroke-width="2" stroke-linecap="round" stroke-linejoin="round"/><path d="M103.66 311.15l-53.463 51.456-9.633-7.42s10.5-10.682 15.172-16.513c5.715-7.132 11.045-14.613 15.653-22.497 2.237-3.826 3.99-7.916 5.78-11.967 2.087-4.72 5.78-14.36 5.78-14.36l20.711 21.3z" stroke="#55A" stroke-width="2" fill="#55A" stroke-linecap="round" stroke-linejoin="round"/><path d="M54.625 357.658c.946-.37 1.644-1.407 1.875-2.391.716-3.047-4.29-7.149-1.906-9.193 1.93-1.656 4.672 3.03 7.187 2.609 1.14-.19 2.27-1.104 2.688-2.174 1.11-2.839-3.842-7.274-1.344-9.037 2.032-1.435 4.18 2.962 6.625 3.447.705.14 1.578.247 2.147-.189.569-.436.686-1.303.728-2.016.205-3.512-5.175-8.088-2.406-10.28 2.321-1.837 5.075 3.384 8 3.882.698.12 1.558.2 2.112-.24.553-.44.661-1.292.7-1.996.214-3.871-5.705-8.955-2.625-11.335 2.858-2.208 6.1 4.272 9.657 4.938.71.133 1.594.228 2.158-.221.564-.45.62-1.33.685-2.046.507-5.507-7.327-14.033-2.312-16.429 4.004-1.913 4.885 8.412 9.156 9.628.91.259 2.271.098 2.75-.714.48-.813-.2-1.946-.719-2.734-3.566-5.415-9.127-10.09-15.343-12.018-.703-.218-1.616-.304-2.203.137-.587.44-.704 1.337-.735 2.068-.243 5.762 8.937 13.135 4.406 16.739-2.782 2.213-6.003-4.192-9.5-4.876-.705-.138-1.578-.247-2.147.189-.569.436-.686 1.303-.728 2.016-.23 3.926 5.785 9.044 2.688 11.49-2.334 1.845-5.097-3.39-8.031-3.912-.706-.126-1.577-.225-2.14.217-.561.442-.667 1.308-.704 2.019-.183 3.46 5.129 7.999 2.375 10.124-1.855 1.431-3.952-2.753-6.25-3.23-.682-.141-1.517-.26-2.085.14-.568.401-.732 1.223-.821 1.91-.418 3.217 3.968 7.578 1.437 9.627-2.046 1.657-4.842-3.178-7.437-2.702-1.14.21-2.254 1.176-2.625 2.267-1.013 2.973 4.293 7.168 1.906 9.224-2.326 2.003-5.611-3.182-8.688-3.106-.985.025-2.395.21-2.728 1.132-.332.921.64 1.953 1.385 2.595 3.22 2.778 7.902 3.258 12.03 4.317.256.065.537.22.782.124z" fill="#FFF"/><path stroke="#55A" stroke-width="2" fill="#F55" stroke-linecap="round" stroke-linejoin="round" d="M164.23 317.503l-5.212 5.057-1.928-7.47 5.694-6.03zM174.647 321.452l-6.54 4.707-1.493-7.259 6.105-6.25z"/><path d="M180.5 236.882l-62 5.466s-3.048-5.308-4.836-7.788c-2.183-3.026-4.5-5.991-7.164-8.61-2.52-2.476-5.338-4.66-8.268-6.64-2.552-1.726-5.374-3.02-8.06-4.533C88.114 213.62 84 211.3 84 211.3s2.867 10.85 3.755 16.38c.803 4.995 1.115 10.06 1.414 15.109.278 4.678.547 9.372.354 14.054-.271 6.591-.898 13.193-2.121 19.676-.833 4.412-3.536 13-3.536 13l19.86 21.142 76.774-73.778z" stroke="#000" stroke-width="2" fill="#000" stroke-linecap="round" stroke-linejoin="round"/><path fill="#FF5" d="M109.906 303.528l4.063-3.975-8.438-.062 1.563-1.46h.625l7.78-.155 3.938-3.975-8 .093 2.313-2.143 6.719.807 4.5-3.944-7.438-.403 1.344-1.274 7.5-.217 3.875-3.975-6.969.093 1.25-1.18h6.875l4.031-3.975h-6.625l2.125-1.988 5.657.621 4.437-3.944-9.375-.59-.361-13.611-4 3.944.361 11.189-2.094 1.987-.156-11.335-4 4.037.219 10.963-1.875 1.739-.344-11.429-4 4.162.5 10.87-1.531 1.428-.344-10.807-4 4.161.5 10.217-1.187 1.118-.407-9.875-4 4.223.625 9.193-2.5 2.329-.281-10.497-3.969 4.13.438 11.46.062 1.895 1.907.03zM95.984 288.126l4.062-3.975-8.437-.062 1.562-1.46h.625l7.782-.155 3.937-3.975-8 .093 2.313-2.143 6.718.808 4.5-3.944-7.437-.404 1.344-1.273 7.5-.218 3.875-3.975-6.97.093 1.25-1.18h6.876l4.031-3.975h-6.625l2.125-1.988 5.656.621 4.438-3.944-9.375-.59-.467-13.295-4 3.944.467 10.873-2.094 1.988-.156-11.336-4 4.037.219 10.963-1.875 1.74-.344-11.43-4 4.162.5 10.87-1.531 1.428-.344-10.807-4 4.161.5 10.218-1.188 1.118-.406-9.876-4 4.224.625 9.192-2.5 2.33-.281-10.498-1.428 7.814-2.103 7.777.062 1.894 1.906.031zM92.351 263.355l4.5-3.944-5.955-.404.39-1.483 6.971-.007 3.875-3.975-6.968.093 1.25-1.18h6.875l4.03-3.976h-6.624l2.125-1.987 5.656.621 4.438-3.944-9.375-.59-.467-13.295-4 3.944.467 10.873-2.094 1.987-.156-11.335-4 4.037.218 10.963-1.875 1.739-.343-11.429-1.036 2.268.077 11.606-.472 9.076zM6.313 445.515c.554.012 1.041-.425 1.468-.776 2.922-2.405 5.795-5.29 7.125-8.82.274-.728.302-1.58.094-2.33-.978-3.517-3.023-7.068-6.031-9.16-.791-.551-2.012-1.183-2.82-.658-.808.526-.714 1.89-.524 2.831.63 3.116 5.405 4.807 5.25 7.982-.16 3.273-4.913 4.648-6.188 7.67-.281.668-.581 1.509-.258 2.158.324.649 1.155 1.087 1.883 1.103zM13.281 390.112c.94-.596 1.464-1.907 1.406-3.013-.237-4.585-7.483-7.257-7.093-11.832.314-3.688 5.896-5 7.25-8.447.3-.763.334-1.671.093-2.454-1.108-3.614-3.478-7.183-6.718-9.161-.805-.492-2.031-1-2.797-.45-.766.548-.673 1.866-.453 2.779.765 3.178 5.935 4.654 5.812 7.92-.137 3.64-5.699 4.967-7.125 8.322a3.844 3.844 0 0 0-.219 2.298c1.118 4.937 4.073 9.61 7.813 13.044.554.509 1.296.823 2.031.994zM9.063 311.478c.668-.18 1.464-.437 1.793-1.043.33-.606.109-1.408-.106-2.063-.75-2.282-3.877-3.626-3.969-6.024-.18-4.714 5.613-7.845 6.875-12.392.161-.579.185-1.213.063-1.801-.931-4.485-6.21-7.853-5.906-12.422.291-4.378 5.807-6.889 7.187-11.056.209-.63.261-1.338.125-1.988-1.152-5.488-7.722-9.362-7.719-14.969.003-5.074 5.757-8.619 7-13.54a3.905 3.905 0 0 0 .031-1.77c-1.155-5.271-7.226-9.206-7.03-14.597.168-4.656 5.73-7.648 6.968-12.142.168-.61.175-1.28.031-1.895-1.154-4.928-7.047-8.45-6.969-13.51.074-4.753 5.705-7.89 6.938-12.484.161-.6.176-1.259.031-1.863-1.145-4.789-7.143-8.158-6.906-13.075.197-4.1 5.406-6.438 6.781-10.31.21-.589.278-1.246.188-1.863-.495-3.387-1.547-7.012-3.907-9.504-.677-.715-1.756-1.647-2.671-1.277-.916.37-1.034 1.786-1.016 2.768.057 3.073 3.798 5.48 3.5 8.54-.403 4.139-5.587 6.48-6.875 10.435a3.894 3.894 0 0 0-.094 2.019c1.079 4.837 6.996 8.213 6.938 13.168-.056 4.744-5.705 7.869-6.938 12.453a3.877 3.877 0 0 0-.031 1.863c1.154 4.93 7.075 8.45 6.969 13.51-.098 4.64-5.64 7.645-6.907 12.111a3.89 3.89 0 0 0-.062 1.833c1.106 5.286 7.078 9.229 7 14.627-.074 5.092-5.8 8.652-7 13.603a3.872 3.872 0 0 0 0 1.8c1.313 5.406 7.936 9.292 7.656 14.846-.22 4.382-5.803 6.89-7.187 11.055a3.88 3.88 0 0 0-.125 1.926c.868 4.521 6.08 7.884 5.937 12.484-.148 4.761-5.814 7.886-6.937 12.516a3.885 3.885 0 0 0 .062 2.05c.845 2.676 2.568 5.129 4.625 7.05a3.938 3.938 0 0 0 1.656.931z"/><path d="M218.5 269.428c-3.167-1.242-6.55-2.038-9.5-3.726-3.959-2.266-7.382-5.38-10.75-8.448a80.464 80.464 0 0 1-8.25-8.695c-2.862-3.52-5.167-7.454-7.75-11.18" stroke="#000" stroke-width="2" stroke-linecap="round" stroke-linejoin="round"/></g><path d="M151 224.956s3 5.135 6.5 8.447c3.5 3.313 8.5 6.46 8.5 6.46s-5 3.313-8.5 6.625c-3.5 3.313-6.5 8.282-6.5 8.282s-3-4.97-6.5-8.282c-3.5-3.312-8.5-6.46-8.5-6.46s5-3.478 8.5-6.79c3.5-3.313 6.5-8.282 6.5-8.282" fill="#FF5"/><path d="M151 229.925s2 3.423 4.333 5.632c2.334 2.208 5.667 4.306 5.667 4.306s-3.333 2.208-5.667 4.417C153 246.488 151 249.8 151 249.8s-2-3.312-4.333-5.52c-2.334-2.209-5.667-4.307-5.667-4.307s3.333-2.318 5.667-4.527c2.333-2.208 4.333-5.52 4.333-5.52" fill="#F55"/></g></svg>