<svg width="302" height="482" xmlns="http://www.w3.org/2000/svg"><g fill="none" fill-rule="evenodd"><g stroke="#55A" stroke-linecap="round" stroke-linejoin="round" stroke-width="2"><path d="M1 316.742l48.981 30.917M1 309.375l52.69 33.748M1 302.009l52.036 33.312M1 294.643l36.763 23.732M1 287.276l28.254 18.29M1 279.91l23.454 15.458M1 272.543l19.309 11.975M3.727 266.665l13.527 9.144M8.963 262.963l7.855 5.444"/></g><path d="M101.175 118.13c-5.805 3.452-11.672 6.802-17.415 10.357-9.192 5.69-18.364 11.425-27.267 17.555-6.834 4.706-13.607 9.523-20.054 14.746-6.938 5.622-13.443 11.76-20 17.821-5.235 4.84-10.293 9.867-15.439 14.8v74.813c4.718-2.926 8.713-5.274 13.431-8.2 1.349 6.67 2.217 13.583 4.19 20.156 2.229 7.418 5.078 14.687 8.59 21.593 2.882 5.67 6.403 11.022 10.17 16.15 2.776 3.777 6.033 7.178 9.117 10.708 3.53 4.041 6.873 8.184 10.743 11.988l52.906-69.937 7.564-.176 9.851-20.539 16.494.145-.47-18.396-16.288-.113-.264-20.783 18.966.107c-1.935-8.31-3.922-17.306-6.652-25.736-2.575-7.952-5.444-15.853-9.147-23.348-4.363-8.83-9.806-17.105-15.305-25.279-4.274-6.355-9.147-12.288-13.72-18.432z" fill="#000"/><path d="M164.683 31.825s10.71 1.179 16.046 1.921c4.72.657 9.435 1.377 14.121 2.242 6.881 1.27 20.54 4.324 20.54 4.324s1.11 9.083 1.765 13.611a569.039 569.039 0 0 0 2.407 15.052c.7 4.066 1.017 8.233 2.247 12.17 1.204 3.855 2.44 7.902 4.974 11.05 1.628 2.022 6.258 4.644 6.258 4.644s1.698-2.309 2.889-3.043c1.569-.967 3.451-1.573 5.295-1.601 2.05-.031 4.09.714 5.937 1.601 1.794.86 3.61 1.942 4.814 3.523 1.28 1.681 2.018 3.826 2.247 5.925.24 2.199-.234 4.477-.963 6.565-.772 2.214-1.872 4.425-3.53 6.085-1.574 1.576-3.668 2.642-5.777 3.363-2.297.786-4.793.996-7.22.96a23.714 23.714 0 0 1-6.9-1.12 31.055 31.055 0 0 1-8.345-4.163c-1.822-1.287-3.334-2.978-4.814-4.644-1.47-1.654-4.012-5.285-4.012-5.285l-64.026.32s7.849-5.595 11.072-9.127c3.267-3.58 6.118-7.63 8.184-12.01 2.206-4.677 3.539-9.784 4.333-14.892.648-4.169.695-8.45.32-12.65-.352-3.963-1.236-7.888-2.406-11.69-1.394-4.53-5.456-13.131-5.456-13.131z" fill="#FF5"/><path fill="#000" d="M111.451 113.326l6.767-2.754 98.579 1.66 4.172 3.44-10.159 12.49h-96.323l-3.628-5.973-4.7-6.257z"/><path fill="#F55" d="M301 26.31l-.5 122.245L282 136.58l-1-97.615z"/><path d="M80.47 1.361L109 37.287s10.763-2.843 16.244-3.775c6.724-1.142 13.522-2.061 20.341-2.213 10.702-.238 21.425.736 32.048 2.052 12.62 1.564 37.514 6.93 37.514 6.93l27.94-38.92H80.47z" stroke="#55A" stroke-width="2" fill="#F55" stroke-linecap="round" stroke-linejoin="round"/><path d="M96.565 2.84l17.582 26.266c7.041-2.248 11.53-2.97 20.506-3.895l-4.488-22.37h-6.217l5.556 18.842c-5.566.741-7.465.842-12.679 2.294L103.71 2.84h-7.144zM139.822 2.84l4.326 21.661c10.935-.933 19.395-.595 30.33.605l5.239-22.265h-7.011l-3.717 17.6c-8.592-1.085-12.713-.877-19.927-.4l-2.925-17.2h-6.315zM190.353 2.84l-7.322 23.564c7.982.61 18.22 3.964 26.905 5.867l15.658-29.43h-6.879l-11.78 24.523c-4.85-1.216-12.525-3.621-17.375-4.239l6.746-20.284h-5.953z" stroke="#FFF" stroke-width="2" fill="#FFF" stroke-linecap="round" stroke-linejoin="round"/><path d="M165.342 32.82c2.05 5.865 5.044 11.481 6.15 17.594 1.118 6.175 1.192 12.594.41 18.82-.634 5.057-2.058 10.06-4.1 14.73-1.668 3.817-3.833 7.487-6.56 10.638-3.614 4.177-7.99 7.764-12.71 10.638-2.828 1.722-5.989 2.895-9.163 3.843-3.166.945-6.446 1.662-9.748 1.804-3.867.167-8.421 1.142-11.56-1.121-1.019-.736-1.333-2.204-1.524-3.445-.185-1.195.389-2.396.401-3.605.01-.885.018-1.797-.24-2.643-.277-.903-.702-1.81-1.365-2.484-.605-.614-1.903-.492-2.248-1.281-.33-.754-.051-1.854.562-2.404.983-.88 2.62-.347 3.933-.48 1.336-.135 2.684-.502 4.014-.32 1.694.23 3.147 1.203 4.816 1.762.117-.714-1.328-2.182-1.926-2.964-.678.546-2.021.5-3.05.64-1.223.168-2.464.14-3.693.241-1.072.088-2.135.326-3.211.32-.97-.005-2.095.233-2.89-.32-.49-.342-.79-1.005-.803-1.602-.012-.526.411-.97.642-1.442.4-.816 1.108-1.513 1.285-2.403.313-1.58.265-3.38-.482-4.807-.685-1.31-2.066-2.187-3.371-2.884-1.569-.837-3.479-.801-5.138-1.442-1.116-.43-2.707-.518-3.21-1.602-.858-1.844.726-4.024 1.444-5.928 1.425-3.778 3.91-7.075 5.62-10.734 1.246-2.67 2.695-5.304 3.37-8.17.345-1.46.58-3.01.322-4.487-.34-1.955-1.936-3.52-2.408-5.447-.395-1.612-.214-3.311-.321-4.967" stroke="#55A" stroke-width="2" stroke-linecap="round" stroke-linejoin="round"/><path d="M145.387 52.857c-4.516-3.508-8.613-6.16-13.403-8.339-3.098-1.41-6.338-2.962-9.766-2.993-2.152-.02-6.19.953-6.203 1.768-.006.41.808.62 1.298.73 2.273.513 4.685-.69 7.009-.446 2.82.297 5.535 1.235 8.15 2.295 4.537 1.84 9.291 4.22 12.915 6.985z" stroke="#55A" stroke-width="2" fill="#55A" stroke-linecap="round" stroke-linejoin="round"/><path d="M116.5 50.509c1 .416 1.986.551 3 .519 1.456-.046 2.797-.913 4.25-1.018 2.754-.2 5.573.073 8.25.749 2.461.62 4.777 1.77 7 2.993 1.417.78 2.667 1.83 4 2.745M118.733 53.309c1.314.291 2.6.764 3.942.874 1.749.143 3.508-.453 5.255-.291 2.245.206 4.526.653 6.57 1.602 2.841 1.32 5.06 3.69 7.59 5.536" stroke="#55A" stroke-width="2" stroke-linecap="round" stroke-linejoin="round"/><path d="M119.901 54.911c.098 1.166-.225 2.447.292 3.497.669 1.357 2 2.387 3.358 3.059 1.462.723 3.186.938 4.817.874 1.71-.068 3.382-.66 4.964-1.311.987-.407 1.766-1.246 2.773-1.603.882-.312 1.85-.291 2.774-.437" stroke="#55A" stroke-width="2" stroke-linecap="round" stroke-linejoin="round"/><path d="M127.638 54.911c.292 1.069.919 2.099.876 3.205a3.692 3.692 0 0 1-.73 2.04c-.504.666-1.362.97-2.043 1.456" stroke="#55A" stroke-width="2" stroke-linecap="round" stroke-linejoin="round"/><path d="M123.405 59.136c.791.039 1.53-.961 1.606-1.748.07-.738-.429-1.822-1.168-1.894-.857-.083-1.708 1.036-1.752 1.894-.037.727.585 1.712 1.314 1.748z" stroke="#55A" stroke-width="2" fill="#55A" stroke-linecap="round" stroke-linejoin="round"/><path d="M120.193 61.321c1.314 1.214 2.52 2.557 3.942 3.642 1.094.835 2.254 1.607 3.503 2.185 1.16.536 2.433.777 3.65 1.166" stroke="#55A" stroke-width="2" stroke-linecap="round" stroke-linejoin="round"/><path d="M121.799 71.519c.584.874 1.545 1.592 1.752 2.622.204 1.018-.092 2.15-.597 3.059-.46.825-1.182 1.627-2.078 1.928-.928.312-1.999.03-2.924-.291-1.127-.392-1.95-1.389-3.014-1.928-.838-.425-1.693-.92-2.628-1.02-.588-.063-1.16.285-1.752.278-.533-.006-1.164.053-1.575-.287-.36-.297-.716-.886-.507-1.302.32-.637 1.352-.608 2.065-.57 1.312.07 2.513.817 3.667 1.444 1.103.599 1.938 1.634 3.066 2.185.86.421 1.815 1.008 2.756.823 1.112-.219 2.07-1.159 2.645-2.134.383-.651.493-1.485.386-2.232-.135-.946-.97-1.653-1.262-2.575zM134.061 78.802c1.8.68 3.826 1.22 5.209 2.265 1.082.817 1.391 2.42 1.215 3.708-.214 1.561-1.337 3.026-2.628 3.934-1.148.807-2.684.97-4.087 1.02-1.68.058-3.34-.446-4.964-.875-1.398-.37-2.691-1.078-4.087-1.457-1.004-.272-2.026-.617-3.066-.582-1.156.038-2.241 1.176-3.358.874-.73-.198-1.574-.848-1.605-1.603-.035-.826.873-1.507 1.605-1.893 1.255-.661 2.833-.66 4.234-.437 1.42.225 2.633 1.153 3.941 1.748 1.466.666 2.827 1.613 4.38 2.04 1.415.387 2.935.695 4.38.436 1.296-.232 2.761-.68 3.55-1.733.752-1.003.979-2.502.631-3.706-.278-.965-1.199-1.655-2.011-2.248-.984-.718-2.365-.908-3.339-1.49z" stroke="#55A" stroke-width="2" fill="#55A" stroke-linecap="round" stroke-linejoin="round"/><path stroke="#55A" stroke-width="2" fill="#FF5" stroke-linecap="round" stroke-linejoin="round" d="M258.5 122.609l42.5 27.443v9.48l-47.5-31.435zM255.5 21.32c-3.833 6.32-8.34 11.473-10.616 18.078-1.956 5.675-2.65 11.851-2.384 17.847.303 6.812 1.709 13.734 4.5 19.958 2.343 5.224 6.667 9.314 10 13.971 1.5-4.823 2.166-9.989 4.5-14.47 2.137-4.102 5.176-7.755 8.5-10.977 1.626-1.576 3.667-2.66 5.5-3.991l-1-14.47c-3-1.83-6.388-3.14-9-5.489a29.337 29.337 0 0 1-6.5-8.482c-1.88-3.71-2.333-7.983-3.5-11.975z"/><path d="M255.737 21.552s-4.125 11.655-4.237 17.73c-.062 3.392 2 9.98 2 9.98L243 56.247l10.5 7.983s-1.863 7.636-1.5 11.477c.525 5.548 5.237 15.88 5.237 15.88s1.67-10.365 3.97-14.998c1.721-3.467 4.53-6.303 7.147-9.158 2.045-2.233 6.646-6.194 6.646-6.194V45.769s-7.58-2.831-10.5-5.489c-2.493-2.27-4.06-5.436-5.5-8.482-1.533-3.24-3.263-10.246-3.263-10.246zM244.75 56.342l30.25-.22M253.5 49.636l20.5-.374M252.138 42.027h14.996M252.573 34.5l7.625-.125M253.125 63.731l19.134-.3M253 71.34l11.362-.3M253.625 77.827l6.655-.021" stroke="#55A" stroke-width="2" fill="#FF5" stroke-linecap="round" stroke-linejoin="round"/><path stroke="#55A" stroke-width="2" fill="#FF5" stroke-linecap="round" stroke-linejoin="round" d="M301 17.328l-26 17.464v98.295l6 3.692V39.282l20-12.973z"/><path d="M213.813 108.359l3.207 3.855-88.506-.128s4.297-.473 6.414-.896c1.82-.364 3.616-.854 5.387-1.408 1.304-.408 3.848-1.408 3.848-1.408l69.65-.015zM114.301 128.162l96.872-.362-3.81 4.707-89.61.362zM138.25 114.224v11.585l12.699.181-.182-11.766zM167.275 114.586l-.182 11.404h13.06l-.18-11.585zM195.391 114.586v11.223h11.791l-.18-11.585zM109.693 114.224h13.501l-.181 11.766-9.796.362s-1.762-2.93-2.72-4.344c-1.389-2.048-4.386-5.99-4.386-5.99l3.582-1.794z" fill="#FF5"/><path d="M119.943 120.1a2.997 2.997 0 0 1-3 2.994c-1.657 0-3-1.34-3-2.994a2.997 2.997 0 0 1 3-2.994c1.657 0 3 1.34 3 2.994zM147.697 120.01a2.997 2.997 0 0 1-3 2.993c-1.657 0-3-1.34-3-2.994a2.997 2.997 0 0 1 3-2.993c1.657 0 3 1.34 3 2.993zM176.358 120.19a2.997 2.997 0 0 1-3 2.994c-1.657 0-3-1.34-3-2.993a2.997 2.997 0 0 1 3-2.994c1.657 0 3 1.34 3 2.994zM204.475 119.647a2.997 2.997 0 0 1-3 2.994c-1.657 0-3-1.34-3-2.994a2.997 2.997 0 0 1 3-2.993c1.657 0 3 1.34 3 2.993z" stroke="#000" stroke-width="2" fill="#FF5"/><path d="M134.548 120.506a3.496 3.496 0 0 1-3.5 3.493 3.496 3.496 0 0 1-3.5-3.493 3.496 3.496 0 0 1 3.5-3.493c1.933 0 3.5 1.564 3.5 3.493zM162.612 120.197a3.496 3.496 0 0 1-3.5 3.493 3.496 3.496 0 0 1-3.5-3.493 3.496 3.496 0 0 1 3.5-3.492c1.933 0 3.5 1.563 3.5 3.492zM191.636 120.378a3.496 3.496 0 0 1-3.5 3.493 3.496 3.496 0 0 1-3.5-3.493 3.496 3.496 0 0 1 3.5-3.492c1.933 0 3.5 1.563 3.5 3.492zM217.757 119.654l-3.681 4.217c-1.27 1.455-2.775-1.383-2.775-3.312a3.496 3.496 0 0 1 3.5-3.492c1.933 0 4.226 1.133 2.956 2.587z" fill="#FF5"/><path d="M118.493 132.932l89.106-.378-55.739 78.326s-3.38-15.67-5.877-23.27c-2.87-8.736-6.468-17.241-10.427-25.542-2.881-6.04-6.25-11.841-9.67-17.595-2.333-3.927-7.393-11.54-7.393-11.54z" fill="#55A"/><path d="M137.726 143.244l46.749-.165-28.748 38.784s-2.274-8-3.72-11.896a115.607 115.607 0 0 0-4.833-11.183c-1.62-3.262-3.456-6.418-5.373-9.516-1.277-2.06-4.075-6.024-4.075-6.024z" fill="#FFF"/><path d="M101.056 118.294c4.045 5.235 9.738 11.96 14.03 18.352a231.119 231.119 0 0 1 14.408 24.595c3.684 7.29 7.05 14.779 9.67 22.514 2.898 8.564 4.36 17.28 6.635 26.298 1.517.126 4.17.063 5.687.189-.758-3.595-1.596-6.823-2.464-10.216-1.62-6.33-2.971-12.75-5.119-18.92-2.369-6.805-5.418-13.365-8.531-19.865-3.146-6.567-6.458-13.073-10.238-19.298-3.062-5.041-6.594-9.785-10.048-14.567-2.946-4.078-6.636-8.635-9.1-12.04-1.201.757-3.729 2.202-4.93 2.958z" stroke="#000" stroke-width="2" fill="#FF5" stroke-linecap="round" stroke-linejoin="round"/><path d="M144.839 146.667l31.68-.11-19.481 25.856s-1.541-5.334-2.521-7.93a76.422 76.422 0 0 0-3.275-7.456c-1.098-2.175-2.342-4.279-3.642-6.344-.865-1.374-2.761-4.016-2.761-4.016z" fill="#55A"/><path fill="#000" d="M225.912 118.144l5.657 1.41 7.955.177 6.01-1.587 4.066-2.647 9.9 6.114-67.297 89.5-33.643-.53z"/><path d="M242.031 121.237c-.847-.03-1.454.995-1.844 1.746-1.512 2.92.803 7.323-1.406 9.761-4.463 4.926-13.711 1.316-19.375 4.802a3.904 3.904 0 0 0-1.5 1.747c-3.214 7.47 2.996 18.26-2.5 24.262-4.037 4.41-12.406.504-17.625 3.43-.7.393-1.3 1.044-1.625 1.778-3.115 7.027 2.81 17.079-2.156 22.952-3.52 4.163-10.986 1.699-15.813 4.241-.51.268-.97.66-1.312 1.123-1.94 2.634-3.761 5.745-3.875 9.012-.034.976.07 2.376.967 2.766.897.39 1.998-.484 2.69-1.175 2.084-2.087 1.296-6.182 3.53-8.109 4.23-3.645 11.464-1.385 16.188-4.365a3.864 3.864 0 0 0 1.469-1.716c2.99-7.047-2.993-17.186 2.156-22.858 4.018-4.427 12.394-.528 17.625-3.43a3.895 3.895 0 0 0 1.625-1.747c3.377-7.444-2.869-18.217 2.5-24.387 4.348-4.997 13.62-1.375 19.313-4.77a3.9 3.9 0 0 0 1.5-1.654c1.592-3.383 2.702-7.53 1.593-11.102-.31-.998-1.079-2.272-2.125-2.307z" fill="#FF5"/><path d="M233.478 127.67a3.496 3.496 0 0 1-3.5 3.492 3.496 3.496 0 0 1-3.5-3.492 3.496 3.496 0 0 1 3.5-3.493c1.933 0 3.5 1.564 3.5 3.493zM231.533 147.604a3.496 3.496 0 0 1-3.5 3.493 3.496 3.496 0 0 1-3.5-3.493 3.496 3.496 0 0 1 3.5-3.493c1.933 0 3.5 1.564 3.5 3.493zM211.027 156.424a3.496 3.496 0 0 1-3.5 3.493 3.496 3.496 0 0 1-3.5-3.493 3.496 3.496 0 0 1 3.5-3.492c1.933 0 3.5 1.563 3.5 3.492zM210.143 177.593a3.496 3.496 0 0 1-3.5 3.493 3.496 3.496 0 0 1-3.5-3.493 3.496 3.496 0 0 1 3.5-3.492c1.933 0 3.5 1.563 3.5 3.492zM189.46 185.885a3.496 3.496 0 0 1-3.5 3.492 3.496 3.496 0 0 1-3.5-3.492 3.496 3.496 0 0 1 3.5-3.493c1.933 0 3.5 1.564 3.5 3.493zM190.344 205.466a3.496 3.496 0 0 1-3.5 3.493 3.496 3.496 0 0 1-3.5-3.493 3.496 3.496 0 0 1 3.5-3.493c1.933 0 3.5 1.564 3.5 3.493z" fill="#FF5"/><path stroke="#000" stroke-width="2" fill="#F55" stroke-linecap="round" stroke-linejoin="round" d="M220.496 114.7l-69.2 95.731h7.584l66.924-92.515z"/><g stroke="#55A" stroke-linecap="round" stroke-linejoin="round" stroke-width="2"><path d="M215.158 40.594c1.485 7.553 2.487 15.188 3.783 22.773 1.074 6.283 1.281 12.79 3.31 18.834 1.259 3.752 2.939 7.478 5.416 10.568 1.332 1.661 3.233 2.774 4.916 4.083"/><path d="M208.393 39.776c1.589 9.408 2.948 18.137 4.632 27.168 1.094 5.864 1.532 11.925 3.554 17.538 2.162 6 4.53 12.35 9.034 16.871 3.14 3.152 7.294 6.298 11.748 6.353 1.794.023 4.53-.67 4.794-2.44.22-1.47-2.114-2.777-3.217-3.095"/><path d="M201.218 37.934c2.201 7.141 3.21 14.555 4.51 21.89 1.385 7.816 1.184 15.962 3.503 23.554 2.27 7.426 4.814 15.272 10.036 21.027 4.076 4.493 9.54 8.919 15.594 9.406 4.3.346 9.91-1.061 12.006-4.825 1.824-3.275 1.44-9.455-1.946-11.07-2.268-1.082-7.965-1.566-6.598 3.642"/><path d="M194.658 37.116c2.036 5.823 2.688 11.988 3.966 17.996 2.681 12.613 3.145 25.856 7.764 37.898 2.315 6.035 5.439 11.965 9.812 16.73 3.635 3.961 7.907 8.182 13.164 9.326 6.78 1.477 15.66 1.132 20.454-3.877 4.094-4.276 5.912-12.719 2.514-17.564-3.363-4.796-12.427-6.998-17.217-3.621-3.093 2.18-2.84 7.7-1.507 11.236.416 1.102 1.78 1.706 2.665 2.322M187.893 35.684c1.825 5.588 3.171 11.322 4.329 17.08 2.194 10.916 1.93 22.314 4.943 33.034 1.843 6.557 5.026 13.198 7.948 18.828M180.308 34.252c1.82 5.238 3.208 10.628 4.332 16.056 1.907 9.213 2.698 18.495 4.073 27.93 1.351 9.273 5.415 18.29 9.84 26.344M172.312 33.434c2.2 4.82 3.928 9.848 5.233 14.97 2.977 11.677 3.153 23.93 5.861 35.672 1.056 4.574 2.266 9.143 4.036 13.492 1.085 2.667 2.787 5.394 4.007 7.654M172.035 53.687c1.063 6.985 1.836 14.062 3.168 21.022 1.248 6.526 2.555 13.066 4.514 19.415 1.108 3.588 2.86 6.945 4.076 10.502M169.647 79.873c.964 5.355 1.883 10.748 3.408 15.975.896 3.069 2.192 6.006 3.358 8.983M164.727 90.715c.684 4.954 1.997 9.863 4.305 14.32M160.012 96.852c.571 2.747 1.197 5.549 2.665 7.979M154.628 101.656c.418 1.251.521 2.63 1.507 3.7"/></g><path fill="#000" d="M150.742 105.066l60.556-.153 2.565 3.528-69.748-.009z"/><g stroke="#55A" stroke-linecap="round" stroke-linejoin="round" stroke-width="2"><path d="M281 47.711l20-12.973M281 55.737l20-12.973M281 63.763l20-12.973M281 71.789l20-12.973M281 79.815l20-12.973M281 87.84l20-12.972M281 95.867l20-12.973M281 103.892l20-12.973M281 111.918l20-12.973M281 119.944l20-12.973M281 127.97l20-12.973M281 135.996l20-12.973M287 140.03l14-8.981M293 144.064l8-4.99"/></g><path d="M95.219 124.511c-.936.03-1.572 1.186-1.906 2.058-1.134 2.963-.765 6.477.156 9.512.2.662.609 1.284 1.125 1.746 5.269 4.72 15.177 3.532 19 9.48 4.05 6.304-1.21 15.225.75 22.454.154.57.452 1.115.844 1.559 3.964 4.496 12.35 4.936 14.624 10.478 2.212 5.388-2.905 11.392-2.968 17.214-.005.42.058.847.187 1.248.875 2.713 1.752 5.738 3.906 7.609.726.63 1.868 1.382 2.726.947.857-.435.923-1.8.837-2.756-.234-2.616-3.2-4.42-3.594-7.017-.902-5.946 3.754-11.797 3.094-17.775a3.915 3.915 0 0 0-.813-1.965c-3.789-4.777-11.999-5.29-14.875-10.665-3.563-6.661 1.532-15.441-.75-22.64a3.93 3.93 0 0 0-1.124-1.716c-5.29-4.698-15.233-3.497-19-9.48-1.475-2.341.983-5.76-.126-8.295-.386-.883-1.129-2.026-2.093-1.996z" fill="#FF5"/><path d="M106.962 131.175a3.496 3.496 0 0 1-3.5 3.492 3.496 3.496 0 0 1-3.5-3.492 3.496 3.496 0 0 1 3.5-3.493c1.933 0 3.5 1.564 3.5 3.493zM111.385 151.477a3.496 3.496 0 0 1-3.5 3.493 3.496 3.496 0 0 1-3.5-3.493 3.496 3.496 0 0 1 3.5-3.493c1.933 0 3.5 1.564 3.5 3.493zM127.97 164.056a3.496 3.496 0 0 1-3.5 3.492 3.496 3.496 0 0 1-3.5-3.492 3.496 3.496 0 0 1 3.5-3.493c1.933 0 3.5 1.564 3.5 3.493zM127.307 185.24a3.496 3.496 0 0 1-3.5 3.494 3.496 3.496 0 0 1-3.5-3.493 3.496 3.496 0 0 1 3.5-3.493c1.933 0 3.5 1.564 3.5 3.493zM141.46 199.144a3.496 3.496 0 0 1-3.5 3.492 3.496 3.496 0 0 1-3.5-3.492 3.496 3.496 0 0 1 3.5-3.493c1.933 0 3.5 1.564 3.5 3.493zM84.38 128.57l-3.331 2.022s9.276 11.826 12.795 16.934c3.107 4.511 5.908 9.285 8.531 14.158 3.572 6.636 6.71 13.561 9.813 20.52 2.388 5.356 6.812 16.465 6.812 16.465l3.719-1.466s-4.43-11.07-6.906-16.621c-3.11-6.973-6.28-13.973-9.938-20.77-2.665-4.95-5.496-9.853-8.719-14.532-3.798-5.514-12.777-16.71-12.777-16.71zM79.875 135.096c-3.12 2.245-6.092 4.075-9.594 6.892-1.51 1.215-1.866 3.08-1.812 4.74.054 1.66.512 3.298.906 4.584.708 2.31 2.2 4.55 4.469 5.8 1.108.611 2.433 1.143 3.844 1.341 1.41.198 2.968.09 4.28-.81a218.553 218.553 0 0 1 9.532-6.206l-1.563-2.558c-3.27 2.003-6.388 4.06-9.656 6.3-.453.31-1.21.445-2.156.312-.947-.133-2.03-.55-2.844-.998-1.367-.754-2.555-2.4-3.062-4.054-.362-1.18-.712-2.624-.75-3.805-.039-1.18.217-1.935.719-2.339 3.352-2.697 6.218-4.451 9.437-6.767l-1.75-2.432zM93.719 154.96c-3.099 1.73-6.46 3.074-9.75 5.427-1.305.933-1.957 2.358-2.281 3.742-.325 1.384-.32 2.818-.188 4.054.276 2.597 1.607 5.117 3.688 6.767 1.086.862 2.477 1.722 4 2.245 1.522.524 3.298.772 4.843-.187 2.927-1.816 5.716-3.056 9.125-5.02l-1.5-2.589c-3.27 1.884-6.097 3.146-9.219 5.083-.38.237-1.202.247-2.28-.124-1.08-.372-2.282-1.078-3.126-1.747-1.352-1.072-2.377-3.027-2.562-4.771-.103-.97-.094-2.09.125-3.025s.61-1.597 1.125-1.965c2.943-2.105 6.166-3.426 9.469-5.27l-1.47-2.62zM105.469 175.23c-3.716 1.78-5.71 2.9-10.313 6.082-1.289.89-1.924 2.297-2.25 3.648a11.388 11.388 0 0 0-.219 3.93c.334 2.917 1.785 6.023 4.438 7.734 1.117.72 2.43 1.418 3.969 1.684 1.51.26 3.238-.006 4.844-.998l.03.03 8.407-4.802-1.5-2.588-8.375 4.771-.063.031c-1.022.653-1.878.754-2.812.593-.934-.161-1.94-.645-2.875-1.247-1.617-1.043-2.82-3.397-3.063-5.52-.104-.917-.092-2.03.125-2.932.218-.901.603-1.553 1.063-1.87 4.545-3.142 6.25-4.081 9.906-5.832l-1.312-2.713z" fill="#FF5"/><path d="M120.313 193.898s-10.759 6.22-16 10.166a87.209 87.209 0 0 0-13.518 12.675c-4.235 4.905-7.992 10.381-10.688 16.372-2.626 5.836-4.436 11.739-5.357 17.918-.793 5.317-.821 10.72-.469 15.998.338 5.054 1.646 9.356 3.215 14.358 2.166 6.908 9.674 19.919 9.674 19.919l2.607-3.39S83.14 286.04 81.308 280.2c-1.42-4.53-2.73-8.541-3.058-13.454-.34-5.077-.3-10.178.438-15.125.888-5.96 2.663-11.528 5.075-16.889 2.498-5.549 6.024-10.726 10.063-15.405a83.115 83.115 0 0 1 12.893-12.082c4.728-3.559 15.625-9.886 15.625-9.886l-2.031-3.461z" fill="#FF5"/><path d="M59.683 144.465l-3.147 2.236s8.22 9.4 11.495 13.704c2.662 3.498 5.187 7.109 7.406 10.852 4.332 7.307 8.125 14.94 11.594 22.734 1.518 3.411 3.695 9.588 4.156 10.884-1.333 1.374-7.888 8.188-11.25 13.004-3.655 5.237-7.048 10.861-9.312 16.996-2.556 6.927-4.28 14.324-4.531 21.798-.296 8.794 1.08 17.651 3.594 26.009 2.686 8.935 12.361 25.47 12.361 25.47l2.576-3.423s-8.758-15.402-11.094-23.17c-2.406-8.004-3.716-16.482-3.437-24.761.233-6.945 1.842-13.94 4.281-20.55 2.09-5.666 5.297-11.01 8.844-16.092 3.217-4.61 11.719-13.441 11.719-13.441a2.038 2.038 0 0 0 .468-2.058s-2.87-8.135-4.719-12.287c-3.516-7.9-7.381-15.666-11.812-23.14-2.32-3.912-4.927-7.64-7.656-11.226-3.53-4.637-11.536-13.539-11.536-13.539z" fill="#FF5"/><path d="M71.406 164.428S68.9 182.722 66 190.935c-3.365 9.532-8.267 18.583-13.969 27.006-5.314 7.851-12.1 14.77-18.812 21.736-4.896 5.083-9.892 10.054-15.375 14.346C13.252 257.616 1 264.813 1 264.813v3.991s13.69-8.531 18.688-12.443c5.67-4.437 10.76-9.48 15.687-14.594 6.699-6.954 13.608-13.991 19.125-22.142 5.814-8.588 10.873-17.892 14.344-27.723 3.173-8.989 5.531-27.1 5.531-27.1l-2.969-.374zM38.152 159.992s-.479 13.426-1.87 18.781c-1.714 6.592-3.954 13.09-7.126 18.992-3.469 6.453-7.98 12.404-12.968 17.9C12.45 219.781 1 228.081 1 228.081v5.024s13.83-9.992 18.156-14.758c5.148-5.67 9.863-11.887 13.532-18.711 3.377-6.284 5.702-13.073 7.468-19.865 1.603-6.165 1.996-22.722 1.996-22.722l-4 2.943z" fill="#FF5"/><path d="M61.125 154.73c-5.53 1.737-12.27 3.3-15.375 8.201-.468.739-.54 1.85-.125 2.62 2.181 4.048 8.628 3.788 11.875 7.047 2.452 2.462 6.247 5.647 5.281 8.982-.85 2.934-5.207 3.39-8.156 4.21-4.103 1.14-9.355-1.725-12.75.842-.722.546-1.12 1.678-.906 2.557.853 3.509 6.013 4.345 7.906 7.422 2.033 3.305 5.284 7.84 3.281 11.164-1.704 2.829-6.411 2.006-9.718 1.996-3.813-.012-7.611-3.686-11.188-2.37-.85.313-1.578 1.25-1.656 2.152-.35 4.02 4.572 6.83 5.625 10.727.854 3.165 2.732 7.48.437 9.824-2.417 2.469-6.995.517-10.375-.219-3.537-.77-6.4-4.908-9.968-4.303-.894.151-1.763.967-2 1.84-1.256 4.614 3.983 8.944 4.187 13.721.112 2.634.425 6.11-1.656 7.734-1.757 1.371-4.515.282-6.688-.218-1.167-.27-2.164-1.9-3.281-1.466-.93.361-1.555 1.818-1.188 2.744.51 1.286 2.46 1.352 3.813 1.653 2.756.614 5.788 1.136 8.469.25a2.884 2.884 0 0 0 1.5-1.185c1.73-2.791 2.129-6.356 2.031-9.637-.114-3.823-5.892-8.523-3.031-11.07 1.925-1.715 4.658 2.356 7.187 2.869 4.064.823 8.591 1.794 12.438.25.67-.27 1.269-.858 1.531-1.529 1.463-3.741.488-8.144-.5-12.037-.751-2.961-5.876-5.796-4.031-8.233 1.703-2.25 5.518 1.533 8.343 1.497 4.02-.052 8.542-.1 11.813-2.433.6-.428 1.034-1.171 1.125-1.902.575-4.612-1.595-9.36-3.938-13.378-1.289-2.212-6.233-3.121-5.343-5.52 1.086-2.928 6.342.005 9.343-.873 3.613-1.058 7.65-2.268 10.032-5.177.459-.56.686-1.371.594-2.09-.541-4.177-3.494-7.863-6.438-10.883-2.745-2.816-10.138-2.342-10-6.268.17-4.829 11.322-2.233 12.813-6.83.306-.946-.362-2.98-1.313-2.682z" fill="#FF5"/><path d="M45.438 170.166c-.937.35-1.478 1.842-1.126 2.775.712 1.884 3.768 1.54 5.407 2.714.999.715 2.954 1.405 2.625 2.588-.333 1.195-2.386.773-3.625.873-1.947.158-4.319-1.654-5.844-.436-.781.623-1.064 2.184-.438 2.962 1.367 1.699 4.356.647 6.532.468 2.306-.19 5.08-.023 6.75-1.622.602-.576.898-1.596.687-2.401-.582-2.226-3.036-3.519-4.906-4.865-1.836-1.322-3.943-3.85-6.063-3.056zM64.844 160.748c-2.39 1.375-3.793 1.71-6.625 3.524-.64.41-.33 1.645.093 2.277.415.618 1.379.576 2.032.935.99.544 2.073 1.016 2.843 1.84.602.643.905 1.513 1.282 2.308.254.535.117 1.404.656 1.653.76.35 2.023-.054 2.375-.811.278-.597-.43-1.248-.719-1.84-.511-1.053-.98-2.172-1.781-3.025-.938-1-3.48-.94-3.406-2.308.09-1.658 3.913-.753 4.406-2.339.247-.795-.434-2.63-1.156-2.214zM61.344 187.786c-.82-.114-1.304 1.02-2 1.465-1.084.694-2.15 1.476-3.375 1.871-.42.136-.873.13-1.313.156-.301.018-.647-.155-.906 0-.647.388-1.093 1.243-1.063 1.996.052 1.294 1.57 2.09 2.094 3.275.646 1.457-.11 3.779 1.25 4.615.706.434 2.004.206 2.438-.499.926-1.507-.702-3.492-1.407-5.114-.3-.694-1.51-1.25-1.187-1.934.125-.266.595-.032.875-.125 1.442-.478 2.718-1.368 4-2.183.742-.471 2.004-.69 2.125-1.559.114-.822-.708-1.85-1.531-1.964zM54.406 150.475c-1.547-.017-2.143 1.87-3.394 2.624-1.227.74-3.435.658-3.98 1.832-.36.775.034 2.058.968 2.357 1.719.55 3.346-1.32 4.837-2.217 1.363-.821 3.672-1.463 3.694-2.86.014-.824-1.13-1.724-2.125-1.736zM39.531 193.274c-.3.955-1.88 1.476-1.718 2.464.106.652 1.081.765 1.593 1.185.792.65 1.639 1.26 2.282 2.058.736.914 1.225 2.006 1.75 3.056.035.071.132.15.093.218-.036.064-.145.026-.218.032-1.175.083-2.367.169-3.532 0-.903-.132-1.762-.482-2.625-.78-.56-.194-1.107-.882-1.656-.655-.922.382-1.567 1.823-1.188 2.744.244.591 1.176.51 1.782.718 1.066.367 2.134.774 3.25.935 1.381.2 2.793.098 4.187.031.806-.038 1.729.187 2.407-.25.659-.423 1.139-1.245 1.187-2.026.05-.814-.601-1.518-.969-2.246-.634-1.256-1.242-2.551-2.125-3.648-.789-.981-1.81-1.754-2.781-2.557-.55-.456-1.08-1.599-1.719-1.279zM27.313 213.981c-.98-.227-2.277.706-2.5 1.684-.336 1.467 1.71 2.505 2.28 3.898.581 1.42 2.202 3.365 1.126 4.46-.712.723-2.013-.343-2.969-.687-1.468-.527-2.693-2.536-4.188-2.089-.956.286-1.788 1.634-1.5 2.588.5 1.656 3.029 1.715 4.657 2.308 1.863.678 3.871 1.938 5.781 1.403.794-.222 1.531-.952 1.75-1.746.672-2.44-.923-5.013-1.875-7.36-.645-1.588-.89-4.071-2.563-4.459zM10.219 230.197c-.885-.455-2.357.116-2.813.998-.943 1.825 1.367 3.897 1.688 5.925.181 1.151 1.04 2.77.125 3.493-.957.756-2.469-1.565-3.531-.967-.868.489-1.301 2.003-.813 2.87.938 1.663 3.65 1.874 5.531 1.527.777-.143 1.565-.692 1.906-1.403.865-1.801.069-4.015-.25-5.988-.356-2.209.15-5.43-1.843-6.455zM48.188 213.95c-.998-.29-1.765 1.192-2.782 1.403-1.052.218-2.222-.588-3.218-.187-.712.286-1.725.936-1.563 1.684.495 2.28 2.154 5.414 1.438 6.954-.352.756 1.943.745 2.5.125 1.344-1.499-2.206-4.368-.97-5.956.508-.651 1.673.002 2.47-.219 1.216-.336 3.043-.446 3.406-1.652.24-.8-.479-1.919-1.282-2.152zM23.719 235.374c-.611-.197-.949.943-1.125 1.56-.64 2.233-1.052 5.194.468 6.953.544.629 1.794 1.056 2.438.53 1.58-1.29-1.576-4.71-.094-6.112 1.524-1.44 4.94 2.048 6.282.437.529-.636-.003-1.855-.625-2.401-1.727-1.517-4.572-.517-6.844-.874-.168-.026-.392.037-.5-.093zM5.156 253.773c-.27.785-1.766 1.169-1.531 1.965.312 1.056 2.038.9 3.125 1.091.77.136 1.754.543 2.344.031.626-.543.853-1.836.312-2.463-.55-.639-1.7.08-2.531-.063-.594-.102-1.23-.914-1.719-.561zM83.531 139.93c-2.448 1.814-5.1 3.002-7.875 5.893-1.305 1.36-1.203 3.28-.437 4.49.522.828 1.292 1.313 2.125 1.623.833.309 1.756.473 2.719-.032 3.479-1.824 5.063-3.205 7.812-5.083l-1.406-2.058c-2.853 1.948-4.27 3.232-7.563 4.958.087-.045-.276.029-.687-.124-.412-.153-.817-.482-.906-.624-.295-.466-.417-.87.124-1.434 2.446-2.55 4.883-3.604 7.594-5.614a24.587 24.587 0 0 1-1.5-1.996zM96.25 160.45c-2.029 1.126-4.358 1.478-7 3.242-1.04.695-1.579 1.81-1.781 2.932-.203 1.12-.08 2.327.625 3.336.637.915 1.616 1.284 2.562 1.435.947.15 1.936.109 2.813-.468 2.407-1.583 3.835-1.976 6.344-3.804l-1.47-2.027c-2.272 1.656-3.633 2.02-6.25 3.742-.09.06-.598.167-1.062.093-.464-.074-.837-.306-.906-.405-.173-.247-.297-.857-.188-1.466.11-.608.434-1.14.688-1.31 2.172-1.45 4.357-1.736 6.844-3.118l-1.219-2.183zM107.75 180.47s-5.258 2.492-8.438 4.646c-1.067.724-1.305 1.866-1.343 2.932-.039 1.066.176 2.193 1 3.087 1.541 1.672 4.069 1.554 5.969.437 2.075-1.221 6.624-4.086 6.624-4.086l-1.343-2.089s-4.59 2.862-6.563 4.023c-1.073.631-2.386.527-2.844.031-.111-.121-.364-.726-.343-1.31.02-.583.345-1.03.25-.966 2.852-1.934 8.094-4.46 8.094-4.46l-1.063-2.245z" fill="#FF5"/><path d="M17.836 256.127c1.472 8.176 2.269 15.828 4.561 23.368 2.439 8.023 5.704 15.832 9.637 23.241 2.85 5.37 6.31 10.424 10.038 15.227 5.29 6.813 11.914 13.145 17.402 19.156" stroke="#FF5" stroke-width="4" stroke-linejoin="round"/><path d="M126.576 223.109c-4.549 3.196-9.155 8.24-11.982 11.86-2.364 3.025-4.692 6.299-6.281 10.041-1.74 4.097-2.73 8.483-3.188 12.817-.481 4.554-.572 10.899 1.656 16.778l2.75-4.086c-.45-2.938-.812-8.444-.406-12.286.426-4.027 1.327-8.02 2.875-11.664 1.363-3.208 3.463-6.24 5.75-9.168 2.512-3.216 4.888-6.908 8.906-9.23l-.08-5.062z" fill="#FF5"/><g fill="#FF5"><path d="M112.875 212.721a3.496 3.496 0 0 1-3.5 3.493 3.496 3.496 0 0 1-3.5-3.493 3.496 3.496 0 0 1 3.5-3.493c1.933 0 3.5 1.564 3.5 3.493zM120.601 213.632a3.496 3.496 0 0 1-3.5 3.493 3.496 3.496 0 0 1-3.5-3.493 3.496 3.496 0 0 1 3.5-3.492c1.933 0 3.5 1.563 3.5 3.492zM112.87 220.55a3.496 3.496 0 0 1-3.5 3.492 3.496 3.496 0 0 1-3.5-3.492 3.496 3.496 0 0 1 3.5-3.493c1.933 0 3.5 1.564 3.5 3.493z"/></g><g fill="#FF5"><path d="M98.386 227.434a3.496 3.496 0 0 1-2.368 4.34 3.496 3.496 0 0 1-4.346-2.358 3.496 3.496 0 0 1 2.368-4.341 3.496 3.496 0 0 1 4.346 2.359zM106.054 226.12a3.496 3.496 0 0 1-2.368 4.34 3.496 3.496 0 0 1-4.345-2.358 3.496 3.496 0 0 1 2.367-4.34 3.496 3.496 0 0 1 4.346 2.358zM100.598 234.943a3.496 3.496 0 0 1-2.367 4.341 3.496 3.496 0 0 1-4.346-2.359 3.496 3.496 0 0 1 2.368-4.34 3.496 3.496 0 0 1 4.345 2.358z"/></g><g fill="#FF5"><path d="M90.792 247.941a3.496 3.496 0 0 1-1.46 4.725 3.496 3.496 0 0 1-4.727-1.45 3.496 3.496 0 0 1 1.46-4.724 3.496 3.496 0 0 1 4.727 1.45zM98.047 245.132a3.496 3.496 0 0 1-1.46 4.724 3.496 3.496 0 0 1-4.727-1.45 3.496 3.496 0 0 1 1.46-4.724 3.496 3.496 0 0 1 4.727 1.45zM94.45 254.862a3.496 3.496 0 0 1-1.46 4.725 3.496 3.496 0 0 1-4.726-1.45 3.496 3.496 0 0 1 1.459-4.724 3.496 3.496 0 0 1 4.727 1.45z"/></g><g fill="#FF5"><path d="M89.189 272.829a3.496 3.496 0 0 1 1.216 4.792 3.496 3.496 0 0 1-4.79 1.227 3.496 3.496 0 0 1-1.216-4.793 3.496 3.496 0 0 1 4.79-1.226zM93.917 266.65a3.496 3.496 0 0 1 1.216 4.793 3.496 3.496 0 0 1-4.79 1.226 3.496 3.496 0 0 1-1.216-4.792 3.496 3.496 0 0 1 4.79-1.227zM95.918 276.829a3.496 3.496 0 0 1 1.217 4.793 3.496 3.496 0 0 1-4.79 1.226 3.496 3.496 0 0 1-1.217-4.793 3.496 3.496 0 0 1 4.79-1.226z"/></g><path fill="#55A" d="M127.135 212.863l12.677.202-4.87 10.934h4.87l5.68-10.731h13.19l-4.668 10.529h5.479l4.87-10.732h14.202L173.695 224h4.464l-2.637 4.86-8.725-.608 5.073-10.326h-4.667l-5.275 10.731-14.61-.405 4.668-9.921h-4.464l-5.276 10.528-14.203-.404 5.682-10.53-4.261-.202-2.332 3.645z"/><path fill="#FF5" d="M122.565 222.784l-8.319-4.454 3.855 8.706zM110.48 235.21l-8.93-3.055 5.213 7.971zM103.102 251.472l-9.412.735 7.956 5.25zM101.896 268.631l-7.194 6.1 9.53-.4zM78.87 201.634l8.342 4.409-3.903-8.686zM69.105 213.44l9.06 2.649-5.57-7.728zM61.35 228.35l9.42.617-7.121-6.332zM56.412 244.78l9.333-1.42-8.32-4.654zM54.644 259.755l8.964-2.954-8.982-3.204zM55.847 274.806l8.41-4.283-9.367-1.8zM60.162 289.81l7.031-6.287-9.516.65zM65.888 303.5l7.03-6.288-9.515.651zM72.877 315.586l6.034-7.245-9.318 2.032z"/><path d="M7.571 192.277c4.753-4.235 8.941-8.692 13.707-12.704 4.003-3.37 8.318-6.352 12.477-9.529-.237 1.694-.36 3.404-.713 5.082-.45 2.146-1.188 4.235-1.782 6.352-3.446 2.012-6.747 4.236-10.338 6.035a62.094 62.094 0 0 1-7.486 3.176c-1.914.661-3.726 1.058-5.865 1.588zM6.13 197.246c3.228-1.075 6.505-2.033 9.685-3.223 2.233-.835 4.475-1.675 6.587-2.744 2.346-1.188 4.477-2.705 6.716-4.058-.387 1.631-.475 3.349-1.162 4.893-.582 1.306-1.636 2.387-2.454 3.58-2.325.676-4.585 1.583-6.974 2.029-2.247.42-4.557.715-6.845.597-1.889-.098-3.703-.716-5.554-1.074zM5.988 201.341c2.346.12 4.69.346 7.038.36 1.648.011 3.304.02 4.942-.19 1.819-.233 3.595-.79 5.393-1.185-.704 1.168-1.244 2.494-2.114 3.504-.736.854-1.707 1.389-2.561 2.084-1.662-.163-3.348-.126-4.985-.49-1.54-.34-3.086-.799-4.5-1.577-1.168-.642-2.142-1.67-3.213-2.506zM5.489 205.743c1.626.807 3.214 1.694 4.878 2.42 1.168.51 2.342 1.02 3.58 1.357 1.375.374 2.832.486 4.247.729-.907.685-1.753 1.543-2.723 2.056-.821.434-1.698.55-2.547.826-1.125-.631-2.337-1.116-3.374-1.894-.976-.732-1.916-1.555-2.65-2.585-.607-.85-.94-1.94-1.411-2.909zM4.29 211.887c.956.824 1.881 1.715 2.87 2.471.693.53 1.39 1.063 2.144 1.447.836.427 1.748.63 2.622.945-.636.534-1.247 1.224-1.908 1.602-.558.32-1.124.36-1.686.539-.655-.634-1.379-1.146-1.966-1.902-.552-.711-1.072-1.5-1.445-2.454-.307-.788-.421-1.765-.632-2.648z" stroke="#F55" stroke-width="2" fill="#F55" stroke-linecap="round" stroke-linejoin="round"/><path d="M75.195 174.205c1.257 2.597 2.876 5.35 4.204 8.082 1.57 3.228 2.962 6.54 4.444 9.81-2.963 3-6.173 5.777-8.888 9.003-3.829 4.549-7.401 9.362-10.368 14.512-3.044 5.284-5.624 10.877-7.541 16.663-1.788 5.397-2.925 11.023-3.636 16.663-.623 4.936-.754 9.945-.539 14.916.238 5.5.875 11.008 2.02 16.394 1.023 4.81 2.555 9.515 4.31 14.11 1.83 4.794 3.913 9.52 6.463 13.974 2.112 3.69 4.847 6.988 7.271 10.482L61.893 333.73c-4.802-5.465-9.922-10.668-14.408-16.394-4.41-5.629-8.746-11.375-12.254-17.604-2.787-4.95-4.937-10.25-6.91-15.576-1.61-4.342-2.904-8.804-4-13.302-1.096-4.502-1.615-9.829-2.567-13.66 2.983-2.82 8.574-8.036 12.708-12.208 4.36-4.4 8.83-8.723 12.75-13.516 5.49-6.71 10.569-13.794 15.006-21.239 3.149-5.283 6.078-10.757 8.188-16.533 2.297-6.285 3.77-12.803 4.789-19.493z" fill="#F55"/><path d="M117.928 110.569a90.39 90.39 0 0 0-12.602 5.083c-7.905 3.889-15.276 8.782-22.79 13.378-8.497 5.198-17.01 10.39-25.203 16.054a322.243 322.243 0 0 0-19.304 14.448c-7.285 5.887-14.303 12.106-21.181 18.461C11.418 183.011 5.915 188.34 1 193.512" stroke="#55A" stroke-width="2" stroke-linecap="round" stroke-linejoin="round"/><path d="M134.379 238.386s.273-1.67.8-2.196c.527-.526 1.454-.798 2.2-.798.745 0 1.673.272 2.2.798.527.526.8 1.452.8 2.196 0 .743-.4 1.796-.8 2.195-.4.4-.8.599-1.2.998-.4.399-.6.399-1 .798l-1 .998c-.4.4-1 1.198-1.4 1.996-.4.798-.6 1.996-.6 1.996s-.2-1.198-.6-1.996c-.4-.798-1-1.597-1.4-1.996l-1-.998c-.4-.399-.6-.399-1-.798-.4-.4-.8-.599-1.2-.998-.4-.4-.8-1.452-.8-2.195 0-.744.273-1.67.8-2.196.527-.526 1.454-.798 2.2-.798.745 0 1.673.272 2.2.798.527.526.8 2.196.8 2.196z" fill="#F55"/><path d="M42.771 155.366c-.766-3.234-.715-6.779-2.298-9.703-1.466-2.708-3.754-5.062-6.364-6.703-1.624-1.021-3.56-1.72-5.48-1.764-2.015-.046-4.01.731-5.833 1.587-1.76.827-3.285 2.103-4.773 3.352-1.148.964-2.608 1.793-3.182 3.176-.339.814-.366 1.842 0 2.646.517 1.138 1.679 1.972 2.828 2.47 1.087.47 2.4.687 3.536.352 1.085-.32 1.808-1.363 2.651-2.117.994-.887 1.886-1.881 2.829-2.822.176.647.115 1.413.53 1.94.749.953 2.121 1.176 3.182 1.764-.943.882-2.139 1.556-2.828 2.647-.726 1.148-1.099 2.53-1.238 3.88-.176 1.706-.153 3.544.53 5.116.715 1.645 2.357 2.705 3.536 4.058" stroke="#55A" stroke-width="2" stroke-linecap="round" stroke-linejoin="round"/><path d="M19.027 141.741c.984-.55 2.718.96 3.061 2.158.335 1.166-.575 2.475-1.414 3.352-.946.99-2.475 1.176-3.712 1.764M25.094 137.02c-1.827-1.941-3.08-4.66-5.48-5.822a5.91 5.91 0 0 0-4.066-.353c-1.417.404-2.737 1.41-3.536 2.646-.589.911-.92 2.112-.707 3.175.241 1.2 1.27 2.119 2.121 3 1.08 1.117 2.475 1.881 3.713 2.822" stroke="#55A" stroke-width="2" stroke-linecap="round" stroke-linejoin="round"/><path d="M11.835 138.607c-1.178.118-2.474-.173-3.535.353-1.008.5-2.006 1.385-2.298 2.47-.345 1.28.196 2.745.884 3.88 1.363 2.249 3.882 3.569 6.01 5.116 1.903 1.384 3.899 2.665 6.01 3.705 1.188.585 2.423 1.712 3.713 1.411 1.096-.255 1.982-1.391 2.298-2.47.185-.63-.085-1.34-.354-1.94-.274-.612-.825-1.058-1.237-1.588M18.523 150.614c-.618.318-.927 1.253-1.264 2.132M7.946 147.957c-1.001.823-2.356 1.348-3.005 2.47-.537.929-.858 2.153-.53 3.175.28.87 1.318 1.272 1.944 1.94.856.913 1.477 2.067 2.475 2.823 1.197.906 2.63 1.502 4.066 1.94 1.538.47 3.177.9 4.773.706 1.075-.131 2.402-.337 3.005-1.235.525-.782.361-1.953 0-2.822-.382-.922-1.257-1.614-2.121-2.117-.95-.554-2.112-1.139-3.182-.882-.933.223-1.67 1.096-2.121 1.94-.366.682-.46 1.527-.354 2.293.097.704.59 1.294.884 1.94" stroke="#55A" stroke-width="2" stroke-linecap="round" stroke-linejoin="round"/><path d="M6.002 157.306c-.648.53-1.586.833-1.945 1.588-.353.744-.295 1.701 0 2.47.568 1.477 1.86 2.654 3.182 3.528 1.507.996 3.373 1.328 5.127 1.764 1.1.274 2.311.962 3.359.53.74-.307 1.274-1.154 1.414-1.941.15-.843-.176-1.798-.707-2.47-.67-.847-1.75-1.51-2.829-1.588-.818-.059-1.7.32-2.298.882-.518.488-.762 1.24-.884 1.94-.121.699.118 1.412.177 2.118M12.366 171.066l2.121 3.176 3.359 2.293" stroke="#55A" stroke-width="2" stroke-linecap="round" stroke-linejoin="round"/><path d="M8.123 166.303c-.471 1.882-1.15 3.724-1.414 5.645-.281 2.04-.118 4.117-.177 6.175l4.596-.177c-.059-2.175-.37-4.359-.176-6.527.128-1.436.589-2.822.883-4.234l-3.712-.882zM20.674 130.845c1.591-2.587 2.6-5.638 4.773-7.762a22.687 22.687 0 0 1 9.37-5.469c2.886-.841 6.008-.294 9.015-.353 3.594-.07 7.224.503 10.783 0 2.733-.386 5.428-1.186 7.955-2.293 1.768-.774 3.608-1.614 4.95-2.999.752-.776 1.06-1.881 1.591-2.822-.236 2.47.011 5.034-.707 7.409a22.045 22.045 0 0 1-4.066 7.585c-2.078 2.516-4.673 4.728-7.601 6.175-2.553 1.261-5.49 1.58-8.309 1.996-4.029.595-8.127.57-12.197.705-2.297.077-4.66-.47-6.895.061-1.854.441-3.417 1.354-5.126 2.53l-3.536-4.763z" stroke="#55A" stroke-width="2" fill="#FF5" stroke-linecap="round" stroke-linejoin="round"/><path d="M60.047 118.937l-5.176 3.557-.05-1.088-6.88 1.92 1.065-1.677-10.337 2.395c-.064.006 1.414-1.582 1.353-1.567l-10.084 3.032c-.227.044.241-1.32.058-1.18l-7.905 8.074.59.662 8.894-4.562-1.516-.438 8.965-.723-.817-.722 10.845.398-1.396-.854c.106-.01 10.307-1.962 10.409-1.994l-1.784-.532c1.27-.696 4.04-1.344 5.032-1.945.991-.6-1.001-.474-.943-.508l3.713-3.099-3.984 1.843-.052-.992z" stroke="#55A" fill="#55A" stroke-linecap="round" stroke-linejoin="round"/><g><g stroke="#55A" stroke-linejoin="round" stroke-width="2"><path d="M301 172.35l-53.444-35.232M301 164.983l-50.175-32.328"/><path d="M301 179.716l-52.036-33.312M301 187.082l-36.763-23.732M301 194.449l-28.254-18.29M301 201.815l-23.454-15.458M301 209.182l-19.309-11.975M298.273 215.06l-13.527-9.144M293.037 218.762l-7.855-5.444" stroke-linecap="round"/></g><path d="M200.825 363.595c5.805-3.452 11.672-6.802 17.415-10.357 9.192-5.69 18.364-11.425 27.267-17.555 6.834-4.706 13.607-9.523 20.054-14.746 6.938-5.622 13.443-11.76 20-17.822 5.235-4.838 10.293-9.866 15.439-14.799v-74.813c-4.718 2.925-8.713 5.274-13.431 8.2-1.349-6.67-2.217-13.583-4.19-20.156-2.229-7.418-5.078-14.687-8.59-21.593-2.882-5.67-6.403-11.022-10.17-16.15-2.776-3.777-6.033-7.178-9.117-10.708-3.53-4.041-6.873-8.184-10.743-11.988l-52.906 69.937-7.564.176-9.851 20.539-16.494-.145.47 18.395 16.288.114.264 20.582-18.12.703c1.936 8.309 3.263 16.915 5.806 25.127 2.472 7.984 5.444 15.853 9.147 23.348 4.363 8.83 9.806 17.105 15.305 25.279 4.274 6.355 9.147 12.288 13.72 18.432z" fill="#000"/><path d="M137.317 449.9s-10.71-1.179-16.046-1.921c-4.72-.657-9.435-1.377-14.121-2.242-6.881-1.27-20.54-4.324-20.54-4.324s-1.11-9.083-1.765-13.611a569.039 569.039 0 0 0-2.407-15.053c-.7-4.065-1.017-8.232-2.247-12.17-1.204-3.854-2.44-7.901-4.974-11.049-1.628-2.022-6.258-4.644-6.258-4.644s-1.698 2.309-2.889 3.043c-1.569.967-3.451 1.573-5.295 1.601-2.05.031-4.09-.714-5.937-1.601-1.794-.86-3.61-1.942-4.814-3.523-1.28-1.681-2.018-3.826-2.247-5.925-.24-2.199.234-4.477.963-6.565.772-2.214 1.872-4.425 3.53-6.085 1.574-1.576 3.668-2.642 5.777-3.363 2.297-.786 4.793-.996 7.22-.961 2.33.034 4.683.406 6.9 1.121 2.96.954 5.807 2.37 8.345 4.163 1.822 1.287 3.334 2.978 4.814 4.644 1.47 1.654 4.012 5.285 4.012 5.285l64.026-.32s-7.849 5.595-11.072 9.127c-3.267 3.579-6.118 7.63-8.184 12.01-2.206 4.677-3.539 9.784-4.333 14.892-.648 4.169-.695 8.45-.32 12.65.352 3.963 1.236 7.888 2.406 11.69 1.394 4.53 5.456 13.131 5.456 13.131z" fill="#FF5"/><path fill="#000" d="M190.549 368.398l-6.767 2.755-98.579-1.66-4.172-3.44 10.159-12.49h96.323l3.628 5.973 4.7 6.257z"/><path fill="#F55" d="M1 455.416l.5-122.246L20 345.145l1 97.615z"/><path d="M221.53 480.364L193 444.438s-10.763 2.843-16.244 3.774c-6.724 1.143-13.522 2.062-20.341 2.214-10.702.238-21.425-.736-32.048-2.053-12.62-1.563-37.514-6.928-37.514-6.928l-27.94 38.919H221.53z" stroke="#55A" stroke-width="2" fill="#F55" stroke-linecap="round" stroke-linejoin="round"/><path d="M205.435 478.884l-17.582-26.265c-7.041 2.248-11.53 2.97-20.506 3.895l4.488 22.37h6.217l-5.556-18.842c5.566-.741 7.465-.842 12.679-2.294l13.116 21.136h7.144zM162.178 478.884l-4.326-21.66c-10.935.933-19.395.595-30.33-.605l-5.239 22.265h7.011l3.717-17.6c8.592 1.085 12.713.877 19.927.4l2.925 17.2h6.315zM111.647 478.884l7.322-23.563c-7.982-.61-18.22-3.964-26.905-5.867l-15.658 29.43h6.879l11.78-24.523c4.85 1.216 12.525 3.621 17.375 4.239l-6.746 20.284h5.953z" stroke="#FFF" stroke-width="2" fill="#FFF" stroke-linecap="round" stroke-linejoin="round"/><path d="M136.658 448.905c-2.05-5.865-5.044-11.481-6.15-17.594-1.118-6.175-1.192-12.594-.41-18.82.634-5.057 2.058-10.06 4.1-14.73 1.668-3.817 3.833-7.487 6.56-10.638 3.614-4.177 7.99-7.764 12.71-10.638 2.828-1.722 5.989-2.895 9.163-3.843 3.166-.945 6.446-1.662 9.748-1.804 3.867-.167 8.421-1.142 11.56 1.121 1.019.736 1.333 2.204 1.524 3.445.185 1.195-.389 2.396-.401 3.605-.01.884-.018 1.797.24 2.643.277.903.702 1.81 1.365 2.484.605.614 1.903.492 2.248 1.281.33.754.051 1.854-.562 2.403-.983.881-2.62.348-3.933.481-1.336.135-2.684.502-4.014.32-1.694-.23-3.147-1.203-4.816-1.762-.117.714 1.328 2.182 1.926 2.964.678-.546 2.021-.5 3.05-.64 1.223-.168 2.464-.14 3.693-.241 1.072-.088 2.135-.326 3.211-.32.97.005 2.095-.233 2.89.32.49.342.79 1.005.803 1.602.012.526-.411.97-.642 1.442-.4.816-1.108 1.513-1.285 2.403-.313 1.58-.265 3.38.482 4.807.685 1.31 2.066 2.187 3.371 2.884 1.569.837 3.479.801 5.138 1.441 1.116.431 2.707.52 3.21 1.603.858 1.844-.726 4.024-1.444 5.928-1.425 3.778-3.91 7.075-5.62 10.734-1.246 2.67-2.695 5.304-3.37 8.17-.345 1.46-.58 3.01-.322 4.487.34 1.955 1.936 3.52 2.408 5.447.395 1.612.214 3.311.321 4.967" stroke="#55A" stroke-width="2" stroke-linecap="round" stroke-linejoin="round"/><path d="M156.613 428.868c4.516 3.508 8.613 6.16 13.403 8.339 3.098 1.41 6.338 2.962 9.766 2.993 2.152.02 6.19-.953 6.203-1.768.006-.41-.808-.62-1.298-.73-2.273-.513-4.685.69-7.009.446-2.82-.297-5.535-1.235-8.15-2.295-4.537-1.84-9.291-4.22-12.915-6.985z" stroke="#55A" stroke-width="2" fill="#55A" stroke-linecap="round" stroke-linejoin="round"/><path d="M185.5 431.216c-1-.416-1.986-.551-3-.52-1.456.047-2.797.914-4.25 1.019-2.754.2-5.573-.073-8.25-.749-2.461-.62-4.777-1.77-7-2.993-1.417-.78-2.667-1.83-4-2.745M183.267 428.416c-1.314-.291-2.6-.764-3.942-.874-1.749-.143-3.508.453-5.255.291-2.245-.206-4.526-.653-6.57-1.602-2.841-1.32-5.06-3.69-7.59-5.536" stroke="#55A" stroke-width="2" stroke-linecap="round" stroke-linejoin="round"/><path d="M182.099 426.814c-.098-1.166.225-2.447-.292-3.497-.669-1.357-2-2.388-3.358-3.059-1.462-.723-3.186-.938-4.817-.874-1.71.067-3.382.66-4.964 1.311-.987.407-1.766 1.246-2.773 1.603-.882.312-1.85.291-2.774.437" stroke="#55A" stroke-width="2" stroke-linecap="round" stroke-linejoin="round"/><path d="M174.362 426.814c-.292-1.069-.919-2.099-.876-3.205a3.692 3.692 0 0 1 .73-2.04c.504-.666 1.362-.97 2.043-1.456" stroke="#55A" stroke-width="2" stroke-linecap="round" stroke-linejoin="round"/><path d="M178.595 422.589c-.791-.039-1.53.961-1.606 1.748-.07.738.429 1.822 1.168 1.894.857.083 1.708-1.036 1.752-1.894.037-.727-.585-1.712-1.314-1.748z" stroke="#55A" stroke-width="2" fill="#55A" stroke-linecap="round" stroke-linejoin="round"/><path d="M181.807 420.404c-1.314-1.214-2.52-2.557-3.942-3.642-1.094-.835-2.254-1.607-3.503-2.185-1.16-.536-2.433-.777-3.65-1.166" stroke="#55A" stroke-width="2" stroke-linecap="round" stroke-linejoin="round"/><path d="M180.201 410.206c-.584-.874-1.545-1.592-1.752-2.622-.204-1.018.092-2.15.597-3.059.46-.825 1.182-1.627 2.078-1.928.928-.312 1.999-.03 2.924.291 1.127.392 1.95 1.388 3.014 1.928.838.425 1.693.92 2.628 1.02.588.063 1.16-.285 1.752-.278.533.006 1.164-.053 1.575.287.36.296.716.886.507 1.302-.32.637-1.352.608-2.065.57-1.312-.07-2.513-.818-3.667-1.444-1.103-.599-1.938-1.634-3.066-2.185-.86-.421-1.815-1.008-2.756-.823-1.112.219-2.07 1.158-2.645 2.134-.383.651-.493 1.485-.386 2.232.135.946.97 1.653 1.262 2.575zM167.939 402.922c-1.8-.68-3.826-1.22-5.209-2.264-1.082-.817-1.391-2.42-1.215-3.708.214-1.562 1.337-3.026 2.628-3.934 1.148-.807 2.684-.97 4.087-1.02 1.68-.058 3.34.446 4.964.875 1.398.37 2.691 1.077 4.087 1.456 1.004.273 2.026.618 3.066.583 1.156-.038 2.241-1.176 3.358-.874.73.198 1.574.848 1.605 1.603.035.826-.873 1.507-1.605 1.893-1.255.661-2.833.66-4.234.437-1.42-.225-2.633-1.153-3.941-1.748-1.466-.666-2.827-1.613-4.38-2.04-1.415-.387-2.935-.695-4.38-.436-1.296.232-2.761.68-3.55 1.733-.752 1.003-.979 2.502-.631 3.706.278.965 1.199 1.655 2.011 2.247.984.719 2.365.909 3.339 1.491z" stroke="#55A" stroke-width="2" fill="#55A" stroke-linecap="round" stroke-linejoin="round"/><path stroke="#55A" stroke-width="2" fill="#FF5" stroke-linecap="round" stroke-linejoin="round" d="M43.5 359.116L1 331.673v-9.48l47.5 31.435zM46.5 460.405c3.833-6.32 8.34-11.474 10.616-18.078 1.956-5.676 2.65-11.851 2.384-17.847-.303-6.812-1.709-13.734-4.5-19.958-2.343-5.224-6.667-9.314-10-13.971-1.5 4.823-2.166 9.989-4.5 14.47-2.137 4.102-5.176 7.755-8.5 10.977-1.626 1.576-3.667 2.66-5.5 3.991l1 14.47c3 1.83 6.388 3.14 9 5.489a29.337 29.337 0 0 1 6.5 8.482c1.88 3.71 2.333 7.983 3.5 11.975z"/><path d="M46.263 460.173s4.125-11.655 4.237-17.73c.062-3.392-2-9.98-2-9.98l10.5-6.985-10.5-7.983s1.863-7.636 1.5-11.477c-.525-5.548-5.237-15.88-5.237-15.88s-1.67 10.365-3.97 14.998c-1.721 3.467-4.53 6.302-7.147 9.158-2.045 2.233-6.646 6.194-6.646 6.194v15.468s7.58 2.831 10.5 5.489c2.493 2.27 4.06 5.436 5.5 8.482 1.533 3.24 3.263 10.246 3.263 10.246zM57.25 425.383l-30.25.22M48.5 432.09l-20.5.373M49.862 439.698H34.866M49.427 447.225l-7.625.125M48.875 417.993l-19.134.302M49 410.384l-11.362.301M48.375 403.898l-6.655.021M1 464.397l26-17.464v-98.295l-6-3.692v97.497L1 455.416z" stroke="#55A" stroke-width="2" fill="#FF5" stroke-linecap="round" stroke-linejoin="round"/><path d="M88.187 373.366l-3.207-3.855 88.506.128s-4.297.473-6.414.896c-1.82.364-3.616.854-5.387 1.408-1.304.408-3.848 1.408-3.848 1.408l-69.65.015zM187.699 353.563l-96.872.362 3.81-4.707 89.61-.362zM163.75 367.501v-11.585l-12.699-.181.182 11.766zM134.725 367.14l.182-11.405h-13.06l.18 11.585zM106.609 367.14v-11.224H94.818l.18 11.585zM192.307 367.501h-13.501l.181-11.766 9.796-.362s1.762 2.93 2.72 4.344c1.389 2.048 4.386 5.99 4.386 5.99l-3.582 1.794z" fill="#FF5"/><path d="M182.057 361.625a2.997 2.997 0 0 1 3-2.994c1.657 0 3 1.34 3 2.994a2.997 2.997 0 0 1-3 2.994c-1.657 0-3-1.34-3-2.994zM154.303 361.715a2.997 2.997 0 0 1 3-2.993c1.657 0 3 1.34 3 2.993a2.997 2.997 0 0 1-3 2.994c-1.657 0-3-1.34-3-2.994zM125.642 361.534a2.997 2.997 0 0 1 3-2.993c1.657 0 3 1.34 3 2.993a2.997 2.997 0 0 1-3 2.994c-1.657 0-3-1.34-3-2.994zM97.525 362.078a2.997 2.997 0 0 1 3-2.994c1.657 0 3 1.34 3 2.994a2.997 2.997 0 0 1-3 2.993c-1.657 0-3-1.34-3-2.993z" stroke="#000" stroke-width="2" fill="#FF5"/><path d="M167.452 361.219a3.496 3.496 0 0 1 3.5-3.493c1.933 0 3.5 1.564 3.5 3.493a3.496 3.496 0 0 1-3.5 3.493 3.496 3.496 0 0 1-3.5-3.493zM139.388 361.528a3.496 3.496 0 0 1 3.5-3.493c1.933 0 3.5 1.564 3.5 3.493a3.496 3.496 0 0 1-3.5 3.492 3.496 3.496 0 0 1-3.5-3.492zM110.365 361.347a3.496 3.496 0 0 1 3.5-3.493c1.932 0 3.5 1.564 3.5 3.493a3.496 3.496 0 0 1-3.5 3.492 3.496 3.496 0 0 1-3.5-3.492zM84.243 362.07l3.681-4.216c1.27-1.455 2.775 1.383 2.775 3.312a3.496 3.496 0 0 1-3.5 3.492c-1.933 0-4.226-1.133-2.956-2.587z" fill="#FF5"/><path d="M183.507 348.793l-89.106.378 55.739-78.326s3.38 15.67 5.877 23.27c2.87 8.736 6.468 17.241 10.427 25.542 2.881 6.04 6.25 11.841 9.67 17.595 2.333 3.927 7.393 11.54 7.393 11.54z" fill="#55A"/><path d="M164.274 338.481l-46.749.165 28.748-38.784s2.274 8 3.72 11.896a115.607 115.607 0 0 0 4.833 11.183c1.62 3.262 3.456 6.418 5.373 9.515 1.277 2.062 4.075 6.025 4.075 6.025z" fill="#FFF"/><path d="M200.944 363.43c-4.045-5.234-9.738-11.96-14.03-18.351a231.119 231.119 0 0 1-14.408-24.595c-3.684-7.29-7.05-14.779-9.67-22.514-2.898-8.564-4.36-17.28-6.635-26.298-1.517-.126-4.17-.063-5.687-.189.758 3.595 1.596 6.823 2.464 10.216 1.62 6.33 2.971 12.75 5.119 18.92 2.369 6.805 5.418 13.365 8.531 19.865 3.146 6.567 6.458 13.073 10.238 19.298 3.062 5.041 6.594 9.785 10.048 14.567 2.946 4.078 6.636 8.635 9.1 12.04 1.201-.757 3.729-2.202 4.93-2.958z" stroke="#000" stroke-width="2" fill="#FF5" stroke-linecap="round" stroke-linejoin="round"/><path d="M157.161 335.058l-31.68.11 19.481-25.856s1.541 5.334 2.521 7.93a76.422 76.422 0 0 0 3.275 7.456c1.098 2.175 2.342 4.279 3.642 6.344.865 1.374 2.761 4.016 2.761 4.016z" fill="#55A"/><path fill="#000" d="M76.088 363.581l-5.657-1.41-7.955-.177-6.01 1.587-4.066 2.647-10.662-6.351 68.059-89.763 33.643.53z"/><path d="M59.969 360.488c.847.03 1.454-.995 1.844-1.746 1.512-2.92-.803-7.323 1.406-9.761 4.463-4.926 13.711-1.316 19.375-4.802a3.904 3.904 0 0 0 1.5-1.747c3.214-7.47-2.996-18.26 2.5-24.262 4.037-4.41 12.406-.504 17.625-3.43.7-.393 1.3-1.044 1.625-1.778 3.115-7.027-2.81-17.079 2.156-22.952 3.52-4.163 10.986-1.699 15.813-4.241.51-.268.97-.66 1.312-1.123 1.94-2.634 3.761-5.745 3.875-9.012.034-.976-.07-2.376-.967-2.766-.897-.39-1.998.484-2.69 1.175-2.084 2.087-1.296 6.182-3.53 8.108-4.23 3.646-11.464 1.386-16.188 4.366a3.864 3.864 0 0 0-1.469 1.716c-2.99 7.047 2.993 17.186-2.156 22.858-4.018 4.427-12.394.527-17.625 3.43a3.895 3.895 0 0 0-1.625 1.747c-3.377 7.444 2.869 18.217-2.5 24.387-4.348 4.997-13.62 1.375-19.312 4.77a3.9 3.9 0 0 0-1.5 1.654c-1.593 3.383-2.703 7.53-1.594 11.102.31.997 1.079 2.272 2.125 2.307z" fill="#FF5"/><path d="M68.522 354.055a3.496 3.496 0 0 1 3.5-3.492c1.933 0 3.5 1.563 3.5 3.492a3.496 3.496 0 0 1-3.5 3.493 3.496 3.496 0 0 1-3.5-3.493zM70.467 334.121a3.496 3.496 0 0 1 3.5-3.493c1.933 0 3.5 1.564 3.5 3.493a3.496 3.496 0 0 1-3.5 3.493 3.496 3.496 0 0 1-3.5-3.493zM90.973 325.3a3.496 3.496 0 0 1 3.5-3.492c1.933 0 3.5 1.564 3.5 3.493a3.496 3.496 0 0 1-3.5 3.492 3.496 3.496 0 0 1-3.5-3.492zM91.857 304.132a3.496 3.496 0 0 1 3.5-3.493c1.933 0 3.5 1.564 3.5 3.493a3.496 3.496 0 0 1-3.5 3.492 3.496 3.496 0 0 1-3.5-3.492zM112.54 295.84a3.496 3.496 0 0 1 3.5-3.492c1.933 0 3.5 1.563 3.5 3.492a3.496 3.496 0 0 1-3.5 3.493 3.496 3.496 0 0 1-3.5-3.493zM111.656 276.259a3.496 3.496 0 0 1 3.5-3.493c1.933 0 3.5 1.564 3.5 3.493a3.496 3.496 0 0 1-3.5 3.493 3.496 3.496 0 0 1-3.5-3.493z" fill="#FF5"/><path stroke="#000" stroke-width="2" fill="#F55" stroke-linecap="round" stroke-linejoin="round" d="M81.504 367.025l69.2-95.731h-7.584l-66.924 92.515z"/><g stroke="#55A" stroke-linecap="round" stroke-linejoin="round" stroke-width="2"><path d="M86.842 441.131c-1.485-7.553-2.487-15.188-3.783-22.773-1.074-6.283-1.281-12.79-3.31-18.834-1.259-3.752-2.939-7.478-5.416-10.568-1.332-1.661-3.233-2.774-4.916-4.083"/><path d="M93.607 441.95c-1.589-9.409-2.948-18.138-4.632-27.169-1.094-5.864-1.532-11.925-3.554-17.538-2.162-6-4.53-12.35-9.034-16.871-3.14-3.152-7.294-6.298-11.748-6.353-1.794-.023-4.53.67-4.794 2.44-.22 1.47 2.114 2.777 3.217 3.095"/><path d="M100.782 443.79c-2.201-7.14-3.21-14.554-4.51-21.89-1.385-7.815-1.184-15.96-3.503-23.553-2.27-7.426-4.814-15.272-10.036-21.027-4.076-4.493-9.54-8.92-15.594-9.406-4.3-.346-9.91 1.061-12.006 4.825-1.824 3.275-1.44 9.455 1.947 11.07 2.267 1.082 7.964 1.566 6.597-3.642"/><path d="M107.342 444.609c-2.036-5.823-2.688-11.988-3.966-17.996-2.681-12.613-3.145-25.856-7.764-37.898-2.315-6.035-5.439-11.965-9.812-16.73-3.635-3.961-7.907-8.182-13.164-9.327-6.78-1.476-15.66-1.13-20.454 3.878-4.094 4.276-5.912 12.719-2.514 17.564 3.363 4.796 12.427 6.998 17.217 3.621 3.093-2.18 2.84-7.7 1.507-11.236-.416-1.102-1.78-1.707-2.665-2.322M114.107 446.04c-1.825-5.587-3.171-11.321-4.329-17.08-2.194-10.915-1.93-22.314-4.943-33.033-1.843-6.557-5.026-13.198-7.948-18.828M121.692 447.473c-1.82-5.238-3.208-10.628-4.332-16.056-1.907-9.213-2.698-18.495-4.073-27.93-1.351-9.274-5.415-18.29-9.84-26.344M129.688 448.291c-2.2-4.82-3.928-9.848-5.233-14.97-2.977-11.677-3.153-23.93-5.861-35.672-1.056-4.574-2.266-9.144-4.036-13.492-1.085-2.667-2.787-5.394-4.007-7.654M129.965 428.038c-1.063-6.985-1.836-14.062-3.168-21.022-1.248-6.526-2.555-13.066-4.514-19.415-1.108-3.588-2.86-6.945-4.076-10.502M132.353 401.852c-.964-5.355-1.883-10.748-3.408-15.975-.896-3.069-2.192-6.006-3.358-8.983M137.273 391.01c-.684-4.954-1.997-9.863-4.305-14.32M141.988 384.873c-.571-2.747-1.197-5.549-2.665-7.979M147.372 380.07c-.418-1.252-.521-2.63-1.507-3.7"/></g><path fill="#000" d="M151.258 376.659l-60.556.153-2.565-3.528 69.748.009z"/><g stroke="#55A" stroke-linecap="round" stroke-linejoin="round" stroke-width="2"><path d="M21 434.014L1 446.987M21 425.988L1 438.96M21 417.962L1 430.935M21 409.936L1 422.909M21 401.91L1 414.883M21 393.884L1 406.857M21 385.858L1 398.831M21 377.833L1 390.806M21 369.807L1 382.78M21 361.78L1 374.755M21 353.755L1 366.728M21 345.73L1 358.701M15 341.695l-14 8.981M9 337.66l-8 4.99"/></g><path d="M206.781 357.214c.936-.03 1.572-1.186 1.906-2.058 1.134-2.963.765-6.477-.156-9.512a3.923 3.923 0 0 0-1.125-1.746c-5.269-4.72-15.177-3.532-19-9.48-4.05-6.304 1.21-15.225-.75-22.454a3.956 3.956 0 0 0-.844-1.559c-3.964-4.496-12.35-4.936-14.625-10.478-2.212-5.388 2.906-11.392 2.97-17.214a3.94 3.94 0 0 0-.188-1.248c-.875-2.713-1.752-5.738-3.906-7.609-.726-.63-1.868-1.382-2.726-.947-.857.435-.923 1.8-.837 2.756.234 2.616 3.2 4.42 3.594 7.017.902 5.946-3.754 11.797-3.094 17.775.078.704.372 1.41.812 1.965 3.79 4.777 12 5.29 14.875 10.665 3.564 6.661-1.531 15.44.75 22.64a3.93 3.93 0 0 0 1.125 1.716c5.29 4.698 15.233 3.497 19 9.48 1.475 2.341-.983 5.76.125 8.295.387.883 1.13 2.026 2.094 1.996z" fill="#FF5"/><path d="M195.038 350.55a3.496 3.496 0 0 1 3.5-3.492c1.933 0 3.5 1.563 3.5 3.492a3.496 3.496 0 0 1-3.5 3.493 3.496 3.496 0 0 1-3.5-3.493zM190.615 330.248a3.496 3.496 0 0 1 3.5-3.493c1.933 0 3.5 1.564 3.5 3.493a3.496 3.496 0 0 1-3.5 3.493 3.496 3.496 0 0 1-3.5-3.493zM174.03 317.67a3.496 3.496 0 0 1 3.5-3.493c1.933 0 3.5 1.563 3.5 3.492a3.496 3.496 0 0 1-3.5 3.493 3.496 3.496 0 0 1-3.5-3.493zM174.693 296.484a3.496 3.496 0 0 1 3.5-3.493c1.933 0 3.5 1.564 3.5 3.493a3.496 3.496 0 0 1-3.5 3.493 3.496 3.496 0 0 1-3.5-3.493zM160.54 282.581a3.496 3.496 0 0 1 3.5-3.492c1.933 0 3.5 1.563 3.5 3.492a3.496 3.496 0 0 1-3.5 3.493 3.496 3.496 0 0 1-3.5-3.493zM217.62 353.156l3.331-2.023s-9.276-11.826-12.795-16.934c-3.107-4.511-5.908-9.285-8.531-14.158-3.572-6.636-6.71-13.561-9.812-20.52-2.39-5.356-6.813-16.465-6.813-16.465l-3.719 1.466s4.43 11.07 6.907 16.621c3.109 6.973 6.279 13.973 9.937 20.77 2.665 4.95 5.496 9.853 8.719 14.532 3.798 5.514 12.777 16.71 12.777 16.71zM222.125 346.63c3.12-2.246 6.092-4.076 9.594-6.893 1.51-1.215 1.866-3.08 1.812-4.74-.054-1.66-.512-3.298-.906-4.584-.708-2.31-2.2-4.55-4.469-5.8-1.108-.611-2.433-1.143-3.844-1.341-1.41-.198-2.968-.09-4.28.81a218.553 218.553 0 0 1-9.532 6.206l1.562 2.558c3.27-2.003 6.389-4.06 9.657-6.3.453-.31 1.21-.445 2.156-.312.947.133 2.03.55 2.844.998 1.367.754 2.555 2.4 3.062 4.054.362 1.18.712 2.624.75 3.805.039 1.18-.217 1.935-.719 2.339-3.352 2.697-6.218 4.451-9.437 6.767l1.75 2.432zM208.281 326.764c3.099-1.73 6.46-3.073 9.75-5.426 1.305-.933 1.957-2.358 2.281-3.742.325-1.384.32-2.818.188-4.054-.276-2.598-1.607-5.117-3.687-6.767-1.087-.862-2.478-1.722-4-2.245-1.523-.524-3.299-.772-4.844.187-2.927 1.816-5.716 3.056-9.125 5.02l1.5 2.589c3.27-1.884 6.097-3.146 9.219-5.083.38-.237 1.202-.247 2.28.124 1.08.372 2.282 1.078 3.126 1.747 1.352 1.072 2.377 3.027 2.562 4.771.103.97.094 2.09-.125 3.025s-.61 1.597-1.125 1.965c-2.943 2.105-6.166 3.426-9.469 5.27l1.47 2.62zM196.531 306.494c3.716-1.78 5.71-2.899 10.313-6.08 1.289-.892 1.924-2.298 2.25-3.65.325-1.351.358-2.711.219-3.929-.334-2.917-1.785-6.024-4.438-7.734-1.117-.72-2.43-1.418-3.969-1.684-1.51-.26-3.238.006-4.843.998l-.032-.03-8.406 4.802 1.5 2.588 8.375-4.771c.021-.01.042-.02.063-.032 1.022-.652 1.878-.753 2.812-.592.934.161 1.94.645 2.875 1.247 1.617 1.043 2.82 3.397 3.063 5.52.104.917.092 2.03-.125 2.932-.218.901-.603 1.553-1.063 1.87-4.545 3.142-6.25 4.081-9.906 5.832l1.312 2.713z" fill="#FF5"/><path d="M181.688 287.827s10.758-6.22 16-10.166a87.209 87.209 0 0 0 13.517-12.675c4.235-4.905 7.992-10.381 10.688-16.372 2.626-5.836 4.436-11.74 5.357-17.918.793-5.317.821-10.72.469-15.998-.338-5.054-1.646-9.356-3.215-14.358-2.166-6.908-9.674-19.919-9.674-19.919l-2.607 3.39s6.637 11.873 8.469 17.714c1.42 4.53 2.73 8.541 3.058 13.454.34 5.077.3 10.178-.437 15.125-.89 5.96-2.664 11.528-5.076 16.889-2.498 5.549-6.024 10.726-10.063 15.405a83.115 83.115 0 0 1-12.893 12.082c-4.728 3.559-15.625 9.886-15.625 9.886l2.032 3.461z" fill="#FF5"/><path d="M242.317 337.26l3.147-2.236s-8.22-9.4-11.495-13.704c-2.662-3.498-5.187-7.109-7.406-10.853-4.332-7.306-8.125-14.94-11.594-22.733-1.518-3.411-3.695-9.588-4.156-10.884 1.333-1.374 7.888-8.188 11.25-13.004 3.655-5.237 7.048-10.861 9.312-16.996 2.556-6.927 4.28-14.324 4.531-21.798.296-8.794-1.08-17.651-3.593-26.009-2.687-8.935-12.362-25.47-12.362-25.47l-2.576 3.423s8.758 15.402 11.094 23.17c2.406 8.004 3.716 16.482 3.437 24.761-.233 6.945-1.842 13.94-4.281 20.55-2.09 5.666-5.297 11.01-8.844 16.092-3.217 4.61-11.718 13.441-11.718 13.441a2.038 2.038 0 0 0-.47 2.058s2.871 8.135 4.72 12.287c3.516 7.9 7.381 15.666 11.812 23.14 2.32 3.912 4.927 7.64 7.656 11.226 3.53 4.637 11.536 13.539 11.536 13.539z" fill="#FF5"/><path d="M230.594 317.297S233.1 299.003 236 290.79c3.365-9.532 8.267-18.583 13.969-27.006 5.314-7.851 12.1-14.77 18.812-21.736 4.896-5.083 9.892-10.054 15.375-14.346 4.592-3.593 16.844-10.79 16.844-10.79v-3.991s-13.69 8.531-18.688 12.443c-5.67 4.437-10.76 9.48-15.687 14.594-6.699 6.954-13.608 13.991-19.125 22.142-5.814 8.588-10.873 17.892-14.344 27.723-3.173 8.989-5.531 27.1-5.531 27.1l2.969.374zM263.848 321.733s.479-13.426 1.87-18.781c1.714-6.592 3.954-13.09 7.126-18.992 3.469-6.453 7.98-12.404 12.969-17.9 3.736-4.116 15.187-12.416 15.187-12.416v-5.024s-13.83 9.992-18.156 14.758c-5.148 5.67-9.863 11.887-13.531 18.711-3.378 6.284-5.703 13.073-7.47 19.865-1.602 6.165-1.995 22.722-1.995 22.722l4-2.943z" fill="#FF5"/><path d="M240.875 326.996c5.53-1.738 12.27-3.3 15.375-8.202.468-.739.54-1.85.125-2.62-2.181-4.048-8.628-3.788-11.875-7.047-2.452-2.462-6.247-5.647-5.281-8.982.85-2.934 5.207-3.39 8.156-4.21 4.103-1.14 9.355 1.725 12.75-.842.722-.546 1.12-1.678.906-2.557-.853-3.509-6.013-4.345-7.906-7.422-2.033-3.305-5.284-7.84-3.281-11.164 1.704-2.829 6.411-2.006 9.719-1.996 3.812.012 7.61 3.686 11.187 2.37.85-.313 1.578-1.25 1.656-2.152.35-4.02-4.572-6.83-5.625-10.727-.854-3.165-2.732-7.48-.437-9.824 2.417-2.469 6.995-.517 10.375.219 3.537.77 6.4 4.908 9.969 4.303.893-.151 1.762-.967 2-1.84 1.255-4.614-3.984-8.944-4.188-13.721-.112-2.634-.425-6.11 1.656-7.734 1.757-1.371 4.515-.282 6.688.218 1.167.27 2.164 1.9 3.281 1.466.93-.361 1.555-1.818 1.188-2.744-.51-1.286-2.46-1.352-3.813-1.653-2.756-.614-5.788-1.136-8.469-.25-.605.2-1.164.644-1.5 1.185-1.73 2.791-2.129 6.356-2.031 9.637.114 3.823 5.892 8.523 3.031 11.07-1.925 1.715-4.658-2.356-7.187-2.869-4.064-.823-8.591-1.794-12.438-.25-.67.27-1.269.858-1.531 1.529-1.463 3.741-.488 8.144.5 12.037.751 2.961 5.876 5.796 4.031 8.233-1.703 2.25-5.518-1.533-8.343-1.497-4.02.052-8.542.1-11.813 2.433-.6.428-1.034 1.171-1.125 1.902-.575 4.612 1.595 9.36 3.938 13.378 1.289 2.212 6.233 3.12 5.343 5.52-1.086 2.928-6.342-.005-9.343.873-3.613 1.058-7.65 2.268-10.032 5.177a2.848 2.848 0 0 0-.593 2.09c.54 4.177 3.493 7.863 6.437 10.883 2.745 2.816 10.138 2.342 10 6.268-.17 4.829-11.322 2.232-12.812 6.83-.307.946.361 2.98 1.312 2.682z" fill="#FF5"/><path d="M256.563 311.559c.936-.351 1.477-1.842 1.125-2.775-.712-1.884-3.768-1.54-5.407-2.714-.999-.716-2.954-1.405-2.625-2.588.333-1.195 2.386-.773 3.625-.873 1.947-.158 4.319 1.654 5.844.436.781-.623 1.064-2.184.438-2.962-1.367-1.699-4.356-.647-6.532-.468-2.306.19-5.08.023-6.75 1.622-.602.576-.898 1.595-.687 2.401.582 2.226 3.036 3.519 4.906 4.865 1.836 1.322 3.943 3.85 6.063 3.056zM237.156 320.977c2.39-1.375 3.793-1.71 6.625-3.524.64-.41.33-1.645-.093-2.277-.415-.618-1.379-.576-2.032-.935-.99-.544-2.073-1.016-2.843-1.84-.602-.643-.905-1.513-1.282-2.308-.254-.535-.117-1.404-.656-1.653-.76-.35-2.023.054-2.375.811-.278.597.43 1.248.719 1.84.511 1.053.98 2.172 1.781 3.025.938 1 3.48.94 3.406 2.308-.09 1.658-3.913.753-4.406 2.339-.247.795.434 2.63 1.156 2.214zM240.656 293.94c.82.113 1.304-1.02 2-1.466 1.084-.694 2.15-1.476 3.375-1.871.42-.136.873-.13 1.313-.156.301-.018.647.155.906 0 .647-.388 1.093-1.243 1.063-1.996-.052-1.294-1.57-2.09-2.094-3.275-.646-1.457.11-3.779-1.25-4.615-.706-.434-2.004-.206-2.438.499-.926 1.507.702 3.492 1.407 5.114.3.694 1.51 1.25 1.187 1.934-.125.266-.595.032-.875.125-1.442.478-2.718 1.368-4 2.183-.742.47-2.004.69-2.125 1.559-.114.822.708 1.85 1.531 1.964zM247.594 331.25c1.547.017 2.143-1.87 3.394-2.624 1.227-.74 3.435-.658 3.98-1.832.36-.775-.034-2.058-.968-2.357-1.719-.55-3.346 1.32-4.837 2.217-1.363.821-3.672 1.463-3.694 2.86-.014.824 1.13 1.724 2.125 1.735zM262.469 288.45c.3-.954 1.88-1.475 1.719-2.463-.107-.652-1.082-.765-1.594-1.185-.792-.65-1.639-1.26-2.281-2.058-.737-.914-1.226-2.006-1.75-3.056-.036-.071-.133-.15-.094-.218.036-.064.145-.026.219-.032 1.174-.083 2.366-.169 3.53 0 .904.132 1.763.482 2.626.78.56.194 1.107.882 1.656.655.922-.382 1.567-1.823 1.188-2.744-.244-.591-1.176-.51-1.782-.718-1.066-.367-2.134-.774-3.25-.935-1.381-.2-2.793-.098-4.187-.031-.806.038-1.729-.187-2.406.25-.66.423-1.14 1.245-1.188 2.026-.05.814.601 1.518.969 2.246.634 1.256 1.242 2.551 2.125 3.648.789.981 1.81 1.754 2.781 2.557.55.456 1.08 1.599 1.719 1.279zM274.688 267.744c.979.227 2.276-.706 2.5-1.684.335-1.467-1.712-2.505-2.282-3.898-.58-1.42-2.2-3.365-1.125-4.46.712-.723 2.013.343 2.969.686 1.468.528 2.693 2.537 4.188 2.09.956-.286 1.788-1.634 1.5-2.588-.5-1.656-3.029-1.716-4.657-2.308-1.863-.678-3.871-1.938-5.781-1.403-.794.222-1.531.952-1.75 1.746-.672 2.44.923 5.013 1.875 7.36.645 1.588.89 4.071 2.562 4.459zM291.781 251.528c.885.455 2.357-.116 2.813-.998.943-1.825-1.367-3.897-1.688-5.925-.181-1.151-1.04-2.77-.125-3.493.957-.756 2.469 1.565 3.531.967.868-.489 1.301-2.003.813-2.87-.938-1.663-3.65-1.874-5.531-1.527-.777.143-1.565.692-1.906 1.403-.865 1.801-.069 4.015.25 5.987.356 2.21-.15 5.431 1.843 6.456zM253.813 267.775c.997.29 1.764-1.192 2.78-1.403 1.053-.218 2.223.588 3.22.187.71-.286 1.724-.936 1.562-1.684-.495-2.28-2.154-5.414-1.437-6.954.35-.756-1.944-.746-2.5-.125-1.345 1.499 2.205 4.368.968 5.956-.507.651-1.672-.002-2.469.219-1.216.336-3.043.446-3.406 1.652-.24.8.479 1.919 1.281 2.152zM278.281 246.351c.611.197.949-.943 1.125-1.56.64-2.233 1.052-5.194-.469-6.953-.543-.629-1.793-1.056-2.437-.53-1.58 1.29 1.576 4.71.094 6.112-1.524 1.44-4.94-2.048-6.281-.437-.53.636.003 1.855.625 2.401 1.726 1.517 4.571.516 6.843.874.168.026.392-.037.5.093zM296.844 227.952c.27-.785 1.766-1.169 1.531-1.965-.312-1.056-2.038-.9-3.125-1.091-.77-.136-1.754-.543-2.344-.031-.626.543-.853 1.836-.312 2.463.55.639 1.7-.08 2.531.063.594.102 1.23.914 1.719.561zM218.469 341.796c2.448-1.815 5.1-3.003 7.875-5.894 1.305-1.36 1.203-3.28.437-4.491-.522-.827-1.292-1.312-2.125-1.622-.833-.31-1.756-.473-2.719.032-3.479 1.824-5.063 3.205-7.812 5.083l1.406 2.058c2.853-1.948 4.27-3.232 7.563-4.958-.087.045.276-.029.687.124.412.153.817.482.906.624.295.466.417.87-.125 1.434-2.445 2.55-4.882 3.604-7.593 5.614.536.64 1.032 1.306 1.5 1.996zM205.75 321.276c2.029-1.127 4.358-1.479 7-3.243 1.04-.695 1.579-1.81 1.781-2.932.203-1.12.08-2.327-.625-3.337-.637-.914-1.616-1.283-2.562-1.434-.947-.15-1.936-.11-2.813.468-2.407 1.583-3.835 1.976-6.344 3.804l1.47 2.027c2.272-1.656 3.633-2.02 6.25-3.742.09-.06.598-.167 1.062-.093.464.074.837.306.906.405.173.247.297.857.187 1.466-.11.608-.433 1.14-.687 1.31-2.172 1.45-4.357 1.736-6.844 3.118l1.219 2.183zM194.25 301.255s5.258-2.492 8.438-4.646c1.067-.724 1.305-1.866 1.343-2.932.039-1.066-.176-2.193-1-3.087-1.541-1.672-4.069-1.554-5.968-.437-2.076 1.221-6.625 4.085-6.625 4.085l1.343 2.09s4.59-2.862 6.563-4.023c1.073-.631 2.386-.527 2.844-.031.111.121.364.726.343 1.31-.02.583-.345 1.03-.25.966-2.852 1.934-8.093 4.46-8.093 4.46l1.062 2.245z" fill="#FF5"/><path d="M284.164 225.598c-1.472-8.176-2.269-15.828-4.561-23.368-2.439-8.023-5.704-15.832-9.637-23.241-2.85-5.37-6.31-10.424-10.038-15.227-5.29-6.813-11.914-13.145-17.402-19.156" stroke="#FF5" stroke-width="4" stroke-linejoin="round"/><path d="M175.424 258.616c4.549-3.196 9.155-8.24 11.982-11.86 2.364-3.025 4.692-6.299 6.282-10.041 1.74-4.097 2.729-8.483 3.187-12.817.481-4.554.572-10.899-1.656-16.778l-2.75 4.086c.45 2.938.812 8.444.406 12.286-.426 4.027-1.327 8.02-2.875 11.664-1.363 3.208-3.463 6.24-5.75 9.168-2.512 3.216-4.888 6.908-8.906 9.23l.08 5.062z" fill="#FF5"/><g fill="#FF5"><path d="M189.125 269.004a3.496 3.496 0 0 1 3.5-3.493c1.933 0 3.5 1.564 3.5 3.493a3.496 3.496 0 0 1-3.5 3.493 3.496 3.496 0 0 1-3.5-3.493zM181.399 268.093a3.496 3.496 0 0 1 3.5-3.493c1.933 0 3.5 1.564 3.5 3.493a3.496 3.496 0 0 1-3.5 3.492 3.496 3.496 0 0 1-3.5-3.492zM189.13 261.175a3.496 3.496 0 0 1 3.5-3.492c1.933 0 3.5 1.563 3.5 3.492a3.496 3.496 0 0 1-3.5 3.493 3.496 3.496 0 0 1-3.5-3.493z"/></g><g fill="#FF5"><path d="M203.614 254.291a3.496 3.496 0 0 1 2.368-4.34 3.496 3.496 0 0 1 4.346 2.358 3.496 3.496 0 0 1-2.368 4.341 3.496 3.496 0 0 1-4.346-2.359zM195.946 255.605a3.496 3.496 0 0 1 2.368-4.34 3.496 3.496 0 0 1 4.345 2.358 3.496 3.496 0 0 1-2.367 4.34 3.496 3.496 0 0 1-4.346-2.358zM201.402 246.782a3.496 3.496 0 0 1 2.367-4.341 3.496 3.496 0 0 1 4.346 2.359 3.496 3.496 0 0 1-2.368 4.34 3.496 3.496 0 0 1-4.345-2.358z"/></g><g fill="#FF5"><path d="M211.208 233.784a3.496 3.496 0 0 1 1.46-4.725 3.496 3.496 0 0 1 4.727 1.45 3.496 3.496 0 0 1-1.46 4.724 3.496 3.496 0 0 1-4.727-1.45zM203.953 236.593a3.496 3.496 0 0 1 1.46-4.724 3.496 3.496 0 0 1 4.727 1.45 3.496 3.496 0 0 1-1.46 4.724 3.496 3.496 0 0 1-4.727-1.45zM207.55 226.863a3.496 3.496 0 0 1 1.46-4.725 3.496 3.496 0 0 1 4.726 1.45 3.496 3.496 0 0 1-1.459 4.724 3.496 3.496 0 0 1-4.727-1.45z"/></g><g fill="#FF5"><path d="M212.811 208.896a3.496 3.496 0 0 1-1.216-4.792 3.496 3.496 0 0 1 4.79-1.227 3.496 3.496 0 0 1 1.216 4.793 3.496 3.496 0 0 1-4.79 1.226zM208.083 215.075a3.496 3.496 0 0 1-1.216-4.793 3.496 3.496 0 0 1 4.79-1.226 3.496 3.496 0 0 1 1.216 4.792 3.496 3.496 0 0 1-4.79 1.227zM206.082 204.896a3.496 3.496 0 0 1-1.217-4.793 3.496 3.496 0 0 1 4.79-1.226 3.496 3.496 0 0 1 1.217 4.792 3.496 3.496 0 0 1-4.79 1.227z"/></g><path fill="#55A" d="M174.865 268.862l-12.677-.202 4.87-10.934h-4.87l-5.68 10.731h-13.19l4.668-10.529h-5.479l-4.87 10.732h-14.202l4.87-10.934h-4.464l2.637-4.86 8.725.608-5.073 10.326h4.667l5.275-10.731 14.61.405-4.668 9.921h4.464l5.276-10.529 14.203.405-5.682 10.53 4.261.202 2.232-3.645z"/><path fill="#FF5" d="M179.435 258.94l8.319 4.455-3.855-8.706zM191.52 246.514l8.93 3.056-5.213-7.971zM198.898 230.253l9.412-.735-7.956-5.25zM200.104 213.094l7.194-6.1-9.53.4zM223.13 280.091l-8.342-4.409 3.903 8.686zM232.895 268.285l-9.06-2.649 5.57 7.728zM240.65 253.376l-9.42-.618 7.121 6.332zM245.588 236.945l-9.333 1.419 8.32 4.655zM247.356 221.97l-8.964 2.954 8.982 3.204zM246.153 206.919l-8.41 4.283 9.367 1.8zM241.838 191.915l-7.031 6.287 9.516-.65zM236.112 178.225l-7.03 6.287 9.515-.65zM229.123 166.139l-6.034 7.245 9.318-2.032z"/><path d="M294.429 289.448c-4.753 4.235-8.941 8.692-13.707 12.704-4.003 3.37-8.318 6.352-12.477 9.528.237-1.693.36-3.403.713-5.081.45-2.146 1.188-4.235 1.782-6.352 3.446-2.012 6.747-4.236 10.338-6.035a62.094 62.094 0 0 1 7.486-3.176c1.914-.661 3.726-1.059 5.865-1.588zM295.87 284.48c-3.228 1.073-6.505 2.032-9.685 3.222-2.233.835-4.475 1.675-6.587 2.744-2.346 1.188-4.477 2.705-6.716 4.058.387-1.631.475-3.349 1.162-4.893.582-1.306 1.636-2.387 2.454-3.58 2.325-.676 4.585-1.583 6.974-2.029 2.247-.42 4.557-.715 6.845-.597 1.889.098 3.703.716 5.554 1.074zM296.012 280.384c-2.346-.12-4.69-.346-7.038-.36-1.648-.011-3.304-.02-4.942.19-1.819.233-3.595.79-5.393 1.185.704-1.168 1.244-2.494 2.114-3.504.736-.854 1.707-1.389 2.561-2.084 1.662.163 3.348.126 4.985.49 1.54.34 3.086.799 4.5 1.577 1.168.641 2.142 1.67 3.213 2.506zM296.511 275.982c-1.626-.807-3.214-1.694-4.878-2.42-1.168-.51-2.342-1.02-3.58-1.357-1.375-.374-2.832-.486-4.247-.729.907-.685 1.753-1.543 2.723-2.056.821-.434 1.698-.55 2.547-.826 1.125.631 2.337 1.116 3.374 1.894.976.732 1.916 1.555 2.65 2.585.607.85.94 1.94 1.411 2.909zM297.71 269.838c-.956-.824-1.881-1.715-2.87-2.471-.693-.53-1.39-1.063-2.144-1.447-.836-.427-1.748-.63-2.622-.945.636-.534 1.247-1.224 1.908-1.602.558-.321 1.124-.36 1.686-.539.655.634 1.379 1.146 1.966 1.902.552.711 1.072 1.5 1.445 2.454.307.788.421 1.765.632 2.648z" stroke="#F55" stroke-width="2" fill="#F55" stroke-linecap="round" stroke-linejoin="round"/><path d="M226.805 307.52c-1.257-2.598-2.876-5.35-4.204-8.082-1.57-3.228-2.962-6.54-4.444-9.81 2.963-3 6.173-5.777 8.888-9.003 3.829-4.549 7.401-9.362 10.368-14.512 3.044-5.284 5.624-10.877 7.541-16.663 1.788-5.397 2.925-11.023 3.636-16.663.623-4.936.754-9.945.539-14.916-.238-5.5-.875-11.008-2.02-16.394-1.023-4.81-2.555-9.515-4.31-14.11-1.83-4.794-3.913-9.52-6.463-13.975-2.112-3.69-4.847-6.987-7.271-10.48l11.042-14.917c4.802 5.465 9.922 10.668 14.408 16.394 4.41 5.629 8.746 11.375 12.254 17.604 2.787 4.95 4.937 10.25 6.91 15.576 1.61 4.342 2.904 8.804 4 13.302 1.096 4.502 1.615 9.829 2.567 13.66-2.983 2.82-8.574 8.036-12.708 12.208-4.36 4.4-8.83 8.723-12.75 13.516-5.49 6.71-10.569 13.794-15.006 21.239-3.149 5.283-6.078 10.757-8.188 16.533-2.297 6.285-3.77 12.803-4.789 19.493z" fill="#F55"/><path d="M184.072 371.156a90.39 90.39 0 0 0 12.602-5.083c7.905-3.889 15.276-8.782 22.79-13.378 8.497-5.198 17.01-10.39 25.203-16.054a322.243 322.243 0 0 0 19.304-14.448c7.285-5.887 14.303-12.106 21.181-18.461 5.43-5.018 10.933-10.346 15.848-15.519" stroke="#55A" stroke-width="2" stroke-linecap="round" stroke-linejoin="round"/><path d="M167.621 243.34s-.273 1.669-.8 2.195c-.527.526-1.454.798-2.2.798-.745 0-1.673-.272-2.2-.798-.527-.526-.8-1.452-.8-2.196 0-.743.4-1.796.8-2.195.4-.4.8-.599 1.2-.998.4-.4.6-.4 1-.798l1-.998c.4-.4 1-1.198 1.4-1.996.4-.798.6-1.996.6-1.996s.2 1.198.6 1.996c.4.798 1 1.597 1.4 1.996l1 .998c.4.399.6.399 1 .798.4.4.8.599 1.2.998.4.4.8 1.452.8 2.195 0 .744-.273 1.67-.8 2.196-.527.526-1.454.798-2.2.798-.745 0-1.673-.272-2.2-.798-.527-.526-.8-2.196-.8-2.196z" fill="#F55"/><path d="M259.229 326.36c.766 3.233.715 6.778 2.298 9.702 1.466 2.708 3.754 5.062 6.364 6.703 1.624 1.021 3.56 1.72 5.48 1.764 2.015.046 4.01-.731 5.833-1.587 1.76-.827 3.285-2.103 4.773-3.352 1.148-.964 2.608-1.793 3.182-3.176.339-.814.366-1.843 0-2.646-.517-1.138-1.679-1.972-2.828-2.47-1.087-.47-2.4-.687-3.536-.352-1.085.32-1.808 1.363-2.651 2.117-.994.887-1.886 1.881-2.829 2.822-.176-.647-.115-1.413-.53-1.94-.749-.953-2.121-1.176-3.182-1.764.943-.882 2.139-1.556 2.828-2.647.726-1.148 1.099-2.53 1.238-3.88.176-1.706.153-3.544-.53-5.116-.715-1.645-2.357-2.705-3.536-4.058" stroke="#55A" stroke-width="2" stroke-linecap="round" stroke-linejoin="round"/><path d="M282.973 339.984c-.984.55-2.718-.96-3.061-2.158-.335-1.166.575-2.475 1.414-3.352.946-.99 2.475-1.176 3.712-1.764M276.906 344.706c1.827 1.94 3.08 4.659 5.48 5.821a5.91 5.91 0 0 0 4.066.353c1.417-.404 2.737-1.41 3.536-2.646.589-.911.92-2.112.707-3.176-.241-1.2-1.27-2.118-2.121-2.998-1.08-1.118-2.475-1.882-3.713-2.823" stroke="#55A" stroke-width="2" stroke-linecap="round" stroke-linejoin="round"/><path d="M290.165 343.118c1.178-.118 2.474.173 3.535-.353 1.008-.5 2.006-1.385 2.298-2.47.345-1.28-.196-2.745-.884-3.88-1.363-2.249-3.882-3.569-6.01-5.116-1.903-1.384-3.899-2.665-6.01-3.705-1.188-.585-2.423-1.712-3.713-1.411-1.096.255-1.982 1.391-2.298 2.47-.185.63.085 1.34.354 1.94.274.612.825 1.058 1.237 1.588M283.477 331.111c.618-.318.927-1.253 1.264-2.132M294.054 333.768c1.001-.823 2.356-1.348 3.005-2.47.537-.929.858-2.153.53-3.175-.28-.87-1.318-1.272-1.944-1.94-.856-.913-1.477-2.067-2.475-2.823-1.197-.906-2.63-1.502-4.066-1.94-1.538-.47-3.177-.9-4.773-.706-1.075.131-2.402.337-3.005 1.235-.525.782-.361 1.953 0 2.822.382.922 1.257 1.614 2.121 2.117.95.554 2.112 1.139 3.182.882.933-.223 1.67-1.096 2.121-1.94.366-.682.46-1.527.354-2.293-.097-.704-.59-1.294-.884-1.94" stroke="#55A" stroke-width="2" stroke-linecap="round" stroke-linejoin="round"/><path d="M295.998 324.419c.648-.53 1.586-.833 1.945-1.588.353-.744.295-1.701 0-2.47-.568-1.477-1.86-2.654-3.182-3.528-1.507-.996-3.373-1.328-5.127-1.764-1.1-.274-2.311-.962-3.359-.53-.74.307-1.274 1.154-1.414 1.941-.15.843.176 1.798.707 2.47.67.847 1.75 1.51 2.829 1.588.818.059 1.7-.32 2.298-.882.518-.488.762-1.24.884-1.941.121-.698-.118-1.411-.177-2.117M289.634 310.659l-2.121-3.176-3.359-2.293" stroke="#55A" stroke-width="2" stroke-linecap="round" stroke-linejoin="round"/><path d="M293.877 315.422c.471-1.882 1.15-3.724 1.414-5.645.281-2.04.118-4.117.177-6.175l-4.596.177c.059 2.175.37 4.359.176 6.527-.128 1.436-.589 2.822-.883 4.234l3.712.882zM281.326 350.88c-1.591 2.587-2.6 5.638-4.773 7.762a22.687 22.687 0 0 1-9.37 5.469c-2.886.841-6.008.294-9.015.352-3.594.07-7.224-.502-10.783 0-2.733.387-5.428 1.187-7.955 2.294-1.768.774-3.608 1.614-4.95 2.999-.752.776-1.06 1.881-1.591 2.822.236-2.47-.011-5.034.707-7.409a22.045 22.045 0 0 1 4.066-7.585c2.078-2.516 4.673-4.728 7.601-6.175 2.553-1.261 5.49-1.58 8.309-1.996 4.029-.595 8.127-.57 12.197-.705 2.297-.077 4.66.47 6.895-.061 1.854-.441 3.417-1.354 5.126-2.53l3.536 4.763h0z" stroke="#55A" stroke-width="2" fill="#FF5" stroke-linecap="round" stroke-linejoin="round"/><path d="M241.953 362.788l5.176-3.557.05 1.088 6.88-1.92-1.065 1.677 10.337-2.395c.064-.006-1.414 1.582-1.353 1.567l10.084-3.032c.227-.044-.241 1.32-.058 1.18l7.905-8.074-.59-.662-8.894 4.562 1.516.438-8.965.723.817.722-10.845-.398 1.396.854c-.106.01-10.307 1.962-10.409 1.994l1.784.532c-1.27.696-4.04 1.344-5.032 1.945-.991.6 1.001.474.943.508l-3.713 3.099 3.984-1.843.052.992z" stroke="#55A" fill="#55A" stroke-linecap="round" stroke-linejoin="round"/></g></g></svg>