<?xml version="1.0" encoding="UTF-8"?>
<svg width="111px" height="170px" viewBox="0 0 111 170" version="1.1" xmlns="http://www.w3.org/2000/svg" xmlns:xlink="http://www.w3.org/1999/xlink">
    <!-- Generator: Sketch 64 (93537) - https://sketch.com -->
    <title>joker</title>
    <desc>Created with Sketch.</desc>
    <g id="Page-1" stroke="none" stroke-width="1" fill="none" fill-rule="evenodd">
        <g id="joker" transform="translate(-1.000000, -1.000000)" fill-rule="nonzero">
            <g transform="translate(0.594100, 0.703500)">
                <polygon id="path576" fill="#CC2222" points="73.546 160.729 72.831 162.116 73.569 166.937 75.492 166.603 79.304 164.013 75.067 159.964"></polygon>
                <path d="M109.704,29.995 C107.84,27.003 106.914,25.201 107.109,24.021 C107.287,22.947 108.569,21.578 105.89,19.449 C104.301,18.186 97.531,20.079 102.176,25.696 C106.501,26.238 105.924,25.308 104.986,29.928 C98.491,36.595 94.84,34.473 88.811,32.939 C81.395,31.688 79.776,36.253 76.512,33.387 C73.658,23.687 78.282,27.417 79.758,28.013 C83.094,26.592 82.274,27.611 83.138,23.646 C81.411,20.884 82.28,21.547 79.524,20.792 C77.25,21.85 78.066,21.107 75.978,24.251 C71.036,26.405 68.303,27.234 68.818,36.074 C71.296,41.327 70.936,40.027 70.892,42.088 C66.954,48.22 68.038,45.686 65.973,53.006 C63.258,55.353 63.828,54.212 63.664,57.841 C62.859,59.859 58.044,56.843 58.243,62.747 C50.573,58.143 48.608,60.15 38,65.064 C32.417,66.555 34.4,66.332 29.301,66.206 C28.592,66.561 27.325,66.181 32.849,71.547 C34.913,71.42 33.858,71.634 37.633,70.507 C38.311,70.948 41.861,71.855 37.834,75.881 C35.799,75.929 33.583,75.122 29.406,82.52 C28.804,83.585 28.645,84.969 28.164,86.496 C37.357,84.805 35,85.627 39.006,83.002 C42.626,75.02 45.053,78.952 45.863,81.727 C43.939,85.043 45.183,84.259 40.543,84.917 C36.499,88.938 37.821,86.688 34.89,95.197 C36.825,97.03 43.076,94.605 47.404,91.601 C47.903,88.971 48.365,85.302 53.493,87.604 C54.372,89.998 54.486,88.96 52.924,91.971 C47.603,93.556 48.247,92.467 45.145,102.284 C45.145,106.986 44.473,106.217 47.739,105.71 C54.102,102.679 53.978,103.152 57.474,99.261 C55.443,90.515 62.124,93.385 62.225,93.416 C63.516,95.489 64.825,96.091 58.646,99.362 C58.802,110.21 58.538,107.903 59.516,110.848 C60.991,111.247 61.802,112.812 69.219,103.258 C69.157,97.692 68.693,96.288 73.133,96.036 C77.318,98.551 73.594,101.056 71.56,102.652 C71.769,105.842 71.588,110.244 74.237,111.789 C81.023,106.025 79.502,107.692 81.399,104.265 C80.237,100.462 78.743,98.393 83.239,96.943 C86.501,99.589 86.365,98.751 84.275,103.728 C86.124,110.057 85.094,107.973 88.592,112.966 C88.939,112.958 91.589,114.021 93.342,104.232 C91.116,100.574 91.342,100.913 92.841,98.521 C95.096,98.481 94.404,98.06 95.719,100.369 C94.415,104.626 93.691,107.732 103.782,112.463 C104.934,111.516 105.032,114.49 97.057,94.593 C96.253,87.173 96.604,89.697 95.55,83.44 C92.224,78.068 94.072,79.947 87.087,75.311 C87.165,68.219 86.979,70.314 87.822,65.871 C95.598,60.58 94.577,60.621 99.365,64.158 C101.106,68.662 101.19,68.108 98.695,68.156 C96.313,69.499 96.949,68.58 96.087,72.088 C98.688,76.631 99.835,75.484 102.208,74.472 C104.016,69.807 101.399,71.049 103.915,67.486 C106.271,60.02 100.34,57.99 102.889,51.869 C105.335,48.723 106.701,47.065 107.964,45.585 C111.774,36.897 110.394,33.753 109.704,29.995 Z M89.619,57.066 C81.722,62.111 84.594,60.996 77.032,62.328 L72.23,61.336 L69.972,58.112 C70.152,50.938 69.493,53.531 72.548,46.742 L75.777,41.955 L81.012,39.035 C81.012,39.035 82.607,38.858 83.242,38.762 L86.321,38.558 L88.508,40.307 C87.957,43.417 88.003,42.619 88.228,43.979 C91.443,44.279 90.183,43.927 93.769,45.667 L94.214,48.492 C92.627,53.828 93.621,51.86 89.619,57.066 Z" id="Shape" fill="#333333"></path>
                <polygon id="rect580" fill="#333333" points="88.332 32.726 88.719 33.182 82.193 39.035 81.807 38.578"></polygon>
                <polygon id="path582" fill="#333333" points="26.241 69.519 29.199 70.188 31.281 73.743 28.989 84.826 23.034 95.951 13.91 105.362 5.871 105.362 4.579 103.604 14.826 94.32 23.034 80.853"></polygon>
                <polygon id="path584" fill="#333333" points="78.634 112.101 79.92 111.132 83.615 110.218 84.794 111.293 86.775 118.822 87.472 122.907 86.936 130.542 83.883 142.965 81.633 148.448 77.991 153.18 73.545 156.244 73.866 154.094 77.616 147.91 79.812 141.404 81.792 132.639 82.489 126.402 81.525 119.412 78.74 114.411"></polygon>
                <g id="g596" transform="translate(0.880000, 0.400000)">
                    <polygon id="path598" fill="#333333" points="49.708 10.383 53.45 10.711 55.509 15.403 53.933 18.819 48.757 18.181 47.925 13.337"></polygon>
                    <polygon id="path600" fill="#333333" points="61.361 5.67 64.436 4.165 65.663 4.593 66.105 6.187 66.105 7.68 65.234 10.197 62.204 12.932 56.886 14.152 56.504 12.679 58.397 12.086 60.99 9.537"></polygon>
                    <path d="M24.74,7.781 C24.74,8.966 23.839,9.926 22.727,9.926 C21.615,9.926 20.715,8.966 20.715,7.781 C20.715,6.596 21.615,5.636 22.727,5.636 C23.839,5.636 24.74,6.596 24.74,7.781 Z" id="path602" fill="#333333"></path>
                    <path d="M29.443,18.655 C29.443,19.755 28.505,20.646 27.348,20.646 C26.191,20.646 25.253,19.754 25.253,18.655 C25.253,17.556 26.191,16.665 27.348,16.665 C28.505,16.665 29.443,17.555 29.443,18.655 Z" id="path604" fill="#333333"></path>
                    <path d="M39.953,34.912 C39.953,36.058 38.935,36.988 37.681,36.988 C36.425,36.988 35.409,36.058 35.409,34.912 C35.409,33.766 36.426,32.837 37.681,32.837 C38.935,32.837 39.953,33.765 39.953,34.912 Z" id="path606" fill="#333333"></path>
                    <path d="M48.379,40.497 C48.379,41.76 47.382,42.783 46.153,42.783 C44.924,42.783 43.926,41.76 43.926,40.497 C43.926,39.234 44.923,38.211 46.153,38.211 C47.382,38.211 48.379,39.234 48.379,40.497 Z" id="path608" fill="#333333"></path>
                    <path d="M57.268,43.313 C57.268,44.706 56.257,45.834 55.012,45.834 C53.766,45.834 52.756,44.705 52.756,43.313 C52.756,41.921 53.766,40.792 55.012,40.792 C56.258,40.793 57.268,41.921 57.268,43.313 Z" id="path610" fill="#333333"></path>
                    <path d="M33.959,28.045 C34.285,28.582 33.984,29.359 33.286,29.783 C32.589,30.207 31.758,30.115 31.432,29.579 C31.106,29.042 31.407,28.265 32.104,27.841 C32.802,27.417 33.632,27.509 33.959,28.045 Z" id="path612" fill="#333333"></path>
                    <path d="M39.365,24.437 C39.365,24.938 39.014,25.343 38.582,25.343 C38.15,25.343 37.798,24.938 37.798,24.437 C37.798,23.936 38.15,23.53 38.582,23.53 C39.014,23.53 39.365,23.936 39.365,24.437 Z" id="path614" fill="#333333"></path>
                    <path d="M28.247,33.121 C28.341,33.228 28.267,33.445 28.056,33.685 C27.845,33.925 27.53,34.149 27.236,34.269 C26.943,34.389 26.719,34.384 26.654,34.256 C26.56,34.149 26.633,33.932 26.845,33.692 C27.056,33.452 27.371,33.227 27.664,33.108 C27.957,32.989 28.181,32.994 28.247,33.121 Z" id="path616" fill="#333333"></path>
                    <polygon id="rect618" fill="#333333" points="11.599 44.064 15.288 40.623 17.01 42.364 13.322 45.804"></polygon>
                    <polygon id="rect620" fill="#333333" points="4.022 49.731 9.398 45.377 10.931 47.153 5.555 51.508"></polygon>
                    <path d="M2.327,52.662 C2.507,52.864 2.52,53.184 2.362,53.495 C2.204,53.806 1.901,54.056 1.572,54.145 C1.244,54.235 0.944,54.151 0.792,53.925 C0.613,53.723 0.6,53.403 0.758,53.092 C0.915,52.781 1.219,52.531 1.547,52.442 C1.875,52.353 2.175,52.436 2.327,52.662 Z" id="path622" fill="#333333"></path>
                    <polygon id="path624" fill="#333333" points="1.776 109.078 3.196 108.566 5.247 109.663 7.101 111.399 7.121 113.241 3.16 115.309 1.175 113.987 1.372 110.03"></polygon>
                    <path d="M23.171,49.828 C21.638,70.16 20.964,66.273 24.527,70.422 C21.157,83.408 22.616,81.042 18.401,82.958 C8.772,79.317 10.475,80.785 9.986,76.652 C13.746,58.207 12.122,64.262 16.772,51.035 C17.781,49.394 21.664,47.542 23.171,49.828 Z" id="path626" fill="#CC2222"></path>
                    <polygon id="path628" fill="#CC2222" points="60.29 124.05 72.829 121.166 76.08 119.768 78.445 119.542 79.063 120.686 79.119 126.338 78.12 127.285 60.416 128.682 58.602 128.358 58.476 125.941"></polygon>
                    <g id="Group">
                        <path d="M85.105,48.145 L88.01,49.708 L90.334,51.45 C90.189,48.777 87.499,47.436 85.105,48.145 Z" id="Path" fill="#333333"></path>
                        <path d="M83.556,50.285 L82.587,50.285 C82.771,52.838 86.16,54.424 88.398,54.757 C88.394,53.491 88.339,51.299 87.375,50.366 C86.434,49.457 83.866,48.383 83.556,50.285 Z M83.922,50.423 C84.081,50.134 84.973,49.135 85.98,50.084 C85.644,50.172 84.5,50.553 84.3,52.23 C83.758,52.116 83.663,50.969 83.922,50.423 Z M87.737,53.921 C87.589,54.07 86.041,53.94 84.723,52.599 C86.596,52.222 86.592,50.811 86.59,50.618 C87.523,51.302 88.125,53.531 87.737,53.921 Z" id="Shape" fill="#333333"></path>
                        <path d="M87.429,43.479 C87.573,42.347 88.228,40.916 87.817,39.785 C86.393,35.862 79.412,38.42 77.165,39.744 C71.714,42.956 68.057,49.811 68.951,56.12 C69.074,56.991 68.836,57.779 69.172,58.647 C70.677,62.538 75.955,62.156 79.296,61.791 C86.715,60.98 95.299,52.655 93.046,44.841 C90.7,43.28 89.139,43.479 87.429,43.479 Z M77.088,42.058 C77.46,41.683 77.67,41.679 78.69,42.278 C78.26,42.216 77.172,42.861 77.125,43.605 C77.125,43.605 76.888,43.09 76.854,42.822 C76.807,42.453 76.677,42.47 77.088,42.058 Z M79.026,42.682 C80.286,44.124 80.897,49.363 77.289,44.107 C77.839,44.291 78.985,43.719 79.026,42.682 Z M90.386,53.784 C84.048,62.317 69.423,65.402 69.416986,55.34 C69.414,51.569 70.372,48.981 72.379,45.813 C77.609,37.555 74.734,45.563 79.488,46.98 L77.357,49.119 C79.374,48.771 81.989,47.575 82.864,45.619 C83.761,43.612 81.909,40.175 79.681,39.98 C80.189,41.814 83.874,45.23 80.455,46.396 C80.455,43.992 80.068,41.412 77.163,41.341 C78.012,38.51 85.295,37.496 87.091,39.852 C88.001,41.045 86.196,42.809 87.32,43.745 C88.933,45.089 92.075,43.394 92.934,46.396 C93.679,48.993 91.833,51.836 90.386,53.784 Z" id="Shape" fill="#333333"></path>
                        <path d="M80.844,55.534 C78.961,55.249 77.035,53.223 75.809,51.84 C75.366,51.34 74.84,50.021 74.066,50.021 C71.881,50.021 72.274,54.434 73.194,55.492 C74.809,57.349 78.715,56.904 80.844,56.508 L79.489,58.647 C82.94,58.106 81.619,54.964 80.651,52.814 C79.682,53.74 80.564,54.488 80.844,55.534 Z M74.066,50.868 L78.52,55.923 C76.061,55.923 71.969,53.978 74.066,50.868 Z" id="Shape" fill="#333333"></path>
                        <path d="M58.379,7.897 L59.153,9.258 C60.42,8.481 59.734,7.252 58.379,7.897 Z" id="Path" fill="#333333"></path>
                        <path d="M71.354,51.645 L73.678,48.535 C72.063,48.643 70.962,50.026 71.354,51.645 Z" id="Path" fill="#333333"></path>
                        <path d="M80.263,52.229 C80.166,50.962 79.03,50.479 77.939,50.089 C77.746,51.385 79.101,52.102 80.263,52.229 Z" id="Path" fill="#333333"></path>
                        <path d="M61.671,66.811 C62.833,71.828 68.635,74.431 73.098,75.514 C74.844,75.938 77.812,76.262 79.102,74.783 C75.146,73.755 71.535,73.8 67.87,71.554 C65.933,70.367 63.896,67.006 61.671,66.811 Z" id="Path" fill="#CC2222"></path>
                        <path d="M74.519,67.251 C75.301,66.391 70.93,65.087 70.335,65.651 C69.878,66.084 70.663,66.657 70.967,66.835 C71.785,67.313 73.68,68.174 74.519,67.251 Z" id="Path" fill="#CC3333"></path>
                        <path d="M108.798,28.704 C108.245,27.285 107.005,26.17 106.484,24.825 C106.22,24.145 106.925,23.377 106.968,22.677 C107.12,20.2 105.633,17.849 102.922,18.086 C100.115,18.332 98.195,21.76 99.771,24.232 C100.798,25.845 102.686,26.31 104.471,25.982 C104.425,31.444 98.322,34.401 93.432,33.675 C90.625,33.258 88.462,31.692 85.492,31.822 C82.371,31.959 78.027,34.037 76.866,33.37 C74.249,31.865 75.38,28.748 75.614,26.564 C82.57,31.469 84.969,21.488 79.876,20.239 C78.394,19.875 76.647,20.468 75.74,21.712 C75.321,22.287 75.297,23.207 74.739,23.66 C73.637,24.554 71.834,24.661 70.618,25.629 C68.032,27.687 67.18,31.815 67.512,34.925 C67.996,39.463 70.173,39.885 69.569,41.503 C68.801,43.557 67.03,45.38 66.087,47.402 C65.358,48.963 65.466,50.925 64.683,52.387 C63.9,53.851 61.65,53.392 62.443,57.673 C59.731,57.033 56.317,58.982 57.02,61.951 C55.848,61.136 54.352,59.989 52.953,59.642 C45.636,57.832 37.641,65.925 31.068,65.643 C30.099,65.601 28.689,65.089 27.83,65.649 C26.353,66.61 28.546,67.945 28.937,68.67 C29.908,70.467 23.583,67.289 22.933,65.971 C22.264,64.616 24.277,49.115 24.077,46.586 C24.02,45.876 23.599,45.174 23.939,44.48 C24.431,43.477 25.411,42.697 25.962,41.692 C26.721,40.311 26.98,38.738 28.101,37.568 C29.33,36.284 31.715,35.122 32.557,33.508 C32.934,32.784 32.243,32.118 32.537,31.46 C32.86,30.74 32.768,31.523 39.587,26.121 C40.161,25.666 41.028,24.293 41.816,25.075 C43.346,26.591 42.385,32.234 40.307,32.976 C39.203,33.371 38.12,31.8 36.685,32.393 C35.668,32.813 35.145,33.861 35.136,34.921 C35.105,38.687 41.237,38.061 40.171,34.337 C44.763,33.077 43.809,27.149 44.859,23.644 C44.891,23.537 47.87,17.766 49.32,19.799 C50.056,20.832 49.214,24.227 49.273,25.588 C49.42,28.946 50.446,32.008 49.157,35.31 C48.868,36.049 48.603,37.254 47.877,37.664 C47.362,38.214 45.728,37.897 44.699,38.378 C42.779,39.746 43.218,44.125 47.036,42.772 C49.094,42.043 47.986,40.646 48.97,39.348 C49.995,37.995 51.632,37.159 52.566,35.701 C54.679,32.402 53.603,28.509 52.954,25.007 C52.764,23.98 52.308,19.992 54.108,19.992 C54.79,19.992 55.082,21.001 55.268,21.507 C57.309,27.052 59.171,34.944 55.79,39.784 C54.974,40.952 53.189,40.377 52.565,41.927 C51.891,43.6 52.693,45.492 54.503,45.904 C56.441,46.344 57.871,44.745 57.787,42.898 C57.756,42.213 57.211,41.391 57.549,40.759 C58.093,39.743 59.128,39.091 59.658,38.036 C61.378,34.621 61.651,29.765 60.371,26.176 C59.357,23.335 54.689,19.954 55.645,16.843 C56.437,14.265 59.453,14.722 61.472,13.655 C66.046,11.238 67.119,7.913 65.545,3.461 C65.435,2.683 66.388,1.924 65.921,1.124 C65.503,0.406 64.569,0.511 64.137,1.124 C63.267,2.358 64.85,3.226 63.281,4.437 C62.302,5.193 61.031,4.914 59.926,5.314 C59.412,5.5 59.047,6.067 58.52,6.171 C57.689,6.336 56.953,5.71 56.155,6.345 C54.903,7.342 55.281,10.192 52.954,10.428 C47.614,10.97 51.011,4.601 42.108,2.5 C38.942,1.753 35.374,2.619 33.387,5.403 C32.234,7.02 31.703,10.967 29.132,10.879 C28.128,10.844 25.592,10.044 25.189,9.024 C24.69,7.763 25.526,6.529 24.077,5.567 C22.719,4.666 20.675,5.282 20.299,6.93 C19.945,8.481 20.612,10.196 22.354,10.387 C23.057,10.464 23.802,10.028 24.452,10.362 C26.207,11.265 27.524,12.89 29.715,12.475 C32.568,11.935 33.392,8.091 35.525,6.401 C38.998,3.648 47.875,7.654 48.244,9.844 C48.46,11.125 45.788,10.303 45.209,10.234 C41.98,9.848 38.237,10.76 36.54,13.737 C35.312,15.889 36.225,18.208 33.201,19.12 C28.67,20.487 30.674,16.942 28.355,16.195 C26.068,15.458 24.161,17.238 24.842,19.374 C25.849,22.535 28.326,20.198 30.294,20.451 C32.197,20.696 33.972,21.259 35.709,19.876 C37.894,18.138 37.457,15.48 40.559,14.385 C41.841,13.932 45.848,12.845 46.437,14.71 C46.902,16.184 45.723,16.039 38.428,22.215 C37.818,22.732 34.911,25.004 34.104,25.629 C31.79,27.422 29.273,30.663 26.542,31.717 C25.459,32.135 23.554,29.094 22.553,31.618 C20.944,31.155 19.725,31.881 19.648,33.562 C17.845,33.568 15.571,34.943 14.562,36.486 C13.55,38.033 15.276,39.743 14.03,41.159 C9.49,46.317 -0.309,50.905 0.188,53.781 C0.82,57.431 7.647,49.637 12.482,46.669 C12.985,46.36 14.186,45.025 14.781,45.152 C15.443,45.294 16.785,48.645 16.916,49.311 C17.144,50.476 15.771,52.293 15.388,53.394 C14.088,57.127 12.661,60.863 11.627,64.671 C10.538,68.682 10.507,73.234 9.035,77.115 C8.29,79.08 6.708,80.658 5.775,82.558 C1.792,90.669 0.933,97.771 1.441,103.557 C1.495,104.167 2.217,104.577 2.206,105.113 C2.194,105.696 1.116,105.844 0.947,106.486 C0.728,107.316 1.372,108.03 1.358,108.807 C1.306,111.795 -0.005,115.323 1.828,118.14 C3.146,120.167 8.577,117.491 9.382,115.902 C9.815,115.048 9.201,114.207 8.864,113.473 C7.835,111.233 6.054,110.03 4.152,108.568 C3.609,108.15 3.215,106.208 3.713,105.621 C4.146,105.11 4.981,105.499 5.509,105.609 C6.888,105.896 16.074,106.13 23.714,103.233 C25.047,102.728 27.438,102.129 28.168,100.837 C24.025,101.031 20.328,103.864 15.967,103.17 C16.034,103.182 19.081,100.092 19.081,100.092 C20.452,98.358 24.94,93.058 25.954,91.115 C26.666,89.751 27.366,87.432 28.509,86.371 C29.179,85.749 30.96,86.005 31.848,85.826 C41.872,83.81 37.555,79.401 41.532,78.411 C44.244,77.736 46.093,82.097 42.501,83.73 C41.428,84.218 40.323,83.655 39.208,84.325 C35.191,86.738 33.085,94.761 33.979,95.857 C34.712,96.755 38.288,95.579 39.208,95.264 C41.565,94.457 44.706,93.474 46.457,91.593 C47.058,90.947 46.954,89.967 47.234,89.172 C48.998,84.171 55.156,87.5 51.971,90.922 C49.267,93.824 46.863,88.223 43.986,102.588 C43.84,103.315 43.47,105.356 44.168,105.894 C45.207,106.696 50.552,104.12 52.072,103.191 C53.824,102.12 55.13,100.838 56.64,99.477 C54.316,103.889 52.376,108.545 50.309,113.087 C49.575,114.699 48.936,117.634 47.634,118.841 C45.901,120.448 40.882,114.327 39.404,116.65 C38.241,118.477 42.302,121.004 43.277,122.032 C40,121.89 31.901,120.353 30.301,121.993 C29.532,122.78 30.196,123.533 31.075,123.727 C33.451,124.253 36.207,124.706 38.628,124.948 C38.628,125.727 34.56,125.069 32.431,125.452 C29.292,126.015 29.763,127.929 32.043,128.217 C34.622,128.541 37.393,128.446 39.984,128.446 C39.984,129.412 40.566,128.151 32.43,130.151 C31.656,130.341 29.883,130.906 30.805,132.032 C32.315,133.878 38.376,131.627 41.726,131.557 C40.481,133.202 37.962,133.623 36.497,135.251 C34,138.027 38.471,136.927 39.789,136.223 C38.663,139.551 36.051,143.891 36.206,144.973 C36.3,145.63 36.884,145.362 37.169,144.973 C37.791,143.968 38.19,142.737 38.627,141.666 L38.821,141.666 C39.063,140.043 40.297,136.318 41.725,135.443 C38.713,142.357 39.1,141.666 38.821,141.666 L38.433,143.611 C39.509,143.435 40.382,141.701 41.018,140.031 C40.812,140.673 40.746,141.228 41.059,141.437 C41.536,141.755 41.922,140.804 42.057,140.5 C42.709,139.028 43.468,137.548 44.049,136.026 L44.243,136.026 C45.534,133.172 45.469,133.173 44.436,136.026 C44.165,136.026 44.442,135.398 42.886,140.304 C45.115,139.64 45.301,135.315 46.76,133.692 L46.953,133.109 C46.953,133.808 47.018,133.692 46.76,133.692 L44.823,138.944 C46.372,138.817 47.091,136.026 47.534,134.667 C47.809,134.667 47.87,134.179 46.76,137.972 C48.162,137.743 48.734,135.702 49.084,134.472 L49.277,134.472 C50.57,131.873 50.503,131.881 49.47,134.47 C49.195,134.473 49.361,134.106 48.696,137 C49.955,136.806 50.278,135.36 50.633,134.276 L50.826,134.276 C51.464,132.995 51.827,132.242 51.944,132.018 L51.964,132.013 C51.881,132.226 51.563,132.968 51.021,134.276 L50.827,134.276 C50.105,136.61 51.602,135.71 52.183,134.083 C52.454,134.083 52.259,134.319 53.151,132.525 C52.482,134.316 52.647,134.08 52.377,134.083 L52.377,135.25 C53.599,135.056 53.927,133.778 54.314,132.722 C54.573,132.722 54.445,132.849 54.895,131.943 C54.664,132.877 54.767,132.722 54.508,132.722 L54.314,134.472 C55.383,134.287 55.637,133.306 55.864,132.333 C56.129,132.333 55.957,132.571 56.788,130.687 C56.165,132.573 56.323,132.331 56.058,132.333 L55.865,133.694 C57.108,133.594 57.49,132.45 57.802,131.36 C58.06,131.36 57.901,131.55 58.576,130.192 C58.124,131.558 58.253,131.36 57.995,131.36 L57.802,133.111 C58.745,132.942 59.014,131.989 59.352,131.167 C59.592,131.167 59.503,131.291 59.853,130.396 L59.889,130.417 C59.72,131.301 59.785,131.163 59.545,131.166 L59.545,132.332 C60.707,132.14 61.038,131.059 61.288,129.999 L61.481,129.999 C61.03,132.591 62.415,130.467 63.261,130.116 C64.035,129.795 65.275,129.912 66.129,129.804 C66.129,137.889 65.483,145.458 68.028,153.33 C68.349,154.324 68.938,155.233 69.19,156.247 C69.55,157.693 68.621,159.775 70.774,159.941 C70.637,163.178 70.516,166.31 72.631,169.079 C74.123,171.031 78.323,168.749 79.228,167.135 C80.892,164.166 77.719,161.487 75.422,159.875 C74.608,159.304 72.468,158.018 72.968,156.677 C73.489,155.275 75.532,155.563 80.642,150.748 C87.968,143.843 95.372,128.815 95.372,116.195 C95.372,111.073 95.492,109.42 94.634,109.584 C93.721,109.758 94.686,111.083 93.8,117.362 C91.578,133.121 88.279,134.284 85.884,140.694 C85.093,140.694 90.076,130.744 87.008,115.612 C86.308,112.159 84.17,107.943 83.326,107.639 C82.765,107.437 82.091,107.687 74.843,110.748 C74.843,111.005 74.959,110.94 74.262,110.94 L74.843,110.748 C76.579,109.251 80.883,106.365 80.829,103.752 C80.797,102.195 79.304,101.029 79.53,99.278 C79.681,98.111 80.973,96.938 82.2,97.044 C82.673,97.084 83.049,97.354 83.417,97.632 C86.026,99.608 83.23,101.231 83.225,103.36 C83.22,105.312 84.345,108.03 85.29,109.718 C85.889,110.787 87.279,113.822 88.892,113.165 C89.756,112.812 90.221,111.533 90.593,110.756 C91.62,108.612 93.002,106.026 92.601,103.554 C92.329,101.874 89.549,99.879 92.392,98.499 C93.344,98.037 94.313,98.94 94.466,99.859 C94.837,102.082 90.564,104.197 98.357,110.308 C99.052,110.854 103.206,113.573 103.734,111.675 C104.139,110.223 97.531,99.962 96.039,91.498 C95.168,86.554 96.567,80.902 89.942,76.561 C88.935,75.901 87.517,75.458 86.733,74.508 C86.154,73.806 86.774,72.843 86.828,72.054 C86.971,69.962 86.205,67.974 87.157,65.884 C87.497,65.137 88.927,64.573 89.559,64.082 C90.88,63.056 91.917,61.875 93.625,61.651 C96.461,61.28 99.211,64.826 99.436,67.386 C90.668,67.406 96.308,78.935 101.526,74.221 C103.314,72.606 101.868,70.986 102.097,69.136 C102.19,68.384 102.877,67.847 103.202,67.192 C105.896,61.762 101.466,58.152 101.618,54.166 C101.759,50.485 106.51,47.099 108.091,43.86 C110.296,39.349 110.642,33.442 108.798,28.704 Z M38.423,36.738 C36.055,37.461 34.506,33.755 36.881,33.063 C39.592,32.273 41.06,35.933 38.423,36.738 Z M46.532,42.453 C43.658,43.083 42.993,39.224 45.79,38.517 C48.646,37.796 48.757,41.965 46.532,42.453 Z M56.037,45.054 C53.412,46.158 51.924,42.2 54.311,41.262 C56.868,40.258 58.231,44.132 56.037,45.054 Z M23.131,9.8 C20.57,10.162 20.033,6.166 22.55,5.837 C24.906,5.529 25.528,9.461 23.131,9.8 Z M62.035,5.825 C62.556,5.033 64.876,3.938 65.5,4.997 C67.552,8.479 63.199,12.794 60.12,13.173 C59.153,13.292 57.41,14.087 57.023,12.759 C58.936,12.565 61.225,10.293 61.754,8.482 C61.982,7.702 61.567,6.535 62.035,5.825 Z M56.635,9.969 C56.566,10.039 56.263,10.202 56.137,10.154 C56.011,10.106 55.837,8.739 55.837,8.739 C55.837,8.739 56.705,9.898 56.635,9.969 Z M55.667,9.064 C55.602,9.657 55.863,10.842 56.723,10.147 C57.078,9.86 55.332,8.086 56.365,7.043 C56.946,6.457 57.876,6.991 58.573,6.892 C59.241,6.796 59.929,6 60.641,6.278 C62.752,7.102 58.829,13.083 55.667,12.509 C53.486,12.114 54.302,9.886 55.667,9.064 Z M48.502,14.316 C48.731,13.029 50.338,14.312 50.809,13.484 C51.249,12.708 49.713,11.123 51.213,10.765 C53.477,10.225 55.453,14.913 54.749,16.647 C54.154,18.112 53.186,16.933 52.182,17.181 C51.6,17.325 51.407,18.015 50.815,18.13 C50.439,18.203 50.015,18.022 50.003,17.62 C49.98,16.8 51.268,16.547 50.929,15.682 C50.571,14.771 48.308,15.405 48.502,14.316 Z M27.585,20.491 C25.205,20.873 24.343,17.366 26.811,16.908 C29.299,16.446 30.331,20.051 27.585,20.491 Z M38.43,23.596 C39.399,23.308 39.702,25.015 38.79,25.25 C37.759,25.517 37.447,23.889 38.43,23.596 Z M6.976,112.504 C6.768,113.76 5.744,113.145 5.026,113.618 C4.63,113.879 4.472,114.401 4.049,114.642 C1.546,116.07 0.422,109.997 2.276,109.122 C3.75,108.427 7.247,110.873 6.976,112.504 Z M32.814,27.825 C34.675,27.473 34.329,29.745 32.62,30.005 C30.748,30.289 31.449,28.083 32.814,27.825 Z M28.166,33.175 C28.022,33.978 27.571,34.076 26.811,34.147 C26.952,33.299 27.358,33.201 28.166,33.175 Z M23.769,31.951 C25.436,31.349 26.074,36.478 24.84,36.689 C23.771,36.873 22.548,32.391 23.769,31.951 Z M20.756,33.228 C21.561,31.558 22.677,34.138 22.735,36.285 C22.756,37.063 22.743,37.843 22.743,38.618 C21.193,38.358 20.1,34.589 20.756,33.228 Z M18.362,34.681 C18.979,34.498 19.304,35.246 19.443,35.702 C21.219,41.505 19.098,41.78 18.368,39.979 C18.002,39.077 16.91,35.112 18.362,34.681 Z M15.384,36.923 C16.158,35.702 16.933,37.301 17.069,38.035 C17.352,40.522 17.278,40.914 17.128,41.729 C15.771,41.282 14.554,38.229 15.384,36.923 Z M1.439,54.062 C0.351,54.165 0.64,52.607 1.632,52.543 C2.906,52.462 2.472,53.965 1.439,54.062 Z M8.992,48.645 C7.101,50.204 6.6,50.414 5.507,51.256 C3.297,49.845 7.358,46.677 8.992,46.294 C11.091,45.802 9.605,48.139 8.992,48.645 Z M13.288,45.229 C12.674,45.229 11.908,44.358 12.205,43.773 C12.522,43.148 14.571,41.252 15.228,41.146 C15.916,41.035 16.35,41.968 16.16,42.514 C15.9,43.407 14.257,45.155 13.288,45.229 Z M16.457,46.007 C16.235,45.428 15.779,44.744 15.868,44.096 C15.959,43.432 17.415,41.864 18.095,41.847 C18.672,41.833 19.025,42.352 19.635,42.134 C20.657,41.769 20.421,40.584 21.045,39.904 C22.033,38.826 23.204,39.745 23.518,37.645 C26.9,38.051 27.713,33.175 31.265,32.786 C30.741,34.536 28.56,35.265 27.446,36.515 C26.156,37.961 25.759,40.265 24.487,41.868 C23.775,42.766 22.074,43.216 21.566,43.972 C21.198,44.519 22.354,44.763 22.628,45.035 C23.217,45.622 22.944,46.923 22.44,47.452 C21.735,48.192 18.676,49.507 17.766,48.803 C16.995,48.206 16.787,46.867 16.457,46.007 Z M11.436,81.853 C12.023,81.289 13.376,81.473 13.522,82.377 C13.864,84.503 12.038,82.757 8.388,97.337 C8.12,98.405 7.167,99.625 6.087,99.281 C5.087,98.963 9.007,84.191 11.436,81.853 Z M15.472,101.726 C13.198,103.675 10.805,104.532 7.829,104.532 C7.216,104.532 5.516,104.823 5.246,104.083 C4.921,103.191 11.487,97.777 13.525,95.588 C21.314,87.22 25.632,74.857 25.647,69.534 C26.41,69.536 30.2,71.647 29.898,75.546 C27.091,86.708 22.318,95.857 15.472,101.726 Z M29.135,69.728 C30.295,70.044 31.229,71.345 32.427,71.478 C34.363,71.693 36.306,69.346 38.321,71.429 C38.894,72.022 38.674,72.967 38.323,73.617 C36.792,76.449 34.752,74.453 32.815,75.793 C31.72,76.551 31.34,78.283 30.103,78.672 L31.072,72.839 L29.135,69.728 Z M56.419,96.366 C55.714,91.196 63.49,91.887 61.671,95.976 C61.153,97.141 59.033,98.326 57.798,98.568 C56.736,98.776 56.525,97.143 56.419,96.366 Z M55.28,121.837 C54.38,121.088 54.329,121.144 55.087,121.448 C59.184,112.582 58.081,114.815 60.122,111.142 L55.28,121.837 Z M61.671,110.754 C60.839,114.66 58.149,118.804 56.442,122.42 C56.167,122.42 55.787,123.457 60.047,113.865 L61.671,110.754 Z M55.667,116.942 C58.667,110.014 58.223,110.948 58.767,110.948 C55.003,119.133 52.059,125.274 55.667,116.942 Z M53.537,115.225 C57.925,106.479 56.661,107.059 57.604,107.059 C53.376,116.957 54.841,113.681 51.793,120.086 C51.6,118.594 52.879,116.536 53.537,115.225 Z M50.245,119.698 C55.976,106.352 54.345,110.145 57.604,102.588 C57.604,102.588 52.885,117.962 50.245,119.698 Z M57.798,109.198 C57.654,111.96 55.394,115.262 54.225,117.754 C50.408,125.886 54.196,113.98 57.798,109.198 Z M57.604,100.06 C54.265,108.384 56.126,104.026 49.083,119.892 C47.957,119.892 54.958,103.347 57.604,100.06 Z M42.303,137.392 L42.11,137.392 C42.017,137.745 41.583,138.576 41.248,139.401 C42.053,137.119 41.796,137.392 42.11,137.392 C43.904,133.789 43.865,133.734 42.303,137.392 Z M48.114,134.28 C47.858,134.28 47.85,134.557 48.295,132.774 C48.409,132.755 48.526,132.737 48.636,132.718 C48.738,132.761 48.582,133.028 48.114,134.28 Z M53.925,131.558 C53.115,132.642 53.181,132.607 53.925,131.364 L53.925,131.558 Z M55.087,131.753 C54.832,131.753 54.786,131.958 55.42,130.692 L55.438,130.691 L55.087,131.753 Z M57.604,124.947 C56.796,125.875 57.131,127.988 56.326,128.641 C53.829,130.664 49.329,130.573 46.371,131.661 C43.159,132.842 40.544,135.684 37.075,136.224 C38.196,134.085 42.548,134.117 43.127,131.566 C43.725,128.928 35.64,132.373 31.265,131.558 C31.265,131.28 30.05,131.63 41.917,129.031 C41.237,126.891 39.522,127.624 37.842,127.67 C33.639,127.784 30.684,127.331 30.684,126.892 C34.401,125.308 40.246,126.809 41.142,125.613 C41.862,124.652 39.457,124.39 39.012,124.251 C36.47,123.451 33.55,123.004 30.877,123.004 C31.255,121.925 32.464,122.345 33.396,122.275 C37.402,121.978 44.195,124.364 44.427,122.032 C44.574,120.56 40.357,119.6 40.174,117.171 L46.952,120.477 C54.854,122.344 52.482,121.327 57.604,124.754 L57.604,124.947 Z M57.41,123.198 C62.329,111.985 67.074,102.044 62.033,113.475 C57.253,124.316 57.691,123.198 57.41,123.198 Z M59.153,122.614 C58.96,121.181 60.309,119.23 60.945,117.948 C63.322,113.156 66.131,106.113 67.288,105.115 C58.741,123.95 59.454,122.614 59.153,122.614 Z M60.896,122.225 C60.448,120.652 66.266,111.127 69.167,103.17 C69.734,101.614 68.073,99.884 68.602,98.114 C69.081,96.508 71.098,95.384 72.654,96.226 C74.258,97.095 73.954,99.091 72.863,100.251 C72.099,101.063 70.855,101.316 70.192,102.231 C68.637,104.379 64.53,115.607 60.896,122.225 Z M62.639,121.837 L62.446,121.837 C63.124,118.013 65.81,113.899 67.422,110.365 C68.382,108.26 69.101,105.549 70.58,103.754 C68,110.365 69.709,106.437 62.639,121.837 Z M63.995,121.448 C69.16,109.781 67.657,113.038 70.773,106.671 C70.386,110.233 67.543,114.496 66.065,117.754 C65.537,118.919 65.082,120.734 63.995,121.448 Z M65.752,121.336 C65.896,118.788 67.815,117.313 70.968,108.227 C71.519,111.263 66.909,116.83 66.126,121.254 L66.147,121.252 C65.982,121.294 65.853,121.322 65.752,121.336 Z M67.288,120.864 C67.761,117.656 70.117,113.55 71.742,110.754 C71.742,110.754 71.918,110.896 72.153,111.07 C72.142,111.096 72.133,111.117 72.124,111.142 L71.936,111.142 C67.04,121.828 67.568,120.864 67.288,120.864 Z M74.066,160.156 C74.798,160.285 77.974,162.96 77.517,163.708 C77.082,164.418 75.526,163.826 73.485,166.168 C72.323,165.124 71.16,159.644 74.066,160.156 Z M76.954,147.502 C79.375,141.286 81.336,134.557 81.796,127.864 C82.553,116.856 78.252,116.51 77.866,112.313 C77.737,110.909 81.348,110.181 82.394,110.273 C83.703,110.387 83.993,112.064 84.309,113.086 C85.24,116.096 85.801,119.113 86.127,122.225 C86.921,129.808 82.221,143.813 81.69,145.168 C81.159,146.523 77.216,152.771 73.096,154.695 C73.543,152.232 76.009,149.928 76.954,147.502 Z M101.047,53.399 C100.364,57.826 105.06,61.527 102.676,67.009 C102.396,67.654 101.733,68.031 101.616,68.763 C101.308,70.703 102.685,72.563 100.574,74.087 C98.421,75.642 95.045,73.23 95.645,70.703 C95.867,69.771 96.571,68.718 97.5,68.415 C98.345,68.14 101.55,68.378 99.22,64.481 C97.869,62.221 95.797,60.559 93.045,60.936 C91.819,61.104 90.889,62.058 89.946,62.778 C88.981,63.516 87.522,64.207 86.772,65.142 C85.344,66.923 86.061,69.733 86.069,71.677 C86.073,72.592 85.363,73.715 85.63,74.593 C86.017,75.865 88.318,76.669 89.367,77.316 C96.876,81.949 94.605,89.58 96.322,95.592 C98.254,102.362 102.681,110.015 103.116,111.53 C99.436,110.817 95.337,107.762 94.36,103.948 C93.812,101.808 96.8,99.024 93.432,97.635 C91.786,96.955 90.444,99.285 90.446,100.643 C90.448,102.064 91.623,102.694 91.965,103.949 C92.501,105.916 90.736,108.886 89.867,110.559 C89.563,111.145 89.159,112.215 88.397,112.325 C86.773,112.557 83.846,105.2 84.002,103.559 C84.085,102.69 84.781,102.048 85.007,101.226 C85.562,99.203 84.819,97.144 82.779,96.394 C81.348,95.869 79.502,97.156 79.059,98.506 C78.348,100.678 80.302,102.114 80.031,103.95 C79.629,106.672 75.187,109.291 73.29,110.949 L73.096,110.949 C71.402,109.43 71.564,107.253 71.272,105.116 C71.166,104.338 70.893,103.018 71.353,102.314 C72.45,100.634 74.84,100.389 74.361,97.727 C73.851,94.902 70.387,94.535 68.719,96.569 C67.096,98.549 68.82,100.58 67.925,102.589 C66.477,105.84 63.028,108.307 60.509,110.561 C60.509,110.561 59.528,110.553 59.336,110.359 C58.044,109.053 57.868,106.028 58.048,104.339 C58.2,102.91 57.708,100.643 58.304,99.338 C58.81,98.231 61.088,97.928 61.96,97.007 C63.928,94.928 61.468,91.554 58.96,91.938 C57.065,92.228 55.55,94.287 55.704,96.174 C55.776,97.061 56.476,98.155 55.972,98.991 C53.834,102.529 48.254,104.592 44.435,105.312 C44.435,101.812 45.545,95.831 48.215,93.32 C49.635,91.984 51.827,93.13 53.15,90.924 C55.708,86.659 48.259,82.709 46.567,88.98 C46.41,89.56 46.576,90.347 46.24,90.801 C44.799,92.747 41.534,93.54 39.402,94.342 C38.589,94.648 35.403,95.741 34.754,94.89 C34.113,94.05 35.317,91.936 35.633,91.12 C39.444,81.287 42.55,86.451 44.684,83.148 C46.385,80.516 44.206,76.592 40.952,77.715 C38.435,78.584 39.018,80.953 37.576,82.473 C35.243,84.932 30.933,85.286 27.782,85.286 C28.146,82.369 31.135,77.803 33.626,76.265 C34.432,75.768 35.264,76.248 36.11,76.055 C37.854,75.657 39.394,73.485 38.934,71.683 C38.496,69.966 36.041,69.334 34.561,69.927 C33.971,70.163 33.46,70.843 32.818,70.912 C32.157,70.983 31.66,70.176 31.251,69.786 C30.169,68.755 28.412,67.809 28.17,66.23 C30.981,66.23 33.596,66.238 36.279,65.257 C40.633,63.666 44.97,60.63 49.668,60.044 C52.852,59.647 54.635,62.535 57.608,62.535 C57.594,61.874 57.34,61.036 57.565,60.404 C58.348,58.206 61.661,59.305 62.72,57.868 C63.268,57.126 62.878,56.139 63.197,55.341 C63.616,54.291 64.781,53.942 65.271,53.008 C66.009,51.604 65.939,49.803 66.584,48.341 C67.58,46.085 69.62,43.871 70.291,41.536 C70.738,39.981 69.113,38.156 68.646,36.675 C67.685,33.628 67.945,30.535 69.552,27.732 C70.979,25.244 72.972,25.412 75.032,24.088 C76.636,23.058 77.604,19.861 80.263,21.21 C82.312,22.249 82.355,25.654 80.263,26.698 C78.454,27.6 77.362,25.882 75.809,26.177 C73.036,26.706 74.649,32.228 75.739,33.505 C77.45,35.51 81,33.018 85.686,32.626 C88.01,32.432 89.756,33.94 91.883,34.444 C96.377,35.51 103.655,33.569 104.86,28.507 C105.056,27.683 105.445,26.364 104.775,25.674 C104.174,25.054 103.293,25.287 102.536,25.134 C100.978,24.82 99.805,23.288 100.082,21.7 C100.558,18.977 104.199,18.087 105.753,20.339 C106.86,21.944 105.409,23.402 105.798,25.005 C106.115,26.314 108.03,26.664 109.032,32.394 C109.891,37.311 108.612,42.116 105.811,46.199 C104.244,48.492 101.496,50.489 101.047,53.399 Z" id="Shape" fill="#CC2222"></path>
                        <path d="M78.697,121.254 C78.809,122.516 79.342,125.82 78.244,126.725 C77.285,127.515 75.224,127.151 74.049,127.305 C70.456,127.776 66.656,127.966 63.028,128.061 C61.924,128.089 60.26,128.651 59.216,128.135 C57.765,127.418 59.541,124.719 60.509,124.38 C64.053,123.138 68.11,123.026 71.742,121.859 C74.528,120.964 78.413,118.042 78.697,121.254 Z" id="Path" fill="#333333"></path>
                        <path d="M74.539,145.946 C74.363,147.535 73.206,148.886 72.904,150.419 C71.935,149.835 72.118,147.602 71.992,146.53 C71.514,142.477 71.742,138.363 71.742,134.28 C71.742,133.308 71.526,130.091 72.575,129.614 C74.658,128.667 73.648,133.579 73.761,134.474 C74.053,136.808 73.707,139.148 73.873,141.474 C73.975,142.914 74.697,144.515 74.539,145.946 Z" id="Path" fill="#FFFFFF"></path>
                        <path d="M76.971,114.642 C78.121,116.806 76.583,118.446 74.453,118.725 C74.618,117.116 75.615,115.521 76.971,114.642 Z" id="Path" fill="#FFFFFF"></path>
                        <path d="M11.483,72.256 C12.258,66.851 13.889,61.564 15.354,56.313 C16.162,53.418 16.923,49.572 20.418,48.989 C23.443,48.484 22.343,53.211 22.128,55.146 C21.788,58.204 21.578,61.216 21.369,64.285 C21.297,65.345 20.813,66.551 20.902,67.591 C21.052,69.339 22.456,69.213 23.011,70.373 C23.72,71.853 22.037,80.997 19.43,81.722 C18.534,81.971 17.578,81.526 16.736,81.284 C14.602,80.674 11.128,80.251 10.795,77.507 C10.598,75.881 11.251,73.875 11.483,72.256 Z" id="Path" fill="#333333"></path>
                    </g>
                </g>
            </g>
            <path d="M16.4211,130.5095 C14.5511,134.6125 18.3291,139.9535 18.3551,143.8925 C21.3471,141.3455 27.8331,140.7355 29.7241,136.6425 C30.6161,134.7135 29.8341,132.4505 28.0031,131.6115 C26.1621,130.7685 23.9511,131.6415 23.0721,133.5765 C23.9551,131.6335 23.1811,129.3885 21.3511,128.5455 C19.5131,127.6975 17.3021,128.5755 16.4211,130.5095 Z" id="path70" fill="#CC2222"></path>
            <path d="M32.6991,155.9535 C30.3481,156.5745 27.9981,157.1945 25.6471,157.8155 C26.4411,157.5665 26.9911,156.8525 27.5261,156.2415 C28.6941,154.7355 29.7611,153.1015 30.4241,151.3005 C30.7501,150.4165 31.0471,149.4205 30.8231,148.4705 L32.6991,155.9535 Z M25.6481,157.8165 C26.6751,157.5805 27.7211,157.9965 28.6431,158.4245 C30.3301,159.2095 31.8531,160.3385 33.2381,161.5975 C33.7641,162.1305 34.3651,162.6845 34.5761,163.4375 C33.9501,160.9435 33.3251,158.4495 32.7001,155.9545 L25.6481,157.8165 Z M34.5751,163.4375 C34.3301,162.3145 34.7311,161.1665 35.1581,160.1485 C35.8831,158.4185 36.9171,156.8245 38.1041,155.3885 C38.5781,154.8785 39.0691,154.2905 39.7501,154.0915 C37.3991,154.7125 35.0491,155.3335 32.6981,155.9535 L34.5751,163.4375 Z M39.7511,154.0915 C38.7241,154.3275 37.6771,153.9125 36.7561,153.4845 C35.0691,152.7005 33.5461,151.5695 32.1611,150.3115 C31.6351,149.7785 31.0351,149.2235 30.8241,148.4705 C31.4491,150.9655 32.0741,153.4585 32.6991,155.9535 L39.7511,154.0915 Z" id="path67" fill="#CC2222"></path>
            <path d="M59.0491,158.4245 C57.5741,157.6055 56.7591,158.2355 55.3721,158.3025 C57.3621,156.5315 58.5821,157.3325 59.5861,155.5145 C61.5951,151.8755 55.9521,148.7365 53.9431,152.3735 C52.9471,154.1765 54.2751,154.8945 53.8571,157.4995 C53.6601,157.1585 53.4911,156.7865 53.3711,156.3835 C52.5941,153.6545 48.8441,153.1115 47.4711,155.5975 C46.0921,158.0935 48.5421,160.9795 51.3341,160.1685 C51.8921,160.0065 52.4501,159.9695 52.9721,159.9865 C52.3891,160.8725 50.0911,164.0245 47.6791,162.6915 L54.2481,166.3475 C52.2861,165.2535 52.7741,162.5085 53.6991,160.4505 C54.6371,161.8885 54.4181,163.0355 56.0131,163.9225 C59.7461,166.0005 62.7811,160.5035 59.0491,158.4245 Z" id="Path" fill="#333333"></path>
            <path d="M37.8171,111.6765 C36.8961,108.4845 31.4491,107.5485 29.3221,105.4325 C28.6461,108.3695 24.5301,112.0725 25.4401,115.2585 C26.2081,117.9485 30.4701,117.8665 31.5361,115.1545 C31.8431,117.1665 32.0021,120.4675 29.9011,121.0755 L37.1071,118.9905 C35.0301,119.5915 33.4081,116.7985 32.5521,114.8025 C34.8741,116.5985 38.6041,114.4025 37.8171,111.6765 Z" id="Shape" fill="#333333"></path>
        </g>
    </g>
</svg>