<svg width="111" height="170" viewBox="0 0 111 170" fill="none" xmlns="http://www.w3.org/2000/svg">
<g clip-path="url(#clip0_1_731)">
<path d="M73.14 160.433L72.425 161.82L73.163 166.641L75.086 166.307L78.898 163.717L74.661 159.668L73.14 160.433Z" fill="#BF4040"/>
<path d="M109.298 29.6986C107.434 26.7066 106.508 24.9046 106.703 23.7246C106.881 22.6506 108.163 21.2816 105.484 19.1526C103.895 17.8896 97.1251 19.7826 101.77 25.3996C106.095 25.9416 105.518 25.0116 104.58 29.6316C98.0851 36.2986 94.4341 34.1766 88.4051 32.6426C80.9891 31.3916 79.3701 35.9566 76.1061 33.0906C73.2521 23.3906 77.8761 27.1206 79.3521 27.7166C82.6881 26.2956 81.8681 27.3146 82.7321 23.3496C81.0051 20.5876 81.8741 21.2506 79.1181 20.4956C76.8441 21.5536 77.6601 20.8106 75.5721 23.9546C70.6301 26.1086 67.8971 26.9376 68.4121 35.7776C70.8901 41.0306 70.5301 39.7306 70.4861 41.7916C66.5481 47.9236 67.6321 45.3896 65.5671 52.7096C62.8521 55.0566 63.4221 53.9156 63.2581 57.5446C62.4531 59.5626 57.6381 56.5466 57.8371 62.4506C50.1671 57.8466 48.2021 59.8536 37.5941 64.7676C32.0111 66.2586 33.9941 66.0356 28.8951 65.9096C28.1861 66.2646 26.9191 65.8846 32.4431 71.2506C34.5071 71.1236 33.4521 71.3376 37.2271 70.2106C37.9051 70.6516 41.4551 71.5586 37.4281 75.5846C35.3931 75.6326 33.1771 74.8256 29.0001 82.2236C28.3981 83.2886 28.2391 84.6726 27.7581 86.1996C36.9511 84.5086 34.5941 85.3306 38.6001 82.7056C42.2201 74.7236 44.6471 78.6556 45.4571 81.4306C43.5331 84.7466 44.7771 83.9626 40.1371 84.6206C36.0931 88.6416 37.4151 86.3916 34.4841 94.9006C36.4191 96.7336 42.6701 94.3086 46.9981 91.3046C47.4971 88.6746 47.9591 85.0056 53.0871 87.3076C53.9661 89.7016 54.0801 88.6636 52.5181 91.6746C47.1971 93.2596 47.8411 92.1706 44.7391 101.988C44.7391 106.69 44.0671 105.921 47.3331 105.414C53.6961 102.383 53.5721 102.856 57.0681 98.9646C55.0371 90.2186 61.7181 93.0886 61.8191 93.1196C63.1101 95.1926 64.4191 95.7946 58.2401 99.0656C58.3961 109.914 58.1321 107.607 59.1101 110.552C60.5851 110.951 61.3961 112.516 68.8131 102.962C68.7511 97.3956 68.2871 95.9916 72.7271 95.7396C76.9121 98.2546 73.1881 100.76 71.1541 102.356C71.3631 105.546 71.1821 109.948 73.8311 111.493C80.6171 105.729 79.0961 107.396 80.9931 103.969C79.8311 100.166 78.3371 98.0966 82.8331 96.6466C86.0951 99.2926 85.9591 98.4546 83.8691 103.432C85.7181 109.761 84.6881 107.677 88.1861 112.67C88.5331 112.662 91.1831 113.725 92.9361 103.936C90.7101 100.278 90.9361 100.617 92.4351 98.2246C94.6901 98.1846 93.9981 97.7636 95.3131 100.073C94.0091 104.33 93.285 107.436 103.376 112.167C104.528 111.22 104.626 114.194 96.6511 94.2966C95.8471 86.8766 96.1981 89.4006 95.1441 83.1436C91.8181 77.7716 93.6661 79.6506 86.6811 75.0146C86.7591 67.9226 86.5731 70.0176 87.4161 65.5746C95.1921 60.2836 94.1711 60.3246 98.9591 63.8616C100.7 68.3656 100.784 67.8116 98.2891 67.8596C95.9071 69.2026 96.5431 68.2836 95.6811 71.7916C98.2821 76.3346 99.4291 75.1876 101.802 74.1756C103.61 69.5106 100.993 70.7526 103.509 67.1896C105.865 59.7236 99.9341 57.6936 102.483 51.5726C104.929 48.4266 106.295 46.7686 107.558 45.2886C111.368 36.6006 109.988 33.4566 109.298 29.6986ZM89.2131 56.7696C81.3161 61.8146 84.1881 60.6996 76.6261 62.0316L71.8241 61.0396L69.5661 57.8156C69.7461 50.6416 69.0871 53.2346 72.1421 46.4456L75.3711 41.6586L80.6061 38.7386C80.6061 38.7386 82.2011 38.5616 82.8361 38.4656L85.9151 38.2616L88.1021 40.0106C87.5511 43.1206 87.5971 42.3226 87.8221 43.6826C91.0371 43.9826 89.7771 43.6306 93.3631 45.3706L93.8081 48.1956C92.2211 53.5316 93.2151 51.5636 89.2131 56.7696Z" fill="#BF4040"/>
<path d="M87.9261 32.4296L88.3131 32.8856L81.7871 38.7386L81.4011 38.2816L87.9261 32.4296Z" fill="#BF4040"/>
<path d="M25.8351 69.2225L28.7931 69.8915L30.8751 73.4465L28.5831 84.5295L22.6281 95.6545L13.5041 105.066H5.4651L4.1731 103.308L14.4201 94.0235L22.6281 80.5565L25.8351 69.2225Z" fill="#BF4040"/>
<path d="M78.2281 111.805L79.5141 110.836L83.2091 109.922L84.3881 110.997L86.3691 118.526L87.0661 122.611L86.5301 130.246L83.4771 142.669L81.2271 148.152L77.5851 152.883L73.1391 155.948L73.4601 153.798L77.2101 147.614L79.4061 141.108L81.3861 132.343L82.0831 126.106L81.1191 119.116L78.3341 114.115L78.2281 111.805Z" fill="#BF4040"/>
<path d="M50.182 10.4866L53.924 10.8146L55.983 15.5066L54.407 18.9226L49.231 18.2846L48.399 13.4406L50.182 10.4866Z" fill="#BF4040"/>
<path d="M61.8351 5.77355L64.9101 4.26855L66.1371 4.69655L66.5791 6.29055V7.78355L65.7081 10.3006L62.6781 13.0356L57.3601 14.2556L56.9781 12.7826L58.8711 12.1896L61.4641 9.64055L61.8351 5.77355Z" fill="#BF4040"/>
<path d="M25.2141 7.8845C25.2141 9.0695 24.3131 10.0295 23.2011 10.0295C22.0891 10.0295 21.1891 9.0695 21.1891 7.8845C21.1891 6.6995 22.0891 5.7395 23.2011 5.7395C24.3131 5.7395 25.2141 6.6995 25.2141 7.8845Z" fill="#BF4040"/>
<path d="M29.9171 18.7586C29.9171 19.8586 28.9791 20.7496 27.8221 20.7496C26.6651 20.7496 25.7271 19.8576 25.7271 18.7586C25.7271 17.6596 26.6651 16.7686 27.8221 16.7686C28.9791 16.7686 29.9171 17.6586 29.9171 18.7586Z" fill="#BF4040"/>
<path d="M40.4271 35.0155C40.4271 36.1615 39.4091 37.0915 38.1551 37.0915C36.8991 37.0915 35.8831 36.1615 35.8831 35.0155C35.8831 33.8695 36.9001 32.9406 38.1551 32.9406C39.4091 32.9406 40.4271 33.8685 40.4271 35.0155Z" fill="#BF4040"/>
<path d="M48.8531 40.6006C48.8531 41.8636 47.8561 42.8866 46.6271 42.8866C45.3981 42.8866 44.4001 41.8636 44.4001 40.6006C44.4001 39.3376 45.3971 38.3146 46.6271 38.3146C47.8561 38.3146 48.8531 39.3376 48.8531 40.6006Z" fill="#BF4040"/>
<path d="M57.7421 43.4165C57.7421 44.8095 56.7311 45.9375 55.4861 45.9375C54.2401 45.9375 53.2301 44.8085 53.2301 43.4165C53.2301 42.0245 54.2401 40.8955 55.4861 40.8955C56.7321 40.8965 57.7421 42.0245 57.7421 43.4165Z" fill="#BF4040"/>
<path d="M34.4331 28.1485C34.7591 28.6855 34.4581 29.4625 33.7601 29.8865C33.0631 30.3105 32.2321 30.2185 31.9061 29.6825C31.5801 29.1455 31.8811 28.3685 32.5781 27.9445C33.2761 27.5205 34.1061 27.6125 34.4331 28.1485Z" fill="#BF4040"/>
<path d="M39.8391 24.5405C39.8391 25.0415 39.4881 25.4465 39.0561 25.4465C38.6241 25.4465 38.2721 25.0415 38.2721 24.5405C38.2721 24.0395 38.6241 23.6335 39.0561 23.6335C39.4881 23.6335 39.8391 24.0395 39.8391 24.5405Z" fill="#BF4040"/>
<path d="M28.7211 33.2246C28.8151 33.3316 28.7411 33.5486 28.5301 33.7886C28.3191 34.0286 28.0041 34.2526 27.7101 34.3726C27.4171 34.4926 27.1931 34.4876 27.1281 34.3596C27.0341 34.2526 27.1071 34.0356 27.3191 33.7956C27.5301 33.5556 27.8451 33.3306 28.1381 33.2116C28.4311 33.0926 28.6551 33.0976 28.7211 33.2246Z" fill="#BF4040"/>
<path d="M12.0731 44.1676L15.7621 40.7266L17.4841 42.4676L13.7961 45.9076L12.0731 44.1676Z" fill="#BF4040"/>
<path d="M4.49609 49.8346L9.87209 45.4806L11.4051 47.2566L6.02909 51.6116L4.49609 49.8346Z" fill="#BF4040"/>
<path d="M2.80106 52.7656C2.98106 52.9676 2.99406 53.2876 2.83606 53.5986C2.67806 53.9096 2.37506 54.1596 2.04606 54.2486C1.71806 54.3386 1.41806 54.2546 1.26606 54.0286C1.08706 53.8266 1.07406 53.5066 1.23206 53.1956C1.38906 52.8846 1.69306 52.6346 2.02106 52.5456C2.34906 52.4566 2.64906 52.5396 2.80106 52.7656Z" fill="#BF4040"/>
<path d="M2.25005 109.182L3.67005 108.67L5.72105 109.767L7.57505 111.503L7.59505 113.345L3.63405 115.413L1.64905 114.091L1.84605 110.134L2.25005 109.182Z" fill="#BF4040"/>
<path d="M23.6451 49.9315C22.1121 70.2635 21.4381 66.3765 25.0011 70.5255C21.6311 83.5115 23.0901 81.1455 18.8751 83.0615C9.24608 79.4205 10.9491 80.8885 10.4601 76.7555C14.2201 58.3105 12.5961 64.3655 17.2461 51.1385C18.2551 49.4975 22.1381 47.6455 23.6451 49.9315Z" fill="#BF4040"/>
<path d="M60.7641 124.154L73.3031 121.27L76.5541 119.872L78.9191 119.646L79.5371 120.79L79.5931 126.442L78.5941 127.389L60.8901 128.786L59.0761 128.462L58.9501 126.045L60.7641 124.154Z" fill="#BF4040"/>
<path d="M85.5791 48.2486L88.4841 49.8116L90.8081 51.5536C90.6631 48.8806 87.9731 47.5396 85.5791 48.2486Z" fill="black"/>
<path d="M84.0301 50.3886H83.0611C83.2451 52.9416 86.6341 54.5276 88.8721 54.8606C88.8681 53.5946 88.8131 51.4026 87.8491 50.4696C86.9081 49.5606 84.3401 48.4866 84.0301 50.3886ZM84.3961 50.5266C84.5551 50.2376 85.4471 49.2386 86.4541 50.1876C86.1181 50.2756 84.9741 50.6566 84.7741 52.3336C84.2321 52.2196 84.1371 51.0726 84.3961 50.5266ZM88.2111 54.0246C88.0631 54.1736 86.5151 54.0436 85.1971 52.7026C87.0701 52.3256 87.0661 50.9146 87.0641 50.7216C87.9971 51.4056 88.5991 53.6346 88.2111 54.0246Z" fill="black"/>
<path d="M87.9031 43.5826C88.0471 42.4506 88.7021 41.0196 88.2911 39.8886C86.8671 35.9656 79.8861 38.5236 77.6391 39.8476C72.1881 43.0596 68.5311 49.9146 69.4251 56.2236C69.5481 57.0946 69.3101 57.8826 69.6461 58.7506C71.1511 62.6416 76.4291 62.2596 79.7701 61.8946C87.1891 61.0836 95.7731 52.7586 93.5201 44.9446C91.1741 43.3836 89.6131 43.5826 87.9031 43.5826ZM77.5621 42.1616C77.9341 41.7866 78.1441 41.7826 79.1641 42.3816C78.7341 42.3196 77.6461 42.9646 77.5991 43.7086C77.5991 43.7086 77.3621 43.1936 77.3281 42.9256C77.2811 42.5566 77.1511 42.5736 77.5621 42.1616ZM79.5001 42.7856C80.7601 44.2276 81.3711 49.4666 77.7631 44.2106C78.3131 44.3946 79.4591 43.8226 79.5001 42.7856ZM90.8601 53.8876C84.5221 62.4206 69.8971 65.5056 69.8911 55.4436C69.8881 51.6726 70.8461 49.0846 72.8531 45.9166C78.0831 37.6586 75.2081 45.6666 79.9621 47.0836L77.8311 49.2226C79.8481 48.8746 82.4631 47.6786 83.3381 45.7226C84.2351 43.7156 82.3831 40.2786 80.1551 40.0836C80.6631 41.9176 84.3481 45.3336 80.9291 46.4996C80.9291 44.0956 80.5421 41.5156 77.6371 41.4446C78.4861 38.6136 85.7691 37.5996 87.5651 39.9556C88.4751 41.1486 86.6701 42.9126 87.7941 43.8486C89.4071 45.1926 92.5491 43.4976 93.4081 46.4996C94.1531 49.0966 92.3071 51.9396 90.8601 53.8876Z" fill="black"/>
<path d="M81.318 55.6375C79.435 55.3525 77.509 53.3265 76.283 51.9435C75.84 51.4435 75.314 50.1245 74.54 50.1245C72.355 50.1245 72.748 54.5375 73.668 55.5955C75.283 57.4525 79.189 57.0075 81.318 56.6115L79.963 58.7505C83.414 58.2095 82.093 55.0675 81.125 52.9175C80.156 53.8435 81.038 54.5915 81.318 55.6375ZM74.54 50.9715L78.994 56.0265C76.535 56.0265 72.443 54.0815 74.54 50.9715Z" fill="black"/>
<path d="M58.8531 8.0005L59.6271 9.3615C60.8941 8.5845 60.2081 7.3555 58.8531 8.0005Z" fill="black"/>
<path d="M71.8281 51.7486L74.1521 48.6385C72.5371 48.7465 71.4361 50.1296 71.8281 51.7486Z" fill="black"/>
<path d="M80.7371 52.3325C80.6401 51.0655 79.5041 50.5825 78.4131 50.1925C78.2201 51.4885 79.5751 52.2055 80.7371 52.3325Z" fill="black"/>
<path d="M62.1451 66.9146C63.3071 71.9316 69.1091 74.5346 73.5721 75.6176C75.3181 76.0416 78.2861 76.3656 79.5761 74.8866C75.6201 73.8586 72.0091 73.9036 68.3441 71.6576C66.4071 70.4706 64.3701 67.1096 62.1451 66.9146Z" fill="black"/>
<path d="M74.9931 67.3546C75.7751 66.4946 71.4041 65.1906 70.8091 65.7546C70.3521 66.1876 71.1371 66.7606 71.4411 66.9386C72.2591 67.4166 74.1541 68.2776 74.9931 67.3546Z" fill="black"/>
<path d="M109.272 28.8076C108.719 27.3886 107.479 26.2736 106.958 24.9286C106.694 24.2486 107.399 23.4806 107.442 22.7806C107.594 20.3036 106.107 17.9526 103.396 18.1896C100.589 18.4356 98.6691 21.8636 100.245 24.3356C101.272 25.9486 103.16 26.4136 104.945 26.0856C104.899 31.5476 98.7961 34.5046 93.9061 33.7786C91.0991 33.3616 88.9361 31.7956 85.9661 31.9256C82.8451 32.0626 78.5011 34.1406 77.3401 33.4736C74.7231 31.9686 75.8541 28.8516 76.0881 26.6676C83.0441 31.5726 85.4431 21.5916 80.3501 20.3426C78.8681 19.9786 77.1211 20.5716 76.2141 21.8156C75.7951 22.3906 75.7711 23.3106 75.2131 23.7636C74.1111 24.6576 72.3081 24.7646 71.0921 25.7326C68.5061 27.7906 67.6541 31.9186 67.9861 35.0286C68.4701 39.5666 70.6471 39.9886 70.0431 41.6066C69.2751 43.6606 67.5041 45.4836 66.5611 47.5056C65.8321 49.0666 65.9401 51.0286 65.1571 52.4906C64.3741 53.9546 62.1241 53.4956 62.9171 57.7766C60.2051 57.1366 56.7911 59.0856 57.4941 62.0546C56.3221 61.2396 54.8261 60.0926 53.4271 59.7456C46.1101 57.9356 38.1151 66.0286 31.5421 65.7466C30.5731 65.7046 29.1631 65.1926 28.3041 65.7526C26.8271 66.7136 29.0201 68.0486 29.4111 68.7736C30.3821 70.5706 24.0571 67.3926 23.4071 66.0746C22.7381 64.7196 24.7511 49.2186 24.5511 46.6896C24.4941 45.9796 24.0731 45.2776 24.4131 44.5836C24.9051 43.5806 25.8851 42.8006 26.4361 41.7956C27.1951 40.4146 27.4541 38.8416 28.5751 37.6716C29.8041 36.3876 32.1891 35.2256 33.0311 33.6116C33.4081 32.8876 32.7171 32.2216 33.0111 31.5636C33.3341 30.8436 33.2421 31.6266 40.0611 26.2246C40.6351 25.7696 41.5021 24.3966 42.2901 25.1786C43.8201 26.6946 42.8591 32.3376 40.7811 33.0796C39.6771 33.4746 38.5941 31.9036 37.1591 32.4966C36.1421 32.9166 35.6191 33.9646 35.6101 35.0246C35.5791 38.7906 41.7111 38.1646 40.6451 34.4406C45.2371 33.1806 44.2831 27.2526 45.3331 23.7476C45.3651 23.6406 48.3441 17.8696 49.7941 19.9026C50.5301 20.9356 49.6881 24.3306 49.7471 25.6916C49.8941 29.0496 50.9201 32.1116 49.6311 35.4136C49.3421 36.1526 49.0771 37.3576 48.3511 37.7676C47.8361 38.3176 46.2021 38.0006 45.1731 38.4816C43.2531 39.8496 43.6921 44.2286 47.5101 42.8756C49.5681 42.1466 48.4601 40.7496 49.4441 39.4516C50.4691 38.0986 52.1061 37.2626 53.0401 35.8046C55.1531 32.5056 54.0771 28.6126 53.4281 25.1106C53.2381 24.0836 52.7821 20.0956 54.5821 20.0956C55.2641 20.0956 55.5561 21.1046 55.7421 21.6106C57.7831 27.1556 59.6451 35.0476 56.2641 39.8876C55.4481 41.0556 53.6631 40.4806 53.0391 42.0306C52.3651 43.7036 53.1671 45.5956 54.9771 46.0076C56.9151 46.4476 58.3451 44.8486 58.2611 43.0016C58.2301 42.3166 57.6851 41.4946 58.0231 40.8626C58.5671 39.8466 59.6021 39.1946 60.1321 38.1396C61.8521 34.7246 62.1251 29.8686 60.8451 26.2796C59.8311 23.4386 55.1631 20.0576 56.1191 16.9466C56.9111 14.3686 59.9271 14.8256 61.9461 13.7586C66.5201 11.3416 67.5931 8.01656 66.0191 3.56456C65.9091 2.78656 66.8621 2.02756 66.3951 1.22756C65.9771 0.50956 65.0431 0.61456 64.6111 1.22756C63.7411 2.46156 65.3241 3.32956 63.7551 4.54056C62.7761 5.29656 61.5051 5.01756 60.4001 5.41756C59.8861 5.60356 59.5211 6.17056 58.9941 6.27456C58.1631 6.43956 57.4271 5.81356 56.6291 6.44856C55.3771 7.44556 55.7551 10.2956 53.4281 10.5316C48.0881 11.0736 51.4851 4.70456 42.5821 2.60356C39.4161 1.85656 35.8481 2.72256 33.8611 5.50656C32.7081 7.12356 32.1771 11.0706 29.6061 10.9826C28.6021 10.9476 26.0661 10.1476 25.6631 9.12756C25.1641 7.86656 26.0001 6.63256 24.5511 5.67056C23.1931 4.76956 21.1491 5.38556 20.7731 7.03356C20.4191 8.58456 21.0861 10.2996 22.8281 10.4906C23.5311 10.5676 24.2761 10.1316 24.9261 10.4656C26.6811 11.3686 27.9981 12.9936 30.1891 12.5786C33.0421 12.0386 33.8661 8.19456 35.9991 6.50456C39.4721 3.75156 48.3491 7.75756 48.7181 9.94756C48.9341 11.2286 46.2621 10.4066 45.6831 10.3376C42.4541 9.95156 38.7111 10.8636 37.0141 13.8406C35.7861 15.9926 36.6991 18.3116 33.6751 19.2236C29.1441 20.5906 31.1481 17.0456 28.8291 16.2986C26.5421 15.5616 24.6351 17.3416 25.3161 19.4776C26.3231 22.6386 28.8001 20.3016 30.7681 20.5546C32.6711 20.7996 34.4461 21.3626 36.1831 19.9796C38.3681 18.2416 37.9311 15.5836 41.0331 14.4886C42.3151 14.0356 46.3221 12.9486 46.9111 14.8136C47.3761 16.2876 46.1971 16.1426 38.9021 22.3186C38.2921 22.8356 35.3851 25.1076 34.5781 25.7326C32.2641 27.5256 29.7471 30.7666 27.0161 31.8206C25.9331 32.2386 24.0281 29.1976 23.0271 31.7216C21.4181 31.2586 20.1991 31.9846 20.1221 33.6656C18.3191 33.6716 16.0451 35.0466 15.0361 36.5896C14.0241 38.1366 15.7501 39.8466 14.5041 41.2626C9.96408 46.4206 0.165078 51.0086 0.662078 53.8846C1.29408 57.5346 8.12108 49.7406 12.9561 46.7726C13.4591 46.4636 14.6601 45.1286 15.2551 45.2556C15.9171 45.3976 17.2591 48.7486 17.3901 49.4146C17.6181 50.5796 16.2451 52.3966 15.8621 53.4976C14.5621 57.2306 13.1351 60.9666 12.1011 64.7746C11.0121 68.7856 10.9811 73.3376 9.50908 77.2186C8.76408 79.1836 7.18208 80.7616 6.24908 82.6616C2.26608 90.7726 1.40708 97.8746 1.91508 103.661C1.96908 104.271 2.69108 104.681 2.68008 105.217C2.66808 105.8 1.59008 105.948 1.42108 106.59C1.20208 107.42 1.84608 108.134 1.83208 108.911C1.78008 111.899 0.469078 115.427 2.30208 118.244C3.62008 120.271 9.05108 117.595 9.85608 116.006C10.2891 115.152 9.67508 114.311 9.33808 113.577C8.30908 111.337 6.52808 110.134 4.62608 108.672C4.08308 108.254 3.68908 106.312 4.18708 105.725C4.62008 105.214 5.45508 105.603 5.98308 105.713C7.36208 106 16.5481 106.234 24.1881 103.337C25.5211 102.832 27.9121 102.233 28.6421 100.941C24.4991 101.135 20.8021 103.968 16.4411 103.274C16.5081 103.286 19.5551 100.196 19.5551 100.196C20.9261 98.4616 25.4141 93.1616 26.4281 91.2186C27.1401 89.8546 27.8401 87.5356 28.9831 86.4746C29.6531 85.8526 31.4341 86.1086 32.3221 85.9296C42.3461 83.9136 38.0291 79.5046 42.0061 78.5146C44.7181 77.8396 46.5671 82.2006 42.9751 83.8336C41.9021 84.3216 40.7971 83.7586 39.6821 84.4286C35.6651 86.8416 33.5591 94.8646 34.4531 95.9606C35.1861 96.8586 38.7621 95.6826 39.6821 95.3676C42.0391 94.5606 45.1801 93.5776 46.9311 91.6966C47.5321 91.0506 47.4281 90.0706 47.7081 89.2756C49.4721 84.2746 55.6301 87.6036 52.4451 91.0256C49.7411 93.9276 47.3371 88.3266 44.4601 102.692C44.3141 103.419 43.9441 105.46 44.6421 105.998C45.6811 106.8 51.0261 104.224 52.5461 103.295C54.2981 102.224 55.6041 100.942 57.1141 99.5806C54.7901 103.993 52.8501 108.649 50.7831 113.191C50.0491 114.803 49.4101 117.738 48.1081 118.945C46.3751 120.552 41.3561 114.431 39.8781 116.754C38.7151 118.581 42.7761 121.108 43.7511 122.136C40.4741 121.994 32.3751 120.457 30.7751 122.097C30.0061 122.884 30.6701 123.637 31.5491 123.831C33.9251 124.357 36.6811 124.81 39.1021 125.052C39.1021 125.831 35.0341 125.173 32.9051 125.556C29.7661 126.119 30.2371 128.033 32.5171 128.321C35.0961 128.645 37.8671 128.55 40.4581 128.55C40.4581 129.516 41.0401 128.255 32.9041 130.255C32.1301 130.445 30.3571 131.01 31.2791 132.136C32.7891 133.982 38.8501 131.731 42.2001 131.661C40.9551 133.306 38.4361 133.727 36.9711 135.355C34.4741 138.131 38.9451 137.031 40.2631 136.327C39.1371 139.655 36.5251 143.995 36.6801 145.077C36.7741 145.734 37.3581 145.466 37.6431 145.077C38.2651 144.072 38.6641 142.841 39.1011 141.77H39.2951C39.5371 140.147 40.7711 136.422 42.1991 135.547C39.1871 142.461 39.5741 141.77 39.2951 141.77L38.9071 143.715C39.9831 143.539 40.8561 141.805 41.4921 140.135C41.2861 140.777 41.2201 141.332 41.5331 141.541C42.0101 141.859 42.3961 140.908 42.5311 140.604C43.1831 139.132 43.9421 137.652 44.5231 136.13H44.7171C46.0081 133.276 45.9431 133.277 44.9101 136.13C44.6391 136.13 44.9161 135.502 43.3601 140.408C45.5891 139.744 45.7751 135.419 47.2341 133.796L47.4271 133.213C47.4271 133.912 47.4921 133.796 47.2341 133.796L45.2971 139.048C46.8461 138.921 47.5651 136.13 48.0081 134.771C48.2831 134.771 48.3441 134.283 47.2341 138.076C48.6361 137.847 49.2081 135.806 49.5581 134.576H49.7511C51.0441 131.977 50.9771 131.985 49.9441 134.574C49.6691 134.577 49.8351 134.21 49.1701 137.104C50.4291 136.91 50.7521 135.464 51.1071 134.38H51.3001C51.9381 133.099 52.3011 132.346 52.4181 132.122L52.4381 132.117C52.3551 132.33 52.0371 133.072 51.4951 134.38H51.3001C50.5781 136.714 52.0761 135.814 52.6571 134.187C52.9281 134.187 52.7331 134.423 53.6251 132.629C52.9561 134.42 53.1211 134.184 52.8511 134.187V135.354C54.0731 135.16 54.4011 133.882 54.7881 132.826C55.0471 132.826 54.9191 132.953 55.3691 132.047C55.1381 132.981 55.2411 132.826 54.9821 132.826L54.7881 134.576C55.8571 134.391 56.1111 133.41 56.3381 132.437C56.6031 132.437 56.4311 132.675 57.2621 130.791C56.6391 132.677 56.7971 132.435 56.5321 132.437L56.3391 133.798C57.5821 133.698 57.9641 132.554 58.2761 131.464C58.5341 131.464 58.3751 131.654 59.0501 130.296C58.5981 131.662 58.7271 131.464 58.4691 131.464L58.2761 133.215C59.2191 133.046 59.4881 132.093 59.8261 131.271C60.0661 131.271 59.9771 131.395 60.3271 130.5L60.3631 130.521C60.1941 131.405 60.2591 131.267 60.0191 131.27V132.436C61.1811 132.244 61.5121 131.163 61.7621 130.103H61.9551C61.5041 132.695 62.8891 130.571 63.7351 130.22C64.5091 129.899 65.7491 130.016 66.6031 129.908C66.6031 137.993 65.9571 145.562 68.5021 153.434C68.8231 154.428 69.4121 155.337 69.6641 156.351C70.0241 157.797 69.0951 159.879 71.2481 160.045C71.1111 163.282 70.9901 166.414 73.1051 169.183C74.5971 171.135 78.7971 168.853 79.7021 167.239C81.3661 164.27 78.1931 161.591 75.8961 159.979C75.0821 159.408 72.9421 158.122 73.4421 156.781C73.9631 155.379 76.0061 155.667 81.1161 150.852C88.4421 143.947 95.8461 128.919 95.8461 116.299C95.8461 111.177 95.9661 109.524 95.1081 109.688C94.1951 109.862 95.1601 111.187 94.2741 117.466C92.0521 133.225 88.7531 134.388 86.3581 140.798C85.5671 140.798 90.5501 130.848 87.4821 115.716C86.7821 112.263 84.6441 108.047 83.8001 107.743C83.2391 107.541 82.5651 107.791 75.3171 110.852C75.3171 111.109 75.4331 111.044 74.7361 111.044L75.3171 110.852C77.0531 109.355 81.3571 106.469 81.3031 103.856C81.2711 102.299 79.7781 101.133 80.0041 99.3816C80.1551 98.2146 81.4471 97.0416 82.6741 97.1476C83.1471 97.1876 83.5231 97.4576 83.8911 97.7356C86.5001 99.7116 83.7041 101.335 83.6991 103.464C83.6941 105.416 84.8191 108.134 85.7641 109.822C86.3631 110.891 87.7531 113.926 89.3661 113.269C90.2301 112.916 90.6951 111.637 91.0671 110.86C92.0941 108.716 93.4761 106.13 93.0751 103.658C92.8031 101.978 90.0231 99.9826 92.8661 98.6026C93.8181 98.1406 94.7871 99.0436 94.9401 99.9626C95.3111 102.186 91.0381 104.301 98.8311 110.412C99.5261 110.958 103.68 113.677 104.208 111.779C104.613 110.327 98.0051 100.066 96.5131 91.6016C95.6421 86.6576 97.0411 81.0056 90.4161 76.6646C89.4091 76.0046 87.9911 75.5616 87.2071 74.6116C86.6281 73.9096 87.2481 72.9466 87.3021 72.1576C87.4451 70.0656 86.6791 68.0776 87.6311 65.9876C87.9711 65.2406 89.4011 64.6766 90.0331 64.1856C91.3541 63.1596 92.3911 61.9786 94.0991 61.7546C96.9351 61.3836 99.6851 64.9296 99.9101 67.4896C91.1421 67.5096 96.7821 79.0386 102 74.3246C103.788 72.7096 102.342 71.0896 102.571 69.2396C102.664 68.4876 103.351 67.9506 103.676 67.2956C106.37 61.8656 101.94 58.2556 102.092 54.2696C102.233 50.5886 106.984 47.2026 108.565 43.9636C110.77 39.4526 111.116 33.5456 109.272 28.8076ZM38.8971 36.8416C36.5291 37.5646 34.9801 33.8586 37.3551 33.1666C40.0661 32.3766 41.5341 36.0366 38.8971 36.8416ZM47.0061 42.5566C44.1321 43.1866 43.4671 39.3276 46.2641 38.6206C49.1201 37.8996 49.2311 42.0686 47.0061 42.5566ZM56.5111 45.1576C53.8861 46.2616 52.3981 42.3036 54.7851 41.3656C57.3421 40.3616 58.7051 44.2356 56.5111 45.1576ZM23.6051 9.90356C21.0441 10.2656 20.5071 6.26956 23.0241 5.94056C25.3801 5.63256 26.0021 9.56456 23.6051 9.90356ZM62.5091 5.92856C63.0301 5.13656 65.3501 4.04156 65.9741 5.10056C68.0261 8.58256 63.6731 12.8976 60.5941 13.2766C59.6271 13.3956 57.8841 14.1906 57.4971 12.8626C59.4101 12.6686 61.6991 10.3966 62.2281 8.58556C62.4561 7.80556 62.0411 6.63856 62.5091 5.92856ZM57.1091 10.0726C57.0401 10.1426 56.7371 10.3056 56.6111 10.2576C56.4851 10.2096 56.3111 8.84256 56.3111 8.84256C56.3111 8.84256 57.1791 10.0016 57.1091 10.0726ZM56.1411 9.16756C56.0761 9.76056 56.3371 10.9456 57.1971 10.2506C57.5521 9.96356 55.8061 8.18956 56.8391 7.14656C57.4201 6.56056 58.3501 7.09456 59.0471 6.99556C59.7151 6.89956 60.4031 6.10356 61.1151 6.38156C63.2261 7.20556 59.3031 13.1866 56.1411 12.6126C53.9601 12.2176 54.7761 9.98956 56.1411 9.16756ZM48.9761 14.4196C49.2051 13.1326 50.8121 14.4156 51.2831 13.5876C51.7231 12.8116 50.1871 11.2266 51.6871 10.8686C53.9511 10.3286 55.9271 15.0166 55.2231 16.7506C54.6281 18.2156 53.6601 17.0366 52.6561 17.2846C52.0741 17.4286 51.8811 18.1186 51.2891 18.2336C50.9131 18.3066 50.4891 18.1256 50.4771 17.7236C50.4541 16.9036 51.7421 16.6506 51.4031 15.7856C51.0451 14.8746 48.7821 15.5086 48.9761 14.4196ZM28.0591 20.5946C25.6791 20.9766 24.8171 17.4696 27.2851 17.0116C29.7731 16.5496 30.8051 20.1546 28.0591 20.5946ZM38.9041 23.6996C39.8731 23.4116 40.1761 25.1186 39.2641 25.3536C38.2331 25.6206 37.9211 23.9926 38.9041 23.6996ZM7.45008 112.608C7.24208 113.864 6.21808 113.249 5.50008 113.722C5.10408 113.983 4.94608 114.505 4.52308 114.746C2.02008 116.174 0.896078 110.101 2.75008 109.226C4.22408 108.531 7.72108 110.977 7.45008 112.608ZM33.2881 27.9286C35.1491 27.5766 34.8031 29.8486 33.0941 30.1086C31.2221 30.3926 31.9231 28.1866 33.2881 27.9286ZM28.6401 33.2786C28.4961 34.0816 28.0451 34.1796 27.2851 34.2506C27.4261 33.4026 27.8321 33.3046 28.6401 33.2786ZM24.2431 32.0546C25.9101 31.4526 26.5481 36.5816 25.3141 36.7926C24.2451 36.9766 23.0221 32.4946 24.2431 32.0546ZM21.2301 33.3316C22.0351 31.6616 23.1511 34.2416 23.2091 36.3886C23.2301 37.1666 23.2171 37.9466 23.2171 38.7216C21.6671 38.4616 20.5741 34.6926 21.2301 33.3316ZM18.8361 34.7846C19.4531 34.6016 19.7781 35.3496 19.9171 35.8056C21.6931 41.6086 19.5721 41.8836 18.8421 40.0826C18.4761 39.1806 17.3841 35.2156 18.8361 34.7846ZM15.8581 37.0266C16.6321 35.8056 17.4071 37.4046 17.5431 38.1386C17.8261 40.6256 17.7521 41.0176 17.6021 41.8326C16.2451 41.3856 15.0281 38.3326 15.8581 37.0266ZM1.91308 54.1656C0.825078 54.2686 1.11408 52.7106 2.10608 52.6466C3.38008 52.5656 2.94608 54.0686 1.91308 54.1656ZM9.46608 48.7486C7.57508 50.3076 7.07408 50.5176 5.98108 51.3596C3.77108 49.9486 7.83208 46.7806 9.46608 46.3976C11.5651 45.9056 10.0791 48.2426 9.46608 48.7486ZM13.7621 45.3326C13.1481 45.3326 12.3821 44.4616 12.6791 43.8766C12.9961 43.2516 15.0451 41.3556 15.7021 41.2496C16.3901 41.1386 16.8241 42.0716 16.6341 42.6176C16.3741 43.5106 14.7311 45.2586 13.7621 45.3326ZM16.9311 46.1106C16.7091 45.5316 16.2531 44.8476 16.3421 44.1996C16.4331 43.5356 17.8891 41.9676 18.5691 41.9506C19.1461 41.9366 19.4991 42.4556 20.1091 42.2376C21.1311 41.8726 20.8951 40.6876 21.5191 40.0076C22.5071 38.9296 23.6781 39.8486 23.9921 37.7486C27.3741 38.1546 28.1871 33.2786 31.7391 32.8896C31.2151 34.6396 29.0341 35.3686 27.9201 36.6186C26.6301 38.0646 26.2331 40.3686 24.9611 41.9716C24.2491 42.8696 22.5481 43.3196 22.0401 44.0756C21.6721 44.6226 22.8281 44.8666 23.1021 45.1386C23.6911 45.7256 23.4181 47.0266 22.9141 47.5556C22.2091 48.2956 19.1501 49.6106 18.2401 48.9066C17.4691 48.3096 17.2611 46.9706 16.9311 46.1106ZM11.9101 81.9566C12.4971 81.3926 13.8501 81.5766 13.9961 82.4806C14.3381 84.6066 12.5121 82.8606 8.86208 97.4406C8.59408 98.5086 7.64108 99.7286 6.56108 99.3846C5.56108 99.0666 9.48108 84.2946 11.9101 81.9566ZM15.9461 101.83C13.6721 103.779 11.2791 104.636 8.30308 104.636C7.69008 104.636 5.99008 104.927 5.72008 104.187C5.39508 103.295 11.9611 97.8806 13.9991 95.6916C21.7881 87.3236 26.1061 74.9606 26.1211 69.6376C26.8841 69.6396 30.6741 71.7506 30.3721 75.6496C27.5651 86.8116 22.7921 95.9606 15.9461 101.83ZM29.6091 69.8316C30.7691 70.1476 31.7031 71.4486 32.9011 71.5816C34.8371 71.7966 36.7801 69.4496 38.7951 71.5326C39.3681 72.1256 39.1481 73.0706 38.7971 73.7206C37.2661 76.5526 35.2261 74.5566 33.2891 75.8966C32.1941 76.6546 31.8141 78.3866 30.5771 78.7756L31.5461 72.9426L29.6091 69.8316ZM56.8931 96.4696C56.1881 91.2996 63.9641 91.9906 62.1451 96.0796C61.6271 97.2446 59.5071 98.4296 58.2721 98.6716C57.2101 98.8796 56.9991 97.2466 56.8931 96.4696ZM55.7541 121.941C54.8541 121.192 54.8031 121.248 55.5611 121.552C59.6581 112.686 58.5551 114.919 60.5961 111.246L55.7541 121.941ZM62.1451 110.858C61.3131 114.764 58.6231 118.908 56.9161 122.524C56.6411 122.524 56.2611 123.561 60.5211 113.969L62.1451 110.858ZM56.1411 117.046C59.1411 110.118 58.6971 111.052 59.2411 111.052C55.4771 119.237 52.5331 125.378 56.1411 117.046ZM54.0111 115.329C58.3991 106.583 57.1351 107.163 58.0781 107.163C53.8501 117.061 55.3151 113.785 52.2671 120.19C52.0741 118.698 53.3531 116.64 54.0111 115.329ZM50.7191 119.802C56.4501 106.456 54.8191 110.249 58.0781 102.692C58.0781 102.692 53.3591 118.066 50.7191 119.802ZM58.2721 109.302C58.1281 112.064 55.8681 115.366 54.6991 117.858C50.8821 125.99 54.6701 114.084 58.2721 109.302ZM58.0781 100.164C54.7391 108.488 56.6001 104.13 49.5571 119.996C48.4311 119.996 55.4321 103.451 58.0781 100.164ZM42.7771 137.496H42.5841C42.4911 137.849 42.0571 138.68 41.7221 139.505C42.5271 137.223 42.2701 137.496 42.5841 137.496C44.3781 133.893 44.3391 133.838 42.7771 137.496ZM48.5881 134.384C48.3321 134.384 48.3241 134.661 48.7691 132.878C48.8831 132.859 49.0001 132.841 49.1101 132.822C49.2121 132.865 49.0561 133.132 48.5881 134.384ZM54.3991 131.662C53.5891 132.746 53.6551 132.711 54.3991 131.468V131.662ZM55.5611 131.857C55.3061 131.857 55.2601 132.062 55.8941 130.796L55.9121 130.795L55.5611 131.857ZM58.0781 125.051C57.2701 125.979 57.6051 128.092 56.8001 128.745C54.3031 130.768 49.8031 130.677 46.8451 131.765C43.6331 132.946 41.0181 135.788 37.5491 136.328C38.6701 134.189 43.0221 134.221 43.6011 131.67C44.1991 129.032 36.1141 132.477 31.7391 131.662C31.7391 131.384 30.5241 131.734 42.3911 129.135C41.7111 126.995 39.9961 127.728 38.3161 127.774C34.1131 127.888 31.1581 127.435 31.1581 126.996C34.8751 125.412 40.7201 126.913 41.6161 125.717C42.3361 124.756 39.9311 124.494 39.4861 124.355C36.9441 123.555 34.0241 123.108 31.3511 123.108C31.7291 122.029 32.9381 122.449 33.8701 122.379C37.8761 122.082 44.6691 124.468 44.9011 122.136C45.0481 120.664 40.8311 119.704 40.6481 117.275L47.4261 120.581C55.3281 122.448 52.9561 121.431 58.0781 124.858V125.051ZM57.8841 123.302C62.8031 112.089 67.5481 102.148 62.5071 113.579C57.7271 124.42 58.1651 123.302 57.8841 123.302ZM59.6271 122.718C59.4341 121.285 60.7831 119.334 61.4191 118.052C63.7961 113.26 66.6051 106.217 67.7621 105.219C59.2151 124.054 59.9281 122.718 59.6271 122.718ZM61.3701 122.329C60.9221 120.756 66.7401 111.231 69.6411 103.274C70.2081 101.718 68.5471 99.9876 69.0761 98.2176C69.5551 96.6116 71.5721 95.4876 73.1281 96.3296C74.7321 97.1986 74.4281 99.1946 73.3371 100.355C72.5731 101.167 71.3291 101.42 70.6661 102.335C69.1111 104.483 65.0041 115.711 61.3701 122.329ZM63.1131 121.941H62.9201C63.5981 118.117 66.2841 114.003 67.8961 110.469C68.8561 108.364 69.5751 105.653 71.0541 103.858C68.4741 110.469 70.1831 106.541 63.1131 121.941ZM64.4691 121.552C69.6341 109.885 68.1311 113.142 71.2471 106.775C70.8601 110.337 68.0171 114.6 66.5391 117.858C66.0111 119.023 65.5561 120.838 64.4691 121.552ZM66.2261 121.44C66.3701 118.892 68.2891 117.417 71.4421 108.331C71.9931 111.367 67.3831 116.934 66.6001 121.358L66.6211 121.356C66.4561 121.398 66.3271 121.426 66.2261 121.44ZM67.7621 120.968C68.2351 117.76 70.5911 113.654 72.2161 110.858C72.2161 110.858 72.3921 111 72.6271 111.174C72.6161 111.2 72.6071 111.221 72.5981 111.246H72.4101C67.5141 121.932 68.0421 120.968 67.7621 120.968ZM74.5401 160.26C75.2721 160.389 78.4481 163.064 77.9911 163.812C77.5561 164.522 76.0001 163.93 73.9591 166.272C72.7971 165.228 71.6341 159.748 74.5401 160.26ZM77.4281 147.606C79.8491 141.39 81.8101 134.661 82.2701 127.968C83.0271 116.96 78.7261 116.614 78.3401 112.417C78.2111 111.013 81.8221 110.285 82.8681 110.377C84.1771 110.491 84.4671 112.168 84.7831 113.19C85.7141 116.2 86.2751 119.217 86.6011 122.329C87.3951 129.912 82.6951 143.917 82.1641 145.272C81.6331 146.627 77.6901 152.875 73.5701 154.799C74.0171 152.336 76.4831 150.032 77.4281 147.606ZM101.521 53.5026C100.838 57.9296 105.534 61.6306 103.15 67.1126C102.87 67.7576 102.207 68.1346 102.09 68.8666C101.782 70.8066 103.159 72.6666 101.048 74.1906C98.8951 75.7456 95.5191 73.3336 96.1191 70.8066C96.3411 69.8746 97.0451 68.8216 97.9741 68.5186C98.8191 68.2436 102.024 68.4816 99.6941 64.5846C98.3431 62.3246 96.2711 60.6626 93.5191 61.0396C92.2931 61.2076 91.3631 62.1616 90.4201 62.8816C89.4551 63.6196 87.9961 64.3106 87.2461 65.2456C85.8181 67.0266 86.5351 69.8366 86.5431 71.7806C86.5471 72.6956 85.8371 73.8186 86.1041 74.6966C86.4911 75.9686 88.7921 76.7726 89.8411 77.4196C97.3501 82.0526 95.0791 89.6836 96.7961 95.6956C98.7281 102.466 103.155 110.119 103.59 111.634C99.9101 110.921 95.8111 107.866 94.8341 104.052C94.2861 101.912 97.2741 99.1276 93.9061 97.7386C92.2601 97.0586 90.9181 99.3886 90.9201 100.747C90.9221 102.168 92.0971 102.798 92.4391 104.053C92.9751 106.02 91.2101 108.99 90.3411 110.663C90.0371 111.249 89.6331 112.319 88.8711 112.429C87.2471 112.661 84.3201 105.304 84.4761 103.663C84.5591 102.794 85.2551 102.152 85.4811 101.33C86.0361 99.3066 85.2931 97.2476 83.2531 96.4976C81.8221 95.9726 79.9761 97.2596 79.5331 98.6096C78.8221 100.782 80.7761 102.218 80.5051 104.054C80.1031 106.776 75.6611 109.395 73.7641 111.053H73.5701C71.8761 109.534 72.0381 107.357 71.7461 105.22C71.6401 104.442 71.3671 103.122 71.8271 102.418C72.9241 100.738 75.3141 100.493 74.8351 97.8306C74.3251 95.0056 70.8611 94.6386 69.1931 96.6726C67.5701 98.6526 69.2941 100.684 68.3991 102.693C66.9511 105.944 63.5021 108.411 60.9831 110.665C60.9831 110.665 60.0021 110.657 59.8101 110.463C58.5181 109.157 58.3421 106.132 58.5221 104.443C58.6741 103.014 58.1821 100.747 58.7781 99.4416C59.2841 98.3346 61.5621 98.0316 62.4341 97.1106C64.4021 95.0316 61.9421 91.6576 59.4341 92.0416C57.5391 92.3316 56.0241 94.3906 56.1781 96.2776C56.2501 97.1646 56.9501 98.2586 56.4461 99.0946C54.3081 102.633 48.7281 104.696 44.9091 105.416C44.9091 101.916 46.0191 95.9346 48.6891 93.4236C50.1091 92.0876 52.3011 93.2336 53.6241 91.0276C56.1821 86.7626 48.7331 82.8126 47.0411 89.0836C46.8841 89.6636 47.0501 90.4506 46.7141 90.9046C45.2731 92.8506 42.0081 93.6436 39.8761 94.4456C39.0631 94.7516 35.8771 95.8446 35.2281 94.9936C34.5871 94.1536 35.7911 92.0396 36.1071 91.2236C39.9181 81.3906 43.0241 86.5546 45.1581 83.2516C46.8591 80.6196 44.6801 76.6956 41.4261 77.8186C38.9091 78.6876 39.4921 81.0566 38.0501 82.5766C35.7171 85.0356 31.4071 85.3896 28.2561 85.3896C28.6201 82.4726 31.6091 77.9066 34.1001 76.3686C34.9061 75.8716 35.7381 76.3516 36.5841 76.1586C38.3281 75.7606 39.8681 73.5886 39.4081 71.7866C38.9701 70.0696 36.5151 69.4376 35.0351 70.0306C34.4451 70.2666 33.9341 70.9466 33.2921 71.0156C32.6311 71.0866 32.1341 70.2796 31.7251 69.8896C30.6431 68.8586 28.8861 67.9126 28.6441 66.3336C31.4551 66.3336 34.0701 66.3416 36.7531 65.3606C41.1071 63.7696 45.4441 60.7336 50.1421 60.1476C53.3261 59.7506 55.1091 62.6386 58.0821 62.6386C58.0681 61.9776 57.8141 61.1396 58.0391 60.5076C58.8221 58.3096 62.1351 59.4086 63.1941 57.9716C63.7421 57.2296 63.3521 56.2426 63.6711 55.4446C64.0901 54.3946 65.2551 54.0456 65.7451 53.1116C66.4831 51.7076 66.4131 49.9066 67.0581 48.4446C68.0541 46.1886 70.0941 43.9746 70.7651 41.6396C71.2121 40.0846 69.5871 38.2596 69.1201 36.7786C68.1591 33.7316 68.4191 30.6386 70.0261 27.8356C71.4531 25.3476 73.4461 25.5156 75.5061 24.1916C77.1101 23.1616 78.0781 19.9646 80.7371 21.3136C82.7861 22.3526 82.8291 25.7576 80.7371 26.8016C78.9281 27.7036 77.8361 25.9856 76.2831 26.2806C73.5101 26.8096 75.1231 32.3316 76.2131 33.6086C77.9241 35.6136 81.4741 33.1216 86.1601 32.7296C88.4841 32.5356 90.2301 34.0436 92.3571 34.5476C96.8511 35.6136 104.129 33.6726 105.334 28.6106C105.53 27.7866 105.919 26.4676 105.249 25.7776C104.648 25.1576 103.767 25.3906 103.01 25.2376C101.452 24.9236 100.279 23.3916 100.556 21.8036C101.032 19.0806 104.673 18.1906 106.227 20.4426C107.334 22.0476 105.883 23.5056 106.272 25.1086C106.589 26.4176 108.504 26.7676 109.506 32.4976C110.365 37.4146 109.086 42.2196 106.285 46.3026C104.718 48.5956 101.97 50.5926 101.521 53.5026Z" fill="black"/>
<path d="M79.1711 121.358C79.2831 122.62 79.8161 125.924 78.7181 126.829C77.7591 127.619 75.6981 127.255 74.5231 127.409C70.9301 127.88 67.1301 128.07 63.5021 128.165C62.3981 128.193 60.7341 128.755 59.6901 128.239C58.2391 127.522 60.0151 124.823 60.9831 124.484C64.5271 123.242 68.5841 123.13 72.2161 121.963C75.0021 121.068 78.8871 118.146 79.1711 121.358Z" fill="#BF4040"/>
<path d="M75.0131 146.05C74.8371 147.639 73.6801 148.99 73.3781 150.523C72.4091 149.939 72.5921 147.706 72.4661 146.634C71.9881 142.581 72.2161 138.467 72.2161 134.384C72.2161 133.412 72.0001 130.195 73.0491 129.718C75.1321 128.771 74.1221 133.683 74.2351 134.578C74.5271 136.912 74.1811 139.252 74.3471 141.578C74.4491 143.018 75.1711 144.619 75.0131 146.05Z" fill="white"/>
<path d="M77.4451 114.746C78.5951 116.91 77.0571 118.55 74.9271 118.829C75.0921 117.22 76.0891 115.625 77.4451 114.746Z" fill="white"/>
<path d="M11.9571 72.3596C12.7321 66.9546 14.3631 61.6676 15.8281 56.4166C16.6361 53.5216 17.3971 49.6756 20.8921 49.0926C23.9171 48.5876 22.8171 53.3146 22.6021 55.2496C22.2621 58.3076 22.0521 61.3196 21.8431 64.3886C21.7711 65.4486 21.2871 66.6546 21.3761 67.6946C21.5261 69.4426 22.9301 69.3166 23.4851 70.4766C24.1941 71.9566 22.5111 81.1006 19.9041 81.8256C19.0081 82.0746 18.0521 81.6296 17.2101 81.3876C15.0761 80.7776 11.6021 80.3546 11.2691 77.6106C11.0721 75.9846 11.7251 73.9786 11.9571 72.3596Z" fill="#BF4040"/>
<path d="M15.4211 129.51C13.5511 133.613 17.3291 138.954 17.3551 142.893C20.3471 140.346 26.8331 139.736 28.7241 135.643C29.6161 133.714 28.8341 131.451 27.0031 130.612C25.1621 129.769 22.9511 130.642 22.0721 132.577C22.9551 130.634 22.1811 128.389 20.3511 127.546C18.5131 126.698 16.3021 127.576 15.4211 129.51Z" fill="#BF4040"/>
<path d="M31.6991 154.954C29.3481 155.575 26.9981 156.195 24.6471 156.816C25.4411 156.567 25.9911 155.853 26.5261 155.242C27.6941 153.736 28.7611 152.102 29.4241 150.301C29.7501 149.417 30.0471 148.421 29.8231 147.471L31.6991 154.954ZM24.6481 156.817C25.6751 156.581 26.7211 156.997 27.6431 157.425C29.3301 158.21 30.8531 159.339 32.2381 160.598C32.7641 161.131 33.3651 161.685 33.5761 162.438C32.9501 159.944 32.3251 157.45 31.7001 154.955L24.6481 156.817ZM33.5761 162.438C33.3311 161.315 33.7311 160.167 34.1581 159.149C34.8831 157.419 35.9171 155.825 37.1041 154.389C37.5781 153.879 38.0691 153.291 38.7501 153.092C36.3991 153.713 34.0501 154.334 31.6991 154.954L33.5761 162.438ZM38.7501 153.092C37.7231 153.328 36.6771 152.913 35.7561 152.485C34.0691 151.701 32.5461 150.57 31.1611 149.312C30.6351 148.779 30.0341 148.224 29.8231 147.471C30.4481 149.966 31.0741 152.459 31.6991 154.954L38.7501 153.092Z" fill="#BF4040"/>
<path d="M58.0491 157.425C56.5741 156.606 55.7591 157.236 54.3721 157.303C56.3621 155.532 57.5821 156.333 58.5861 154.515C60.595 150.876 54.9521 147.737 52.9431 151.374C51.9471 153.177 53.2751 153.895 52.8571 156.5C52.6601 156.159 52.4911 155.787 52.3711 155.384C51.5941 152.655 47.8441 152.112 46.4711 154.598C45.0921 157.094 47.5421 159.98 50.3341 159.169C50.8921 159.007 51.4501 158.97 51.9721 158.987C51.3891 159.873 49.0911 163.025 46.6791 161.692L53.2481 165.348C51.2861 164.254 51.7741 161.509 52.6991 159.451C53.6371 160.889 53.4181 162.036 55.0131 162.923C58.7461 165.001 61.7811 159.504 58.0491 157.425Z" fill="black"/>
<path d="M36.8171 110.677C35.8961 107.485 30.4491 106.549 28.3221 104.433C27.6461 107.37 23.5301 111.073 24.4401 114.259C25.2081 116.949 29.4701 116.867 30.5361 114.155C30.8431 116.167 31.0021 119.468 28.9011 120.076L36.1071 117.991C34.0301 118.592 32.4081 115.799 31.5521 113.803C33.8741 115.599 37.6041 113.403 36.8171 110.677Z" fill="black"/>
</g>
<defs>
<clipPath id="clip0_1_731">
<rect width="111" height="170" fill="white"/>
</clipPath>
</defs>
</svg>
