<svg width="111" height="170" viewBox="0 0 111 170" fill="none" xmlns="http://www.w3.org/2000/svg">
<g clip-path="url(#clip0_1_777)">
<path d="M73.1402 160.432L72.4252 161.819L73.1632 166.64L75.0862 166.306L78.8982 163.716L74.6612 159.667L73.1402 160.432Z" fill="#808080"/>
<path d="M109.298 29.6985C107.434 26.7065 106.508 24.9045 106.703 23.7245C106.881 22.6505 108.163 21.2815 105.484 19.1525C103.895 17.8895 97.1252 19.7825 101.77 25.3995C106.095 25.9415 105.518 25.0115 104.58 29.6315C98.0852 36.2985 94.4342 34.1765 88.4052 32.6425C80.9892 31.3915 79.3702 35.9565 76.1062 33.0905C73.2522 23.3905 77.8762 27.1205 79.3522 27.7165C82.6882 26.2955 81.8682 27.3145 82.7322 23.3495C81.0052 20.5875 81.8742 21.2505 79.1182 20.4955C76.8442 21.5535 77.6602 20.8105 75.5722 23.9545C70.6302 26.1085 67.8972 26.9375 68.4122 35.7775C70.8902 41.0305 70.5302 39.7305 70.4862 41.7915C66.5482 47.9235 67.6322 45.3895 65.5672 52.7095C62.8522 55.0565 63.4222 53.9155 63.2582 57.5445C62.4532 59.5625 57.6382 56.5465 57.8372 62.4505C50.1672 57.8465 48.2022 59.8535 37.5942 64.7675C32.0112 66.2585 33.9942 66.0355 28.8952 65.9095C28.1862 66.2645 26.9192 65.8845 32.4432 71.2505C34.5072 71.1235 33.4522 71.3375 37.2272 70.2105C37.9052 70.6515 41.4552 71.5585 37.4282 75.5845C35.3932 75.6325 33.1772 74.8255 29.0002 82.2235C28.3982 83.2885 28.2392 84.6725 27.7582 86.1995C36.9512 84.5085 34.5942 85.3305 38.6002 82.7055C42.2202 74.7235 44.6472 78.6555 45.4572 81.4305C43.5332 84.7465 44.7772 83.9625 40.1372 84.6205C36.0932 88.6415 37.4152 86.3915 34.4842 94.9005C36.4192 96.7335 42.6702 94.3085 46.9982 91.3045C47.4972 88.6745 47.9592 85.0055 53.0872 87.3075C53.9662 89.7015 54.0802 88.6635 52.5182 91.6745C47.1972 93.2595 47.8412 92.1705 44.7392 101.987C44.7392 106.689 44.0672 105.92 47.3332 105.413C53.6962 102.382 53.5722 102.855 57.0682 98.9645C55.0372 90.2185 61.7182 93.0885 61.8192 93.1195C63.1102 95.1925 64.4192 95.7945 58.2402 99.0655C58.3962 109.913 58.1322 107.606 59.1102 110.551C60.5852 110.95 61.3962 112.515 68.8132 102.961C68.7512 97.3955 68.2872 95.9915 72.7272 95.7395C76.9122 98.2545 73.1882 100.759 71.1542 102.355C71.3632 105.545 71.1822 109.947 73.8312 111.492C80.6172 105.728 79.0962 107.395 80.9932 103.968C79.8312 100.165 78.3372 98.0965 82.8332 96.6465C86.0952 99.2925 85.9592 98.4545 83.8692 103.431C85.7182 109.76 84.6882 107.676 88.1862 112.669C88.5332 112.661 91.1832 113.724 92.9362 103.935C90.7102 100.277 90.9362 100.616 92.4352 98.2245C94.6902 98.1845 93.9982 97.7635 95.3132 100.072C94.0092 104.329 93.2852 107.435 103.376 112.166C104.528 111.219 104.626 114.193 96.6512 94.2965C95.8472 86.8765 96.1982 89.4005 95.1442 83.1435C91.8182 77.7715 93.6662 79.6505 86.6812 75.0145C86.7592 67.9225 86.5732 70.0175 87.4162 65.5745C95.1922 60.2835 94.1712 60.3245 98.9592 63.8615C100.7 68.3655 100.784 67.8115 98.2892 67.8595C95.9072 69.2025 96.5432 68.2835 95.6812 71.7915C98.2822 76.3345 99.4292 75.1875 101.802 74.1755C103.61 69.5105 100.993 70.7525 103.509 67.1895C105.865 59.7235 99.9342 57.6935 102.483 51.5725C104.929 48.4265 106.295 46.7685 107.558 45.2885C111.368 36.6005 109.988 33.4565 109.298 29.6985ZM89.2132 56.7695C81.3162 61.8145 84.1882 60.6995 76.6262 62.0315L71.8242 61.0395L69.5662 57.8155C69.7462 50.6415 69.0872 53.2345 72.1422 46.4455L75.3712 41.6585L80.6062 38.7385C80.6062 38.7385 82.2012 38.5615 82.8362 38.4655L85.9152 38.2615L88.1022 40.0105C87.5512 43.1205 87.5972 42.3225 87.8222 43.6825C91.0372 43.9825 89.7772 43.6305 93.3632 45.3705L93.8082 48.1955C92.2212 53.5315 93.2152 51.5635 89.2132 56.7695Z" fill="black"/>
<path d="M87.9261 32.4295L88.3131 32.8855L81.7871 38.7385L81.4011 38.2815L87.9261 32.4295Z" fill="black"/>
<path d="M25.8351 69.2225L28.7931 69.8915L30.8751 73.4465L28.5831 84.5295L22.6281 95.6545L13.5041 105.065H5.4651L4.1731 103.307L14.4201 94.0235L22.6281 80.5565L25.8351 69.2225Z" fill="black"/>
<path d="M78.2282 111.805L79.5142 110.836L83.2092 109.922L84.3882 110.997L86.3692 118.526L87.0662 122.611L86.5302 130.246L83.4772 142.669L81.2272 148.152L77.5852 152.883L73.1392 155.948L73.4602 153.798L77.2102 147.614L79.4062 141.108L81.3862 132.343L82.0832 126.106L81.1192 119.116L78.3342 114.115L78.2282 111.805Z" fill="black"/>
<path d="M50.1822 10.4865L53.9242 10.8145L55.9832 15.5065L54.4072 18.9225L49.2312 18.2845L48.3992 13.4405L50.1822 10.4865Z" fill="black"/>
<path d="M61.8351 5.77349L64.9101 4.26849L66.1371 4.69649L66.5792 6.29049V7.78349L65.7081 10.3005L62.6781 13.0355L57.3601 14.2555L56.9781 12.7825L58.8711 12.1895L61.4641 9.64049L61.8351 5.77349Z" fill="black"/>
<path d="M25.2141 7.8845C25.2141 9.0695 24.3131 10.0295 23.2011 10.0295C22.0891 10.0295 21.1891 9.0695 21.1891 7.8845C21.1891 6.6995 22.0891 5.7395 23.2011 5.7395C24.3131 5.7395 25.2141 6.6995 25.2141 7.8845Z" fill="black"/>
<path d="M29.9172 18.7585C29.9172 19.8585 28.9792 20.7495 27.8222 20.7495C26.6652 20.7495 25.7272 19.8575 25.7272 18.7585C25.7272 17.6595 26.6652 16.7685 27.8222 16.7685C28.9792 16.7685 29.9172 17.6585 29.9172 18.7585Z" fill="black"/>
<path d="M40.4272 35.0155C40.4272 36.1615 39.4092 37.0915 38.1552 37.0915C36.8992 37.0915 35.8832 36.1615 35.8832 35.0155C35.8832 33.8695 36.9002 32.9405 38.1552 32.9405C39.4092 32.9405 40.4272 33.8685 40.4272 35.0155Z" fill="black"/>
<path d="M48.8531 40.6005C48.8531 41.8635 47.8561 42.8865 46.6271 42.8865C45.3981 42.8865 44.4001 41.8635 44.4001 40.6005C44.4001 39.3375 45.3971 38.3145 46.6271 38.3145C47.8561 38.3145 48.8531 39.3375 48.8531 40.6005Z" fill="black"/>
<path d="M57.7421 43.4165C57.7421 44.8095 56.7311 45.9375 55.4861 45.9375C54.2401 45.9375 53.2301 44.8085 53.2301 43.4165C53.2301 42.0245 54.2401 40.8955 55.4861 40.8955C56.7321 40.8965 57.7421 42.0245 57.7421 43.4165Z" fill="black"/>
<path d="M34.4332 28.1485C34.7592 28.6855 34.4582 29.4625 33.7602 29.8865C33.0632 30.3105 32.2322 30.2185 31.9062 29.6825C31.5802 29.1455 31.8812 28.3685 32.5782 27.9445C33.2762 27.5205 34.1062 27.6125 34.4332 28.1485Z" fill="black"/>
<path d="M39.8391 24.5405C39.8391 25.0415 39.4881 25.4465 39.0561 25.4465C38.6241 25.4465 38.2721 25.0415 38.2721 24.5405C38.2721 24.0395 38.6241 23.6335 39.0561 23.6335C39.4881 23.6335 39.8391 24.0395 39.8391 24.5405Z" fill="black"/>
<path d="M28.7211 33.2245C28.8151 33.3315 28.7411 33.5485 28.5301 33.7885C28.3191 34.0285 28.0041 34.2525 27.7101 34.3725C27.4171 34.4925 27.1931 34.4875 27.1281 34.3595C27.0341 34.2525 27.1071 34.0355 27.3191 33.7955C27.5301 33.5555 27.8451 33.3305 28.1381 33.2115C28.4311 33.0925 28.6551 33.0975 28.7211 33.2245Z" fill="black"/>
<path d="M12.0731 44.1675L15.7621 40.7265L17.4841 42.4675L13.7961 45.9075L12.0731 44.1675Z" fill="black"/>
<path d="M4.49609 49.8345L9.87209 45.4805L11.4051 47.2565L6.02909 51.6115L4.49609 49.8345Z" fill="black"/>
<path d="M2.80118 52.7655C2.98118 52.9675 2.99418 53.2875 2.83618 53.5985C2.67818 53.9095 2.37518 54.1595 2.04618 54.2485C1.71818 54.3385 1.41818 54.2545 1.26618 54.0285C1.08718 53.8265 1.07418 53.5065 1.23218 53.1955C1.38918 52.8845 1.69318 52.6345 2.02118 52.5455C2.34918 52.4565 2.64918 52.5395 2.80118 52.7655Z" fill="black"/>
<path d="M2.25017 109.181L3.67017 108.669L5.72117 109.766L7.57517 111.502L7.59517 113.344L3.63417 115.412L1.64917 114.09L1.84617 110.133L2.25017 109.181Z" fill="black"/>
<path d="M23.6451 49.9315C22.1121 70.2635 21.4381 66.3765 25.0011 70.5255C21.6311 83.5115 23.0901 81.1455 18.8751 83.0615C9.24608 79.4205 10.9491 80.8885 10.4601 76.7555C14.2201 58.3105 12.5961 64.3655 17.2461 51.1385C18.2551 49.4975 22.1381 47.6455 23.6451 49.9315Z" fill="#808080"/>
<path d="M60.7642 124.154L73.3032 121.27L76.5542 119.872L78.9192 119.646L79.5372 120.79L79.5932 126.442L78.5942 127.389L60.8902 128.786L59.0762 128.462L58.9502 126.045L60.7642 124.154Z" fill="#808080"/>
<path d="M85.5791 48.2485L88.4841 49.8115L90.8081 51.5535C90.6631 48.8805 87.9731 47.5395 85.5791 48.2485Z" fill="black"/>
<path d="M84.0302 50.3885H83.0612C83.2452 52.9415 86.6342 54.5275 88.8722 54.8605C88.8682 53.5945 88.8132 51.4025 87.8492 50.4695C86.9082 49.5605 84.3402 48.4865 84.0302 50.3885ZM84.3962 50.5265C84.5552 50.2375 85.4472 49.2385 86.4542 50.1875C86.1182 50.2755 84.9742 50.6565 84.7742 52.3335C84.2322 52.2195 84.1372 51.0725 84.3962 50.5265ZM88.2112 54.0245C88.0632 54.1735 86.5152 54.0435 85.1972 52.7025C87.0702 52.3255 87.0662 50.9145 87.0642 50.7215C87.9972 51.4055 88.5992 53.6345 88.2112 54.0245Z" fill="black"/>
<path d="M87.9031 43.5825C88.0471 42.4505 88.7021 41.0195 88.2911 39.8885C86.8671 35.9655 79.8861 38.5235 77.6391 39.8475C72.1881 43.0595 68.5311 49.9145 69.4251 56.2235C69.5481 57.0945 69.3101 57.8825 69.6461 58.7505C71.1511 62.6415 76.4291 62.2595 79.7701 61.8945C87.1891 61.0835 95.7731 52.7585 93.5201 44.9445C91.1741 43.3835 89.6131 43.5825 87.9031 43.5825ZM77.5621 42.1615C77.9341 41.7865 78.1441 41.7825 79.1641 42.3815C78.7341 42.3195 77.6461 42.9645 77.5991 43.7085C77.5991 43.7085 77.3621 43.1935 77.3281 42.9255C77.2811 42.5565 77.1511 42.5735 77.5621 42.1615ZM79.5001 42.7855C80.7601 44.2275 81.3711 49.4665 77.7631 44.2105C78.3131 44.3945 79.4591 43.8225 79.5001 42.7855ZM90.8601 53.8875C84.5221 62.4205 69.8971 65.5055 69.8911 55.4435C69.8881 51.6725 70.8461 49.0845 72.8531 45.9165C78.0831 37.6585 75.2081 45.6665 79.9621 47.0835L77.8311 49.2225C79.8481 48.8745 82.4631 47.6785 83.3381 45.7225C84.2351 43.7155 82.3831 40.2785 80.1551 40.0835C80.6631 41.9175 84.3481 45.3335 80.9291 46.4995C80.9291 44.0955 80.5421 41.5155 77.6371 41.4445C78.4861 38.6135 85.7691 37.5995 87.5651 39.9555C88.4751 41.1485 86.6701 42.9125 87.7941 43.8485C89.4071 45.1925 92.5491 43.4975 93.4081 46.4995C94.1531 49.0965 92.3071 51.9395 90.8601 53.8875Z" fill="black"/>
<path d="M81.3182 55.6375C79.4352 55.3525 77.5092 53.3265 76.2832 51.9435C75.8402 51.4435 75.3142 50.1245 74.5402 50.1245C72.3552 50.1245 72.7482 54.5375 73.6682 55.5955C75.2832 57.4525 79.1892 57.0075 81.3182 56.6115L79.9632 58.7505C83.4142 58.2095 82.0932 55.0675 81.1252 52.9175C80.1562 53.8435 81.0382 54.5915 81.3182 55.6375ZM74.5402 50.9715L78.9942 56.0265C76.5352 56.0265 72.4432 54.0815 74.5402 50.9715Z" fill="black"/>
<path d="M58.8531 8.0005L59.6271 9.3615C60.8941 8.5845 60.2081 7.3555 58.8531 8.0005Z" fill="black"/>
<path d="M71.8281 51.7485L74.1521 48.6385C72.5371 48.7465 71.4361 50.1295 71.8281 51.7485Z" fill="black"/>
<path d="M80.7371 52.3325C80.6401 51.0655 79.5041 50.5825 78.4131 50.1925C78.2201 51.4885 79.5751 52.2055 80.7371 52.3325Z" fill="black"/>
<path d="M62.1451 66.9145C63.3071 71.9315 69.1091 74.5345 73.5721 75.6175C75.3181 76.0415 78.2861 76.3655 79.5761 74.8865C75.6201 73.8585 72.0091 73.9035 68.3441 71.6575C66.4071 70.4705 64.3701 67.1095 62.1451 66.9145Z" fill="#808080"/>
<path d="M74.9931 67.3545C75.7751 66.4945 71.4041 65.1905 70.8091 65.7545C70.3521 66.1875 71.1371 66.7605 71.4411 66.9385C72.2591 67.4165 74.1541 68.2775 74.9931 67.3545Z" fill="#BFBFBF"/>
<path d="M109.272 28.8075C108.719 27.3885 107.479 26.2735 106.958 24.9285C106.694 24.2485 107.399 23.4805 107.442 22.7805C107.594 20.3035 106.107 17.9525 103.396 18.1895C100.589 18.4355 98.6691 21.8635 100.245 24.3355C101.272 25.9485 103.16 26.4135 104.945 26.0855C104.899 31.5475 98.7961 34.5045 93.9061 33.7785C91.0991 33.3615 88.9361 31.7955 85.9661 31.9255C82.8451 32.0625 78.5011 34.1405 77.3401 33.4735C74.7231 31.9685 75.8541 28.8515 76.0881 26.6675C83.0441 31.5725 85.4431 21.5915 80.3501 20.3425C78.8681 19.9785 77.1211 20.5715 76.2141 21.8155C75.7951 22.3905 75.7711 23.3105 75.2131 23.7635C74.1111 24.6575 72.3081 24.7645 71.0921 25.7325C68.5061 27.7905 67.6541 31.9185 67.9861 35.0285C68.4701 39.5665 70.6471 39.9885 70.0431 41.6065C69.2751 43.6605 67.5041 45.4835 66.5611 47.5055C65.8321 49.0665 65.9401 51.0285 65.1571 52.4905C64.3741 53.9545 62.1241 53.4955 62.9171 57.7765C60.2051 57.1365 56.7911 59.0855 57.4941 62.0545C56.3221 61.2395 54.8261 60.0925 53.4271 59.7455C46.1101 57.9355 38.1151 66.0285 31.5421 65.7465C30.5731 65.7045 29.1631 65.1925 28.3041 65.7525C26.8271 66.7135 29.0201 68.0485 29.4111 68.7735C30.3821 70.5705 24.0571 67.3925 23.4071 66.0745C22.7381 64.7195 24.7511 49.2185 24.5511 46.6895C24.4941 45.9795 24.0731 45.2775 24.4131 44.5835C24.9051 43.5805 25.8851 42.8005 26.4361 41.7955C27.1951 40.4145 27.4541 38.8415 28.5751 37.6715C29.8041 36.3875 32.1891 35.2255 33.0311 33.6115C33.4081 32.8875 32.7171 32.2215 33.0111 31.5635C33.3341 30.8435 33.2421 31.6265 40.0611 26.2245C40.6351 25.7695 41.5021 24.3965 42.2901 25.1785C43.8201 26.6945 42.8591 32.3375 40.7811 33.0795C39.6771 33.4745 38.5941 31.9035 37.1591 32.4965C36.1421 32.9165 35.6191 33.9645 35.6101 35.0245C35.5791 38.7905 41.7111 38.1645 40.6451 34.4405C45.2371 33.1805 44.2831 27.2525 45.3331 23.7475C45.3651 23.6405 48.3441 17.8695 49.7941 19.9025C50.5301 20.9355 49.6881 24.3305 49.7471 25.6915C49.8941 29.0495 50.9201 32.1115 49.6311 35.4135C49.3421 36.1525 49.0771 37.3575 48.3511 37.7675C47.8361 38.3175 46.2021 38.0005 45.1731 38.4815C43.2531 39.8495 43.6921 44.2285 47.5101 42.8755C49.5681 42.1465 48.4601 40.7495 49.4441 39.4515C50.4691 38.0985 52.1061 37.2625 53.0401 35.8045C55.1531 32.5055 54.0771 28.6125 53.4281 25.1105C53.2381 24.0835 52.7821 20.0955 54.5821 20.0955C55.2641 20.0955 55.5561 21.1045 55.7421 21.6105C57.7831 27.1555 59.6451 35.0475 56.2641 39.8875C55.4481 41.0555 53.6631 40.4805 53.0391 42.0305C52.3651 43.7035 53.1671 45.5955 54.9771 46.0075C56.9151 46.4475 58.3451 44.8485 58.2611 43.0015C58.2301 42.3165 57.6851 41.4945 58.0231 40.8625C58.5671 39.8465 59.6021 39.1945 60.1321 38.1395C61.8521 34.7245 62.1251 29.8685 60.8451 26.2795C59.8311 23.4385 55.1631 20.0575 56.1191 16.9465C56.9111 14.3685 59.9271 14.8255 61.9461 13.7585C66.5201 11.3415 67.5931 8.0165 66.0191 3.5645C65.9091 2.7865 66.8621 2.0275 66.3951 1.2275C65.9771 0.509499 65.0431 0.614499 64.6111 1.2275C63.7411 2.4615 65.3241 3.3295 63.7551 4.5405C62.7761 5.2965 61.5051 5.0175 60.4001 5.4175C59.8861 5.6035 59.5211 6.1705 58.9941 6.2745C58.1631 6.4395 57.4271 5.8135 56.6291 6.4485C55.3771 7.4455 55.7551 10.2955 53.4281 10.5315C48.0881 11.0735 51.4851 4.7045 42.5821 2.6035C39.4161 1.8565 35.8481 2.7225 33.8611 5.5065C32.7081 7.1235 32.1771 11.0705 29.6061 10.9825C28.6021 10.9475 26.0661 10.1475 25.6631 9.1275C25.1641 7.8665 26.0001 6.6325 24.5511 5.6705C23.1931 4.7695 21.1491 5.3855 20.7731 7.0335C20.4191 8.5845 21.0861 10.2995 22.8281 10.4905C23.5311 10.5675 24.2761 10.1315 24.9261 10.4655C26.6811 11.3685 27.9981 12.9935 30.1891 12.5785C33.0421 12.0385 33.8661 8.1945 35.9991 6.5045C39.4721 3.7515 48.3491 7.7575 48.7181 9.9475C48.9341 11.2285 46.2621 10.4065 45.6831 10.3375C42.4541 9.9515 38.7111 10.8635 37.0141 13.8405C35.7861 15.9925 36.6991 18.3115 33.6751 19.2235C29.1441 20.5905 31.1481 17.0455 28.8291 16.2985C26.5421 15.5615 24.6351 17.3415 25.3161 19.4775C26.3231 22.6385 28.8001 20.3015 30.7681 20.5545C32.6711 20.7995 34.4461 21.3625 36.1831 19.9795C38.3681 18.2415 37.9311 15.5835 41.0331 14.4885C42.3151 14.0355 46.3221 12.9485 46.9111 14.8135C47.3761 16.2875 46.1971 16.1425 38.9021 22.3185C38.2921 22.8355 35.3851 25.1075 34.5781 25.7325C32.2641 27.5255 29.7471 30.7665 27.0161 31.8205C25.9331 32.2385 24.0281 29.1975 23.0271 31.7215C21.4181 31.2585 20.1991 31.9845 20.1221 33.6655C18.3191 33.6715 16.0451 35.0465 15.0361 36.5895C14.0241 38.1365 15.7501 39.8465 14.5041 41.2625C9.96414 46.4205 0.165139 51.0085 0.662139 53.8845C1.29414 57.5345 8.12114 49.7405 12.9561 46.7725C13.4591 46.4635 14.6601 45.1285 15.2551 45.2555C15.9171 45.3975 17.2591 48.7485 17.3901 49.4145C17.6181 50.5795 16.2451 52.3965 15.8621 53.4975C14.5621 57.2305 13.1351 60.9665 12.1011 64.7745C11.0121 68.7855 10.9811 73.3375 9.50914 77.2185C8.76414 79.1835 7.18214 80.7615 6.24914 82.6615C2.26614 90.7725 1.40714 97.8745 1.91514 103.66C1.96914 104.271 2.69114 104.68 2.68014 105.216C2.66814 105.799 1.59014 105.948 1.42114 106.59C1.20214 107.42 1.84614 108.133 1.83214 108.91C1.78014 111.898 0.469139 115.426 2.30214 118.243C3.62014 120.271 9.05114 117.594 9.85614 116.006C10.2891 115.152 9.67514 114.311 9.33814 113.576C8.30914 111.337 6.52814 110.133 4.62614 108.672C4.08314 108.254 3.68914 106.312 4.18714 105.725C4.62014 105.214 5.45514 105.603 5.98314 105.713C7.36214 106 16.5481 106.234 24.1881 103.337C25.5211 102.832 27.9121 102.232 28.6421 100.94C24.4991 101.134 20.8021 103.967 16.4411 103.273C16.5081 103.285 19.5551 100.196 19.5551 100.196C20.9261 98.4615 25.4141 93.1615 26.4281 91.2185C27.1401 89.8545 27.8401 87.5355 28.9831 86.4745C29.6531 85.8525 31.4341 86.1085 32.3221 85.9295C42.3461 83.9135 38.0291 79.5045 42.0061 78.5145C44.7181 77.8395 46.5671 82.2005 42.9751 83.8335C41.9021 84.3215 40.7971 83.7585 39.6821 84.4285C35.6651 86.8415 33.5591 94.8645 34.4531 95.9605C35.1861 96.8585 38.7621 95.6825 39.6821 95.3675C42.0391 94.5605 45.1801 93.5775 46.9311 91.6965C47.5321 91.0505 47.4281 90.0705 47.7081 89.2755C49.4721 84.2745 55.6301 87.6035 52.4451 91.0255C49.7411 93.9275 47.3371 88.3265 44.4601 102.691C44.3141 103.418 43.9441 105.459 44.6421 105.997C45.6811 106.799 51.0261 104.224 52.5461 103.295C54.2981 102.224 55.6041 100.941 57.1141 99.5805C54.7901 103.993 52.8501 108.648 50.7831 113.19C50.0491 114.802 49.4101 117.738 48.1081 118.945C46.3751 120.552 41.3561 114.431 39.8781 116.754C38.7151 118.581 42.7761 121.107 43.7511 122.135C40.4741 121.993 32.3751 120.456 30.7751 122.096C30.0061 122.883 30.6701 123.636 31.5491 123.83C33.9251 124.356 36.6811 124.81 39.1021 125.051C39.1021 125.83 35.0341 125.173 32.9051 125.556C29.7661 126.119 30.2371 128.032 32.5171 128.32C35.0961 128.644 37.8671 128.549 40.4581 128.549C40.4581 129.516 41.0401 128.255 32.9041 130.255C32.1301 130.445 30.3571 131.009 31.2791 132.135C32.7891 133.981 38.8501 131.731 42.2001 131.661C40.9551 133.306 38.4361 133.727 36.9711 135.355C34.4741 138.131 38.9451 137.031 40.2631 136.327C39.1371 139.655 36.5251 143.995 36.6801 145.077C36.7741 145.734 37.3581 145.466 37.6431 145.077C38.2651 144.072 38.6641 142.84 39.1011 141.77H39.2951C39.5371 140.146 40.7711 136.421 42.1991 135.546C39.1871 142.46 39.5741 141.77 39.2951 141.77L38.9071 143.714C39.9831 143.538 40.8561 141.805 41.4921 140.135C41.2861 140.777 41.2201 141.331 41.5331 141.54C42.0101 141.858 42.3961 140.908 42.5311 140.604C43.1831 139.132 43.9421 137.652 44.5231 136.13H44.7171C46.0081 133.275 45.9431 133.277 44.9101 136.13C44.6391 136.13 44.9161 135.501 43.3601 140.408C45.5891 139.743 45.7751 135.419 47.2341 133.796L47.4271 133.212C47.4271 133.911 47.4921 133.796 47.2341 133.796L45.2971 139.048C46.8461 138.921 47.5651 136.13 48.0081 134.771C48.2831 134.771 48.3441 134.283 47.2341 138.076C48.6361 137.846 49.2081 135.805 49.5581 134.576H49.7511C51.0441 131.977 50.9771 131.984 49.9441 134.574C49.6691 134.577 49.8351 134.21 49.1701 137.104C50.4291 136.91 50.7521 135.464 51.1071 134.38H51.3001C51.9381 133.098 52.3011 132.346 52.4181 132.122L52.4381 132.117C52.3551 132.329 52.0371 133.072 51.4951 134.38H51.3001C50.5781 136.714 52.0761 135.813 52.6571 134.186C52.9281 134.186 52.7331 134.423 53.6251 132.628C52.9561 134.419 53.1211 134.183 52.8511 134.186V135.354C54.0731 135.16 54.4011 133.882 54.7881 132.826C55.0471 132.826 54.9191 132.952 55.3691 132.046C55.1381 132.98 55.2411 132.826 54.9821 132.826L54.7881 134.576C55.8571 134.391 56.1111 133.41 56.3381 132.436C56.6031 132.436 56.4311 132.674 57.2621 130.79C56.6391 132.676 56.7971 132.434 56.5321 132.436L56.3391 133.798C57.5821 133.697 57.9641 132.553 58.2761 131.464C58.5341 131.464 58.3751 131.654 59.0501 130.296C58.5981 131.661 58.7271 131.464 58.4691 131.464L58.2761 133.214C59.2191 133.045 59.4881 132.093 59.8261 131.271C60.0661 131.271 59.9771 131.395 60.3271 130.499L60.3631 130.521C60.1941 131.405 60.2591 131.266 60.0191 131.27V132.436C61.1811 132.243 61.5121 131.162 61.7621 130.102H61.9551C61.5041 132.694 62.8891 130.57 63.7351 130.219C64.5091 129.898 65.7491 130.016 66.6031 129.908C66.6031 137.993 65.9571 145.562 68.5021 153.434C68.8231 154.428 69.4121 155.336 69.6641 156.35C70.0241 157.796 69.0951 159.878 71.2481 160.044C71.1111 163.281 70.9901 166.413 73.1051 169.182C74.5971 171.134 78.7971 168.852 79.7021 167.238C81.3661 164.27 78.1931 161.59 75.8961 159.979C75.0821 159.408 72.9421 158.122 73.4421 156.781C73.9631 155.379 76.0061 155.667 81.1161 150.852C88.4421 143.947 95.8461 128.919 95.8461 116.299C95.8461 111.176 95.9661 109.523 95.1081 109.688C94.1951 109.862 95.1601 111.187 94.2741 117.465C92.0521 133.225 88.7531 134.387 86.3581 140.798C85.5671 140.798 90.5501 130.848 87.4821 115.715C86.7821 112.262 84.6441 108.047 83.8001 107.743C83.2391 107.54 82.5651 107.791 75.3171 110.852C75.3171 111.109 75.4331 111.044 74.7361 111.044L75.3171 110.852C77.0531 109.354 81.3571 106.468 81.3031 103.855C81.2711 102.299 79.7781 101.132 80.0041 99.3815C80.1551 98.2145 81.4471 97.0415 82.6741 97.1475C83.1471 97.1875 83.5231 97.4575 83.8911 97.7355C86.5001 99.7115 83.7041 101.335 83.6991 103.464C83.6941 105.416 84.8191 108.133 85.7641 109.822C86.3631 110.891 87.7531 113.925 89.3661 113.269C90.2301 112.916 90.6951 111.636 91.0671 110.859C92.0941 108.715 93.4761 106.13 93.0751 103.658C92.8031 101.978 90.0231 99.9825 92.8661 98.6025C93.8181 98.1405 94.7871 99.0435 94.9401 99.9625C95.3111 102.186 91.0381 104.3 98.8311 110.411C99.5261 110.957 103.68 113.677 104.208 111.779C104.613 110.326 98.0051 100.065 96.5131 91.6015C95.6421 86.6575 97.0411 81.0055 90.4161 76.6645C89.4091 76.0045 87.9911 75.5615 87.2071 74.6115C86.6281 73.9095 87.2481 72.9465 87.3021 72.1575C87.4451 70.0655 86.6791 68.0775 87.6311 65.9875C87.9711 65.2405 89.4011 64.6765 90.0331 64.1855C91.3541 63.1595 92.3911 61.9785 94.0991 61.7545C96.9351 61.3835 99.6851 64.9295 99.9101 67.4895C91.1421 67.5095 96.7821 79.0385 102 74.3245C103.788 72.7095 102.342 71.0895 102.571 69.2395C102.664 68.4875 103.351 67.9505 103.676 67.2955C106.37 61.8655 101.94 58.2555 102.092 54.2695C102.233 50.5885 106.984 47.2025 108.565 43.9635C110.77 39.4525 111.116 33.5455 109.272 28.8075ZM38.8971 36.8415C36.5291 37.5645 34.9801 33.8585 37.3551 33.1665C40.0661 32.3765 41.5341 36.0365 38.8971 36.8415ZM47.0061 42.5565C44.1321 43.1865 43.4671 39.3275 46.2641 38.6205C49.1201 37.8995 49.2311 42.0685 47.0061 42.5565ZM56.5111 45.1575C53.8861 46.2615 52.3981 42.3035 54.7851 41.3655C57.3421 40.3615 58.7051 44.2355 56.5111 45.1575ZM23.6051 9.9035C21.0441 10.2655 20.5071 6.2695 23.0241 5.9405C25.3801 5.6325 26.0021 9.5645 23.6051 9.9035ZM62.5091 5.9285C63.0301 5.1365 65.3501 4.0415 65.9741 5.1005C68.0261 8.5825 63.6731 12.8975 60.5941 13.2765C59.6271 13.3955 57.8841 14.1905 57.4971 12.8625C59.4101 12.6685 61.6991 10.3965 62.2281 8.5855C62.4561 7.8055 62.0411 6.6385 62.5091 5.9285ZM57.1091 10.0725C57.0401 10.1425 56.7371 10.3055 56.6111 10.2575C56.4851 10.2095 56.3111 8.8425 56.3111 8.8425C56.3111 8.8425 57.1791 10.0015 57.1091 10.0725ZM56.1411 9.1675C56.0761 9.7605 56.3371 10.9455 57.1971 10.2505C57.5521 9.9635 55.8061 8.1895 56.8391 7.1465C57.4201 6.5605 58.3501 7.0945 59.0471 6.9955C59.7151 6.8995 60.4031 6.1035 61.1151 6.3815C63.2261 7.2055 59.3031 13.1865 56.1411 12.6125C53.9601 12.2175 54.7761 9.9895 56.1411 9.1675ZM48.9761 14.4195C49.2051 13.1325 50.8121 14.4155 51.2831 13.5875C51.7231 12.8115 50.1871 11.2265 51.6871 10.8685C53.9511 10.3285 55.9271 15.0165 55.2231 16.7505C54.6281 18.2155 53.6601 17.0365 52.6561 17.2845C52.0741 17.4285 51.8811 18.1185 51.2891 18.2335C50.9131 18.3065 50.4891 18.1255 50.4771 17.7235C50.4541 16.9035 51.7421 16.6505 51.4031 15.7855C51.0451 14.8745 48.7821 15.5085 48.9761 14.4195ZM28.0591 20.5945C25.6791 20.9765 24.8171 17.4695 27.2851 17.0115C29.7731 16.5495 30.8051 20.1545 28.0591 20.5945ZM38.9041 23.6995C39.8731 23.4115 40.1761 25.1185 39.2641 25.3535C38.2331 25.6205 37.9211 23.9925 38.9041 23.6995ZM7.45014 112.607C7.24214 113.863 6.21814 113.248 5.50014 113.721C5.10414 113.982 4.94614 114.505 4.52314 114.745C2.02014 116.174 0.896139 110.101 2.75014 109.226C4.22414 108.531 7.72114 110.977 7.45014 112.607ZM33.2881 27.9285C35.1491 27.5765 34.8031 29.8485 33.0941 30.1085C31.2221 30.3925 31.9231 28.1865 33.2881 27.9285ZM28.6401 33.2785C28.4961 34.0815 28.0451 34.1795 27.2851 34.2505C27.4261 33.4025 27.8321 33.3045 28.6401 33.2785ZM24.2431 32.0545C25.9101 31.4525 26.5481 36.5815 25.3141 36.7925C24.2451 36.9765 23.0221 32.4945 24.2431 32.0545ZM21.2301 33.3315C22.0351 31.6615 23.1511 34.2415 23.2091 36.3885C23.2301 37.1665 23.2171 37.9465 23.2171 38.7215C21.6671 38.4615 20.5741 34.6925 21.2301 33.3315ZM18.8361 34.7845C19.4531 34.6015 19.7781 35.3495 19.9171 35.8055C21.6931 41.6085 19.5721 41.8835 18.8421 40.0825C18.4761 39.1805 17.3841 35.2155 18.8361 34.7845ZM15.8581 37.0265C16.6321 35.8055 17.4071 37.4045 17.5431 38.1385C17.8261 40.6255 17.7521 41.0175 17.6021 41.8325C16.2451 41.3855 15.0281 38.3325 15.8581 37.0265ZM1.91314 54.1655C0.825139 54.2685 1.11414 52.7105 2.10614 52.6465C3.38014 52.5655 2.94614 54.0685 1.91314 54.1655ZM9.46614 48.7485C7.57514 50.3075 7.07414 50.5175 5.98114 51.3595C3.77114 49.9485 7.83214 46.7805 9.46614 46.3975C11.5651 45.9055 10.0791 48.2425 9.46614 48.7485ZM13.7621 45.3325C13.1481 45.3325 12.3821 44.4615 12.6791 43.8765C12.9961 43.2515 15.0451 41.3555 15.7021 41.2495C16.3901 41.1385 16.8241 42.0715 16.6341 42.6175C16.3741 43.5105 14.7311 45.2585 13.7621 45.3325ZM16.9311 46.1105C16.7091 45.5315 16.2531 44.8475 16.3421 44.1995C16.4331 43.5355 17.8891 41.9675 18.5691 41.9505C19.1461 41.9365 19.4991 42.4555 20.1091 42.2375C21.1311 41.8725 20.8951 40.6875 21.5191 40.0075C22.5071 38.9295 23.6781 39.8485 23.9921 37.7485C27.3741 38.1545 28.1871 33.2785 31.7391 32.8895C31.2151 34.6395 29.0341 35.3685 27.9201 36.6185C26.6301 38.0645 26.2331 40.3685 24.9611 41.9715C24.2491 42.8695 22.5481 43.3195 22.0401 44.0755C21.6721 44.6225 22.8281 44.8665 23.1021 45.1385C23.6911 45.7255 23.4181 47.0265 22.9141 47.5555C22.2091 48.2955 19.1501 49.6105 18.2401 48.9065C17.4691 48.3095 17.2611 46.9705 16.9311 46.1105ZM11.9101 81.9565C12.4971 81.3925 13.8501 81.5765 13.9961 82.4805C14.3381 84.6065 12.5121 82.8605 8.86214 97.4405C8.59414 98.5085 7.64114 99.7285 6.56114 99.3845C5.56114 99.0665 9.48114 84.2945 11.9101 81.9565ZM15.9461 101.829C13.6721 103.778 11.2791 104.635 8.30314 104.635C7.69014 104.635 5.99014 104.926 5.72014 104.187C5.39514 103.295 11.9611 97.8805 13.9991 95.6915C21.7881 87.3235 26.1061 74.9605 26.1211 69.6375C26.8841 69.6395 30.6741 71.7505 30.3721 75.6495C27.5651 86.8115 22.7921 95.9605 15.9461 101.829ZM29.6091 69.8315C30.7691 70.1475 31.7031 71.4485 32.9011 71.5815C34.8371 71.7965 36.7801 69.4495 38.7951 71.5325C39.3681 72.1255 39.1481 73.0705 38.7971 73.7205C37.2661 76.5525 35.2261 74.5565 33.2891 75.8965C32.1941 76.6545 31.8141 78.3865 30.5771 78.7755L31.5461 72.9425L29.6091 69.8315ZM56.8931 96.4695C56.1881 91.2995 63.9641 91.9905 62.1451 96.0795C61.6271 97.2445 59.5071 98.4295 58.2721 98.6715C57.2101 98.8795 56.9991 97.2465 56.8931 96.4695ZM55.7541 121.94C54.8541 121.191 54.8031 121.247 55.5611 121.551C59.6581 112.686 58.5551 114.918 60.5961 111.245L55.7541 121.94ZM62.1451 110.857C61.3131 114.763 58.6231 118.908 56.9161 122.523C56.6411 122.523 56.2611 123.561 60.5211 113.968L62.1451 110.857ZM56.1411 117.046C59.1411 110.118 58.6971 111.051 59.2411 111.051C55.4771 119.236 52.5331 125.378 56.1411 117.046ZM54.0111 115.328C58.3991 106.582 57.1351 107.162 58.0781 107.162C53.8501 117.061 55.3151 113.785 52.2671 120.189C52.0741 118.698 53.3531 116.639 54.0111 115.328ZM50.7191 119.801C56.4501 106.455 54.8191 110.248 58.0781 102.691C58.0781 102.691 53.3591 118.065 50.7191 119.801ZM58.2721 109.301C58.1281 112.063 55.8681 115.366 54.6991 117.857C50.8821 125.99 54.6701 114.083 58.2721 109.301ZM58.0781 100.163C54.7391 108.487 56.6001 104.13 49.5571 119.995C48.4311 119.995 55.4321 103.451 58.0781 100.163ZM42.7771 137.495H42.5841C42.4911 137.848 42.0571 138.68 41.7221 139.505C42.5271 137.223 42.2701 137.495 42.5841 137.495C44.3781 133.893 44.3391 133.837 42.7771 137.495ZM48.5881 134.383C48.3321 134.383 48.3241 134.661 48.7691 132.878C48.8831 132.859 49.0001 132.84 49.1101 132.822C49.2121 132.865 49.0561 133.132 48.5881 134.383ZM54.3991 131.661C53.5891 132.745 53.6551 132.71 54.3991 131.467V131.661ZM55.5611 131.857C55.3061 131.857 55.2601 132.062 55.8941 130.796L55.9121 130.794L55.5611 131.857ZM58.0781 125.05C57.2701 125.979 57.6051 128.092 56.8001 128.745C54.3031 130.768 49.8031 130.676 46.8451 131.764C43.6331 132.945 41.0181 135.788 37.5491 136.327C38.6701 134.189 43.0221 134.22 43.6011 131.669C44.1991 129.031 36.1141 132.477 31.7391 131.661C31.7391 131.383 30.5241 131.734 42.3911 129.135C41.7111 126.995 39.9961 127.728 38.3161 127.773C34.1131 127.887 31.1581 127.435 31.1581 126.995C34.8751 125.411 40.7201 126.912 41.6161 125.716C42.3361 124.756 39.9311 124.493 39.4861 124.354C36.9441 123.554 34.0241 123.107 31.3511 123.107C31.7291 122.028 32.9381 122.449 33.8701 122.379C37.8761 122.082 44.6691 124.467 44.9011 122.135C45.0481 120.663 40.8311 119.703 40.6481 117.274L47.4261 120.58C55.3281 122.447 52.9561 121.43 58.0781 124.857V125.05ZM57.8841 123.301C62.8031 112.089 67.5481 102.147 62.5071 113.578C57.7271 124.419 58.1651 123.301 57.8841 123.301ZM59.6271 122.717C59.4341 121.285 60.7831 119.333 61.4191 118.051C63.7961 113.259 66.6051 106.216 67.7621 105.218C59.2151 124.053 59.9281 122.717 59.6271 122.717ZM61.3701 122.328C60.9221 120.756 66.7401 111.23 69.6411 103.273C70.2081 101.717 68.5471 99.9875 69.0761 98.2175C69.5551 96.6115 71.5721 95.4875 73.1281 96.3295C74.7321 97.1985 74.4281 99.1945 73.3371 100.354C72.5731 101.166 71.3291 101.42 70.6661 102.335C69.1111 104.483 65.0041 115.71 61.3701 122.328ZM63.1131 121.94H62.9201C63.5981 118.117 66.2841 114.002 67.8961 110.468C68.8561 108.363 69.5751 105.652 71.0541 103.857C68.4741 110.468 70.1831 106.54 63.1131 121.94ZM64.4691 121.551C69.6341 109.884 68.1311 113.141 71.2471 106.774C70.8601 110.336 68.0171 114.599 66.5391 117.857C66.0111 119.022 65.5561 120.838 64.4691 121.551ZM66.2261 121.439C66.3701 118.892 68.2891 117.416 71.4421 108.33C71.9931 111.367 67.3831 116.934 66.6001 121.357L66.6211 121.355C66.4561 121.397 66.3271 121.425 66.2261 121.439ZM67.7621 120.967C68.2351 117.759 70.5911 113.653 72.2161 110.857C72.2161 110.857 72.3921 110.999 72.6271 111.174C72.6161 111.2 72.6071 111.22 72.5981 111.245H72.4101C67.5141 121.931 68.0421 120.967 67.7621 120.967ZM74.5401 160.26C75.2721 160.389 78.4481 163.063 77.9911 163.811C77.5561 164.521 76.0001 163.93 73.9591 166.271C72.7971 165.227 71.6341 159.748 74.5401 160.26ZM77.4281 147.605C79.8491 141.389 81.8101 134.66 82.2701 127.967C83.0271 116.959 78.7261 116.614 78.3401 112.417C78.2111 111.013 81.8221 110.285 82.8681 110.377C84.1771 110.491 84.4671 112.167 84.7831 113.189C85.7141 116.2 86.2751 119.216 86.6011 122.328C87.3951 129.911 82.6951 143.917 82.1641 145.271C81.6331 146.626 77.6901 152.875 73.5701 154.799C74.0171 152.336 76.4831 150.031 77.4281 147.605ZM101.521 53.5025C100.838 57.9295 105.534 61.6305 103.15 67.1125C102.87 67.7575 102.207 68.1345 102.09 68.8665C101.782 70.8065 103.159 72.6665 101.048 74.1905C98.8951 75.7455 95.5191 73.3335 96.1191 70.8065C96.3411 69.8745 97.0451 68.8215 97.9741 68.5185C98.8191 68.2435 102.024 68.4815 99.6941 64.5845C98.3431 62.3245 96.2711 60.6625 93.5191 61.0395C92.2931 61.2075 91.3631 62.1615 90.4201 62.8815C89.4551 63.6195 87.9961 64.3105 87.2461 65.2455C85.8181 67.0265 86.5351 69.8365 86.5431 71.7805C86.5471 72.6955 85.8371 73.8185 86.1041 74.6965C86.4911 75.9685 88.7921 76.7725 89.8411 77.4195C97.3501 82.0525 95.0791 89.6835 96.7961 95.6955C98.7281 102.465 103.155 110.118 103.59 111.633C99.9101 110.921 95.8111 107.866 94.8341 104.051C94.2861 101.911 97.2741 99.1275 93.9061 97.7385C92.2601 97.0585 90.9181 99.3885 90.9201 100.746C90.9221 102.167 92.0971 102.798 92.4391 104.052C92.9751 106.02 91.2101 108.99 90.3411 110.662C90.0371 111.248 89.6331 112.318 88.8711 112.428C87.2471 112.66 84.3201 105.303 84.4761 103.662C84.5591 102.793 85.2551 102.151 85.4811 101.329C86.0361 99.3065 85.2931 97.2475 83.2531 96.4975C81.8221 95.9725 79.9761 97.2595 79.5331 98.6095C78.8221 100.781 80.7761 102.217 80.5051 104.053C80.1031 106.775 75.6611 109.395 73.7641 111.052H73.5701C71.8761 109.534 72.0381 107.356 71.7461 105.219C71.6401 104.441 71.3671 103.122 71.8271 102.418C72.9241 100.738 75.3141 100.493 74.8351 97.8305C74.3251 95.0055 70.8611 94.6385 69.1931 96.6725C67.5701 98.6525 69.2941 100.683 68.3991 102.692C66.9511 105.943 63.5021 108.41 60.9831 110.664C60.9831 110.664 60.0021 110.657 59.8101 110.463C58.5181 109.157 58.3421 106.132 58.5221 104.442C58.6741 103.013 58.1821 100.746 58.7781 99.4415C59.2841 98.3345 61.5621 98.0315 62.4341 97.1105C64.4021 95.0315 61.9421 91.6575 59.4341 92.0415C57.5391 92.3315 56.0241 94.3905 56.1781 96.2775C56.2501 97.1645 56.9501 98.2585 56.4461 99.0945C54.3081 102.632 48.7281 104.695 44.9091 105.415C44.9091 101.915 46.0191 95.9345 48.6891 93.4235C50.1091 92.0875 52.3011 93.2335 53.6241 91.0275C56.1821 86.7625 48.7331 82.8125 47.0411 89.0835C46.8841 89.6635 47.0501 90.4505 46.7141 90.9045C45.2731 92.8505 42.0081 93.6435 39.8761 94.4455C39.0631 94.7515 35.8771 95.8445 35.2281 94.9935C34.5871 94.1535 35.7911 92.0395 36.1071 91.2235C39.9181 81.3905 43.0241 86.5545 45.1581 83.2515C46.8591 80.6195 44.6801 76.6955 41.4261 77.8185C38.9091 78.6875 39.4921 81.0565 38.0501 82.5765C35.7171 85.0355 31.4071 85.3895 28.2561 85.3895C28.6201 82.4725 31.6091 77.9065 34.1001 76.3685C34.9061 75.8715 35.7381 76.3515 36.5841 76.1585C38.3281 75.7605 39.8681 73.5885 39.4081 71.7865C38.9701 70.0695 36.5151 69.4375 35.0351 70.0305C34.4451 70.2665 33.9341 70.9465 33.2921 71.0155C32.6311 71.0865 32.1341 70.2795 31.7251 69.8895C30.6431 68.8585 28.8861 67.9125 28.6441 66.3335C31.4551 66.3335 34.0701 66.3415 36.7531 65.3605C41.1071 63.7695 45.4441 60.7335 50.1421 60.1475C53.3261 59.7505 55.1091 62.6385 58.0821 62.6385C58.0681 61.9775 57.8141 61.1395 58.0391 60.5075C58.8221 58.3095 62.1351 59.4085 63.1941 57.9715C63.7421 57.2295 63.3521 56.2425 63.6711 55.4445C64.0901 54.3945 65.2551 54.0455 65.7451 53.1115C66.4831 51.7075 66.4131 49.9065 67.0581 48.4445C68.0541 46.1885 70.0941 43.9745 70.7651 41.6395C71.2121 40.0845 69.5871 38.2595 69.1201 36.7785C68.1591 33.7315 68.4191 30.6385 70.0261 27.8355C71.4531 25.3475 73.4461 25.5155 75.5061 24.1915C77.1101 23.1615 78.0781 19.9645 80.7371 21.3135C82.7861 22.3525 82.8291 25.7575 80.7371 26.8015C78.9281 27.7035 77.8361 25.9855 76.2831 26.2805C73.5101 26.8095 75.1231 32.3315 76.2131 33.6085C77.9241 35.6135 81.4741 33.1215 86.1601 32.7295C88.4841 32.5355 90.2301 34.0435 92.3571 34.5475C96.8511 35.6135 104.129 33.6725 105.334 28.6105C105.53 27.7865 105.919 26.4675 105.249 25.7775C104.648 25.1575 103.767 25.3905 103.01 25.2375C101.452 24.9235 100.279 23.3915 100.556 21.8035C101.032 19.0805 104.673 18.1905 106.227 20.4425C107.334 22.0475 105.883 23.5055 106.272 25.1085C106.589 26.4175 108.504 26.7675 109.506 32.4975C110.365 37.4145 109.086 42.2195 106.285 46.3025C104.718 48.5955 101.97 50.5925 101.521 53.5025Z" fill="#808080"/>
<path d="M79.1711 121.357C79.2831 122.619 79.8161 125.923 78.7181 126.828C77.7591 127.618 75.6981 127.254 74.5231 127.408C70.9301 127.879 67.1301 128.069 63.5021 128.164C62.3981 128.192 60.7341 128.754 59.6901 128.238C58.2391 127.521 60.0151 124.822 60.9831 124.483C64.5271 123.241 68.5841 123.129 72.2161 121.962C75.0021 121.067 78.8871 118.145 79.1711 121.357Z" fill="black"/>
<path d="M75.0131 146.049C74.8371 147.638 73.6801 148.99 73.3781 150.523C72.4091 149.939 72.5921 147.705 72.4661 146.633C71.9881 142.58 72.2161 138.466 72.2161 134.383C72.2161 133.411 72.0001 130.194 73.0491 129.717C75.1321 128.77 74.1221 133.682 74.2351 134.577C74.5271 136.911 74.1811 139.251 74.3471 141.577C74.4491 143.017 75.1711 144.618 75.0131 146.049Z" fill="white"/>
<path d="M77.4451 114.745C78.5951 116.909 77.0571 118.549 74.9271 118.828C75.0921 117.219 76.0891 115.624 77.4451 114.745Z" fill="white"/>
<path d="M11.9572 72.3595C12.7322 66.9545 14.3632 61.6675 15.8282 56.4165C16.6362 53.5215 17.3972 49.6755 20.8922 49.0925C23.9172 48.5875 22.8172 53.3145 22.6022 55.2495C22.2622 58.3075 22.0522 61.3195 21.8432 64.3885C21.7712 65.4485 21.2872 66.6545 21.3762 67.6945C21.5262 69.4425 22.9302 69.3165 23.4852 70.4765C24.1942 71.9565 22.5112 81.1005 19.9042 81.8255C19.0082 82.0745 18.0522 81.6295 17.2102 81.3875C15.0762 80.7775 11.6022 80.3545 11.2692 77.6105C11.0722 75.9845 11.7252 73.9785 11.9572 72.3595Z" fill="black"/>
<path d="M15.4211 129.509C13.5511 133.612 17.3291 138.953 17.3551 142.892C20.3471 140.345 26.8331 139.735 28.7241 135.642C29.6161 133.713 28.8341 131.45 27.0031 130.611C25.1621 129.768 22.9511 130.641 22.0721 132.576C22.9551 130.633 22.1811 128.388 20.3511 127.545C18.5131 126.697 16.3021 127.575 15.4211 129.509Z" fill="#808080"/>
<path d="M31.6991 154.954C29.3481 155.575 26.9981 156.195 24.6471 156.816C25.4411 156.567 25.9911 155.853 26.5261 155.242C27.6941 153.736 28.7611 152.102 29.4241 150.301C29.7501 149.417 30.0471 148.421 29.8231 147.471L31.6991 154.954ZM24.6481 156.817C25.6751 156.581 26.7211 156.997 27.6431 157.425C29.3301 158.21 30.8531 159.339 32.2381 160.598C32.7641 161.131 33.3651 161.685 33.5761 162.438C32.9501 159.944 32.3251 157.45 31.7001 154.955L24.6481 156.817ZM33.5761 162.438C33.3311 161.315 33.7311 160.167 34.1581 159.149C34.8831 157.419 35.9171 155.825 37.1041 154.389C37.5781 153.879 38.0691 153.291 38.7501 153.092C36.3991 153.713 34.0501 154.334 31.6991 154.954L33.5761 162.438ZM38.7501 153.092C37.7231 153.328 36.6771 152.913 35.7561 152.485C34.0691 151.701 32.5461 150.57 31.1611 149.312C30.6351 148.779 30.0351 148.224 29.8241 147.471C30.4491 149.966 31.0741 152.459 31.6991 154.954L38.7501 153.092Z" fill="#808080"/>
<path d="M58.0492 157.425C56.5742 156.606 55.7592 157.236 54.3722 157.303C56.3622 155.532 57.5822 156.333 58.5862 154.515C60.5952 150.876 54.9522 147.737 52.9432 151.374C51.9472 153.177 53.2752 153.895 52.8572 156.5C52.6602 156.159 52.4912 155.787 52.3712 155.384C51.5942 152.655 47.8442 152.112 46.4712 154.598C45.0922 157.094 47.5422 159.98 50.3342 159.169C50.8922 159.007 51.4502 158.97 51.9722 158.987C51.3892 159.873 49.0912 163.025 46.6792 161.692L53.2482 165.348C51.2862 164.254 51.7742 161.509 52.6992 159.451C53.6372 160.889 53.4182 162.036 55.0132 162.923C58.7462 165.001 61.7812 159.504 58.0492 157.425Z" fill="black"/>
<path d="M36.8172 110.676C35.8962 107.484 30.4492 106.548 28.3222 104.432C27.6462 107.369 23.5302 111.072 24.4402 114.258C25.2082 116.948 29.4702 116.866 30.5362 114.154C30.8432 116.166 31.0022 119.467 28.9012 120.075L36.1072 117.99C34.0302 118.591 32.4082 115.798 31.5522 113.802C33.8742 115.598 37.6042 113.402 36.8172 110.676Z" fill="black"/>
</g>
<defs>
<clipPath id="clip0_1_777">
<rect width="111" height="170" fill="white"/>
</clipPath>
</defs>
</svg>
