<svg width="302" height="483" viewBox="0 0 302 483" fill="none" xmlns="http://www.w3.org/2000/svg">
<g clip-path="url(#clip0_1_1761)">
<path fill-rule="evenodd" clip-rule="evenodd" d="M116.061 169.138L118.011 161.549C118.011 161.549 126.634 164.809 131.074 166.025C136.324 167.46 141.701 168.396 147.062 169.332C150.231 169.885 153.409 170.435 156.616 170.694C163.095 171.219 169.614 171.211 176.113 171.084C182.688 170.954 189.256 170.494 195.806 169.916C199.13 169.622 202.446 169.226 205.749 168.748C209.535 168.201 217.058 166.803 217.058 166.803L204.19 179.255L180.013 179.45L167.534 210.58L186.642 211.943L182.937 232.956C182.937 232.956 168.231 232.277 160.905 231.594C154.123 230.962 147.361 230.094 140.628 229.064C136.318 228.406 132.057 227.463 127.76 226.73C124.516 226.177 118.01 225.174 118.01 225.174C118.01 225.174 115.33 218.219 113.721 214.861C111.2 209.598 105.337 199.491 105.337 199.491L123.08 203.771L132.829 174.781L116.061 169.138Z" fill="black"/>
<path fill-rule="evenodd" clip-rule="evenodd" d="M92.023 149.178C92.023 149.178 100.486 154.682 104.997 156.924C109.208 159.018 118.078 162.217 118.078 162.217L106.411 199.615C106.411 199.615 99.905 190.406 96.158 186.208C92.658 182.288 88.746 178.742 84.798 175.271C81.41 172.292 74.238 166.803 74.238 166.803L92.023 149.178ZM94.39 215.845C94.39 215.845 98.858 229.312 99.693 236.308C100.573 243.667 100.608 251.235 99.34 258.536C98.213 265.022 95.76 271.267 92.976 277.236C90.477 282.593 87.623 287.908 83.784 292.406C80.476 296.281 76.266 299.326 72.116 302.286C66.871 306.026 55.499 312.164 55.499 312.164L51.964 308.989C51.964 308.989 53.322 294.786 54.792 287.819C56.36 280.39 58.436 273.036 61.156 265.945C63.682 259.363 67.023 253.111 70.349 246.893C73.632 240.753 76.651 234.374 80.955 228.899C84.813 223.992 94.39 215.845 94.39 215.845Z" fill="#804040"/>
<path fill-rule="evenodd" clip-rule="evenodd" d="M88.026 222.549C88.026 222.549 92.276 235.316 92.622 241.954C93.004 249.296 91.788 256.751 89.794 263.828C87.838 270.771 84.961 277.583 80.955 283.586C77.905 288.156 73.871 292.069 69.641 295.582C64.791 299.609 53.731 305.814 53.731 305.814C53.731 305.814 55.23 291.17 56.56 283.939C57.566 278.468 58.62 272.964 60.449 267.709C62.749 261.099 66.039 254.859 69.288 248.657C71.881 243.705 74.496 238.722 77.773 234.192C80.803 230.002 88.026 222.549 88.026 222.549Z" fill="#BF6060"/>
<path fill-rule="evenodd" clip-rule="evenodd" d="M18.765 197.092L12.962 210.058C12.962 210.058 13.793 214.278 15.497 215.032C16.524 215.485 17.819 214.905 18.747 214.147C19.934 213.179 21.247 209.847 21.247 209.847L26.207 199.431" fill="#FF8080"/>
<path d="M18.765 197.092L12.962 210.058C12.962 210.058 13.793 214.278 15.497 215.032C16.524 215.485 17.819 214.905 18.747 214.147C19.934 213.179 21.247 209.847 21.247 209.847L26.207 199.431" stroke="#804040" stroke-width="2.025" stroke-linecap="round" stroke-linejoin="round"/>
<path d="M13.949 209.688C13.949 209.688 16.432 208.681 17.747 208.596C18.8 208.527 20.876 209.069 20.876 209.069" stroke="#804040" stroke-width="2.025" stroke-linecap="round" stroke-linejoin="round"/>
<path fill-rule="evenodd" clip-rule="evenodd" d="M137.208 37.569C137.208 37.569 123.426 51.586 118.128 59.78C112.585 68.356 108.426 77.853 105.138 87.517C102.286 95.898 100.782 104.702 99.398 113.445C98.578 118.63 98.297 123.888 97.888 129.122C97.495 134.14 96.981 144.196 96.981 144.196L141.996 102.591C141.996 102.591 139.28 93.437 138.672 88.723C138.068 84.037 138.421 79.277 138.37 74.553C138.303 68.223 138.575 61.888 138.37 55.56C138.176 49.553 137.208 37.569 137.208 37.569Z" fill="black"/>
<path fill-rule="evenodd" clip-rule="evenodd" d="M270.778 145.93C265.711 148.517 258.712 151.992 252.531 154.705C246.698 157.265 240.817 159.754 234.775 161.775C229.692 163.474 224.467 164.722 219.264 166.008C214.442 167.2 209.628 168.492 204.716 169.236C199.636 170.004 194.479 170.123 189.356 170.499C185.236 170.802 181.119 171.223 176.988 171.3C171.985 171.395 166.978 171.182 161.982 170.895C157.392 170.632 152.787 170.397 148.246 169.687C143.127 168.886 138.099 167.57 133.089 166.257C128.772 165.125 124.505 163.809 120.262 162.427C115.61 160.913 110.91 159.487 106.422 157.54C101.158 155.259 94.682 151.38 91.146 149.615L136.438 107.653C136.438 107.653 139.18 108.161 140.542 108.458C143.131 109.023 142.989 109.403 148.272 110.313C150.767 111.348 152.437 113.876 154.917 114.948C157.94 116.253 161.294 116.981 164.587 116.974C170.877 116.96 178.454 115.281 183.035 113.021C185.418 113.019 187.52 112.621 189.762 112.406C192.872 112.106 195.992 111.884 199.087 111.462C202.413 111.008 205.777 110.652 209.011 109.755C211.777 108.988 214.402 107.775 217.037 106.637C219.928 105.389 225.565 102.575 225.565 102.575C229.547 109.2 234.603 118.045 243.157 126.13C247.434 130.173 252.433 135.848 256.707 139.087C260.982 142.325 267.778 144.342 270.778 145.93Z" fill="#FF8080"/>
<path fill-rule="evenodd" clip-rule="evenodd" d="M138.193 75.366C138.193 75.366 132.098 85.079 129.609 90.23C127.822 93.928 126.222 97.743 125.077 101.687C124.173 104.801 123.565 107.993 123.26 111.221C123.002 113.961 123.265 119.474 123.265 119.474L142.298 102.591C142.298 102.591 139.654 94.036 138.975 89.627C138.25 84.922 138.193 75.366 138.193 75.366Z" fill="#BF6060"/>
<path fill-rule="evenodd" clip-rule="evenodd" d="M195 1.86099L260.5 85.853L268.333 84.19L209 1.85999L195 1.86099Z" fill="black"/>
<path fill-rule="evenodd" clip-rule="evenodd" d="M278 1.86099C276.327 11.7476 275.657 21.7778 276 31.799C276.348 41.946 277.752 52.115 281 61.737C283.394 68.8204 286.759 75.5372 291 81.695C283.276 81.1868 275.521 81.8599 268 83.691L209 1.85999L278 1.86099Z" fill="#FF8080" stroke="#804040" stroke-width="2" stroke-linecap="round" stroke-linejoin="round"/>
<path fill-rule="evenodd" clip-rule="evenodd" d="M244.592 27.279C244.988 28.268 245.444 29.257 246.11 30.083C246.99 31.172 247.954 32.39 249.302 32.819C250.997 33.359 253.294 33.543 254.692 32.37C256.056 31.227 256.482 28.943 256.039 27.275C255.527 25.35 251.812 23.1 251.812 23.1C251.812 23.1 256.54 21.523 257.368 19.495C258.145 17.591 257.334 15.052 255.928 13.628C254.541 12.225 252 11.292 250.132 12.113C248.034 13.034 246.832 18.123 246.832 18.123C246.832 18.123 245.994 14.378 244.782 13.005C243.704 11.785 242.154 10.593 240.491 10.629C239.016 10.662 237.314 11.585 236.624 12.904C235.539 14.98 236.013 17.861 237.249 19.768C238.489 21.679 243.247 23.103 243.247 23.103C243.247 23.103 241.972 20.406 244.229 18.849C246.033 17.605 249.275 19.087 250.276 20.952C251.123 22.532 250.676 25.562 248.976 26.289C245.581 27.739 243.857 24.571 243.857 24.571C243.857 24.571 244.246 26.413 244.592 27.279ZM264.168 54.46C264.521 55.354 264.928 56.249 265.523 56.996C266.307 57.981 267.168 59.083 268.37 59.471C269.883 59.958 271.932 60.125 273.18 59.064C274.397 58.031 274.777 55.965 274.382 54.457C273.925 52.716 270.61 50.681 270.61 50.681C270.61 50.681 274.317 48.858 274.9 47.088C275.47 45.36 274.911 43.062 273.616 41.782C272.52 40.7 270.516 40.112 269.111 40.744C267.23 41.592 266.166 46.18 266.166 46.18C266.166 46.18 265.419 42.793 264.336 41.551C263.376 40.448 261.992 39.37 260.509 39.403C259.193 39.432 257.674 40.267 257.059 41.46C256.091 43.337 256.513 45.943 257.617 47.667C258.723 49.397 262.968 50.684 262.968 50.684C262.968 50.684 261.831 48.244 263.844 46.836C265.454 45.711 268.347 47.052 269.239 48.739C269.995 50.167 269.597 52.909 268.079 53.565C265.05 54.876 263.512 52.011 263.512 52.011C263.512 52.011 263.859 53.676 264.168 54.46Z" fill="black" stroke="black" stroke-width="2" stroke-linecap="round" stroke-linejoin="round"/>
<path d="M218.333 3.52496C218.333 3.52496 218.921 14.729 223.833 20.323C228.556 25.701 234.111 25.923 239 25.479C239 25.479 236.7 38.591 241 43.94C245.664 49.742 261 54.252 261 54.252C261 54.252 257.42 64.279 262.333 71.217C265.053 75.059 274.167 80.697 274.167 80.697" stroke="black" stroke-width="2" stroke-linecap="round" stroke-linejoin="round"/>
<path fill-rule="evenodd" clip-rule="evenodd" d="M223.094 2.49801C222.404 2.50001 221.754 3.03801 221.625 3.71401C221.625 3.71401 219.802 12.03 225.688 17.904C226.598 18.812 227.905 19.594 229.5 20.46C231.095 21.328 232.937 22.217 234.688 23.018C237.742 24.415 239.837 25.213 240.5 25.481C240.503 26.186 240.477 27.708 240.875 30.502C241.355 33.87 241.962 38.645 244.198 41.802C248.338 47.647 253.085 50.148 256.5 51.832C258.735 52.935 260.26 53.32 261.281 53.517C261.38 54.284 261.559 55.937 262.125 58.787C262.808 62.227 263.739 66.14 265.313 68.673C266.962 71.326 270.241 74.158 273.188 76.5C276.134 78.842 278.75 80.616 278.75 80.616C279.404 81.057 280.402 80.864 280.844 80.211C281.286 79.558 277.759 77.066 277.104 76.625C277.104 76.625 274.748 73.268 274.229 69.837C271.377 67.569 269.295 67.519 267.677 65.45C266.093 63.424 265.721 61.51 265.062 58.194C264.404 54.878 264.062 52.082 264.062 52.082C263.979 51.402 263.372 50.824 262.687 50.772C262.687 50.772 256.987 49.341 254.844 47.488C252.373 45.35 249.159 44.533 249.802 39.088C248.072 36.645 244.29 33.198 243.844 30.065C243.398 26.933 243.406 24.515 243.406 24.515C243.41 24.2098 243.323 23.9103 243.156 23.6547C242.989 23.3991 242.75 23.199 242.469 23.08C242.469 23.08 239.361 21.84 235.938 20.273C234.226 19.49 232.138 19.226 230.938 17.81C229.47 16.078 229.386 11.699 228.979 11.292C224.324 6.646 224.562 4.33801 224.562 4.33801C224.77 3.46001 223.998 2.49301 223.094 2.49801Z" fill="black"/>
<path fill-rule="evenodd" clip-rule="evenodd" d="M182 1.86096H195.333L301 140.24V172.506L182 1.86096Z" fill="#BF6060" stroke="#804040" stroke-width="2"/>
<path d="M157.993 1.86096C157.993 1.86096 159.763 13.134 172.645 23.99C185.526 34.845 207.003 39.187 207.003 39.187" stroke="#804040" stroke-width="2" stroke-linecap="round" stroke-linejoin="round"/>
<path d="M163.16 1.86096C163.16 1.86096 168.373 13.667 175.589 19.667C182.805 25.667 203.121 32.754 203.121 32.754" stroke="#804040" stroke-width="2" stroke-linecap="round" stroke-linejoin="round"/>
<path d="M169.267 1.86096C169.267 1.86096 173.677 11.899 179.059 16.471C184.441 21.042 198.984 26.981 198.984 26.981" stroke="#804040" stroke-width="2" stroke-linecap="round" stroke-linejoin="round"/>
<path d="M174.288 1.86096C174.288 1.86096 177.02 8.67896 181.318 12.222C185.616 15.765 194.208 19.597 194.208 19.597M159.939 9.38396C159.939 9.38396 159.099 13.461 153.795 22.314C148.491 31.167 138.048 34.92 138.048 34.92M156.051 1.86096C156.051 1.86096 155.878 8.89496 151.054 16.392C146.23 23.889 138.113 27.683 138.113 27.683M150.68 1.86096C150.68 1.86096 148.747 9.30396 146.171 13.875C143.596 18.447 138.311 21.757 138.311 21.757M144.554 1.86096C144.554 1.86096 144.734 6.25296 142.611 9.79596C140.488 13.339 139.021 13.772 139.021 13.772M157.405 55.22C157.405 55.22 157.995 57.796 157.935 59.1C157.773 62.668 156.74 66.182 155.527 69.543C154.732 71.747 152.527 73.486 152.369 75.823C152.237 77.766 152.985 79.879 154.265 81.349C155.166 82.384 156.905 82.312 157.941 83.213C158.78 83.943 159.847 85.947 159.847 85.947" stroke="#804040" stroke-width="2" stroke-linecap="round" stroke-linejoin="round"/>
<path fill-rule="evenodd" clip-rule="evenodd" d="M169.748 74.491C169.748 74.491 173.072 78.043 172.607 80.083C172.303 81.416 170.693 82.361 169.339 82.569C167.559 82.843 165.939 81.383 164.257 80.745C162.663 80.141 161.13 78.319 159.51 78.847C158.858 79.06 158.093 79.987 158.42 80.587C158.956 81.569 160.663 80.573 161.782 80.64C165.176 80.844 169.22 83.752 171.926 81.699C172.797 81.038 172.706 79.535 172.471 78.468C172.125 76.9 169.748 74.491 169.748 74.491ZM203.2 51.53C203.2 51.53 193.993 45.262 188.703 43.897C184.541 42.823 179.964 42.531 175.81 43.632C174.138 44.074 171.359 46.29 171.359 46.29C171.359 46.29 175.434 44.982 177.547 44.755C181.817 44.295 186.261 44.081 190.425 45.129C195.045 46.293 203.201 51.53 203.201 51.53H203.2ZM139.27 46.02C139.27 46.02 144.838 43.046 147.81 43.372C151.515 43.777 157.398 48.886 157.398 48.886C157.398 48.886 151.158 44.637 147.538 44.526C144.5 44.433 139.033 47.671 139.033 47.671L139.271 46.021L139.27 46.02ZM174.94 94.639C174.94 94.639 170.236 92.767 167.786 92.599C165.946 92.472 164.139 93.294 162.298 93.383C160.197 93.483 158.041 92.531 155.993 93.091C154.873 93.398 152.963 95.024 152.963 95.024C152.963 95.024 155.049 94.564 156.1 94.627C158.236 94.755 160.237 96.189 162.376 96.192C164.736 96.196 166.926 94.739 169.306 94.483C171.176 94.283 174.94 94.639 174.94 94.639Z" fill="#804040" stroke="#804040" stroke-width="2" stroke-linecap="round" stroke-linejoin="round"/>
<path d="M168.578 99.491C168.578 99.491 164.635 100.86 162.588 100.903C160.834 100.941 157.414 99.915 157.414 99.915M156.626 54.651C156.626 54.651 151.594 50.554 146.976 50.455C142.035 50.348 139.082 52.973 139.082 52.973M199.614 56.793C199.614 56.793 189.75 49.483 184.087 49.645C176.667 49.859 171.126 55.193 171.126 55.193" stroke="#804040" stroke-width="2" stroke-linecap="round" stroke-linejoin="round"/>
<path d="M200.705 58.365C194.853 57.609 190.551 55.073 185.164 54.613C180.544 54.22 171.221 55.648 171.221 55.648M138.453 58.437C143.84 55.901 142.686 55.094 148.073 54.635C152.693 54.241 157.519 56.855 157.519 56.855M197.469 58.823C192.202 60.02 186.699 63.893 180.741 64.19C176.326 64.41 171.591 61.382 171.201 57.307" stroke="#804040" stroke-width="2" stroke-linecap="round" stroke-linejoin="round"/>
<path d="M186.381 56.144C187.318 61.197 182.363 62.689 178.803 62.253C176.388 61.957 174.149 59 175.311 56.112" stroke="#804040" stroke-width="2" stroke-linecap="round" stroke-linejoin="round"/>
<path fill-rule="evenodd" clip-rule="evenodd" d="M178.132 58.985C178.034 58.07 178.878 56.81 179.838 56.76C180.678 56.716 181.562 57.735 181.544 58.54C181.524 59.38 180.56 60.299 179.684 60.32C178.988 60.338 178.204 59.647 178.132 58.985ZM149.558 59.29C149.584 58.574 148.711 57.648 147.816 57.668C147.032 57.684 146.283 58.528 146.356 59.151C146.434 59.801 147.396 60.455 148.211 60.419C148.859 60.391 149.538 59.808 149.558 59.29Z" fill="#804040" stroke="#804040" stroke-width="2" stroke-linecap="round" stroke-linejoin="round"/>
<path d="M155.968 63.146C153.875 65.601 153.724 67.78 149.388 69.861M170.941 55.682C172.546 62.789 174.391 67.025 179.538 69.176M138.55 61.152C141.406 62.952 145.062 64.015 149.726 63.894C153.181 63.804 156.694 61.361 156.756 58.409" stroke="#804040" stroke-width="2" stroke-linecap="round" stroke-linejoin="round"/>
<path d="M143.826 55.852C142.714 60.741 144.921 63.372 148.969 63.29C150.749 63.253 154.391 59.259 151.716 55.461" stroke="#804040" stroke-width="2" stroke-linecap="round" stroke-linejoin="round"/>
<path d="M140 1.86096C140 1.86096 137.705 23.786 137.5 34.793C137.339 43.446 138.245 52.087 138.5 60.739C138.74 68.887 138.09 77.087 139 85.188C139.645 90.925 139.935 96.978 142.5 102.152C144.752 106.696 148.207 110.919 152.5 113.629C156.157 115.937 160.679 116.895 165 117.121C169.39 117.351 173.832 116.31 178 114.917C183.696 113.013 188.985 109.943 194 106.643C199.042 103.326 203.857 99.553 208 95.167C211.11 91.875 216 84.19 216 84.19M137.353 108.082C142.023 110.484 146.17 110.908 149.303 111.267M182.062 113.644C189.326 112.294 198.298 111.45 206.202 109.38C212.846 107.64 219.162 104.832 225.642 102.558M213.893 88.488L219.874 104.264M210.475 92.752L215.388 105.756M206.63 97.442L209.834 106.822M202.784 100.853L205.774 108.314M198.725 104.264L201.502 110.446M194.88 107.035L196.589 110.659M215.815 51.821C214.818 53.669 213.59 55.409 212.825 57.364C211.781 60.029 211.4 62.906 210.688 65.678M219.874 57.79C218.592 60.348 216.964 62.761 216.029 65.465C214.866 68.824 214.605 72.429 213.893 75.911M223.506 63.12C222.366 65.82 220.916 68.41 220.088 71.22C218.804 75.58 218.521 80.174 217.738 84.651M227.565 68.236C226.212 71.718 224.285 75.029 223.505 78.682C222.304 84.319 222.936 90.194 222.651 95.95M231.837 73.779C230.627 76.337 228.865 78.702 228.205 81.453C226.449 88.782 227.778 96.518 227.565 104.05M236.11 79.321C234.828 82.519 232.77 86.529 232.264 90.407C231.279 97.967 233.404 105.614 233.974 113.217M239.955 86.143C238.887 89.554 237.718 95.031 237.605 99.573C237.418 107.09 239.172 113.43 240.382 121.958M244.655 92.752C243.943 97.512 243.744 101.709 244.014 106.182C244.526 114.672 246.15 123.166 248.286 131.338M250.209 100.853C250.067 105.33 249.576 110.417 250.209 115.136C251.287 123.166 254.339 130.485 256.618 138.586M257.045 110.66C256.76 113.928 256.762 118.538 257.472 122.384C258.794 129.544 260.819 135.886 264.522 143.063M263.24 119.613C263.739 123.308 263.626 127.138 264.735 130.698C266.419 136.1 270.219 141.144 272.426 145.834" stroke="#804040" stroke-width="2" stroke-linecap="round" stroke-linejoin="round"/>
<path d="M60.797 179.453C60.797 179.453 56.392 174.255 53.928 171.868C51.334 169.355 48.636 166.898 45.628 164.805C43.311 163.193 40.947 161.322 38.188 160.62C36.559 160.206 34.703 160.059 33.148 160.691C32.004 161.156 30.728 162.033 30.46 163.236C29.952 165.523 31.562 167.953 33.036 169.776C34.531 171.623 36.804 172.761 38.982 173.718C40.296 174.296 41.897 174.619 43.164 174.753C43.993 177.349 41.509 176.757 42.037 181.877C42.191 183.378 42.399 185.437 42.399 185.437" stroke="#804040" stroke-width="2" stroke-linecap="round" stroke-linejoin="round"/>
<path d="M34.467 165.207C34.467 165.207 34.955 166.868 35.612 167.421C36.212 167.926 37.095 168.198 37.902 168.206C38.692 168.214 40.162 167.482 40.162 167.482M29.888 162.451C29.888 162.451 25.921 160.641 24.164 161.405C22.315 162.21 21.31 164.503 21.302 166.375C21.291 169.222 24.08 171.481 25.595 173.96C26.517 175.468 27.129 177.283 28.51 178.386C29.863 179.467 31.682 180.586 33.375 180.217C34.698 179.93 35.762 178.605 36.237 177.34C36.661 176.211 36.82 174.62 36.005 173.73C34.91 172.535 32.782 172.642 31.197 172.985C30.35 173.168 29.563 173.732 29.023 174.408C28.469 175.104 28.097 176.908 28.097 176.908" stroke="#804040" stroke-width="2" stroke-linecap="round" stroke-linejoin="round"/>
<path d="M20.444 167.683C20.444 167.683 17.641 168.537 16.724 169.513C15.799 170.497 15.234 171.881 15.292 173.176C15.389 175.281 16.842 177.198 18.154 178.93C19.691 180.957 21.699 182.77 23.878 184.162C25.494 185.194 27.295 186.064 29.188 186.384C30.601 186.624 32.498 187.164 33.48 186.123C34.318 185.233 34.086 183.521 33.48 182.461C33.023 181.661 31.982 181.317 31.097 181.053C29.897 180.696 28.39 180.197 27.341 180.882C26.401 181.495 26.132 184.021 26.132 184.021" stroke="#804040" stroke-width="2" stroke-linecap="round" stroke-linejoin="round"/>
<path d="M15.865 177.622C15.865 177.622 12.381 179.829 12.145 181.546C11.985 182.706 13.05 183.78 13.862 184.685C15.93 186.991 18.81 188.615 21.589 190.178C23.297 191.138 25.021 192.51 27.026 192.532C27.966 192.542 29.134 192.231 29.602 191.486C30.032 190.801 29.69 189.843 29.316 189.132C28.614 187.798 27.5 185.944 25.881 185.992C24.868 186.024 24.277 187.233 23.878 188.085C23.463 188.971 23.592 190.963 23.592 190.963" stroke="#804040" stroke-width="2" stroke-linecap="round" stroke-linejoin="round"/>
<path d="M14.148 186.777C14.148 186.777 12.891 188.818 13.003 189.917C13.185 191.704 14.487 193.345 15.865 194.625C17.651 196.284 20.038 197.46 22.482 198.115C23.754 198.455 25.442 199.07 26.454 198.287C27.699 197.321 27.78 195.164 27.026 193.84C26.376 192.698 24.698 191.812 23.306 192.009C22.256 192.157 21.582 193.242 21.086 194.101C20.586 194.967 20.444 196.979 20.444 196.979M25.737 199.721C25.737 199.721 26.611 201.082 27.215 201.603C27.783 202.093 28.485 202.417 29.172 202.72C30.536 203.323 33.429 204.1 33.429 204.1" stroke="#804040" stroke-width="2" stroke-linecap="round" stroke-linejoin="round"/>
<path fill-rule="evenodd" clip-rule="evenodd" d="M34.66 162.238C34.66 162.238 29.144 163.446 26.353 163.343C24.227 163.263 22.033 162.933 20.106 162.035C18.016 161.062 16.128 159.547 14.669 157.763C13.035 155.767 11.187 150.853 11.187 150.853C11.187 150.853 15.539 151.776 17.751 151.933C20.136 152.101 22.546 151.531 24.925 151.776C26.699 151.959 28.455 152.387 30.135 152.981C31.482 153.456 32.845 153.995 33.987 154.849C35.104 155.685 36.03 156.783 36.801 157.944C37.445 158.914 38.271 161.112 38.271 161.112L34.66 162.238Z" fill="#FF8080" stroke="#804040" stroke-width="2" stroke-linecap="round" stroke-linejoin="round"/>
<path d="M19.624 156.564C19.624 156.564 22.556 158.082 24.134 158.53C26.518 159.206 29.052 159.17 31.497 159.58C33.321 159.885 36.944 160.628 36.944 160.628" stroke="#804040" stroke-width="2" stroke-linecap="round" stroke-linejoin="round"/>
<path fill-rule="evenodd" clip-rule="evenodd" d="M37.526 159.679L38.414 149.379L41.482 146.679L44.135 149.354L43.543 163.085L37.526 159.679Z" fill="#FF8080" stroke="#804040" stroke-width="2" stroke-linecap="round" stroke-linejoin="round"/>
<path fill-rule="evenodd" clip-rule="evenodd" d="M45.455 163.432C45.455 163.432 47.237 159.41 48.771 157.822C50.55 155.983 52.907 154.642 55.291 153.606C57.516 152.64 60.081 152.693 62.352 151.834C64.476 151.031 68.392 148.711 68.392 148.711C68.392 148.711 67.967 153.477 66.915 155.579C65.7729 157.84 64.0841 159.78 62.002 161.223C59.246 163.109 55.878 163.837 52.672 164.529C51.237 164.839 49.721 165.166 48.307 164.894C47.237 164.687 45.455 163.432 45.455 163.432Z" fill="#FF8080" stroke="#804040" stroke-width="2.004" stroke-linecap="round" stroke-linejoin="round"/>
<path d="M46.506 163.3C46.506 163.3 49.704 160.622 51.574 159.843C53.761 158.931 56.321 159.494 58.49 158.533C60.079 157.831 62.708 155.383 62.708 155.383" stroke="#804040" stroke-width="2.004" stroke-linecap="round" stroke-linejoin="round"/>
<path fill-rule="evenodd" clip-rule="evenodd" d="M51.4 131.281L57.242 127.153L62.858 130.273L57.214 134.923L51.4 131.281ZM37.641 123.117L33.361 117.377L37.338 111.653L41.644 117.3L37.641 123.117ZM21.828 131.958L16.354 136.424L23.029 139.5L27.091 135.093L21.828 131.958Z" fill="#804040" stroke="#804040" stroke-width="2" stroke-linecap="round" stroke-linejoin="round"/>
<path fill-rule="evenodd" clip-rule="evenodd" d="M24.687 137.301C23.562 139.511 22.019 141.865 22.225 144.321C22.381 146.173 23.52 147.985 24.943 149.264C26.798 150.932 29.429 151.843 31.927 152.287C33.142 152.503 34.488 152.562 35.623 152.079C37.876 151.119 40.997 147.077 40.997 147.077C40.997 147.077 43.909 149.65 45.722 150.13C48.53 150.874 51.868 151.026 54.423 149.648C56.211 148.684 57.461 146.695 58.042 144.752C58.672 142.643 58.334 140.259 57.674 138.16C57.264 136.858 56.481 135.647 55.52 134.676C54.1 133.24 50.4 131.432 50.4 131.432C50.4 131.432 54.575 128.51 55.816 126.376C56.662 124.922 57.154 123.141 56.984 121.468C56.816 119.813 56.013 118.192 54.875 116.942C53.563 115.501 51.772 114.139 49.775 113.889C47.285 113.578 44.635 114.584 42.573 115.999C41.475 116.754 40.863 118.049 40.151 119.175C39.216 120.655 37.746 123.845 37.746 123.845C37.746 123.845 35.001 120.331 33.127 119.214C30.753 117.797 27.93 116.491 25.174 116.848C23.44 117.072 21.729 118.124 20.77 119.554C19.596 121.304 19.534 123.697 19.758 125.791C19.969 127.773 20.704 129.795 21.941 131.361C23.149 132.889 26.744 134.696 26.744 134.696C26.334 136.076 25.418 136.131 24.687 137.301Z" fill="#FF8080" stroke="#804040" stroke-width="2" stroke-linecap="round" stroke-linejoin="round"/>
<path fill-rule="evenodd" clip-rule="evenodd" d="M37.487 127.798C34.472 128.193 31.373 131.807 31.687 134.825C32.007 137.897 35.866 140.995 38.937 140.613C42.116 140.217 45.219 136.125 44.737 132.965C44.288 130.035 40.431 127.411 37.487 127.798Z" fill="#BF6060" stroke="#804040" stroke-width="2" stroke-linecap="round" stroke-linejoin="round"/>
<path fill-rule="evenodd" clip-rule="evenodd" d="M28.58 126.144L32.723 129.658ZM46.808 124.284L42.665 129.451ZM43.908 137.306L48.878 141.026ZM35.209 139.58L30.859 145.16Z" fill="black"/>
<path d="M28.58 126.144L32.723 129.658M46.808 124.284L42.665 129.451M43.908 137.306L48.878 141.026M35.209 139.58L30.859 145.16" stroke="#804040" stroke-width="2" stroke-linecap="round" stroke-linejoin="round"/>
<path d="M153.718 138.343L151.242 151.49L164.302 152.703L165.469 139.806L153.718 138.343ZM159.094 142.451L162.281 145.624L158.75 148.462L155.656 145.282L159.094 142.451Z" fill="black"/>
<path d="M144.5 124.712L140.689 136.833L153.646 139.483L156.149 126.688L144.5 124.712ZM148.85 127.999L152.037 131.173L148.505 134.011L145.412 130.83L148.849 128L148.85 127.999Z" fill="black"/>
<path d="M129.883 132.402L124.741 144.325L137.814 148.722L141.547 136.017L129.883 132.402ZM134.588 137.503L136.891 141.365L132.766 143.244L130.556 139.398L134.588 137.503Z" fill="black"/>
<path d="M113.287 139.157L108.581 149.888L120.473 155.411L125.575 144.096L113.287 139.157ZM119.021 144.008L120.954 148.067L116.673 149.555L114.83 145.521L119.021 144.008ZM126.594 117.882L121.467 122.097L118.394 127.953L130.181 132.67L134.707 122.282L126.594 117.882ZM128.114 121.939L129.9 126.065L125.568 127.398L123.872 123.301L128.115 121.939H128.114ZM137.709 148.082L134.249 159.389L148.593 162.503L151.37 150.887L137.709 148.082ZM143.242 152.379L146.314 155.664L142.684 158.374L139.706 155.084L143.242 152.379ZM166.885 127.686L165.18 140.383L178.37 140.523L179.069 127.804L166.885 127.686ZM172.782 131.133L176.055 134.219L172.602 137.152L169.423 134.056L172.782 131.133ZM163.967 152.03L162.401 163.942L176.735 164.665L177.291 152.446L163.967 152.03ZM170.45 155.786L173.778 158.812L170.38 161.807L167.144 158.77L170.45 155.786Z" fill="black"/>
<path d="M177.834 140.207L176.875 152.888L190.503 152.498L189.624 140.268L177.834 140.207ZM183.712 143.385L187.131 146.309L183.825 149.405L180.499 146.467L183.712 143.385ZM188.977 127.8L189.691 140.56L202.254 138.32L200.72 126.855L188.977 127.8ZM194.972 131.042L198.652 133.632L195.652 137.025L192.064 134.413L194.972 131.042Z" fill="black"/>
<path d="M190.3 152.061L191.035 163.288L204.605 161.074L203.26 149.751L190.3 152.061ZM196.639 154.065L200.612 155.849L198.059 159.006L194.173 157.192L196.639 154.065ZM217.39 146.708L220.078 158.856L234.162 154.593L229.529 142.654L217.391 146.708H217.39ZM224.552 147.994L228.525 149.778L225.972 152.934L222.086 151.121L224.552 147.994ZM241.946 138.969L245.439 149.739L257.665 145.212L252.27 134.997L241.946 138.969ZM248.546 139.779L252.78 140.807L250.85 144.377L246.697 143.305L248.546 139.779Z" fill="black"/>
<path d="M225.91 131.817L229.333 142.884L242.059 138.934L237.454 126.991L225.91 131.817ZM231.691 132.607L235.928 133.621L234.008 137.197L229.852 136.137L231.692 132.607H231.691ZM211.048 123.896L213.824 135.56L226.112 131.578L221.92 119.938L211.048 123.896ZM217.543 125.318L221.662 126.736L219.405 130.11L215.371 128.656L217.543 125.318Z" fill="black"/>
<path d="M201.98 138.096L203.436 149.835L217.622 147.109L214.222 135.17L201.981 138.096H201.98ZM208.32 140.612L212.294 142.397L209.74 145.553L205.854 143.74L208.32 140.612Z" fill="black"/>
<path fill-rule="evenodd" clip-rule="evenodd" d="M113.592 139.376L118.626 127.689L116.777 126.971L106.196 136.095L113.592 139.376ZM231.837 116.001L237.282 126.971L241.802 125.126L233.789 114.976L231.837 116.001Z" fill="black"/>
<path d="M127.27 117.761C137.938 124.187 150.156 126.251 162.155 127.879C170.765 129.048 179.576 128.456 188.217 127.556C196.804 126.662 205.291 124.983 213.571 122.54C220.131 120.6 226.434 117.848 232.63 114.939M260.914 142.812C255.846 145.399 250.93 148.305 245.711 150.574C241.917 152.223 237.976 153.521 234.044 154.807C229.26 156.372 224.437 157.842 219.548 159.041C214.88 160.187 210.164 161.178 205.406 161.864C200.722 162.538 195.67 163.224 190.956 163.64C186.36 164.046 182.085 164.132 177.476 164.334C172.883 164.534 168.277 164.562 163.686 164.334C158.952 164.096 154.232 163.624 149.544 162.922C144.79 162.212 140.058 161.294 135.402 160.1C130.854 158.933 126.393 157.433 121.967 155.866C117.43 154.259 112.929 152.532 108.532 150.574C104.922 148.966 101.462 147.045 97.926 145.281" stroke="#804040" stroke-width="2" stroke-linecap="round" stroke-linejoin="round"/>
<path fill-rule="evenodd" clip-rule="evenodd" d="M228.631 107.172C228.631 107.172 215.884 113.02 209.187 115.032C202.307 117.099 195.197 118.462 188.062 119.304C181.086 120.128 174.007 120.554 167 120.053C159.683 119.53 152.424 118.068 145.344 116.155C141.126 115.015 133.031 111.664 133.031 111.664L130.771 114.062C130.771 114.062 139.844 117.757 144.563 119.024C151.831 120.974 159.241 122.504 166.781 123.046C174.021 123.566 181.265 123.119 188.437 122.266C195.742 121.399 203.019 119.989 210.062 117.87C217.027 115.774 230.291 109.696 230.291 109.696L228.631 107.172Z" fill="black"/>
<path d="M209.714 41.855C209.714 41.855 208.809 56.537 210 63.733C211.142 70.634 213.788 77.24 216.5 83.691C219.99 91.991 224.174 100.037 229 107.641C232.246 112.756 236.012 117.548 240 122.111C245.422 128.315 250.707 134.903 257.5 139.575C261.861 142.574 267.082 144.098 272 146.061C276.709 147.941 286.345 151.119 286.345 151.119" stroke="#804040" stroke-width="2" stroke-linecap="round" stroke-linejoin="round"/>
<path fill-rule="evenodd" clip-rule="evenodd" d="M74.406 167.111C74.406 167.111 88.258 177.203 94 183.483C99.329 189.311 107.5 202.943 107.5 202.943C107.5 202.943 92.707 215.156 86.5 222.402C79.321 230.782 73.18 240.107 68 249.845C63.618 258.083 59.995 266.802 57.5 275.791C55.788 281.957 55.33 288.407 54.5 294.751C53.87 299.559 53 309.221 53 309.221L1 259.325V233.878" fill="#FF8080"/>
<path d="M74.406 167.111C74.406 167.111 88.258 177.203 94 183.483C99.329 189.311 107.5 202.943 107.5 202.943C107.5 202.943 92.707 215.156 86.5 222.402C79.321 230.782 73.18 240.107 68 249.845C63.618 258.083 59.995 266.802 57.5 275.791C55.788 281.957 55.33 288.407 54.5 294.751C53.87 299.559 53 309.221 53 309.221L1 259.325V233.878" stroke="black" stroke-width="2" stroke-linecap="round" stroke-linejoin="round"/>
<path fill-rule="evenodd" clip-rule="evenodd" d="M8 237.37L76 175C76 175 84.806 182.587 88.58 186.976C92.152 191.132 98 200.448 98 200.448C98 200.448 86.184 212.002 81 218.41C74.525 226.415 68.552 234.89 63.5 243.857C59.917 250.217 56.92 256.931 54.5 263.816C52.507 269.488 50.948 275.344 50 281.279C49.185 286.382 49 296.747 49 296.747L8.5 256.331L8 237.371V237.37Z" fill="black" stroke="black" stroke-width="2" stroke-linecap="round" stroke-linejoin="round"/>
<path fill-rule="evenodd" clip-rule="evenodd" d="M62.297 193.442C62.237 191.818 63.447 188.704 63.447 188.704C63.447 188.704 66.313 190.194 67.525 191.238C68.785 192.325 70.753 195.044 70.753 195.044C70.753 195.044 72.047 192.134 72.993 190.869C74.058 189.445 76.789 187.119 76.789 187.119C76.789 187.119 78.241 190.279 78.416 191.979C78.622 193.979 77.706 197.969 77.706 197.969C77.706 197.969 81.099 196.328 82.931 195.993C84.667 195.676 88.226 195.995 88.226 195.995C88.226 195.995 86.464 199.619 85.192 201.157C83.895 202.727 80.602 205.189 80.602 205.189C80.602 205.189 82.958 206.015 83.885 206.807C84.957 207.723 86.32 210.262 86.32 210.262C86.32 210.262 83.727 211.806 82.278 212.131C81.01 212.416 78.378 212.164 78.378 212.164C78.378 212.164 79.215 214.954 79.228 216.39C79.241 217.966 78.378 221.04 78.378 221.04C78.378 221.04 75.918 219.874 74.935 218.964C73.843 217.954 72.342 215.334 72.342 215.334C72.342 215.334 71.204 219.288 70.122 221.006C68.88 222.976 65.352 226.113 65.352 226.113C65.352 226.113 64.645 221.286 64.662 218.856C64.676 216.849 65.316 212.87 65.316 212.87C65.316 212.87 62.236 214.504 60.57 214.967C58.828 215.451 55.187 215.651 55.187 215.651C55.187 215.651 56.128 211.798 57.177 210.155C58.36 208.302 61.858 205.506 61.858 205.506C61.858 205.506 58.909 204.788 57.552 204.135C55.894 203.336 52.962 201.068 52.962 201.068C52.962 201.068 56.231 198.538 58.187 198.123C60.084 197.72 63.978 198.675 63.978 198.675C62.574 197.497 62.363 195.272 62.297 193.442Z" fill="#FF8080"/>
<path d="M70.031 198.171C68.464 198.297 66.961 199.318 65.937 200.511C64.914 201.702 64.193 203.339 64.25 204.907C64.316 206.72 65.284 208.545 66.563 209.834C67.831 211.114 69.634 212.182 71.437 212.174C73.157 212.164 74.882 211.144 76.063 209.897C77.252 208.641 78.183 206.851 78.093 205.125C77.996 203.239 76.776 201.402 75.343 200.167C73.913 198.932 71.917 198.02 70.031 198.171ZM70.187 200.167C71.572 200.055 73.013 200.787 74.063 201.695C75.095 202.589 76.027 203.888 76.093 205.25C76.152 206.445 75.449 207.656 74.625 208.525C73.795 209.399 72.613 210.177 71.406 210.177C70.13 210.177 68.893 209.341 68 208.431C67.068 207.481 66.3 206.174 66.25 204.845C66.21 203.749 66.756 202.623 67.469 201.789C68.153 200.987 69.135 200.253 70.188 200.167H70.187Z" fill="black"/>
<path fill-rule="evenodd" clip-rule="evenodd" d="M28.183 239.745V231.185C28.183 231.185 34.486 230.485 36.443 228.332C38.273 226.319 38.349 220.406 38.349 220.406H50.421L28.183 239.745ZM42.904 233.645C41.63 234.932 42.184 237.833 43.539 239.035C44.885 240.229 47.667 240.305 48.94 239.035C50.063 237.914 50.003 235.457 48.94 234.279C47.586 232.779 44.326 232.209 42.904 233.645ZM61.858 231.185L45.021 252.109L54.234 250.206C54.234 250.206 53.992 244.866 55.504 242.915C57.07 240.895 62.494 239.745 62.494 239.745L61.858 231.185ZM12.617 257.181C15.993 257.878 19.494 257.95 22.147 262.253C22.537 255.034 26.401 251.281 30.09 247.353C32.157 252.531 33.258 257.709 30.09 262.887C35.826 257.884 40.629 260.328 45.656 260.985C43.3 265.582 40.263 269.726 34.537 272.081C38.463 275.301 39.957 279.733 40.891 284.445C38.985 284.001 37.079 283.751 35.173 282.226L15.158 262.253C14.038 260.563 13.384 258.872 12.617 257.181Z" fill="#FF8080"/>
<path fill-rule="evenodd" clip-rule="evenodd" d="M26.438 263.816C25.106 263.419 23.578 263.96 22.344 264.596C21.139 265.216 20.011 266.212 19.406 267.402L21.006 268.487C21.352 267.807 22.361 266.848 23.281 266.373C24.141 265.928 25.2 265.496 26.125 265.78C27.66 266.252 28.868 267.756 29.469 269.242C30.046 270.669 29.633 272.328 29.469 273.857C29.359 274.883 28.812 276.882 28.812 276.882L30.724 278.292C30.724 278.292 31.33 275.559 31.437 274.169C31.582 272.303 32.09 270.273 31.344 268.556C30.438 266.472 28.62 264.466 26.438 263.816Z" fill="black"/>
<path d="M108.24 203.92C108.24 203.92 116.024 218.904 118.088 227.01C119.688 233.295 120.118 239.894 119.942 246.375C119.702 255.156 118.6 264.039 116.006 272.433C113.396 280.879 109.407 288.98 104.481 296.325C99.614 303.582 86.955 315.831 86.955 315.831" stroke="black" stroke-width="2" stroke-linecap="round" stroke-linejoin="round"/>
<path d="M104.746 206.774C104.746 206.774 110.822 219.144 112.37 225.795C114.268 233.951 114.711 242.479 114.276 250.84C113.888 258.175 112.568 265.431 110.349 272.433C108.115 279.46 105.002 286.176 101.084 292.423C96.958 298.999 91.945 305.086 86.32 310.441C83.362 313.257 76.472 317.733 76.472 317.733" stroke="black" stroke-width="2" stroke-linecap="round" stroke-linejoin="round"/>
<path d="M100.933 210.261C100.933 210.261 105.641 221.693 106.969 227.698C108.439 234.339 109.304 241.199 109.052 247.996C108.763 255.787 107.26 263.577 104.949 271.025C102.771 278.041 99.892 284.964 95.85 291.103C91.529 297.668 85.85 303.321 79.966 308.539C75.2 312.767 64.4 319.635 64.4 319.635" stroke="black" stroke-width="2" stroke-linecap="round" stroke-linejoin="round"/>
<path d="M97.174 212.648C97.174 212.648 100.781 221.703 101.886 226.43C103.174 231.936 103.959 237.597 104.084 243.25C104.232 249.971 103.921 256.806 102.354 263.345C100.6 270.652 97.7652 277.657 93.944 284.128C90.192 290.465 85.382 296.25 79.966 301.248C73.82 306.92 59.316 315.514 59.316 315.514" stroke="black" stroke-width="2" stroke-linecap="round" stroke-linejoin="round"/>
<path fill-rule="evenodd" clip-rule="evenodd" d="M142.288 102.752L126.798 116.984L96.896 144.544L61.85 177.615L31.948 206.315L1 234.635" fill="black"/>
<path d="M142.288 102.752L126.798 116.984L96.896 144.544L61.85 177.615L31.948 206.315L1 234.635" stroke="#804040" stroke-width="2" stroke-linecap="round" stroke-linejoin="round"/>
<path fill-rule="evenodd" clip-rule="evenodd" d="M113.128 177.74L130.453 182.327L123.428 203.665L106.134 199.431L113.128 177.74Z" fill="#BF6060"/>
<path fill-rule="evenodd" clip-rule="evenodd" d="M151.773 171.36L145.133 173.384L149.006 176.882L143.657 179.275L147.162 183.14L140.706 185.717L144.026 189.951L137.57 191.976L141.628 196.394L135.725 198.419L138.308 203.021C136.832 204.125 135.161 205.23 133.686 206.334C140.818 207.5 148.146 208.666 155.278 209.832L152.696 205.046L156.938 202.836L154.54 197.314L160.812 194.921L158.045 189.031L163.948 187.926L160.074 182.956L165.977 181.484L162.841 177.25L168.744 174.857C167.107 174.068 165.499 173.181 163.844 172.454L151.774 171.359L151.773 171.36Z" fill="#FF8080"/>
<path d="M153.423 171.545C151.053 177.097 148.089 182.953 145.726 188.786C143.169 195.1 140.861 202.168 138.721 207.983M162.616 172.621C159.818 178.667 157.222 184.741 154.912 190.955C152.758 196.751 150.862 202.651 149.183 208.598" stroke="black" stroke-width="2" stroke-linecap="round" stroke-linejoin="round"/>
<path fill-rule="evenodd" clip-rule="evenodd" d="M157.075 172.372C156.321 172.475 155.535 173.472 155.725 174.207C155.914 174.94 157.081 175.431 157.789 175.159C158.355 174.942 158.654 174.075 158.503 173.489C158.353 172.904 157.674 172.289 157.075 172.372ZM154.418 178.741C153.662 178.845 152.867 179.838 153.054 180.576C153.243 181.319 154.428 181.826 155.144 181.548C155.717 181.327 156.011 180.444 155.854 179.851C155.7 179.267 155.018 178.659 154.418 178.741ZM151.467 185.277C150.699 185.4 149.906 186.449 150.136 187.191C150.365 187.93 151.604 188.342 152.306 188.018C152.843 187.77 153.068 186.915 152.897 186.351C152.725 185.781 152.056 185.182 151.467 185.277ZM149.18 191.77C148.422 191.867 147.625 192.861 147.806 193.602C147.986 194.345 149.156 194.865 149.875 194.601C150.451 194.388 150.763 193.511 150.615 192.916C150.469 192.322 149.788 191.692 149.18 191.77ZM146.869 198.193C146.083 198.332 145.249 199.415 145.517 200.165C145.787 200.92 147.131 201.237 147.83 200.842C148.327 200.561 148.457 199.722 148.262 199.185C148.067 198.65 147.43 198.093 146.869 198.193ZM144.483 204.627C143.714 204.747 142.913 205.791 143.14 206.534C143.367 207.274 144.612 207.689 145.317 207.362C145.852 207.114 146.071 206.258 145.9 205.694C145.728 205.129 145.068 204.536 144.483 204.627Z" fill="black"/>
<path fill-rule="evenodd" clip-rule="evenodd" d="M176.408 187.89L196.266 188.196L186.512 212.258L167.464 210.748L176.408 187.89Z" fill="#BF6060"/>
<path fill-rule="evenodd" clip-rule="evenodd" d="M185.939 313.587L183.989 321.176C183.989 321.176 175.366 317.915 170.926 316.7C165.676 315.265 160.299 314.329 154.938 313.393C151.769 312.84 148.591 312.29 145.384 312.031C138.905 311.506 132.386 311.514 125.887 311.641C119.312 311.771 112.744 312.231 106.194 312.809C102.87 313.103 99.554 313.499 96.251 313.976C92.465 314.524 84.942 315.922 84.942 315.922L97.81 303.47L121.987 303.275L134.466 272.145L115.358 270.782L119.063 249.769C119.063 249.769 133.769 250.448 141.095 251.131C147.877 251.763 154.639 252.631 161.372 253.66C165.682 254.32 169.943 255.262 174.24 255.995C177.484 256.548 183.99 257.551 183.99 257.551C183.99 257.551 186.67 264.506 188.279 267.864C190.8 273.127 196.663 283.234 196.663 283.234L178.92 278.954L169.171 307.944L185.939 313.587Z" fill="black"/>
<path fill-rule="evenodd" clip-rule="evenodd" d="M209.977 333.547C209.977 333.547 201.514 328.043 197.003 325.801C192.792 323.707 183.922 320.508 183.922 320.508L195.589 283.11C195.589 283.11 202.095 292.318 205.842 296.517C209.342 300.437 213.254 303.983 217.202 307.454C220.59 310.433 227.762 315.922 227.762 315.922L209.977 333.547ZM207.61 266.88C207.61 266.88 203.142 253.413 202.307 246.417C201.428 239.058 201.392 231.49 202.66 224.189C203.787 217.703 206.24 211.458 209.024 205.489C211.523 200.132 214.377 194.817 218.216 190.319C221.524 186.444 225.734 183.399 229.884 180.439C235.129 176.699 246.501 170.561 246.501 170.561L250.036 173.736C250.036 173.736 248.678 187.939 247.208 194.905C245.64 202.335 243.564 209.689 240.844 216.78C238.318 223.362 234.977 229.614 231.651 235.832C228.368 241.972 225.349 248.351 221.045 253.826C217.187 258.733 207.61 266.88 207.61 266.88Z" fill="#804040"/>
<path fill-rule="evenodd" clip-rule="evenodd" d="M213.974 260.176C213.974 260.176 209.724 247.409 209.378 240.771C208.996 233.429 210.212 225.974 212.206 218.897C214.162 211.953 217.039 205.142 221.045 199.139C224.095 194.569 228.129 190.656 232.359 187.143C237.209 183.116 248.269 176.911 248.269 176.911C248.269 176.911 246.77 191.555 245.44 198.786C244.434 204.257 243.38 209.761 241.551 215.016C239.251 221.626 235.961 227.866 232.712 234.068C230.119 239.02 227.504 244.003 224.227 248.533C221.197 252.723 213.974 260.176 213.974 260.176Z" fill="#BF6060"/>
<path fill-rule="evenodd" clip-rule="evenodd" d="M283.235 285.633L289.038 272.667C289.038 272.667 288.207 268.447 286.503 267.693C285.476 267.24 284.181 267.82 283.253 268.578C282.066 269.546 280.753 272.878 280.753 272.878L275.793 283.294" fill="#FF8080"/>
<path d="M283.235 285.633L289.038 272.667C289.038 272.667 288.207 268.447 286.503 267.693C285.476 267.24 284.181 267.82 283.253 268.578C282.066 269.546 280.753 272.878 280.753 272.878L275.793 283.294" stroke="#804040" stroke-width="2.025" stroke-linecap="round" stroke-linejoin="round"/>
<path d="M288.051 273.037C288.051 273.037 285.568 274.044 284.253 274.129C283.2 274.198 281.124 273.656 281.124 273.656" stroke="#804040" stroke-width="2.025" stroke-linecap="round" stroke-linejoin="round"/>
<path fill-rule="evenodd" clip-rule="evenodd" d="M164.792 445.156C164.792 445.156 178.574 431.139 183.872 422.945C189.415 414.369 193.574 404.872 196.862 395.208C199.714 386.827 201.218 378.023 202.602 369.28C203.422 364.095 203.703 358.837 204.112 353.603C204.505 348.585 205.019 338.529 205.019 338.529L160.004 380.134C160.004 380.134 162.72 389.288 163.328 394.002C163.932 398.688 163.579 403.448 163.63 408.172C163.697 414.502 163.425 420.837 163.63 427.165C163.824 433.172 164.792 445.156 164.792 445.156Z" fill="black"/>
<path fill-rule="evenodd" clip-rule="evenodd" d="M31.222 336.795C36.289 334.208 43.288 330.733 49.469 328.02C55.302 325.46 61.183 322.971 67.225 320.95C72.308 319.251 77.533 318.003 82.736 316.717C87.558 315.525 92.372 314.233 97.284 313.489C102.364 312.721 107.521 312.602 112.644 312.226C116.764 311.923 120.881 311.502 125.012 311.425C130.015 311.33 135.022 311.543 140.018 311.83C144.608 312.093 149.213 312.328 153.754 313.038C158.873 313.839 163.901 315.155 168.911 316.468C173.228 317.6 177.495 318.916 181.738 320.298C186.39 321.812 191.09 323.238 195.578 325.185C200.842 327.466 207.318 331.345 210.854 333.11L165.562 375.072C165.562 375.072 162.82 374.564 161.458 374.267C158.869 373.702 159.011 373.322 153.728 372.412C151.233 371.377 149.563 368.849 147.083 367.777C144.06 366.472 140.706 365.744 137.413 365.751C131.123 365.765 123.546 367.444 118.965 369.704C116.582 369.706 114.48 370.104 112.238 370.319C109.128 370.619 106.008 370.841 102.913 371.263C99.587 371.717 96.223 372.073 92.989 372.97C90.223 373.737 87.598 374.95 84.963 376.088C82.072 377.336 76.435 380.15 76.435 380.15C72.453 373.525 67.397 364.68 58.843 356.594C54.566 352.552 49.567 346.877 45.293 343.638C41.018 340.4 34.222 338.383 31.222 336.795Z" fill="#FF8080"/>
<path fill-rule="evenodd" clip-rule="evenodd" d="M163.807 407.36C163.807 407.36 169.902 397.646 172.391 392.495C174.178 388.797 175.778 384.982 176.923 381.038C177.827 377.924 178.435 374.732 178.74 371.504C178.998 368.764 178.735 363.251 178.735 363.251L159.702 380.134C159.702 380.134 162.346 388.689 163.025 393.098C163.75 397.803 163.807 407.36 163.807 407.36Z" fill="#BF6060"/>
<path fill-rule="evenodd" clip-rule="evenodd" d="M107 480.864L41.5 396.872L33.667 398.535L93 480.864H107Z" fill="black"/>
<path fill-rule="evenodd" clip-rule="evenodd" d="M24 480.864C25.6727 470.977 26.3427 460.947 26 450.926C25.652 440.779 24.248 430.61 21 420.988C18.6063 413.905 15.2409 407.188 11 401.03C18.7236 401.538 26.4795 400.865 34 399.034L93 480.864H24Z" fill="#FF8080" stroke="#804040" stroke-width="2" stroke-linecap="round" stroke-linejoin="round"/>
<path fill-rule="evenodd" clip-rule="evenodd" d="M57.408 455.446C57.012 454.457 56.556 453.468 55.89 452.642C55.01 451.553 54.046 450.335 52.698 449.906C51.003 449.366 48.706 449.182 47.308 450.355C45.944 451.498 45.518 453.782 45.961 455.45C46.473 457.375 50.188 459.625 50.188 459.625C50.188 459.625 45.46 461.202 44.632 463.23C43.855 465.134 44.666 467.673 46.072 469.097C47.459 470.5 50 471.433 51.868 470.612C53.966 469.691 55.168 464.602 55.168 464.602C55.168 464.602 56.006 468.347 57.218 469.72C58.296 470.94 59.846 472.132 61.509 472.096C62.984 472.063 64.686 471.14 65.376 469.821C66.461 467.745 65.987 464.864 64.751 462.957C63.511 461.046 58.753 459.622 58.753 459.622C58.753 459.622 60.028 462.319 57.771 463.876C55.967 465.12 52.725 463.638 51.724 461.773C50.877 460.193 51.324 457.163 53.024 456.436C56.419 454.986 58.143 458.154 58.143 458.154C58.143 458.154 57.754 456.312 57.408 455.446ZM37.832 428.265C37.479 427.371 37.072 426.476 36.477 425.729C35.693 424.744 34.832 423.642 33.63 423.254C32.117 422.767 30.068 422.6 28.82 423.66C27.603 424.694 27.223 426.76 27.618 428.268C28.075 430.009 31.39 432.044 31.39 432.044C31.39 432.044 27.683 433.867 27.1 435.637C26.53 437.365 27.089 439.663 28.384 440.943C29.48 442.025 31.484 442.613 32.889 441.981C34.77 441.133 35.834 436.545 35.834 436.545C35.834 436.545 36.581 439.932 37.664 441.174C38.624 442.277 40.007 443.355 41.491 443.322C42.807 443.293 44.326 442.458 44.941 441.265C45.909 439.388 45.487 436.782 44.383 435.057C43.277 433.329 39.032 432.041 39.032 432.041C39.032 432.041 40.169 434.481 38.156 435.889C36.546 437.014 33.653 435.673 32.761 433.986C32.005 432.558 32.403 429.816 33.921 429.16C36.95 427.849 38.488 430.714 38.488 430.714C38.488 430.714 38.141 429.048 37.832 428.264V428.265Z" fill="black" stroke="black" stroke-width="2" stroke-linecap="round" stroke-linejoin="round"/>
<path d="M83.667 479.2C83.667 479.2 83.079 467.996 78.167 462.402C73.444 457.024 67.889 456.802 63 457.246C63 457.246 65.3 444.134 61 438.785C56.336 432.983 41 428.473 41 428.473C41 428.473 44.58 418.446 39.667 411.508C36.947 407.666 27.833 402.028 27.833 402.028" stroke="black" stroke-width="2" stroke-linecap="round" stroke-linejoin="round"/>
<path fill-rule="evenodd" clip-rule="evenodd" d="M78.906 480.227C79.596 480.225 80.246 479.687 80.375 479.011C80.375 479.011 82.198 470.695 76.313 464.821C75.403 463.913 74.095 463.131 72.5 462.264C70.905 461.397 69.063 460.508 67.312 459.707C64.258 458.31 62.163 457.512 61.5 457.244C61.497 456.538 61.523 455.017 61.125 452.223C60.645 448.855 60.038 444.08 57.802 440.923C53.662 435.078 48.915 432.577 45.5 430.893C43.265 429.79 41.74 429.405 40.719 429.208C40.62 428.441 40.441 426.788 39.875 423.938C39.192 420.498 38.261 416.585 36.688 414.052C35.038 411.399 31.759 408.567 28.812 406.225C25.866 403.882 23.25 402.109 23.25 402.109C22.596 401.667 21.598 401.861 21.156 402.514C20.714 403.167 24.241 405.659 24.896 406.1C24.896 406.1 27.252 409.457 27.771 412.888C30.623 415.156 32.705 415.206 34.323 417.275C35.907 419.301 36.279 421.215 36.937 424.531C37.596 427.847 37.937 430.643 37.937 430.643C38.021 431.323 38.628 431.901 39.313 431.953C39.313 431.953 45.013 433.384 47.156 435.237C49.627 437.375 52.841 438.192 52.198 443.637C53.928 446.08 57.71 449.527 58.156 452.659C58.602 455.792 58.594 458.21 58.594 458.21C58.5899 458.515 58.6769 458.815 58.8437 459.07C59.0106 459.326 59.2499 459.526 59.531 459.645C59.531 459.645 62.639 460.885 66.063 462.452C67.774 463.235 69.863 463.499 71.063 464.915C72.53 466.647 72.613 471.026 73.021 471.433C77.676 476.079 77.437 478.387 77.437 478.387C77.23 479.265 78.001 480.232 78.906 480.227Z" fill="black"/>
<path fill-rule="evenodd" clip-rule="evenodd" d="M120 480.864H106.667L1 342.485V310.22L120 480.864Z" fill="#BF6060" stroke="#804040" stroke-width="2"/>
<path d="M144.007 480.864C144.007 480.864 142.237 469.591 129.355 458.735C116.474 447.88 94.997 443.538 94.997 443.538" stroke="#804040" stroke-width="2" stroke-linecap="round" stroke-linejoin="round"/>
<path d="M138.84 480.864C138.84 480.864 133.627 469.058 126.411 463.058C119.195 457.058 98.879 449.971 98.879 449.971" stroke="#804040" stroke-width="2" stroke-linecap="round" stroke-linejoin="round"/>
<path d="M132.733 480.864C132.733 480.864 128.323 470.826 122.941 466.254C117.559 461.683 103.016 455.744 103.016 455.744" stroke="#804040" stroke-width="2" stroke-linecap="round" stroke-linejoin="round"/>
<path d="M127.712 480.864C127.712 480.864 124.98 474.046 120.682 470.503C116.384 466.96 107.792 463.128 107.792 463.128M142.061 473.341C142.061 473.341 142.901 469.264 148.205 460.411C153.509 451.558 163.952 447.805 163.952 447.805M145.949 480.864C145.949 480.864 146.122 473.83 150.946 466.333C155.77 458.836 163.887 455.042 163.887 455.042M151.32 480.864C151.32 480.864 153.253 473.421 155.829 468.85C158.404 464.278 163.689 460.968 163.689 460.968M157.446 480.864C157.446 480.864 157.266 476.472 159.389 472.929C161.512 469.386 162.979 468.953 162.979 468.953M144.595 427.681C144.595 427.681 143.999 424.987 144.065 423.626C144.237 420.058 145.26 416.543 146.473 413.182C147.268 410.978 149.473 409.239 149.631 406.902C149.763 404.959 149.015 402.846 147.735 401.376C146.834 400.341 145.095 400.413 144.059 399.512C143.22 398.782 142.153 396.778 142.153 396.778" stroke="#804040" stroke-width="2" stroke-linecap="round" stroke-linejoin="round"/>
<path fill-rule="evenodd" clip-rule="evenodd" d="M132.252 408.234C132.252 408.234 128.928 404.682 129.393 402.642C129.697 401.309 131.307 400.364 132.661 400.156C134.441 399.882 136.061 401.342 137.743 401.98C139.337 402.584 140.87 404.406 142.49 403.878C143.142 403.665 143.907 402.738 143.58 402.138C143.044 401.156 141.337 402.152 140.218 402.084C136.824 401.881 132.78 398.973 130.074 401.026C129.203 401.687 129.294 403.19 129.529 404.257C129.875 405.825 132.252 408.234 132.252 408.234ZM98.8 431.195C98.8 431.195 108.007 437.463 113.297 438.828C117.459 439.902 122.036 440.194 126.19 439.093C127.862 438.651 130.641 436.435 130.641 436.435C130.641 436.435 126.566 437.743 124.453 437.97C120.183 438.43 115.739 438.644 111.575 437.596C106.955 436.432 98.8 431.195 98.8 431.195ZM162.73 436.705C162.73 436.705 157.162 439.678 154.19 439.353C150.485 438.948 144.602 433.839 144.602 433.839C144.602 433.839 150.842 438.088 154.462 438.199C157.5 438.292 162.967 435.054 162.967 435.054L162.729 436.704L162.73 436.705ZM127.06 388.086C127.06 388.086 131.764 389.958 134.214 390.126C136.054 390.253 137.861 389.431 139.702 389.342C141.803 389.242 143.959 390.194 146.007 389.634C147.127 389.327 149.037 387.701 149.037 387.701C149.037 387.701 146.951 388.161 145.9 388.098C143.764 387.97 141.763 386.536 139.624 386.533C137.264 386.529 135.074 387.986 132.694 388.242C130.824 388.442 127.06 388.086 127.06 388.086Z" fill="#804040" stroke="#804040" stroke-width="2" stroke-linecap="round" stroke-linejoin="round"/>
<path d="M133.422 383.234C133.422 383.234 137.365 381.865 139.412 381.822C141.166 381.784 144.586 382.81 144.586 382.81M145.374 428.073C145.374 428.073 150.406 432.171 155.024 432.27C159.965 432.377 162.918 429.752 162.918 429.752M102.386 425.932C102.386 425.932 112.25 433.242 117.913 433.08C125.333 432.866 130.874 427.532 130.874 427.532" stroke="#804040" stroke-width="2" stroke-linecap="round" stroke-linejoin="round"/>
<path d="M101.295 424.36C107.147 425.116 111.449 427.652 116.836 428.112C121.456 428.505 130.779 427.077 130.779 427.077M163.547 424.288C158.16 426.824 159.314 427.631 153.927 428.09C149.307 428.484 144.481 425.869 144.481 425.869M104.531 423.902C109.798 422.705 115.301 418.832 121.259 418.535C125.674 418.315 130.409 421.343 130.799 425.418" stroke="#804040" stroke-width="2" stroke-linecap="round" stroke-linejoin="round"/>
<path d="M115.619 426.581C114.682 421.528 119.637 420.036 123.197 420.472C125.612 420.768 127.851 423.725 126.689 426.613" stroke="#804040" stroke-width="2" stroke-linecap="round" stroke-linejoin="round"/>
<path fill-rule="evenodd" clip-rule="evenodd" d="M123.868 423.74C123.966 424.655 123.122 425.915 122.162 425.965C121.322 426.009 120.438 424.99 120.456 424.185C120.476 423.345 121.44 422.426 122.316 422.405C123.012 422.387 123.796 423.078 123.868 423.74ZM152.442 423.435C152.416 424.151 153.289 425.077 154.184 425.057C154.968 425.041 155.717 424.197 155.644 423.574C155.566 422.924 154.604 422.27 153.789 422.306C153.141 422.334 152.462 422.918 152.442 423.436V423.435Z" fill="#804040" stroke="#804040" stroke-width="2" stroke-linecap="round" stroke-linejoin="round"/>
<path d="M146.032 419.579C148.125 417.124 148.276 414.945 152.612 412.864M131.485 426.618C129.88 419.511 127.61 415.7 122.462 413.549M163.45 421.573C160.594 419.773 156.938 418.71 152.274 418.831C148.819 418.921 145.306 421.364 145.244 424.316" stroke="#804040" stroke-width="2" stroke-linecap="round" stroke-linejoin="round"/>
<path d="M158.174 426.873C159.286 421.984 157.079 419.353 153.031 419.435C151.251 419.472 147.609 423.466 150.284 427.264" stroke="#804040" stroke-width="2" stroke-linecap="round" stroke-linejoin="round"/>
<path d="M162 480.864C162 480.864 164.295 458.939 164.5 447.932C164.661 439.279 163.755 430.638 163.5 421.986C163.26 413.838 163.91 405.638 163 397.537C162.355 391.8 162.065 385.747 159.5 380.572C157.248 376.029 153.793 371.806 149.5 369.096C145.843 366.788 141.321 365.83 137 365.604C132.61 365.374 128.168 366.415 124 367.808C118.304 369.712 113.015 372.782 108 376.082C102.958 379.399 98.143 383.172 94 387.558C90.89 390.85 86 398.535 86 398.535M164.647 374.643C159.977 372.241 155.83 371.817 152.697 371.458M119.938 369.081C112.674 370.431 103.702 371.275 95.798 373.345C89.154 375.085 82.838 377.893 76.358 380.167M88.107 394.237L82.126 378.461M91.525 389.973L86.612 376.969M95.37 385.283L92.166 375.903M99.216 381.872L96.226 374.411M103.275 378.461L100.498 372.279M107.12 375.69L105.411 372.066M86.185 430.904C87.182 429.056 88.41 427.316 89.175 425.361C90.219 422.696 90.6 419.819 91.312 417.047M82.126 424.935C83.408 422.377 85.036 419.964 85.971 417.26C87.134 413.901 87.395 410.296 88.107 406.814M78.494 419.605C79.634 416.905 81.084 414.315 81.912 411.505C83.196 407.145 83.479 402.551 84.262 398.074M74.435 414.489C75.788 411.007 77.715 407.696 78.495 404.043C79.696 398.406 79.064 392.531 79.349 386.775M70.163 408.946C71.373 406.388 73.135 404.023 73.795 401.272C75.551 393.943 74.222 386.207 74.435 378.674M65.89 403.404C67.172 400.206 69.23 396.196 69.736 392.318C70.721 384.758 68.596 377.111 68.026 369.508M62.045 396.582C63.113 393.171 64.282 387.694 64.395 383.152C64.582 375.635 62.828 369.294 61.618 360.767M57.345 389.973C58.057 385.212 58.256 381.016 57.986 376.543C57.474 368.053 55.85 359.559 53.714 351.387M51.791 381.872C51.933 377.395 52.424 372.308 51.791 367.589C50.713 359.559 47.661 352.24 45.382 344.139M44.955 372.066C45.24 368.797 45.238 364.187 44.528 360.341C43.206 353.181 41.181 346.839 37.478 339.662M38.76 363.112C38.261 359.417 38.374 355.587 37.265 352.027C35.581 346.625 31.781 341.581 29.574 336.891" stroke="#804040" stroke-width="2" stroke-linecap="round" stroke-linejoin="round"/>
<path d="M241.203 303.271C241.203 303.271 245.608 308.47 248.072 310.857C250.666 313.37 253.364 315.827 256.372 317.919C258.689 319.532 261.053 321.403 263.812 322.105C265.441 322.519 267.297 322.666 268.852 322.034C269.996 321.569 271.272 320.692 271.54 319.489C272.048 317.202 270.438 314.772 268.964 312.949C267.469 311.102 265.196 309.964 263.018 309.007C261.704 308.429 260.103 308.106 258.836 307.972C258.007 305.376 260.491 305.968 259.963 300.848C259.809 299.347 259.601 297.288 259.601 297.288" stroke="#804040" stroke-width="2" stroke-linecap="round" stroke-linejoin="round"/>
<path d="M267.533 317.518C267.533 317.518 267.045 315.857 266.388 315.304C265.788 314.799 264.905 314.527 264.098 314.519C263.308 314.511 261.838 315.243 261.838 315.243M272.112 320.274C272.112 320.274 276.079 322.084 277.836 321.32C279.685 320.515 280.69 318.222 280.698 316.35C280.709 313.503 277.92 311.244 276.405 308.764C275.483 307.257 274.871 305.442 273.49 304.339C272.137 303.258 270.318 302.139 268.625 302.508C267.302 302.795 266.238 304.12 265.763 305.385C265.339 306.514 265.18 308.105 265.995 308.995C267.09 310.19 269.218 310.083 270.803 309.74C271.65 309.557 272.437 308.993 272.977 308.317C273.531 307.621 273.903 305.817 273.903 305.817" stroke="#804040" stroke-width="2" stroke-linecap="round" stroke-linejoin="round"/>
<path d="M281.556 315.042C281.556 315.042 284.359 314.188 285.276 313.212C286.201 312.228 286.766 310.844 286.708 309.549C286.611 307.444 285.158 305.526 283.846 303.795C282.309 301.768 280.301 299.955 278.122 298.563C276.506 297.531 274.705 296.661 272.812 296.341C271.399 296.101 269.502 295.561 268.52 296.602C267.682 297.492 267.914 299.204 268.52 300.264C268.977 301.064 270.018 301.408 270.903 301.672C272.103 302.029 273.61 302.528 274.659 301.843C275.599 301.23 275.868 298.704 275.868 298.704" stroke="#804040" stroke-width="2" stroke-linecap="round" stroke-linejoin="round"/>
<path d="M286.135 305.102C286.135 305.102 289.619 302.896 289.855 301.179C290.015 300.019 288.95 298.945 288.138 298.04C286.07 295.734 283.19 294.11 280.411 292.547C278.703 291.587 276.979 290.215 274.974 290.193C274.034 290.183 272.866 290.494 272.398 291.239C271.968 291.924 272.31 292.882 272.684 293.593C273.386 294.927 274.5 296.781 276.119 296.733C277.132 296.701 277.723 295.492 278.122 294.64C278.537 293.754 278.408 291.762 278.408 291.762" stroke="#804040" stroke-width="2" stroke-linecap="round" stroke-linejoin="round"/>
<path d="M287.852 295.948C287.852 295.948 289.109 293.907 288.997 292.808C288.815 291.021 287.513 289.38 286.135 288.1C284.349 286.441 281.962 285.265 279.518 284.61C278.246 284.27 276.558 283.655 275.546 284.438C274.301 285.403 274.22 287.561 274.974 288.885C275.624 290.027 277.302 290.913 278.694 290.716C279.744 290.568 280.418 289.483 280.914 288.624C281.414 287.758 281.556 285.746 281.556 285.746M276.263 283.004C276.263 283.004 275.389 281.643 274.785 281.122C274.217 280.632 273.515 280.308 272.828 280.005C271.464 279.402 268.571 278.625 268.571 278.625" stroke="#804040" stroke-width="2" stroke-linecap="round" stroke-linejoin="round"/>
<path fill-rule="evenodd" clip-rule="evenodd" d="M267.34 320.487C267.34 320.487 272.856 319.279 275.647 319.382C277.773 319.462 279.967 319.792 281.894 320.69C283.984 321.663 285.872 323.178 287.331 324.962C288.965 326.958 290.813 331.872 290.813 331.872C290.813 331.872 286.461 330.949 284.249 330.792C281.864 330.624 279.454 331.194 277.075 330.949C275.301 330.766 273.545 330.338 271.865 329.744C270.518 329.269 269.155 328.73 268.013 327.876C266.896 327.04 265.97 325.942 265.199 324.781C264.555 323.811 263.729 321.613 263.729 321.613L267.34 320.487Z" fill="#FF8080" stroke="#804040" stroke-width="2" stroke-linecap="round" stroke-linejoin="round"/>
<path d="M282.376 326.161C282.376 326.161 279.444 324.642 277.866 324.195C275.482 323.519 272.948 323.554 270.503 323.145C268.679 322.84 265.056 322.097 265.056 322.097" stroke="#804040" stroke-width="2" stroke-linecap="round" stroke-linejoin="round"/>
<path fill-rule="evenodd" clip-rule="evenodd" d="M264.474 323.046L263.586 333.346L260.518 336.046L257.865 333.371L258.457 319.64L264.474 323.046Z" fill="#FF8080" stroke="#804040" stroke-width="2" stroke-linecap="round" stroke-linejoin="round"/>
<path fill-rule="evenodd" clip-rule="evenodd" d="M256.545 319.293C256.545 319.293 254.763 323.315 253.229 324.903C251.45 326.742 249.093 328.083 246.709 329.119C244.484 330.085 241.919 330.032 239.648 330.891C237.524 331.694 233.608 334.014 233.608 334.014C233.608 334.014 234.033 329.248 235.085 327.146C236.227 324.885 237.916 322.945 239.998 321.502C242.754 319.616 246.122 318.888 249.328 318.196C250.763 317.886 252.279 317.559 253.693 317.831C254.763 318.038 256.545 319.293 256.545 319.293Z" fill="#FF8080" stroke="#804040" stroke-width="2.004" stroke-linecap="round" stroke-linejoin="round"/>
<path d="M255.494 319.425C255.494 319.425 252.296 322.103 250.426 322.882C248.239 323.794 245.679 323.231 243.51 324.191C241.921 324.894 239.292 327.341 239.292 327.341" stroke="#804040" stroke-width="2.004" stroke-linecap="round" stroke-linejoin="round"/>
<path fill-rule="evenodd" clip-rule="evenodd" d="M250.6 351.444L244.758 355.572L239.142 352.452L244.786 347.802L250.6 351.444ZM264.359 359.608L268.639 365.348L264.662 371.072L260.356 365.425L264.359 359.608ZM280.172 350.767L285.646 346.301L278.971 343.225L274.909 347.632L280.172 350.767Z" fill="#804040" stroke="#804040" stroke-width="2" stroke-linecap="round" stroke-linejoin="round"/>
<path fill-rule="evenodd" clip-rule="evenodd" d="M277.313 345.424C278.438 343.214 279.981 340.86 279.775 338.404C279.619 336.552 278.48 334.74 277.057 333.461C275.202 331.793 272.571 330.882 270.073 330.438C268.858 330.222 267.512 330.163 266.377 330.646C264.124 331.606 261.003 335.648 261.003 335.648C261.003 335.648 258.091 333.075 256.278 332.595C253.47 331.851 250.132 331.699 247.577 333.077C245.789 334.041 244.539 336.03 243.958 337.973C243.328 340.082 243.666 342.466 244.326 344.565C244.736 345.867 245.519 347.078 246.48 348.049C247.9 349.485 251.6 351.293 251.6 351.293C251.6 351.293 247.425 354.215 246.184 356.349C245.338 357.803 244.846 359.584 245.016 361.257C245.184 362.912 245.987 364.533 247.125 365.783C248.437 367.224 250.228 368.586 252.225 368.836C254.715 369.147 257.365 368.141 259.427 366.726C260.525 365.971 261.137 364.676 261.849 363.55C262.784 362.07 264.254 358.88 264.254 358.88C264.254 358.88 266.999 362.394 268.873 363.511C271.247 364.928 274.07 366.234 276.826 365.877C278.56 365.653 280.271 364.601 281.23 363.171C282.404 361.421 282.466 359.028 282.242 356.934C282.031 354.952 281.296 352.93 280.059 351.364C278.851 349.836 275.256 348.029 275.256 348.029C275.666 346.649 276.582 346.594 277.313 345.424Z" fill="#FF8080" stroke="#804040" stroke-width="2" stroke-linecap="round" stroke-linejoin="round"/>
<path fill-rule="evenodd" clip-rule="evenodd" d="M264.513 354.927C267.528 354.532 270.627 350.918 270.313 347.9C269.993 344.828 266.134 341.73 263.063 342.112C259.884 342.508 256.781 346.6 257.263 349.76C257.712 352.69 261.569 355.314 264.513 354.927Z" fill="#BF6060" stroke="#804040" stroke-width="2" stroke-linecap="round" stroke-linejoin="round"/>
<path fill-rule="evenodd" clip-rule="evenodd" d="M273.42 356.58L269.277 353.067ZM255.192 358.441L259.335 353.274ZM258.092 345.42L253.122 341.699ZM266.791 343.146L271.141 337.566Z" fill="black"/>
<path d="M273.42 356.58L269.277 353.067M255.192 358.441L259.335 353.274M258.092 345.42L253.122 341.699M266.791 343.146L271.141 337.566" stroke="#804040" stroke-width="2" stroke-linecap="round" stroke-linejoin="round"/>
<path d="M148.282 344.382L150.758 331.235L137.698 330.022L136.531 342.919L148.282 344.382ZM142.906 340.274L139.719 337.101L143.25 334.263L146.344 337.443L142.906 340.274Z" fill="black"/>
<path d="M157.5 358.013L161.311 345.892L148.354 343.242L145.851 356.037L157.5 358.013ZM153.151 354.726L149.963 351.552L153.495 348.714L156.588 351.895L153.151 354.725V354.726Z" fill="black"/>
<path d="M172.117 350.323L177.259 338.4L164.186 334.002L160.453 346.708L172.117 350.323ZM167.412 345.222L165.109 341.36L169.234 339.481L171.444 343.327L167.412 345.222Z" fill="black"/>
<path d="M188.713 343.568L193.419 332.837L181.527 327.313L176.425 338.629L188.713 343.569V343.568ZM182.979 338.717L181.046 334.658L185.327 333.17L187.17 337.204L182.979 338.717ZM175.406 364.843L180.533 360.628L183.606 354.772L171.819 350.055L167.293 360.443L175.406 364.843ZM173.886 360.785L172.1 356.66L176.432 355.327L178.128 359.424L173.885 360.785H173.886ZM164.291 334.643L167.751 323.336L153.407 320.222L150.63 331.838L164.291 334.643ZM158.758 330.346L155.686 327.061L159.316 324.351L162.294 327.641L158.758 330.346ZM135.115 355.04L136.82 342.342L123.63 342.202L122.931 354.921L135.115 355.039V355.04ZM129.218 351.592L125.945 348.506L129.398 345.573L132.577 348.669L129.218 351.592ZM138.033 330.696L139.599 318.783L125.265 318.06L124.709 330.279L138.033 330.696ZM131.55 326.939L128.222 323.913L131.62 320.918L134.856 323.955L131.55 326.939Z" fill="black"/>
<path d="M124.166 342.518L125.125 329.837L111.497 330.227L112.376 342.457L124.166 342.517V342.518ZM118.288 339.34L114.869 336.416L118.175 333.32L121.501 336.258L118.288 339.34ZM113.023 354.926L112.309 342.166L99.746 344.405L101.28 355.87L113.023 354.926ZM107.028 351.682L103.348 349.092L106.348 345.7L109.936 348.312L107.028 351.682Z" fill="black"/>
<path d="M111.7 330.663L110.965 319.437L97.395 321.651L98.74 332.974L111.7 330.664V330.663ZM105.361 328.66L101.388 326.876L103.941 323.719L107.827 325.533L105.361 328.66ZM84.61 336.017L81.922 323.868L67.838 328.132L72.471 340.071L84.61 336.017ZM77.448 334.731L73.475 332.947L76.028 329.791L79.914 331.604L77.448 334.731ZM60.054 343.756L56.561 332.986L44.335 337.513L49.73 347.728L60.054 343.756ZM53.454 342.946L49.22 341.918L51.15 338.348L55.303 339.42L53.454 342.946Z" fill="black"/>
<path d="M76.09 350.908L72.667 339.841L59.941 343.791L64.546 355.734L76.09 350.908ZM70.309 350.118L66.072 349.104L67.992 345.528L72.148 346.588L70.309 350.118ZM90.952 358.829L88.176 347.165L75.888 351.146L80.08 362.788L90.952 358.828V358.829ZM84.457 357.407L80.338 355.989L82.595 352.615L86.629 354.069L84.457 357.407Z" fill="black"/>
<path d="M100.02 344.629L98.564 332.89L84.378 335.616L87.778 347.555L100.02 344.629ZM93.68 342.113L89.706 340.328L92.26 337.172L96.146 338.985L93.68 342.113Z" fill="black"/>
<path fill-rule="evenodd" clip-rule="evenodd" d="M188.408 343.35L183.374 355.036L185.223 355.754L195.804 346.63L188.408 343.35ZM70.163 366.724L64.718 355.754L60.198 357.599L68.211 367.749L70.163 366.724Z" fill="black"/>
<path d="M174.73 364.963C164.062 358.538 151.844 356.475 139.845 354.846C131.235 353.677 122.424 354.269 113.783 355.169C105.196 356.063 96.7094 357.742 88.429 360.185C81.869 362.125 75.566 364.877 69.37 367.786M41.086 339.913C46.154 337.326 51.07 334.42 56.289 332.151C60.083 330.502 64.024 329.204 67.956 327.918C72.74 326.353 77.563 324.883 82.452 323.684C87.12 322.538 91.836 321.547 96.594 320.861C101.278 320.186 106.33 319.501 111.044 319.085C115.64 318.679 119.915 318.593 124.524 318.391C129.117 318.191 133.723 318.163 138.314 318.391C143.045 318.627 147.77 319.103 152.456 319.803C157.21 320.513 161.942 321.431 166.598 322.625C171.146 323.792 175.607 325.292 180.033 326.859C184.57 328.466 189.071 330.193 193.468 332.151C197.078 333.759 200.538 335.68 204.074 337.444" stroke="#804040" stroke-width="2" stroke-linecap="round" stroke-linejoin="round"/>
<path fill-rule="evenodd" clip-rule="evenodd" d="M73.369 375.553C73.369 375.553 86.116 369.705 92.813 367.693C99.693 365.626 106.803 364.263 113.937 363.421C120.914 362.597 127.993 362.171 135 362.672C142.317 363.195 149.576 364.657 156.656 366.57C160.874 367.71 168.969 371.061 168.969 371.061L171.229 368.663C171.229 368.663 162.156 364.968 157.437 363.701C150.169 361.751 142.759 360.221 135.219 359.679C127.979 359.159 120.735 359.606 113.563 360.459C106.258 361.326 98.981 362.736 91.937 364.855C84.973 366.951 71.709 373.029 71.709 373.029L73.369 375.553Z" fill="black"/>
<path d="M92.286 440.87C92.286 440.87 93.191 426.188 92 418.992C90.858 412.091 88.212 405.485 85.5 399.034C82.0088 390.716 77.8275 382.705 73 375.084C69.754 369.969 65.988 365.177 62 360.614C56.578 354.41 51.293 347.822 44.5 343.15C40.139 340.151 34.918 338.627 30 336.664C25.291 334.784 15.655 331.606 15.655 331.606" stroke="#804040" stroke-width="2" stroke-linecap="round" stroke-linejoin="round"/>
<path fill-rule="evenodd" clip-rule="evenodd" d="M227.594 315.614C227.594 315.614 213.742 305.522 208 299.242C202.671 293.414 194.5 279.782 194.5 279.782C194.5 279.782 209.293 267.569 215.5 260.323C222.679 251.943 228.82 242.618 234 232.88C238.382 224.642 242.005 215.923 244.5 206.934C246.212 200.768 246.67 194.318 247.5 187.974C248.13 183.166 249 173.504 249 173.504L301 223.4V248.847" fill="#FF8080"/>
<path d="M227.594 315.614C227.594 315.614 213.742 305.522 208 299.242C202.671 293.414 194.5 279.782 194.5 279.782C194.5 279.782 209.293 267.569 215.5 260.323C222.679 251.943 228.82 242.618 234 232.88C238.382 224.642 242.005 215.923 244.5 206.934C246.212 200.768 246.67 194.318 247.5 187.974C248.13 183.166 249 173.504 249 173.504L301 223.4V248.847" stroke="black" stroke-width="2" stroke-linecap="round" stroke-linejoin="round"/>
<path fill-rule="evenodd" clip-rule="evenodd" d="M294 245.354L226 307.724C226 307.724 217.194 300.138 213.42 295.749C209.848 291.593 204 282.277 204 282.277C204 282.277 215.816 270.723 221 264.315C227.475 256.31 233.448 247.835 238.5 238.868C242.083 232.508 245.08 225.794 247.5 218.909C249.493 213.237 251.052 207.381 252 201.446C252.815 196.343 253 185.978 253 185.978L293.5 226.394L294 245.354Z" fill="black" stroke="black" stroke-width="2" stroke-linecap="round" stroke-linejoin="round"/>
<path fill-rule="evenodd" clip-rule="evenodd" d="M239.703 289.283C239.763 290.907 238.553 294.021 238.553 294.021C238.553 294.021 235.687 292.531 234.475 291.487C233.215 290.4 231.247 287.681 231.247 287.681C231.247 287.681 229.953 290.591 229.007 291.856C227.942 293.28 225.211 295.606 225.211 295.606C225.211 295.606 223.759 292.446 223.584 290.746C223.378 288.746 224.294 284.756 224.294 284.756C224.294 284.756 220.901 286.397 219.069 286.732C217.333 287.049 213.774 286.73 213.774 286.73C213.774 286.73 215.536 283.106 216.808 281.568C218.105 279.998 221.398 277.536 221.398 277.536C221.398 277.536 219.042 276.71 218.115 275.918C217.043 275.002 215.68 272.463 215.68 272.463C215.68 272.463 218.273 270.919 219.722 270.594C220.99 270.309 223.622 270.561 223.622 270.561C223.622 270.561 222.785 267.771 222.772 266.335C222.759 264.759 223.622 261.685 223.622 261.685C223.622 261.685 226.082 262.851 227.065 263.761C228.157 264.771 229.658 267.391 229.658 267.391C229.658 267.391 230.796 263.437 231.878 261.719C233.12 259.749 236.648 256.612 236.648 256.612C236.648 256.612 237.355 261.439 237.338 263.869C237.324 265.876 236.684 269.855 236.684 269.855C236.684 269.855 239.764 268.221 241.43 267.758C243.172 267.274 246.813 267.074 246.813 267.074C246.813 267.074 245.872 270.927 244.823 272.57C243.64 274.423 240.142 277.219 240.142 277.219C240.142 277.219 243.091 277.937 244.448 278.59C246.106 279.389 249.038 281.657 249.038 281.657C249.038 281.657 245.769 284.187 243.813 284.602C241.916 285.005 238.022 284.05 238.022 284.05C239.426 285.228 239.637 287.453 239.703 289.283Z" fill="#FF8080"/>
<path d="M231.969 284.554C233.536 284.428 235.039 283.407 236.063 282.214C237.086 281.023 237.807 279.386 237.75 277.818C237.684 276.005 236.716 274.179 235.438 272.891C234.169 271.611 232.366 270.543 230.563 270.551C228.843 270.561 227.118 271.581 225.938 272.828C224.748 274.084 223.816 275.874 223.906 277.6C224.004 279.486 225.224 281.323 226.656 282.558C228.088 283.793 230.083 284.705 231.969 284.554ZM231.813 282.558C230.428 282.67 228.987 281.938 227.938 281.03C226.905 280.136 225.973 278.837 225.906 277.475C225.848 276.28 226.551 275.069 227.375 274.2C228.205 273.326 229.387 272.548 230.594 272.548C231.87 272.548 233.107 273.384 234 274.294C234.932 275.244 235.7 276.551 235.75 277.88C235.79 278.976 235.244 280.102 234.531 280.936C233.847 281.738 232.865 282.472 231.813 282.558Z" fill="black"/>
<path fill-rule="evenodd" clip-rule="evenodd" d="M273.817 242.98V251.54C273.817 251.54 267.514 252.24 265.557 254.393C263.727 256.406 263.651 262.319 263.651 262.319H251.579L273.817 242.98ZM259.096 249.08C260.37 247.793 259.816 244.892 258.461 243.69C257.115 242.496 254.333 242.42 253.06 243.69C251.937 244.811 251.997 247.268 253.06 248.446C254.414 249.946 257.674 250.516 259.096 249.08ZM240.142 251.54L256.979 230.616L247.766 232.519C247.766 232.519 248.008 237.859 246.496 239.81C244.93 241.83 239.506 242.98 239.506 242.98L240.142 251.54ZM289.383 225.544C286.007 224.847 282.506 224.775 279.853 220.472C279.463 227.691 275.599 231.444 271.91 235.372C269.843 230.194 268.742 225.016 271.91 219.838C266.174 224.841 261.371 222.397 256.344 221.74C258.7 217.143 261.737 212.999 267.463 210.644C263.537 207.424 262.043 202.992 261.109 198.28C263.015 198.724 264.921 198.974 266.827 200.499L286.842 220.472C287.962 222.162 288.616 223.853 289.383 225.544Z" fill="#FF8080"/>
<path fill-rule="evenodd" clip-rule="evenodd" d="M275.563 218.91C276.893 219.306 278.422 218.765 279.656 218.13C280.861 217.51 281.989 216.513 282.594 215.323L280.994 214.238C280.648 214.918 279.639 215.877 278.719 216.352C277.859 216.796 276.8 217.229 275.875 216.945C274.34 216.473 273.132 214.969 272.531 213.483C271.954 212.056 272.367 210.397 272.531 208.868C272.641 207.842 273.188 205.843 273.188 205.843L271.276 204.433C271.276 204.433 270.67 207.166 270.563 208.556C270.418 210.422 269.91 212.452 270.656 214.169C271.562 216.253 273.381 218.259 275.563 218.909V218.91Z" fill="black"/>
<path d="M193.76 278.804C193.76 278.804 185.976 263.821 183.912 255.714C182.312 249.43 181.882 242.831 182.058 236.35C182.298 227.569 183.4 218.686 185.994 210.291C188.604 201.845 192.593 193.745 197.519 186.401C202.386 179.143 215.045 166.894 215.045 166.894" stroke="black" stroke-width="2" stroke-linecap="round" stroke-linejoin="round"/>
<path d="M197.254 275.951C197.254 275.951 191.178 263.581 189.63 256.929C187.732 248.774 187.289 240.246 187.724 231.884C188.112 224.549 189.432 217.293 191.651 210.291C193.885 203.264 196.998 196.548 200.916 190.301C205.042 183.726 210.055 177.639 215.68 172.284C218.638 169.468 225.528 164.992 225.528 164.992" stroke="black" stroke-width="2" stroke-linecap="round" stroke-linejoin="round"/>
<path d="M201.067 272.464C201.067 272.464 196.359 261.032 195.031 255.027C193.561 248.386 192.696 241.526 192.948 234.729C193.237 226.938 194.74 219.148 197.051 211.7C199.229 204.684 202.108 197.761 206.15 191.622C210.471 185.057 216.15 179.404 222.034 174.186C226.8 169.958 237.6 163.09 237.6 163.09" stroke="black" stroke-width="2" stroke-linecap="round" stroke-linejoin="round"/>
<path d="M204.826 270.077C204.826 270.077 201.219 261.022 200.114 256.295C198.826 250.789 198.041 245.128 197.916 239.475C197.768 232.754 198.079 225.919 199.646 219.38C201.4 212.073 204.235 205.068 208.056 198.597C211.808 192.26 216.618 186.475 222.034 181.477C228.18 175.805 242.684 167.211 242.684 167.211" stroke="black" stroke-width="2" stroke-linecap="round" stroke-linejoin="round"/>
<path fill-rule="evenodd" clip-rule="evenodd" d="M159.712 379.973L175.202 365.741L205.104 338.181L240.15 305.11L270.052 276.41L301 248.09" fill="black"/>
<path d="M159.712 379.973L175.202 365.741L205.104 338.181L240.15 305.11L270.052 276.41L301 248.09" stroke="#804040" stroke-width="2" stroke-linecap="round" stroke-linejoin="round"/>
<path fill-rule="evenodd" clip-rule="evenodd" d="M188.872 304.984L171.547 300.398L178.572 279.06L195.866 283.294L188.872 304.984Z" fill="#BF6060"/>
<path fill-rule="evenodd" clip-rule="evenodd" d="M150.227 311.366L156.867 309.341L152.994 305.843L158.343 303.45L154.838 299.585L161.294 297.008L157.974 292.774L164.43 290.749L160.372 286.331L166.275 284.306L163.692 279.704C165.168 278.6 166.839 277.495 168.314 276.391C161.182 275.225 153.854 274.059 146.722 272.893L149.304 277.679L145.062 279.889L147.46 285.411L141.188 287.804L143.955 293.694L138.052 294.799L141.926 299.769L136.023 301.241L139.159 305.475L133.256 307.868C134.893 308.656 136.501 309.544 138.156 310.271L150.226 311.366H150.227Z" fill="#FF8080"/>
<path d="M148.577 311.18C150.947 305.628 153.911 299.772 156.274 293.939C158.831 287.625 161.139 280.557 163.279 274.741M139.384 310.104C142.182 304.058 144.778 297.984 147.088 291.77C149.242 285.974 151.138 280.074 152.817 274.127" stroke="black" stroke-width="2" stroke-linecap="round" stroke-linejoin="round"/>
<path fill-rule="evenodd" clip-rule="evenodd" d="M144.925 310.353C145.679 310.25 146.465 309.253 146.275 308.518C146.086 307.785 144.919 307.294 144.211 307.566C143.645 307.783 143.346 308.65 143.497 309.236C143.647 309.821 144.326 310.436 144.925 310.353ZM147.582 303.984C148.338 303.88 149.133 302.887 148.946 302.149C148.757 301.405 147.572 300.899 146.856 301.177C146.283 301.398 145.989 302.281 146.146 302.874C146.3 303.458 146.982 304.066 147.582 303.984ZM150.533 297.448C151.301 297.325 152.094 296.276 151.864 295.534C151.635 294.795 150.396 294.383 149.694 294.707C149.157 294.955 148.932 295.81 149.103 296.374C149.275 296.944 149.944 297.543 150.533 297.448ZM152.82 290.954C153.578 290.858 154.375 289.864 154.194 289.123C154.014 288.38 152.844 287.86 152.125 288.124C151.549 288.337 151.237 289.214 151.385 289.809C151.531 290.403 152.212 291.032 152.82 290.954ZM155.131 284.532C155.917 284.393 156.751 283.31 156.483 282.56C156.213 281.805 154.869 281.488 154.17 281.883C153.673 282.164 153.543 283.003 153.738 283.54C153.933 284.075 154.57 284.632 155.131 284.532ZM157.517 278.098C158.286 277.978 159.087 276.934 158.86 276.191C158.633 275.451 157.388 275.036 156.683 275.363C156.148 275.611 155.929 276.467 156.1 277.031C156.272 277.596 156.932 278.189 157.517 278.098Z" fill="black"/>
<path fill-rule="evenodd" clip-rule="evenodd" d="M125.592 294.835L106.795 294.573C111.301 287.344 114.95 279.61 117.46 270.859L134.536 271.977L125.592 294.835Z" fill="#BF6060"/>
<path fill-rule="evenodd" clip-rule="evenodd" d="M118.574 225.096C118.574 225.096 120.361 234.251 120.715 238.891C120.992 242.522 120.697 249.817 120.697 249.817C120.697 249.817 131.487 250.468 136.871 250.943C142.137 251.407 147.397 251.952 152.641 252.625C157.401 253.235 162.142 253.995 166.881 254.761C172.436 255.661 183.513 257.653 183.513 257.653C183.513 257.653 181.747 249.587 181.363 245.487C180.961 241.18 181.213 232.512 181.213 232.512C181.213 232.512 170.468 232.213 165.111 231.806C160.201 231.433 155.306 230.864 150.424 230.216C144.841 229.476 139.294 228.49 133.734 227.595C128.678 226.781 118.574 225.096 118.574 225.096Z" fill="#BF6060"/>
<path fill-rule="evenodd" clip-rule="evenodd" d="M236.626 162.201L251.499 155.989L301 205.437V222.402L236.626 162.201Z" fill="black"/>
<path fill-rule="evenodd" clip-rule="evenodd" d="M251.499 155.989L270.521 146.669L285.394 150.811L301 172.556V205.69L251.499 155.989Z" fill="#804040"/>
<path fill-rule="evenodd" clip-rule="evenodd" d="M65.374 320.479L50.502 326.691L1 277.243V260.278L65.374 320.479Z" fill="black"/>
<path fill-rule="evenodd" clip-rule="evenodd" d="M50.502 326.691L31.479 336.011L16.606 331.869L1 310.124V276.99L50.502 326.691Z" fill="#804040"/>
</g>
<defs>
<clipPath id="clip0_1_1761">
<rect width="302" height="482" fill="white" transform="translate(0 0.5)"/>
</clipPath>
</defs>
</svg>
