<svg width="303" height="482" xmlns="http://www.w3.org/2000/svg"><g fill="none" fill-rule="evenodd"><path fill="#FF5" d="M117.102 219.563l-.501 3.275-.126.81-1.128-1.091-.283.53-3.166-1.403.846 3.71.345 2.9.376 1.217 3.888 1.996 1.098-2.495 5.612 5.146 2.258 2.09 1.003-2.901.564-1.622 6.428 6.144 2.007 1.964 1.191-2.557.69-1.434 5.926 7.203 2.131 2.432 1.537-1.934 1.254-1.559 5.111 5.989 2.195 2.526 1.192-3.119.282-.717 6.365 6.83 2.665 2.868.784-3.835.125-.593.91 1.123.25-.53 6.271 5.457 2.571 2.214.722-3.305.219-.967 1.097 1.06.063-.218 4.296 3.18 2.665 1.965.502-3.274.125-.81 1.129 1.09.282-.53 3.198 1.404-.627-2.745 1.035.312-1.35-3.202-2.664-2.193-1.881-1.996-1.097 2.495-5.613-5.145-2.257-2.09-1.004 2.9-.564 1.622-6.428-6.143-2.006-1.965-1.192 2.557-.69 1.435-5.926-7.204-1.776-2.343-1.537 1.933-1.254 1.56-5.466-6.077-2.195-2.526-1.191 3.118-.283.718-6.365-6.83-2.665-2.869-.784 3.836-.125.592-.91-1.122-.25.53-6.271-5.458-2.571-2.214-.721 3.306-.22.967-1.097-1.06-.063.218-4.295-3.181z"/><path fill="#55A" d="M186.117 163.705l-8.574 73.059 10.104 1.867 21.059-77.998zM96.057 195.234c-2.601 3.529-5.57 6.816-7.804 10.585-1.72 2.901-3.024 6.037-4.257 9.173-1.538 3.914-3.189 7.854-3.902 11.996-.759 4.406.054 8.955-.355 13.407-.554 6.046-2.027 11.976-2.838 17.994a272.955 272.955 0 0 0-1.418 12.701c-.328 3.757-.473 7.527-.71 11.29 3.193-1.528 6.416-2.995 9.578-4.586 3.823-1.925 7.862-3.525 11.351-5.998 3.816-2.704 7.48-5.795 10.288-9.526 2.376-3.159 4.07-6.841 5.32-10.585 1.257-3.761 1.866-7.747 2.117-11.702.282-4.447-.14-8.927-.697-13.348-.45-3.57-.894-7.202-2.129-10.584-1.517-4.156-3.897-7.98-6.385-11.643-1.458-2.147-3.216-4.08-4.966-5.998-1.012-1.109-2.129-2.117-3.193-3.176z"/><path d="M61.458 129.318s10.44 8.08 15.798 11.935c5.235 3.768 10.376 7.71 15.963 10.938 4.24 2.448 8.74 4.434 13.247 6.35a146.527 146.527 0 0 0 12.294 4.587c3.384 1.093 10.288 2.822 10.288 2.822l-1.065-8.114s-11.706-3.183-17.382-5.293a113.284 113.284 0 0 1-12.77-5.645c-4.044-2.102-7.907-4.543-11.706-7.056-4.018-2.657-7.836-5.602-11.707-8.468-2.504-1.854-7.45-5.645-7.45-5.645l-5.51 3.589z" fill="#F55"/><path d="M2 176.996s14.392-12.497 21.823-18.462c6.637-5.328 13.551-10.304 20.317-15.468 4.352-3.321 13.044-9.979 13.044-9.979s9.647 7.716 14.548 11.476c3.973 3.048 7.86 6.223 12.04 8.981 3.872 2.555 12.04 6.986 12.04 6.986s-8.415 4.094-12.04 6.985c-4.8 3.83-8.642 8.737-12.541 13.472-4.705 5.714-9.637 11.4-13.044 17.963-4.051 7.804-6.766 16.34-8.528 24.948-.903 4.412-.76 8.975-1.003 13.472-.27 4.985-.141 9.99-.502 14.969-.327 4.506-.909 8.992-1.505 13.471-.578 4.338-2.007 12.973-2.007 12.973s-3.9-6.993-7.274-8.731c-2.904-1.496-6.524-1.022-9.783-.749-4.122.346-8.257 1.33-12.04 2.994-2.205.97-3.907 2.835-6.02 3.992-1.443.79-3.072 1.206-4.515 1.996-1.056.578-3.01 1.995-3.01 1.995V176.996z" fill="#000"/><path d="M131.483 32.44s-10.541 9.81-15.168 15.298c-5.218 6.189-10.24 12.654-14.1 19.76-3.526 6.492-6.133 13.5-8.118 20.61-2.048 7.338-3.845 22.523-3.845 22.523l21.363-10.199s2.148-10.24 4.06-15.086c2.058-5.22 4.764-10.215 7.904-14.873 2.786-4.136 9.613-11.474 9.613-11.474l-1.71-26.56z" fill="#000004"/><path fill="#FF5455" d="M189.995 1.361l51.565 88.612 8.35-3.628-50.15-84.984z"/><path d="M265.094 1.361a136.996 136.996 0 0 0-2.922 25.773c-.204 11.279.993 22.578 3.49 33.582 1.78 7.849 4.22 15.55 7.285 22.996a45.477 45.477 0 0 0-12.171-.608 45.436 45.436 0 0 0-10.906 2.3L199.528 1.36h65.566" stroke="#55A" stroke-width="2" fill="#FF5" stroke-linecap="round" stroke-linejoin="round"/><path d="M249.317 142.12c-17.29 8.884-25.193 12.968-38.8 16.52-15.866 4.143-32.533 6.07-48.92 5.322-14.76-.674-29.627-3.562-43.438-8.787-18.523-7.007-35.177-16.437-51.408-29.702 6.015-4.26 16.479-10.874 25.306-15.25 10.295-5.103 15.926-8.958 32.048-12.732 4.358 2.486 8.524 5.477 13.22 7.297 6.345 2.46 13.087 4.06 19.86 4.763 6.848.711 13.802.149 20.648-.586 6.926-.742 13.898-1.75 20.537-3.849 6.458-2.042 12.143-4.531 18.486-8.416-1.294 17.239-.393 22.128 9.371 31.238 2.178 1.796 13.792 8.974 19.458 7.888 4.94 3.573 1.126 5.09 3.632 6.293z" fill="#FFFF58"/><path d="M228.853 24.84c-2.537-1.878-6.252-2.148-8.08-.18-2.113 2.276-1.096 6.907.948 9.244 2.4 2.745 7.68 4.717 10.656 2.602 1.364-.97 1.274-3.534.446-4.984-.417-.729-1.362-1.09-2.279-1.09" stroke="#000" stroke-width="2.5" stroke-linecap="round" stroke-linejoin="round"/><path d="M236.041 42.276c2.037-1.775 1.06-3.63 0-4.86-.872-1.01-2.833-1.31-3.97-.607-2.99 1.85-4.477 6.767-3.178 10.023 1.308 3.278 5.843 6.01 9.286 5.163 2.357-.58 4.683-2.803 3.97-6.074M235.125 34.38c-.831-1.29-.643-3.665.61-4.556 1.268-.9 3.748-.398 4.581.911.898 1.41.24 4.039-1.221 4.86-1.206.676-3.223-.056-3.97-1.215zM223.216 15.55c.353 2.943-1.564 7.417-4.58 7.896-3.162.501-5.909-3.443-7.149-6.378-1.263-2.99-1.976-7.53.43-9.719 1.654-1.505 5.17-1.308 6.718.304.844.878 1.097 2.897 0 3.644" stroke="#000" stroke-width="2.5" stroke-linecap="round" stroke-linejoin="round"/><path d="M203.367 1.361c.916 5.872 4.298 6.323 7.329 5.684 2.113-.445 3.76-3.588 3.053-5.684M214.796 1.361c-1.02 1.69.586 3.163 1.832 3.255 1.375.1 3.022-1.93 2.528-3.255" stroke="#000" stroke-width="2.5" stroke-linejoin="round"/><path d="M247.034 55.032a6.465 6.465 0 0 0-1.592-1.213c-1.835-1.013-4.233-1.332-5.861-.345-2.808 1.7-2.475 6.321-1.057 8.987 1.497 2.813 5.41 5.206 8.51 4.416 1.778-.453 3.525-2.792 3.054-4.556-.35-1.312-1.816-3.24-3.665-1.822M252.225 63.84c-.512-1.315.209-3.43 1.527-3.948 1.307-.515 3.404.48 3.797 1.822.402 1.372-.888 3.255-2.27 3.645-1.095.308-2.642-.464-3.054-1.519zM252.53 71.433c1.568.453 1.073-3.319 0-4.252-1.158-1.01-3.516-.5-4.58.607-2.006 2.09-2.024 6.039-.751 8.636 1.358 2.771 4.83 5.96 7.79 5.047 2.531-.78 3.54-3.207 3.038-7.305" stroke="#000" stroke-width="2.5" stroke-linecap="round" stroke-linejoin="round"/><path d="M131.12 1.361s.8 19.873 1.254 29.807c.29 6.34.44 12.69.94 19.016.61 7.71.83 15.516 2.508 23.068 1.332 6 2.885 12.125 5.955 17.457 2.54 4.411 5.782 8.707 10.03 11.534 2.47 1.645 5.498 2.575 8.462 2.806 3.801.297 7.705-.56 11.283-1.87 4.574-1.675 8.577-4.658 12.537-7.482 3.675-2.62 6.986-5.717 10.344-8.728 2.579-2.314 7.522-7.17 7.522-7.17" stroke="#55A" stroke-width="2.5" stroke-linejoin="round"/><path d="M143.03 1.554s-3.241 4.655-5.328 6.546c-1.67 1.515-5.641 3.741-5.641 3.741M149.613 1.554s-4.336 6.849-7.21 9.664c-2.932 2.873-10.029 7.17-10.029 7.17M156.508 1.554s-7.27 10.391-11.91 14.651c-3.535 3.246-11.91 8.105-11.91 8.105M161.21 1.554s6.724 13.302 12.223 18.08c5.524 4.8 19.746 9.664 19.746 9.664" stroke="#55A" stroke-width="2.5" stroke-linecap="round" stroke-linejoin="round"/><path d="M166.851 1.554s5.294 9.802 9.403 13.404c3.54 3.105 12.537 6.547 12.537 6.547M172.493 1.554s3.205 6.695 5.955 9.04c1.917 1.634 6.895 3.117 6.895 3.117" stroke="#55A" stroke-width="2.5" stroke-linecap="round" stroke-linejoin="round"/><path d="M152.976 38.83s.55 4.043.341 6.053c-.395 3.794-2.02 7.36-2.982 11.052-.63 2.415-1.92 4.769-1.824 7.262.075 1.96.593 4.085 1.866 5.582.852 1.001 2.519.963 3.496 1.844.82.738 1.838 2.749 1.838 2.749" stroke="#55A" stroke-width="2" stroke-linecap="round" stroke-linejoin="round"/><path d="M166.177 63.109s3.209 3.589 2.777 5.637c-.273 1.295-1.738 2.336-3.05 2.564-1.69.293-3.226-1.16-4.822-1.786-1.514-.593-3.05-2.584-4.507-1.864-.684.338-1.088 1.64-.577 2.205.62.684 1.821-.39 2.747-.414 3.21-.083 7.063 2.916 9.589.943.875-.683.71-2.206.469-3.285-.348-1.555-2.626-4-2.626-4h0zM193.158 37.895s-8.779-6.24-13.79-7.558c-3.944-1.036-8.268-1.272-12.174-.102-1.571.47-4.164 2.754-4.164 2.754s3.828-1.38 5.82-1.637c4.023-.52 8.215-.796 12.16.214 4.377 1.12 12.148 6.33 12.148 6.33zM133.38 31.854s6.138-2.835 9.306-2.372c3.514.513 9.126 5.471 9.126 5.471s-5.936-4.075-9.367-4.297c-3.229-.208-9.266 2.876-9.266 2.876l.202-1.678zM169.651 80.832s-3.944-1.533-6.062-1.664c-1.92-.12-3.782.71-5.696.816-2.185.122-4.47-.743-6.564-.202-.95.246-2.416 1.485-2.416 1.485s1.706-.104 2.55-.017c2.238.232 4.328 1.445 6.554 1.422 2.456-.025 4.725-1.397 7.183-1.72 1.467-.192 4.451-.12 4.451-.12z" stroke="#55A" stroke-width="2" fill="#55A" stroke-linecap="round" stroke-linejoin="round"/><path d="M164.996 85.939s-3.69 1.439-5.635 1.51c-1.66.06-4.897-.937-4.897-.937M151.164 40.812s-4.807-4.092-9.166-4.133c-4.666-.045-7.417 2.656-7.417 2.656M191.769 42.43s-9.408-7.125-14.755-7.05c-7.215.099-12.583 4.307-12.583 4.307" stroke="#55A" stroke-width="2" stroke-linecap="round" stroke-linejoin="round"/><path d="M190.685 44.65c-5.535-.692-7.494-3.848-12.586-4.244-4.365-.34-13.145 1.229-13.145 1.229M134.064 42.891c5.05-2.643 4.786-3.248 9.882-2.92 6.574.425 8.444 1.21 8.092 1.07M188.063 45.58c-4.954 1.283-7.316 2.522-12.936 2.9-4.164.279-9.744-1.032-10.168-5.161" stroke="#55A" stroke-width="2" stroke-linecap="round" stroke-linejoin="round"/><path d="M178.028 41.58c.955 5.114-2.46 7.056-5.826 6.658-2.283-.269-4.438-3.24-3.381-6.185" stroke="#55A" stroke-width="2" stroke-linecap="round" stroke-linejoin="round"/><path d="M171.743 44.423c-.019-.742.614-1.739 1.36-1.77.808-.036 1.686.98 1.635 1.784-.048.752-.976 1.527-1.732 1.467-.648-.053-1.246-.834-1.263-1.48zM144.558 43.613c.015-.726-.823-1.654-1.667-1.623-.74.027-1.435.893-1.357 1.524.082.658.999 1.31 1.769 1.262.61-.037 1.244-.637 1.255-1.163z" stroke="#55A" stroke-width="2" fill="#55A" stroke-linecap="round" stroke-linejoin="round"/><path d="M150.662 49.44c-1.941 2.517-2.053 4.73-6.116 6.897M164.904 42.523c1.614 7.19 7.26 9.34 11.721 12.517M133.98 45.516c2.72 1.79 6.187 2.82 10.587 2.637 3.26-.136 6.542-2.66 6.558-5.655" stroke="#55A" stroke-width="2" stroke-linecap="round" stroke-linejoin="round"/><path d="M139.1 40.2c-.982 4.974 1.138 7.615 4.958 7.479 1.68-.06 5.062-4.16 2.484-7.978M164.556 92.815s-3.767-1.228-5.712-1.188c-1.662.033-4.836 1.212-4.836 1.212" stroke="#55A" stroke-width="2" stroke-linecap="round" stroke-linejoin="round"/><path d="M197.068 41.151c-1.852 5.383-5.183 10.794-5.127 16.573.055 5.667 2.3 11.357 5.34 16.149 2.366 3.728 5.637 7.19 9.614 9.136 3.814 1.865 8.403 1.275 12.604 1.912" stroke="#55A" stroke-width="2.5" stroke-linecap="round" stroke-linejoin="round"/><path d="M200.272 46.675c-.854 3.117-2.314 7.16-2.136 10.837.204 4.208 1.515 8.462 3.632 12.111 1.762 3.038 4.17 5.966 7.263 7.65 2.353 1.279 5.27.99 7.905 1.487" stroke="#55A" stroke-width="2.5" stroke-linecap="round" stroke-linejoin="round"/><path d="M203.904 53.05c-.285 2.266-1.182 4.538-.854 6.799.432 2.982 1.532 6.114 3.631 8.287 1.7 1.758 4.415 2.124 6.623 3.187M224.2 93.845c-.855 3.046-2.361 5.982-2.564 9.137-.253 3.928.26 8.023 1.709 11.686 1.65 4.168 4.41 7.98 7.69 11.049 2.002 1.873 4.465 3.323 7.05 4.25 1.829.655 3.846.566 5.768.85" stroke="#55A" stroke-width="2.5" stroke-linecap="round" stroke-linejoin="round"/><path d="M227.831 100.857c-.427 2.267-1.415 4.497-1.282 6.8.18 3.108 1.187 6.242 2.777 8.924 1.306 2.2 3.229 4.071 5.341 5.524 1.338.92 2.991 1.275 4.487 1.912M133.833 67.923c-3.205 4.32-7.11 8.205-9.614 12.961-2.758 5.238-3.845 11.19-5.768 16.786M134.901 74.51c-2.065 3.187-4.585 6.125-6.195 9.561-1.732 3.696-2.421 7.791-3.632 11.687M136.396 81.947c-1.068 1.77-2.364 3.423-3.204 5.312-.7 1.573-.997 2.747-1.495 4.942M122.076 96.786c6.632 3.726 14.723 7.597 22.652 9.808 6.575 1.833 13.47 2.55 20.295 2.762 7.78.243 15.61-.423 23.286-1.7 5.23-.87 10.452-2.093 15.382-4.037 4.443-1.752 8.402-4.532 12.604-6.799" stroke="#55A" stroke-width="2.5" stroke-linecap="round" stroke-linejoin="round"/><path d="M111.401 101.707c5.84 3.329 11.348 7.312 17.518 9.987 6.153 2.667 12.67 4.522 19.227 5.949 6.173 1.343 12.482 2.322 18.8 2.427 7.01.116 14.023-.84 20.936-2.002 5.637-.947 11.212-2.323 16.663-4.037 3.72-1.17 7.264-2.833 10.895-4.25" stroke="#000" stroke-width="2.5" stroke-linecap="round" stroke-linejoin="round"/><path d="M105.847 104.894c5.056 2.975 9.897 6.344 15.168 8.924 5.161 2.527 10.519 4.71 16.022 6.375 6.548 1.98 13.287 3.438 20.082 4.25 7.215.86 14.542 1.148 21.79.637 5.84-.413 11.621-1.58 17.304-2.975 7.194-1.765 14.1-4.533 21.15-6.8" stroke="#000" stroke-width="2.5" stroke-linecap="round" stroke-linejoin="round"/><path d="M98.584 107.869c5.696 3.329 11.121 7.168 17.09 9.986 6.656 3.143 13.642 5.623 20.722 7.65 7.06 2.02 14.285 3.58 21.577 4.462 5.73.693 11.54.942 17.304.637 6.467-.343 12.92-1.308 19.227-2.762 4.52-1.042 8.884-2.677 13.246-4.25 3.754-1.354 7.405-2.974 11.108-4.462" stroke="#000" stroke-width="2.5" stroke-linecap="round" stroke-linejoin="round"/><path d="M71.88 122.53c6.765 4.745 13.212 9.974 20.295 14.236 7.874 4.739 15.97 9.266 24.567 12.536 7.702 2.93 15.824 4.726 23.927 6.241 7.68 1.437 15.482 2.302 23.286 2.683 8.323.407 16.734.658 24.995-.425 8.15-1.068 16.081-3.506 23.927-5.95 7.484-2.33 14.9-4.98 22.004-8.286 4.072-1.895 7.833-4.391 11.75-6.587" stroke="#000" stroke-width="2.5" stroke-linecap="round" stroke-linejoin="round"/><path fill="#000" d="M97.498 107.304l-12.722 6.573 7.274 5.24 7.204-10.067zM108.774 114.782l-6.69 11.819 13.294 6.237 5.77-11.227zM133.438 125.353l-3.932 12.068 13.546 4.24 3.43-12.908zM158.773 131.091l-1.004 12.567 14.473.504-.677-13.57zM184.358 130.842l1.167 12.816 14.134-2.745-2.917-13.152zM209.103 123.677l5.311 13.37 12.07-4.561-2.996-7.382-4.515-6.237zM83.773 129.844l8.026-10.478 10.285 6.985-6.44 12.068z"/><path fill="#000" d="M109.101 145.99l5.78-13.494 14.392 4.583-4.363 13.97zM140.129 155.4l2.84-13.581 14.893 1.914-1.172 13.646zM172.067 157.786l-.25-14.47h14.046l1.505 13.472-15.552 1.995zM202.669 153.544l-3.185-12.897 14.816-4.328 4.352 12.822-15.732 5.401zM231.515 143.815l-5.268-11.726 3.01-.998 15.803 6.986z"/><path stroke="#000" stroke-width="2.5" stroke-linecap="round" stroke-linejoin="round" d="M79.672 118.797l.338 4.56 5.6-.986-1.085-5.001zM97.82 115.124l4.765-1.247.59 4.833-4.854 1.746zM101.833 134.334l5.267-2.494 1.255 4.74-4.014 2.245zM121.9 127.598l5.016-1.746 1.43 4.833-4.69 2.153zM130.93 145.062l2.759 4.74 4.013-3.243-3.01-4.49zM148.051 135.796l4.002-3.243 2.986 3.029-4.013 3.991zM160.78 150.225l3.762-3.666 3.01 4.74-3.763 2.245zM174.791 137.656l3.185-3.743 3.343 3.4-3.01 2.994zM190.29 148.56l3.6-3.997 3.762 2.994-2.573 4.659zM201.415 133.586l2.508-4.49 4.264 1.746-2.006 4.74zM218.973 141.57l2.258-4.74 4.766 2.494-2.007 4.241z"/><path d="M67.217 126.102c7.693 5.654 14.314 11.243 22.074 15.966 5.518 3.358 11.375 6.167 17.308 8.732 6.695 2.895 13.542 5.511 20.568 7.485 6.896 1.936 13.981 3.201 21.07 4.24 7.174 1.053 14.41 1.938 21.66 2.011 9.06.091 18.198-.338 27.109-1.967 9.233-1.687 18.192-4.75 26.984-8.027 8.752-3.261 17.333-7.376 25.527-11.534M120.645 101.154a1 1 0 0 1-1.003.997 1 1 0 0 1-1.003-.997 1 1 0 0 1 1.003-.998 1 1 0 0 1 1.003.998zM127.418 104.896a1 1 0 0 1-1.003.998 1 1 0 0 1-1.004-.998 1 1 0 0 1 1.004-.998 1 1 0 0 1 1.003.998zM133.94 107.89a1 1 0 0 1-1.004.997 1 1 0 0 1-1.003-.998 1 1 0 0 1 1.003-.997 1 1 0 0 1 1.004.997zM140.462 109.636a1 1 0 0 1-1.004.998 1 1 0 0 1-1.003-.998 1 1 0 0 1 1.003-.998 1 1 0 0 1 1.004.998zM147.987 111.881a1 1 0 0 1-1.004.998 1 1 0 0 1-1.003-.998 1 1 0 0 1 1.003-.998 1 1 0 0 1 1.004.998zM154.76 113.628a1 1 0 0 1-1.004.997 1 1 0 0 1-1.003-.997 1 1 0 0 1 1.003-.998 1 1 0 0 1 1.003.998zM162.033 114.126a1 1 0 0 1-1.003.998 1 1 0 0 1-1.003-.998 1 1 0 0 1 1.003-.997 1 1 0 0 1 1.003.997zM169.357 114.812a1 1 0 0 1-1.003.998 1 1 0 0 1-1.003-.998 1 1 0 0 1 1.003-.998 1 1 0 0 1 1.003.998zM176.268 114.45a1 1 0 0 1-1.004.998 1 1 0 0 1-1.003-.998 1 1 0 0 1 1.003-.998 1 1 0 0 1 1.004.998zM183.605 113.129a1 1 0 0 1-1.003.997 1 1 0 0 1-1.003-.997 1 1 0 0 1 1.003-.998 1 1 0 0 1 1.003.998zM191.13 112.13a1 1 0 0 1-1.003.999 1 1 0 0 1-1.003-.998 1 1 0 0 1 1.003-.998 1 1 0 0 1 1.003.998zM198.129 110.297a1 1 0 0 1-1.003.998 1 1 0 0 1-1.004-.998 1 1 0 0 1 1.004-.998 1 1 0 0 1 1.003.998zM204.425 108.638a1 1 0 0 1-1.004.998 1 1 0 0 1-1.003-.998 1 1 0 0 1 1.003-.998 1 1 0 0 1 1.004.998zM209.692 106.143a1 1 0 0 1-1.003.998 1 1 0 0 1-1.003-.998 1 1 0 0 1 1.003-.998 1 1 0 0 1 1.003.998zM215.21 104.397a1 1 0 0 1-1.003.998 1 1 0 0 1-1.003-.998 1 1 0 0 1 1.003-.998 1 1 0 0 1 1.004.998z" stroke="#000" stroke-width="2.5" stroke-linecap="round" stroke-linejoin="round"/><g stroke="#55A" stroke-linecap="round" stroke-linejoin="round" stroke-width="2"><path d="M285.515 176.015s-1.374.529-2.063.391c-.628-.125-1.228-.547-1.611-1.053-.375-.497-.556-1.796-.556-1.796M287.938 174.3s3.39-.847 4.606.082c1.28.978 1.64 3.053 1.306 4.613-.508 2.37-3.07 3.787-4.69 5.598-.984 1.101-1.786 2.51-3.052 3.199-1.24.674-2.846 1.302-4.086.714-.968-.46-1.548-1.74-1.685-2.871-.123-1.01.044-2.361.835-2.967 1.06-.812 2.684-.368 3.844.18.62.294 1.125.894 1.419 1.547.301.671.26 2.235.26 2.235"/><path d="M294.508 178.59s2.135.928 2.78 1.822c.649.9.984 2.115.835 3.21-.242 1.778-1.535 3.298-2.704 4.672-1.369 1.608-3.09 3-4.913 4.022-1.352.758-2.837 1.365-4.35 1.5-1.13.1-2.663.422-3.353-.533-.589-.815-.271-2.25.29-3.106.422-.645 1.267-.861 1.983-1.02.973-.217 2.196-.53 2.966.126.691.588.703 2.75.703 2.75"/><path d="M296.77 187.663s2.59 2.094 2.658 3.566c.046.996-.867 1.84-1.568 2.556-1.787 1.827-4.165 3.023-6.46 4.174-1.41.708-2.861 1.763-4.44 1.655-.74-.05-1.639-.39-1.956-1.052-.29-.608.044-1.4.388-1.98.644-1.088 1.65-2.591 2.92-2.447.794.09 1.176 1.155 1.431 1.903.266.778.027 2.46.027 2.46M299.024 194.494s.998 1.734.914 2.67c-.138 1.522-1.16 2.924-2.244 4.018-1.404 1.418-3.285 2.427-5.212 2.993-1.003.294-2.334.822-3.135.158-.987-.818-1.058-2.655-.467-3.785.51-.975 1.831-1.734 2.931-1.571.83.123 1.365 1.045 1.76 1.775.397.736.516 2.449.516 2.449"/><path d="M291.11 204.73s-.69 1.159-1.167 1.603c-.449.417-1.002.692-1.545.95-1.077.514-2.21.886-3.361 1.176-3.558.895-7.205 1.77-10.874 1.716-2.64-.04-5.627.05-7.782-1.467-1.873-1.317-3.06-3.67-3.46-5.916-.688-3.88.8-7.91 2.095-11.633 1.094-3.143 2.758-6.11 4.714-8.808 1.692-2.332 3.74-4.431 5.98-6.25 1.696-1.376 3.537-2.655 5.57-3.463 1.161-.461 2.48-1.112 3.676-.746.968.297 2.06 1.162 2.12 2.168.128 2.136-2.447 3.54-3.922 5.1-.848.896-1.828 1.662-2.805 2.418-1.058.82-2.301 2.177-3.301 2.29-.655 2.211.798 1.689.89 6.067.085 4.1-1.552 6.789-3.392 8.973"/></g><path d="M221.208 88.109c-1.566 4.107-4.198 7.958-4.7 12.323-.66 5.752.188 11.836 2.35 17.21 1.535 3.815 4.334 7.09 7.264 9.987 2.607 2.577 5.64 4.834 8.973 6.375 3.398 1.57 7.263 1.841 10.895 2.762" stroke="#55A" stroke-width="2.5" stroke-linecap="round" stroke-linejoin="round"/><path d="M140.67 90.233c-29.527 8.636-51.463 20.01-74.3 35.557-3.973 2.706-7.94 5.427-11.769 8.334C36.6 147.792 19.258 161.268 2 176.896" stroke="#55A" stroke-width="2" stroke-linecap="round" stroke-linejoin="round"/><path fill="#000" d="M179.075 1.361l70.834 141.096 18.179-8.417-76.79-132.679z"/><path d="M32.56 315.193l3.902-4.94 5.675 2.823-4.256 5.292 5.675 3.88 9.223-13.053-10.996-6.704 5.675-10.937 5.676 1.764-2.483 5.292 6.385 2.47 4.612-15.171-12.416-3.529 3.547-16.23h6.386l-1.774 9.88 6.03 1.058 2.129-17.64H54.553v-16.23h6.03l-.354 8.467 6.74-.705 1.064-15.524-11.351-1.764 1.064-16.23 7.094 1.058-.709 7.762 6.385 1.059 3.902-15.171-12.415-5.293 8.158-15.17 5.676 2.822-3.192 7.056 6.03 1.764 6.74-10.232-9.223-8.82 10.997-12.349 5.676 4.587-5.676 4.587 4.611 5.645 11.352-10.232-8.159-11.643 5.04-2.366m7.512 4.122l-2.209.879 3.535 5.273 6.186-3.369" stroke="#5456AA" stroke-width="2" stroke-linecap="round" stroke-linejoin="round"/><path d="M121.243 172.301c-6.976 4.587-14.516 8.421-20.929 13.76-5.259 4.378-10.307 9.195-14.19 14.818-2.814 4.077-4.7 8.755-6.385 13.408-2.439 6.736-4.265 13.734-5.32 20.816-.765 5.124-.25 10.364-.71 15.524-.558 6.263-1.668 12.465-2.483 18.7-.6 4.585-.885 9.22-1.774 13.76-.888 4.535-2.043 9.034-3.547 13.406-1.956 5.684-4.295 11.26-7.095 16.583-1.75 3.324-3.626 6.634-6.03 9.526-1.547 1.86-3.548 3.293-5.322 4.94" stroke="#5456AA" stroke-width="2" stroke-linecap="round" stroke-linejoin="round"/><path fill="#FFFF57" d="M35.752 171.243l-.355-6.351 6.386.353 3.547-5.998 4.612 6.35h6.385l-.71 6.351 5.321 3.176-6.03 4.586.355 5.645-4.967-.705L46.04 191l-4.966-7.409-4.611 1.764v-5.997l-6.74-3.881z"/><path stroke="#000" stroke-width="2" fill="#F55" stroke-linecap="round" stroke-linejoin="round" d="M40.218 174.794l5.424-5.066 5.136 5.51-5.197 4.886z"/><path fill="#55A" d="M127.041 158.103l16.906 3.777 10.08 62.474-10.582-6.04z"/><path d="M132.076 174.272s-8.111 1.707-11.897 3.321c-4.678 1.995-8.96 4.851-13.125 7.762-2.13 1.49-4.166 3.132-6.03 4.94-1.68 1.63-4.612 5.292-4.612 5.292s2.882 3.139 4.26 4.763c1.708 2.014 3.487 3.987 4.963 6.175 1.113 1.648 2.913 5.205 2.913 5.205s6.633-1.668 10.005-1.531c3.35.136 6.567 1.386 9.785 2.323 5.168 1.506 15.254 5.293 15.254 5.293l-11.516-43.543zM81.155 225.552s3.44 4.133 4.227 6.631c.704 2.237.898 4.76.294 7.027-.503 1.89-1.846 3.49-3.132 4.969-1.108 1.274-3.869 3.272-3.869 3.272s.798-6.866 1.193-10.4c.43-3.833.046-7.666 1.287-11.5z" fill="#F55"/><path d="M85.77 215.698s1.2-4.035 2.483-5.645c1.101-1.383 2.501-2.925 4.257-3.176 1-.142 2.262.233 2.838 1.059.471.676.228 1.678 0 2.47-.308 1.066-1.02 2.005-1.774 2.822-.8.866-1.863 1.452-2.838 2.117-.92.627-2.838 1.764-2.838 1.764l-2.128-1.411z" fill="#FFF"/><path d="M81.482 225.86l1.805-6.634s2.562 3.412 3.547 5.292c1.35 2.576 2.687 5.254 3.193 8.115.518 2.93.46 6.026-.223 8.922-.478 2.03-1.51 3.922-2.651 5.671-1.132 1.737-2.45 3.418-4.092 4.687-1.531 1.183-5.198 2.595-5.198 2.595l1.167-7.057s3.78-3.187 4.966-5.292c1.08-1.916 1.693-4.155 1.774-6.35.066-1.798-.36-3.636-1.064-5.293-.738-1.735-3.224-4.655-3.224-4.655z" fill="#FF5"/><path d="M110.493 215.9s6.729-.686 10.041-.202c3.81.557 7.352 2.291 10.997 3.528 2.973 1.009 6.001 1.897 8.868 3.175 4.297 1.916 8.383 4.285 12.416 6.704 2.92 1.752 5.625 3.84 8.514 5.645 2.558 1.599 5.124 3.198 7.804 4.587 2.534 1.312 5.045 2.789 7.804 3.528 2.295.615 4.72.588 7.095.705 2.125.106 6.385 0 6.385 0l.177 9.88-4.08-4.94-1.063 3.88-7.805-6.35-1.418 3.528-8.16-8.114-2.128 3.88-7.804-9.878-2.997 3.607-6.936-7.841-2.128 3.175-8.159-8.467-1.419 3.175-9.933-7.056-.709 3.175-9.223-5.292.355 2.822-5.133-1.49-1.361-5.365z" stroke="#000" fill="#000" stroke-linecap="round" stroke-linejoin="round"/><path fill="#F55" d="M207.24 166.09l5.111.351-.002-5.832-4.036 1.2z"/><path d="M212.177 207.767c.118-16.582-.006-31.232.112-47.814 6.03-1.882 10.979-3.703 16.336-5.895 5.293-2.166 10.372-4.82 15.59-7.16 2.944-1.32 5.912-2.587 8.868-3.88.684 2.835.64 3.616 1.444 6.33-2.364 2.706-4.867 5.297-7.094 8.116-2.149 2.72-4.243 5.5-6.03 8.467-2.583 4.286-4.778 8.808-6.74 13.407a75.047 75.047 0 0 0-3.15 8.881c-1.042 3.655-2.07 8.08-2.424 11.138-3.075 1.529-4.329 1.759-6.43 2.775-3.572 1.727-6.462 3.636-10.482 5.635z" fill="#000"/><path d="M212.298 171.948l-.01 37.752-7.094 5.292-7.45 8.468-3.547 8.115-1.419 7.056h-6.03l18.82-66.683c2.37.234 4.36.113 6.73 0z" fill="#F55"/><path d="M63.776 160.658c-.134-2.313-3.933-4.306-2.838-6.35 1.44-2.686 7.31-4.085 9.04-1.576.814 1.179-2.09 2.251-2.221 3.675-.115 1.257 1.34 3.546 1.34 3.546h12.061l-1.064 3.88H68.743s-1.454 1.373-1.505 2.281c-.074 1.294 2.67 2.54 1.763 3.468-1.798 1.839-5.962-.93-6.998-3.279-.798-1.805 1.887-3.677 1.773-5.645zM11.275 176.535s5.52.226 7.095 2.117c1.442 1.73.71 6.703.71 6.703s2.715-2.49 4.256-2.116c1.563.378 2.875 2.281 2.838 3.88-.035 1.506-1.449 2.929-2.838 3.529-1.414.61-4.611-.353-4.611-.353s2.105 5.8 4.652 6.962c2.37 1.081 5.4.132 7.764-.964 2.047-.95 2.765-4.078 4.966-4.587 1.202-.278 3.044-.063 3.547 1.059.906 2.017-2.595 3.801-2.838 5.998-.235 2.13-.128 4.78 1.42 6.27.95.917 2.586.9 3.901.746.857-.1 2.36-1.059 2.36-1.059s-1.677-3.865-.586-5.252c1.103-1.401 3.803-1.648 5.321-.705 1.586.985 2.203 3.482 1.774 5.292-.302 1.27-2.783 2.768-2.783 2.768l1.364 7.464s-3.294-2.732-5.266-3.46c-1.965-.724-4.26-.096-6.236-.789-1.908-.668-3.9-1.595-5.17-3.16-1.34-1.65-2.13-5.999-2.13-5.999s-4.658 2.52-7.094 2.117c-3.01-.496-5.532-2.931-7.45-5.292-1.317-1.622-2.197-3.676-2.497-5.74-.303-2.079.649-4.158.764-6.256.065-1.174.266-2.392-.04-3.528-.562-2.085-3.193-5.645-3.193-5.645zM8.083 250.274s3.97-.46 5.32.706c1.721 1.484 1.85 6.543 1.85 6.543s1.351-3.53 2.924-3.734c1.41-.184 3.323 1.15 3.4 2.563.096 1.793-3.944 3.694-3.944 3.694s2.314 3.403 5.6-.88c.914-1.192 1.412-2.684 1.77-4.14.378-1.542.367-4.747.367-4.747l4.621.084s-1.119 3.681-.979 5.556c.11 1.484.347 3.197 1.42 4.234.935.906 3.749 1.13 3.749 1.13s-.473-1.507-.203-2.189c.524-1.317 1.77-2.796 3.193-2.822 1.268-.024 2.623 1.185 2.937 2.407.258 1.004-.472 2.11-1.163 2.885-.27.304-1.074.585-1.074.585s2.658 1.697 3.557 2.943c.966 1.34 1.787 4.614 1.787 4.614s-4.258-3.046-6.753-3.555c-1.42-.29-2.922.677-4.333.353a8.199 8.199 0 0 1-4.181-2.47c-.774-.866-1.419-3.175-1.419-3.175s-2.495 3.19-4.261 4.041c-1.505.726-3.33 1.046-4.967.701-1.633-.344-3.154-1.384-4.247-2.64-.76-.87-1.026-2.075-1.406-3.165-.319-.917-.545-1.866-.727-2.818-.178-.932-.032-1.93-.355-2.823-.522-1.443-2.483-3.881-2.483-3.881z" stroke="#FF5" stroke-width="2" fill="#000" stroke-linecap="round" stroke-linejoin="round"/><path d="M57.391 133.844c5.085 4.116 9.909 8.573 15.254 12.349 6.887 4.865 14.191 9.14 21.578 13.218a187.397 187.397 0 0 0 14.64 7.238c3.992 1.769 8.046 3.42 12.19 4.8 3.552 1.183 7.222 1.98 10.833 2.97M143.964 163.438l14.527 8.863M144.475 170.01l13.043 7.983M145.227 178.742l12.291 6.237M146.983 186.226l11.79 6.487M148.488 192.962l10.285 6.487M149.993 200.946l9.532 5.987M151.247 208.43l7.776 3.992M152.25 215.914l7.275 4.491M184.99 168.346l-12.771 8.114M184.228 175.167l-11.037 6.986M183.225 183.65l-10.034 5.488M183.726 190.885l-11.287 5.987M183.225 197.62l-10.786 5.739M182.723 204.606l-11.538 6.486M181.469 211.342l-9.783 5.239M180.465 218.826l-9.28 5.738M160.027 227.39l-6.822-4.855M178.84 227.64l-6.773 3.243M171.86 233.406l6.257 2.495" stroke="#5456AA" stroke-width="2" stroke-linecap="round" stroke-linejoin="round"/><g stroke="#5456AA" stroke-linecap="round" stroke-linejoin="round" stroke-width="2"><path d="M275.411 105.145c-.836-2.162-3.29-4.304-2.508-6.486.905-2.527 4.333-4.175 7.023-3.992 2.737.186 5.427 2.489 6.522 4.99 1.073 2.45.131 4.621-.752 7.983 3.02-1.843 4.275-2.29 6.27-1.497 3.144 1.25 5.735 5.122 5.519 8.482-.182 2.827-2.747 5.836-5.518 6.487-2.48.582-4.683-1.996-7.024-2.994.502 2.994 2.64 6.164 1.505 8.981-.933 2.316-3.512 4.506-6.02 4.491-2.743-.017-5.517-2.451-6.522-4.99-1.117-2.824 1.004-5.987 1.505-8.98-1.84 1.33-3.254 4.204-5.518 3.99-3.651-.343-7.282-4.343-7.525-7.982-.191-2.856 2.591-5.447 5.017-6.986 2.294-1.456 5.35-.998 8.026-1.497z" fill="#FF5"/><path fill="#55A" d="M269.391 106.143l-3.511-8.482 6.02 1.497 3.01 5.488zM284.943 105.145l2.509-5.488 6.521-.998-2.508 6.486zM286.448 120.114l.502 5.988 5.017.499-1.004-5.49zM270.395 120.114l-2.007 6.985 4.515-1.496 2.508-8.483z"/><path fill="#FF5" d="M277.92 131.59l1.505 40.416 3.511-1.996-1.505-38.17zM284.441 162.526c.335-5.503 1.022-11.174 3.261-16.217 2.223-5.005 6.271-9.397 9.783-13.222.167 5.489.254 11.559-.753 17.214-.627 3.522-1.392 7.172-3.26 10.229-2.089 3.417-5.686 5.655-8.529 8.482-.167-2.162-.633-4.322-.502-6.486z"/><path d="M293.472 142.567c-.837 3.826-1.329 7.742-2.509 11.476-1.303 4.126-5.017 11.975-5.017 11.975"/><path d="M260.361 143.565c4.85 3.826 11.214 6.29 14.549 11.476 3.06 4.758 2.675 10.977 4.013 16.466-3.846-3.825-8.034-7.339-11.538-11.476-2.242-2.647-4.764-5.255-6.02-8.482-.974-2.501-.67-5.323-1.004-7.984z" fill="#FF5"/><path d="M265.378 152.546c2.508 2.329 5.396 4.31 7.525 6.986 2.51 3.154 4.013 6.985 6.02 10.478"/><path fill="#F55" d="M269.893 112.63l11.037-10.479 9.28 10.728-9.782 9.98z"/><path fill="#FF5" d="M275.913 112.63l4.515-4.491 4.515 4.49-4.013 4.74z"/></g><path fill="#FFFF57" d="M13.492 224.507l-.354-6.35 6.385.353 3.547-5.998 4.612 6.35h6.385l-.71 6.351 5.322 3.175-6.03 4.587.354 5.645-4.966-.705-4.257 6.35-4.967-7.409-4.611 1.764v-5.998l-6.74-3.88z"/><path stroke="#000" stroke-width="2" fill="#F55" stroke-linecap="round" stroke-linejoin="round" d="M17.958 228.06l5.424-5.067 5.136 5.51-5.197 4.885z"/><path d="M89.388 220.595s2.247-3.565 3.917-4.773c1.435-1.038 3.2-2.15 4.959-1.921 1.001.13 2.116.829 2.447 1.778.271.778-.234 1.677-.667 2.379-.585.945-1.524 1.659-2.471 2.244-1.005.62-2.187.901-3.306 1.281-1.055.358-3.21.94-3.21.94l-1.669-1.928zM92.238 225.678s3.155-2.804 5.097-3.503c1.668-.6 3.674-1.18 5.3-.474.925.401 1.8 1.38 1.854 2.384.043.822-.694 1.547-1.306 2.1-.825.747-1.927 1.174-3 1.474-1.14.318-2.353.26-3.534.316-1.114.053-3.347.017-3.347.017l-1.064-2.314zM94.902 231.459s3.951-1.506 6.016-1.472c1.773.028 3.855.196 5.123 1.43.722.702 1.19 1.927.88 2.884-.252.784-1.2 1.2-1.97 1.502-1.039.406-2.22.415-3.332.316-1.178-.105-2.291-.588-3.415-.953-1.06-.345-3.134-1.168-3.134-1.168l-.168-2.539zM94.85 237.256s4.201-.506 6.196.026c1.713.456 3.692 1.122 4.62 2.625.529.857.684 2.158.15 3.011-.437.699-1.458.875-2.28.98-1.106.143-2.254-.134-3.308-.498-1.117-.387-2.08-1.124-3.08-1.75-.944-.591-2.755-1.891-2.755-1.891l.458-2.503zM78.656 256.946s-.617 4.163-.135 6.16c.415 1.715 1.033 3.7 2.52 4.662.847.547 2.15.735 3.022.226.714-.416.917-1.427 1.044-2.24.172-1.097-.076-2.246-.415-3.303-.36-1.12-1.076-2.096-1.68-3.108-.57-.954-1.829-2.787-1.829-2.787l-2.527.39zM83.634 254.169s.531 4.175 1.535 5.97c.863 1.54 1.994 3.287 3.686 3.816.964.301 2.271.134 2.973-.59.575-.591.497-1.62.4-2.437-.13-1.102-.68-2.142-1.292-3.07-.65-.983-1.603-1.731-2.458-2.544-.806-.767-2.514-2.196-2.514-2.196l-2.33 1.05zM88.095 250.597s1.676 3.863 3.142 5.31c1.26 1.242 2.835 2.607 4.608 2.647 1.01.023 2.218-.5 2.69-1.388.387-.727.026-1.693-.296-2.452-.433-1.022-1.252-1.87-2.1-2.592-.898-.765-2.023-1.22-3.071-1.765-.989-.513-3.03-1.414-3.03-1.414l-1.943 1.654zM92.469 245.982s2.948 3.018 4.835 3.852c1.621.716 3.581 1.435 5.253.845.952-.335 1.895-1.25 2.019-2.248.101-.817-.582-1.592-1.154-2.187-.77-.802-1.839-1.305-2.889-1.68-1.112-.398-2.327-.426-3.501-.564-1.108-.13-3.337-.251-3.337-.251l-1.226 2.233z" fill="#FFF"/><g><path stroke="#000" stroke-width="2" fill="#FF5" stroke-linecap="round" stroke-linejoin="round" d="M158.845 165.598l2.129 62.448 10.287 5.293.71-67.036z"/><path d="M163.812 170.89h2.838l.354 3.175-2.984.146-.208-3.321zM164.2 177.83h2.838l.354 3.175-2.985.146-.207-3.321zM163.949 184.815h2.838l.354 3.175-2.984.147-.208-3.322zM163.698 191.052h2.838l.355 3.175-2.985.147-.208-3.322zM163.698 198.287h2.838l.355 3.175-2.985.146-.208-3.321zM163.447 204.274h2.838l.355 3.176-2.985.146-.208-3.322zM164.2 210.761h2.838l.354 3.175-2.985.146-.207-3.321zM164.2 216.748h2.838l.354 3.176-2.985.146-.207-3.322zM164.2 223.235h2.838l.354 3.175-2.985.146-.207-3.321z" fill="#000"/></g><path d="M181.724 165.145l-9.28 5.738" stroke="#5456AA" stroke-width="2" stroke-linecap="round" stroke-linejoin="round"/><g><path d="M91.483 274.245c-.118 16.583.296 30.696.178 47.278-6.03 1.882-10.979 3.703-16.336 5.895-5.293 2.166-10.372 4.82-15.59 7.16-2.945 1.32-5.913 2.587-8.869 3.88l-1.808-6.815c2.365-2.704 5.73-5.891 8.31-9.08 2.179-2.696 4.242-5.502 6.03-8.468 2.582-4.286 4.777-8.808 6.74-13.407 1.233-2.89 2.346-5.846 3.15-8.881.88-3.33 1.461-7.114 1.816-10.172 3.074-1.529 5.27-2.164 7.866-3.332 2.867-1.29 4.493-2.058 8.513-4.058z" fill="#000"/><path fill="#55A" d="M176.909 323.373l-16.906-3.778-10.08-62.474 10.76 6.923z"/><path d="M122.226 316.33l9.28-5.738" stroke="#5456AA" stroke-width="2" stroke-linecap="round" stroke-linejoin="round"/><path d="M92.016 309.527l-.533-35.403s6.16-3.428 8.691-5.821c3.071-2.903 5.497-6.47 7.627-10.11 1.492-2.55 2.66-5.301 3.548-8.116.721-2.289 1.419-7.056 1.419-7.056l4.434-.177-18.092 66.683c-2.37-.233-4.725-.113-7.094 0z" fill="#F55"/><path fill="#55A" d="M117.833 317.77l8.574-73.058-10.105-1.868-21.058 77.998zM207.892 286.241c2.602-3.528 5.571-6.815 7.805-10.584 1.719-2.902 3.024-6.037 4.256-9.174 1.539-3.914 2.93-7.906 3.903-11.996 1.045-4.399 1.52-8.917 2.055-13.407.662-5.566 1.057-11.162 1.422-16.756.295-4.528.278-9.073.619-13.597.293-3.888.988-7.869 1.225-11.632-3.193 1.529-6.417 2.995-9.578 4.587-3.823 1.924-7.862 3.525-11.352 5.998-3.816 2.703-7.48 5.795-10.287 9.526-2.376 3.158-4.07 6.84-5.321 10.584-1.257 3.761-1.865 7.747-2.116 11.703-.282 4.446.14 8.927.697 13.347.45 3.57.893 7.203 2.128 10.585 1.518 4.155 3.897 7.98 6.386 11.643 1.457 2.146 3.215 4.08 4.966 5.998 1.011 1.108 2.128 2.117 3.192 3.175z"/><path d="M242.492 352.158s-10.441-8.08-15.799-11.936c-5.234-3.767-10.375-7.71-15.963-10.937-4.238-2.449-8.74-4.434-13.247-6.35a146.527 146.527 0 0 0-12.294-4.587c-3.383-1.093-10.287-2.823-10.287-2.823l1.064 8.115s11.706 3.182 17.382 5.292c4.364 1.622 8.642 3.5 12.77 5.645 4.045 2.102 7.908 4.544 11.707 7.057 4.018 2.657 7.836 5.602 11.706 8.467 2.504 1.854 7.45 5.645 7.45 5.645l5.51-3.588z" fill="#F55"/><path d="M301.95 304.48s-14.392 12.496-21.823 18.462c-6.637 5.327-13.551 10.303-20.318 15.467-4.352 3.322-13.043 9.98-13.043 9.98s-9.648-7.717-14.549-11.477c-3.972-3.047-7.86-6.222-12.04-8.98-3.872-2.556-12.04-6.986-12.04-6.986s8.415-4.095 12.04-6.986c4.8-3.829 8.643-8.737 12.542-13.472 4.705-5.714 9.637-11.4 13.043-17.962 4.052-7.805 6.767-16.341 8.529-24.948.903-4.413.76-8.976 1.003-13.472.27-4.985.14-9.99.502-14.97.327-4.506.908-8.992 1.505-13.471.577-4.337 2.006-12.973 2.006-12.973s3.776 6.756 7.024 8.482c2.964 1.576 6.678 1.19 10.033.998a38.182 38.182 0 0 0 11.539-2.495c2.165-.837 4.02-2.316 6.02-3.492 1.678-.988 3.369-1.957 5.017-2.994 1.019-.641 3.01-1.996 3.01-1.996V304.48z" fill="#000"/><path d="M172.467 449.036s10.54-9.81 15.168-15.298c5.218-6.19 10.24-12.654 14.1-19.76 3.525-6.493 6.133-13.501 8.117-20.611 2.048-7.338 3.846-22.523 3.846-22.523l-21.363 10.2s-2.148 10.24-4.06 15.085c-2.059 5.22-4.765 10.215-7.904 14.874-2.787 4.135-9.613 11.473-9.613 11.473l1.709 26.56z" fill="#000004"/><path fill="#FF5455" d="M113.954 480.114L62.39 391.502l-8.35 3.628 50.149 84.984z"/><path d="M38.855 480.114a136.996 136.996 0 0 0 2.923-25.772c.204-11.28-.994-22.578-3.49-33.583a144.307 144.307 0 0 0-7.285-22.995 45.436 45.436 0 0 0 23.077-1.692l50.342 84.042H38.855" stroke="#55A" stroke-width="2" fill="#FF5" stroke-linecap="round" stroke-linejoin="round"/><path d="M54.633 339.356c17.29-8.885 25.192-12.968 38.8-16.521 15.866-4.143 32.532-6.069 48.919-5.321 14.76.674 29.628 3.562 43.439 8.786 18.523 7.007 35.176 16.437 51.407 29.702-6.014 4.26-16.478 10.874-25.305 15.25-10.296 5.104-15.926 8.958-32.048 12.732-4.359-2.486-8.524-5.476-13.22-7.297-6.345-2.459-13.087-4.059-19.86-4.762-6.848-.712-13.802-.149-20.648.585-6.926.743-13.898 1.75-20.537 3.85-6.459 2.041-12.143 4.53-18.486 8.416 1.294-17.24.393-22.129-9.372-31.238-2.177-1.797-13.792-8.974-19.457-7.889-4.94-3.572-1.126-5.09-3.632-6.293z" fill="#FFFF58"/><path d="M75.097 456.635c2.536 1.878 6.252 2.148 8.08.18 2.113-2.275 1.095-6.907-.948-9.243-2.4-2.745-7.68-4.718-10.656-2.602-1.364.97-1.274 3.533-.446 4.983.416.729 1.362 1.091 2.278 1.091" stroke="#000" stroke-width="2.5" stroke-linecap="round" stroke-linejoin="round"/><path d="M67.909 439.2c-2.038 1.775-1.06 3.63 0 4.859.871 1.01 2.832 1.31 3.97.607 2.99-1.85 4.477-6.766 3.178-10.022-1.308-3.279-5.844-6.01-9.286-5.164-2.357.58-4.684 2.803-3.97 6.075M68.825 447.096c.83 1.29.642 3.665-.611 4.556-1.267.9-3.748.397-4.58-.912-.898-1.41-.241-4.039 1.221-4.859 1.206-.677 3.223.056 3.97 1.215zM80.734 465.926c-.354-2.944 1.563-7.418 4.58-7.896 3.161-.502 5.908 3.443 7.148 6.378 1.263 2.99 1.977 7.53-.43 9.719-1.654 1.504-5.169 1.308-6.718-.304-.843-.879-1.097-2.897 0-3.645" stroke="#000" stroke-width="2.5" stroke-linecap="round" stroke-linejoin="round"/><path d="M100.583 480.114c-.916-5.872-4.299-6.323-7.329-5.684-2.113.446-3.76 3.589-3.054 5.684M89.153 480.114c1.02-1.69-.585-3.163-1.832-3.254-1.374-.1-3.021 1.93-2.527 3.254" stroke="#000" stroke-width="2.5" stroke-linejoin="round"/><path d="M56.915 426.443c.437.466.984.878 1.593 1.214 1.835 1.012 4.232 1.331 5.86.345 2.808-1.701 2.476-6.322 1.057-8.988-1.496-2.812-5.41-5.206-8.51-4.416-1.777.454-3.524 2.792-3.053 4.556.35 1.313 1.816 3.241 3.664 1.822M51.724 417.636c.513 1.314-.208 3.429-1.527 3.948-1.306.514-3.404-.48-3.797-1.822-.401-1.373.888-3.255 2.27-3.645 1.095-.309 2.643.463 3.054 1.519zM51.419 410.043c-1.567-.453-1.072 3.318 0 4.252 1.159 1.009 3.517.5 4.58-.608 2.007-2.09 2.025-6.038.752-8.636-1.358-2.77-4.83-5.96-7.791-5.047-2.53.78-3.54 3.208-3.038 7.305" stroke="#000" stroke-width="2.5" stroke-linecap="round" stroke-linejoin="round"/><path d="M172.83 480.114s-.8-19.873-1.254-29.807c-.29-6.34-.44-12.689-.94-19.016-.61-7.71-.83-15.516-2.508-23.068-1.333-6-2.885-12.124-5.955-17.457-2.54-4.41-5.782-8.707-10.03-11.534-2.471-1.645-5.498-2.574-8.462-2.806-3.802-.296-7.706.56-11.284 1.87-4.573 1.676-8.576 4.658-12.537 7.482-3.674 2.62-6.985 5.717-10.343 8.729-2.579 2.313-7.522 7.17-7.522 7.17" stroke="#55A" stroke-width="2.5" stroke-linejoin="round"/><path d="M160.919 479.922s3.242-4.655 5.328-6.547c1.67-1.514 5.642-3.74 5.642-3.74M154.337 479.922s4.336-6.85 7.209-9.664c2.933-2.874 10.03-7.17 10.03-7.17M147.442 479.922s7.27-10.392 11.91-14.652c3.534-3.245 11.91-8.105 11.91-8.105M142.74 479.922s-6.724-13.303-12.223-18.08c-5.525-4.801-19.746-9.665-19.746-9.665" stroke="#55A" stroke-width="2.5" stroke-linecap="round" stroke-linejoin="round"/><path d="M137.099 479.922s-5.294-9.802-9.403-13.405c-3.54-3.104-12.537-6.546-12.537-6.546M131.457 479.922s-3.205-6.696-5.955-9.04c-1.917-1.635-6.896-3.118-6.896-3.118" stroke="#55A" stroke-width="2.5" stroke-linecap="round" stroke-linejoin="round"/><path d="M150.974 442.646s-.55-4.043-.341-6.053c.394-3.794 2.02-7.36 2.982-11.052.629-2.416 1.92-4.77 1.824-7.263-.075-1.959-.593-4.084-1.867-5.581-.852-1.002-2.518-.964-3.496-1.844-.82-.739-1.837-2.75-1.837-2.75" stroke="#55A" stroke-width="2" stroke-linecap="round" stroke-linejoin="round"/><path d="M137.773 418.367s-3.21-3.59-2.777-5.637c.273-1.296 1.738-2.337 3.05-2.564 1.689-.293 3.226 1.16 4.822 1.785 1.514.593 3.05 2.584 4.507 1.864.683-.338 1.087-1.64.576-2.204-.62-.684-1.82.39-2.746.414-3.21.083-7.063-2.916-9.59-.943-.874.683-.71 2.205-.468 3.285.347 1.554 2.626 4 2.626 4h0zM110.792 443.58s8.778 6.241 13.79 7.558c3.944 1.036 8.267 1.273 12.174.103 1.57-.47 4.164-2.755 4.164-2.755s-3.829 1.38-5.82 1.638c-4.024.52-8.215.796-12.16-.214-4.377-1.121-12.148-6.33-12.148-6.33zM170.569 449.622s-6.137 2.834-9.305 2.372c-3.515-.514-9.127-5.471-9.127-5.471s5.936 4.075 9.368 4.296c3.228.209 9.265-2.875 9.265-2.875l-.201 1.678zM134.299 400.643s3.944 1.534 6.061 1.665c1.921.119 3.783-.71 5.697-.817 2.185-.122 4.469.743 6.564.202.95-.245 2.416-1.485 2.416-1.485s-1.707.104-2.55.017c-2.238-.231-4.329-1.444-6.554-1.421-2.456.025-4.725 1.397-7.183 1.72-1.467.192-4.451.12-4.451.12z" stroke="#55A" stroke-width="2" fill="#55A" stroke-linecap="round" stroke-linejoin="round"/><path d="M138.954 395.537s3.69-1.44 5.634-1.51c1.662-.06 4.898.936 4.898.936M152.786 440.663s4.807 4.092 9.166 4.134c4.666.044 7.416-2.657 7.416-2.657M112.18 439.045s9.408 7.125 14.756 7.051c7.214-.1 12.583-4.308 12.583-4.308" stroke="#55A" stroke-width="2" stroke-linecap="round" stroke-linejoin="round"/><path d="M113.265 436.826c5.534.692 7.494 3.847 12.585 4.244 4.365.34 13.145-1.23 13.145-1.23M169.885 438.584c-5.05 2.643-4.786 3.249-9.882 2.92-6.574-.424-8.444-1.21-8.091-1.07M115.886 435.895c4.954-1.283 7.316-2.521 12.936-2.899 4.164-.279 9.745 1.032 10.169 5.16" stroke="#55A" stroke-width="2" stroke-linecap="round" stroke-linejoin="round"/><path d="M126.287 439.678c-.955-5.115 2.094-6.838 5.46-6.441 2.284.27 4.438 3.24 3.382 6.186" stroke="#55A" stroke-width="2" stroke-linecap="round" stroke-linejoin="round"/><path d="M132.426 436.543c.193.903-.674 2.217-1.58 2.28-.792.056-1.695-.982-1.634-1.784.056-.737.99-1.345 1.731-1.394.578-.039 1.362.335 1.483.898zM159.392 437.862c-.015.726.822 1.655 1.667 1.624.74-.027 1.435-.893 1.356-1.524-.081-.658-.998-1.31-1.768-1.263-.61.037-1.244.638-1.255 1.163z" stroke="#55A" stroke-width="2" fill="#55A" stroke-linecap="round" stroke-linejoin="round"/><path d="M153.288 432.036c1.94-2.517 2.052-4.73 6.115-6.897M139.046 438.952c-1.614-7.19-7.26-9.339-11.721-12.517M169.969 435.96c-2.72-1.79-6.187-2.821-10.587-2.638-3.26.136-6.541 2.66-6.557 5.656" stroke="#55A" stroke-width="2" stroke-linecap="round" stroke-linejoin="round"/><path d="M164.85 441.276c.981-4.974-1.139-7.616-4.958-7.48-1.68.06-5.062 4.16-2.484 7.978M139.394 388.66s3.767 1.228 5.712 1.189c1.662-.034 4.835-1.212 4.835-1.212" stroke="#55A" stroke-width="2" stroke-linecap="round" stroke-linejoin="round"/><path d="M106.882 440.324c1.851-5.382 5.183-10.793 5.127-16.573-.055-5.666-2.3-11.356-5.341-16.148-2.365-3.728-5.636-7.191-9.613-9.137-3.814-1.865-8.403-1.274-12.605-1.912" stroke="#55A" stroke-width="2.5" stroke-linecap="round" stroke-linejoin="round"/><path d="M103.677 434.8c.855-3.116 2.314-7.16 2.136-10.836-.203-4.208-1.514-8.463-3.631-12.112-1.763-3.037-4.17-5.966-7.264-7.649-2.352-1.28-5.27-.991-7.904-1.487" stroke="#55A" stroke-width="2.5" stroke-linecap="round" stroke-linejoin="round"/><path d="M100.045 428.426c.285-2.267 1.183-4.539.855-6.8-.433-2.982-1.532-6.114-3.632-8.286-1.7-1.759-4.415-2.125-6.622-3.187M79.75 387.63c.855-3.045 2.361-5.981 2.564-9.136.252-3.929-.26-8.024-1.71-11.687-1.649-4.168-4.41-7.979-7.69-11.049-2-1.873-4.465-3.322-7.05-4.25-1.828-.655-3.845-.566-5.768-.849" stroke="#55A" stroke-width="2.5" stroke-linecap="round" stroke-linejoin="round"/><path d="M76.119 380.618c.427-2.266 1.414-4.497 1.281-6.799-.18-3.109-1.186-6.242-2.777-8.924-1.305-2.2-3.228-4.072-5.34-5.524-1.339-.92-2.991-1.275-4.487-1.913M170.117 413.552c3.204-4.32 7.109-8.205 9.613-12.96 2.759-5.239 3.846-11.191 5.768-16.787M169.049 406.966c2.065-3.188 4.585-6.125 6.195-9.562 1.732-3.696 2.421-7.79 3.632-11.686M167.553 399.529c1.068-1.77 2.365-3.424 3.205-5.312.7-1.574.997-2.747 1.495-4.943M181.874 384.69c-6.632-3.727-14.723-7.598-22.652-9.809-6.575-1.833-13.47-2.549-20.296-2.762-7.779-.243-15.61.424-23.285 1.7-5.23.87-10.453 2.093-15.382 4.037-4.443 1.752-8.403 4.533-12.604 6.8" stroke="#55A" stroke-width="2.5" stroke-linecap="round" stroke-linejoin="round"/><path d="M192.548 379.768c-5.84-3.328-11.348-7.311-17.518-9.986-6.153-2.667-12.67-4.523-19.227-5.95-6.173-1.342-12.481-2.322-18.8-2.426-7.01-.116-14.022.84-20.935 2.002-5.637.947-11.213 2.322-16.663 4.037-3.72 1.17-7.264 2.833-10.896 4.25" stroke="#000" stroke-width="2.5" stroke-linecap="round" stroke-linejoin="round"/><path d="M198.103 376.581c-5.056-2.974-9.898-6.344-15.168-8.924-5.161-2.526-10.52-4.71-16.023-6.374-6.548-1.98-13.286-3.438-20.081-4.25-7.215-.861-14.542-1.149-21.79-.637-5.84.412-11.622 1.58-17.305 2.975-7.193 1.765-14.1 4.532-21.15 6.799" stroke="#000" stroke-width="2.5" stroke-linecap="round" stroke-linejoin="round"/><path d="M205.366 373.607c-5.697-3.33-11.122-7.168-17.09-9.987-6.656-3.143-13.642-5.623-20.723-7.65-7.06-2.02-14.284-3.58-21.577-4.461-5.73-.693-11.54-.943-17.304-.638-6.466.343-12.918 1.309-19.227 2.763-4.52 1.041-8.884 2.676-13.245 4.25-3.754 1.353-7.406 2.974-11.109 4.461" stroke="#000" stroke-width="2.5" stroke-linecap="round" stroke-linejoin="round"/><path d="M232.07 358.946c-6.765-4.746-13.212-9.974-20.295-14.236-7.875-4.74-15.97-9.267-24.568-12.537-7.701-2.929-15.823-4.725-23.926-6.241-7.68-1.436-15.482-2.301-23.286-2.683-8.323-.406-16.734-.658-24.995.425-8.15 1.069-16.082 3.506-23.927 5.95-7.485 2.33-14.9 4.98-22.004 8.286-4.072 1.895-7.833 4.392-11.75 6.587" stroke="#000" stroke-width="2.5" stroke-linecap="round" stroke-linejoin="round"/><path fill="#000" d="M206.451 374.172l12.723-6.574-7.275-5.239-7.203 10.067zM195.175 366.693l6.691-11.818-13.294-6.237-5.77 11.227zM170.512 356.122l3.931-12.067-13.545-4.241-3.43 12.908zM145.177 350.384l1.003-12.566-14.472-.505.676 13.57zM119.592 350.634l-1.167-12.816-14.134 2.744 2.917 13.152zM94.846 357.799l-5.31-13.37-12.07 4.56 2.995 7.383 4.515 6.237zM220.177 351.632l-8.027 10.478-10.284-6.986 6.44-12.067z"/><path fill="#000" d="M194.848 335.486l-5.78 13.494-14.391-4.583 4.363-13.971zM163.82 326.075l-2.84 13.582-14.893-1.915 1.173-13.646zM131.883 323.69l.25 14.47h-14.046l-1.505-13.472 15.552-1.996zM101.28 327.931l3.186 12.897-14.817 4.328-4.351-12.821 15.732-5.402zM72.435 337.66l5.267 11.726-3.01.998L58.89 343.4z"/><path stroke="#000" stroke-width="2.5" stroke-linecap="round" stroke-linejoin="round" d="M224.278 362.679l-.338-4.56-5.6.986 1.085 5zM206.13 366.351l-4.766 1.247-.589-4.832 4.854-1.747zM202.117 347.141l-5.268 2.495-1.254-4.74 4.013-2.246zM182.05 353.877l-5.017 1.746-1.429-4.832 4.69-2.153zM173.02 336.413l-2.76-4.74-4.013 3.244 3.01 4.49zM155.899 345.68l-4.002 3.242-2.987-3.028 4.014-3.992zM143.17 331.25l-3.762 3.667-3.01-4.74 3.762-2.246zM129.159 343.82l-3.185 3.742-3.343-3.4 3.01-2.994zM113.66 332.915l-3.6 3.997-3.763-2.993 2.574-4.66zM102.535 347.89l-2.508 4.49-4.265-1.746 2.007-4.74zM84.976 339.906l-2.257 4.74-4.766-2.495 2.007-4.24z"/><path d="M236.732 355.374c-7.692-5.655-14.313-11.244-22.073-15.967-5.518-3.358-11.375-6.166-17.308-8.732-6.695-2.894-13.543-5.51-20.569-7.484-6.896-1.937-13.98-3.202-21.07-4.241-7.174-1.052-14.409-1.938-21.66-2.01-9.06-.092-18.197.338-27.108 1.966-9.234 1.688-18.193 4.75-26.984 8.027-8.752 3.262-17.333 7.377-25.527 11.535M183.304 380.322a1 1 0 0 1 1.003-.998 1 1 0 0 1 1.004.998 1 1 0 0 1-1.004.998 1 1 0 0 1-1.003-.998zM176.532 376.58a1 1 0 0 1 1.003-.998 1 1 0 0 1 1.003.998 1 1 0 0 1-1.003.998 1 1 0 0 1-1.003-.998zM170.01 373.586a1 1 0 0 1 1.003-.998 1 1 0 0 1 1.004.998 1 1 0 0 1-1.004.998 1 1 0 0 1-1.003-.998zM163.488 371.84a1 1 0 0 1 1.003-.998 1 1 0 0 1 1.004.998 1 1 0 0 1-1.004.998 1 1 0 0 1-1.003-.998zM155.963 369.594a1 1 0 0 1 1.003-.998 1 1 0 0 1 1.004.998 1 1 0 0 1-1.004.998 1 1 0 0 1-1.003-.998zM149.19 367.848a1 1 0 0 1 1.004-.998 1 1 0 0 1 1.003.998 1 1 0 0 1-1.003.998 1 1 0 0 1-1.004-.998zM141.916 367.349a1 1 0 0 1 1.004-.998 1 1 0 0 1 1.003.998 1 1 0 0 1-1.003.998 1 1 0 0 1-1.004-.998zM134.592 366.664a1 1 0 0 1 1.004-.998 1 1 0 0 1 1.003.998 1 1 0 0 1-1.003.997 1 1 0 0 1-1.004-.997zM127.682 367.025a1 1 0 0 1 1.003-.998 1 1 0 0 1 1.004.998 1 1 0 0 1-1.004.998 1 1 0 0 1-1.003-.998zM120.344 368.347a1 1 0 0 1 1.004-.998 1 1 0 0 1 1.003.998 1 1 0 0 1-1.003.998 1 1 0 0 1-1.004-.998zM112.82 369.345a1 1 0 0 1 1.003-.998 1 1 0 0 1 1.003.998 1 1 0 0 1-1.003.998 1 1 0 0 1-1.004-.998zM105.82 371.179a1 1 0 0 1 1.004-.998 1 1 0 0 1 1.003.998 1 1 0 0 1-1.003.998 1 1 0 0 1-1.003-.998zM99.525 372.838a1 1 0 0 1 1.003-.998 1 1 0 0 1 1.004.998 1 1 0 0 1-1.004.997 1 1 0 0 1-1.003-.997zM94.257 375.332a1 1 0 0 1 1.004-.998 1 1 0 0 1 1.003.998 1 1 0 0 1-1.003.998 1 1 0 0 1-1.004-.998zM88.739 377.079a1 1 0 0 1 1.003-.998 1 1 0 0 1 1.004.998 1 1 0 0 1-1.004.998 1 1 0 0 1-1.003-.998z" stroke="#000" stroke-width="2.5" stroke-linecap="round" stroke-linejoin="round"/><g stroke="#55A" stroke-linecap="round" stroke-linejoin="round" stroke-width="2"><path d="M18.434 305.46s1.375-.528 2.063-.39c.629.124 1.229.546 1.612 1.053.375.497.556 1.795.556 1.795M16.011 307.176s-3.39.847-4.606-.082c-1.28-.978-1.64-3.054-1.305-4.613.508-2.371 3.07-3.788 4.689-5.599.984-1.1 1.786-2.51 3.052-3.198 1.24-.675 2.846-1.302 4.086-.714.969.46 1.549 1.739 1.686 2.87.122 1.011-.044 2.362-.835 2.967-1.061.812-2.684.369-3.845-.18-.62-.294-1.125-.894-1.418-1.547-.302-.67-.26-2.235-.26-2.235"/><path d="M9.442 302.886s-2.135-.928-2.78-1.823c-.649-.9-.984-2.115-.836-3.209.243-1.778 1.536-3.299 2.705-4.672 1.368-1.608 3.09-3 4.913-4.022 1.352-.759 2.836-1.366 4.349-1.5 1.13-.1 2.664-.422 3.354.533.589.814.27 2.25-.29 3.105-.422.645-1.268.862-1.984 1.02-.972.217-2.195.53-2.966-.126-.69-.588-.702-2.75-.702-2.75"/><path d="M7.179 293.812s-2.59-2.093-2.657-3.566c-.046-.995.867-1.839 1.568-2.556 1.787-1.827 4.165-3.023 6.46-4.174 1.41-.707 2.86-1.762 4.44-1.654.74.05 1.639.39 1.955 1.051.291.609-.044 1.4-.387 1.98-.644 1.088-1.65 2.592-2.92 2.448-.795-.09-1.176-1.155-1.432-1.904-.265-.777-.026-2.46-.026-2.46M4.926 286.982s-.999-1.734-.914-2.67c.137-1.523 1.16-2.924 2.243-4.018 1.405-1.419 3.286-2.428 5.213-2.993 1.003-.294 2.334-.823 3.135-.159.986.819 1.057 2.656.467 3.786-.51.974-1.832 1.734-2.931 1.57-.83-.123-1.366-1.044-1.76-1.775-.398-.736-.516-2.448-.516-2.448"/><path d="M12.84 276.746s.69-1.16 1.167-1.603c.448-.418 1.002-.693 1.544-.951 1.078-.514 2.21-.886 3.362-1.176 3.558-.895 7.204-1.77 10.874-1.716 2.64.04 5.627-.05 7.782 1.467 1.872 1.318 3.06 3.67 3.459 5.917.688 3.879-.8 7.91-2.094 11.632-1.094 3.143-2.758 6.111-4.715 8.809-1.69 2.332-3.74 4.43-5.98 6.249-1.696 1.377-3.536 2.655-5.57 3.463-1.16.461-2.48 1.112-3.675.746-.969-.297-2.06-1.161-2.121-2.167-.128-2.137 2.448-3.541 3.922-5.1.848-.896 1.83-1.662 2.805-2.419 1.059-.82 2.302-2.176 3.302-2.29.654-2.21-.799-1.688-.89-6.067-.085-4.1 1.552-6.788 3.391-8.973"/></g><path d="M82.741 393.367c1.567-4.108 4.199-7.959 4.7-12.324.661-5.752-.187-11.835-2.35-17.21-1.534-3.815-4.334-7.09-7.263-9.987-2.607-2.577-5.64-4.834-8.973-6.374-3.399-1.57-7.263-1.842-10.895-2.762" stroke="#55A" stroke-width="2.5" stroke-linecap="round" stroke-linejoin="round"/><path d="M163.28 391.242c29.527-8.635 51.462-20.009 74.3-35.557 3.973-2.705 7.94-5.427 11.768-8.333 18.002-13.668 35.344-27.144 52.602-42.772" stroke="#55A" stroke-width="2" stroke-linecap="round" stroke-linejoin="round"/><path fill="#000" d="M124.875 480.114L54.041 339.02l-18.18 8.416 76.79 132.68z"/><path d="M271.39 166.283l-3.902 4.94-5.676-2.823 4.257-5.292-5.676-3.881-9.223 13.054 10.997 6.703-5.676 10.938-5.676-1.764 2.484-5.293-6.386-2.47-4.611 15.172 12.416 3.528-3.548 16.23h-6.385l1.774-9.88-6.03-1.058-2.13 17.641h10.998v16.23h-6.031l.355-8.468-6.74.706-1.064 15.524 11.351 1.764-1.064 16.23-7.095-1.059.71-7.762-6.386-1.058-3.902 15.17 12.416 5.293-8.159 15.171-5.676-2.822 3.193-7.057-6.03-1.764-6.74 10.232 9.223 8.82-10.997 12.35-5.676-4.587 5.676-4.587-4.612-5.645-11.351 10.232 8.159 11.643-5.04 2.366m-7.513-4.123l2.21-.878-3.535-5.274-6.186 3.37" stroke="#5456AA" stroke-width="2" stroke-linecap="round" stroke-linejoin="round"/><path d="M182.706 309.174c6.977-4.586 14.517-8.42 20.93-13.76 5.259-4.378 10.307-9.195 14.189-14.818 2.814-4.077 4.7-8.755 6.385-13.407 2.44-6.736 4.266-13.734 5.321-20.816.764-5.124.25-10.365.71-15.524.558-6.263 1.667-12.465 2.483-18.7.6-4.585.885-9.22 1.774-13.76.888-4.536 2.042-9.035 3.547-13.407 1.956-5.683 4.294-11.26 7.095-16.582 1.749-3.325 3.626-6.634 6.03-9.526 1.546-1.86 3.548-3.293 5.321-4.94" stroke="#5456AA" stroke-width="2" stroke-linecap="round" stroke-linejoin="round"/><path fill="#FFFF57" d="M268.198 310.233l.354 6.35-6.385-.352-3.547 5.998-4.612-6.351h-6.385l.71-6.35-5.322-3.176 6.03-4.587-.354-5.645 4.966.706 4.257-6.351 4.966 7.41 4.612-1.765v5.998l6.74 3.881z"/><path stroke="#000" stroke-width="2" fill="#F55" stroke-linecap="round" stroke-linejoin="round" d="M263.732 306.681l-5.424 5.066-5.136-5.509 5.197-4.886z"/><path d="M171.874 307.204s8.111-1.708 11.896-3.322c4.679-1.995 8.961-4.85 13.126-7.762 2.13-1.49 4.166-3.131 6.03-4.94 1.68-1.63 4.612-5.292 4.612-5.292s-2.883-3.139-4.26-4.763c-1.708-2.014-3.487-3.986-4.963-6.174-1.113-1.649-2.913-5.206-2.913-5.206s-6.634 1.669-10.005 1.532c-3.35-.136-6.567-1.386-9.786-2.324-5.167-1.506-15.253-5.292-15.253-5.292l11.516 43.543zM222.795 255.924s-3.441-4.134-4.227-6.632c-.704-2.237-.899-4.76-.295-7.026.504-1.89 1.847-3.49 3.133-4.97 1.107-1.273 3.868-3.272 3.868-3.272s-.797 6.866-1.193 10.4c-.429 3.834-.046 7.667-1.286 11.5z" fill="#F55"/><path d="M218.18 265.778s-1.201 4.035-2.483 5.645c-1.102 1.383-2.501 2.925-4.257 3.175-1 .143-2.263-.232-2.838-1.058-.472-.677-.228-1.679 0-2.47.307-1.067 1.019-2.005 1.774-2.823.8-.866 1.862-1.451 2.837-2.117.92-.627 2.838-1.764 2.838-1.764l2.129 1.412z" fill="#FFF"/><path d="M222.467 255.615l-1.804 6.634s-2.562-3.412-3.547-5.292c-1.35-2.576-2.687-5.254-3.193-8.115-.518-2.93-.46-6.025.222-8.922.478-2.03 1.512-3.922 2.652-5.671 1.132-1.736 2.45-3.417 4.092-4.686 1.53-1.183 5.197-2.595 5.197-2.595l-1.166 7.056s-3.78 3.187-4.967 5.292c-1.08 1.917-1.692 4.155-1.773 6.351-.067 1.798.36 3.635 1.064 5.292.738 1.736 3.223 4.656 3.223 4.656z" fill="#FF5"/><path d="M193.457 265.576s-6.73.686-10.041.202c-3.811-.557-7.352-2.292-10.997-3.529-2.974-1.009-6.002-1.897-8.869-3.175-4.297-1.916-8.383-4.285-12.415-6.703-2.921-1.752-5.626-3.841-8.514-5.646-2.559-1.598-5.124-3.198-7.804-4.586-2.535-1.313-5.045-2.789-7.804-3.528-2.295-.615-4.721-.588-7.095-.706-2.174-.108-6.53 0-6.53 0l-.266-9.35 4.313 4.41 1.064-3.88 7.804 6.35 1.42-3.528 8.158 8.115 2.128-3.881 7.805 9.879 2.997-3.608 6.935 7.842 2.129-3.176 8.159 8.468 1.419-3.175 9.932 7.056.71-3.175 9.223 5.292-.355-2.823 5.133 1.49 1.36 5.365z" stroke="#000" fill="#000" stroke-linecap="round" stroke-linejoin="round"/><path fill="#F55" d="M96.627 315.878l-5.187-.658.282 6.492 4.55-2.13z"/><path d="M240.173 320.817c.135 2.313 3.934 4.307 2.838 6.351-1.438 2.685-7.31 4.084-9.04 1.575-.813-1.178 2.091-2.25 2.222-3.674.115-1.258-1.34-3.546-1.34-3.546H222.79l1.065-3.881h11.351s1.454-1.373 1.505-2.28c.073-1.294-2.671-2.54-1.763-3.468 1.797-1.84 5.961.93 6.998 3.278.797 1.805-1.888 3.677-1.774 5.645zM292.674 304.94s-5.519-.226-7.094-2.116c-1.442-1.73-.71-6.704-.71-6.704s-2.715 2.49-4.257 2.117c-1.562-.379-2.875-2.282-2.838-3.881.035-1.506 1.45-2.928 2.838-3.528 1.414-.61 4.612.353 4.612.353s-2.106-5.8-4.652-6.962c-2.37-1.082-5.4-.132-7.764.964-2.047.95-2.766 4.077-4.966 4.586-1.203.278-3.044.063-3.548-1.058-.905-2.018 2.596-3.802 2.838-5.998.235-2.13.128-4.78-1.419-6.27-.95-.917-2.586-.9-3.902-.746-.857.1-2.359 1.058-2.359 1.058s1.677 3.865.586 5.252c-1.103 1.402-3.804 1.649-5.321.706-1.586-.985-2.204-3.483-1.774-5.292.301-1.27 2.783-2.768 2.783-2.768l-1.364-7.464s3.294 2.732 5.266 3.46c1.965.724 4.26.096 6.235.788 1.909.669 3.9 1.596 5.171 3.161 1.34 1.65 2.129 5.998 2.129 5.998s4.659-2.519 7.095-2.117c3.01.497 5.531 2.931 7.449 5.292 1.317 1.622 2.197 3.677 2.498 5.74.302 2.08-.65 4.159-.765 6.256-.064 1.175-.265 2.392.04 3.528.563 2.086 3.193 5.646 3.193 5.646zM295.867 231.201s-3.97.461-5.321-.705c-1.72-1.485-1.85-6.543-1.85-6.543s-1.35 3.529-2.923 3.734c-1.41.183-3.324-1.151-3.4-2.564-.096-1.793 3.943-3.693 3.943-3.693s-2.313-3.403-5.6.88c-.914 1.192-1.41 2.683-1.768 4.14-.379 1.542-.369 4.747-.369 4.747l-4.62-.085s1.119-3.68.978-5.556c-.11-1.483-.346-3.196-1.418-4.233-.937-.906-3.75-1.13-3.75-1.13s.473 1.507.202 2.188c-.523 1.317-1.769 2.796-3.192 2.823-1.269.023-2.623-1.185-2.937-2.408-.258-1.004.472-2.11 1.163-2.885.27-.303 1.073-.584 1.073-.584s-2.657-1.698-3.556-2.944c-.966-1.34-1.788-4.614-1.788-4.614s4.259 3.046 6.754 3.556c1.42.29 2.921-.678 4.333-.353a8.199 8.199 0 0 1 4.18 2.47c.774.865 1.42 3.175 1.42 3.175s2.495-3.19 4.261-4.042c1.505-.725 3.33-1.045 4.966-.7 1.634.343 3.155 1.384 4.248 2.639.76.871 1.026 2.076 1.405 3.166.32.916.546 1.865.728 2.818.178.931.032 1.93.355 2.822.522 1.443 2.483 3.881 2.483 3.881z" stroke="#FF5" stroke-width="2" fill="#000" stroke-linecap="round" stroke-linejoin="round"/><path d="M246.559 347.632c-5.085-4.117-9.91-8.573-15.254-12.35-6.887-4.864-14.192-9.14-21.578-13.217a187.397 187.397 0 0 0-14.64-7.238c-3.993-1.77-8.046-3.421-12.19-4.8-3.552-1.183-7.222-1.98-10.833-2.97M159.985 318.038l-14.526-8.864M159.475 311.465l-13.044-7.983M158.722 302.734l-12.29-6.237M156.966 295.25l-11.789-6.487M155.461 288.513l-10.284-6.486M153.956 280.53l-9.531-5.988M152.702 273.045l-7.776-3.991M151.699 265.561l-7.274-4.49M118.96 313.13l12.77-8.115M119.722 306.308l11.036-6.985M120.725 297.826l10.033-5.489M120.223 290.591l11.288-5.988M120.725 283.855l10.786-5.738M121.227 276.87l11.538-6.487M122.48 270.134l9.783-5.24M123.484 262.65l9.281-5.739M143.923 254.085l6.821 4.856M125.11 253.835l6.773-3.243M131.381 247.805l-5.549-2.142" stroke="#5456AA" stroke-width="2" stroke-linecap="round" stroke-linejoin="round"/><g stroke="#5456AA" stroke-linecap="round" stroke-linejoin="round" stroke-width="2"><path d="M28.538 376.33c.836 2.162 3.29 4.305 2.509 6.487-.905 2.526-4.334 4.174-7.024 3.991-2.736-.186-5.426-2.488-6.522-4.99-1.073-2.45-.13-4.62.753-7.983-3.02 1.843-4.275 2.291-6.27 1.497-3.145-1.25-5.736-5.121-5.52-8.482.183-2.827 2.748-5.836 5.52-6.486 2.478-.582 4.681 1.995 7.022 2.993-.501-2.993-2.64-6.164-1.505-8.981.933-2.316 3.512-4.506 6.02-4.49 2.743.016 5.518 2.45 6.522 4.989 1.118 2.824-1.003 5.988-1.505 8.981 1.84-1.33 3.254-4.205 5.519-3.991 3.65.344 7.281 4.343 7.525 7.983.19 2.855-2.592 5.446-5.017 6.985-2.295 1.457-5.351.998-8.027 1.497z" fill="#FF5"/><path fill="#55A" d="M34.558 375.332l3.512 8.483-6.02-1.497-3.01-5.489zM19.006 376.33l-2.508 5.489-6.522.998 2.509-6.487zM17.501 361.361L17 355.374l-5.017-.499 1.003 5.489zM33.555 361.361l2.007-6.985-4.515 1.497-2.509 8.482z"/><path fill="#FF5" d="M26.03 349.885l-1.505-40.415-3.512 1.995 1.505 38.17zM19.508 318.95c-.334 5.502-1.022 11.173-3.26 16.216-2.223 5.006-6.272 9.397-9.783 13.222-.168-5.488-.255-11.558.752-17.214.627-3.522 1.393-7.172 3.261-10.228 2.088-3.417 5.686-5.655 8.528-8.483.168 2.163.634 4.322.502 6.487z"/><path d="M10.478 338.908c.836-3.825 1.329-7.741 2.508-11.476 1.304-4.125 5.017-11.975 5.017-11.975"/><path d="M43.588 337.91c-4.85-3.825-11.213-6.29-14.548-11.476-3.06-4.757-2.676-10.977-4.013-16.465 3.846 3.825 8.034 7.338 11.538 11.476 2.242 2.647 4.763 5.255 6.02 8.482.974 2.5.669 5.322 1.003 7.983z" fill="#FF5"/><path d="M38.572 328.929c-2.509-2.328-5.396-4.31-7.525-6.985-2.51-3.155-4.014-6.986-6.02-10.479"/><path fill="#F55" d="M34.057 368.846L23.02 379.324l-9.281-10.728 9.783-9.979z"/><path fill="#FF5" d="M28.037 368.846l-4.515 4.49-4.516-4.49 4.014-4.74z"/></g><path fill="#FFFF57" d="M290.457 256.968l.355 6.35-6.385-.352-3.548 5.998-4.611-6.35h-6.385l.71-6.352-5.322-3.175 6.03-4.587-.354-5.645 4.966.706 4.257-6.35 4.966 7.408 4.612-1.764v5.998l6.74 3.881z"/><path stroke="#000" stroke-width="2" fill="#F55" stroke-linecap="round" stroke-linejoin="round" d="M285.991 253.416l-5.423 5.067-5.137-5.51 5.198-4.886z"/><path d="M214.561 260.88s-2.247 3.566-3.917 4.774c-1.434 1.038-3.2 2.149-4.958 1.92-1.002-.13-2.116-.828-2.447-1.777-.272-.778.233-1.678.667-2.38.584-.944 1.523-1.659 2.47-2.244 1.005-.62 2.187-.9 3.306-1.28 1.056-.359 3.21-.941 3.21-.941l1.67 1.928zM211.711 255.797s-3.154 2.804-5.096 3.503c-1.668.6-3.674 1.18-5.3.475-.926-.402-1.801-1.381-1.854-2.385-.043-.822.693-1.547 1.306-2.1.825-.747 1.927-1.173 3-1.474 1.139-.318 2.353-.26 3.534-.316 1.114-.052 3.346-.016 3.346-.016l1.064 2.313zM209.048 250.017s-3.951 1.505-6.016 1.472c-1.774-.029-3.856-.196-5.123-1.43-.722-.703-1.19-1.928-.881-2.884.253-.784 1.2-1.201 1.971-1.502 1.038-.406 2.22-.415 3.331-.316 1.178.104 2.292.587 3.416.953 1.06.345 3.134 1.168 3.134 1.168l.168 2.539zM209.099 244.22s-4.2.505-6.195-.026c-1.714-.457-3.693-1.122-4.62-2.626-.529-.856-.684-2.157-.15-3.01.437-.7 1.458-.875 2.279-.98 1.106-.144 2.255.133 3.309.498 1.117.386 2.079 1.124 3.08 1.75.944.591 2.754 1.89 2.754 1.89l-.457 2.504zM225.294 224.53s.617-4.164.134-6.16c-.414-1.716-1.032-3.7-2.52-4.662-.846-.548-2.15-.736-3.021-.227-.714.417-.917 1.427-1.045 2.24-.172 1.097.077 2.246.416 3.303.36 1.12 1.076 2.097 1.68 3.108.569.954 1.828 2.788 1.828 2.788l2.528-.39zM220.316 227.307s-.531-4.175-1.536-5.97c-.862-1.541-1.994-3.288-3.686-3.817-.964-.3-2.27-.133-2.972.59-.575.592-.498 1.62-.4 2.437.13 1.102.68 2.143 1.292 3.07.649.983 1.603 1.732 2.457 2.545.807.766 2.515 2.196 2.515 2.196l2.33-1.051zM215.855 230.879s-1.677-3.864-3.143-5.31c-1.26-1.242-2.834-2.607-4.607-2.648-1.01-.022-2.219.5-2.69 1.388-.388.728-.026 1.694.295 2.452.434 1.023 1.253 1.87 2.1 2.592.898.765 2.024 1.22 3.072 1.765.989.514 3.03 1.415 3.03 1.415l1.943-1.654zM211.48 235.494s-2.947-3.019-4.834-3.852c-1.621-.716-3.581-1.435-5.253-.846-.952.336-1.895 1.251-2.02 2.248-.1.817.583 1.592 1.154 2.188.77.802 1.84 1.305 2.89 1.68 1.112.397 2.327.425 3.501.563 1.108.131 3.337.252 3.337.252l1.226-2.233z" fill="#FFF"/><g><path stroke="#000" stroke-width="2" fill="#FF5" stroke-linecap="round" stroke-linejoin="round" d="M145.104 315.878l-2.128-62.449-10.288-5.292-.709 67.035z"/><path d="M140.138 310.586H137.3l-.355-3.176 2.985-.146.208 3.322zM139.75 303.646h-2.838l-.355-3.175 2.985-.147.208 3.322zM140 296.66h-2.837l-.355-3.175 2.985-.146.208 3.321zM140.252 290.423h-2.838l-.355-3.175 2.985-.146.208 3.321zM140.252 283.189h-2.838l-.355-3.176 2.985-.146.208 3.322zM140.502 277.201h-2.837l-.355-3.175 2.985-.146.207 3.321zM139.75 270.715h-2.838l-.355-3.176 2.985-.146.208 3.322zM139.75 264.727h-2.838l-.355-3.175 2.985-.147.208 3.322zM139.75 258.24h-2.838l-.355-3.175 2.985-.146.208 3.322z" fill="#000"/></g></g><path d="M2 177.593l-.748 102.159M302 304.067V202.824" stroke="#000" stroke-width="2" stroke-linecap="round"/></g></svg>