<svg width="301" height="482" viewBox="0 0 301 482" fill="none" xmlns="http://www.w3.org/2000/svg">
<g clip-path="url(#clip0_1_1913)">
<path fill-rule="evenodd" clip-rule="evenodd" d="M72.937 249.01L86.167 233.263L228.461 233.071L215.2 249.14L72.937 249.01Z" fill="black"/>
<path fill-rule="evenodd" clip-rule="evenodd" d="M257.395 129.096L235.468 204.439L235.718 212.922L233.226 221.155L228.741 225.895L224.256 227.392L231.98 228.389L247.678 207.433L301 243.203L299.754 162.277L257.395 129.096ZM1 164.523V241.861L3.367 240.614L19.189 212.423L8.475 199.949L18.691 191.716L4.364 167.142L1 164.523Z" fill="#808080"/>
<path fill-rule="evenodd" clip-rule="evenodd" d="M104.53 158.91L70.27 189.22L62.171 185.977L54.945 185.477L46.225 188.347L44.854 184.854L41.739 183.607L38.002 185.353L30.9 178.742L84.97 140.197L93.816 148.43L104.53 158.91Z" fill="#404040" stroke="#404040" stroke-width="2" stroke-linecap="round" stroke-linejoin="round"/>
<path fill-rule="evenodd" clip-rule="evenodd" d="M186.022 227.592L220.142 227.134L213.744 220.576L211.612 211.436L110.472 119.92L91.127 136.544L106.511 148.897L117.631 161.555L123.723 171.773L124.942 185.194L140.479 184.889L186.022 227.592Z" fill="#808080"/>
<path d="M261.133 132.09L299.754 162.277" stroke="#404040" stroke-width="2" stroke-linecap="round" stroke-linejoin="round"/>
<path fill-rule="evenodd" clip-rule="evenodd" d="M101.664 1.861C104.977 10.7288 107.317 19.9305 108.641 29.304C109.644 36.405 110.059 43.601 109.638 50.76C109.135 59.2661 107.458 67.6617 104.654 75.708C112.48 76.9125 120.162 78.9187 127.578 81.695L172.927 1.861H101.664Z" fill="#BFBFBF" stroke="#404040" stroke-width="2" stroke-linecap="round" stroke-linejoin="round"/>
<path fill-rule="evenodd" clip-rule="evenodd" d="M128.076 81.695L136.05 87.683L185.385 1.86H172.927L128.077 81.694" fill="#808080"/>
<path d="M128.076 81.695L136.05 87.683L185.385 1.86H172.927L128.077 81.694" stroke="#404040" stroke-width="2" stroke-linecap="round" stroke-linejoin="round"/>
<path d="M160.22 1.861C160.22 1.861 164.204 7.765 160.967 12.839C159.156 15.677 151.498 16.331 151.498 16.331C151.498 16.331 154.567 25.535 151.997 28.805C149.377 32.138 139.538 31.3 139.538 31.3C139.538 31.3 144.668 42.263 142.03 46.768C138.203 53.301 131.394 51.094 131.394 51.094C131.394 51.094 135.454 58.957 130.07 65.229C127.275 68.485 117.362 67.225 117.362 67.225C120.962 71.497 120.802 72.701 121.349 74.959C121.897 77.217 121.757 77.951 121.757 77.951" stroke="black" stroke-width="2" stroke-linecap="round" stroke-linejoin="round"/>
<path fill-rule="evenodd" clip-rule="evenodd" d="M130.463 54.91C130.127 56.066 129.724 57.231 129.073 58.244C128.214 59.58 127.275 61.071 125.833 61.737C124.023 62.573 121.511 63.097 119.853 61.987C118.238 60.903 117.539 58.417 117.86 56.497C118.231 54.282 122.096 51.259 122.096 51.259C122.096 51.259 116.733 50.159 115.618 48.015C114.571 46.002 115.209 43.06 116.615 41.279C118.001 39.522 120.705 38.13 122.844 38.785C125.245 39.519 127.08 45.022 127.08 45.022C127.08 45.022 127.627 40.732 128.824 39.034C129.887 37.525 131.474 35.982 133.309 35.791C134.936 35.621 136.903 36.413 137.794 37.787C139.197 39.948 138.964 43.224 137.794 45.52C136.621 47.822 131.525 50.07 131.525 50.07C131.525 50.07 132.658 46.888 130.017 45.468C127.907 44.333 124.486 46.435 123.572 48.652C122.797 50.529 123.593 53.844 125.539 54.417C129.42 55.56 131 51.79 131 51.79C131 51.79 130.758 53.896 130.463 54.91ZM149.895 20.105C149.559 21.262 149.156 22.427 148.505 23.44C147.646 24.776 146.707 26.267 145.265 26.932C143.454 27.769 140.943 28.294 139.285 27.182C137.67 26.099 136.971 23.613 137.292 21.693C137.662 19.477 141.528 16.454 141.528 16.454C141.528 16.454 136.165 15.355 135.05 13.211C134.003 11.198 134.641 8.256 136.046 6.475C137.433 4.718 140.137 3.326 142.276 3.98C144.677 4.715 146.512 10.217 146.512 10.217C146.512 10.217 147.059 5.928 148.256 4.23C150.48 1.177 155.113 1.662 157.226 2.982C158.629 5.144 158.396 8.42 157.226 10.716C156.053 13.018 150.957 15.266 150.957 15.266C150.957 15.266 152.09 12.084 149.449 10.664C147.339 9.529 143.918 11.631 143.003 13.848C142.229 15.725 143.025 19.04 144.971 19.612C148.853 20.755 150.433 16.986 150.433 16.986C150.433 16.986 150.189 19.092 149.895 20.105Z" fill="black" stroke="black" stroke-width="2" stroke-linecap="round" stroke-linejoin="round"/>
<path d="M156.329 87.334C156.852 91.906 157.969 96.985 159.157 100.227M160.538 81.152C161.328 89.255 163.625 95.877 165.233 101.753M165.029 73.565C166.421 83.247 168.042 94.005 171.385 103.037M172.804 84.975C173.388 92.213 175.845 98.675 177.02 104.139M179.061 92.364C180.094 99.036 181.517 101.735 182.298 104.944M185.682 98.414C186.43 101.076 187.3 103.152 188.048 105.158M220.767 1.861C220.767 1.861 221.744 14.713 228.492 21.571C235.24 28.428 243.691 31.799 243.691 31.799" stroke="#404040" stroke-width="2" stroke-linecap="round" stroke-linejoin="round"/>
<path d="M224.879 1.861C224.879 1.861 226.144 12.608 231.501 18.608C236.858 24.608 243.566 26.809 243.566 26.809" stroke="#404040" stroke-width="2" stroke-linecap="round" stroke-linejoin="round"/>
<path d="M228.367 1.861C228.367 1.861 229.922 9.681 233.887 14.252C237.853 18.824 243.816 21.82 243.816 21.82M232.852 1.861C232.852 1.861 233.906 7.254 237.106 10.797C240.306 14.34 243.816 16.082 243.816 16.082M237.213 1.861C237.213 1.861 237.831 5.931 239.709 8.103C241.588 10.274 243.94 11.342 243.94 11.342" stroke="#404040" stroke-width="2" stroke-linecap="round" stroke-linejoin="round"/>
<path d="M220.02 3.109C220.02 3.109 219.542 12.967 211.548 21.819C203.554 30.673 189.621 29.803 189.621 29.803" stroke="#404040" stroke-width="2" stroke-linecap="round" stroke-linejoin="round"/>
<path d="M216.656 2.61C216.656 2.61 215.391 11.11 208.29 18.608C201.189 26.105 192.487 25.063 192.487 25.063" stroke="#404040" stroke-width="2" stroke-linecap="round" stroke-linejoin="round"/>
<path d="M211.922 2.61C211.922 2.61 210.367 10.43 206.402 15C202.436 19.572 194.729 20.073 194.729 20.073" stroke="#404040" stroke-width="2" stroke-linecap="round" stroke-linejoin="round"/>
<path d="M207.437 2.61C207.437 2.61 206.383 8.003 203.183 11.545C199.983 15.088 197.968 14.585 197.968 14.585" stroke="#404040" stroke-width="2" stroke-linecap="round" stroke-linejoin="round"/>
<path fill-rule="evenodd" clip-rule="evenodd" d="M244.734 38.72C244.734 38.72 250.858 57.504 253.153 67.102C255.811 78.215 258.086 89.462 259.327 100.822C260.437 110.978 260.45 131.451 260.45 131.451L228.456 104.756C228.456 104.756 237.322 92.6 239.962 85.648C241.958 80.394 242.285 74.638 243.05 69.068C243.766 63.852 244.168 58.591 244.453 53.333C244.716 48.468 244.733 38.721 244.733 38.721L244.734 38.72Z" fill="#404040" stroke="#404040" stroke-width="2" stroke-linecap="round" stroke-linejoin="round"/>
<path d="M223.685 47.994C223.685 47.994 223.462 53.062 223.685 55.581C223.92 58.235 224.471 60.857 225.088 63.449C225.768 66.303 227.476 68.949 227.614 71.879C227.692 73.549 227.616 75.446 226.632 76.796C225.78 77.965 223.894 77.912 222.842 78.904C221.955 79.741 220.878 81.994 220.878 81.994" stroke="#404040" stroke-width="2" stroke-linecap="round" stroke-linejoin="round"/>
<path fill-rule="evenodd" clip-rule="evenodd" d="M208.53 71.036C208.53 71.036 205.077 75.089 205.583 77.358C205.901 78.786 207.523 79.858 208.951 80.168C210.514 80.509 212.107 79.526 213.581 78.904C215.281 78.186 216.569 75.619 218.352 76.094C219.082 76.288 219.791 77.375 219.475 78.061C218.638 79.88 215.572 78.997 213.581 79.185C211.16 79.414 208.131 80.771 206.284 79.185C205.351 78.383 205.475 76.739 205.724 75.532C206.079 73.801 208.53 71.036 208.53 71.036Z" fill="#404040" stroke="#404040" stroke-width="2" stroke-linecap="round" stroke-linejoin="round"/>
<path fill-rule="evenodd" clip-rule="evenodd" d="M187.762 39.002C187.762 39.002 194.011 35.836 197.516 35.23C200.875 34.65 204.54 34.554 207.798 35.452C210.138 36.097 213.862 39.002 213.862 39.002C213.862 39.002 208.66 37.072 205.936 36.665C202.551 36.159 199.057 36.068 195.671 36.561C192.941 36.959 187.761 39.001 187.761 39.001L187.762 39.002Z" fill="#404040" stroke="#404040" stroke-width="2" stroke-linecap="round" stroke-linejoin="round"/>
<path d="M208.249 46.027L211.055 43.779C211.055 43.779 206.621 42.229 204.32 41.812C201.828 41.361 199.223 40.737 196.742 41.25C194.366 41.74 192.273 43.225 190.287 44.622C187.687 46.451 183.271 51.085 183.271 51.085" stroke="#404040" stroke-width="2" stroke-linecap="round" stroke-linejoin="round"/>
<path d="M186.358 51.085C186.358 51.085 193.118 47.771 196.742 46.87C198.978 46.314 201.316 46.246 203.618 46.167C205.021 46.119 207.828 46.307 207.828 46.307L210.775 51.366L206.004 53.614L210.383 52.883C208.87 57.339 203.683 60.195 200.953 62.043" stroke="#404040" stroke-width="2" stroke-linecap="round" stroke-linejoin="round"/>
<path fill-rule="evenodd" clip-rule="evenodd" d="M204.881 47.291C204.881 47.291 206.897 50.685 204.881 53.614C203.712 55.312 200.547 54.823 198.707 53.894C195.513 52.284 192.246 51.002 190.287 49.82L196.181 48.415C195.128 50.142 196.416 51.938 197.584 53.052C198.981 54.383 201.413 55.189 203.197 54.457C205.024 53.708 206.464 50.672 206.284 49.399C206.167 48.563 204.881 47.291 204.881 47.291Z" stroke="#404040" stroke-width="2" stroke-linecap="round" stroke-linejoin="round"/>
<path fill-rule="evenodd" clip-rule="evenodd" d="M201.513 48.837C200.698 48.555 199.424 49.668 199.549 50.523C199.682 51.436 201.355 52.223 202.075 51.647C202.82 51.05 202.415 49.149 201.513 48.837Z" stroke="#404040" stroke-width="2" stroke-linecap="round" stroke-linejoin="round"/>
<path fill-rule="evenodd" clip-rule="evenodd" d="M242.243 37.236C242.243 37.236 236.468 35.176 233.668 35.902C230.274 36.784 225.368 42.374 225.368 42.374C225.368 42.374 230.655 37.744 233.948 37.207C236.826 36.737 242.488 39.102 242.488 39.102L242.243 37.236Z" fill="#404040" stroke="#404040" stroke-width="2" stroke-linecap="round" stroke-linejoin="round"/>
<path d="M223.544 47.01C223.544 47.01 227.538 42.956 230.14 42.093C232.981 41.15 236.334 40.997 239.12 42.093C240.784 42.747 243.05 45.746 243.05 45.746M225.088 48.837C225.088 48.837 230.036 46.751 232.666 46.589C234.937 46.449 237.209 47.099 239.401 47.713C240.857 48.121 243.611 49.399 243.611 49.399C243.611 49.399 240.996 51.941 239.401 52.771C237.326 53.851 235.004 54.782 232.666 54.738C231.482 54.715 229.298 53.614 229.298 53.614L225.649 52.18C226.632 54.237 228.366 57.953 229.719 59.093" stroke="#404040" stroke-width="2" stroke-linecap="round" stroke-linejoin="round"/>
<path d="M229.017 48.275C227.539 51.347 229.116 51.361 229.297 52.771L230.42 53.895M233.788 49.118C233.132 49.605 232.72 50.865 233.227 51.506C233.807 52.241 235.372 52.169 236.033 51.506C236.563 50.976 236.546 49.804 236.033 49.258C235.52 48.711 234.39 48.67 233.788 49.118Z" stroke="#404040" stroke-width="2" stroke-linecap="round" stroke-linejoin="round"/>
<path fill-rule="evenodd" clip-rule="evenodd" d="M205.723 92.246C205.723 92.246 210.511 90.242 213.16 90.261C215.175 90.275 216.76 91.807 218.773 91.849C221.583 91.908 224.103 89.339 226.772 89.963C227.856 90.216 228.736 91.949 228.736 91.949C228.736 91.949 226.841 91.139 225.79 91.154C223.297 91.19 221.4 93.098 218.914 93.239C216.414 93.381 214.114 92.102 211.617 91.949C209.655 91.828 205.723 92.246 205.723 92.246Z" fill="#404040" stroke="#404040" stroke-width="2" stroke-linecap="round" stroke-linejoin="round"/>
<path d="M212.74 99.417C212.74 99.417 215.824 97.765 217.51 97.731C219.419 97.691 222.983 99.417 222.983 99.417M212.038 95.623C212.038 95.623 216.102 96.985 218.212 97.028C220.019 97.066 223.544 96.045 223.544 96.045" stroke="#404040" stroke-width="2" stroke-linecap="round" stroke-linejoin="round"/>
<path d="M244.439 2.61C244.439 2.61 244.361 26.234 243.94 38.036C243.474 51.106 244.416 64.413 241.698 77.204C240.478 82.945 237.992 88.373 235.468 93.67C233.481 97.841 231.95 102.585 228.492 105.645C225.648 108.162 221.788 109.627 218.027 110.135C213.789 110.709 209.407 109.642 205.319 108.389C199.565 106.627 194.122 103.759 189.123 100.406C184.43 97.258 180.086 93.479 176.415 89.18C173.601 85.883 171.186 82.17 169.439 78.202C168.154 75.286 166.947 68.972 166.947 68.972" stroke="#404040" stroke-width="2" stroke-linecap="round" stroke-linejoin="round"/>
<path fill-rule="evenodd" clip-rule="evenodd" d="M272.096 62.984L281.814 46.768L290.534 62.984L281.066 78.701L272.096 62.984Z" fill="#BFBFBF" stroke="black" stroke-width="2" stroke-linecap="round" stroke-linejoin="round"/>
<path fill-rule="evenodd" clip-rule="evenodd" d="M277.329 62.485L281.316 55.5L285.053 62.236L281.316 69.72L277.329 62.485Z" fill="#808080" stroke="black" stroke-width="2" stroke-linecap="round" stroke-linejoin="round"/>
<path fill-rule="evenodd" clip-rule="evenodd" d="M280.319 81.57C280.319 84.67 277.92 87.184 274.962 87.184C272.003 87.184 269.605 84.671 269.605 81.57C269.605 78.47 272.003 75.957 274.962 75.957C277.92 75.957 280.319 78.47 280.319 81.57ZM291.78 81.071C291.78 84.309 289.326 86.934 286.299 86.934C283.272 86.934 280.817 84.309 280.817 81.071C280.817 77.833 283.272 75.209 286.299 75.209C289.326 75.209 291.781 77.833 291.781 81.071H291.78ZM289.787 164.772C289.787 169.319 285.771 173.005 280.817 173.005C275.863 173.005 271.847 169.319 271.847 164.772C271.847 160.225 275.863 156.539 280.817 156.539C285.771 156.539 289.787 160.225 289.787 164.772Z" fill="#BFBFBF" stroke="black" stroke-width="2" stroke-linecap="round" stroke-linejoin="round"/>
<path fill-rule="evenodd" clip-rule="evenodd" d="M280.568 156.54C276.733 155.527 273.308 152.134 271.838 148.446C270.121 144.136 272.244 139.169 272.734 134.556C273.828 124.25 275.822 114.061 277.29 103.803C278.25 97.103 279.347 87.343 280.07 83.691C281.957 83.163 282.193 84.515 282.137 86.2C284.034 101.214 286.22 116.194 287.818 131.243C288.336 136.12 289.875 141.061 289.085 145.901C288.521 149.351 287.585 153.275 284.905 155.516C283.765 156.469 282.005 156.919 280.568 156.54Z" fill="#BFBFBF" stroke="black" stroke-width="2" stroke-linecap="round" stroke-linejoin="round"/>
<path d="M281.316 103.4C281.316 103.4 282.856 120.045 283.807 128.348C284.323 132.847 285.51 137.292 285.551 141.82C285.572 144.079 285.781 146.52 284.804 148.556C284.092 150.04 281.316 152.049 281.316 152.049M282.312 160.281C283.779 161.811 285.364 163.858 285.119 165.954C284.955 167.362 283.709 168.673 282.406 169.227C281.533 169.597 280.512 169.113 279.571 169.013" stroke="black" stroke-width="2" stroke-linecap="round" stroke-linejoin="round"/>
<path fill-rule="evenodd" clip-rule="evenodd" d="M276.332 227.142C276.332 227.142 274.234 209.37 273.592 200.448C273.161 194.471 271.92 188.406 272.844 182.485C273.254 179.86 273.62 176.787 275.584 175.001C277.046 173.671 279.341 173.493 281.316 173.504C283.21 173.514 285.452 173.666 286.797 175.001C289.187 177.373 289.222 181.376 289.538 184.731C290.078 190.465 288.719 196.225 288.043 201.945C287.253 208.625 285.979 215.24 285.053 221.903C284.603 225.142 283.807 231.633 283.807 231.633L276.332 227.143V227.142Z" fill="#BFBFBF" stroke="black" stroke-width="2" stroke-linecap="round" stroke-linejoin="round"/>
<path d="M281.316 177.994C281.316 177.994 284.379 180.107 285.053 181.737C286.166 184.426 285.16 187.56 285.053 190.468C284.845 196.135 284.366 201.791 283.807 207.433C283.08 214.773 281.067 229.387 281.067 229.387" stroke="black" stroke-width="2" stroke-linecap="round" stroke-linejoin="round"/>
<path fill-rule="evenodd" clip-rule="evenodd" d="M150.252 98.16L141.282 113.878L219.272 186.477L235.967 123.607L245.343 120.769L227.899 105.456C227.899 105.456 222.739 108.956 219.771 109.636C216.37 110.418 212.762 109.865 209.306 109.387C205.654 108.883 198.591 106.643 198.591 106.643C198.591 106.643 184.751 105.926 177.911 104.897C172.111 104.024 166.406 102.586 160.718 101.155C157.199 100.269 150.252 98.16 150.252 98.16Z" fill="#BFBFBF" stroke="black" stroke-width="2" stroke-linecap="round" stroke-linejoin="round"/>
<path d="M147.76 103.15C147.76 103.15 160.629 107.16 167.196 108.639C172.538 109.842 177.959 110.704 183.392 111.383C189.511 112.149 195.667 112.685 201.831 112.88C206.563 113.03 211.317 113.057 216.033 112.63C221.147 112.169 231.233 110.136 231.233 110.136M147.013 118.868C147.013 118.868 159.715 122.586 166.199 123.858C172.367 125.066 178.629 125.778 184.887 126.352C189.856 126.807 194.847 127.114 199.837 127.101C205.827 127.084 211.814 126.66 217.777 126.103C223.95 125.526 236.216 123.677 236.216 123.677M165.203 128.847C165.203 128.847 183.762 132.15 193.15 132.664C199.928 133.036 206.74 132.659 213.507 132.128C218.697 131.72 228.99 130.094 228.99 130.094L216.78 177.994L165.203 128.847Z" stroke="black" stroke-width="2" stroke-linecap="round" stroke-linejoin="round"/>
<path fill-rule="evenodd" clip-rule="evenodd" d="M182.146 137.08C182.146 137.08 196.758 138.245 204.073 138.078C210.197 137.938 222.373 136.404 222.373 136.404L214.289 169.512L182.146 137.08Z" stroke="black" stroke-width="2" stroke-linecap="round" stroke-linejoin="round"/>
<path d="M205.07 159.283L212.507 162.489L216.781 157.787M198.102 152.907C197.603 151.909 211.299 157.038 211.299 157.038L218.528 150.053" stroke="black" stroke-width="2" stroke-linecap="round" stroke-linejoin="round"/>
<path d="M190.198 144.602L209.306 152.049L220.626 142.249" stroke="black" stroke-width="2" stroke-linecap="round" stroke-linejoin="round"/>
<path d="M186.779 137.547L208.309 147.059L219.449 137.117" stroke="black" stroke-width="2" stroke-linecap="round" stroke-linejoin="round"/>
<path d="M198.95 138.08L206.814 142.319L212.047 138.327M188.625 117.121L194.605 117.69V122.18L188.625 121.612V117.121ZM145.504 107.333L149.675 109.12L147.775 113.188L143.355 110.652L145.504 107.333ZM153.908 110.915L159.697 112.625L158.664 117.195L152.91 115.343L153.908 110.915ZM165.17 113.65L171.401 114.703L170.931 119.169L164.842 118.115L165.17 113.65ZM176.967 115.833L183.227 116.489L183.055 120.977L176.937 120.463L176.967 115.833ZM200.175 117.899L206.15 118.129L205.978 122.616L200.003 122.386L200.175 117.899ZM211.589 117.693L217.229 117.303L217.415 121.751L211.633 122L211.589 117.693ZM222.268 116.872L227.624 116.055L228.237 120.645L222.881 121.463L222.268 116.872Z" stroke="black" stroke-width="2" stroke-linecap="round" stroke-linejoin="round"/>
<path fill-rule="evenodd" clip-rule="evenodd" d="M231.89 114.714L234.79 113.589L238.3 117.533L232.998 119.046L231.89 114.714Z" stroke="black" stroke-width="2.004" stroke-linecap="round" stroke-linejoin="round"/>
<path fill-rule="evenodd" clip-rule="evenodd" d="M245.37 120.574L256.798 129.871L235.609 204.722C235.609 204.722 236.085 211.316 235.371 214.496C234.685 217.55 233.708 220.801 231.561 223.077C229.539 225.222 226.651 227.194 223.705 227.13C221.146 227.074 218.84 225.136 217.039 223.316C215.438 221.699 214.415 219.519 213.705 217.356C213.106 215.53 212.991 211.636 212.991 211.636L110.378 118.667C110.378 118.667 119.68 110.477 123.71 105.795C128.354 100.4 132.636 94.619 136.09 88.393C153.314 57.354 185.85 2.1 185.85 2.1L203.468 2.338C203.468 2.338 194.143 20.72 189.183 29.752C182.159 42.542 174.535 54.994 167.279 67.654C161.696 77.4114 156.141 87.1847 150.614 96.974C147.427 102.61 141.09 113.9 141.09 113.9L218.943 186.367L236.561 124.15L245.371 120.574H245.37Z" fill="black" stroke="#404040" stroke-width="2" stroke-linecap="round" stroke-linejoin="round"/>
<path d="M110.344 118.536L91.698 135.084L84.223 140.572L45.705 168.277L37.615 174.386L30.14 179.376L1.49799 165.022" stroke="#404040" stroke-width="2" stroke-linecap="round" stroke-linejoin="round"/>
<path fill-rule="evenodd" clip-rule="evenodd" d="M29.308 179.09C32.525 181.103 38.375 185.978 38.375 185.978C38.375 185.978 39.809 184.094 40.867 183.982C42.714 183.786 45.203 184.734 45.85 186.477C46.603 188.503 44.146 190.451 43.359 192.464C42.501 194.657 41.389 196.787 40.928 199.097C40.208 202.739 40.0498 206.47 40.459 210.16C40.869 213.847 43.275 217.196 43.359 220.905C43.393 222.438 43.622 224.523 42.362 225.395C40.43 226.734 35.385 224.398 35.385 224.398L8.97301 236.872C18.088 242.429 23.703 247.086 31.399 251.629C38.591 256.182 51.332 265.812 51.332 265.812C51.332 265.812 58.026 257.535 61.299 253.338C66.697 246.416 71.474 238.994 77.246 232.381C81.266 227.776 85.667 223.504 90.203 219.408C95.289 214.815 101.798 211.731 106.15 206.435C109.974 201.781 112.985 196.268 114.621 190.468C116.069 185.337 117.021 179.646 115.618 174.502C113.98 168.494 109.237 163.731 105.153 159.034C99.115 152.09 84.66 140.542 84.66 140.542L90.142 136.55C90.142 136.55 103.517 146.47 109.14 152.547C114.559 158.406 120.65 164.406 123.093 172.007C124.957 177.807 124.263 184.307 123.093 190.287C121.908 196.343 119.664 202.387 116.116 207.433C112.392 212.73 106.754 216.406 101.664 220.406C98.656 222.77 95.101 224.403 92.196 226.893C86.303 231.942 81.165 237.851 76.249 243.857C71.342 249.854 67.068 256.353 62.794 262.817C59.994 267.052 54.821 275.791 54.821 275.791L2.99301 240.864L18.94 212.922L7.97701 199.949L18.442 191.965L3.49201 166.019C3.49201 166.019 21.131 173.973 29.308 179.09Z" fill="#BFBFBF" stroke="#404040" stroke-width="2" stroke-linecap="round" stroke-linejoin="round"/>
<path d="M37.877 186.477C37.877 186.477 35.265 192.923 34.565 196.31C33.512 201.404 32.958 206.67 33.276 211.863C33.537 216.123 35.884 224.398 35.884 224.398" stroke="#404040" stroke-width="2" stroke-linecap="round" stroke-linejoin="round"/>
<path fill-rule="evenodd" clip-rule="evenodd" d="M48.063 182.475C45.383 182.627 42.429 182.706 40.083 181.4C37.032 179.7 35.476 176.14 33.422 173.304C33.422 173.304 39.375 172.692 42.201 173.457C44.627 174.115 46.676 175.77 48.778 177.149C50.558 178.317 53.862 181.013 53.862 181.013C53.862 181.013 50.053 182.363 48.063 182.475Z" fill="#BFBFBF" stroke="#404040" stroke-width="2" stroke-linecap="round" stroke-linejoin="round"/>
<path fill-rule="evenodd" clip-rule="evenodd" d="M35.884 160.032C35.884 160.032 37.284 164.02 38.679 165.528C40.846 167.869 44.058 168.965 46.847 170.51C50.422 172.49 54.83 173.2 57.811 175.999C60.839 178.842 64.087 186.769 64.087 186.769C61.067 186.208 58.932 184.51 55.911 184.781C55.911 184.781 53.397 180.151 51.426 178.497C49.056 176.508 45.841 175.839 43.052 174.502C40.492 173.275 37.616 172.555 35.378 170.807C33.743 169.53 32.251 167.912 31.398 166.019C30.501 164.025 30.402 159.533 30.402 159.533L35.884 160.032Z" fill="#BFBFBF" stroke="#404040" stroke-width="2" stroke-linecap="round" stroke-linejoin="round"/>
<path fill-rule="evenodd" clip-rule="evenodd" d="M24.772 177.163L33.89 194.963L27.37 202.203L32.894 212.423L24.823 228.592L16.059 232.28L26.22 212.925L19.937 201.445L27.217 193.762L16.322 173.305L24.772 177.163Z" fill="black"/>
<path fill-rule="evenodd" clip-rule="evenodd" d="M28.287 140.427C28.287 140.427 24.317 134.985 24.92 132.029C25.419 129.585 27.804 127.41 30.202 126.732C32.077 126.202 34.419 126.813 35.884 128.098C37.624 129.625 38.391 132.268 38.375 134.585C38.363 136.376 36.382 139.575 36.382 139.575C36.382 139.575 40.408 136.04 42.86 136.082C45.168 136.122 47.691 137.571 48.84 139.575C49.916 141.449 49.466 143.992 48.84 146.061C48.32 147.783 47.518 149.881 45.85 150.551C42.919 151.731 36.597 148.495 36.597 148.495C36.597 148.495 39.287 154.429 38.177 157.139C37.407 159.017 35.221 160.609 33.193 160.632C30.199 160.666 26.906 158.395 25.718 155.642C24.77 153.443 26.914 148.556 26.914 148.556C26.914 148.556 21.85 150.854 19.439 150.053C17.317 149.348 15.089 147.297 14.953 145.063C14.78 142.206 17.182 138.989 19.876 138.031C22.623 137.055 28.286 140.427 28.286 140.427H28.287Z" fill="#BFBFBF" stroke="#404040" stroke-width="2" stroke-linecap="round" stroke-linejoin="round"/>
<path fill-rule="evenodd" clip-rule="evenodd" d="M23.924 144.065C27.199 141.905 30.62 140.083 32.894 135.583C35.146 140.251 37.782 142.236 40.369 144.564C37.772 145.839 35.172 147.179 32.395 153.046C30.441 149.792 29.189 146.325 23.924 144.065Z" stroke="#404040" stroke-width="2" stroke-linecap="round" stroke-linejoin="round"/>
<path fill-rule="evenodd" clip-rule="evenodd" d="M26.224 138.884L18.296 135.553L16.686 128.359L23.632 130.916L26.224 138.884ZM37.877 137.579L39.847 129.879L47.346 126.602L44.854 135.084L37.877 137.579ZM37.646 148.916L38.874 156.04L46.847 160.032L45.352 151.55L37.646 148.916ZM26.96 148.295L18.64 151.553L17.04 159.236L24.92 156.036L26.96 148.295Z" fill="#808080" stroke="#404040" stroke-width="2" stroke-linecap="round" stroke-linejoin="round"/>
<path d="M45.468 188.65C49.194 187.15 53.068 185.229 57.089 185.385C62.263 185.586 67.195 188.136 71.676 190.735C73.64 191.874 76.708 192.855 76.889 195.12C77.045 197.078 74.924 199.023 73.043 199.58C70.576 200.31 68.153 197.946 65.635 197.417C63.225 196.91 56.322 196.297 58.309 196.456C63.021 196.834 68.019 197.633 71.964 200.232C73.557 201.282 75.639 202.794 75.544 204.702C75.46 206.408 73.618 207.949 71.962 208.364C68.634 209.199 65.544 205.73 62.144 205.268C60.547 205.05 55.664 205.43 57.312 205.438C61.392 205.454 65.805 206.166 69.168 208.478C70.612 209.472 72.726 211.09 72.212 212.768C71.586 214.814 68.326 214.752 66.205 215.016C61.421 215.611 55.648 213.111 51.831 213.421C56.588 213.609 58.763 213.638 61.821 215.069C63.477 215.843 66.198 216.835 65.976 218.652C65.738 220.609 62.636 220.942 60.704 221.32C57.781 221.89 54.769 220.322 51.803 220.58C49.417 220.788 47.133 221.667 44.853 222.402" stroke="#404040" stroke-width="2" stroke-linecap="round" stroke-linejoin="round"/>
<path fill-rule="evenodd" clip-rule="evenodd" d="M64.787 185.978C62.977 182.693 62.112 178.748 62.296 175.001C62.45 171.849 64.496 169.074 65.286 166.019C65.964 163.399 66.781 158.036 66.781 158.036C66.781 158.036 70.913 164.741 71.764 168.514C72.46 171.597 72.303 174.881 71.764 177.994C71.343 180.431 70.304 182.734 69.272 184.98C68.712 186.198 67.279 188.473 67.279 188.473C67.279 188.473 65.355 187.007 64.787 185.978Z" fill="#BFBFBF" stroke="#404040" stroke-width="2" stroke-linecap="round" stroke-linejoin="round"/>
<path fill-rule="evenodd" clip-rule="evenodd" d="M93.442 175.5L106.897 169.762L101.664 184.98C101.664 184.98 101.714 181.519 100.481 180.708C99.411 180.005 96.681 181.238 96.681 181.238C96.681 181.238 98.41 177.808 97.521 176.458C96.751 175.291 93.442 175.5 93.442 175.5Z" fill="#404040" stroke="#404040" stroke-width="2" stroke-linecap="round" stroke-linejoin="round"/>
<path fill-rule="evenodd" clip-rule="evenodd" d="M102.59 167.707C102.28 167.645 102.07 167.049 102.285 166.82C102.495 166.596 103.092 166.758 103.182 167.05C103.268 167.331 102.881 167.766 102.59 167.707ZM108.843 174.511C108.609 174.328 108.635 173.823 108.873 173.645C109.075 173.493 109.49 173.587 109.63 173.793C109.741 173.958 109.639 174.228 109.494 174.367C109.337 174.517 109.014 174.646 108.843 174.511Z" stroke="#404040" stroke-width="2" stroke-linecap="round" stroke-linejoin="round"/>
<path fill-rule="evenodd" clip-rule="evenodd" d="M185.884 228.39L140.534 185.728L123.951 185.825C122.519 196.495 119.788 201.98 114.871 209.679L130.319 210.926L149.505 228.639" fill="#BFBFBF"/>
<path d="M185.884 228.39L140.534 185.728L123.951 185.825C122.519 196.495 119.788 201.98 114.871 209.679L130.319 210.926L149.505 228.639" stroke="#404040" stroke-width="2" stroke-linecap="round" stroke-linejoin="round"/>
<path fill-rule="evenodd" clip-rule="evenodd" d="M138.728 189.47L124.215 189.436L123.806 192.43L138.199 192.495L175.917 228.732C176.487 229.279 177.504 229.257 178.05 228.686C178.597 228.114 178.575 227.096 178.004 226.55L139.818 189.876C139.672 189.74 139.501 189.634 139.313 189.565C139.126 189.495 138.927 189.462 138.728 189.47Z" fill="black"/>
<path d="M121.1 198.493L135.053 198.452L166.449 227.891" stroke="#404040" stroke-width="2" stroke-linecap="round" stroke-linejoin="round"/>
<path fill-rule="evenodd" clip-rule="evenodd" d="M119.678 203.563L118.019 206.328L131.689 206.654L153.959 228.202C154.474 228.896 155.631 228.972 156.232 228.352C156.833 227.732 156.722 226.576 156.014 226.082L133.34 204.096C133.073 203.832 132.718 203.676 132.343 203.66L119.678 203.563Z" fill="black"/>
<path d="M91.698 228.639L230.734 228.14" stroke="#404040" stroke-width="2" stroke-linecap="round" stroke-linejoin="round"/>
<path fill-rule="evenodd" clip-rule="evenodd" d="M264.858 137.341C262.45 138.523 260.528 140.461 258.543 142.178C254.205 147.097 250.861 154.816 252.158 161.548C252.781 164.24 254.235 166.627 255.62 168.982C255.768 171.859 256.157 175.328 254.065 177.628C252.325 179.255 248.24 175.705 248.32 179.372C249.62 181.568 252.984 181.502 255.049 180.392C257.315 179.982 258.48 175.612 258.661 175.53C259.646 179.968 260.309 184.508 260.261 189.065C259.348 192.522 257.403 194.555 254.813 196.264C251.783 197.932 248.542 195.242 247.69 192.33C247.857 190.188 244.52 188.055 244.151 191.078C245.074 194.626 247.082 198.714 251.028 199.548C254.078 200.49 257.462 198.891 259.171 196.3C257.846 199.725 256.221 203.9 258.533 207.29C259.886 209.705 266.16 212.048 266.571 208.247C265.247 206.269 261.227 207.914 260.523 204.672C259.82 202.032 261.393 199.469 262.115 196.982C263.742 193.027 263.218 187.435 263.075 183.275C262.583 177.249 261.47 172.268 258.022 167.17C257.387 166.034 255.619 163.272 256.017 163.038C258.063 165.029 261.237 165.312 263.701 163.936C265.943 163.111 269.696 158.399 266.147 157.256C264.037 158.544 263.144 162.802 259.662 161.584C257.065 160.349 253.732 158.112 255.429 154.939C256.324 151.971 258.134 144.169 265.575 140.481C266.817 139.461 266.863 137.276 264.858 137.341Z" fill="white"/>
<path fill-rule="evenodd" clip-rule="evenodd" d="M108.922 128.847C103.474 128.622 97.399 134.223 100.035 139.807C101.063 143.279 106.202 145.227 109.006 142.839C109.834 141.683 108.414 140.025 107.146 140.666C100.108 142.226 102.036 131.325 108.026 131.964C113.552 130.936 115.759 137.051 116.932 141.251C118.835 146.443 117.702 152.187 119.733 157.381C121.307 165.278 125.38 173.232 132.966 176.798C137.92 179.819 143.828 179.14 149.113 177.541C154.655 177.067 161.16 175.333 165.781 179.525C169.436 182.275 172.122 186.894 171.642 191.443C169.059 194.877 163.984 197.995 160.409 193.914C157.893 191.701 160.484 187.728 158.579 185.456C157.282 184.541 155.734 186.131 156.179 187.527C155.666 191.667 156.916 196.462 161.173 198.099C164.937 201.042 170.354 196.484 171.961 196.083C172.518 201.818 173.949 207.657 176.657 212.761C180.327 218.977 188.375 218.566 194.551 217.613C198.191 215.494 207.224 214.655 207.428 220.216C206.269 223.871 202.983 221.838 200.513 221.703C198.878 222.24 199.465 224.673 201.081 224.765C206.567 228.62 214.141 219.907 208.821 215.485C205.878 212.286 198.23 213.299 197.061 212.97C200.559 208.046 197.071 200.88 191.328 199.914C188.336 199.166 184.422 200.94 183.008 203.638C182.802 205.392 185.222 205.817 186.078 204.473C190.309 199.662 198.355 206.441 194.526 211.459C192.363 215.216 187.996 215.693 184.18 214.717C177.82 213.261 177.286 205.65 175.605 200.51C174.066 193.945 176.095 186.205 171.18 180.71C167.47 175.615 161.03 172.653 154.756 173.92C152.239 173.878 146.639 175.871 150.368 172.06C153.367 166.921 152.06 158.87 145.819 156.855C143.424 156.319 141.231 154.782 138.902 154.569C134.912 152.281 127.65 153.322 127.075 147.274C126.058 144.434 129.565 143.078 129.522 140.655C128.989 138.845 126.415 139.583 125.947 141.118C122.033 145.788 124.551 154.186 130.817 155.167C133.099 155.88 137.057 156.044 133.184 157.974C130.063 160.516 131.542 166.513 135.091 167.861C136.854 168.004 137.208 165.387 135.614 164.826C131.492 158.826 141.427 156.146 145.267 159.922C150.332 162.114 149.453 169.272 146.328 172.787C144.448 177.322 138.575 176.195 135.061 174.479C127.839 171.437 124.111 163.939 122.614 156.632C120.562 150.826 121.884 144.436 119.333 138.742C118.053 133.81 114.619 128.6 108.922 128.847Z" fill="white"/>
<path fill-rule="evenodd" clip-rule="evenodd" d="M114.133 148.189C114.133 149.291 113.129 150.185 111.89 150.185C110.652 150.185 109.648 149.291 109.648 148.189C109.648 147.086 110.652 146.193 111.89 146.193C113.129 146.193 114.133 147.086 114.133 148.189ZM159.525 167.634C159.525 168.736 158.521 169.63 157.283 169.63C156.044 169.63 155.04 168.736 155.04 167.634C155.04 166.531 156.044 165.638 157.283 165.638C158.521 165.638 159.525 166.531 159.525 167.634ZM152.554 184.792C152.554 185.894 151.55 186.788 150.312 186.788C149.073 186.788 148.069 185.894 148.069 184.792C148.069 183.69 149.073 182.796 150.312 182.796C151.55 182.796 152.554 183.69 152.554 184.792ZM184.505 192.644C184.505 193.746 183.501 194.64 182.262 194.64C181.024 194.64 180.02 193.746 180.02 192.644C180.02 191.542 181.024 190.648 182.262 190.648C183.501 190.648 184.505 191.542 184.505 192.644Z" fill="white"/>
<path fill-rule="evenodd" clip-rule="evenodd" d="M145.872 127.843C145.872 127.843 146.42 131.438 146.01 133.165C145.516 135.243 144.26 137.1 142.98 138.81C142.393 139.596 140.866 139.896 140.887 140.877C140.921 142.431 142.793 144.077 144.344 144.004C146.098 143.922 147.248 141.75 147.909 140.121C148.76 138.026 148.508 135.564 148.106 133.338C147.756 131.392 145.872 127.843 145.872 127.843ZM151.252 132.3C151.252 132.3 152.272 134.617 152.247 135.858C152.217 137.352 151.564 138.843 150.87 140.238C150.552 140.88 149.432 141.373 149.612 142.03C149.898 143.07 151.608 143.821 152.784 143.477C154.114 143.087 154.632 141.404 154.866 140.181C155.168 138.607 154.563 136.997 153.882 135.574C153.288 134.33 151.252 132.299 151.252 132.299V132.3ZM156.12 137.137C156.12 137.137 157.141 139.455 157.116 140.696C157.085 142.19 156.433 143.681 155.739 145.076C155.42 145.718 154.3 146.211 154.481 146.868C154.767 147.908 156.476 148.66 157.653 148.315C158.983 147.925 159.5 146.243 159.735 145.02C160.036 143.446 159.431 141.835 158.751 140.412C158.156 139.169 156.121 137.137 156.121 137.137H156.12ZM131.723 118.24C131.723 118.24 132.092 119.992 131.815 120.833C131.482 121.845 130.635 122.75 129.771 123.583C129.375 123.966 128.344 124.113 128.359 124.59C128.381 125.348 129.645 126.149 130.692 126.114C131.875 126.074 132.651 125.015 133.097 124.222C133.671 123.202 133.501 122.002 133.23 120.917C132.993 119.969 131.723 118.24 131.723 118.24ZM135.383 118.48C135.383 118.48 136.404 120.797 136.379 122.038C136.348 123.532 135.696 125.023 135.002 126.418C134.683 127.06 133.563 127.553 133.744 128.21C134.03 129.25 135.739 130.001 136.916 129.657C138.246 129.267 138.763 127.585 138.998 126.361C139.299 124.787 138.694 123.177 138.014 121.754C137.419 120.51 135.384 118.479 135.384 118.479L135.383 118.48ZM140.252 123.318C140.252 123.318 141.272 125.635 141.247 126.876C141.217 128.37 140.564 129.861 139.871 131.256C139.551 131.898 138.431 132.391 138.612 133.048C138.898 134.088 140.608 134.84 141.785 134.495C143.115 134.105 143.632 132.423 143.866 131.2C144.168 129.626 143.563 128.015 142.883 126.593C142.288 125.349 140.252 123.318 140.252 123.318ZM162.1 142.669C162.1 142.669 162.647 146.394 162.237 148.182C161.743 150.335 160.487 152.259 159.207 154.031C158.62 154.844 157.093 155.155 157.114 156.171C157.148 157.782 159.02 159.486 160.572 159.411C162.325 159.327 163.475 157.076 164.136 155.389C164.987 153.218 164.736 150.667 164.333 148.361C163.983 146.345 162.099 142.669 162.099 142.669H162.1ZM167.479 147.125C167.479 147.125 168.499 149.442 168.474 150.684C168.444 152.178 167.791 153.669 167.098 155.064C166.778 155.705 165.658 156.199 165.839 156.856C166.125 157.896 167.835 158.647 169.012 158.303C170.342 157.913 170.859 156.23 171.093 155.007C171.395 153.433 170.79 151.823 170.11 150.4C169.515 149.156 167.479 147.125 167.479 147.125ZM172.347 151.963C172.347 151.963 173.368 154.281 173.343 155.522C173.312 157.016 172.66 158.507 171.966 159.902C171.647 160.544 170.527 161.037 170.708 161.694C170.994 162.734 172.703 163.485 173.88 163.141C175.21 162.751 175.728 161.069 175.962 159.845C176.263 158.272 175.658 156.661 174.978 155.238C174.384 153.994 172.348 151.963 172.348 151.963H172.347ZM177.93 156.774C177.93 156.774 178.477 160.369 178.067 162.095C177.573 164.174 176.317 166.031 175.037 167.741C174.45 168.526 172.923 168.826 172.944 169.807C172.978 171.362 174.85 173.007 176.401 172.935C178.155 172.853 179.305 170.68 179.966 169.052C180.817 166.956 180.565 164.494 180.163 162.268C179.813 160.322 177.93 156.774 177.93 156.774ZM182.147 161.084C182.147 161.084 183.167 163.402 183.142 164.643C183.112 166.137 182.459 167.628 181.766 169.023C181.446 169.665 180.326 170.158 180.507 170.815C180.793 171.855 182.503 172.607 183.68 172.262C185.01 171.872 185.527 170.19 185.761 168.967C186.063 167.393 185.458 165.782 184.778 164.359C184.183 163.116 182.147 161.084 182.147 161.084Z" fill="#BFBFBF"/>
<path fill-rule="evenodd" clip-rule="evenodd" d="M186.435 165.05C186.435 165.05 187.455 167.368 187.43 168.609C187.4 170.103 186.747 171.594 186.053 172.989C185.735 173.631 184.615 174.124 184.795 174.781C185.081 175.821 186.791 176.572 187.967 176.228C189.297 175.838 189.815 174.155 190.049 172.932C190.351 171.358 189.746 169.748 189.065 168.325C188.471 167.081 186.435 165.05 186.435 165.05ZM191.871 170.152C191.871 170.152 192.419 173.747 192.009 175.473C191.515 177.551 190.259 179.409 188.979 181.119C188.392 181.904 186.865 182.204 186.886 183.185C186.92 184.74 188.792 186.385 190.343 186.312C192.097 186.231 193.247 184.058 193.908 182.43C194.759 180.334 194.507 177.872 194.105 175.646C193.755 173.7 191.871 170.152 191.871 170.152ZM196.38 174.317C196.38 174.317 197.4 176.634 197.375 177.875C197.344 179.369 196.692 180.86 195.998 182.256C195.679 182.897 194.559 183.391 194.74 184.047C195.026 185.088 196.735 185.839 197.912 185.494C199.242 185.104 199.759 183.422 199.994 182.199C200.295 180.625 199.69 179.015 199.01 177.592C198.415 176.348 196.38 174.317 196.38 174.317ZM201.103 178.719C201.103 178.719 202.123 181.036 202.098 182.277C202.068 183.771 201.415 185.262 200.721 186.658C200.403 187.299 199.283 187.793 199.463 188.449C199.749 189.49 201.459 190.241 202.635 189.896C203.965 189.506 204.483 187.824 204.717 186.601C205.019 185.027 204.414 183.417 203.733 181.994C203.139 180.75 201.103 178.719 201.103 178.719ZM206.975 182.511C206.975 182.511 207.523 186.107 207.112 187.833C206.619 189.911 205.362 191.768 204.083 193.478C203.496 194.264 201.968 194.564 201.99 195.545C202.024 197.1 203.896 198.745 205.447 198.672C207.201 198.591 208.35 196.418 209.012 194.789C209.862 192.694 209.611 190.232 209.209 188.006C208.858 186.06 206.975 182.511 206.975 182.511ZM211.338 186.822C211.338 186.822 212.358 189.139 212.333 190.38C212.303 191.875 211.65 193.365 210.957 194.761C210.637 195.402 209.517 195.896 209.698 196.553C209.984 197.593 211.694 198.344 212.871 198C214.201 197.61 214.718 195.927 214.952 194.704C215.254 193.13 214.649 191.52 213.969 190.097C213.374 188.853 211.338 186.822 211.338 186.822ZM232.574 162.713C232.574 162.713 233.162 166.051 234.114 167.385C235.451 169.258 237.862 170.062 239.61 171.558C240.04 171.927 240.708 172.186 240.836 172.739C241.047 173.657 240.658 174.886 239.866 175.393C238.747 176.108 237.021 175.772 235.9 175.062C233.99 173.852 233.073 171.379 232.499 169.192C231.95 167.102 232.574 162.713 232.574 162.713ZM230.632 169.577C230.632 169.577 231.47 171.067 231.902 171.803C232.558 172.921 233.092 174.127 233.912 175.13C234.548 175.908 236.196 176.166 236.131 177.17C236.055 178.33 234.497 179.297 233.277 179.174C231.898 179.035 231.153 177.504 230.627 176.316C230.02 174.942 230.178 173.326 230.243 171.825C230.275 171.065 230.632 169.577 230.632 169.577Z" fill="#BFBFBF"/>
<path fill-rule="evenodd" clip-rule="evenodd" d="M228.786 174.538C228.786 174.538 229.306 176.892 229.894 177.923C230.662 179.247 231.683 180.407 232.899 181.336C233.477 181.781 234.704 181.647 234.858 182.311C235.101 183.362 233.956 184.838 232.758 185.096C231.402 185.388 230.147 184.156 229.358 183.192C228.345 181.952 228.11 180.247 228.031 178.672C227.962 177.295 228.786 174.538 228.786 174.538ZM227.631 181.744C227.631 181.744 228.219 185.081 229.171 186.415C230.508 188.288 232.92 189.092 234.667 190.588C235.097 190.958 235.765 191.216 235.893 191.77C236.104 192.688 235.715 193.917 234.923 194.424C233.804 195.138 232.078 194.802 230.957 194.092C229.048 192.882 228.13 190.409 227.556 188.222C227.007 186.133 227.631 181.744 227.631 181.744ZM235.817 152.8C235.817 152.8 236.45 154.22 236.787 154.922C237.139 155.659 237.438 156.429 237.886 157.112C238.593 158.194 240.518 158.808 240.365 160.092C240.26 160.969 239.115 161.755 238.236 161.671C237.048 161.557 236.294 160.128 235.813 159.029C235.257 157.759 235.402 156.265 235.461 154.878C235.491 154.175 235.817 152.8 235.817 152.8ZM234.76 158.924C234.76 158.924 235.198 160.73 235.694 161.52C236.326 162.53 237.211 163.43 238.221 164.137C238.708 164.478 239.74 164.376 239.869 164.885C240.074 165.691 239.11 166.823 238.102 167.021C236.962 167.245 235.906 166.299 235.242 165.561C234.39 164.61 234.192 163.303 234.126 162.094C234.068 161.038 234.761 158.924 234.761 158.924H234.76ZM237.66 146.984C237.66 146.984 238.199 150.058 239.072 151.288C240.297 153.013 242.507 153.754 244.108 155.133C244.504 155.473 245.116 155.711 245.233 156.221C245.426 157.067 245.07 158.199 244.343 158.667C243.318 159.325 241.736 159.015 240.708 158.361C238.958 157.246 238.117 154.968 237.591 152.952C237.088 151.028 237.66 146.984 237.66 146.984ZM240.723 137.07C240.723 137.07 241.515 138.432 241.885 139.128C242.349 140.004 242.61 141.002 243.209 141.792C243.899 142.702 245.819 142.947 245.752 144.088C245.69 145.154 244.257 146.054 243.142 145.941C241.88 145.813 241.199 144.398 240.718 143.3C240.162 142.03 240.308 140.536 240.366 139.148C240.396 138.446 240.723 137.07 240.723 137.07ZM239.46 142.886C239.46 142.886 239.898 144.691 240.394 145.482C241.026 146.492 241.911 147.391 242.921 148.099C243.408 148.44 244.44 148.338 244.569 148.846C244.774 149.653 243.81 150.784 242.802 150.983C241.662 151.207 240.606 150.261 239.942 149.523C239.09 148.571 238.892 147.264 238.826 146.056C238.768 145 239.46 142.886 239.46 142.886ZM241.78 128.936C241.78 128.936 242.367 132.273 243.32 133.608C244.656 135.48 247.067 136.284 248.814 137.781C249.246 138.15 249.914 138.409 250.041 138.962C250.252 139.88 249.863 141.109 249.07 141.616C247.952 142.331 246.226 141.994 245.105 141.284C243.195 140.074 242.278 137.602 241.704 135.414C241.155 133.326 241.78 128.936 241.78 128.936ZM245.113 121.662C245.113 121.662 246.049 122.158 246.457 122.492C247.047 122.972 247.482 123.619 248.023 124.156C248.677 124.806 250.046 125.116 250.052 126.041C250.056 126.761 249.206 127.525 248.487 127.529C247.303 127.537 246.471 126.143 245.881 125.116C245.578 124.587 245.617 123.926 245.484 123.33L245.113 121.662ZM243.966 125.147C243.966 125.147 244.403 126.952 244.899 127.743C245.531 128.753 246.416 129.652 247.426 130.36C247.913 130.701 248.945 130.599 249.074 131.108C249.279 131.914 248.315 133.045 247.307 133.244C246.167 133.468 245.111 132.522 244.447 131.784C243.595 130.832 243.397 129.525 243.331 128.317C243.273 127.261 243.966 125.147 243.966 125.147Z" fill="#BFBFBF"/>
<path d="M224.007 193.961C220.376 193.986 217.737 196.789 216.127 200.011C214.517 203.233 213.737 207.07 213.791 210.209C213.844 213.309 214.741 217.036 216.438 220.157C218.136 223.277 220.825 225.965 224.412 225.895C227.979 225.825 230.52 223.04 232.074 219.876C233.627 216.712 234.376 212.994 234.347 209.928C234.317 206.83 233.487 203.058 231.855 199.886C230.225 196.714 227.613 193.936 224.007 193.961ZM224.007 196.955C226.048 196.941 227.841 198.568 229.208 201.227C230.575 203.887 231.333 207.371 231.358 209.928C231.381 212.453 230.695 215.92 229.395 218.566C228.095 221.212 226.365 222.861 224.349 222.901C222.315 222.941 220.506 221.332 219.086 218.722C217.666 216.112 216.824 212.674 216.781 210.146C216.737 207.581 217.455 204.054 218.805 201.352C220.155 198.65 221.94 196.969 224.007 196.955Z" fill="#BFBFBF"/>
<path fill-rule="evenodd" clip-rule="evenodd" d="M222.76 210.427C222.76 210.427 220.29 208.487 219.023 208.93C218.391 209.15 217.938 210.012 218.027 210.676C218.144 211.551 219.017 212.482 219.895 212.547C221.08 212.636 222.761 210.427 222.761 210.427H222.76ZM225.377 210.177C225.377 210.177 226.445 207.977 227.495 207.683C228.38 207.435 229.825 207.682 230.111 208.556C230.381 209.378 229.411 210.338 228.616 210.676C227.611 211.104 225.377 210.177 225.377 210.177ZM223.508 207.807C223.508 207.807 220.147 205.673 220.02 203.94C219.91 202.445 221.027 200.391 222.512 200.198C223.942 200.012 225.462 201.653 225.751 203.068C226.101 204.78 223.508 207.807 223.508 207.807ZM223.757 212.797C223.757 212.797 221.686 216.097 222.137 217.787C222.427 218.867 223.514 220.095 224.63 220.032C226.069 219.95 227.516 218.232 227.495 216.789C227.469 214.965 223.757 212.797 223.757 212.797Z" fill="#BFBFBF" stroke="#BFBFBF" stroke-linecap="round" stroke-linejoin="round"/>
<path fill-rule="evenodd" clip-rule="evenodd" d="M87.669 202.434L101.883 195.579L95.433 210.525C95.433 210.525 96.505 207.266 95.468 206.329C94.295 205.269 90.755 206.849 90.755 206.849C90.755 206.849 92.285 203.857 91.442 202.765C90.669 201.765 87.669 202.434 87.669 202.434Z" fill="#404040" stroke="#404040" stroke-width="2" stroke-linecap="round" stroke-linejoin="round"/>
<path fill-rule="evenodd" clip-rule="evenodd" d="M97.577 193.562C97.267 193.501 97.057 192.915 97.272 192.69C97.482 192.47 98.079 192.63 98.169 192.917C98.255 193.192 97.867 193.619 97.577 193.562ZM103.829 200.244C103.594 200.064 103.621 199.568 103.859 199.393C104.061 199.243 104.476 199.336 104.616 199.539C104.726 199.701 104.624 199.965 104.479 200.102C104.322 200.25 104.001 200.376 103.829 200.244Z" stroke="#404040" stroke-width="2" stroke-linecap="round" stroke-linejoin="round"/>
<path fill-rule="evenodd" clip-rule="evenodd" d="M78.386 188.33L91.841 182.592L86.609 197.811C86.609 197.811 86.659 194.349 85.425 193.538C84.356 192.836 81.625 194.068 81.625 194.068C81.625 194.068 83.355 190.638 82.465 189.288C81.695 188.121 78.386 188.33 78.386 188.33Z" fill="#404040" stroke="#404040" stroke-width="2" stroke-linecap="round" stroke-linejoin="round"/>
<path fill-rule="evenodd" clip-rule="evenodd" d="M87.534 180.538C87.224 180.476 87.014 179.879 87.229 179.65C87.439 179.426 88.037 179.588 88.126 179.881C88.212 180.161 87.825 180.596 87.534 180.538ZM93.787 187.342C93.553 187.158 93.579 186.654 93.817 186.475C94.02 186.323 94.435 186.418 94.574 186.625C94.685 186.789 94.584 187.059 94.438 187.198C94.281 187.348 93.958 187.476 93.787 187.342Z" stroke="#404040" stroke-width="2" stroke-linecap="round" stroke-linejoin="round"/>
<path fill-rule="evenodd" clip-rule="evenodd" d="M63.984 224.977L77.426 217.475L73.312 231.63C73.312 231.63 73.596 228.266 72.382 227.656C70.879 226.901 67.758 229.671 67.758 229.671C67.758 229.671 70.133 226.19 69.118 224.873C68.073 223.516 63.984 224.977 63.984 224.977Z" fill="#404040" stroke="#404040" stroke-width="2.014" stroke-linecap="round" stroke-linejoin="round"/>
<path fill-rule="evenodd" clip-rule="evenodd" d="M74.858 215.681C74.615 215.623 74.449 215.068 74.618 214.855C74.783 214.647 75.253 214.798 75.323 215.07C75.391 215.331 75.086 215.735 74.858 215.681ZM79.949 221.483C79.765 221.313 79.786 220.843 79.973 220.677C80.132 220.536 80.458 220.623 80.568 220.815C80.655 220.969 80.575 221.219 80.461 221.349C80.337 221.489 80.084 221.609 79.949 221.483Z" stroke="#404040" stroke-width="2.014" stroke-linecap="round" stroke-linejoin="round"/>
<path fill-rule="evenodd" clip-rule="evenodd" d="M27.644 236.666L41.099 230.928L35.866 246.147C35.866 246.147 35.916 242.685 34.683 241.874C33.613 241.172 30.883 242.404 30.883 242.404C30.883 242.404 32.612 238.974 31.722 237.624C30.953 236.457 27.644 236.666 27.644 236.666Z" fill="#404040" stroke="#404040" stroke-width="2" stroke-linecap="round" stroke-linejoin="round"/>
<path fill-rule="evenodd" clip-rule="evenodd" d="M36.792 228.874C36.482 228.812 36.272 228.215 36.487 227.986C36.697 227.762 37.294 227.925 37.384 228.217C37.47 228.498 37.082 228.933 36.792 228.874ZM43.045 235.678C42.81 235.494 42.837 234.99 43.075 234.811C43.277 234.66 43.692 234.754 43.832 234.961C43.942 235.125 43.841 235.395 43.695 235.534C43.538 235.684 43.217 235.813 43.045 235.678Z" stroke="#404040" stroke-width="2" stroke-linecap="round" stroke-linejoin="round"/>
<path fill-rule="evenodd" clip-rule="evenodd" d="M43.148 247.78L56.603 242.042L51.371 257.26C51.371 257.26 51.421 253.8 50.187 252.988C49.118 252.285 46.387 253.518 46.387 253.518C46.387 253.518 48.117 250.088 47.227 248.738C46.457 247.571 43.148 247.78 43.148 247.78Z" fill="#404040" stroke="#404040" stroke-width="2" stroke-linecap="round" stroke-linejoin="round"/>
<path fill-rule="evenodd" clip-rule="evenodd" d="M52.297 239.988C51.987 239.926 51.777 239.329 51.992 239.1C52.202 238.876 52.799 239.038 52.888 239.331C52.974 239.611 52.587 240.046 52.297 239.988ZM58.55 246.792C58.315 246.608 58.341 246.104 58.58 245.925C58.782 245.773 59.197 245.868 59.336 246.074C59.448 246.239 59.346 246.508 59.2 246.647C59.043 246.797 58.721 246.927 58.55 246.792Z" stroke="#404040" stroke-width="2" stroke-linecap="round" stroke-linejoin="round"/>
<path fill-rule="evenodd" clip-rule="evenodd" d="M43.857 353.13L65.784 277.787L65.534 269.304L68.027 261.071L72.512 256.331L76.997 254.834L68.92 254.542L54.984 276.789L1 240.55L1.498 319.948L43.857 353.13ZM300.252 317.703V240.365L297.885 241.612L282.063 269.803L292.777 282.277L282.561 290.51L296.889 315.084L300.252 317.703Z" fill="#808080"/>
<path fill-rule="evenodd" clip-rule="evenodd" d="M196.723 323.317L230.983 293.005L239.081 296.248L246.307 296.748L255.028 293.878L256.398 297.371L259.513 298.618L263.251 296.872L270.352 303.483L216.282 342.028L207.437 333.795L196.723 323.317Z" fill="#404040" stroke="#404040" stroke-width="2" stroke-linecap="round" stroke-linejoin="round"/>
<path fill-rule="evenodd" clip-rule="evenodd" d="M115.23 254.634L81.111 255.092L87.508 261.65L89.641 270.79L190.781 362.306L210.125 345.682L194.741 333.329L183.621 320.671L177.529 310.453L176.31 297.032L160.774 297.337L115.23 254.634Z" fill="#808080"/>
<path d="M40.12 350.136L1.49799 319.949" stroke="#404040" stroke-width="2" stroke-linecap="round" stroke-linejoin="round"/>
<path fill-rule="evenodd" clip-rule="evenodd" d="M199.588 480.365C196.275 471.497 193.935 462.295 192.611 452.922C191.609 445.821 191.193 438.625 191.615 431.466C192.117 422.96 193.794 414.564 196.598 406.518C188.772 405.313 181.09 403.307 173.674 400.531L128.326 480.365H199.588Z" fill="#BFBFBF" stroke="#404040" stroke-width="2" stroke-linecap="round" stroke-linejoin="round"/>
<path fill-rule="evenodd" clip-rule="evenodd" d="M173.176 400.53L165.203 394.543L115.867 480.365H128.326L173.176 400.531" fill="#808080"/>
<path d="M173.176 400.53L165.203 394.543L115.867 480.365H128.326L173.176 400.531" stroke="#404040" stroke-width="2" stroke-linecap="round" stroke-linejoin="round"/>
<path d="M141.033 480.365C141.033 480.365 137.048 474.461 140.286 469.387C142.096 466.549 149.754 465.895 149.754 465.895C149.754 465.895 146.686 456.691 149.256 453.421C151.875 450.088 161.714 450.926 161.714 450.926C161.714 450.926 156.584 439.963 159.223 435.458C163.049 428.925 169.858 431.132 169.858 431.132C169.858 431.132 165.798 423.269 171.183 416.997C173.978 413.741 183.89 415.001 183.89 415.001C180.29 410.729 180.451 409.525 179.904 407.267C179.356 405.009 179.496 404.275 179.496 404.275" stroke="black" stroke-width="2" stroke-linecap="round" stroke-linejoin="round"/>
<path fill-rule="evenodd" clip-rule="evenodd" d="M170.79 427.317C171.125 426.16 171.528 424.995 172.18 423.982C173.038 422.646 173.978 421.155 175.419 420.489C177.23 419.653 179.741 419.129 181.399 420.239C183.014 421.323 183.713 423.809 183.392 425.729C183.022 427.944 179.156 430.967 179.156 430.967C179.156 430.967 184.52 432.067 185.635 434.211C186.681 436.224 186.043 439.166 184.638 440.947C183.251 442.704 180.548 444.096 178.408 443.442C176.008 442.707 174.173 437.205 174.173 437.205C174.173 437.205 173.626 441.493 172.429 443.192C171.365 444.701 169.778 446.244 167.944 446.435C166.316 446.605 164.35 445.813 163.458 444.439C162.055 442.278 162.288 439.002 163.458 436.706C164.631 434.404 169.728 432.156 169.728 432.156C169.728 432.156 168.594 435.338 171.235 436.758C173.345 437.893 176.767 435.791 177.681 433.574C178.455 431.697 177.659 428.382 175.714 427.809C171.831 426.667 170.252 430.436 170.252 430.436C170.252 430.436 170.495 428.33 170.789 427.316L170.79 427.317ZM151.357 462.121C151.694 460.964 152.097 459.799 152.747 458.786C153.607 457.45 154.546 455.959 155.987 455.294C157.799 454.457 160.309 453.932 161.967 455.044C163.582 456.127 164.281 458.613 163.96 460.533C163.59 462.749 159.724 465.772 159.724 465.772C159.724 465.772 165.088 466.871 166.203 469.015C167.25 471.028 166.611 473.97 165.206 475.751C163.82 477.508 161.116 478.9 158.976 478.246C156.576 477.511 154.741 472.009 154.741 472.009C154.741 472.009 154.194 476.298 152.997 477.996C150.772 481.049 146.14 480.564 144.027 479.244C142.624 477.082 142.857 473.806 144.027 471.51C145.2 469.208 150.295 466.96 150.295 466.96C150.295 466.96 149.162 470.143 151.803 471.562C153.914 472.697 157.335 470.595 158.249 468.378C159.023 466.501 158.228 463.186 156.282 462.614C152.399 461.471 150.82 465.24 150.82 465.24C150.82 465.24 151.063 463.134 151.357 462.121Z" fill="black" stroke="black" stroke-width="2" stroke-linecap="round" stroke-linejoin="round"/>
<path d="M144.924 394.892C144.401 390.32 143.283 385.241 142.095 381.999M140.714 401.074C139.924 392.971 137.627 386.349 136.02 380.473M136.224 408.661C134.831 398.979 133.21 388.221 129.868 379.189M128.448 397.25C127.864 390.013 125.408 383.55 124.233 378.087M122.191 389.862C121.158 383.19 119.736 380.491 118.955 377.282M115.57 383.812C114.822 381.15 113.953 379.074 113.204 377.068M80.485 480.365C80.485 480.365 79.509 467.513 72.761 460.655C66.013 453.798 57.561 450.427 57.561 450.427" stroke="#404040" stroke-width="2" stroke-linecap="round" stroke-linejoin="round"/>
<path d="M76.374 480.365C76.374 480.365 75.108 469.618 69.751 463.618C64.395 457.618 57.686 455.417 57.686 455.417" stroke="#404040" stroke-width="2" stroke-linecap="round" stroke-linejoin="round"/>
<path d="M72.885 480.365C72.885 480.365 71.33 472.545 67.365 467.974C63.4 463.402 57.437 460.406 57.437 460.406M68.4 480.365C68.4 480.365 67.347 474.972 64.146 471.429C60.946 467.886 57.436 466.144 57.436 466.144M64.04 480.365C64.04 480.365 63.421 476.295 61.543 474.123C59.665 471.952 57.313 470.884 57.313 470.884" stroke="#404040" stroke-width="2" stroke-linecap="round" stroke-linejoin="round"/>
<path d="M81.233 479.117C81.233 479.117 81.711 469.259 89.704 460.407C97.698 451.553 111.631 452.423 111.631 452.423" stroke="#404040" stroke-width="2" stroke-linecap="round" stroke-linejoin="round"/>
<path d="M84.596 479.616C84.596 479.616 85.862 471.116 92.963 463.618C100.063 456.121 108.766 457.163 108.766 457.163" stroke="#404040" stroke-width="2" stroke-linecap="round" stroke-linejoin="round"/>
<path d="M89.33 479.616C89.33 479.616 90.886 471.796 94.85 467.226C98.816 462.654 106.523 462.153 106.523 462.153" stroke="#404040" stroke-width="2" stroke-linecap="round" stroke-linejoin="round"/>
<path d="M93.816 479.616C93.816 479.616 94.869 474.223 98.069 470.681C101.269 467.138 103.284 467.641 103.284 467.641" stroke="#404040" stroke-width="2" stroke-linecap="round" stroke-linejoin="round"/>
<path fill-rule="evenodd" clip-rule="evenodd" d="M56.519 443.505C56.519 443.505 50.395 424.722 48.099 415.125C45.442 404.011 43.167 392.764 41.925 381.405C40.815 371.248 40.803 350.775 40.803 350.775L72.797 377.47C72.797 377.47 63.931 389.626 61.29 396.578C59.294 401.832 58.968 407.588 58.203 413.158C57.486 418.374 57.084 423.635 56.8 428.893C56.536 433.758 56.519 443.505 56.519 443.505Z" fill="#404040" stroke="#404040" stroke-width="2" stroke-linecap="round" stroke-linejoin="round"/>
<path d="M77.568 434.232C77.568 434.232 77.791 429.164 77.568 426.645C77.333 423.991 76.782 421.369 76.164 418.777C75.484 415.923 73.776 413.277 73.639 410.347C73.56 408.677 73.637 406.78 74.621 405.43C75.473 404.261 77.358 404.314 78.41 403.322C79.298 402.485 80.374 400.232 80.374 400.232" stroke="#404040" stroke-width="2" stroke-linecap="round" stroke-linejoin="round"/>
<path fill-rule="evenodd" clip-rule="evenodd" d="M92.723 411.19C92.723 411.19 96.176 407.137 95.67 404.868C95.351 403.44 93.73 402.368 92.302 402.058C90.739 401.718 89.145 402.7 87.672 403.322C85.971 404.04 84.683 406.607 82.9 406.132C82.171 405.938 81.462 404.851 81.777 404.165C82.614 402.346 85.68 403.229 87.671 403.041C90.093 402.812 93.122 401.455 94.968 403.041C95.902 403.843 95.778 405.487 95.529 406.694C95.174 408.425 92.723 411.19 92.723 411.19Z" fill="#404040" stroke="#404040" stroke-width="2" stroke-linecap="round" stroke-linejoin="round"/>
<path fill-rule="evenodd" clip-rule="evenodd" d="M113.491 443.224C113.491 443.224 107.241 446.39 103.736 446.996C100.378 447.576 96.712 447.672 93.454 446.774C91.114 446.129 87.39 443.224 87.39 443.224C87.39 443.224 92.593 445.154 95.317 445.561C98.701 446.067 102.196 446.158 105.582 445.665C108.312 445.267 113.491 443.225 113.491 443.225V443.224Z" fill="#404040" stroke="#404040" stroke-width="2" stroke-linecap="round" stroke-linejoin="round"/>
<path d="M93.004 436.2L90.197 438.447C90.197 438.447 94.631 439.997 96.933 440.414C99.425 440.865 102.03 441.489 104.51 440.976C106.887 440.486 108.98 439.001 110.965 437.604C113.565 435.775 117.981 431.141 117.981 431.141" stroke="#404040" stroke-width="2" stroke-linecap="round" stroke-linejoin="round"/>
<path d="M114.894 431.141C114.894 431.141 108.135 434.455 104.51 435.356C102.274 435.912 99.937 435.98 97.634 436.059C96.231 436.107 93.424 435.919 93.424 435.919L90.478 430.86L95.248 428.612L90.87 429.343C92.382 424.887 97.57 422.032 100.3 420.183" stroke="#404040" stroke-width="2" stroke-linecap="round" stroke-linejoin="round"/>
<path fill-rule="evenodd" clip-rule="evenodd" d="M96.371 434.935C96.371 434.935 94.356 431.541 96.371 428.612C97.541 426.914 100.706 427.403 102.546 428.332C105.739 429.942 109.006 431.224 110.966 432.406L105.071 433.811C106.125 432.084 104.836 430.288 103.668 429.174C102.271 427.843 99.84 427.037 98.055 427.769C96.229 428.518 94.789 431.554 94.968 432.827C95.086 433.663 96.371 434.935 96.371 434.935Z" stroke="#404040" stroke-width="2" stroke-linecap="round" stroke-linejoin="round"/>
<path fill-rule="evenodd" clip-rule="evenodd" d="M99.74 433.39C100.554 433.67 101.828 432.558 101.704 431.703C101.57 430.79 99.897 430.003 99.178 430.579C98.433 431.176 98.838 433.077 99.739 433.389L99.74 433.39Z" stroke="#404040" stroke-width="2" stroke-linecap="round" stroke-linejoin="round"/>
<path fill-rule="evenodd" clip-rule="evenodd" d="M59.01 444.99C59.01 444.99 64.785 447.05 67.585 446.324C70.979 445.442 75.884 439.852 75.884 439.852C75.884 439.852 70.598 444.482 67.304 445.019C64.426 445.489 58.764 443.124 58.764 443.124L59.01 444.99Z" fill="#404040" stroke="#404040" stroke-width="2" stroke-linecap="round" stroke-linejoin="round"/>
<path d="M77.708 435.216C77.708 435.216 73.715 439.27 71.113 440.133C68.271 441.076 64.918 441.229 62.132 440.133C60.468 439.479 58.202 436.48 58.202 436.48M76.164 433.39C76.164 433.39 71.216 435.475 68.587 435.637C66.315 435.777 64.043 435.127 61.851 434.513C60.396 434.105 57.641 432.827 57.641 432.827C57.641 432.827 60.257 430.285 61.851 429.455C63.927 428.375 66.249 427.444 68.587 427.488C69.77 427.511 71.955 428.612 71.955 428.612L75.603 430.046C74.62 427.989 72.886 424.273 71.533 423.133" stroke="#404040" stroke-width="2" stroke-linecap="round" stroke-linejoin="round"/>
<path d="M72.235 433.951C73.713 430.879 72.137 430.865 71.955 429.455L70.832 428.331M67.464 433.108C68.12 432.621 68.533 431.361 68.026 430.72C67.445 429.985 65.881 430.057 65.219 430.72C64.689 431.25 64.707 432.422 65.219 432.968C65.733 433.515 66.862 433.556 67.464 433.108Z" stroke="#404040" stroke-width="2" stroke-linecap="round" stroke-linejoin="round"/>
<path fill-rule="evenodd" clip-rule="evenodd" d="M95.53 389.98C95.53 389.98 90.742 391.984 88.092 391.965C86.077 391.951 84.493 390.419 82.479 390.377C79.669 390.318 77.149 392.887 74.481 392.263C73.396 392.01 72.516 390.277 72.516 390.277C72.516 390.277 74.412 391.087 75.463 391.072C77.956 391.036 79.853 389.128 82.339 388.987C84.838 388.845 87.138 390.124 89.636 390.277C91.598 390.398 95.53 389.98 95.53 389.98Z" fill="#404040" stroke="#404040" stroke-width="2" stroke-linecap="round" stroke-linejoin="round"/>
<path d="M88.513 382.81C88.513 382.81 85.428 384.46 83.742 384.495C81.834 384.535 78.269 382.809 78.269 382.809M89.215 386.603C89.215 386.603 85.151 385.241 83.04 385.198C81.233 385.16 77.708 386.181 77.708 386.181" stroke="#404040" stroke-width="2" stroke-linecap="round" stroke-linejoin="round"/>
<path d="M56.814 479.616C56.814 479.616 56.892 455.992 57.312 444.19C57.778 431.12 56.836 417.813 59.555 405.022C60.775 399.281 63.26 393.853 65.785 388.556C67.771 384.385 69.303 379.641 72.761 376.581C75.605 374.064 79.465 372.599 83.226 372.091C87.463 371.517 91.846 372.584 95.934 373.837C101.688 375.599 107.13 378.467 112.13 381.82C116.823 384.968 121.167 388.747 124.837 393.046C127.652 396.343 130.067 400.056 131.814 404.024C133.098 406.94 134.306 413.254 134.306 413.254" stroke="#404040" stroke-width="2" stroke-linecap="round" stroke-linejoin="round"/>
<path fill-rule="evenodd" clip-rule="evenodd" d="M29.156 419.242L19.439 435.458L10.718 419.242L20.186 403.525L29.156 419.242Z" fill="#BFBFBF" stroke="black" stroke-width="2" stroke-linecap="round" stroke-linejoin="round"/>
<path fill-rule="evenodd" clip-rule="evenodd" d="M23.924 419.74L19.937 426.726L16.199 419.99L19.937 412.506L23.924 419.74Z" fill="#808080" stroke="black" stroke-width="2" stroke-linecap="round" stroke-linejoin="round"/>
<path fill-rule="evenodd" clip-rule="evenodd" d="M20.934 400.656C20.934 397.556 23.332 395.042 26.291 395.042C29.249 395.042 31.648 397.556 31.648 400.656C31.648 403.756 29.249 406.269 26.291 406.269C23.332 406.269 20.934 403.756 20.934 400.656ZM9.47198 401.155C9.47198 397.917 11.926 395.292 14.953 395.292C17.981 395.292 20.435 397.917 20.435 401.155C20.435 404.393 17.981 407.017 14.953 407.017C11.926 407.017 9.47198 404.393 9.47198 401.155ZM11.465 317.454C11.465 312.907 15.481 309.221 20.435 309.221C25.389 309.221 29.405 312.907 29.405 317.454C29.405 322.001 25.389 325.687 20.435 325.687C15.481 325.687 11.465 322.001 11.465 317.454Z" fill="#BFBFBF" stroke="black" stroke-width="2" stroke-linecap="round" stroke-linejoin="round"/>
<path fill-rule="evenodd" clip-rule="evenodd" d="M20.684 325.687C24.519 326.699 27.944 330.092 29.414 333.78C31.132 338.09 29.008 343.057 28.518 347.67C27.424 357.976 25.431 368.165 23.962 378.423C23.003 385.123 21.906 394.883 21.182 398.535C19.295 399.063 19.059 397.711 19.115 396.026C17.218 381.012 15.033 366.032 13.435 350.983C12.916 346.106 11.377 341.165 12.168 336.325C12.731 332.875 13.668 328.951 16.348 326.71C17.488 325.757 19.248 325.308 20.684 325.687Z" fill="#BFBFBF" stroke="black" stroke-width="2" stroke-linecap="round" stroke-linejoin="round"/>
<path d="M19.937 378.826C19.937 378.826 18.397 362.181 17.445 353.878C16.929 349.379 15.742 344.934 15.701 340.406C15.681 338.147 15.471 335.706 16.449 333.67C17.161 332.186 19.937 330.177 19.937 330.177M18.94 321.945C17.473 320.415 15.888 318.368 16.133 316.272C16.298 314.864 17.543 313.553 18.847 312.999C19.719 312.629 20.74 313.113 21.681 313.213" stroke="black" stroke-width="2" stroke-linecap="round" stroke-linejoin="round"/>
<path fill-rule="evenodd" clip-rule="evenodd" d="M24.92 255.084C24.92 255.084 27.018 272.856 27.661 281.778C28.092 287.755 29.332 293.82 28.409 299.741C27.999 302.366 27.632 305.439 25.668 307.225C24.206 308.555 21.911 308.733 19.937 308.722C18.043 308.712 15.8 308.56 14.455 307.225C12.065 304.853 12.03 300.85 11.715 297.495C11.174 291.761 12.533 286.001 13.209 280.281C13.999 273.601 15.274 266.986 16.199 260.323C16.649 257.084 17.445 250.593 17.445 250.593L24.92 255.083V255.084Z" fill="#BFBFBF" stroke="black" stroke-width="2" stroke-linecap="round" stroke-linejoin="round"/>
<path d="M19.937 304.232C19.937 304.232 16.874 302.119 16.199 300.489C15.087 297.8 16.093 294.666 16.199 291.758C16.407 286.091 16.886 280.435 17.445 274.793C18.172 267.453 20.186 252.839 20.186 252.839" stroke="black" stroke-width="2" stroke-linecap="round" stroke-linejoin="round"/>
<path fill-rule="evenodd" clip-rule="evenodd" d="M151 384.065L159.97 368.348L81.98 295.749L65.286 358.619L55.909 361.457L73.354 376.77C73.354 376.77 78.513 373.27 81.482 372.59C84.882 371.808 88.49 372.361 91.947 372.839C95.599 373.343 102.661 375.583 102.661 375.583C102.661 375.583 116.501 376.3 123.342 377.329C129.142 378.202 134.847 379.64 140.535 381.071C144.053 381.957 151 384.065 151 384.065Z" fill="#BFBFBF" stroke="black" stroke-width="2" stroke-linecap="round" stroke-linejoin="round"/>
<path d="M153.492 379.076C153.492 379.076 140.624 375.066 134.056 373.587C128.715 372.384 123.294 371.522 117.86 370.843C111.742 370.077 105.585 369.541 99.422 369.346C94.689 369.196 89.935 369.169 85.219 369.596C80.106 370.057 70.019 372.09 70.019 372.09M154.24 363.358C154.24 363.358 141.538 359.64 135.053 358.368C128.886 357.16 122.623 356.448 116.365 355.874C111.397 355.419 106.405 355.112 101.415 355.126C95.426 355.142 89.438 355.566 83.475 356.123C77.303 356.7 65.037 358.549 65.037 358.549M136.05 353.38C136.05 353.38 117.49 350.076 108.102 349.562C101.325 349.19 94.512 349.567 87.746 350.098C82.556 350.506 72.262 352.132 72.262 352.132L84.472 304.232L136.05 353.379V353.38Z" stroke="black" stroke-width="2" stroke-linecap="round" stroke-linejoin="round"/>
<path fill-rule="evenodd" clip-rule="evenodd" d="M119.106 345.146C119.106 345.146 104.494 343.981 97.179 344.148C91.056 344.288 78.88 345.822 78.88 345.822L86.963 312.714L119.106 345.146Z" stroke="black" stroke-width="2" stroke-linecap="round" stroke-linejoin="round"/>
<path d="M96.183 322.943L88.745 319.737L84.472 324.439M103.151 329.319C103.649 330.317 89.953 325.188 89.953 325.188L82.725 332.173" stroke="black" stroke-width="2" stroke-linecap="round" stroke-linejoin="round"/>
<path d="M111.055 337.624L91.947 330.177L80.627 339.977" stroke="black" stroke-width="2" stroke-linecap="round" stroke-linejoin="round"/>
<path d="M114.474 344.68L92.944 335.167L81.804 345.109" stroke="black" stroke-width="2" stroke-linecap="round" stroke-linejoin="round"/>
<path d="M102.302 344.146L94.439 339.907L89.206 343.899M112.628 365.105L106.648 364.536V360.046L112.628 360.614V365.105ZM155.749 374.893L151.577 373.106L153.477 369.038L157.897 371.574L155.749 374.893ZM147.345 371.311L141.555 369.601L142.588 365.031L148.342 366.883L147.345 371.311ZM136.082 368.577L129.852 367.523L130.322 363.057L136.41 364.111L136.082 368.577ZM124.285 366.393L118.025 365.737L118.198 361.249L124.315 361.763L124.285 366.393ZM101.078 364.327L95.102 364.097L95.274 359.61L101.25 359.84L101.078 364.327ZM89.664 364.533L84.024 364.923L83.837 360.475L89.619 360.226L89.664 364.533ZM78.984 365.354L73.628 366.171L73.016 361.581L78.372 360.763L78.984 365.354Z" stroke="black" stroke-width="2" stroke-linecap="round" stroke-linejoin="round"/>
<path fill-rule="evenodd" clip-rule="evenodd" d="M69.362 367.512L66.462 368.637L62.952 364.693L68.255 363.18L69.362 367.512Z" stroke="black" stroke-width="2.004" stroke-linecap="round" stroke-linejoin="round"/>
<path fill-rule="evenodd" clip-rule="evenodd" d="M55.882 361.652L44.454 352.355L65.644 277.504C65.644 277.504 65.167 270.91 65.882 267.73C66.568 264.676 67.545 261.425 69.691 259.149C71.713 257.004 74.602 255.032 77.548 255.096C80.106 255.152 82.412 257.09 84.214 258.91C85.814 260.527 86.837 262.707 87.547 264.87C88.147 266.696 88.261 270.59 88.261 270.59L190.875 363.559C190.875 363.559 181.572 371.749 177.542 376.431C172.899 381.826 168.616 387.607 165.162 393.833C147.939 424.872 115.402 480.126 115.402 480.126L97.785 479.888C97.785 479.888 107.11 461.506 112.07 452.474C119.094 439.684 126.717 427.232 133.973 414.572C139.556 404.815 145.112 395.041 150.639 385.252C153.825 379.616 160.162 368.326 160.162 368.326L82.31 295.86L64.692 358.077L55.883 361.653L55.882 361.652Z" fill="black" stroke="#404040" stroke-width="2" stroke-linecap="round" stroke-linejoin="round"/>
<path d="M190.908 363.69L209.555 347.142L217.03 341.654L255.548 313.949L263.638 307.84L271.112 302.85L299.754 317.205" stroke="#404040" stroke-width="2" stroke-linecap="round" stroke-linejoin="round"/>
<path fill-rule="evenodd" clip-rule="evenodd" d="M271.945 303.136C268.727 301.123 262.877 296.248 262.877 296.248C262.877 296.248 261.443 298.132 260.385 298.244C258.539 298.44 256.05 297.492 255.402 295.749C254.649 293.723 257.106 291.775 257.894 289.762C258.751 287.569 259.864 285.439 260.324 283.129C261.047 279.509 261.2 275.735 260.793 272.066C260.383 268.379 257.977 265.03 257.893 261.321C257.859 259.788 257.631 257.703 258.89 256.831C260.822 255.492 265.867 257.828 265.867 257.828L292.279 245.354C283.165 239.797 277.549 235.14 269.854 230.597C262.661 226.044 249.92 216.414 249.92 216.414C249.92 216.414 243.226 224.691 239.953 228.888C234.556 235.81 229.778 243.232 224.007 249.845C219.987 254.45 215.586 258.722 211.05 262.818C205.964 267.411 199.454 270.495 195.103 275.791C191.279 280.445 188.268 285.958 186.631 291.758C185.183 296.889 184.231 302.58 185.635 307.724C187.273 313.732 192.015 318.495 196.1 323.192C202.138 330.136 216.592 341.684 216.592 341.684L211.11 345.676C211.11 345.676 197.735 335.756 192.113 329.679C186.693 323.82 180.603 317.82 178.159 310.219C176.295 304.419 176.989 297.919 178.159 291.939C179.344 285.883 181.589 279.839 185.136 274.793C188.861 269.496 194.499 265.82 199.588 261.82C202.596 259.456 206.151 257.823 209.056 255.333C214.949 250.284 220.088 244.376 225.003 238.369C229.911 232.372 234.184 225.873 238.458 219.409C241.258 215.174 246.432 206.435 246.432 206.435L298.259 241.363L282.312 269.304L293.276 282.277L282.811 290.261L297.761 316.207C297.761 316.207 280.121 308.253 271.945 303.136Z" fill="#BFBFBF" stroke="#404040" stroke-width="2" stroke-linecap="round" stroke-linejoin="round"/>
<path d="M263.375 295.75C263.375 295.75 265.988 289.303 266.688 285.916C267.74 280.822 268.294 275.556 267.976 270.363C267.716 266.103 265.369 257.828 265.369 257.828" stroke="#404040" stroke-width="2" stroke-linecap="round" stroke-linejoin="round"/>
<path fill-rule="evenodd" clip-rule="evenodd" d="M253.19 299.75C255.87 299.6 258.824 299.52 261.169 300.826C264.221 302.526 265.777 306.086 267.831 308.922C267.831 308.922 261.877 309.534 259.051 308.769C256.626 308.111 254.576 306.456 252.474 305.077C250.694 303.909 247.391 301.213 247.391 301.213C247.391 301.213 251.2 299.863 253.19 299.751V299.75Z" fill="#BFBFBF" stroke="#404040" stroke-width="2" stroke-linecap="round" stroke-linejoin="round"/>
<path fill-rule="evenodd" clip-rule="evenodd" d="M265.369 322.194C265.369 322.194 263.969 318.206 262.574 316.698C260.407 314.357 257.195 313.261 254.405 311.716C250.83 309.736 246.423 309.026 243.442 306.227C240.413 303.384 237.166 295.457 237.166 295.457C240.185 296.018 242.321 297.716 245.341 297.445C245.341 297.445 247.856 302.075 249.826 303.729C252.196 305.718 255.412 306.387 258.201 307.724C260.761 308.951 263.636 309.672 265.874 311.419C267.509 312.696 269.002 314.314 269.854 316.207C270.751 318.201 270.85 322.693 270.85 322.693L265.369 322.194Z" fill="#BFBFBF" stroke="#404040" stroke-width="2" stroke-linecap="round" stroke-linejoin="round"/>
<path fill-rule="evenodd" clip-rule="evenodd" d="M276.48 305.063L267.362 287.263L273.882 280.023L268.359 269.803L276.429 253.634L285.194 249.946L275.032 269.301L281.316 280.781L274.036 288.464L284.931 308.921L276.48 305.063Z" fill="black"/>
<path fill-rule="evenodd" clip-rule="evenodd" d="M272.966 341.799C272.966 341.799 276.936 347.241 276.332 350.197C275.834 352.642 273.448 354.816 271.05 355.494C269.176 356.024 266.833 355.413 265.369 354.128C263.629 352.601 262.862 349.958 262.877 347.641C262.889 345.85 264.87 342.651 264.87 342.651C264.87 342.651 260.844 346.186 258.392 346.144C256.085 346.104 253.562 344.655 252.412 342.651C251.336 340.777 251.786 338.234 252.412 336.165C252.932 334.443 253.735 332.345 255.402 331.675C258.334 330.495 264.656 333.731 264.656 333.731C264.656 333.731 261.965 327.797 263.076 325.087C263.846 323.209 266.032 321.617 268.059 321.594C271.054 321.56 274.347 323.831 275.534 326.584C276.483 328.783 274.339 333.67 274.339 333.67C274.339 333.67 279.402 331.372 281.814 332.173C283.935 332.878 286.164 334.929 286.299 337.163C286.473 340.02 284.071 343.237 281.377 344.195C278.63 345.171 272.966 341.799 272.966 341.799Z" fill="#BFBFBF" stroke="#404040" stroke-width="2" stroke-linecap="round" stroke-linejoin="round"/>
<path fill-rule="evenodd" clip-rule="evenodd" d="M277.329 338.16C274.053 340.32 270.633 342.143 268.359 346.643C266.106 341.975 263.47 339.99 260.884 337.662C263.481 336.387 266.08 335.047 268.857 329.18C270.812 332.434 272.063 335.9 277.329 338.16Z" stroke="#404040" stroke-width="2" stroke-linecap="round" stroke-linejoin="round"/>
<path fill-rule="evenodd" clip-rule="evenodd" d="M275.029 343.342L282.957 346.673L284.567 353.867L277.621 351.31L275.029 343.342ZM263.375 344.647L261.405 352.347L253.907 355.624L256.399 347.142L263.375 344.647ZM263.607 333.31L262.379 326.186L254.405 322.194L255.9 330.676L263.607 333.31ZM274.293 333.931L282.612 330.673L284.212 322.99L276.332 326.19L274.293 333.931Z" fill="#808080" stroke="#404040" stroke-width="2" stroke-linecap="round" stroke-linejoin="round"/>
<path d="M255.785 293.577C252.059 295.077 248.184 296.997 244.163 296.841C238.989 296.64 234.058 294.09 229.577 291.491C227.613 290.352 224.545 289.371 224.364 287.106C224.207 285.148 226.329 283.203 228.21 282.646C230.676 281.916 233.1 284.28 235.618 284.809C238.028 285.316 244.931 285.929 242.944 285.77C238.232 285.392 233.234 284.593 229.289 281.994C227.695 280.944 225.614 279.432 225.709 277.524C225.792 275.818 227.635 274.277 229.29 273.862C232.619 273.027 235.708 276.496 239.109 276.958C240.705 277.176 245.589 276.796 243.94 276.788C239.86 276.772 235.448 276.06 232.085 273.748C230.641 272.754 228.527 271.136 229.04 269.458C229.667 267.412 232.926 267.474 235.048 267.21C239.832 266.615 245.605 269.115 249.422 268.805C244.664 268.617 242.489 268.588 239.432 267.157C237.775 266.383 235.055 265.391 235.276 263.574C235.515 261.617 238.616 261.284 240.549 260.906C243.471 260.336 246.484 261.904 249.449 261.646C251.835 261.438 254.119 260.559 256.399 259.824" stroke="#404040" stroke-width="2" stroke-linecap="round" stroke-linejoin="round"/>
<path fill-rule="evenodd" clip-rule="evenodd" d="M236.465 296.248C238.276 299.533 239.141 303.478 238.957 307.225C238.802 310.377 236.757 313.152 235.967 316.207C235.288 318.827 234.472 324.19 234.472 324.19C234.472 324.19 230.34 317.485 229.488 313.712C228.793 310.629 228.95 307.345 229.488 304.232C229.91 301.795 230.948 299.492 231.98 297.246C232.54 296.028 233.973 293.753 233.973 293.753C233.973 293.753 235.897 295.219 236.465 296.248Z" fill="#BFBFBF" stroke="#404040" stroke-width="2" stroke-linecap="round" stroke-linejoin="round"/>
<path fill-rule="evenodd" clip-rule="evenodd" d="M207.81 306.726L194.355 312.464L199.588 297.246C199.588 297.246 199.538 300.707 200.772 301.518C201.841 302.221 204.572 300.988 204.572 300.988C204.572 300.988 202.842 304.418 203.732 305.768C204.502 306.935 207.811 306.726 207.811 306.726H207.81Z" fill="#404040" stroke="#404040" stroke-width="2" stroke-linecap="round" stroke-linejoin="round"/>
<path fill-rule="evenodd" clip-rule="evenodd" d="M198.662 314.519C198.972 314.581 199.182 315.177 198.967 315.406C198.757 315.63 198.16 315.468 198.071 315.176C197.985 314.895 198.372 314.46 198.662 314.519ZM192.41 307.715C192.644 307.898 192.618 308.403 192.38 308.581C192.177 308.733 191.762 308.639 191.623 308.433C191.511 308.268 191.613 307.998 191.759 307.859C191.916 307.709 192.238 307.58 192.409 307.715H192.41Z" stroke="#404040" stroke-width="2" stroke-linecap="round" stroke-linejoin="round"/>
<path fill-rule="evenodd" clip-rule="evenodd" d="M115.369 253.837L160.718 296.497L177.301 296.401C178.734 285.731 181.465 280.246 186.382 272.548L170.934 271.3L151.748 253.587" fill="#BFBFBF"/>
<path d="M115.369 253.837L160.718 296.497L177.301 296.401C178.734 285.731 181.465 280.246 186.382 272.548L170.934 271.3L151.748 253.587" stroke="#404040" stroke-width="2" stroke-linecap="round" stroke-linejoin="round"/>
<path fill-rule="evenodd" clip-rule="evenodd" d="M162.524 292.755L177.038 292.79L177.447 289.797L163.054 289.731L125.336 253.494C124.765 252.947 123.748 252.969 123.202 253.54C122.656 254.112 122.678 255.13 123.249 255.677L161.434 292.35C161.724 292.623 162.126 292.773 162.524 292.756V292.755Z" fill="black"/>
<path d="M180.153 283.733L166.199 283.774L134.804 254.335" stroke="#404040" stroke-width="2" stroke-linecap="round" stroke-linejoin="round"/>
<path fill-rule="evenodd" clip-rule="evenodd" d="M181.575 278.663L183.233 275.898L169.563 275.572L147.293 254.024C146.779 253.33 145.622 253.254 145.021 253.874C144.419 254.494 144.53 255.65 145.238 256.144L167.912 278.13C168.175 278.392 168.538 278.551 168.909 278.566L181.575 278.663Z" fill="black"/>
<path d="M209.555 253.587L70.518 254.086" stroke="#404040" stroke-width="2" stroke-linecap="round" stroke-linejoin="round"/>
<path fill-rule="evenodd" clip-rule="evenodd" d="M36.395 344.885C38.803 343.703 40.724 341.765 42.71 340.048C47.048 335.129 50.392 327.41 49.095 320.678C48.472 317.986 47.017 315.599 45.632 313.244C45.485 310.367 45.095 306.898 47.187 304.598C48.928 302.971 53.013 306.521 52.932 302.854C51.633 300.658 48.268 300.724 46.204 301.834C43.937 302.244 42.772 306.614 42.592 306.696C41.607 302.258 40.943 297.718 40.992 293.161C41.905 289.704 43.849 287.671 46.439 285.962C49.469 284.294 52.711 286.984 53.563 289.896C53.395 292.038 56.733 294.171 57.101 291.148C56.178 287.6 54.171 283.512 50.225 282.678C47.174 281.736 43.791 283.335 42.082 285.926C43.407 282.501 45.031 278.326 42.72 274.936C41.367 272.521 35.092 270.178 34.682 273.979C36.005 275.957 40.026 274.312 40.729 277.554C41.433 280.194 39.859 282.757 39.138 285.244C37.511 289.199 38.035 294.791 38.178 298.951C38.669 304.977 39.783 309.958 43.231 315.056C43.866 316.192 45.634 318.954 45.235 319.188C43.189 317.197 40.015 316.914 37.552 318.29C35.31 319.115 31.557 323.827 35.105 324.97C37.215 323.682 38.108 319.424 41.591 320.642C44.188 321.877 47.521 324.114 45.823 327.287C44.928 330.255 43.118 338.057 35.678 341.745C34.435 342.765 34.389 344.95 36.395 344.885Z" fill="white"/>
<path fill-rule="evenodd" clip-rule="evenodd" d="M192.331 353.38C197.778 353.604 203.853 348.003 201.218 342.418C200.189 338.948 195.051 336.999 192.246 339.387C191.419 340.543 192.839 342.201 194.106 341.56C201.144 340 199.216 350.901 193.226 350.262C187.701 351.29 185.494 345.175 184.32 340.975C182.418 335.783 183.55 330.039 181.52 324.845C179.945 316.948 175.872 308.994 168.287 305.428C163.333 302.407 157.425 303.086 152.139 304.685C146.597 305.159 140.093 306.893 135.472 302.701C131.817 299.951 129.13 295.332 129.61 290.783C132.194 287.349 137.268 284.231 140.844 288.312C143.359 290.525 140.769 294.498 142.674 296.77C143.971 297.685 145.519 296.095 145.074 294.699C145.587 290.559 144.336 285.764 140.08 284.127C136.315 281.184 130.898 285.742 129.292 286.143C128.735 280.408 127.303 274.569 124.595 269.465C120.925 263.249 112.877 263.66 106.702 264.613C103.062 266.732 94.028 267.571 93.824 262.01C94.983 258.355 98.269 260.388 100.74 260.523C102.375 259.986 101.788 257.553 100.171 257.461C94.685 253.606 87.111 262.319 92.431 266.741C95.374 269.94 103.023 268.927 104.192 269.256C100.693 274.18 104.182 281.346 109.924 282.312C112.916 283.06 116.83 281.286 118.244 278.588C118.451 276.834 116.03 276.409 115.174 277.753C110.943 282.564 102.897 275.785 106.726 270.767C108.889 267.01 113.256 266.533 117.072 267.509C123.432 268.965 123.966 276.576 125.647 281.716C127.187 288.281 125.157 296.021 130.072 301.516C133.783 306.611 140.222 309.573 146.497 308.306C149.014 308.348 154.613 306.355 150.885 310.166C147.885 315.305 149.192 323.356 155.433 325.371C157.829 325.907 160.021 327.444 162.35 327.657C166.341 329.945 173.603 328.904 174.178 334.952C175.195 337.792 171.688 339.148 171.731 341.571C172.264 343.381 174.837 342.643 175.306 341.108C179.22 336.438 176.702 328.04 170.436 327.059C168.154 326.346 164.196 326.182 168.068 324.252C171.19 321.71 169.711 315.713 166.161 314.365C164.399 314.222 164.045 316.839 165.639 317.4C169.76 323.4 159.826 326.08 155.985 322.304C150.921 320.112 151.8 312.954 154.925 309.439C156.805 304.904 162.677 306.031 166.191 307.747C173.414 310.789 177.142 318.287 178.639 325.594C180.69 331.4 179.369 337.79 181.92 343.484C183.2 348.416 186.633 353.626 192.331 353.379V353.38Z" fill="white"/>
<path fill-rule="evenodd" clip-rule="evenodd" d="M187.12 334.037C187.12 332.935 188.124 332.041 189.362 332.041C190.601 332.041 191.605 332.935 191.605 334.037C191.605 335.14 190.601 336.033 189.362 336.033C188.124 336.033 187.12 335.14 187.12 334.037ZM141.727 314.592C141.727 313.49 142.731 312.596 143.97 312.596C145.208 312.596 146.212 313.49 146.212 314.592C146.212 315.695 145.208 316.588 143.97 316.588C142.731 316.588 141.727 315.695 141.727 314.592ZM148.698 297.434C148.698 296.332 149.702 295.438 150.941 295.438C152.179 295.438 153.183 296.332 153.183 297.434C153.183 298.536 152.179 299.43 150.941 299.43C149.702 299.43 148.698 298.536 148.698 297.434ZM116.748 289.582C116.748 288.48 117.752 287.586 118.99 287.586C120.229 287.586 121.233 288.48 121.233 289.582C121.233 290.684 120.229 291.578 118.99 291.578C117.752 291.578 116.748 290.684 116.748 289.582Z" fill="white"/>
<path fill-rule="evenodd" clip-rule="evenodd" d="M155.38 354.383C155.38 354.383 154.833 350.788 155.243 349.061C155.737 346.983 156.993 345.126 158.273 343.416C158.859 342.63 160.387 342.33 160.366 341.349C160.332 339.795 158.46 338.149 156.908 338.222C155.154 338.304 154.005 340.476 153.343 342.105C152.493 344.2 152.745 346.662 153.146 348.888C153.497 350.834 155.38 354.383 155.38 354.383ZM150 349.927C150 349.927 148.98 347.609 149.005 346.368C149.036 344.874 149.688 343.383 150.382 341.988C150.701 341.346 151.821 340.853 151.64 340.196C151.354 339.156 149.645 338.405 148.468 338.749C147.138 339.139 146.621 340.822 146.386 342.045C146.085 343.619 146.69 345.229 147.37 346.652C147.965 347.896 150 349.927 150 349.927ZM145.132 345.089C145.132 345.089 144.112 342.771 144.137 341.53C144.167 340.036 144.82 338.545 145.513 337.15C145.833 336.508 146.953 336.015 146.772 335.358C146.486 334.318 144.776 333.566 143.599 333.911C142.269 334.301 141.752 335.983 141.518 337.206C141.216 338.78 141.821 340.391 142.501 341.814C143.096 343.057 145.132 345.089 145.132 345.089ZM169.53 363.986C169.53 363.986 169.16 362.234 169.437 361.393C169.771 360.381 170.618 359.476 171.481 358.643C171.878 358.26 172.908 358.113 172.894 357.636C172.871 356.878 171.608 356.077 170.561 356.112C169.377 356.152 168.601 357.211 168.156 358.004C167.581 359.024 167.751 360.224 168.023 361.309C168.259 362.257 169.53 363.986 169.53 363.986ZM165.87 363.747C165.87 363.747 164.848 361.429 164.874 360.188C164.904 358.694 165.557 357.203 166.251 355.808C166.569 355.166 167.689 354.673 167.509 354.016C167.223 352.976 165.513 352.225 164.337 352.569C163.007 352.959 162.489 354.641 162.255 355.865C161.953 357.439 162.558 359.049 163.239 360.472C163.833 361.716 165.87 363.747 165.87 363.747ZM161 358.908C161 358.908 159.98 356.591 160.005 355.35C160.036 353.856 160.688 352.365 161.382 350.97C161.701 350.328 162.821 349.835 162.64 349.178C162.354 348.138 160.645 347.386 159.468 347.731C158.138 348.121 157.621 349.803 157.386 351.026C157.085 352.6 157.69 354.211 158.37 355.634C158.965 356.877 161 358.908 161 358.908ZM139.153 339.557C139.153 339.557 138.606 335.832 139.016 334.044C139.51 331.891 140.766 329.967 142.045 328.195C142.632 327.382 144.16 327.071 144.138 326.055C144.105 324.444 142.232 322.74 140.681 322.815C138.927 322.899 137.778 325.15 137.116 326.837C136.266 329.008 136.517 331.559 136.919 333.865C137.27 335.881 139.153 339.557 139.153 339.557ZM133.774 335.1C133.774 335.1 132.753 332.784 132.778 331.543C132.809 330.048 133.461 328.558 134.155 327.162C134.474 326.521 135.594 326.027 135.413 325.37C135.127 324.33 133.418 323.579 132.241 323.923C130.911 324.313 130.394 325.996 130.159 327.219C129.858 328.793 130.463 330.403 131.143 331.826C131.738 333.07 133.773 335.101 133.773 335.101L133.774 335.1ZM128.905 330.263C128.905 330.263 127.885 327.945 127.91 326.704C127.94 325.21 128.593 323.719 129.286 322.324C129.606 321.682 130.726 321.189 130.545 320.532C130.259 319.492 128.549 318.741 127.372 319.085C126.042 319.475 125.525 321.157 125.291 322.381C124.989 323.955 125.594 325.565 126.274 326.988C126.869 328.232 128.905 330.263 128.905 330.263ZM123.323 325.452C123.323 325.452 122.776 321.857 123.186 320.131C123.68 318.052 124.936 316.195 126.216 314.485C126.802 313.7 128.33 313.4 128.309 312.419C128.275 310.864 126.402 309.219 124.851 309.291C123.097 309.373 121.948 311.546 121.286 313.174C120.436 315.27 120.688 317.732 121.089 319.958C121.44 321.904 123.323 325.452 123.323 325.452ZM119.106 321.142C119.106 321.142 118.085 318.824 118.11 317.583C118.141 316.089 118.793 314.598 119.487 313.203C119.806 312.561 120.926 312.068 120.745 311.411C120.459 310.371 118.75 309.619 117.573 309.964C116.243 310.354 115.725 312.036 115.491 313.259C115.19 314.833 115.795 316.444 116.475 317.867C117.069 319.11 119.106 321.142 119.106 321.142Z" fill="#BFBFBF"/>
<path fill-rule="evenodd" clip-rule="evenodd" d="M114.818 317.176C114.818 317.176 113.798 314.858 113.823 313.617C113.853 312.123 114.505 310.632 115.199 309.237C115.518 308.595 116.638 308.102 116.458 307.445C116.172 306.405 114.462 305.654 113.285 305.998C111.955 306.388 111.438 308.071 111.203 309.294C110.902 310.868 111.507 312.478 112.187 313.901C112.782 315.145 114.818 317.176 114.818 317.176ZM109.381 312.075C109.381 312.075 108.834 308.479 109.244 306.753C109.738 304.675 110.994 302.817 112.274 301.107C112.861 300.322 114.388 300.022 114.367 299.041C114.333 297.486 112.461 295.841 110.909 295.914C109.155 295.995 108.006 298.168 107.345 299.796C106.493 301.892 106.745 304.354 107.147 306.58C107.498 308.526 109.381 312.075 109.381 312.075ZM104.873 307.91C104.873 307.91 103.853 305.592 103.878 304.35C103.908 302.857 104.561 301.366 105.254 299.97C105.574 299.329 106.694 298.835 106.513 298.179C106.227 297.138 104.517 296.387 103.34 296.732C102.01 297.122 101.493 298.804 101.259 300.027C100.957 301.601 101.562 303.211 102.242 304.634C102.837 305.878 104.873 307.909 104.873 307.909V307.91ZM100.15 303.507C100.15 303.507 99.129 301.19 99.155 299.949C99.185 298.455 99.837 296.964 100.531 295.568C100.85 294.927 101.97 294.433 101.789 293.777C101.503 292.736 99.794 291.985 98.617 292.33C97.287 292.72 96.77 294.402 96.535 295.625C96.234 297.199 96.839 298.809 97.519 300.232C98.114 301.476 100.15 303.507 100.15 303.507ZM94.277 299.715C94.277 299.715 93.73 296.119 94.14 294.393C94.634 292.315 95.89 290.458 97.17 288.748C97.757 287.962 99.284 287.662 99.263 286.681C99.229 285.126 97.357 283.481 95.805 283.554C94.051 283.635 92.902 285.808 92.241 287.437C91.39 289.532 91.641 291.994 92.043 294.22C92.395 296.166 94.277 299.715 94.277 299.715ZM89.915 295.404C89.915 295.404 88.894 293.087 88.919 291.846C88.95 290.351 89.602 288.861 90.296 287.465C90.615 286.824 91.735 286.33 91.554 285.673C91.268 284.633 89.559 283.882 88.382 284.226C87.052 284.616 86.534 286.299 86.3 287.522C85.999 289.096 86.604 290.706 87.284 292.129C87.878 293.373 89.915 295.404 89.915 295.404ZM68.678 319.513C68.678 319.513 68.09 316.175 67.138 314.841C65.802 312.968 63.39 312.164 61.643 310.668C61.212 310.299 60.544 310.04 60.417 309.487C60.205 308.569 60.594 307.34 61.387 306.833C62.505 306.118 64.232 306.454 65.352 307.164C67.262 308.374 68.18 310.847 68.754 313.034C69.302 315.124 68.678 319.513 68.678 319.513ZM70.62 312.65C70.62 312.65 69.783 311.16 69.35 310.423C68.694 309.305 68.16 308.099 67.34 307.096C66.704 306.318 65.056 306.06 65.122 305.056C65.198 303.896 66.756 302.929 67.976 303.052C69.355 303.191 70.1 304.722 70.626 305.91C71.233 307.284 71.074 308.9 71.01 310.401C70.977 311.161 70.62 312.649 70.62 312.649V312.65Z" fill="#BFBFBF"/>
<path fill-rule="evenodd" clip-rule="evenodd" d="M72.467 307.688C72.467 307.688 71.947 305.334 71.358 304.303C70.5903 302.979 69.5696 301.82 68.354 300.89C67.775 300.445 66.549 300.579 66.394 299.915C66.151 298.864 67.297 297.388 68.495 297.13C69.85 296.838 71.105 298.07 71.894 299.034C72.908 300.274 73.142 301.979 73.221 303.554C73.291 304.931 72.467 307.688 72.467 307.688ZM73.621 300.482C73.621 300.482 73.033 297.145 72.081 295.811C70.744 293.938 68.333 293.134 66.586 291.638C66.155 291.268 65.487 291.01 65.36 290.456C65.148 289.538 65.537 288.309 66.33 287.802C67.448 287.088 69.175 287.424 70.295 288.134C72.205 289.344 73.122 291.817 73.697 294.004C74.245 296.093 73.621 300.482 73.621 300.482ZM65.435 329.426C65.435 329.426 64.802 328.006 64.466 327.304C64.113 326.567 63.814 325.797 63.366 325.114C62.659 324.032 60.734 323.418 60.888 322.134C60.993 321.257 62.137 320.471 63.016 320.555C64.205 320.669 64.959 322.098 65.44 323.197C65.995 324.467 65.85 325.961 65.791 327.348C65.761 328.051 65.435 329.426 65.435 329.426ZM66.492 323.302C66.492 323.302 66.054 321.496 65.559 320.706C64.926 319.696 64.042 318.796 63.031 318.089C62.545 317.748 61.513 317.85 61.383 317.341C61.178 316.535 62.143 315.403 63.151 315.205C64.291 314.981 65.347 315.927 66.01 316.665C66.863 317.616 67.06 318.923 67.126 320.132C67.185 321.188 66.492 323.302 66.492 323.302ZM63.593 335.242C63.593 335.242 63.053 332.168 62.181 330.938C60.956 329.213 58.745 328.472 57.144 327.094C56.749 326.754 56.137 326.514 56.02 326.004C55.826 325.159 56.183 324.027 56.91 323.559C57.934 322.901 59.517 323.211 60.544 323.865C62.294 324.98 63.136 327.258 63.662 329.274C64.164 331.198 63.593 335.242 63.593 335.242ZM60.53 345.156C60.53 345.156 59.737 343.794 59.368 343.098C58.903 342.222 58.642 341.224 58.043 340.434C57.353 339.524 55.433 339.279 55.5 338.138C55.563 337.072 56.995 336.172 58.11 336.285C59.372 336.413 60.053 337.828 60.534 338.926C61.09 340.196 60.945 341.69 60.886 343.078C60.856 343.78 60.53 345.156 60.53 345.156ZM61.792 339.34C61.792 339.34 61.354 337.535 60.859 336.744C60.226 335.734 59.342 334.835 58.331 334.127C57.845 333.786 56.813 333.888 56.683 333.38C56.478 332.573 57.443 331.442 58.451 331.243C59.591 331.019 60.647 331.965 61.31 332.703C62.163 333.655 62.36 334.962 62.426 336.17C62.485 337.226 61.792 339.34 61.792 339.34ZM59.473 353.29C59.473 353.29 58.885 349.953 57.933 348.618C56.597 346.746 54.185 345.942 52.438 344.446C52.007 344.076 51.339 343.817 51.212 343.264C51 342.346 51.389 341.117 52.182 340.61C53.3 339.895 55.027 340.232 56.147 340.942C58.057 342.152 58.975 344.624 59.549 346.812C60.097 348.9 59.473 353.29 59.473 353.29ZM56.14 360.564C56.14 360.564 55.204 360.068 54.796 359.734C54.206 359.254 53.77 358.607 53.23 358.07C52.575 357.42 51.206 357.11 51.2 356.185C51.197 355.465 52.046 354.701 52.766 354.697C53.949 354.689 54.782 356.083 55.371 357.11C55.675 357.64 55.636 358.3 55.768 358.896L56.14 360.564ZM57.287 357.08C57.287 357.08 56.849 355.274 56.354 354.483C55.721 353.473 54.837 352.574 53.826 351.866C53.34 351.525 52.308 351.627 52.178 351.119C51.973 350.312 52.938 349.181 53.946 348.982C55.086 348.758 56.142 349.704 56.805 350.442C57.658 351.394 57.855 352.701 57.921 353.909C57.98 354.965 57.287 357.08 57.287 357.08Z" fill="#BFBFBF"/>
<path d="M77.246 288.265C80.876 288.24 83.516 285.437 85.126 282.215C86.736 278.993 87.516 275.156 87.462 272.017C87.409 268.917 86.512 265.19 84.814 262.069C83.116 258.949 80.427 256.261 76.841 256.331C73.273 256.401 70.733 259.186 69.179 262.35C67.625 265.514 66.876 269.232 66.905 272.298C66.935 275.396 67.766 279.168 69.397 282.34C71.027 285.512 73.64 288.29 77.246 288.265ZM77.246 285.271C75.204 285.285 73.411 283.658 72.044 280.999C70.678 278.339 69.92 274.855 69.895 272.299C69.871 269.773 70.558 266.306 71.858 263.659C73.158 261.014 74.888 259.365 76.903 259.325C78.937 259.285 80.747 260.894 82.167 263.504C83.587 266.114 84.429 269.552 84.472 272.08C84.516 274.645 83.797 278.172 82.447 280.874C81.097 283.576 79.312 285.257 77.246 285.271Z" fill="#BFBFBF"/>
<path fill-rule="evenodd" clip-rule="evenodd" d="M78.492 271.8C78.492 271.8 80.962 273.738 82.229 273.296C82.862 273.076 83.315 272.214 83.226 271.55C83.109 270.675 82.236 269.744 81.357 269.679C80.173 269.59 78.492 271.8 78.492 271.8ZM75.875 272.049C75.875 272.049 74.807 274.249 73.757 274.543C72.872 274.791 71.427 274.544 71.141 273.67C70.871 272.848 71.841 271.888 72.636 271.55C73.642 271.122 75.875 272.049 75.875 272.049ZM77.744 274.419C77.744 274.419 81.106 276.553 81.233 278.286C81.343 279.781 80.226 281.835 78.741 282.028C77.311 282.214 75.791 280.573 75.501 279.158C75.151 277.446 77.744 274.418 77.744 274.418V274.419ZM77.495 269.429C77.495 269.429 79.567 266.129 79.115 264.439C78.825 263.359 77.739 262.131 76.623 262.194C75.183 262.276 73.737 263.994 73.757 265.437C73.784 267.261 77.495 269.429 77.495 269.429Z" fill="#BFBFBF" stroke="#BFBFBF" stroke-linecap="round" stroke-linejoin="round"/>
<path fill-rule="evenodd" clip-rule="evenodd" d="M213.584 279.792L199.369 286.647L205.819 271.701C205.819 271.701 204.748 274.96 205.784 275.897C206.957 276.957 210.497 275.377 210.497 275.377C210.497 275.377 208.967 278.369 209.811 279.461C210.583 280.461 213.584 279.791 213.584 279.791V279.792Z" fill="#404040" stroke="#404040" stroke-width="2" stroke-linecap="round" stroke-linejoin="round"/>
<path fill-rule="evenodd" clip-rule="evenodd" d="M203.675 288.664C203.985 288.725 204.195 289.311 203.98 289.536C203.77 289.756 203.173 289.596 203.084 289.309C202.998 289.034 203.385 288.607 203.675 288.664ZM197.424 281.982C197.658 282.162 197.632 282.658 197.394 282.833C197.191 282.983 196.776 282.89 196.637 282.687C196.526 282.525 196.628 282.261 196.773 282.124C196.93 281.976 197.253 281.85 197.424 281.982Z" stroke="#404040" stroke-width="2" stroke-linecap="round" stroke-linejoin="round"/>
<path fill-rule="evenodd" clip-rule="evenodd" d="M222.866 293.896L209.411 299.634L214.644 284.415C214.644 284.415 214.594 287.877 215.827 288.688C216.897 289.391 219.627 288.158 219.627 288.158C219.627 288.158 217.898 291.588 218.788 292.938C219.557 294.105 222.866 293.896 222.866 293.896Z" fill="#404040" stroke="#404040" stroke-width="2" stroke-linecap="round" stroke-linejoin="round"/>
<path fill-rule="evenodd" clip-rule="evenodd" d="M213.718 301.688C214.028 301.75 214.238 302.347 214.023 302.576C213.813 302.8 213.216 302.638 213.126 302.345C213.04 302.065 213.428 301.63 213.718 301.688ZM207.465 294.884C207.7 295.068 207.673 295.572 207.435 295.751C207.233 295.903 206.818 295.808 206.678 295.602C206.567 295.437 206.669 295.167 206.815 295.029C206.972 294.878 207.293 294.749 207.465 294.884Z" stroke="#404040" stroke-width="2" stroke-linecap="round" stroke-linejoin="round"/>
<path fill-rule="evenodd" clip-rule="evenodd" d="M237.269 257.249L223.827 264.751L227.941 250.596C227.941 250.596 227.656 253.96 228.871 254.57C230.373 255.325 233.495 252.555 233.495 252.555C233.495 252.555 231.12 256.036 232.134 257.353C233.18 258.71 237.269 257.249 237.269 257.249Z" fill="#404040" stroke="#404040" stroke-width="2.014" stroke-linecap="round" stroke-linejoin="round"/>
<path fill-rule="evenodd" clip-rule="evenodd" d="M226.395 266.545C226.638 266.603 226.803 267.158 226.635 267.371C226.469 267.579 226 267.428 225.929 267.156C225.862 266.895 226.166 266.49 226.395 266.545ZM221.303 260.743C221.488 260.913 221.467 261.383 221.28 261.549C221.12 261.69 220.794 261.603 220.685 261.411C220.597 261.257 220.678 261.007 220.792 260.877C220.915 260.737 221.168 260.617 221.303 260.743Z" stroke="#404040" stroke-width="2.014" stroke-linecap="round" stroke-linejoin="round"/>
<path fill-rule="evenodd" clip-rule="evenodd" d="M273.609 245.56L260.154 251.298L265.386 236.079C265.386 236.079 265.336 239.541 266.57 240.352C267.639 241.054 270.37 239.822 270.37 239.822C270.37 239.822 268.64 243.252 269.53 244.602C270.3 245.769 273.609 245.56 273.609 245.56Z" fill="#404040" stroke="#404040" stroke-width="2" stroke-linecap="round" stroke-linejoin="round"/>
<path fill-rule="evenodd" clip-rule="evenodd" d="M264.46 253.352C264.77 253.414 264.98 254.011 264.766 254.24C264.556 254.464 263.958 254.302 263.869 254.009C263.783 253.728 264.17 253.293 264.461 253.352H264.46ZM258.208 246.548C258.442 246.732 258.416 247.236 258.178 247.415C257.975 247.566 257.56 247.472 257.421 247.265C257.31 247.101 257.412 246.831 257.557 246.692C257.714 246.542 258.036 246.413 258.207 246.548H258.208Z" stroke="#404040" stroke-width="2" stroke-linecap="round" stroke-linejoin="round"/>
<path fill-rule="evenodd" clip-rule="evenodd" d="M258.104 234.446L244.649 240.184L249.882 224.966C249.882 224.966 249.832 228.426 251.065 229.238C252.135 229.941 254.865 228.708 254.865 228.708C254.865 228.708 253.136 232.138 254.025 233.488C254.795 234.655 258.105 234.446 258.105 234.446H258.104Z" fill="#404040" stroke="#404040" stroke-width="2" stroke-linecap="round" stroke-linejoin="round"/>
<path fill-rule="evenodd" clip-rule="evenodd" d="M248.956 242.238C249.266 242.3 249.476 242.897 249.261 243.126C249.051 243.35 248.454 243.188 248.364 242.895C248.278 242.615 248.665 242.18 248.956 242.238ZM242.703 235.434C242.937 235.618 242.911 236.122 242.673 236.301C242.471 236.453 242.056 236.358 241.916 236.152C241.805 235.987 241.907 235.718 242.052 235.579C242.209 235.429 242.532 235.299 242.703 235.434Z" stroke="#404040" stroke-width="2" stroke-linecap="round" stroke-linejoin="round"/>
<path d="M1 164.823V319.237M300 163.099V316.955" stroke="#404040" stroke-width="2" stroke-linecap="round"/>
</g>
<defs>
<clipPath id="clip0_1_1913">
<rect width="301" height="481" fill="white" transform="translate(0 0.5)"/>
</clipPath>
</defs>
</svg>
