<svg width="302" height="482" xmlns="http://www.w3.org/2000/svg"><g fill="none" fill-rule="evenodd"><path fill="#FF5" d="M177.811 223.668l-4.665-.09-1.166 10.454-1.076 13.518v18.385l.717 24.423 2.512 16.222 3.23 10.815-7.177 1.983-6.639 3.064 6.46 14.96 1.973 1.442 3.768-3.245 4.665.541 2.512-1.442 3.768-1.261 3.588.72-4.844-14.239-3.23-12.437-3.768-14.42-1.614-16.401.358-28.299zM124.433 258.14l4.665.09 1.166-10.454 1.077-13.519v-18.385l-.718-24.423-2.512-16.222-3.23-10.814 7.177-1.983 6.64-3.064-6.46-14.96-1.974-1.442-3.768 3.244-4.665-.54-2.512 1.441-3.768 1.262-3.588-.721 4.844 14.24 3.23 12.436 3.768 14.42 1.615 16.402-.36 28.298z"/><path d="M111.762 148.056s4.222 11.562 5.96 17.463c1.936 6.576 3.713 13.218 4.967 19.959a165.18 165.18 0 0 1 2.483 19.958c.38 6.142.08 12.308 0 18.462-.083 6.322-.204 12.645-.497 18.96-.23 4.996-.993 14.97-.993 14.97M190.005 333.987s-4.223-11.562-5.96-17.463c-1.937-6.576-3.714-13.218-4.967-19.959a165.18 165.18 0 0 1-2.484-19.958c-.38-6.142-.08-12.308 0-18.462.083-6.322.205-12.645.497-18.96.23-4.995.993-14.969.993-14.969" stroke="#55A" stroke-width="2" stroke-linecap="round" stroke-linejoin="round"/><path fill="#000" d="M190.983 224.397l-17.88-.25-1.063 10.687-13.465-.583.248-10.603-14.28.125-.745 10.728-12.541-.749.62-17.713v-12.973l46.813 1.622z"/><path fill="#F55" d="M130.439 188.49l13.623-5.668 11.421-6.36 8.67-7.74 6.742-7.327 4.266-5.53 24.906.554-6.33 11.059-5.916 12.026-5.23 12.994-3.577 12.718-47.337-1.383-.412-6.911z"/><path fill="#000" d="M241.244 146.317l15.658-14.377 15.995 14.884 6.566 6.597 19.53 20.465.506 29.092-10.944 7.95z"/><path fill="#55A" d="M201.993 223.393l3.297-14.014 2.79-12.74 38.808 50.196-6.849 9.427-10.146 14.27-5.326 10.191L220 291.17l-4.565 11.212-5.073-13.76-3.805-11.72-3.55-18.601-2.03-10.447v-9.173z"/><path fill="#000" d="M226.85 318.434l72.034-31.85v9.428l-61.381 36.182-6.088-7.644z"/><path fill="#FF5" d="M223.09 169.652l3.425-5.448 43.101 59.356-3.71 4.014z"/><path fill="#F55" d="M226.8 163.918l4.853-6.595 4.853-6.309 46.811 63.37 16.27-11.183v12.617l-16.27 10.036-18.553 15.197-14.843 15.197-10.561 14.91-9.705 17.492-6.85 15.197-2.855 6.882-4.852-8.889 4.567-12.043 11.703-21.219 9.42-12.903 8.562-11.47 10.276-10.036 5.709-6.308 4.852-3.728zM266.61 294.165l4.132-9.53 5.968-8.456 5.815-6.61 5.968-5.38 6.58-5.073 4.744-3.536v24.443z"/><path fill="#FF5" d="M222.19 313.12l28.627-11.806 3.017-7.612 4.997-9.185 5.974-10.581 10.355-13.277 10.108-8.45 7.942-5.008 6.1-3.643.766-24.643-3.805 1.799-11.638 7.644-14.324 10.792-12.534 11.242-11.862 14.614-8.952 13.715-8.281 16.638-6.715 16.413z"/><path d="M222.463 313.983l76.421-33.77" stroke="#000" stroke-width="2" fill="#000" stroke-linecap="round" stroke-linejoin="round"/><g stroke-linecap="round" stroke-linejoin="round" stroke-width="2"><path d="M104.016 34.282s-.705 6.132.593 8.749c.585 1.177 2.319 1.443 2.97 2.584.9 1.58.99 5.37.99 5.37s5.408-.283 8.114-.399c5.475-.233 10.953-.816 16.429-.596 3.982.16 7.968.604 11.876 1.392 5.384 1.085 10.661 2.72 15.834 4.573 5.207 1.864 10.055 4.643 15.241 6.562 3.76 1.39 7.565 2.725 11.48 3.579 3.575.78 7.241 1.089 10.887 1.392 3.421.284 6.86.487 10.292.397 2.914-.076 8.71-.795 8.71-.795s3.246-1.463 3.562-2.983c.332-1.595-2.074-2.747-2.177-4.374-.089-1.402 1.726-2.615 1.385-3.977-.261-1.046-2.375-2.187-2.375-2.187s-14.182-.671-21.179-1.79c-5.958-.952-11.873-2.316-17.616-4.175-5.096-1.65-9.804-4.349-14.845-6.164-4.675-1.684-9.368-3.458-14.25-4.375-5.333-1-10.81-.994-16.231-1.193-4.814-.176-9.65-.399-14.45 0-4 .333-11.876 1.989-11.876 1.989l-3.364-3.58z" stroke="#55A" fill="#F55"/><path d="M110.745 41.837s14.764-1.812 22.169-1.59c7.583.227 15.229 1.039 22.564 2.982 7.985 2.116 15.147 6.662 22.96 9.346 5.772 1.982 11.6 3.96 17.617 4.97 5.67.953 17.22.995 17.22.995" stroke="#000"/><path d="M112.725 46.41s13.2-.9 19.793-.596c7.039.326 14.164.795 20.98 2.585 8.073 2.12 15.297 6.738 23.16 9.544 5.585 1.994 11.194 4.077 17.021 5.17 4.293.805 8.697 1.006 13.064.994 2.45-.006 7.323-.596 7.323-.596" stroke="#000"/></g><path d="M88.417 1.361c9.66 17.167 9.017 19.439 18.676 36.605 10.382-3.769 29.39-2.723 43.827-.48 11.96 1.86 22.694 8.672 34.487 11.4 10.5 2.43 22.096 4.368 32.03 4.368L245.37 1.361H88.417z" stroke="#55A" stroke-width="2" fill="#FF5"/><path d="M142.792 30.139c1.628.009 3.26-.12 4.748-.48.81-.197 1.507-.526 2.21-.9 1.175-.626 2.012-1.629 3.316-2.23-.576 2.123-2.442 3.21-4.083 4.315-1.475.993-3.194 1.624-4.965 1.937-1.906.336-3.95.355-5.857-.105-2.245-.541-4.37-1.674-6.207-3.037-1.246-.926-2.46-2.023-3.123-3.387-.357-.732-.379-1.755-.369-2.384.712 1.133 1.666 2.467 2.98 3.42 1.32.958 2.99 1.665 4.666 2.123 2.173.594 4.476.715 6.684.728z" fill="#000"/><path d="M125.414 21.043c-.685-.564-.525-2.41.28-3.232.233-.238.712-.335 1.048-.218.945.33 1.56 1.335 1.618 2.205.035.549-.644.957-.832 1.482-.163.455-.245 1.416-.245 1.416 1.003 1.208 1.473 2.684 2.93 3.15 2.17.694 5.3.346 6.814-1.115 1.398-1.35 1.075-3.687.382-5.407-.47-1.165-1.502-2.369-2.866-2.807-1.235-.396-2.634.163-3.895.46 1.147-1.521 2.442-3.293 2.133-5.086-.297-1.718-1.893-3.296-3.62-4.258-.727-.405-1.685-.36-2.542-.472-1.693.309-3.535.96-4.494 2.17-.966 1.219-.836 2.913-.68 4.387.12 1.13.722 2.196 1.221 3.255-1.003-.57-2.27-.886-3.411-.7-2.16.35-4.714 1.456-5.327 3.235-.591 1.714.721 3.838 2.317 5.047 1.475 1.118 3.823 1.75 5.72 1.291 1.594-.385 2.226-1.95 3.47-3.085l-.021-1.718z" fill="#000"/><path d="M112.475 30.19c-1.299.01-2.604-.01-3.788-.48-1.234-.488-2.105-1.626-3.225-2.339-.836-.532-1.531-1.488-2.599-1.44.46 2.123 2.845 3.618 4.673 4.965 1.184.873 2.548 1.624 3.961 1.937 1.52.336 3.152.355 4.674-.105 1.791-.541 3.487-1.674 4.952-3.037.995-.926 1.801-2.167 2.493-3.387.627-1.104 1.483-2.884 1.475-3.513-1.467.116-2.103 3.291-3.558 4.55a11.42 11.42 0 0 1-3.724 2.122c-1.734.594-3.571.715-5.334.728z" fill="#000"/><path d="M102.485 24.034c.059-.68.536-.671.53-1.5-.005-.823-1.21-1.4-2.009-1.351-.284.017-.707 1.146-.79 1.427l-4.406-9.443a8.705 8.705 0 0 1 1.071-1.006c.652-.207 1.3-.606 1.974-.512 1.6.224 3.365 1.028 4.242 2.417.915 1.45.68 3.448.454 5.177.781-.705 1.55-1.675 2.581-1.768 1.138-.103 2.338.573 3.123 1.42 1.16 1.25 2.303 3.182 1.833 4.851-.51 1.808-2.606 3.016-4.403 3.366-1.338.26-2.744-.42-3.924-1.114M153.575 24.818c-.581-.672-.116-2.465.816-3.14.27-.195.757-.21 1.069-.039.877.484 1.316 1.58 1.227 2.447-.056.547-.794.835-1.067 1.32-.237.422-.478 1.356-.478 1.356.787 1.36 1.004 2.894 2.363 3.599 2.023 1.048 5.166 1.233 6.904.047 1.603-1.094 1.674-3.453 1.278-5.266-.269-1.228-1.085-2.588-2.357-3.25-1.151-.598-2.624-.283-3.916-.203 1.384-1.306 2.957-2.834 2.95-4.654-.005-1.744-1.315-3.568-2.857-4.807-.65-.522-1.602-.638-2.427-.893-1.721.019-3.646.35-4.793 1.381-1.156 1.04-1.31 2.732-1.402 4.212-.07 1.134.345 2.286.66 3.414-.893-.731-2.09-1.255-3.246-1.265-2.187-.019-4.89.643-5.791 2.293-.87 1.59.07 3.905 1.442 5.366 1.267 1.35 3.477 2.37 5.425 2.236 1.635-.112 2.519-1.547 3.935-2.458l.265-1.696z" fill="#000"/><path d="M166.505 35.639c1.407.32 2.913.386 4.325.093 1.243-.258 2.332-1.009 3.46-1.59 1.283-.661 2.444-1.947 3.754-2.154-1.062 1.873-3.61 4.875-6.247 6.09-1.489.687-3.247.648-4.896.443-1.773-.22-3.586-.784-5.153-1.769-1.845-1.159-3.43-2.85-4.7-4.68-.86-1.244-1.648-2.642-1.88-4.138-.125-.804.122-1.791.294-2.392.335 1.29.832 2.84 1.745 4.129.918 1.295 2.212 2.448 3.575 3.365 1.768 1.189 3.681 2.137 5.723 2.603z" fill="#000"/><path d="M180.782 30.706c.804-.312 1.328-2.075.918-3.09-.118-.293-.503-.532-.84-.528-.946.013-1.848.756-2.211 1.547-.23.498.22 1.088.195 1.633-.021.475-.295 1.392-.295 1.392-1.314.81-2.257 2.036-3.703 2.016-2.15-.03-4.769-1.324-5.57-3.152-.74-1.687.385-3.758 1.613-5.14.83-.936 2.168-1.734 3.521-1.717 1.226.015 2.25.969 3.249 1.636-.458-1.768-.955-3.816-.038-5.385.879-1.504 2.845-2.473 4.706-2.83.783-.151 1.606.189 2.397.35 1.374.813 2.754 1.99 3.159 3.41.407 1.433-.317 2.966-.985 4.287-.511 1.012-1.423 1.815-2.242 2.644 1.085-.219 2.343-.21 3.242.408 1.453.997 2.63 2.897 2.515 4.66-.105 1.63-1.374 3.302-2.859 3.968-1.677.752-3.98.438-5.48-.578-1.257-.853-1.248-2.502-1.93-3.943l.638-1.588z" fill="#000"/><path d="M191.498 41.701c1.382.252 2.848.245 4.205-.116 1.193-.318 2.25-1.067 3.282-1.756 1.124-.751 1.879-2.303 3.14-2.572-.939 1.921-2.9 5.223-5.367 6.625-1.387.788-3.122.803-4.733.679-1.732-.134-3.521-.61-5.091-1.517-1.849-1.068-3.472-2.681-4.794-4.448-.898-1.2-1.732-2.558-2.031-4.041-.16-.797.03-1.795.168-2.403.389 1.271.948 2.797 1.898 4.039.955 1.249 2.268 2.338 3.638 3.188 1.775 1.102 3.68 1.956 5.685 2.322z" fill="#000"/><path d="M204.402 36.171c.722-.397 1.037-2.206.55-3.17-.14-.28-.526-.476-.84-.435-.889.114-1.66.95-1.921 1.775-.165.52.315 1.059.348 1.604.028.473-.137 1.415-.137 1.415-1.151.947-1.924 2.304-3.271 2.403-1.855.137-4.035-.977-4.936-2.61-.84-1.523-.489-3.706.387-5.208.633-1.086 1.86-1.957 3.132-2.086 1.151-.117 2.209.72 3.213 1.276-.608-1.708-1.28-3.69-.578-5.35.673-1.59 2.421-2.765 4.13-3.32.72-.234 1.527.015 2.286.09 1.37.66 2.784 1.682 3.307 3.051.526 1.38.002 2.982-.493 4.368-.378 1.061-1.152 1.958-1.837 2.87.995-.334 1.87-.975 2.882-.956 1.173.022 2.78.177 3.3 1.234 1.104 2.239-.097 5.794-2.173 7.17-1.327.88-3.243.012-4.743-.518-1.136-.402-2.26-.596-3.045-1.955l.439-1.648z" fill="#000"/><path d="M211.754 44.57c-1.226-.105-2.517-.422-3.497-1.167-1.046-.796-1.432-2.211-2.208-3.274-.591-.811-.878-1.79-1.864-2.365.274 2.082.811 5.583 2.573 7.582.93 1.055 2.405 1.555 3.79 1.84 1.49.305 3.117.296 4.677-.181 1.837-.563 3.63-1.706 5.212-3.072 1.075-.927 2.138-2.023 2.785-3.373.348-.725.455-1.732.502-2.35-.666 1.123-1.543 2.449-2.673 3.404-1.136.96-2.529 1.678-3.905 2.15-1.784.614-3.61.957-5.392.806z" fill="#000"/><path d="M224.165 37.219c.194-.717.012-.822.278-1.677.263-.85.9-1.158 1.185-.917.102.086-.098 1.354-.156 1.663l4.66-8.706a12.832 12.832 0 0 0-.083-1.296c-.18-.368-.297-.936-.58-1-.673-.15-1.593.26-2.365 1.486-.805 1.28-1.352 3.4-1.817 5.24-.07-.914-.81-.663-1.294-.662-1.08.002-2.188.656-2.878 1.49-1.081 1.304-1.942 3.243-1.468 4.872.242.83 1.137 1.433 1.96 1.685.587.18 1.165.221 1.83-.215M105.135 32.25s6.566 2.2 9.939 1.996c4.233-.256 12.086-3.994 12.086-3.994s8.259 3.972 12.721 4.314c4.293.328 12.722-2.237 12.722-2.237s6.758 6.094 10.973 7.349c4.193 1.247 13.12-.16 13.12-.16s5.54 6.93 9.54 8.067c5.003 1.421 15.426-2.316 15.426-2.316s7.173 5.036 11.29 5.032c2.409-.002 6.6-2.955 6.6-2.955l-2.704 4.993c-5.675-.182-9.925-.507-15.743-1.404-5.813-.897-11.663-1.747-17.333-3.317-5.364-1.484-10.444-3.856-15.68-5.742-4.201-1.514-8.303-3.364-12.626-4.473-3.265-.838-6.637-1.194-9.979-1.631-2.849-.373-5.71-.669-8.577-.845-4.363-.27-8.739-.398-13.11-.328-2.86.045-5.664.222-8.638.559-2.578.292-7.507 1.702-7.507 1.702l-2.52-4.61z" fill="#000"/><path d="M135.068 143.467c2.383.247 5.255-.654 7.882-3.192l6.392-8.165 4.157-4.573 3.76 3.38 6.137 2.187-4.75 9.147-8.314 8.55-8.511 6.363-3.573 2.784-2.563-5.767-1.976-4.893-1.389-4.054 2.748-1.767z" fill="#F55"/><g stroke="#55A" stroke-linecap="round" stroke-linejoin="round" stroke-width="2"><path d="M154.489 54.762c.861 8.663 3.123 17.103 5.085 25.567 2.67 11.517 8.717 22.461 9.09 34.28.128 4.08 1.25 10.187-2.386 12.006-2.822 1.412-8.555.43-8.52-4.129.03-3.734 5.61-5.662 6.825-1.71"/><path d="M159.635 56.95c2.226 12.531 7.194 24.396 9.902 36.813 2.031 9.315 5.567 19.235 4.745 28.206-.426 4.654-4.452 10.674-9.235 11.11-5.53.504-12.699-3.338-12.804-10.704-.067-4.664 5.628-9.79 10.36-9.751 2.847.023 4.607 3.53 6.137 5.965"/><path d="M164.781 58.938c1.89 11.061 6.276 21.514 8.898 32.405 2.365 9.821 7.541 19.667 6.157 29.675-.53 3.836-2.676 7.493-5.356 10.297"/><path d="M171.495 61.523c1.74 10.587 5.783 20.633 8.198 31.07 2.18 9.42 6.958 18.866 5.673 28.452-.489 3.65-2.436 7.155-4.935 9.872"/><path d="M177.015 63.61c1.74 10.326 5.782 20.098 8.198 30.269 2.18 9.175 6.952 18.374 5.673 27.719-.489 3.573-2.456 6.989-4.935 9.617"/><path d="M182.953 66.295c1.743 9.978 5.781 19.382 8.198 29.2 2.178 8.847 6.943 17.716 5.673 26.74-.488 3.473-2.482 6.767-4.935 9.279"/><path d="M188.7 66.295c1.743 9.978 5.782 19.382 8.199 29.2 2.178 8.847 6.942 17.716 5.673 26.74-.489 3.473-2.483 6.767-4.936 9.279"/><path d="M194.242 67.687c1.745 9.775 5.781 18.965 8.199 28.577 2.177 8.655 6.936 17.333 5.673 26.17-.488 3.413-2.499 6.636-4.935 9.08"/><path d="M199.983 68.78c1.745 9.602 5.757 18.614 8.198 28.043 2.16 8.347 6.842 16.683 5.702 25.23-.467 3.505-2.438 6.878-4.964 9.361"/><path d="M205.129 68.581c1.745 9.602 5.757 18.614 8.198 28.043 2.161 8.347 6.842 16.683 5.702 25.23-.467 3.505-2.438 6.878-4.964 9.361"/><path d="M210.275 68.979c1.745 9.602 5.757 18.614 8.198 28.043 2.161 8.346 6.842 16.683 5.703 25.23-.468 3.505-2.438 6.878-4.965 9.361"/><path d="M215.62 68.78c1.745 9.602 5.756 18.614 8.197 28.043 2.161 8.347 6.842 16.683 5.703 25.23-.467 3.505-2.438 6.878-4.965 9.361"/></g><path d="M164.054 134.14s-2.89 4.993-4.637 7.278c-2.791 3.65-5.87 7.11-9.275 10.19-2.721 2.46-5.684 4.684-8.84 6.55-2.7 1.599-5.65 2.732-8.549 3.931-2.331.965-7.1 2.62-7.1 2.62M168.691 131.955h87.816M126.423 146.367l4.927 14.703M119.566 147.677s3.37 11.262 5.072 16.887c.72 2.38 1.554 4.726 2.174 7.133 1.458 5.667 2.842 11.377 3.623 17.178.648 4.817.747 9.697.87 14.557.25 10.042-.29 30.134-.29 30.134" stroke="#55A" stroke-width="2" stroke-linecap="round" stroke-linejoin="round"/><path d="M127.111 172.347s8.779-3.137 12.888-5.308a72.666 72.666 0 0 0 11.737-7.716c3.007-2.432 5.74-5.215 8.26-8.152 1.716-2 3.162-4.22 4.638-6.405 1.218-1.805 3.477-5.532 3.477-5.532s28.307.157 42.46 0c6.57-.073 19.707-.437 19.707-.437s-9.84 10.564-14.201 16.305c-2.813 3.701-5.342 7.625-7.68 11.646-2.463 4.234-4.713 8.606-6.666 13.101-1.834 4.218-3.297 8.593-4.725 12.966-1.315 4.03-2.764 8.048-3.535 12.218-1.151 6.225-1.594 18.925-1.594 18.925l-12.752-18.779s2.192-9.32 3.767-13.83c1.412-4.04 3.3-7.897 5.072-11.791 1.986-4.362 3.97-8.731 6.231-12.956 1.97-3.68 6.376-10.772 6.376-10.772h-25.649s-4.546 5.63-6.985 8.297c-2.675 2.927-5.351 5.883-8.375 8.443a72.835 72.835 0 0 1-10.289 7.28c-3.23 1.888-6.727 3.28-10.144 4.803-2.87 1.28-8.694 3.64-8.694 3.64l-3.324-15.946z" stroke="#55A" stroke-width="2" fill="#FF5" stroke-linecap="round" stroke-linejoin="round"/><path d="M211.527 139.535l-10.956 16.149M214.918 156.412l-13.912-.291M193.906 167.039l13.911.436M188.544 179.558l12.317.146M183.327 192.514l13.042-.291M179.994 205.616l12.607-.291" stroke="#55A" stroke-width="2" stroke-linecap="round" stroke-linejoin="round"/><path d="M229.061 336.07s-5.155-7.633-7.622-11.52c-2.192-3.453-4.43-6.884-6.377-10.482-3.042-5.626-5.935-11.362-8.26-17.323-2.563-6.574-4.508-13.39-6.23-20.235-1.099-4.364-1.876-8.806-2.609-13.247-.773-4.685-1.623-9.38-1.884-14.12a165.373 165.373 0 0 1 .58-25.33c.632-6.386 1.699-12.754 3.343-18.955 1.173-4.425 2.917-8.682 4.627-12.926 1.63-4.047 3.4-8.042 5.362-11.937 2-3.975 4.274-7.806 6.52-11.646 2.154-3.681 4.218-7.428 6.666-10.918 4.394-6.263 9.368-12.101 14.347-17.906 2.19-2.553 6.82-7.434 6.82-7.434l12.018-.136s-10.617 8.821-15.505 13.684c-2.212 2.2-4.243 4.582-6.232 6.988-3.037 3.673-5.905 7.488-8.694 11.355-1.51 2.092-3.015 4.195-4.348 6.405a203.907 203.907 0 0 0-10.143 19.07 101.849 101.849 0 0 0-3.865 9.56 110.204 110.204 0 0 0-3.1 10.539c-1.163 4.845-2.271 9.733-2.744 14.693-.825 8.647-.797 17.396-.145 26.058.42 5.584 1.446 11.118 2.608 16.595 1.204 5.673 2.734 11.281 4.512 16.8 1.84 5.707 3.982 11.322 6.356 16.828a76.973 76.973 0 0 0 3.333 6.842c.972 1.752 2.075 3.43 3.188 5.095 1.408 2.104 2.9 4.151 4.41 6.183 3.323 4.473 10.226 13.22 10.226 13.22l-7.158 4.2z" stroke="#55A" stroke-width="2" fill="#FF5" stroke-linecap="round" stroke-linejoin="round"/><path stroke="#55A" stroke-width="2" stroke-linecap="round" stroke-linejoin="round" d="M257.376 131.81l15.65 14.703 7.826 8.298 18.549 19.652"/><path stroke="#55A" stroke-width="2" fill="#FF5" stroke-linecap="round" stroke-linejoin="round" d="M300.007 11.061L272.42 38.442l1.025 108.338 26.56 28.239z"/><path stroke="#55A" stroke-width="2" fill="#F55" stroke-linecap="round" stroke-linejoin="round" d="M280.128 153.937l.081-112.818 19.798-17.911v151.961z"/><path d="M272.012 55.941l-5.534-1.647s-4.025-3.946-5.738-6.176c-2.813-3.663-6.012-7.316-7.377-11.734-.791-2.558-.311-8.03-.311-8.03s-6.21 6.277-8.755 9.865a49.876 49.876 0 0 0-5.28 9.488c-1.303 3.1-2.167 6.385-2.869 9.676-.696 3.263-1.274 6.587-1.316 9.925-.052 4.126.34 8.3 1.316 12.309.669 2.748 1.861 5.352 3.074 7.906 1.307 2.751 2.843 5.397 4.509 7.946 1.874 2.868 6.148 8.235 6.148 8.235s1.939-5.2 3.279-7.618c2.268-4.09 4.856-8.063 7.992-11.528 1.989-2.198 4.014-4.672 6.763-5.765 1.272-.505 4.099-.206 4.099-.206V55.941z" stroke="#55A" stroke-width="2" stroke-linecap="round" stroke-linejoin="round"/><path d="M266.683 78.793s-1.691-3.08-2.263-4.735c-.646-1.871-1.179-3.821-1.295-5.799a25.575 25.575 0 0 1 .837-8.112c.574-2.124 2.721-6.01 2.721-6.01s-5.071-4.732-7.205-7.451c-2.458-3.133-6.369-10.114-6.369-10.114s-4.157 4.884-5.812 7.617c-1.654 2.732-3.051 5.649-4.059 8.682-1.125 3.385-1.808 6.932-2.172 10.482a37.482 37.482 0 0 0 0 7.823c.31 2.864.889 5.725 1.845 8.44.764 2.17 1.993 4.147 3.074 6.177 1.04 1.951 2.06 3.92 3.279 5.764 1.144 1.731 3.771 4.95 3.771 4.95s3.75-7.058 6.197-10.188c2.175-2.783 7.451-7.526 7.451-7.526z" stroke="#55A" stroke-width="2" fill="#FF5" stroke-linecap="round" stroke-linejoin="round"/><path d="M260.535 49.56s-2.65 3.391-3.484 5.352c-.93 2.19-1.304 4.598-1.603 6.96-.41 3.23-.668 6.536-.25 9.764.347 2.678 1.06 5.36 2.263 7.775.82 1.642 3.296 4.406 3.296 4.406" stroke="#55A" stroke-width="2" stroke-linecap="round" stroke-linejoin="round"/><path d="M257.871 44.413h-4.304c.31 3.405 1.032 6.645 2.665 9.47-2.898.036-5.548.487-8.198 1.853 1.47 3.47 4.512 5.03 6.81 6.259-2.6.874-5.612 2.662-7.468 4.532 2.212 2.2 4.919 3.735 7.626 4.855-2.682 1.383-5.364 3.099-7.137 5.645 2.154 1.582 6.044 2.998 8.777 3.001-2.247 2.525-3.254 4.718-4.509 7.824l4.713.411" stroke="#55A" stroke-width="2" stroke-linecap="round" stroke-linejoin="round"/><path d="M133.514 99.535s2.481-.383 3.331-.165c.85.219 1.287.55 1.66 1.1.667.985.871 2.306.732 3.499-.15 1.275-.64 2.706-1.628 3.472-1.555 1.207-3.797 1.207-5.688.933-1.828-.265-3.37-1.55-5.009-2.425-1.106-.591-2.103-1.41-3.252-1.906-1.272-.55-2.598-1.133-3.98-1.167-.848-.021-2.222-.26-2.494.595-.205.644.682 1.224 1.257 1.51 1.556.773 3.498-.185 5.187.183 1.846.402 3.455 1.582 5.25 2.179 1.685.559 3.386 1.464 5.157 1.304 1.459-.131 3.001-.741 4.061-1.824.715-.73 1.161-1.814 1.257-2.853.099-1.075-.12-2.281-.742-3.125-.782-1.06-2.425-1.821-3.37-1.908-.946-.086-1.73.598-1.73.598zM120.604 90.857c1.097-.24 2.531 1.296 3.03 2.29.653 1.304-.143 3.325-1.241 4.215-1.48 1.202-3.791.759-5.575.199-1.49-.469-2.381-2.24-3.831-2.833-.878-.36-1.98-.876-2.798-.381-.484.292-.904 1.091-.672 1.63.33.766 1.497.544 2.267.732 1.058.257 2.177.202 3.216.536 1.18.379 2.132 1.524 3.359 1.644 1.39.135 3.066-.052 4.06-1.1 1.071-1.13 1.677-3.149 1.167-4.663-.413-1.226-2.982-2.269-2.982-2.269z" stroke="#55A" stroke-width="2" fill="#55A" stroke-linecap="round" stroke-linejoin="round"/><path d="M110.378 51.057s-.294 5.544 0 8.293c.277 2.587 1.336 5.046 1.651 7.629.227 1.867.51 3.79.165 5.639-1.354 7.256-6.511 13.317-8.585 20.4-.362 1.238-1.199 2.643-.66 3.814 1.178 2.566 5.618 2.021 7.264 4.312 1.219 1.698 1.319 4.044 1.32 6.137.001.792-.495 2.322-.495 2.322 2.477-.118 4.76.335 7.1.497 2.783.193 6.212.084 8.09 2.157.45.497.33 1.99.33 1.99s-2.548-1.566-3.963-1.99c-3.61-1.084-7.453-.428-11.226-1.327-.645-.154.115 1.88.165 2.82.123 2.32.558 4.652.33 6.965-.09.907-.66 2.654-.66 2.654M117.865 59.723c.49-.72 5.23-.359 7.83-.269 3.13.108 6.339.01 9.308.971 3.373 1.093 6.327 3.26 9.225 5.31 1.11.784 3.098 2.653 3.098 2.653s-5.566-4.157-8.75-5.553c-2.457-1.076-5.14-1.697-7.829-2.107-2.628-.4-5.36-.091-8.018-.33-1.635-.146-5.806.708-4.864-.675zM123.382 66.84s6.328-.039 9.345.781c4.403 1.198 12.349 5.924 12.349 5.924M121.15 71.62s6.111-.931 9.074-.31c4.465.936 12.349 5.923 12.349 5.923M119.933 80.81c3.671.446 5.118 4.47 8.344 5.587" stroke="#55A" stroke-width="2" stroke-linecap="round" stroke-linejoin="round"/><path d="M139.71 78.496s-2.604-3.194-4.276-4.338c-1.237-.846-2.657-1.482-4.124-1.776-1.926-.387-3.958-.279-5.897.062-1.223.215-2.343.84-3.523 1.235-.478.16-1.441.457-1.441.457s1.122 2.568 2.045 3.587c.903.996 2.082 1.786 3.288 2.328 1.757.79 3.685 1.38 5.599 1.28 2.92-.153 8.33-2.835 8.33-2.835h0z" stroke="#55A" stroke-width="2" stroke-linecap="round" stroke-linejoin="round"/><path d="M124.264 76.21c.26-2.012 2.549-3.372 5.112-3.038 2.564.335 4.432 2.237 4.172 4.249-.26 2.012-2.549 3.372-5.113 3.038-2.563-.334-4.431-2.236-4.171-4.249z" stroke="#55A" stroke-width="2.002" stroke-linecap="round" stroke-linejoin="round"/><path d="M126.047 76.277c.108-.838.95-1.42 1.878-1.299.93.122 1.595.9 1.487 1.738-.108.838-.95 1.42-1.879 1.298-.929-.12-1.595-.899-1.486-1.737z" stroke="#55A" stroke-width="2.011" fill="#55A" stroke-linecap="round" stroke-linejoin="round"/><path d="M118.626 68.717c1.088.728 1.088 2.822 1.632 4.234" stroke="#55A" stroke-width="2" stroke-linecap="round" stroke-linejoin="round"/><path fill="#000" d="M208.694 151.023l3.779-6.476 8.002-1.116-4.224 6.699zM198.937 161.553l6.13-4.275 4.972 4.317-6.453 4.198zM192.474 173.593l6.13-4.275 4.972 4.317-6.453 4.197zM187.14 185.874l6.13-4.275 4.971 4.317-6.453 4.197zM182.525 199.355l5.5-5.068 5.505 3.603-5.828 5.035zM192.635 146.829l5.184-5.473 4.628 5.456-4.983 6.274zM181.062 147.11l4.607-5.971 5.153 4.958-4.327 6.747zM168.34 149.524l2.973-6.939 6.224 3.506-2.51 7.62zM160.468 160.737l-.2-7.552 7.113.557.907 7.974zM151.725 168.91l-.026-7.555 7.1.723.722 7.993zM141.674 174.724l2.003-7.282 6.643 2.62-1.45 7.892zM131.357 179.547l2.41-7.156 6.484 2.994-1.894 7.797z"/><path d="M209.328 197.776l37.54 48.914" stroke="#55A" stroke-width="2" fill="#FF5" stroke-linecap="round" stroke-linejoin="round"/><path d="M265.9 227.574l-43.192-58.475c-4.963 6.59-7.842 13.48-11.316 20.668l40.441 51.977 14.068-14.17z" stroke="#55A" stroke-width="2" fill="#000" stroke-linecap="round" stroke-linejoin="round"/><path d="M226.798 164.545l43.414 59.743M236.833 151.85l46.833 62.729M241.294 146.995l47.09 64.023M283.838 214.838l15.439-11.461" stroke="#55A" stroke-width="2" fill="#FF5" stroke-linecap="round" stroke-linejoin="round"/><path d="M269.988 224.51s-2.827 2.28-4.162 3.51c-4.65 4.281-9.005 8.879-13.382 13.442-1.946 2.03-3.911 4.048-5.725 6.198a179.457 179.457 0 0 0-9.886 12.845c-2.838 4.057-5.413 8.296-7.953 12.547-2.153 3.603-4.25 7.243-6.17 10.977a94.434 94.434 0 0 0-2.974 6.347c-1.36 3.207-3.717 9.768-3.717 9.768" stroke="#55A" stroke-width="2" stroke-linecap="round" stroke-linejoin="round"/><path d="M212.302 214.205l25.646 33.605s-8.487 10.875-12.116 16.728c-3.569 5.756-9.442 17.997-9.442 17.997s-4.245-9.283-5.575-14.189c-1.68-6.2-2.541-12.632-2.973-19.042-.41-6.086-.416-12.248.371-18.296.745-5.717 4.089-16.803 4.089-16.803z" stroke="#55A" stroke-width="2" fill="#FFF" stroke-linecap="round" stroke-linejoin="round"/><path d="M216.39 231.008s-.97 9.707-.743 14.562c.282 6.006 2.603 17.848 2.603 17.848l10.406-15.981-12.266-16.43z" fill="#55A"/><path d="M218.233 181.068c1.446-.648 3.126-1.183 4.674-.85 2.826.611 5.402 2.621 7.146 4.936 1.677 2.225 2.288 5.165 2.68 7.927.315 2.223-.322 4.485-.298 6.73.017 1.5.02 3.015.298 4.487.213 1.131 1.042 3.29 1.042 3.29s.52-3.335 1.49-4.636c.79-1.063 1.981-1.97 3.274-2.243 1.334-.282 2.814.11 4.02.748 1.056.558 2.075 1.435 2.531 2.542.336.815.301 1.817 0 2.646-.237.653-.719 1.284-1.338 1.594-.518.26-1.734.097-1.734.097s.87-1.481.69-2.243c-.23-.982-1.127-1.88-2.084-2.187-.915-.294-2.106-.093-2.829.542-1.063.934-1.286 2.62-1.34 4.038-.047 1.232.318 2.5.893 3.59.593 1.122 1.472 2.147 2.531 2.841 1.88 1.231 4.24 1.493 6.402 2.094 1.718.477 3.6.432 5.211 1.196 1.248.592 2.251 1.614 3.275 2.543 1.016.922 2.076 1.843 2.83 2.991.623.951 1.111 2.025 1.34 3.141.189.928.18 1.912 0 2.842-.28 1.426-.799 2.854-1.639 4.038-.306.431-1.19 1.047-1.19 1.047s.698-2.381.595-3.59a6.399 6.399 0 0 0-1.042-2.991c-.48-.711-1.134-1.398-1.938-1.692-.839-.306-1.813-.178-2.678.047-.58.151-1.213.379-1.585.85-.52.66-.621 1.6-.644 2.44-.01.407.105.815.248 1.197.187.5.786 1.394.786 1.394s-1.742-.375-2.378-.946c-.629-.564-.986-1.42-1.19-2.243-.254-1.016-.3-2.138 0-3.14a4.62 4.62 0 0 1 1.44-2.192c.635-.526 1.472-.798 2.281-.95.635-.119 1.936.047 1.936.047s-2.15-1.02-3.276-1.393c-1.406-.466-2.902-.61-4.317-1.047-1.216-.375-2.386-.888-3.573-1.346-1.145-.44-2.371-.716-3.425-1.346-1.06-.633-2.003-1.473-2.828-2.393-1.125-1.253-2.011-2.714-2.83-4.187-.767-1.384-1.483-2.82-1.935-4.338-.446-1.5-.506-3.09-.744-4.636-.207-1.345-.415-2.69-.595-4.038-.166-1.244-.25-2.5-.447-3.74-.16-1.003-.156-2.075-.596-2.99a5.307 5.307 0 0 0-1.637-1.945c-.738-.54-1.62-1.03-2.531-1.047-.864-.017-1.817.289-2.432.897-.493.488-.69 1.253-.745 1.945-.066.812.497 2.393.497 2.393s-2.12-1.142-2.68-2.14c-.385-.688-.45-1.574-.298-2.347.156-.788.628-1.523 1.191-2.094.486-.492 1.138-.811 1.787-1.047 1.321-.48 4.157-.697 4.157-.697s-2.187-1.792-3.467-2.343c-.777-.334-1.634-.48-2.477-.55-.89-.072-2.674.148-2.674.148s1.333-1.317 2.17-1.691z" fill="#FF5"/><path d="M299.392 256.008s-5.542 3.558-8.117 5.605c-3.849 3.06-7.563 6.328-10.907 9.938-2.707 2.923-5.204 6.07-7.355 9.427-2.681 4.185-6.849 13.25-6.849 13.25M250.587 301.274s3.682-8.148 5.685-12.142c1.696-3.38 3.383-6.774 5.358-9.997 2.312-3.773 4.792-7.461 7.578-10.897a94.681 94.681 0 0 1 9.639-10.24c3.332-3.047 6.953-5.777 10.653-8.36 2.119-1.48 4.41-2.697 6.594-4.077 1.191-.753 3.551-2.294 3.551-2.294" stroke="#000" stroke-width="2" stroke-linecap="round" stroke-linejoin="round"/><path d="M299.138 235.623s-10.468 6.572-15.472 10.192c-4.055 2.934-8.124 5.894-11.768 9.327-3.93 3.703-7.493 7.808-10.806 12.077-3.26 4.198-6.119 8.704-8.878 13.25-3.014 4.965-5.755 10.099-8.37 15.288-1.858 3.686-5.193 11.242-5.193 11.242" stroke="#000" stroke-width="2" stroke-linecap="round" stroke-linejoin="round"/><path d="M222.835 312.754s4.482-10.337 6.805-15.468c2.396-5.292 4.595-10.689 7.355-15.798 2.9-5.365 6.106-10.577 9.639-15.543 3.424-4.814 7.125-9.45 11.16-13.76 4.018-4.29 8.44-8.194 12.936-11.975 4.395-3.697 9.027-7.107 13.697-10.447 3.725-2.664 7.513-5.247 11.414-7.644 1.033-.636 3.172-1.784 3.172-1.784v-5.606s-11.48 6.61-16.87 10.447c-5.148 3.668-9.957 7.804-14.71 11.976-4.46 3.914-8.889 7.889-12.936 12.23-4.27 4.58-8.237 9.457-11.921 14.524-3.5 4.814-6.753 9.826-9.639 15.034-2.778 5.012-5.006 10.314-7.355 15.543-1.983 4.413-5.686 13.355-5.686 13.355l2.939 4.916z" fill="#000"/><path stroke="#000" stroke-width="2" stroke-linecap="round" stroke-linejoin="round" d="M236.691 307.56l-6.41-11.304 14.259-2.297-7.982-14.46 15.424.721-6.456-14.594 15.245 1.622-2.87-16.756 13.81 3.963-1.255-15.134 13.092 5.765 1.256-16.395 11.658 7.026L298.879 220"/><path d="M295.097 228.386c0 1.102-.89 1.996-1.987 1.996a1.991 1.991 0 0 1-1.987-1.996c0-1.102.89-1.996 1.987-1.996s1.987.894 1.987 1.996zM281.472 237.801c0 1.102-.89 1.996-1.987 1.996a1.991 1.991 0 0 1-1.987-1.996c0-1.102.89-1.996 1.987-1.996s1.987.894 1.987 1.996zM269.162 247.919c0 1.102-.89 1.996-1.987 1.996a1.991 1.991 0 0 1-1.986-1.996c0-1.102.889-1.996 1.986-1.996 1.098 0 1.987.894 1.987 1.996zM256.629 261.409c0 1.102-.89 1.996-1.987 1.996a1.991 1.991 0 0 1-1.987-1.996c0-1.102.89-1.996 1.987-1.996s1.987.894 1.987 1.996zM247.005 275.798c0 1.103-.89 1.996-1.987 1.996a1.991 1.991 0 0 1-1.987-1.996c0-1.102.89-1.996 1.987-1.996s1.987.894 1.987 1.996zM238.724 289.963c0 1.102-.89 1.996-1.987 1.996a1.991 1.991 0 0 1-1.987-1.996c0-1.102.89-1.996 1.987-1.996s1.987.894 1.987 1.996zM232.01 305.027c0 1.102-.89 1.996-1.987 1.996a1.991 1.991 0 0 1-1.987-1.996c0-1.102.89-1.996 1.987-1.996s1.986.894 1.986 1.996z" fill="#000"/><path d="M262.224 292.436c0 1.102-.89 1.996-1.987 1.996a1.991 1.991 0 0 1-1.987-1.996c0-1.102.89-1.996 1.987-1.996s1.987.894 1.987 1.996zM265.357 286.815c0 1.102-.89 1.996-1.986 1.996a1.991 1.991 0 0 1-1.987-1.996c0-1.102.89-1.996 1.987-1.996s1.986.894 1.986 1.996zM268.65 281.352c0 1.103-.889 1.996-1.986 1.996a1.991 1.991 0 0 1-1.987-1.996c0-1.102.89-1.996 1.987-1.996s1.987.894 1.987 1.996zM272.232 275.63c0 1.102-.89 1.996-1.987 1.996a1.991 1.991 0 0 1-1.987-1.996c0-1.102.89-1.996 1.987-1.996s1.987.894 1.987 1.996zM276.13 270.256c0 1.103-.89 1.996-1.987 1.996a1.991 1.991 0 0 1-1.987-1.996c0-1.102.89-1.995 1.987-1.995s1.987.893 1.987 1.995zM280.916 265.107c0 1.103-.89 1.996-1.987 1.996a1.991 1.991 0 0 1-1.987-1.996c0-1.102.89-1.995 1.987-1.995s1.987.893 1.987 1.995zM286.034 260.727c0 1.102-.89 1.996-1.987 1.996a1.991 1.991 0 0 1-1.987-1.996c0-1.102.89-1.996 1.987-1.996s1.987.894 1.987 1.996zM291.152 256.5c0 1.102-.89 1.996-1.987 1.996a1.991 1.991 0 0 1-1.987-1.996c0-1.103.89-1.996 1.987-1.996s1.987.893 1.987 1.996zM296.718 252.468c0 1.102-.89 1.995-1.987 1.995a1.991 1.991 0 0 1-1.987-1.995c0-1.103.89-1.996 1.987-1.996s1.987.893 1.987 1.996z" fill="#55A"/><g stroke="#55A" stroke-linecap="round" stroke-linejoin="round" stroke-width="2"><path d="M246.981 327.163s1.793 5.646 2.41 8.539c.305 1.427.573 2.874.635 4.333.12 2.806-1.666 5.855-.508 8.411.288.634.957 1.247 1.65 1.274 2.168.086 4.158-1.82 5.455-3.568 1.607-2.167 2.283-7.774 2.283-7.774s1.772 7.384 4.694 9.176c.253.155.687-.218.888 0 .375.406-.285 1.126-.126 1.657.972 3.247 3.019 6.942 6.216 8.029.787.267 1.82-.05 2.41-.638 1.15-1.147 1.558-3.113 1.269-4.715-.491-2.726-2.723-4.957-4.82-6.755-.217-.184-.627-.131-.762-.382-.344-.64.347-1.445.254-2.166-.193-1.495-1.65-4.206-1.65-4.206l.508-.382s1.357 4.609 2.41 6.754c1.313 2.674 3.213 5.014 4.821 7.52.845 1.317 1.21 3.125 2.537 3.95 1.303.81 3.306 1.382 4.568.51 1.656-1.145 2.085-3.924 1.522-5.863-.452-1.558-2.657-1.962-3.552-3.313-.749-1.13-.784-2.613-1.396-3.823-.483-.957-1.279-1.728-1.776-2.677-.742-1.417-.916-3.112-1.776-4.46-.597-.937-2.284-2.422-2.284-2.422l1.142-.892s1.277 3.6 2.41 5.098c.509.671 1.442.952 1.904 1.657 1.074 1.638.87 3.87 1.776 5.607.867 1.664 1.747 3.632 3.425 4.46.797.394 2.026.62 2.664 0 1.795-1.742.943-5.108.254-7.518-.647-2.265-2.297-4.174-3.933-5.863-.254-.262-.677-.34-.888-.637-.612-.866-.467-2.085-.888-3.059-.528-1.223-1.144-2.448-2.03-3.44-.282-.317-1.015-.766-1.015-.766l1.015-1.02s.5 1.024.761 1.53c.863 1.67 1.443 3.544 2.665 4.97.275.323.825.385 1.015.765.17.342-.117.783 0 1.147.555 1.74 1.585 3.567 3.171 4.46.518.292 1.301.486 1.776.128 1.281-.964 1.147-3.112 1.015-4.715-.236-2.87-1.911-5.443-3.171-8.03-.842-1.727-2.023-3.27-2.918-4.97-1.114-2.116-1.897-4.401-3.045-6.5-1.255-2.292-4.187-6.626-4.187-6.626"/><path d="M250.406 338.76s2.6 1.799 3.172 3.186c.874 2.12 0 6.882 0 6.882M265.25 320.28s-.875 5.9-2.157 8.54c-.938 1.932-3.933 5.097-3.933 5.097M271.212 322.702c-1.522 1.742-3.298 4.376-5.582 6.117M274.384 325.633c-2.622 2.69-4.818 5.096-8.373 8.412"/></g><g stroke="#55A" stroke-linecap="round" stroke-linejoin="round" stroke-width="2"><path d="M152.896 126.86s-2.943 5.148-4.7 7.525c-1.994 2.695-4.047 5.309-6.594 7.588-1.339 1.198-3.423 2.46-5.081 1.774-.292-.121-.416-.856-.416-.856M111.401 122.827c-2.989 5.96-6.904 8.68-11.906 11.155-2.046 2.505-5.545 4.818-7.567 3.002-1.792-1.61-1.653-6.852 1.884-6.992"/><path d="M116.255 124.079c-3.56 8.074-11.414 17.294-20.533 18.545-3.972.545-9.418-1.583-10.771-5.373-1.618-4.534 1.22-11.184 5.88-13.185 2.904-1.246 6.668-.211 8.544 2.047 1.648 1.984 1.105 5.972.418 7.74"/><path d="M121.746 125.376c-2.445 6.768-8.619 16.868-16.76 19.437-2.587.817-6.24.729-7.887-2.007"/><path d="M128.573 125.106c-2.58 6.793-7.675 16.873-15.345 20.697-2.712 1.352-6.564 1.466-9.083-.085"/><path d="M135.018 125.03c-1.74 6.225-7.446 15.996-14.41 20.664-2.572 1.724-6.503 3.494-9.06 2.008M141.549 122.41c-.921 4.735-6.001 15.628-12.105 20.828-1.83 1.56-4.726 4.116-6.727 2.578M147.974 122.422c-.97 4.212-4.936 11.187-8.798 16.143-2.026 2.6-4.97 7.464-8.354 5.266"/></g><path d="M132.449 144.922l5.838 14.37" stroke="#55A" stroke-width="2" fill="#000" stroke-linecap="round" stroke-linejoin="round"/><path d="M182.416 223.898l14.031.25s-1.059 9.798-1.118 14.719c-.057 4.787.213 9.587.746 14.345.46 4.11 1.382 8.154 2.11 12.224.641 3.58 1.178 7.183 1.987 10.728 1.123 4.916 2.416 9.8 3.974 14.595a112.547 112.547 0 0 0 3.973 10.478c2.227 5.07 4.696 10.043 7.45 14.844 2.494 4.346 5.31 8.504 8.196 12.599 1.928 2.735 6.084 7.983 6.084 7.983l-13.907 8.607s-.813-4.177-2.36-5.364c-1.82-1.397-4.596-.386-6.796-1.03-1.446-.424-2.724-1.3-4.13-1.84-1.93-.742-5.9-1.919-5.9-1.919s-4.445-11.796-6.393-17.789c-2.103-6.466-4.178-12.959-5.712-19.584-1.095-4.727-1.962-9.52-2.484-14.345-.806-7.448-.828-14.963-.993-22.453-.139-6.277-.158-12.56 0-18.836.103-4.12.3-8.24.62-12.35.154-1.959.622-5.862.622-5.862z" fill="#55A"/><path fill="#FFF" d="M183.906 236.746l4.47-5.364 3.725 5.489-4.098 5.738zM183.662 251.289l3.689-5.934 4.445 4.918-3.268 6.253zM184.953 265.617l3.384-6.114 4.688 4.686-2.948 6.41zM186.437 280.894l4.18-6.918 5.633 5.335-3.655 7.257zM189.922 297.699l3.379-7.347 6.194 4.665-2.819 7.624zM195.045 313.751l2.745-8.729 7.468 4.365-2.09 8.962zM203.7 331.814l.505-10.726 9.242 2.725.264 10.794z"/><path fill="#000" d="M111.017 257.328l17.88.25.994-10.104h13.534l-.248 10.603 15.77-.125.497-9.98h11.3l-.621 17.714v12.973l-46.813-1.622z"/><path fill="#F55" d="M171.561 293.236l-13.623 5.667-11.421 6.36-8.67 7.74-6.742 7.327-4.266 5.53-24.906-.554 6.33-11.059 5.916-12.026 5.23-12.994 3.577-12.718 47.337 1.383.412 6.911z"/><path fill="#000" d="M60.756 335.408l-15.658 14.377L29.103 334.9l-6.566-6.597-19.53-20.465-.506-29.092 10.944-7.95z"/><path fill="#55A" d="M100.007 258.332l-3.297 14.014-2.79 12.74-38.808-50.196 6.849-9.427 10.146-14.27 5.326-10.191L82 190.555l4.565-11.212 5.073 13.76 3.805 11.72 3.55 18.601 2.03 10.447v9.173z"/><path fill="#000" d="M75.15 163.29L3.116 195.142v-9.428l61.381-36.182 6.088 7.644z"/><path fill="#FF5" d="M78.91 312.073l-3.425 5.448-43.101-59.356 3.71-4.014z"/><path fill="#F55" d="M75.2 317.807l-4.853 6.595-4.853 6.309-46.811-63.37-16.27 11.183v-12.617l16.27-10.036 18.553-15.197 14.843-15.197 10.561-14.91 9.705-17.492 6.85-15.197 2.855-6.882 4.852 8.889-4.567 12.043-11.703 21.219-9.42 12.903-8.562 11.47-10.276 10.036-5.709 6.308-4.852 3.728zM35.39 187.56l-4.132 9.53-5.968 8.456-5.815 6.61-5.968 5.38-6.58 5.073-4.744 3.536v-24.443z"/><path fill="#FF5" d="M79.81 168.604L51.184 180.41l-3.017 7.612-4.997 9.186-5.974 10.581-10.355 13.277-10.108 8.45-7.942 5.008-6.1 3.643-.766 24.643 3.805-1.799 11.638-7.644 14.324-10.792 12.534-11.242 11.862-14.614 8.952-13.715 8.281-16.638 6.715-16.413z"/><path d="M79.537 167.742l-76.421 33.77" stroke="#000" stroke-width="2" fill="#000" stroke-linecap="round" stroke-linejoin="round"/><g stroke-linecap="round" stroke-linejoin="round" stroke-width="2"><path d="M197.984 447.443s.705-6.132-.593-8.749c-.585-1.177-2.319-1.443-2.97-2.584-.9-1.58-.99-5.37-.99-5.37s-5.408.283-8.114.399c-5.475.233-10.953.816-16.429.596-3.982-.16-7.968-.604-11.876-1.392-5.384-1.085-10.661-2.72-15.834-4.573-5.207-1.864-10.055-4.643-15.241-6.562-3.76-1.39-7.565-2.725-11.48-3.579-3.575-.78-7.241-1.089-10.887-1.392-3.421-.284-6.86-.487-10.292-.397-2.914.076-8.71.795-8.71.795s-3.246 1.462-3.562 2.983c-.332 1.595 2.074 2.747 2.177 4.374.089 1.402-1.726 2.615-1.385 3.977.261 1.046 2.375 2.187 2.375 2.187s14.182.671 21.179 1.79c5.958.952 11.873 2.316 17.616 4.175 5.096 1.65 9.804 4.349 14.845 6.164 4.675 1.684 9.368 3.458 14.25 4.375 5.333 1 10.81.994 16.231 1.193 4.814.176 9.65.399 14.45 0 4-.333 11.876-1.989 11.876-1.989l3.364 3.58z" stroke="#55A" fill="#F55"/><path d="M191.255 439.887s-14.764 1.813-22.169 1.591c-7.583-.227-15.229-1.039-22.564-2.982-7.985-2.116-15.147-6.662-22.96-9.346-5.772-1.982-11.6-3.96-17.617-4.97-5.67-.953-17.22-.995-17.22-.995" stroke="#000"/><path d="M189.275 435.314s-13.2.902-19.793.597c-7.039-.326-14.164-.795-20.98-2.585-8.073-2.12-15.297-6.738-23.16-9.544-5.585-1.994-11.194-4.077-17.021-5.17-4.293-.806-8.697-1.006-13.064-.994-2.45.006-7.323.596-7.323.596" stroke="#000"/></g><path d="M213.583 480.364c-9.66-17.167-9.017-19.439-18.676-36.605-10.382 3.769-29.39 2.723-43.827.48-11.96-1.86-22.694-8.672-34.487-11.4-10.5-2.43-22.096-4.368-32.03-4.368L56.63 480.364h156.954z" stroke="#55A" stroke-width="2" fill="#FF5"/><path d="M159.208 451.586c-1.628-.009-3.26.12-4.748.48-.81.197-1.507.526-2.21.9-1.175.626-2.012 1.629-3.316 2.23.576-2.123 2.442-3.21 4.083-4.315 1.475-.993 3.194-1.624 4.965-1.937 1.906-.336 3.95-.355 5.857.105 2.245.541 4.37 1.674 6.207 3.037 1.246.926 2.46 2.023 3.123 3.387.357.732.379 1.755.369 2.384-.712-1.133-1.666-2.467-2.98-3.42-1.32-.958-2.99-1.665-4.666-2.123-2.173-.594-4.476-.715-6.684-.728z" fill="#000"/><path d="M176.586 460.682c.685.564.525 2.41-.28 3.232-.233.238-.712.335-1.048.218-.945-.33-1.56-1.335-1.618-2.205-.035-.549.644-.957.832-1.482.163-.455.245-1.416.245-1.416-1.003-1.208-1.473-2.684-2.93-3.15-2.17-.694-5.3-.347-6.814 1.115-1.398 1.35-1.075 3.687-.382 5.407.47 1.165 1.502 2.369 2.866 2.807 1.235.396 2.634-.163 3.895-.46-1.147 1.521-2.442 3.292-2.133 5.086.297 1.718 1.893 3.296 3.62 4.258.727.405 1.685.36 2.542.472 1.693-.309 3.535-.96 4.494-2.17.966-1.219.836-2.913.68-4.387-.12-1.13-.722-2.196-1.221-3.255 1.003.57 2.27.886 3.411.7 2.16-.35 4.714-1.456 5.327-3.235.591-1.714-.721-3.838-2.317-5.047-1.475-1.118-3.823-1.75-5.72-1.291-1.594.385-2.226 1.95-3.47 3.085l.021 1.718z" fill="#000"/><path d="M189.525 451.534c1.299-.009 2.604.012 3.788.48 1.234.49 2.105 1.627 3.225 2.34.836.532 1.531 1.487 2.599 1.44-.46-2.123-2.845-3.618-4.673-4.965-1.184-.873-2.548-1.624-3.961-1.937-1.52-.336-3.152-.355-4.674.105-1.791.541-3.487 1.674-4.952 3.037-.995.926-1.801 2.167-2.493 3.387-.627 1.104-1.483 2.884-1.475 3.513 1.467-.116 2.103-3.291 3.558-4.55a11.42 11.42 0 0 1 3.724-2.122c1.734-.594 3.571-.715 5.334-.728z" fill="#000"/><path d="M199.515 457.69c-.059.68-.536.672-.53 1.5.005.824 1.21 1.4 2.009 1.352.284-.017.707-1.146.79-1.427l4.406 9.443a8.705 8.705 0 0 1-1.071 1.006c-.652.206-1.3.606-1.974.512-1.6-.224-3.365-1.028-4.242-2.417-.915-1.45-.68-3.448-.454-5.177-.781.705-1.55 1.675-2.581 1.768-1.138.103-2.338-.573-3.123-1.42-1.16-1.25-2.303-3.182-1.833-4.851.51-1.808 2.606-3.016 4.403-3.366 1.338-.26 2.744.42 3.924 1.114M148.425 456.907c.581.672.116 2.465-.816 3.14-.27.195-.757.21-1.069.039-.877-.484-1.316-1.58-1.227-2.447.056-.547.794-.835 1.067-1.32.237-.422.478-1.356.478-1.356-.787-1.36-1.004-2.894-2.363-3.599-2.023-1.049-5.166-1.233-6.904-.047-1.603 1.094-1.674 3.453-1.278 5.266.269 1.228 1.085 2.588 2.357 3.25 1.151.598 2.624.283 3.916.203-1.384 1.306-2.957 2.834-2.95 4.654.005 1.744 1.315 3.568 2.857 4.807.65.522 1.602.638 2.427.893 1.721-.019 3.646-.35 4.793-1.382 1.156-1.039 1.31-2.73 1.402-4.211.07-1.134-.345-2.286-.66-3.414.893.731 2.09 1.255 3.246 1.265 2.187.019 4.89-.643 5.791-2.293.87-1.59-.07-3.905-1.442-5.366-1.267-1.35-3.477-2.37-5.425-2.236-1.635.112-2.519 1.547-3.935 2.458l-.265 1.696z" fill="#000"/><path d="M135.495 446.086c-1.407-.32-2.913-.386-4.325-.093-1.243.258-2.332 1.009-3.46 1.59-1.283.661-2.444 1.947-3.754 2.154 1.062-1.873 3.61-4.875 6.247-6.09 1.489-.687 3.247-.648 4.896-.443 1.773.22 3.586.784 5.153 1.769 1.845 1.158 3.43 2.85 4.7 4.68.86 1.244 1.648 2.642 1.88 4.138.125.804-.122 1.791-.294 2.392-.335-1.29-.832-2.84-1.745-4.129-.918-1.295-2.212-2.448-3.575-3.365-1.768-1.189-3.681-2.137-5.723-2.603z" fill="#000"/><path d="M121.218 451.02c-.804.311-1.328 2.074-.918 3.089.118.293.503.532.84.528.946-.013 1.848-.756 2.211-1.547.23-.498-.22-1.088-.195-1.633.021-.475.295-1.392.295-1.392 1.314-.81 2.257-2.036 3.703-2.016 2.15.03 4.769 1.324 5.57 3.152.74 1.687-.385 3.758-1.613 5.14-.83.936-2.168 1.734-3.521 1.717-1.226-.015-2.25-.97-3.249-1.636.458 1.768.955 3.816.038 5.385-.879 1.504-2.845 2.473-4.706 2.83-.783.15-1.606-.189-2.397-.35-1.374-.813-2.754-1.99-3.159-3.41-.407-1.433.317-2.966.985-4.287.511-1.012 1.423-1.815 2.242-2.644-1.085.219-2.343.21-3.242-.408-1.453-.997-2.63-2.897-2.515-4.66.105-1.63 1.374-3.302 2.859-3.968 1.677-.752 3.98-.438 5.48.578 1.257.853 1.248 2.502 1.93 3.943l-.638 1.588z" fill="#000"/><path d="M110.502 440.024c-1.382-.252-2.848-.245-4.205.116-1.193.318-2.25 1.067-3.282 1.756-1.124.751-1.879 2.303-3.14 2.572.939-1.921 2.9-5.223 5.367-6.625 1.387-.788 3.122-.803 4.733-.679 1.732.134 3.521.61 5.091 1.517 1.849 1.068 3.472 2.681 4.794 4.448.898 1.2 1.732 2.558 2.031 4.041.16.797-.03 1.795-.168 2.403-.389-1.271-.948-2.797-1.898-4.039-.955-1.249-2.268-2.338-3.638-3.188-1.775-1.102-3.68-1.956-5.685-2.322z" fill="#000"/><path d="M97.598 445.554c-.722.397-1.037 2.206-.55 3.17.14.28.526.476.84.435.889-.114 1.66-.95 1.921-1.775.165-.52-.315-1.059-.348-1.604-.028-.474.137-1.416.137-1.416 1.151-.946 1.924-2.303 3.271-2.402 1.855-.137 4.035.977 4.936 2.61.84 1.523.489 3.706-.387 5.208-.633 1.086-1.86 1.957-3.132 2.086-1.151.117-2.209-.72-3.213-1.276.608 1.708 1.28 3.69.578 5.35-.673 1.59-2.421 2.765-4.13 3.32-.72.234-1.527-.015-2.286-.09-1.37-.66-2.784-1.682-3.307-3.051-.526-1.38-.002-2.983.493-4.368.378-1.061 1.152-1.958 1.837-2.87-.995.334-1.87.975-2.882.956-1.173-.022-2.78-.177-3.3-1.234-1.104-2.239.097-5.794 2.173-7.17 1.327-.881 3.243-.012 4.743.518 1.136.402 2.26.596 3.045 1.955l-.439 1.648z" fill="#000"/><path d="M90.246 437.155c1.226.105 2.517.422 3.497 1.167 1.046.796 1.432 2.211 2.208 3.274.591.811.878 1.79 1.864 2.365-.274-2.082-.811-5.583-2.573-7.582-.93-1.055-2.405-1.555-3.79-1.84-1.49-.305-3.117-.296-4.677.181-1.837.563-3.63 1.706-5.212 3.072-1.075.927-2.138 2.023-2.785 3.373-.348.725-.455 1.732-.502 2.35.666-1.124 1.543-2.449 2.673-3.404 1.136-.96 2.529-1.678 3.905-2.15 1.784-.614 3.61-.957 5.392-.806z" fill="#000"/><path d="M77.835 444.506c-.194.717-.012.822-.278 1.677-.263.85-.9 1.158-1.185.917-.102-.086.098-1.354.156-1.663l-4.66 8.706c.006.468.038.897.083 1.296.18.368.297.936.58 1 .673.15 1.593-.26 2.365-1.486.805-1.28 1.352-3.4 1.817-5.24.07.914.81.663 1.294.662 1.08-.002 2.188-.657 2.878-1.49 1.081-1.304 1.942-3.244 1.468-4.872-.242-.83-1.137-1.433-1.96-1.685-.587-.18-1.165-.221-1.83.215M196.865 449.476s-6.566-2.201-9.939-1.997c-4.233.256-12.086 3.994-12.086 3.994s-8.259-3.972-12.721-4.314c-4.293-.328-12.722 2.237-12.722 2.237s-6.758-6.095-10.973-7.349c-4.193-1.247-13.12.16-13.12.16s-5.54-6.93-9.54-8.067c-5.003-1.422-15.426 2.316-15.426 2.316s-7.173-5.036-11.29-5.032c-2.409.002-6.6 2.955-6.6 2.955l2.704-4.993c5.675.182 9.925.507 15.743 1.404 5.813.897 11.663 1.747 17.333 3.317 5.364 1.484 10.444 3.856 15.68 5.742 4.201 1.514 8.303 3.363 12.626 4.473 3.265.838 6.637 1.194 9.979 1.631 2.849.373 5.71.669 8.577.845 4.363.27 8.739.398 13.11.328a88.081 88.081 0 0 0 8.638-.559c2.578-.292 7.507-1.702 7.507-1.702l2.52 4.61z" fill="#000"/><path d="M166.932 338.258c-2.383-.247-5.255.654-7.882 3.192l-6.392 8.165-4.157 4.573-3.76-3.38-6.137-2.187 4.75-9.147 8.314-8.55 8.511-6.363 3.573-2.784 2.563 5.767 1.976 4.893 1.389 4.054-2.748 1.767z" fill="#F55"/><g stroke="#55A" stroke-linecap="round" stroke-linejoin="round" stroke-width="2"><path d="M147.511 426.963c-.861-8.663-3.123-17.103-5.085-25.567-2.67-11.517-8.717-22.461-9.09-34.28-.128-4.08-1.25-10.187 2.386-12.006 2.822-1.412 8.555-.43 8.52 4.129-.03 3.734-5.61 5.662-6.825 1.71"/><path d="M142.365 424.776c-2.226-12.532-7.194-24.397-9.902-36.814-2.031-9.315-5.567-19.235-4.745-28.206.426-4.654 4.452-10.674 9.235-11.11 5.53-.504 12.699 3.338 12.804 10.704.067 4.664-5.628 9.79-10.36 9.751-2.847-.023-4.607-3.53-6.137-5.965"/><path d="M137.219 422.787c-1.89-11.061-6.276-21.514-8.898-32.405-2.365-9.821-7.541-19.667-6.157-29.675.53-3.836 2.676-7.493 5.356-10.297"/><path d="M130.505 420.202c-1.74-10.587-5.783-20.633-8.198-31.07-2.18-9.42-6.958-18.866-5.673-28.452.489-3.65 2.436-7.155 4.935-9.872"/><path d="M124.985 418.115c-1.74-10.326-5.782-20.098-8.198-30.269-2.18-9.175-6.952-18.374-5.673-27.719.489-3.573 2.456-6.989 4.935-9.617"/><path d="M119.047 415.43c-1.743-9.978-5.781-19.383-8.198-29.2-2.178-8.847-6.943-17.717-5.673-26.74.488-3.473 2.482-6.767 4.935-9.279"/><path d="M113.3 415.43c-1.743-9.978-5.782-19.383-8.199-29.2-2.178-8.847-6.942-17.717-5.673-26.74.489-3.473 2.483-6.767 4.936-9.279"/><path d="M107.758 414.038c-1.745-9.775-5.781-18.965-8.199-28.577-2.177-8.655-6.936-17.333-5.673-26.17.488-3.413 2.499-6.636 4.935-9.08"/><path d="M102.017 412.945c-1.745-9.602-5.757-18.614-8.198-28.043-2.16-8.347-6.842-16.683-5.702-25.23.467-3.505 2.438-6.878 4.964-9.361"/><path d="M96.871 413.144c-1.745-9.602-5.757-18.614-8.198-28.043-2.161-8.347-6.842-16.683-5.702-25.23.467-3.505 2.438-6.878 4.964-9.361"/><path d="M91.725 412.746c-1.745-9.602-5.757-18.614-8.198-28.043-2.161-8.346-6.842-16.683-5.703-25.23.468-3.505 2.438-6.878 4.965-9.361"/><path d="M86.38 412.945c-1.745-9.602-5.756-18.614-8.197-28.043-2.161-8.347-6.842-16.683-5.703-25.23.467-3.505 2.438-6.878 4.965-9.361"/></g><path d="M137.946 347.586s2.89-4.994 4.637-7.279c2.791-3.65 5.87-7.11 9.275-10.19 2.721-2.46 5.684-4.684 8.84-6.55 2.7-1.599 5.65-2.732 8.549-3.931 2.331-.965 7.1-2.62 7.1-2.62M133.309 349.77H45.493M175.577 335.358l-4.927-14.703M182.434 334.048s-3.37-11.262-5.072-16.887c-.72-2.38-1.554-4.726-2.174-7.133-1.458-5.667-2.842-11.378-3.623-17.178-.648-4.817-.747-9.697-.87-14.557-.25-10.042.29-30.134.29-30.134" stroke="#55A" stroke-width="2" stroke-linecap="round" stroke-linejoin="round"/><path d="M174.889 309.378s-8.779 3.137-12.888 5.308a72.666 72.666 0 0 0-11.737 7.716c-3.007 2.432-5.74 5.215-8.26 8.152-1.716 2-3.162 4.22-4.638 6.405-1.218 1.805-3.477 5.532-3.477 5.532s-28.307-.157-42.46 0c-6.57.073-19.707.437-19.707.437s9.84-10.564 14.201-16.305c2.813-3.701 5.342-7.625 7.68-11.646 2.463-4.234 4.713-8.606 6.666-13.101 1.834-4.218 3.297-8.593 4.725-12.966 1.315-4.03 2.764-8.048 3.535-12.218 1.151-6.225 1.594-18.925 1.594-18.925l12.752 18.779s-2.192 9.32-3.767 13.83c-1.412 4.04-3.3 7.897-5.072 11.79-1.986 4.363-3.97 8.732-6.231 12.957-1.97 3.68-6.376 10.772-6.376 10.772h25.649s4.546-5.63 6.985-8.297c2.675-2.927 5.351-5.883 8.375-8.444a72.835 72.835 0 0 1 10.289-7.278c3.23-1.889 6.727-3.28 10.144-4.804 2.87-1.28 8.694-3.64 8.694-3.64l3.324 15.946z" stroke="#55A" stroke-width="2" fill="#FF5" stroke-linecap="round" stroke-linejoin="round"/><path d="M90.473 342.19l10.956-16.149M87.082 325.313l13.912.291M108.094 314.686l-13.911-.436M113.456 302.167l-12.317-.146M118.673 289.21l-13.042.292M122.006 276.11l-12.607.29" stroke="#55A" stroke-width="2" stroke-linecap="round" stroke-linejoin="round"/><path d="M72.939 145.656s5.155 7.632 7.622 11.52c2.192 3.452 4.43 6.883 6.377 10.481 3.042 5.626 5.935 11.362 8.26 17.323 2.563 6.574 4.508 13.39 6.23 20.235 1.099 4.364 1.876 8.806 2.609 13.247.773 4.685 1.623 9.379 1.884 14.12.463 8.433.253 16.927-.58 25.33-.632 6.386-1.699 12.754-3.343 18.955-1.173 4.424-2.917 8.682-4.627 12.926-1.63 4.047-3.4 8.042-5.362 11.937-2 3.975-4.274 7.806-6.52 11.646-2.154 3.681-4.218 7.428-6.666 10.918-4.394 6.263-9.368 12.101-14.347 17.906-2.19 2.553-6.82 7.434-6.82 7.434l-12.018.135s10.617-8.82 15.505-13.683c2.212-2.2 4.243-4.582 6.232-6.988 3.037-3.673 5.905-7.488 8.694-11.355 1.51-2.092 3.015-4.195 4.348-6.405a203.907 203.907 0 0 0 10.143-19.07 101.849 101.849 0 0 0 3.865-9.56 110.204 110.204 0 0 0 3.1-10.54c1.163-4.844 2.271-9.732 2.744-14.692.825-8.647.797-17.397.145-26.058-.42-5.584-1.446-11.118-2.608-16.595-1.204-5.673-2.734-11.281-4.512-16.8-1.84-5.707-3.982-11.323-6.356-16.828a76.973 76.973 0 0 0-3.333-6.842c-.972-1.752-2.075-3.43-3.188-5.095-1.408-2.105-2.9-4.151-4.41-6.183-3.323-4.473-10.226-13.22-10.226-13.22l7.158-4.2z" stroke="#55A" stroke-width="2" fill="#FF5" stroke-linecap="round" stroke-linejoin="round"/><path stroke="#55A" stroke-width="2" stroke-linecap="round" stroke-linejoin="round" d="M44.624 349.915l-15.65-14.703-7.826-8.298-18.549-19.652"/><path stroke="#55A" stroke-width="2" fill="#FF5" stroke-linecap="round" stroke-linejoin="round" d="M1.993 470.664l27.586-27.381-1.025-108.339-26.56-28.238z"/><path stroke="#55A" stroke-width="2" fill="#F55" stroke-linecap="round" stroke-linejoin="round" d="M21.872 327.788l-.081 112.818-19.798 17.911V306.556z"/><path d="M29.988 425.784l5.534 1.647s4.025 3.946 5.738 6.176c2.813 3.663 5.957 7.333 7.377 11.734.824 2.551.51 8.03.51 8.03s6.057-6.299 8.556-9.865c2.076-2.963 3.877-6.15 5.28-9.488 1.303-3.1 2.167-6.385 2.869-9.676.696-3.263 1.274-6.587 1.316-9.925.052-4.126-.34-8.3-1.316-12.309-.669-2.748-1.861-5.352-3.074-7.906-1.307-2.751-2.843-5.397-4.509-7.946-1.874-2.869-6.148-8.235-6.148-8.235s-1.939 5.2-3.279 7.617c-2.268 4.092-4.856 8.064-7.992 11.53-1.989 2.197-4.014 4.671-6.763 5.764-1.272.505-4.099.206-4.099.206v22.646z" stroke="#55A" stroke-width="2" stroke-linecap="round" stroke-linejoin="round"/><path d="M35.317 402.932s1.691 3.08 2.263 4.735c.646 1.871 1.179 3.821 1.295 5.799a25.575 25.575 0 0 1-.837 8.112c-.574 2.124-2.721 6.01-2.721 6.01s5.071 4.732 7.205 7.451c2.458 3.133 6.369 10.114 6.369 10.114s4.157-4.884 5.812-7.618c1.654-2.73 3.051-5.648 4.059-8.68 1.125-3.386 1.808-6.933 2.172-10.483.265-2.594.28-5.23 0-7.823-.31-2.864-.889-5.725-1.845-8.44-.764-2.17-1.993-4.148-3.074-6.177-1.04-1.951-2.06-3.92-3.279-5.764-1.144-1.731-3.771-4.95-3.771-4.95s-3.75 7.058-6.197 10.188c-2.175 2.783-7.451 7.526-7.451 7.526z" stroke="#55A" stroke-width="2" fill="#FF5" stroke-linecap="round" stroke-linejoin="round"/><path d="M41.465 432.166s2.65-3.392 3.484-5.353c.93-2.19 1.304-4.598 1.603-6.96.41-3.23.668-6.536.25-9.764-.347-2.678-1.06-5.36-2.263-7.775-.82-1.642-3.296-4.406-3.296-4.406" stroke="#55A" stroke-width="2" stroke-linecap="round" stroke-linejoin="round"/><path d="M44.129 437.312h4.304c-.31-3.405-1.032-6.645-2.665-9.47 2.898-.036 5.548-.487 8.198-1.853-1.47-3.47-4.512-5.03-6.81-6.259 2.6-.874 5.612-2.662 7.468-4.533-2.212-2.199-4.919-3.734-7.626-4.854 2.682-1.383 5.364-3.099 7.137-5.645-2.154-1.582-6.044-2.998-8.777-3.001 2.247-2.525 3.254-4.718 4.509-7.824l-4.713-.411" stroke="#55A" stroke-width="2" stroke-linecap="round" stroke-linejoin="round"/><path d="M168.486 382.19s-2.481.383-3.331.165c-.85-.219-1.287-.55-1.66-1.1-.667-.985-.871-2.306-.732-3.499.15-1.275.64-2.706 1.628-3.472 1.555-1.207 3.797-1.207 5.688-.933 1.828.265 3.37 1.55 5.009 2.425 1.106.591 2.103 1.41 3.252 1.906 1.272.55 2.598 1.133 3.98 1.167.848.021 2.222.26 2.494-.595.205-.644-.682-1.224-1.257-1.51-1.556-.773-3.498.185-5.187-.183-1.846-.402-3.455-1.582-5.25-2.179-1.685-.559-3.386-1.464-5.157-1.304-1.459.131-3.001.741-4.061 1.824-.715.73-1.161 1.814-1.257 2.853-.099 1.075.12 2.281.742 3.125.782 1.06 2.425 1.821 3.37 1.908.946.086 1.73-.598 1.73-.598zM181.396 390.868c-1.097.24-2.531-1.296-3.03-2.29-.653-1.304.143-3.325 1.241-4.216 1.48-1.2 3.791-.758 5.575-.198 1.49.469 2.381 2.24 3.831 2.833.878.36 1.98.876 2.798.381.484-.292.904-1.091.672-1.63-.33-.766-1.497-.545-2.267-.732-1.058-.257-2.177-.202-3.216-.536-1.18-.379-2.132-1.525-3.359-1.644-1.39-.135-3.066.052-4.06 1.1-1.071 1.13-1.677 3.148-1.167 4.663.413 1.226 2.982 2.269 2.982 2.269z" stroke="#55A" stroke-width="2" fill="#55A" stroke-linecap="round" stroke-linejoin="round"/><path d="M191.622 430.668s.294-5.544 0-8.293c-.277-2.587-1.336-5.046-1.651-7.629-.227-1.867-.51-3.79-.165-5.639 1.354-7.256 6.511-13.317 8.585-20.4.362-1.238 1.199-2.643.66-3.814-1.178-2.566-5.618-2.021-7.264-4.313-1.219-1.697-1.319-4.043-1.32-6.136-.001-.792.495-2.322.495-2.322-2.477.118-4.76-.335-7.1-.498-2.783-.192-6.212-.083-8.09-2.156-.45-.497-.33-1.99-.33-1.99s2.548 1.566 3.963 1.99c3.61 1.084 7.453.428 11.226 1.327.645.154-.115-1.88-.165-2.82-.123-2.32-.558-4.652-.33-6.965.09-.907.66-2.654.66-2.654M184.135 422.002c-.49.72-5.23.359-7.83.269-3.13-.108-6.339-.01-9.308-.971-3.373-1.093-6.327-3.26-9.225-5.31-1.11-.784-3.098-2.653-3.098-2.653s5.566 4.157 8.75 5.553c2.457 1.076 5.14 1.697 7.829 2.107 2.628.4 5.36.091 8.018.33 1.635.146 5.806-.708 4.864.675zM178.618 414.886s-6.328.038-9.345-.783c-4.403-1.197-12.349-5.923-12.349-5.923M180.85 410.105s-6.111.931-9.074.31c-4.465-.936-12.349-5.923-12.349-5.923M182.067 400.916c-3.671-.447-5.118-4.47-8.344-5.588" stroke="#55A" stroke-width="2" stroke-linecap="round" stroke-linejoin="round"/><path d="M162.29 403.23s2.604 3.193 4.276 4.337c1.237.846 2.657 1.482 4.124 1.776 1.926.387 3.958.279 5.897-.062 1.223-.215 2.343-.84 3.523-1.235.478-.16 1.441-.457 1.441-.457s-1.122-2.568-2.045-3.587c-.903-.996-2.082-1.786-3.288-2.328-1.757-.79-3.685-1.38-5.599-1.28-2.92.153-8.33 2.835-8.33 2.835h0z" stroke="#55A" stroke-width="2" stroke-linecap="round" stroke-linejoin="round"/><path d="M177.736 405.515c-.26 2.012-2.549 3.372-5.112 3.038-2.564-.335-4.432-2.237-4.172-4.249.26-2.012 2.549-3.372 5.113-3.038 2.563.334 4.431 2.236 4.171 4.249z" stroke="#55A" stroke-width="2.002" stroke-linecap="round" stroke-linejoin="round"/><path d="M175.953 405.448c-.108.838-.95 1.42-1.878 1.299-.93-.122-1.595-.9-1.487-1.738.108-.838.95-1.42 1.879-1.298.929.12 1.595.899 1.486 1.737z" stroke="#55A" stroke-width="2.011" fill="#55A" stroke-linecap="round" stroke-linejoin="round"/><path d="M183.374 413.008c-1.088-.728-1.088-2.822-1.632-4.234" stroke="#55A" stroke-width="2" stroke-linecap="round" stroke-linejoin="round"/><path fill="#000" d="M93.306 330.702l-3.779 6.476-8.002 1.116 4.224-6.699zM103.063 320.172l-6.13 4.275-4.972-4.317 6.453-4.198zM109.526 308.132l-6.13 4.275-4.972-4.317 6.453-4.197zM114.86 295.851l-6.13 4.275-4.971-4.317 6.453-4.197zM119.475 282.37l-5.5 5.068-5.505-3.603 5.828-5.035zM109.365 334.896l-5.184 5.473-4.628-5.456 4.983-6.274zM120.938 334.615l-4.607 5.971-5.153-4.958 4.327-6.747zM133.66 332.2l-2.973 6.94-6.224-3.506 2.51-7.62zM141.532 320.988l.2 7.552-7.113-.557-.907-7.974zM150.275 312.815l.026 7.555-7.1-.723-.722-7.993zM160.326 307.001l-2.003 7.282-6.643-2.62 1.45-7.892zM170.643 302.178l-2.41 7.156-6.484-2.994 1.894-7.797z"/><path d="M92.672 283.949l-37.54-48.914" stroke="#55A" stroke-width="2" fill="#FF5" stroke-linecap="round" stroke-linejoin="round"/><path d="M36.1 254.151l43.192 58.475c4.963-6.59 7.842-13.48 11.316-20.668l-40.441-51.977-14.068 14.17z" stroke="#55A" stroke-width="2" fill="#000" stroke-linecap="round" stroke-linejoin="round"/><path d="M75.202 317.18l-43.414-59.743M65.167 329.875l-46.833-62.729M60.706 334.73l-47.09-64.023M18.162 266.886L2.723 278.348" stroke="#55A" stroke-width="2" fill="#FF5" stroke-linecap="round" stroke-linejoin="round"/><path d="M32.012 257.216s2.827-2.28 4.162-3.51c4.65-4.282 9.005-8.88 13.382-13.443 1.946-2.03 3.911-4.048 5.725-6.198a179.457 179.457 0 0 0 9.886-12.845c2.838-4.057 5.413-8.296 7.953-12.547 2.153-3.603 4.25-7.243 6.17-10.977a94.434 94.434 0 0 0 2.974-6.347c1.36-3.207 3.717-9.768 3.717-9.768" stroke="#55A" stroke-width="2" stroke-linecap="round" stroke-linejoin="round"/><path d="M89.698 267.52l-25.646-33.605s8.487-10.875 12.116-16.728c3.569-5.756 9.442-17.997 9.442-17.997s4.245 9.282 5.575 14.189c1.68 6.2 2.541 12.632 2.973 19.042.41 6.086.416 12.248-.371 18.296-.745 5.717-4.089 16.803-4.089 16.803z" stroke="#55A" stroke-width="2" fill="#FFF" stroke-linecap="round" stroke-linejoin="round"/><path d="M85.61 250.717s.97-9.707.743-14.562c-.282-6.006-2.603-17.848-2.603-17.848l-10.406 15.981 12.266 16.43z" fill="#55A"/><path d="M83.767 300.657c-1.446.648-3.126 1.183-4.674.85-2.826-.611-5.402-2.621-7.146-4.936-1.677-2.225-2.288-5.165-2.68-7.927-.315-2.223.322-4.485.298-6.73-.017-1.5-.02-3.015-.298-4.487-.213-1.131-1.042-3.29-1.042-3.29s-.52 3.335-1.49 4.636c-.79 1.063-1.981 1.97-3.274 2.243-1.334.282-2.814-.11-4.02-.748-1.056-.558-2.075-1.435-2.531-2.542-.336-.815-.301-1.817 0-2.646.237-.653.719-1.284 1.338-1.594.518-.26 1.734-.097 1.734-.097s-.87 1.481-.69 2.243c.23.982 1.127 1.88 2.084 2.187.915.293 2.107.093 2.829-.542 1.063-.934 1.286-2.62 1.34-4.038.047-1.232-.318-2.5-.893-3.59-.593-1.122-1.472-2.147-2.531-2.841-1.88-1.231-4.24-1.493-6.402-2.094-1.718-.477-3.6-.432-5.211-1.196-1.248-.592-2.251-1.614-3.275-2.543-1.016-.922-2.076-1.843-2.83-2.991-.623-.952-1.111-2.025-1.34-3.141a7.328 7.328 0 0 1 0-2.842c.28-1.426.799-2.854 1.639-4.038.306-.431 1.19-1.047 1.19-1.047s-.698 2.381-.595 3.59a6.399 6.399 0 0 0 1.042 2.99c.48.712 1.134 1.399 1.938 1.693.839.306 1.813.178 2.678-.047.58-.151 1.213-.379 1.585-.85.52-.66.621-1.6.644-2.44.01-.407-.105-.816-.248-1.197-.187-.5-.786-1.394-.786-1.394s1.742.375 2.378.946c.629.564.986 1.42 1.19 2.243.254 1.016.3 2.138 0 3.14a4.62 4.62 0 0 1-1.44 2.192c-.635.526-1.472.798-2.281.95-.635.119-1.936-.047-1.936-.047s2.15 1.02 3.276 1.393c1.406.466 2.902.61 4.317 1.047 1.216.375 2.386.888 3.573 1.346 1.145.44 2.371.716 3.425 1.346 1.06.633 2.003 1.473 2.828 2.393 1.125 1.253 2.011 2.714 2.83 4.187.767 1.384 1.483 2.82 1.935 4.338.446 1.5.506 3.089.744 4.636.207 1.345.415 2.69.595 4.038.166 1.244.25 2.5.447 3.74.16 1.003.156 2.075.596 2.99a5.307 5.307 0 0 0 1.637 1.945c.738.54 1.62 1.029 2.531 1.047.864.017 1.817-.289 2.432-.897.493-.488.69-1.253.745-1.945.066-.812-.497-2.393-.497-2.393s2.12 1.142 2.68 2.14c.385.687.45 1.574.298 2.347-.156.788-.628 1.523-1.191 2.094-.486.492-1.138.811-1.787 1.047-1.321.48-4.157.697-4.157.697s2.187 1.792 3.467 2.342c.777.335 1.634.481 2.477.55.89.073 2.674-.147 2.674-.147s-1.333 1.317-2.17 1.691z" fill="#FF5"/><path d="M2.608 225.717s5.542-3.558 8.117-5.605c3.849-3.06 7.563-6.328 10.907-9.938 2.707-2.923 5.204-6.07 7.355-9.427 2.681-4.185 6.849-13.25 6.849-13.25M51.413 180.451s-3.682 8.148-5.685 12.142c-1.696 3.38-3.383 6.774-5.358 9.997-2.312 3.773-4.792 7.461-7.578 10.897a94.681 94.681 0 0 1-9.639 10.24c-3.332 3.047-6.953 5.777-10.653 8.36-2.119 1.48-4.41 2.697-6.594 4.077a402.028 402.028 0 0 0-3.551 2.294" stroke="#000" stroke-width="2" stroke-linecap="round" stroke-linejoin="round"/><path d="M2.862 246.102s10.468-6.572 15.472-10.192c4.055-2.934 8.124-5.894 11.768-9.327 3.93-3.703 7.493-7.808 10.806-12.077 3.26-4.198 6.119-8.704 8.878-13.25 3.014-4.965 5.755-10.099 8.37-15.288 1.858-3.686 5.193-11.242 5.193-11.242" stroke="#000" stroke-width="2" stroke-linecap="round" stroke-linejoin="round"/><path d="M79.165 168.97s-4.482 10.338-6.805 15.47c-2.396 5.291-4.595 10.688-7.355 15.797-2.9 5.365-6.106 10.577-9.639 15.543-3.424 4.814-7.125 9.45-11.16 13.76-4.018 4.29-8.44 8.194-12.936 11.975-4.395 3.697-9.027 7.107-13.697 10.447-3.725 2.664-7.513 5.247-11.414 7.644-1.033.636-3.172 1.784-3.172 1.784v5.606s11.48-6.61 16.87-10.447c5.148-3.668 9.957-7.805 14.71-11.976 4.46-3.914 8.889-7.889 12.936-12.23 4.27-4.58 8.237-9.457 11.921-14.524 3.5-4.814 6.753-9.826 9.639-15.034 2.778-5.012 5.006-10.314 7.355-15.543 1.983-4.413 5.686-13.355 5.686-13.355l-2.939-4.916z" fill="#000"/><path stroke="#000" stroke-width="2" stroke-linecap="round" stroke-linejoin="round" d="M65.309 174.165l6.41 11.304-14.259 2.297 7.982 14.46-15.424-.721 6.456 14.594-15.245-1.622 2.87 16.756-13.81-3.963 1.255 15.134-13.092-5.765-1.256 16.395-11.658-7.026-2.417 15.718"/><path d="M6.903 253.34c0-1.103.89-1.997 1.987-1.997 1.098 0 1.987.894 1.987 1.996 0 1.102-.89 1.996-1.987 1.996a1.991 1.991 0 0 1-1.987-1.996zM20.528 243.924c0-1.103.89-1.996 1.987-1.996s1.987.893 1.987 1.996c0 1.102-.89 1.996-1.987 1.996a1.991 1.991 0 0 1-1.987-1.996zM32.838 233.806c0-1.102.89-1.996 1.987-1.996s1.986.894 1.986 1.996c0 1.102-.889 1.996-1.986 1.996a1.991 1.991 0 0 1-1.987-1.996zM45.371 220.316c0-1.102.89-1.996 1.987-1.996s1.987.894 1.987 1.996c0 1.102-.89 1.996-1.987 1.996a1.991 1.991 0 0 1-1.987-1.996zM54.995 205.927c0-1.103.89-1.996 1.987-1.996s1.987.893 1.987 1.996c0 1.102-.89 1.996-1.987 1.996a1.991 1.991 0 0 1-1.987-1.996zM63.276 191.762c0-1.102.89-1.996 1.987-1.996s1.987.894 1.987 1.996c0 1.102-.89 1.996-1.987 1.996a1.991 1.991 0 0 1-1.987-1.996zM69.99 176.698c0-1.102.89-1.996 1.987-1.996 1.098 0 1.987.894 1.987 1.996 0 1.102-.89 1.996-1.987 1.996a1.991 1.991 0 0 1-1.986-1.996z" fill="#000"/><path d="M39.776 189.289c0-1.102.89-1.996 1.987-1.996s1.987.894 1.987 1.996c0 1.102-.89 1.996-1.987 1.996a1.991 1.991 0 0 1-1.987-1.996zM36.643 194.91c0-1.103.89-1.996 1.986-1.996 1.098 0 1.987.893 1.987 1.996 0 1.102-.89 1.996-1.987 1.996a1.991 1.991 0 0 1-1.986-1.996zM33.35 200.373c0-1.103.889-1.996 1.986-1.996s1.987.893 1.987 1.996c0 1.102-.89 1.996-1.987 1.996a1.991 1.991 0 0 1-1.987-1.996zM29.768 206.095c0-1.102.89-1.996 1.987-1.996s1.987.894 1.987 1.996c0 1.102-.89 1.996-1.987 1.996a1.991 1.991 0 0 1-1.987-1.996zM25.87 211.469c0-1.103.89-1.996 1.987-1.996s1.987.893 1.987 1.996c0 1.102-.89 1.995-1.987 1.995a1.991 1.991 0 0 1-1.987-1.995zM21.084 216.618c0-1.103.89-1.996 1.987-1.996s1.987.893 1.987 1.996c0 1.102-.89 1.995-1.987 1.995a1.991 1.991 0 0 1-1.987-1.995zM15.966 220.998c0-1.102.89-1.996 1.987-1.996s1.987.894 1.987 1.996c0 1.102-.89 1.996-1.987 1.996a1.991 1.991 0 0 1-1.987-1.996zM10.848 225.225c0-1.102.89-1.996 1.987-1.996s1.987.894 1.987 1.996c0 1.103-.89 1.996-1.987 1.996a1.991 1.991 0 0 1-1.987-1.996zM5.282 229.257c0-1.102.89-1.995 1.987-1.995s1.987.893 1.987 1.995c0 1.103-.89 1.996-1.987 1.996a1.991 1.991 0 0 1-1.987-1.996z" fill="#55A"/><g stroke="#55A" stroke-linecap="round" stroke-linejoin="round" stroke-width="2"><path d="M55.019 154.562s-1.793-5.646-2.41-8.539c-.305-1.427-.573-2.874-.635-4.333-.12-2.806 1.666-5.855.508-8.411-.288-.634-.957-1.247-1.65-1.274-2.168-.086-4.158 1.82-5.455 3.568-1.607 2.167-2.283 7.774-2.283 7.774s-1.772-7.384-4.694-9.176c-.253-.155-.687.218-.888 0-.375-.406.285-1.126.126-1.657-.972-3.247-3.019-6.942-6.216-8.029-.787-.267-1.82.05-2.41.637-1.15 1.148-1.558 3.114-1.269 4.716.491 2.726 2.723 4.957 4.82 6.755.217.184.627.131.762.382.344.64-.347 1.445-.254 2.166.193 1.495 1.65 4.206 1.65 4.206l-.508.382s-1.357-4.609-2.41-6.754c-1.313-2.674-3.213-5.014-4.821-7.52-.845-1.317-1.21-3.125-2.537-3.95-1.303-.81-3.306-1.382-4.568-.51-1.656 1.145-2.085 3.924-1.522 5.863.452 1.558 2.657 1.962 3.552 3.313.749 1.13.784 2.613 1.396 3.823.483.957 1.279 1.728 1.776 2.677.742 1.417.916 3.112 1.776 4.46.597.937 2.284 2.422 2.284 2.422l-1.142.892s-1.277-3.6-2.41-5.098c-.509-.671-1.442-.952-1.904-1.657-1.074-1.638-.87-3.87-1.776-5.607-.867-1.664-1.747-3.632-3.425-4.46-.797-.394-2.026-.62-2.664 0-1.795 1.742-.943 5.108-.254 7.518.647 2.265 2.297 4.174 3.933 5.863.254.262.677.34.888.637.612.866.467 2.085.888 3.059.528 1.223 1.144 2.448 2.03 3.44.282.317 1.015.765 1.015.765l-1.015 1.02s-.5-1.023-.761-1.53c-.863-1.67-1.443-3.543-2.665-4.97-.275-.322-.825-.384-1.015-.764-.17-.342.117-.783 0-1.147-.555-1.74-1.585-3.567-3.171-4.46-.518-.292-1.301-.486-1.776-.128-1.281.964-1.147 3.112-1.015 4.715.236 2.87 1.911 5.443 3.171 8.03.842 1.727 2.023 3.27 2.918 4.97 1.114 2.116 1.897 4.4 3.045 6.5 1.255 2.292 4.187 6.626 4.187 6.626"/><path d="M51.594 142.965s-2.6-1.799-3.172-3.186c-.874-2.12 0-6.882 0-6.882M36.75 161.444s.875-5.9 2.157-8.539c.938-1.932 3.933-5.097 3.933-5.097M30.788 159.023c1.522-1.742 3.298-4.376 5.582-6.118M27.616 156.092c2.622-2.69 4.818-5.096 8.373-8.412"/></g><g stroke="#55A" stroke-linecap="round" stroke-linejoin="round" stroke-width="2"><path d="M149.104 354.865s2.943-5.148 4.7-7.525c1.994-2.695 4.047-5.309 6.594-7.588 1.339-1.198 3.423-2.46 5.081-1.774.292.121.416.856.416.856M190.599 358.898c2.989-5.96 6.904-8.68 11.906-11.155 2.046-2.505 5.545-4.818 7.567-3.002 1.792 1.61 1.653 6.851-1.884 6.992"/><path d="M185.745 357.646c3.56-8.074 11.414-17.294 20.533-18.545 3.972-.545 9.418 1.583 10.771 5.373 1.618 4.534-1.22 11.184-5.88 13.185-2.904 1.246-6.668.211-8.544-2.047-1.648-1.984-1.105-5.973-.418-7.74"/><path d="M180.254 356.35c2.445-6.769 8.619-16.869 16.76-19.438 2.587-.817 6.24-.729 7.887 2.007"/><path d="M173.427 356.62c2.58-6.794 7.675-16.874 15.345-20.698 2.712-1.352 6.564-1.466 9.083.085"/><path d="M166.982 356.695c1.74-6.225 7.446-15.996 14.41-20.664 2.572-1.724 6.503-3.494 9.06-2.008M160.451 359.316c.921-4.736 6.001-15.63 12.105-20.83 1.83-1.559 4.726-4.115 6.727-2.577M154.026 359.303c.97-4.212 4.936-11.187 8.798-16.143 2.026-2.6 4.97-7.464 8.354-5.266"/></g><path d="M169.551 336.803l-5.838-14.37" stroke="#55A" stroke-width="2" fill="#000" stroke-linecap="round" stroke-linejoin="round"/><g><path d="M119.584 257.827l-14.031-.25s1.059-9.798 1.118-14.719c.057-4.788-.213-9.587-.746-14.345-.46-4.11-1.382-8.154-2.11-12.224-.641-3.58-1.178-7.183-1.987-10.728-1.123-4.916-2.416-9.8-3.974-14.595a112.547 112.547 0 0 0-3.973-10.478c-2.227-5.07-4.696-10.043-7.45-14.844-2.494-4.346-5.31-8.504-8.196-12.599-1.928-2.735-6.084-7.983-6.084-7.983l12.496-7.392s2.136 3.247 3.77 4.149c2.076 1.145 4.722.579 6.999 1.233 1.915.55 3.681 1.528 5.54 2.245 1.554.599 4.69 1.716 4.69 1.716s4.134 11.542 5.991 17.384c2.06 6.48 4.178 12.958 5.712 19.584 1.095 4.727 1.962 9.52 2.484 14.345.806 7.448.828 14.963.993 22.453.139 6.277.158 12.56 0 18.836-.103 4.12-.3 8.24-.62 12.35-.154 1.959-.622 5.862-.622 5.862z" fill="#55A"/><path fill="#FFF" d="M118.094 244.979l-4.47 5.364-3.725-5.489 4.098-5.738zM118.338 230.436l-3.689 5.934-4.445-4.918 3.268-6.253zM117.047 216.108l-3.384 6.114-4.688-4.686 2.948-6.41zM115.563 200.83l-4.18 6.92-5.633-5.336 3.655-7.257zM112.078 184.026l-3.379 7.347-6.194-4.665 2.819-7.624zM106.955 167.974l-2.745 8.729-7.468-4.365 2.09-8.962zM98.3 149.91l-.505 10.727-9.242-2.725-.264-10.794z"/></g><path fill="#FF5" d="M129.518 233.808l13.535.568.497-10.728 15.645-.25v10.728l13.494.223.042 13.68-13.287-.181-.249 10.728-15.983-.277-.049-10.493-13.272.042z"/><path fill="#010000" d="M145.515 236.33h11.842v9.373h-11.842z"/><path d="M2 186.618v118.696M300.076 175.17l-.26 120.355" stroke="#000" stroke-width="2" stroke-linecap="round"/></g></svg>