<svg width="302" height="482" xmlns="http://www.w3.org/2000/svg"><g fill="none" fill-rule="evenodd"><path d="M169.75 358.617s-1.398-2.081-2.25-2.994c-1.128-1.207-2.24-2.57-3.75-3.243-1.841-.819-3.988-.87-6-.748-2.058.124-6 1.497-6 1.497s.166-3.937-.5-5.738c-.744-2.014-2.047-3.93-3.75-5.24-2.047-1.574-4.667-2.657-7.25-2.744-2.002-.067-3.9.978-5.75 1.747-1.136.472-3.25 1.746-3.25 1.746s-1.143-4.483-2.25-6.487c-.773-1.398-1.755-2.737-3-3.742-1.594-1.286-3.528-2.184-5.5-2.744-.885-.251-2.75-.25-2.75-.25l4.75-12.474 4.5-15.467 3-11.227 1.75-9.23 2-9.98.25-6.736-17.25-.25-2.5 13.722-6.75 21.455-5.25 11.975-6.5 11.726-6.75 9.73-6 1.996-3.25 6.237v4.74l-5.25.748-3 5.988v6.486l.75 3.992-8-4.99-19.5-11.975L57 334.667l8.5-11.227 8.75-11.975 7.25-14.47 4.75-8.98-36.549-17.82-1.201-5.632-5.25-1.746-5.75.998-1.5 3.991.25 2.745-12 1.247L14 270.301l-13-.25v-82.328l7.5 6.487 10.75 9.979 9.25 12.723 7.856 12.893 3.676 14.528 1.064 7.608 49.654 24.098 1.75-7.235 1.5-10.228 1-11.975v-15.718h111l1.5 33.68 2 18.462 5 15.966 6.75 16.217 8.5 15.717 7 10.728 5.5 8.232-22 9.231-5.75-4.74-10-16.965-11.25-24.2-6-21.704-3.5-14.22-1.25-12.225-22.25.25 1.75 21.954 1.75 14.22 4 14.47 3 11.726 5 12.474 4.75 8.98 3.25 5.988-2 .749-3.25-.998-4.25 5.24-4-.999-.5-.499z" fill="#000"/><path fill="#F55" d="M95.649 130.46l4.457-.635 4.14 1.906 3.98-1.906 2.705 1.43 2.707-.795 6.049 13.027 7.323 18.428 4.457 15.727 2.07 13.504 1.273 10.167.319 10.326-11.144-.318-2.228-14.615-3.821-17.952-4.617-14.138-4.935-11.28-5.253-10.167-3.343-6.354zM200.08 134.114l-7.96 14.933-7.96 17.793-5.412 17.792-3.502 16.363-1.91 10.326 7.8.318 4.298-16.68 6.209-18.111 5.253-12.232 6.209-10.644 4.457-6.355-3.82-2.383-2.07-5.719z"/><path d="M132.25 123.108s1.398 2.08 2.25 2.994c1.128 1.207 2.24 2.57 3.75 3.243 1.841.819 3.988.87 6 .748 2.058-.124 6-1.497 6-1.497s-.166 3.937.5 5.738c.744 2.014 2.047 3.93 3.75 5.24 2.047 1.574 4.667 2.657 7.25 2.744 2.002.067 3.9-.978 5.75-1.747 1.136-.472 3.25-1.746 3.25-1.746s1.143 4.483 2.25 6.487c.773 1.398 1.755 2.737 3 3.742 1.594 1.286 3.528 2.184 5.5 2.744.885.251 2.75.25 2.75.25l-4.75 12.474-4.5 15.467-3 11.227-1.75 9.23-2 9.98-.25 6.736 17.25.25 2.5-13.722 6.75-21.455 5.25-11.975 6.5-11.726 6.75-9.73 6-1.996 3.25-6.237v-4.74l5.25-.748 3-5.988v-6.486l-.75-3.992 8 4.99 19.5 11.975L245 147.058l-8.5 11.227-8.75 11.975-7.25 14.47-4.75 8.98 36.549 17.82 1.201 5.632 5.25 1.746 5.75-.998 1.5-3.991-.25-2.745 12-1.247 10.25 1.497 13 .25v82.328l-7.5-6.487-10.75-9.979-9.25-12.723-8.5-14.47-3.25-12.973-.75-6.487-49.75-25.197-1.75 7.235-1.5 10.228-1 11.975v15.718H96l-1.5-33.68-2-18.462-5-15.966-6.75-16.217-8.5-15.717-7-10.728-5.5-8.232 22-9.231 5.75 4.74 10 16.965 11.25 24.2 6 21.704 3.5 14.22 1.25 12.225 22.25-.25L140 194.46l-1.75-14.22-4-14.47-3-11.726-5-12.474-4.75-8.981-3.25-5.987 2-.749 3.25.998 4.25-5.24 4 .999.5.499z" fill="#000"/><path d="M241.16 206.562l11.01 5.494s.034-2.822.787-3.924c1.229-1.799 3.5-2.673 5.505-3.532 2.026-.868 4.255-1.176 6.423-1.57 1.083-.196 3.277-.392 3.277-.392l-.13-38.327s-4.649 4.09-6.686 6.41c-2.43 2.767-4.495 5.841-6.554 8.894-2.004 2.972-3.91 6.016-5.637 9.157-1.682 3.06-3.164 6.23-4.587 9.418-1.229 2.752-3.409 8.372-3.409 8.372z" fill="#F55"/><path fill="#FF5556" d="M9.25 160.78l16.5-11.477L46 138.326l9.25-4.74 1.25 3.243-5.25 12.225-5 18.461-.75 11.476 2.25 14.22 4 10.728 6.75 10.978 7.75 9.23 6.25 5.988 7.5 5.488 10.75 5.489.5 13.97-1.5 8.733-2 10.727-20.5-9.73-1-16.465-4-17.464-7-18.461-6-9.73L36 185.478l-11.75-11.726-9.25-7.235z"/><path d="M87 1.361l31.5 57.38c11.286-4.198 23.3-5.604 35.184-6.86 12.973-1.371 26.104-1.422 39.13-.706 10.633.584 21.33 1.373 31.686 4.074L260 1.361H87z" stroke="#55A" stroke-width="2" fill="#FF5"/><path d="M162.19 31.85c1.207 1.007 2.788 1.9 4.358 1.803 1.58-.097 2.936-1.305 4.135-2.339.758-.653 1.216-1.329 1.846-2.365.817.969 1.527 2.184 2.642 2.84 1.376.81 3.172 1.75 4.651 1.149 1.78-.724 2.885-2.982 3.032-4.894.137-1.768-.725-3.749-2.077-4.9-1.272-1.083-3.206-1.046-4.87-1.2.475-1.491 1.275-3.398.692-4.964-.682-1.831-2.472-3.599-4.41-3.87-1.756-.244-3.696.897-4.805 2.278-.967 1.203-1.34 3-1.032 4.512.226 1.116 1.045 2.066 2 2.772-1.94.163-4.176.38-5.54 1.754-1.306 1.316-1.769 3.466-1.632 5.313.058.778.63 1.43 1.01 2.112zm8.49-6.385c-.135-.89.506-2.187 1.4-2.308.917-.124 2.032.98 2.018 1.903-.014.862-1.075 1.719-1.939 1.718-.66 0-1.38-.662-1.48-1.313zM134.14 17.25c-1.395.724-2.828 1.839-3.342 3.321-.518 1.495.047 3.218.575 4.709.405 1.141 1.214 2.102 1.93 3.08-1.025-.352-2.214-.375-3.16.09-1.79.879-3.721 2.637-3.783 4.627-.059 1.917 1.65 3.803 3.363 4.673 1.584.805 3.747.772 5.332-.031 1.49-.756 2.2-2.552 2.982-4.027 1.196 1.011 2.647 2.057 4.208 2.053 2.099-.005 4.712-.909 5.643-2.786.86-1.732-.044-4.076-1.106-5.692-.72-1.095-1.94-2.095-3.245-2.222-1.182-.115-2.253.799-3.273 1.407.595-1.85 1.253-3.994.505-5.778-.716-1.709-2.527-2.961-4.288-3.544-.742-.246-1.565.03-2.342.12zm2.882 10.776c.912.115 2.153.994 1.997 1.898-.157.91-1.73 1.582-2.536 1.128-.747-.421-.704-1.786-.316-2.55.147-.29.531-.517.855-.476zM211.049 15.321c1.394.725 2.827 1.84 3.34 3.323.518 1.494-.046 3.218-.575 4.708-.404 1.142-1.213 2.102-1.93 3.08 1.026-.351 2.215-.375 3.16.09 1.79.88 3.722 2.637 3.784 4.627.059 1.917-1.65 3.803-3.363 4.674-1.584.805-3.747.772-5.332-.032-1.491-.756-2.2-2.552-2.982-4.026-1.196 1.01-2.647 2.056-4.208 2.053-2.099-.005-4.712-.91-5.644-2.787-.86-1.732.044-4.076 1.107-5.692.72-1.095 1.939-2.095 3.245-2.222 1.182-.115 2.253.799 3.273 1.408-.595-1.85-1.253-3.995-.506-5.778.716-1.71 2.527-2.962 4.29-3.545.74-.246 1.564.03 2.34.12zm-2.883 10.777c-.912.115-2.154.994-1.997 1.898.157.91 1.73 1.583 2.536 1.128.747-.42.704-1.785.316-2.55-.148-.29-.531-.517-.855-.476z" fill="#000" fill-rule="nonzero"/><path d="M242.151 20.186c-1.748-.044-3.78.52-4.967 1.888-1.24 1.427-1.35 3.666-1.423 5.607-.706-.916-1.351-2.121-2.435-2.41-1.197-.32-2.601.205-3.593.993-1.464 1.164-3.035 3.08-2.835 5 .216 2.08 2.235 3.788 4.091 4.499 1.381.529 3.006.036 4.392-.513.063.482.12 1.004.184 1.509l2.407-3.618a.977.977 0 0 1-.363.167c-.86.157-2.028-1.002-1.872-1.912.155-.903 1.545-1.319 2.39-1.12.3.07.573.396.61.72.043.387-.034.879-.189 1.301l6.58-9.89a9.615 9.615 0 0 0-.962-1.3c-.659-.345-1.278-.902-2.015-.92zM103.543 21.668c1.745.107 3.72.842 4.786 2.307 1.112 1.528 1.03 3.768.935 5.709.782-.853 1.53-1.998 2.634-2.194 1.22-.215 2.573.428 3.493 1.298 1.359 1.285 2.759 3.33 2.395 5.225-.395 2.054-2.554 3.582-4.464 4.132-1.421.408-2.998-.222-4.331-.888-.104.475-.207.99-.314 1.487l-2.086-3.811c.1.083.223.165.347.198.844.23 2.107-.824 2.03-1.744-.076-.913-1.426-1.447-2.285-1.321-.304.044-.605.346-.67.664-.076.383-.041.88.076 1.313l-5.703-10.417a9.618 9.618 0 0 1 1.07-1.214c.686-.287 1.352-.789 2.087-.744zM184.73 36.691c-2.619.324-5.382-.708-7.638-2.06-1.201-.719-2.036-1.928-2.861-3.051-.75-1.02-1.238-2.687-1.868-3.308.359 3.453 1.278 5.698 3.073 7.87 1.725 2.086 4.337 3.371 6.877 4.328 2.733 1.03 5.745 1.604 8.664 1.396 3.436-.245 6.834-1.44 9.857-3.07 2.052-1.107 3.98-2.591 5.39-4.432.783-1.024 1.45-2.538 1.58-3.518-1.31 1.571-3.495 3.406-5.67 4.433-1.984.937-4.257 1.737-6.436 1.44-2.114-.289-3.683-1.401-5.626-3.017-2.055 1.098-3.31 2.738-5.341 2.989z" fill="#000"/><path d="M160.546 37.667c2.602.19 5.225-1.057 7.432-2.446 1.162-.73 2.05-1.855 2.852-2.969.734-1.02.787-3.411 1.748-3.336-.176 3.466-1.212 5.547-2.888 7.729-1.635 2.128-4.105 3.588-6.563 4.673-2.644 1.168-5.587 1.893-8.477 1.834-3.405-.07-6.819-1.09-9.886-2.565-2.083-1-4.062-2.385-5.548-4.152-.826-.982-1.563-2.46-1.742-3.433 1.375 1.503 3.625 3.224 5.826 4.14 2.006.834 4.29 1.517 6.424 1.11 2.072-.396 3.563-1.586 5.397-3.299 2.084.992 3.408 2.566 5.425 2.714zM216.24 39.738c-2.05-.065-4.11-1.395-5.755-2.948-.875-.827-1.351-2.11-1.986-3.199-.499-.853-.675-2.588-1.431-2.608.022 3.22.832 4.925 2.025 6.964 1.231 2.105 3.104 3.697 4.997 4.928 2.038 1.324 4.324 2.267 6.596 2.48 2.676.251 5.391-.376 7.85-1.455 1.668-.733 3.269-1.829 4.494-3.324.682-.832 1.31-2.13 1.484-3.012-1.13 1.262-2.955 2.644-4.714 3.286-1.603.586-3.42 1.006-5.082.432-1.614-.558-2.745-1.796-4.127-3.55-1.67.725-2.762 2.057-4.352 2.006z" fill="#000"/><path d="M121.28 42.954c-2.01.778-4.535.263-6.745-.654-1.177-.487-2.21-1.552-3.197-2.464-1.04-.96-2.11-3.435-2.85-3.143 1.304 3.298 2.836 5.464 5.16 7.37 1.912 1.568 4.478 2.515 6.801 2.998 2.5.52 5.088.544 7.373-.174 2.69-.847 5.067-2.611 7.016-4.733 1.324-1.44 2.436-3.227 3.027-5.268.328-1.136.419-2.727.235-3.705-.802 2.395-1.56 4.45-3.252 5.952-1.275 1.132-3.042 1.875-4.747 1.907-1.916.036-3.373-.712-5.41-1.94-1.327 1.432-1.853 3.25-3.412 3.854z" fill="#000"/><path d="M114.366 49.168s5.122 1.641 7.778 1.764c3.147.144 6.459-.032 9.37-1.235 2.057-.85 3.711-2.502 5.303-4.058 1.078-1.054 2.828-3.528 2.828-3.528s5.816 3.192 9.016 3.881c3.168.683 6.506.58 9.722.177 3.092-.388 6.271-.997 9.016-2.47 2.207-1.184 5.657-4.94 5.657-4.94s4.365 4.68 7.248 5.822c2.801 1.11 6.004.847 9.015.706 2.748-.13 5.51-.579 8.132-1.412 2.612-.83 7.425-3.528 7.425-3.528s2.746 3.76 4.596 5.116c1.722 1.261 3.79 2.025 5.833 2.646 2.058.626 4.222 1.25 6.364 1.059 2.619-.235 7.425-2.654 7.425-2.654l-5.055 7.556s-15.231-2.625-22.918-3.345c-6.453-.604-12.946-.737-19.426-.814-6.979-.083-13.967-.042-20.934.379-5.822.352-11.621 1.05-17.406 1.794-4.354.56-8.744.994-13.014 2.009-3.914.93-11.48 3.719-11.48 3.719l-4.495-8.644z" fill="#F55"/><g stroke="#55A" stroke-linecap="round" stroke-linejoin="round" stroke-width="2"><path d="M119.194 59.03c-2.027 10.353-3.987 20.772-7.316 30.802-3.226 9.192-8.013 17.723-12.767 26.188-1.792 2.702-5.233 5.056-8.594 4.144-2.22-.631-2.304-2.98-1.615-4.806"/><path d="M124.425 57.726c-1.813 16.28-5.679 32.488-12.233 47.474-3.684 8.424-9.65 18.926-18.835 21.265-3.921.999-9.512-.558-11.416-4.122-2.142-4.008-.576-10.84 3.299-13.225 3.656-2.251 9.575-.246 12.574 2.824 1.07 1.096.765 2.981.895 4.503"/><path d="M130.309 55.334c-1.407 10.098-2.653 20.602-5.648 30.499-3.478 11.498-7.194 23.357-14.183 33.135-3.218 4.501-6.926 9.9-12.328 11.127-2.691.612-6.283.395-7.94-2.34"/><path d="M135.975 55.11c-1.227 10.54-2.846 20.987-5.687 31.155-2.401 8.595-5.41 17.105-9.54 25.019-3.544 6.794-7.078 13.227-12.933 19.01-1.488 1.47-5.045 1.282-7.58-.269"/><path d="M141.309 53.998c-.962 10.57-2.318 21.052-4.902 31.289-2.184 8.652-4.992 17.227-8.907 25.25-3.2 6.56-6.09 12.53-11.797 18.458-1.45 1.506-4.14 2.712-6.713 1.226"/><path d="M147.235 52.894c-1.039 10.545-2.306 19.323-4.496 28.785-1.972 8.518-4.425 17.12-7.753 25.06-2.722 6.493-5.179 12.4-9.883 18.21-1.195 1.476-3.371 2.627-5.385 1.089"/><path d="M152.34 52.297c-.624 9.99-1.52 18.32-3.261 27.326-1.567 8.108-3.583 16.31-6.441 23.917-2.338 6.222-4.446 11.881-8.667 17.523-1.072 1.433-3.075 2.592-5.016 1.206"/><path d="M157.91 52.223c-.577 9.621-1.407 17.643-3.018 26.316-1.45 7.808-3.315 15.708-5.96 23.033-2.164 5.992-4.115 11.442-8.021 16.875-.992 1.38-2.846 2.496-4.642 1.162"/></g><g stroke="#55A" stroke-linecap="round" stroke-linejoin="round" stroke-width="2"><path d="M140.25 119.935c.74.682 1.755 1.4 2.76 1.27 1.636-.213 2.802-1.85 3.813-3.15 1.505-1.937 2.161-4.403 3.137-6.651 1.006-2.316 1.863-4.693 2.8-7.037"/><path d="M155.258 109.349c-1.678 3.776-3.116 7.688-5.223 11.244-1.005 1.696-1.76 3.849-3.509 4.764-2.407 1.258-5.896 1.747-8.148.23-1.673-1.127-2.047-3.633-2.105-5.664M157.76 112.865l-7.506 15.422M176.603 127.415l-5.593 10.869M192.792 147.243l6.475-12.925M200.592 134.024c1.261 3.65 1.118 8.136 3.757 10.96 2.339 2.502 6.092 4.534 9.478 3.991 3.452-.554 6.85-3.558 7.899-6.886 1.851-5.878-2.303-12.677-4.47-17.937M163.946 118.603c-1.896 3.211-6.078 7.425-4.855 11.354.551 1.771 2.88 3.315 4.708 2.98 2.182-.4 2.91-3.38 3.989-5.315.779-1.397 1.17-2.976 1.75-4.466"/><path d="M160.706 116.093c-2.732 4.73-5.516 9.349-6.307 14.233-.44 2.72 1.89 5.842 4.393 7.006 2.75 1.28 6.968.98 9.015-1.256 2.165-2.363 3.239-5.114 4.563-7.812.458-.934 1.142-2.905 1.142-2.905M180.282 129.471c-2.061 3.734-4.967 7.998-4.106 12.201.592 2.892 3.06 5.785 5.898 6.615 2.136.625 5.075-.036 6.429-1.8 2.917-3.8 4.452-8.092 5.76-11.728"/><path d="M183.225 131.674c-1.13 2.538-3.925 7.27-2.224 10.37.69 1.255 2.69 2.012 4.03 1.504 3.209-1.216 3.999-6.824 4.817-9.083M223.551 55.89c-.306 16.71.515 33.574-1.725 50.114-.984 7.264-2.85 15.1-7.702 20.603-3.44 3.903-8.548 6.533-13.826 7.27M224.226 81.987c3.043 5.305 5.73 11.058 6.503 17.108.72 5.636-.42 10.928-1.856 16.942"/><path d="M223.5 90.68c3.33 3.87 3.07 7.542 3.337 11.536.173 2.601-.797 5.651-1.159 7.736M222.92 105.46c2.724 5.793 7.004 11.27 7.597 17.643.338 3.633-.037 7.897-2.4 10.68-1.378 1.621-3.8 2.022-5.924 2.395"/><path d="M221.903 111.98c2.598 4.943 6.319 10.919 4.408 16.168-.792 2.178-2.92 4.262-5.715 3.973"/><path d="M219.725 117.052c2.551 3.828 4.277 7.063 2.728 10.238-.502 1.03-2.355 1.194-3.164 1.353M214.643 127.919c1.649 4.312 5.072 9.74 2.6 13.666-1.463 2.324-5.47 3.269-7.972 2.128-3.426-1.563-3.982-6.502-4.937-10.143"/><path d="M207.964 132.12c.687 3.654 1.562 8.701 4.556 8.003 2.119-.494.755-4.366.375-6.504-.233-1.313-1.245-2.887-1.591-3.672"/></g><g stroke="#000" stroke-linecap="round" stroke-linejoin="round" stroke-width="2"><path d="M257.025 135.562c-8.826 8.507-17.312 17.793-24.386 27.922-6.604 9.457-11.676 19.916-16.626 30.34 8.25 4.115 16.499 8.232 24.748 12.348 3.94-9.077 8.376-18.006 13.876-26.228 3.879-5.798 8.426-11.34 13.363-16.11.118-6.704-.118-14.096 0-20.8-3.536-2.587-7.44-4.885-10.975-7.472z" fill="#FF5"/><path d="M260.731 139.854c-7.623 7.161-9.929 8.717-14.2 13.724-5.74 6.728-10.694 14.135-15.198 21.742-3.84 6.486-8.559 17.566-10.017 20.267M267.488 155.64c-5.368 5.176-10.959 11.311-15.688 17.58a105.246 105.246 0 0 0-9.258 14.634c-2.536 4.855-4.623 9.956-6.377 15.142"/><path d="M258.45 142.546l1.193 10.755 7.635-.052M249.247 151.838l.707 11.996 9.704-1.007M240.408 161.911l1.06 13.918 9.546-1.764M232.63 174.18l1.767 12.587 9.534-1.974M225.872 185.863l3.222 12.547 9.927-4.222"/></g><path stroke="#55A" stroke-width="2" stroke-linecap="round" stroke-linejoin="round" d="M230.706 119.315l19.57 11.799 17.01 11.391"/><path d="M301 205.223c-7.157.362-15.41-1.843-23.155-2.096-5.198-.17-10.553-.87-15.599.392-3.239.81-7.257 1.616-8.95 4.488-1.55 2.63-1.797 7.006.384 9.143 2.638 2.584 8.322 2.708 11.087.26 1.543-1.366.714-4.099.593-6.146 4.891-.46 9.825-.917 14.738-.704 3.899.168 7.703 1.398 11.601 1.564 3.101.133 6.398-.225 9.301-.453v-6.448z" stroke="#55A" stroke-width="2" fill="#FF5" stroke-linecap="round" stroke-linejoin="round"/><g fill="#FFF" stroke="#55A" stroke-linecap="round" stroke-linejoin="round" stroke-width="2"><path d="M264.417 222.526c.434-1.887 1.334-3.672 2.388-5.297.773-1.19 1.575-2.516 2.831-3.178 1.446-.76 3.238-.458 4.865-.618 2.53-.248 5.145-1.156 7.608-.53.848.217 1.366 1.188 2.211 1.413 1.769.47 3.707-.699 5.485-.265.796.195 1.663.56 2.123 1.236.334.493.265 1.766.265 1.766s2.641-.704 3.715-.089c.847.486 1.269 1.597 1.416 2.56.2 1.307-.278 2.668-.796 3.884a8.917 8.917 0 0 1-1.947 2.825c-.378.373-1.326.883-1.326.883s2.705-1.353 3.98-.883c.83.306 1.42 1.253 1.592 2.119.184.924-.38 1.852-.707 2.736-.465 1.26-.818 2.67-1.77 3.62-.997.995-3.803 1.853-3.803 1.853s2.717-.914 3.892-.353c.767.366 1.252 1.286 1.415 2.119.225 1.15-.15 2.411-.707 3.443-.415.769-1.098 1.419-1.858 1.853-.608.348-2.034.53-2.034.53s2.66.812 2.83 1.942c.19 1.263-1.255 2.407-2.388 3.001-2.329 1.22-5.315-.08-7.873.53-1.465.35-2.694 1.409-4.157 1.765-2.241.547-4.653 1.05-6.9.53-1.7-.393-3.26-1.435-4.512-2.648-1.472-1.428-2.376-3.365-3.273-5.208-.916-1.884-1.69-3.866-2.123-5.915-.592-2.8-.547-5.702-.619-8.562-.033-1.324.055-2.649.089-3.973.026-1.03-.143-2.085.088-3.09h0z"/><path d="M291.662 217.759c-1.54 2.236-3.975 4.107-6.814 4.052-1.92.374-3.856-.728-5.67-.243-1.253.808-2.4 1.636-3.749 2.139-1.224.456-2.505.818-3.847.76"/><path d="M293.078 227.38c-3.159 1.828-7.732 3.6-11.405 3.96-1.604.022-3.804.114-4.586-1.613-.685-1.363-.138-3.144 1.272-3.801 2.373-1.376 6.824-3.724 9.411-4.636"/><path d="M280.428 224.91c1.583.016 4.293 1.352 4.515 3.164.222.626.24 1.299.262 1.955M292.724 236.385c-4.034.762-9.33 2.145-13.443 1.508-1.413-.479-3.342-.946-3.807-2.567-.112-1.569 1.314-2.87 2.641-3.446.522-.15 3.364-.31 3.905-.35"/><path d="M282.816 232.148c1.588.772 2.08 2.545 1.578 4.157-.047.264-.1.526-.162.786M282.993 214.493c.41 1.331 1.048 3.11 2.725 3.11 1.984.109 3.864-.613 5.59-1.521M280.163 238.15c-1.349.518-4.096 1.514-2.98 3.367 1.723 2.185 4.725 2.41 7.287 2.707 2.47.067 4.932-.492 7.402-.129.55.044 1.099.093 1.648.146M284.232 244.241c-1.95.684-3.85 2.666-2.508 3.915.695.877 2.527 1.466 3.57 1.647"/><path d="M283.79 238.415c1.086.84 1.565 1.805 1.61 2.913.034.871-.87 1.984-1.08 2.384M286.62 244.683c1.138.737 2.475 2.028 1.62 3.48a9.095 9.095 0 0 1-.558 1.198"/></g><g stroke="#55A" stroke-linecap="round" stroke-linejoin="round" stroke-width="2"><path d="M268 201.944V50.26l14.5-12.973L295 50.26v154.178"/><path d="M281.5 62.235s2.015 12.649 1.7 19c-.326 6.581-2.85 12.885-3.7 19.42-.746 5.74-1.717 11.556-1.22 17.323.563 6.534 3.73 12.618 4.72 19.1.83 5.437 1.324 10.977 1 16.466-.383 6.485-2.786 12.72-3.46 19.18-.632 6.051-1.28 12.204-.54 18.242.525 4.286 3.5 12.474 3.5 12.474"/><path d="M289.375 260.947c0 4.043-3.206 7.32-7.16 7.32s-7.16-3.277-7.16-7.32c0-4.044 3.206-7.321 7.16-7.321s7.16 3.277 7.16 7.32z" fill="#FF5"/><path d="M276.03 257.708c-.336 3.818 1.16 4.89 3.025 6.277 1.018.758 2.496.704 3.761.6.997-.08 2.031-.368 2.847-.946.616-.436 1.262-1.248 1.388-1.788" fill="#FF5"/></g><path d="M192.818 147.399s-3.038 3.696-5.112 4.757c-.84.43-2.78.555-2.78.555s-3.92 8.798-5.562 13.32c-2.204 6.07-4.055 12.267-5.746 18.499-1.642 6.05-3.23 12.132-4.264 18.314-.797 4.77-1.483 14.43-1.483 14.43l17.61-.185s1.147-6.801 1.855-10.175c.768-3.66 1.554-7.323 2.595-10.915a143.682 143.682 0 0 1 4.449-12.95c1.771-4.464 3.783-8.837 5.932-13.134a182.139 182.139 0 0 1 7.23-13.134c1.502-2.471 4.82-7.215 4.82-7.215l-5.19-1.85s-5.597 8.347-7.972 12.765c-2.89 5.374-5.323 10.99-7.6 16.65-2.513 6.243-4.779 12.597-6.674 19.053-1.5 5.11-3.708 15.54-3.708 15.54l-7.6-.185s2.148-14.001 3.707-20.904c1.282-5.677 2.87-11.288 4.635-16.835a173.04 173.04 0 0 1 4.82-13.32c1.825-4.441 6.038-13.081 6.038-13.081zM86.966 126.964c7.745 12.357 15.099 25.079 20.548 38.593 4.063 10.077 6.601 20.734 8.92 31.346 1.428 6.542 2.106 13.226 3.058 19.853l22.628.177c-.856-11.34-1.176-20.06-2.974-29.92-2.337-12.816-5.529-25.557-10.109-37.755-2.864-7.628-6.68-14.41-10.782-21.941-.683 2.745-3.942 2.67-4.463 4.3 5.953 11.353 11.378 23.1 14.83 35.426 4.052 14.466 6.84 34.966 6.718 44.561-2.808-.047-8.267-.27-11.075-.316-2.321-14.77-4.57-27.962-8.994-41.36-2.686-8.136-6.7-15.788-10.569-23.435-2.673-5.281-6.476-11.295-8.72-15.472-3.107-1.158-5.19-1.745-6.165-3.977-.479-.027-2.372-.053-2.851-.08z" stroke="#55A" stroke-width="2" fill="#FF5" stroke-linecap="round" stroke-linejoin="round"/><g stroke="#000" stroke-linecap="round" stroke-linejoin="round"><path d="M151.025 159.982s-1.826-5.518-.184-7.333c2.14-2.365 7.116-2.793 9.553-.733 2.11 1.784.735 8.25.735 8.25s5.358-1.303 6.98.366c1.961 2.018 2.043 6.32.184 8.433-1.504 1.708-6.797.733-6.797.733s.34 5.251-1.47 6.6c-2.115 1.575-5.876 1.142-7.899-.55-1.74-1.458-1.653-6.6-1.653-6.6s-5.895 1.537-7.532-.367c-1.924-2.238-1.276-6.825.919-8.799 1.774-1.595 7.164 0 7.164 0z" fill="#FF5"/><path d="M160.394 165.023a4.129 4.129 0 0 1-4.133 4.125 4.129 4.129 0 0 1-4.134-4.125 4.129 4.129 0 0 1 4.134-4.124 4.129 4.129 0 0 1 4.133 4.124z" stroke-width="2" fill="#F55"/><path d="M130.443 143.74c-.252-2.015-.915-4.507.347-6.114 1.665-2.122 5.095-2.909 7.743-2.379 2.58.516 4.515 2.919 6.065 5.04 1.237 1.695 1.748 3.828 2.356 5.835.868-1.044 2.123-1.95 3.47-2.147 1.324-.193 2.632.556 3.875 1.051-2.105 1.838-4.265 3.895-5.259 6.496-.962 2.519-.705 5.404-.395 8.078-1.936-4.262-3.823-8.608-6.517-12.437-1.372-1.95-2.565-4.554-4.843-5.27-1.53-.481-3.159.583-4.695 1.04-.733.217-1.437.522-2.147.807zM162.394 157.538s2.34-4.384 4.42-5.469c1.465-.764 3.435-1.018 4.949-.352 1.65.725 3.359 4.233 3.359 4.233s-2.027 2.829-3.536 2.823c-1.215-.005-1.654-1.983-2.828-2.293-2.08-.55-6.364 1.058-6.364 1.058zM162.57 169.776c1.599 1.465 3.423 2.791 4.255 4.744.773 1.816 1.195 4.08.438 5.902-.71 1.71-2.377 3.379-4.215 3.627-1.168.158-2.215-.855-3.195-1.509-.4-.266-1.08-.675-1.068-.967 1.216-.274 2.606-.784 3.401-1.786 1.05-1.322 1.207-3.213 1.276-4.9.07-1.727-.459-3.377-.892-5.11zM149.6 170.835c0 .3-3.91 3.278-4.688 5.578-.67 1.98-.844 4.512.297 6.265.946 1.454 2.96 1.95 4.654 2.336 1.293.295 2.658.05 3.98-.066-.156-1.316-.46-2.685-1.133-3.836-.677-1.156-2.274-1.65-2.804-2.88-.977-2.267-.694-4.967-.306-7.397h0z" fill="#FF5"/></g><path d="M152.722 195.951c-2.196.324-4.493 1.514-5.764 3.33-1.568 2.24-1.547 5.345-1.416 8.073.115 2.405 2.238 4.577 1.921 6.964-.261 1.973-3.033 5.146-3.033 5.146l2.528 2.22s2.715-1.983 3.438-3.43c1.079-2.16 1.046-4.754 1.011-7.166-.023-1.603-1.138-3.173-.809-4.743.315-1.497 1.016-3.585 2.528-3.835 1.138-.187 2.127 1.14 2.73 2.12.829 1.343.873 3.066.911 4.642.06 2.549-1.737 5.096-1.112 7.568.4 1.586 1.614 2.966 2.932 3.936.49.36 1.72.606 1.72.606l1.82-3.028s-1.88-.924-2.225-1.816c-.91-2.348 1.015-4.953 1.112-7.468.093-2.392.176-4.87-.505-7.165-.514-1.732-1.186-3.652-2.63-4.743-1.407-1.064-3.41-1.469-5.157-1.211z" fill="#FF5"/><path d="M55.676 134.726c12.29 16.238 22.653 34.33 28.87 53.66 5.443 16.926 6.23 35.125 6.839 52.891.277 8.073-.337 16.188-1.454 24.188-.407 2.916-1.222 5.76-1.905 8.624" stroke="#55A" stroke-width="2" stroke-linecap="round" stroke-linejoin="round"/><g stroke="#000" stroke-linecap="round" stroke-linejoin="round" stroke-width="2"><path d="M8.75 161.228c14.388 10.767 27.765 23.313 38.08 37.963 7.356 10.447 12.663 22.433 16.319 34.668 2.96 9.906 4.75 21.668 4.351 30.704L41.25 252.34c-1.029-8.747-3.02-17.51-6.768-25.45-5.064-10.729-12.26-20.631-20.744-28.937A44.859 44.859 0 0 0 1 189.22v-21.954l7.75-6.038z" fill="#FF5"/><path d="M5.75 165.02c9.136 5.693 17.308 12.306 24.497 20.016 8.75 9.384 16.373 20.007 22.2 31.43 4.82 9.446 8.266 19.695 10.261 30.106.99 5.162 1.076 10.478.792 15.746M1.75 184.48a88.42 88.42 0 0 1 16.587 12.968c6.242 6.21 11.86 13.165 16.37 20.722 3.632 6.085 6.412 12.722 8.423 19.514 1.623 5.48 3.279 12.764 2.87 16.9"/><path d="M51.25 256.58l-.25-4.49 4 .249v3.492l4.25.998-1-9.23-7.5.748-2.25-8.482 3.25-.998 1.5 4.49 4-.998-2.5-8.232-7.5 2.494-4-8.482 4.25-1.497 1.75 3.742 4-1.247-3.5-8.732-7.5 3.742-4.25-7.983 3.75-2.744 2 4.24 4.25-1.995-4.75-7.734-7 4.241-5-6.736 3.75-2.744 1.75 2.744L40 203.44l-4.75-6.985-7.25 5.738-5.5-6.486 3.5-3.493 3.25 3.742 2.5-2.495-6.25-7.235-6.5 5.988-6.25-5.988 3-3.742 4 3.992 2.25-3.493-6.75-5.987-6.5 6.486-6.822-5.24L5.5 174.75l3.25 2.495 3-2.744-7-4.74-3.25 3.492"/></g><path d="M59.815 132.61c12.437 16.633 22.777 35.178 29.154 54.881 5.168 15.967 6.354 33.093 6.907 49.863.325 9.857-.67 19.756-2.122 29.511-.47 3.158-1.363 6.24-2.124 9.341" stroke="#55A" stroke-width="2" stroke-linecap="round" stroke-linejoin="round"/><path d="M56.383 137.196s-4.047 8.832-5.657 13.407c-1.643 4.672-3.267 9.402-4.066 14.289-.816 4.997-1.008 10.118-.707 15.171.234 3.928 1.014 7.82 1.945 11.643.862 3.542 1.853 7.088 3.359 10.408 2.037 4.493 4.773 8.658 7.601 12.702 2.95 4.217 6.049 8.39 9.723 11.996 2.933 2.878 6.29 5.323 9.722 7.585 3.874 2.552 12.198 6.704 12.198 6.704" stroke="#55A" stroke-width="2" stroke-linecap="round" stroke-linejoin="round"/><path d="M73.177 162.599c-.855 8.214-1.42 16.762.62 24.764 1.373 5.381 4.313 10.354 7.611 14.827 2.173 2.948 5.048 5.334 7.856 7.686 0 0-3.08-16.305-5.736-24.137-2.714-8.001-10.351-23.14-10.351-23.14z" stroke="#55A" stroke-width="2" fill="#55A" stroke-linecap="round" stroke-linejoin="round"/><path d="M60.095 141.782s-3.411.027-4.596 1.059c-1.377 1.199-2.01 3.293-1.944 5.116.065 1.814 1.127 3.55 2.298 4.94 1.662 1.972 4.07 3.224 6.364 4.41 1.837.949 5.833 2.116 5.833 2.116M65.93 174.242s-4.838-.157-7.249-.353c-2.069-.168-4.298.154-6.187-.706-1.745-.794-3.374-2.174-4.243-3.88-.724-1.425-.864-3.202-.53-4.764.486-2.268 1.654-4.636 3.536-5.998 1.562-1.13 3.726-1.223 5.656-1.235 3.79-.022 11.137 2.294 11.137 2.294" stroke="#55A" stroke-width="2" stroke-linecap="round" stroke-linejoin="round"/><path d="M66.99 162.335s-5.788-1.856-8.662-1.326c-1.377.254-2.963.82-3.713 2.083-.696 1.173-.661 2.877-.176 4.166.607 1.616 2.025 2.953 3.535 3.598 2.572 1.1 8.309 0 8.309 0l.707-8.521z" fill="#55A"/><path d="M68.183 188.26s-4.64 1.342-6.991 1.901c-2.017.48-4.032 1.466-6.096 1.247-1.907-.202-3.888-.984-5.25-2.305-1.137-1.103-1.83-2.712-2.005-4.269-.254-2.26.108-4.823 1.466-6.668 1.127-1.533 3.152-2.285 4.98-2.89 3.591-1.187 11.295-1.292 11.295-1.292" stroke="#55A" stroke-width="2" stroke-linecap="round" stroke-linejoin="round"/><path d="M66.339 177.605s-6.518-.072-9.32 1.34c-1.233.622-2.57 1.622-2.911 2.947-.318 1.231.216 2.697 1.055 3.666 1.05 1.213 2.79 1.935 4.412 2.03 2.765.163 7.887-2.556 7.887-2.556l-1.123-7.427z" fill="#55A"/><path d="M73.982 201.918s-4.19 2.4-6.342 3.499c-1.845.943-3.57 2.376-5.626 2.651-1.901.255-4.011-.038-5.648-1-1.366-.802-2.422-2.202-2.96-3.673-.783-2.136-1.04-4.711-.159-6.825.732-1.756 2.52-2.965 4.154-3.984 3.207-2.002 10.667-3.924 10.667-3.924" stroke="#55A" stroke-width="2" stroke-linecap="round" stroke-linejoin="round"/><path d="M68.756 191.82s-5.563 1.497-7.653 3.332c-1.039.91-2.113 2.184-2.13 3.552-.017 1.27.85 2.569 1.894 3.311 1.31.931 3.17 1.222 4.77.931 2.724-.495 7.056-4.347 7.056-4.347l-3.937-6.778z" fill="#55A"/><path d="M83.145 212.84s-3.325 3.498-5.07 5.166c-1.498 1.431-2.738 3.298-4.63 4.15-1.748.787-3.853 1.11-5.698.657-1.539-.378-2.952-1.418-3.891-2.673-1.363-1.822-2.348-4.217-2.111-6.494.196-1.89 1.563-3.56 2.835-5.004 2.498-2.835 9.092-6.81 9.092-6.81" stroke="#55A" stroke-width="2" stroke-linecap="round" stroke-linejoin="round"/><path d="M75.46 204.78s-5.124 3.193-6.665 5.65c-.738 1.176-1.397 2.696-1.02 4.012.349 1.222 1.552 2.218 2.766 2.63 1.52.518 3.388.265 4.836-.471 2.468-1.254 5.512-6.183 5.512-6.183l-5.43-5.639z" fill="#55A"/><path d="M69.216 155.746c-2.095-.58-4.427-.958-6.079-2.37-1.782-1.525-3.469-3.736-3.537-6.078-.023-.752.458-1.512 1.019-2.014.49-.44 1.298-.769 1.852-.697 2.254 3.716 4.511 7.43 6.745 11.16z" stroke="#55A" stroke-width="2" fill="#55A" stroke-linecap="round" stroke-linejoin="round"/><path d="M82.633 213.053c-2.644 2.353-5.87 5.81-7.139 9.584-.785 2.336-.94 5.09-.058 7.392.731 1.908 2.269 3.61 4.134 4.53 1.88.927 4.332 1.298 6.32.604 2.16-.754 3.47-2.956 4.793-4.728" stroke="#55A" stroke-width="2" stroke-linecap="round" stroke-linejoin="round"/><path d="M86.134 214.545s-4.63 5.01-5.544 8.169c-.384 1.325-.638 2.994.136 4.137.984 1.451 3.076 2.304 4.822 2.117 1.922-.206 3.698-2.126 4.693-3.401.342-3.752-.362-8.182-.362-8.182l-3.745-2.84z" fill="#55A"/><g stroke="#55A" stroke-linecap="round" stroke-linejoin="round"><path d="M194.073 68.775s-.118-2.691.265-3.956c.205-.68 1.057-1.847 1.057-1.847s-4.343 1.573-6.608 1.583c-2.35.01-4.55-1.216-6.872-1.583-2.795-.44-5.637-.96-8.458-.735-3.169.252-6.389.935-9.25 2.318-1.3.628-3.436 2.637-3.436 2.637s5.855-2.736 8.986-3.429a25.345 25.345 0 0 1 7.4-.527c2.344.182 4.53 1.39 6.873 1.583 2.815.23 5.694.055 8.457-.528.751-.158 2.16-.797 2.16-.797s-.679 1.692-.776 2.587c-.097.895.202 1.639.202 2.694zM191.24 71.839s-1.593.547-2.375.374c-1.887-.418-3.003-2.544-4.807-3.238-1.484-.57-3.134-.62-4.724-.673-1.781-.06-3.609-.052-5.332.404-2.334.618-4.481 1.848-6.546 3.098-1.785 1.08-3.22 2.672-4.994 3.771-.684.424-2.16 1.078-2.16 1.078s3.848.364 5.737.067c3.07-.482 5.795-2.343 8.84-2.963 1.681-.343 3.415-.402 5.13-.404 1.634-.002 3.264.192 4.889.372.609.067 1.213.356 1.819.264 1.651-.249 4.522-2.15 4.522-2.15z" stroke-width="2"/><path d="M167.389 77.124s3.185 3.036 5.196 3.772c1.44.526 3.056.362 4.59.336 2.307-.039 4.704.02 6.883-.74 1.308-.457 2.398-1.4 3.512-2.223.792-.586 2.244-1.923 2.244-1.923s-2.771-1.226-4.204-1.714c-1.436-.489-2.877-1.062-4.387-1.212-2.199-.219-4.47-.067-6.613.471-2.559.643-7.221 3.233-7.221 3.233z" stroke-width="2"/><path d="M184.463 77.259c0 2.008-2.417 3.637-5.4 3.637-2.98 0-5.398-1.629-5.398-3.637 0-2.009 2.417-3.637 5.399-3.637s5.399 1.628 5.399 3.637z" stroke-width="2.003"/><path d="M181.358 76.417c0 .837-.876 1.515-1.957 1.515-1.08 0-1.957-.678-1.957-1.515 0-.837.876-1.515 1.957-1.515s1.957.678 1.957 1.515zM225.75 70.343s-1.715-1.276-2.75-3.244c-.941-1.789-2.953-2.982-4.875-3.617-1.582-.523-3.338-.128-5 0-1.892.146-3.73.959-5.625.873-1.03-.046-2.003-.488-3-.748-.46-.12-1.375-.374-1.375-.374l1 5.572-.375-4.949s2.452 1.021 3.75 1.248c1.683.293 3.416.156 5.125.124 2.045-.037 4.172-.982 6.125-.374 2.833.882 7 5.489 7 5.489z" stroke-width="2" fill="#55A"/><path d="M203.209 70.01c.013 2.144.039 4.87.436 7.262.432 2.605 1.543 5.059 2.106 7.64.486 2.225.656 4.51 1.095 6.745.198 1.008.665 1.975.694 3.002.03 1.057.063 2.257-.54 3.127-1.2 1.728-3.809 1.876-5.455 3.19-.732.584-1.314 1.331-1.92 2.049M190.375 92.92c-1.262-.462-2.455.8-3.106 1.803-.481.741-.512 1.783-.279 2.636.336 1.227 1.15 2.477 2.28 3.065 1.293.672 2.993.6 4.37.124 1.037-.358 1.568-1.572 2.528-2.101 1.214-.67 2.616-.938 3.957-1.285" stroke-width="2"/><path d="M179.875 101.777s-2.754-.858-4.125-.623c-.698.119-1.44.44-1.875.997-.74.946-.989 2.298-.875 3.493.122 1.278.602 2.715 1.625 3.493 1.613 1.225 3.988 1.251 6 .998 1.943-.245 3.615-1.513 5.375-2.37 1.19-.58 2.269-1.387 3.5-1.871 1.363-.536 2.785-1.105 4.25-1.123.9-.011 2.361-.234 2.625.624.199.647-.757 1.217-1.375 1.497-1.67.755-3.7-.225-5.5.124-1.968.382-3.706 1.544-5.625 2.12-1.8.542-3.629 1.428-5.5 1.248-1.541-.148-3.158-.775-4.25-1.87-.737-.74-1.178-1.83-1.25-2.87-.074-1.077.192-2.281.875-3.118.859-1.053 2.265-1.834 3.625-1.871.913-.025 2.5 1.122 2.5 1.122zM214.875 100.405s2.307.92 3 1.871c.606.832.746 1.965.75 2.994.005 1.412-.073 3.05-1 4.116-.588.677-1.604.941-2.5.998-1.331.085-2.626-.531-3.875-.998-1.309-.488-2.47-1.31-3.75-1.87-1.184-.518-2.337-1.273-3.625-1.373-.807-.062-1.747 1.008-2.375.5-.259-.21-.16-.707 0-.999.332-.607 1.06-1.054 1.75-1.122 1.024-.102 1.937.699 2.875 1.122 1.324.598 2.575 1.347 3.875 1.996 1.367.682 2.608 1.813 4.125 1.996 1.185.143 2.657.094 3.5-.749.993-.992 1.01-2.72.875-4.116-.112-1.169-.57-2.387-1.375-3.243-.574-.61-2.25-1.123-2.25-1.123zM186 114.376s2.664-.757 4-1.123c1.248-.34 2.456-1.001 3.75-.998 1.425.004 2.73.835 4.125 1.123 1.154.238 2.349.751 3.5.499.824-.18 1.29-1.248 2.125-1.372 1.2-.179 2.399.49 3.5.998.682.314 1.875 1.247 1.875 1.247s-1.862-.94-2.875-.998c-1.322-.074-2.557.743-3.875.873-1.66.164-3.342.054-5-.124-1.097-.118-2.16-.457-3.25-.624-1.078-.165-2.162-.455-3.25-.374-1.119.083-2.138.726-3.25.873-.454.06-1.375 0-1.375 0z" stroke-width="2" fill="#55A"/><path d="M193.25 118.742s2.264 1.162 3.5 1.372c1.11.189 2.28.138 3.375-.125 1.25-.3 3.5-1.621 3.5-1.621M204.5 73.71s3.289-2.468 5.125-3.367c1.502-.736 3.08-1.507 4.75-1.622 1.524-.105 3.035.438 4.5.873 1.164.346 2.2 1.066 3.375 1.372.975.255 3 .375 3 .375" stroke-width="2"/><path d="M223.83 75.742s-2.889 2.502-4.586 3.336a11.52 11.52 0 0 1-3.87 1.13c-2.002.204-4.103.193-6.017-.485-1.15-.408-2.116-1.31-3.103-2.09-.701-.556-1.992-1.838-1.992-1.838s2.394-1.327 3.634-1.867c1.243-.542 2.49-1.168 3.803-1.374 1.914-.3 3.897-.232 5.776.226 2.243.547 6.356 2.962 6.356 2.962z" stroke-width="2"/><path d="M208.941 76.395c.037 2.006 2.176 3.594 4.778 3.546 2.602-.047 4.682-1.712 4.645-3.718-.037-2.007-2.176-3.595-4.778-3.547-2.602.048-4.681 1.713-4.645 3.719z" stroke-width="2.002"/><path d="M211.635 75.512c.016.835.793 1.5 1.736 1.482.943-.017 1.695-.709 1.68-1.545-.016-.836-.793-1.5-1.736-1.482-.943.017-1.695.709-1.68 1.545z" stroke-width="2.009" fill="#55A"/><path d="M186.75 81.07l-5.125 4.491M206.75 82.692l5.125 3.742" stroke-width="2"/></g><path d="M195.37 235.687c.33.64.86 1.301 1.854 1.413 1.789.2 3.16-1.253 3.383-3.236.157-1.388-.253-2.36-.614-3.483-.384-1.195-1.025-2.296-1.63-3.396-.775-1.413-2.556-4.103-2.556-4.103s-2.335 2.229-3.406 3.434c-.835.939-1.705 1.87-2.345 2.95-.602 1.015-1.217 1.872-1.374 3.26-.223 1.984.79 3.704 2.58 3.905.993.111 1.656-.417 2.12-.967l.177.22-.62 1.94c-.311.968-1.13 2.885-1.13 2.885 2.031-.174 2.031-.174 3.974.446 0 0-.373-2.05-.46-3.064l-.174-2.028.221-.176zM199.323 210.512c.27.667.735 1.375 1.714 1.578 1.763.365 3.263-.956 3.67-2.91.283-1.368-.034-2.374-.29-3.525-.271-1.225-.808-2.38-1.308-3.532-.642-1.478-2.166-4.321-2.166-4.321s-2.531 2.004-3.709 3.105c-.918.858-1.87 1.705-2.608 2.722-.693.954-1.386 1.751-1.67 3.12-.406 1.953.444 3.76 2.207 4.125.979.202 1.688-.262 2.202-.767l.155.236c-.4.936-.4.936-.798 1.873-.399.936-1.393 2.769-1.393 2.769 2.04.014 2.04.014 3.917.81 0 0-.181-2.075-.174-3.093l.014-2.035.237-.155zM207.35 186.628c.157.702.502 1.476 1.436 1.834 1.68.644 3.374-.416 4.091-2.28.503-1.303.352-2.347.287-3.524-.07-1.254-.412-2.48-.72-3.697-.393-1.562-1.436-4.614-1.436-4.614s-2.823 1.57-4.164 2.466c-1.045.699-2.122 1.38-3.015 2.265-.838.83-1.65 1.505-2.153 2.809-.717 1.863-.171 3.783 1.509 4.427.933.358 1.709.014 2.297-.402l.115.258-1.09 1.72c-.546.86-1.824 2.508-1.824 2.508 2.01.343 2.01.343 3.734 1.432 0 0 .158-2.078.33-3.08l.344-2.007.258-.115zM219.292 163.237c.047.718.268 1.535 1.135 2.033 1.56.896 3.398.11 4.395-1.62.698-1.212.711-2.266.83-3.44.124-1.248-.024-2.513-.139-3.763-.147-1.603-.705-4.78-.705-4.78s-3.032 1.115-4.495 1.794c-1.14.53-2.31 1.037-3.33 1.773-.957.691-1.864 1.232-2.562 2.443-.997 1.73-.755 3.711.805 4.607.867.498 1.686.277 2.332-.042l.074.272-1.345 1.531c-.672.765-2.189 2.197-2.189 2.197 1.933.65 1.933.65 3.467 1.99 0 0 .477-2.028.803-2.993l.65-1.929.274-.073zM233.282 143.52c-.084.714-.016 1.558.745 2.205 1.371 1.164 3.322.724 4.618-.796.907-1.064 1.112-2.099 1.442-3.23.351-1.206.436-2.476.55-3.726.148-1.604.179-4.828.179-4.828s-3.185.546-4.748.948c-1.218.313-2.46.6-3.597 1.138-1.067.506-2.057.873-2.965 1.937-1.296 1.52-1.419 3.512-.048 4.676.762.647 1.607.58 2.3.382l.023.281-1.6 1.261c-.8.631-2.554 1.763-2.554 1.763 1.783.99 1.783.99 3.046 2.587 0 0 .84-1.908 1.335-2.797l.992-1.779.282-.023zM78.825 134.252c.004-.72.175-1.549 1.01-2.098 1.503-.988 3.385-.314 4.486 1.352.77 1.167.847 2.219 1.036 3.383.2 1.239.13 2.51.09 3.764-.049 1.61-.413 4.814-.413 4.814s-3.094-.93-4.596-1.519c-1.17-.46-2.369-.895-3.43-1.568-.998-.632-1.936-1.117-2.707-2.284-1.1-1.666-.979-3.658.524-4.647.835-.549 1.666-.378 2.33-.098l.057-.277-1.434-1.447c-.718-.723-2.32-2.06-2.32-2.06 1.89-.765 1.89-.765 3.34-2.197 0 0 .6 1.996.983 2.94l.767 1.886.277.056zM89.384 154.279c.124-.71.43-1.499 1.345-1.902 1.647-.726 3.39.251 4.198 2.077.566 1.278.466 2.328.459 3.507-.008 1.255-.29 2.497-.537 3.728-.317 1.579-1.21 4.678-1.21 4.678s-2.896-1.43-4.28-2.26c-1.077-.647-2.186-1.276-3.121-2.115-.879-.789-1.723-1.423-2.288-2.701-.808-1.826-.357-3.77 1.29-4.496.915-.403 1.706-.097 2.314.29l.102-.264-1.173-1.664c-.587-.832-1.944-2.416-1.944-2.416 1.991-.441 1.991-.441 3.66-1.613 0 0 .258 2.068.48 3.061l.441 1.988.264.102zM98.361 174.838c.16-.702.505-1.475 1.44-1.832 1.68-.642 3.373.421 4.088 2.286.5 1.304.348 2.348.28 3.525-.07 1.253-.415 2.479-.723 3.696-.396 1.561-1.444 4.611-1.444 4.611s-2.82-1.573-4.16-2.471c-1.044-.7-2.12-1.384-3.012-2.27-.837-.831-1.648-1.507-2.149-2.812-.715-1.864-.166-3.783 1.516-4.425.933-.356 1.708-.011 2.296.405l.116-.258-1.089-1.72c-.544-.862-1.82-2.512-1.82-2.512 2.012-.34 2.012-.34 3.737-1.426 0 0 .154 2.078.325 3.081l.34 2.007.26.115zM105.827 198.493c.266-.67.727-1.38 1.705-1.588 1.76-.375 3.268.936 3.686 2.888.292 1.366-.02 2.374-.268 3.526-.265 1.228-.795 2.385-1.288 3.54-.633 1.481-2.14 4.334-2.14 4.334s-2.544-1.99-3.728-3.084c-.923-.852-1.88-1.693-2.624-2.706-.699-.95-1.396-1.743-1.688-3.11-.418-1.951.422-3.763 2.182-4.138.978-.208 1.69.252 2.207.754l.153-.237-.808-1.868c-.405-.934-1.41-2.761-1.41-2.761 2.04-.027 2.04-.027 3.913-.834 0 0-.17 2.077-.156 3.095l.026 2.035.238.154zM108.8 222.798c.329-.641.856-1.305 1.849-1.42 1.788-.207 3.164 1.24 3.395 3.223.161 1.388-.245 2.362-.601 3.486-.38 1.196-1.017 2.3-1.618 3.402-.77 1.415-2.542 4.112-2.542 4.112s-2.343-2.22-3.418-3.422c-.838-.936-1.711-1.863-2.356-2.941-.605-1.013-1.224-1.868-1.385-3.256-.23-1.982.777-3.706 2.565-3.913.993-.116 1.658.41 2.125.959l.176-.221-.628-1.937c-.314-.968-1.141-2.882-1.141-2.882 2.033.167 2.033.167 3.973-.46 0 0-.365 2.052-.448 3.066l-.167 2.028.222.176z" fill="#FFF"/><path d="M81.895 122.57c-15.22 5.59-30.137 12.151-44.281 20.051-12.856 7.18-25.382 14.997-36.614 24.703" stroke="#55A" stroke-width="2" stroke-linecap="round" stroke-linejoin="round"/><path fill="#F55" d="M206.351 351.265l-4.457.635-4.14-1.906-3.98 1.906-2.705-1.43-2.707.795-6.049-13.027-7.323-18.428-4.457-15.727-2.07-13.504-1.273-10.167-.319-10.326 11.144.318 2.228 14.615 3.821 17.952 4.617 14.138 4.935 11.28 5.253 10.167 3.343 6.354zM101.92 347.611l7.96-14.933 7.96-17.793 5.412-17.792 3.502-16.363 1.91-10.326-7.8-.318-4.298 16.68-6.209 18.111-5.253 12.232-6.209 10.644-4.457 6.355 3.82 2.383 2.07 5.719zM60.84 275.163l-11.01-5.494s-.034 2.822-.787 3.924c-1.229 1.799-3.5 2.673-5.505 3.532-2.026.868-4.255 1.176-6.423 1.57-1.083.196-3.277.392-3.277.392l.13 38.327s4.649-4.09 6.686-6.41c2.43-2.767 4.495-5.841 6.554-8.894 2.004-2.972 3.91-6.016 5.637-9.157 1.682-3.06 3.164-6.23 4.587-9.418 1.229-2.752 3.408-8.372 3.408-8.372z"/><path fill="#FF5556" d="M292.75 320.946l-16.5 11.476L256 343.399l-9.25 4.74-1.25-3.243 5.25-12.225 5-18.461.75-11.476-2.25-14.22-4-10.728-6.75-10.978-7.75-9.23-6.25-5.988-7.5-5.488-10.75-5.489-.5-13.97 1.5-8.733 2-10.727 20.5 9.73 1 16.465 4 17.464 7 18.461 6 9.73L266 296.247l11.75 11.726 9.25 7.235z"/><path d="M215 480.364l-31.5-57.38c-11.286 4.198-23.3 5.604-35.184 6.86-12.973 1.371-26.104 1.422-39.13.706-10.633-.584-21.33-1.373-31.686-4.074L42 480.364h173z" stroke="#55A" stroke-width="2" fill="#FF5"/><path d="M139.81 449.874c-1.207-1.006-2.788-1.898-4.358-1.802-1.58.097-2.936 1.305-4.135 2.339-.758.653-1.216 1.329-1.846 2.365-.817-.969-1.527-2.184-2.642-2.84-1.376-.81-3.172-1.75-4.651-1.149-1.78.724-2.885 2.982-3.032 4.894-.137 1.768.725 3.749 2.077 4.9 1.272 1.083 3.206 1.046 4.87 1.2-.475 1.491-1.275 3.398-.692 4.964.682 1.831 2.472 3.599 4.41 3.87 1.756.244 3.696-.897 4.805-2.278.967-1.203 1.34-3 1.032-4.512-.226-1.116-1.045-2.066-2-2.773 1.94-.162 4.176-.38 5.54-1.753 1.306-1.316 1.769-3.466 1.632-5.313-.058-.778-.63-1.43-1.01-2.112zm-8.49 6.386c.135.89-.506 2.187-1.4 2.308-.917.124-2.032-.98-2.018-1.903.014-.863 1.075-1.719 1.939-1.718.66 0 1.38.662 1.48 1.313zM167.86 464.476c1.395-.725 2.828-1.84 3.342-3.323.518-1.494-.047-3.217-.575-4.708-.405-1.141-1.214-2.102-1.93-3.08 1.025.352 2.214.375 3.16-.09 1.79-.88 3.721-2.637 3.783-4.627.059-1.917-1.65-3.803-3.363-4.673-1.584-.805-3.747-.772-5.332.031-1.49.756-2.2 2.552-2.982 4.027-1.196-1.011-2.647-2.057-4.208-2.053-2.099.005-4.712.909-5.643 2.786-.86 1.732.044 4.076 1.106 5.692.72 1.095 1.94 2.095 3.245 2.222 1.182.115 2.253-.799 3.273-1.407-.595 1.849-1.253 3.994-.505 5.778.716 1.709 2.527 2.961 4.288 3.544.742.246 1.565-.03 2.342-.12zm-2.882-10.777c-.912-.115-2.153-.994-1.997-1.898.157-.91 1.73-1.582 2.536-1.128.747.42.704 1.786.316 2.55-.147.29-.531.517-.855.476zM90.951 466.404c-1.394-.725-2.827-1.84-3.34-3.323-.518-1.494.046-3.218.575-4.708.404-1.142 1.213-2.102 1.93-3.08-1.026.351-2.215.375-3.16-.09-1.79-.88-3.722-2.637-3.784-4.627-.059-1.917 1.65-3.803 3.363-4.674 1.584-.805 3.747-.772 5.332.032 1.491.756 2.2 2.552 2.982 4.026 1.196-1.01 2.647-2.056 4.208-2.053 2.099.005 4.712.91 5.644 2.787.86 1.732-.044 4.076-1.107 5.692-.72 1.095-1.939 2.095-3.245 2.222-1.182.115-2.253-.799-3.273-1.408.595 1.85 1.253 3.995.506 5.778-.716 1.71-2.527 2.962-4.29 3.545-.74.246-1.564-.03-2.34-.12zm2.883-10.777c.912-.115 2.154-.994 1.998-1.898-.158-.91-1.73-1.583-2.537-1.128-.747.42-.704 1.785-.316 2.55.148.29.531.517.855.476z" fill="#000" fill-rule="nonzero"/><path d="M59.849 461.539c1.748.044 3.78-.52 4.967-1.888 1.24-1.427 1.35-3.666 1.423-5.607.706.916 1.351 2.121 2.435 2.41 1.197.32 2.601-.205 3.593-.993 1.464-1.164 3.035-3.08 2.835-5-.216-2.08-2.235-3.788-4.091-4.5-1.381-.528-3.006-.035-4.392.514-.063-.482-.12-1.004-.184-1.509l-2.407 3.618a.977.977 0 0 1 .363-.167c.86-.157 2.028 1.002 1.872 1.912-.155.903-1.545 1.319-2.39 1.12-.3-.07-.573-.396-.61-.72-.043-.387.034-.879.189-1.301l-6.58 9.89c.289.473.617.903.962 1.3.659.345 1.278.902 2.015.92zM198.457 460.057c-1.745-.107-3.72-.842-4.786-2.307-1.112-1.528-1.03-3.768-.935-5.709-.782.853-1.53 1.998-2.634 2.194-1.22.215-2.573-.428-3.493-1.298-1.359-1.285-2.759-3.33-2.395-5.225.395-2.054 2.554-3.582 4.464-4.132 1.421-.408 2.998.222 4.331.888.104-.475.207-.99.314-1.487l2.086 3.81a.976.976 0 0 0-.347-.197c-.844-.23-2.107.824-2.03 1.744.076.913 1.426 1.447 2.285 1.321.304-.044.605-.346.67-.664.076-.383.041-.88-.076-1.313l5.703 10.417a9.618 9.618 0 0 1-1.07 1.214c-.686.287-1.352.789-2.087.744zM117.27 445.034c2.619-.324 5.382.708 7.638 2.06 1.201.718 2.036 1.928 2.861 3.051.75 1.02 1.238 2.687 1.868 3.308-.359-3.453-1.278-5.698-3.073-7.87-1.725-2.086-4.337-3.371-6.877-4.328-2.733-1.03-5.745-1.604-8.664-1.396-3.436.245-6.834 1.44-9.857 3.07-2.052 1.107-3.98 2.591-5.39 4.432-.783 1.024-1.45 2.538-1.58 3.518 1.31-1.571 3.495-3.406 5.67-4.433 1.984-.937 4.257-1.737 6.436-1.44 2.114.289 3.683 1.401 5.626 3.017 2.055-1.098 3.31-2.738 5.341-2.989z" fill="#000"/><path d="M141.454 444.058c-2.602-.19-5.225 1.057-7.432 2.446-1.162.73-2.05 1.855-2.852 2.969-.734 1.019-.787 3.411-1.748 3.336.176-3.466 1.212-5.547 2.888-7.729 1.635-2.128 4.105-3.588 6.563-4.673 2.644-1.168 5.587-1.893 8.477-1.834 3.405.07 6.819 1.09 9.886 2.565 2.083 1 4.062 2.385 5.548 4.152.826.982 1.563 2.46 1.742 3.433-1.375-1.503-3.625-3.224-5.826-4.14-2.006-.834-4.29-1.518-6.424-1.11-2.072.396-3.563 1.586-5.397 3.299-2.084-.992-3.408-2.566-5.425-2.714zM85.76 441.987c2.05.065 4.11 1.395 5.755 2.948.875.827 1.351 2.11 1.986 3.199.499.853.675 2.588 1.431 2.608-.022-3.221-.832-4.925-2.025-6.964-1.231-2.105-3.104-3.697-4.997-4.928-2.038-1.324-4.324-2.267-6.596-2.48-2.676-.251-5.391.376-7.85 1.455-1.668.733-3.269 1.829-4.494 3.324-.682.832-1.31 2.13-1.484 3.012 1.13-1.262 2.955-2.644 4.714-3.286 1.603-.586 3.42-1.006 5.082-.432 1.614.558 2.745 1.796 4.127 3.55 1.67-.725 2.762-2.057 4.352-2.006z" fill="#000"/><path d="M180.72 438.771c2.01-.778 4.535-.263 6.745.653 1.177.488 2.21 1.553 3.197 2.465 1.04.96 2.11 3.435 2.85 3.143-1.304-3.298-2.836-5.464-5.16-7.37-1.912-1.568-4.478-2.515-6.801-2.998-2.5-.52-5.088-.544-7.373.174-2.69.846-5.067 2.611-7.016 4.733-1.324 1.44-2.436 3.227-3.027 5.268-.328 1.136-.419 2.727-.235 3.705.802-2.395 1.56-4.45 3.252-5.952 1.275-1.132 3.042-1.875 4.747-1.907 1.916-.036 3.373.711 5.41 1.94 1.327-1.432 1.853-3.25 3.412-3.854z" fill="#000"/><path d="M187.634 432.557s-5.122-1.641-7.778-1.764c-3.147-.144-6.459.032-9.37 1.235-2.057.85-3.711 2.502-5.303 4.058-1.078 1.054-2.828 3.528-2.828 3.528s-5.816-3.192-9.016-3.881c-3.168-.683-6.506-.58-9.722-.177-3.092.388-6.271.997-9.016 2.47-2.207 1.184-5.657 4.94-5.657 4.94s-4.365-4.68-7.248-5.822c-2.801-1.11-6.004-.847-9.015-.706-2.748.13-5.51.579-8.132 1.412-2.612.83-7.425 3.528-7.425 3.528s-2.746-3.76-4.596-5.116c-1.722-1.261-3.79-2.025-5.833-2.646-2.058-.626-4.222-1.25-6.364-1.059-2.619.235-7.425 2.654-7.425 2.654l5.055-7.556S93.192 430.28 100.88 431c6.453.604 12.946.737 19.426.814 6.979.083 13.967.042 20.934-.38 5.822-.351 11.621-1.05 17.406-1.793 4.354-.56 8.744-.994 13.014-2.009 3.914-.93 11.48-3.719 11.48-3.719l4.495 8.644z" fill="#F55"/><g stroke="#55A" stroke-linecap="round" stroke-linejoin="round" stroke-width="2"><path d="M182.806 422.694c2.027-10.352 3.987-20.77 7.316-30.801 3.226-9.192 8.013-17.723 12.767-26.188 1.792-2.702 5.233-5.056 8.594-4.144 2.22.631 2.304 2.98 1.615 4.806"/><path d="M177.575 423.999c1.813-16.28 5.679-32.488 12.233-47.474 3.684-8.424 9.65-18.926 18.835-21.265 3.921-1 9.512.558 11.416 4.122 2.142 4.008.576 10.84-3.299 13.225-3.656 2.251-9.575.246-12.574-2.824-1.07-1.096-.765-2.981-.895-4.503"/><path d="M171.691 426.391c1.407-10.098 2.653-20.602 5.648-30.499 3.478-11.498 7.194-23.357 14.183-33.135 3.218-4.502 6.926-9.9 12.328-11.128 2.691-.611 6.283-.394 7.94 2.342"/><path d="M166.025 426.615c1.227-10.54 2.846-20.987 5.687-31.155 2.401-8.595 5.41-17.105 9.54-25.019 3.544-6.794 7.078-13.227 12.933-19.01 1.488-1.47 5.045-1.282 7.58.269"/><path d="M160.691 427.727c.962-10.57 2.318-21.052 4.902-31.289 2.184-8.652 4.992-17.227 8.907-25.25 3.2-6.561 6.09-12.53 11.797-18.458 1.45-1.506 4.14-2.712 6.713-1.226"/><path d="M154.765 428.831c1.039-10.545 2.306-19.323 4.496-28.785 1.972-8.518 4.425-17.12 7.753-25.06 2.722-6.493 5.179-12.4 9.883-18.21 1.195-1.476 3.371-2.627 5.385-1.089"/><path d="M149.66 429.428c.624-9.99 1.52-18.32 3.261-27.326 1.567-8.108 3.583-16.31 6.441-23.917 2.338-6.222 4.446-11.881 8.667-17.523 1.072-1.433 3.075-2.592 5.016-1.206"/><path d="M144.09 429.502c.577-9.621 1.407-17.643 3.018-26.316 1.45-7.808 3.315-15.708 5.96-23.033 2.164-5.992 4.115-11.442 8.021-16.875.992-1.38 2.846-2.496 4.642-1.162"/></g><g stroke="#55A" stroke-linecap="round" stroke-linejoin="round" stroke-width="2"><path d="M161.75 361.79c-.74-.682-1.755-1.4-2.76-1.27-1.636.213-2.802 1.85-3.813 3.15-1.505 1.937-2.161 4.403-3.137 6.651-1.006 2.316-1.863 4.693-2.8 7.037"/><path d="M146.742 372.376c1.678-3.776 3.116-7.688 5.223-11.244 1.005-1.696 1.76-3.849 3.509-4.764 2.407-1.258 5.896-1.747 8.148-.23 1.673 1.127 2.047 3.633 2.105 5.664M144.24 368.86l7.506-15.422M125.397 354.31l5.593-10.869M109.208 334.482l-6.475 12.925M101.408 347.7c-1.261-3.649-1.118-8.135-3.757-10.958-2.339-2.503-6.092-4.535-9.478-3.992-3.452.554-6.85 3.558-7.899 6.886-1.851 5.878 2.303 12.677 4.47 17.937M138.054 363.122c1.896-3.211 6.078-7.425 4.855-11.354-.551-1.771-2.88-3.315-4.708-2.98-2.182.4-2.91 3.38-3.989 5.315-.779 1.397-1.17 2.976-1.75 4.466"/><path d="M141.294 365.632c2.732-4.73 5.516-9.349 6.307-14.234.44-2.719-1.89-5.84-4.393-7.005-2.75-1.28-6.968-.98-9.015 1.256-2.165 2.363-3.239 5.114-4.563 7.812-.458.934-1.142 2.905-1.142 2.905M121.718 352.254c2.061-3.734 4.967-7.998 4.106-12.201-.592-2.892-3.06-5.785-5.898-6.615-2.136-.625-5.075.036-6.429 1.8-2.917 3.8-4.452 8.092-5.76 11.728"/><path d="M118.775 350.05c1.13-2.537 3.925-7.269 2.224-10.369-.69-1.255-2.689-2.012-4.03-1.504-3.209 1.216-3.999 6.824-4.817 9.083M78.449 425.835c.306-16.71-.515-33.574 1.725-50.114.984-7.264 2.85-15.1 7.702-20.603 3.44-3.903 8.548-6.533 13.826-7.27M77.774 399.738c-3.043-5.305-5.73-11.058-6.503-17.108-.72-5.636.42-10.928 1.856-16.942"/><path d="M78.5 391.044c-3.33-3.868-3.07-7.541-3.337-11.535-.173-2.601.797-5.651 1.159-7.736M79.08 376.265c-2.724-5.793-7.004-11.27-7.597-17.643-.338-3.633.037-7.897 2.4-10.68 1.378-1.621 3.8-2.022 5.924-2.395"/><path d="M80.097 369.745c-2.598-4.943-6.319-10.919-4.408-16.168.792-2.178 2.92-4.262 5.715-3.973"/><path d="M82.275 364.673c-2.551-3.828-4.277-7.063-2.728-10.238.502-1.03 2.355-1.194 3.164-1.353M87.357 353.806c-1.649-4.312-5.072-9.74-2.6-13.666 1.463-2.324 5.47-3.269 7.972-2.128 3.426 1.563 3.982 6.502 4.937 10.143"/><path d="M94.036 349.604c-.687-3.653-1.562-8.7-4.556-8.002-2.119.494-.755 4.366-.375 6.504.233 1.313 1.245 2.887 1.591 3.671"/></g><path d="M1 276.502c7.157-.362 15.41 1.843 23.155 2.096 5.198.17 10.553.87 15.599-.392 3.239-.81 7.257-1.616 8.95-4.488 1.55-2.63 1.797-7.006-.384-9.143-2.638-2.584-8.322-2.708-11.087-.26-1.543 1.366-.714 4.099-.593 6.146-4.891.46-9.825.916-14.738.704-3.899-.168-7.703-1.398-11.601-1.564-3.101-.133-6.398.225-9.301.453v6.448z" stroke="#55A" stroke-width="2" fill="#FF5" stroke-linecap="round" stroke-linejoin="round"/><g fill="#FFF" stroke="#55A" stroke-linecap="round" stroke-linejoin="round" stroke-width="2"><path d="M37.583 259.2c-.434 1.886-1.334 3.67-2.388 5.296-.773 1.19-1.575 2.516-2.831 3.178-1.446.76-3.238.458-4.865.618-2.53.248-5.145 1.156-7.608.53-.848-.217-1.366-1.188-2.211-1.413-1.769-.47-3.707.699-5.485.265-.796-.195-1.663-.56-2.123-1.236-.334-.493-.265-1.766-.265-1.766s-2.641.704-3.715.089c-.847-.486-1.269-1.597-1.416-2.56-.2-1.307.278-2.668.796-3.884a8.917 8.917 0 0 1 1.947-2.825c.378-.373 1.326-.883 1.326-.883s-2.705 1.353-3.98.883c-.83-.306-1.42-1.253-1.592-2.119-.184-.924.38-1.852.707-2.736.465-1.26.818-2.67 1.77-3.62.997-.996 3.803-1.853 3.803-1.853s-2.717.914-3.892.353c-.767-.366-1.252-1.286-1.415-2.119-.225-1.15.15-2.411.707-3.443.415-.769 1.098-1.419 1.858-1.853.608-.348 2.034-.53 2.034-.53s-2.66-.812-2.83-1.942c-.19-1.263 1.255-2.407 2.388-3.001 2.329-1.22 5.315.08 7.873-.53 1.465-.35 2.694-1.409 4.157-1.766 2.241-.546 4.653-1.048 6.9-.53 1.7.393 3.26 1.436 4.512 2.65 1.472 1.427 2.376 3.364 3.273 5.207.916 1.884 1.69 3.866 2.123 5.915.592 2.8.547 5.702.619 8.562.033 1.324-.055 2.649-.089 3.973-.026 1.03.143 2.085-.088 3.09h0z"/><path d="M10.338 263.966c1.54-2.236 3.975-4.107 6.814-4.052 1.92-.374 3.856.728 5.67.243 1.253-.808 2.4-1.636 3.749-2.139 1.224-.457 2.505-.818 3.847-.76"/><path d="M8.922 254.344c3.159-1.827 7.732-3.6 11.405-3.96 1.604-.02 3.804-.113 4.586 1.614.685 1.363.138 3.144-1.272 3.801-2.373 1.376-6.824 3.724-9.411 4.636"/><path d="M21.572 256.816c-1.583-.017-4.293-1.353-4.515-3.165-.222-.626-.24-1.299-.262-1.955M9.276 245.34c4.034-.762 9.33-2.145 13.443-1.508 1.413.479 3.342.946 3.807 2.567.112 1.569-1.314 2.87-2.641 3.446-.522.15-3.364.31-3.905.35"/><path d="M19.184 249.577c-1.588-.772-2.08-2.545-1.578-4.157.047-.264.1-.526.162-.786M19.007 267.232c-.41-1.331-1.048-3.11-2.725-3.11-1.984-.109-3.864.613-5.59 1.521M21.837 243.575c1.349-.518 4.096-1.514 2.98-3.367-1.723-2.185-4.725-2.41-7.287-2.707-2.47-.067-4.932.492-7.402.129-.55-.044-1.099-.093-1.648-.146M17.768 237.484c1.95-.684 3.85-2.666 2.508-3.915-.695-.877-2.527-1.466-3.57-1.647"/><path d="M18.21 243.31c-1.086-.84-1.565-1.805-1.61-2.913-.034-.871.87-1.984 1.08-2.384M15.38 237.042c-1.138-.737-2.475-2.028-1.62-3.48.156-.413.345-.813.558-1.198"/></g><g stroke="#000" stroke-linecap="round" stroke-linejoin="round" stroke-width="2"><path d="M44.975 346.163c8.826-8.508 17.312-17.793 24.386-27.922 6.604-9.457 11.676-19.916 16.627-30.34l-24.75-12.348c-3.939 9.077-8.375 18.006-13.875 26.228-3.879 5.798-8.426 11.34-13.363 16.11-.118 6.704.118 14.106 0 20.81 3.536 2.587 7.44 4.875 10.975 7.462z" fill="#FF5"/><path d="M41.269 341.871c7.623-7.161 9.929-8.717 14.2-13.724 5.74-6.728 10.694-14.135 15.198-21.742 3.84-6.486 8.559-17.566 10.017-20.267M34.512 326.085c5.368-5.176 10.959-11.311 15.688-17.58a105.246 105.246 0 0 0 9.258-14.634c2.536-4.855 4.623-9.956 6.377-15.142"/><path d="M43.55 339.18l-1.193-10.756-7.635.052M52.753 329.887l-.707-11.996-9.704 1.007M61.592 319.814l-1.06-13.918-9.546 1.764M69.37 307.545l-1.767-12.587-9.534 1.974M76.128 295.862l-3.222-12.547-9.927 4.222"/></g><path stroke="#55A" stroke-width="2" stroke-linecap="round" stroke-linejoin="round" d="M71.294 362.41l-19.57-11.799-17.01-11.392"/><g stroke="#55A" stroke-linecap="round" stroke-linejoin="round" stroke-width="2"><path d="M34 279.781v151.684l-14.5 12.973L7 431.465V277.287"/><path d="M20.5 419.49s-2.015-12.649-1.7-19c.326-6.581 2.85-12.885 3.7-19.42.746-5.74 1.717-11.556 1.22-17.323-.563-6.534-3.73-12.618-4.72-19.1-.83-5.437-1.324-10.977-1-16.466.383-6.485 2.786-12.72 3.46-19.18.632-6.051 1.28-12.204.54-18.242-.525-4.286-3.5-12.474-3.5-12.474"/><path d="M12.625 220.778c0-4.043 3.206-7.32 7.16-7.32s7.16 3.277 7.16 7.32-3.206 7.321-7.16 7.321-7.16-3.278-7.16-7.32z" fill="#FF5"/><path d="M25.97 224.017c.336-3.818-1.16-4.89-3.025-6.278-1.018-.757-2.496-.703-3.761-.6-.997.081-2.031.37-2.847.947-.616.436-1.262 1.248-1.388 1.788" fill="#FF5"/></g><path d="M109.182 334.326s3.038-3.696 5.112-4.757c.84-.43 2.78-.555 2.78-.555s3.92-8.798 5.562-13.32c2.204-6.07 4.055-12.267 5.746-18.499 1.642-6.05 3.23-12.132 4.264-18.314.797-4.77 1.483-14.43 1.483-14.43l-17.61.185s-1.147 6.801-1.855 10.175c-.768 3.66-1.554 7.323-2.595 10.915a143.682 143.682 0 0 1-4.449 12.949c-1.771 4.465-3.783 8.838-5.932 13.134a182.139 182.139 0 0 1-7.23 13.135c-1.502 2.471-4.82 7.215-4.82 7.215l5.19 1.85s5.597-8.347 7.972-12.765c2.89-5.374 5.323-10.99 7.6-16.65 2.513-6.243 4.779-12.597 6.674-19.053 1.5-5.11 3.708-15.54 3.708-15.54l7.6.185s-2.148 14.001-3.707 20.904c-1.282 5.677-2.87 11.288-4.635 16.835a173.04 173.04 0 0 1-4.82 13.32c-1.825 4.441-6.038 13.081-6.038 13.081z" stroke="#55A" stroke-width="2" fill="#FF5" stroke-linecap="round" stroke-linejoin="round"/><path d="M150.975 321.743s1.826 5.518.184 7.333c-2.14 2.365-7.116 2.793-9.553.733-2.11-1.784-.735-8.25-.735-8.25s-5.358 1.303-6.98-.366c-1.961-2.018-2.043-6.32-.184-8.433 1.504-1.708 6.797-.733 6.797-.733s-.34-5.251 1.47-6.6c2.115-1.575 5.876-1.142 7.899.55 1.74 1.458 1.653 6.6 1.653 6.6s5.895-1.537 7.532.367c1.924 2.238 1.276 6.825-.919 8.799-1.774 1.595-7.164 0-7.164 0z" stroke="#000" fill="#FF5" stroke-linecap="round" stroke-linejoin="round"/><path d="M141.606 316.702a4.129 4.129 0 0 1 4.133-4.125 4.129 4.129 0 0 1 4.134 4.125 4.129 4.129 0 0 1-4.134 4.124 4.129 4.129 0 0 1-4.133-4.124z" stroke="#000" stroke-width="2" fill="#F55" stroke-linecap="round" stroke-linejoin="round"/><path d="M215.034 354.761c-7.745-12.357-15.099-25.079-20.548-38.593-4.063-10.077-6.601-20.734-8.92-31.346-1.428-6.542-2.106-13.226-3.058-19.853l-22.628-.177c.856 11.34 1.176 20.06 2.974 29.92 2.337 12.816 5.529 25.557 10.109 37.755 2.864 7.628 6.68 14.41 10.782 21.941.683-2.745 3.942-2.67 4.463-4.3-5.953-11.353-11.378-23.1-14.83-35.426-4.052-14.467-6.84-34.966-6.718-44.561 2.808.047 8.267.27 11.075.316 2.321 14.77 4.57 27.962 8.994 41.36 2.686 8.136 6.7 15.788 10.569 23.434 2.673 5.282 6.476 11.296 8.72 15.473 3.107 1.158 5.19 1.745 6.165 3.977.479.027 2.372.053 2.851.08z" stroke="#55A" stroke-width="2" fill="#FF5" stroke-linecap="round" stroke-linejoin="round"/><path d="M171.23 338.992c.196 2.021.79 4.53-.515 6.103-1.722 2.076-5.173 2.768-7.805 2.166-2.564-.586-4.434-3.04-5.925-5.203-1.19-1.728-1.643-3.874-2.195-5.897-.896 1.02-2.176 1.892-3.527 2.051-1.33.157-2.616-.627-3.846-1.156 2.155-1.78 4.37-3.777 5.435-6.35 1.031-2.492.853-5.382.616-8.064 1.82 4.313 3.587 8.709 6.174 12.61 1.319 1.988 2.44 4.623 4.697 5.4 1.516.523 3.174-.496 4.723-.91.738-.198 1.45-.484 2.167-.75zM139.606 324.187s-2.34 4.384-4.42 5.469c-1.465.764-3.435 1.018-4.949.352-1.65-.725-3.359-4.233-3.359-4.233s2.027-2.829 3.536-2.823c1.215.005 1.654 1.983 2.828 2.293 2.08.55 6.364-1.058 6.364-1.058zM139.43 311.949c-1.599-1.465-3.423-2.791-4.255-4.744-.773-1.816-1.195-4.08-.438-5.902.71-1.71 2.377-3.379 4.215-3.627 1.168-.158 2.215.855 3.195 1.509.4.266 1.08.675 1.068.967-1.216.274-2.606.784-3.401 1.786-1.05 1.322-1.207 3.213-1.276 4.9-.07 1.727.459 3.376.892 5.11zM152.4 310.89c0-.3 3.91-3.278 4.688-5.578.67-1.98.844-4.512-.297-6.265-.946-1.454-2.96-1.95-4.654-2.336-1.293-.295-2.658-.05-3.98.066.156 1.316.46 2.685 1.133 3.836.677 1.156 2.274 1.65 2.804 2.88.977 2.267.694 4.967.306 7.397h0z" stroke="#000" fill="#FF5" stroke-linecap="round" stroke-linejoin="round"/><path d="M149.278 285.774c2.196-.324 4.493-1.514 5.764-3.33 1.568-2.24 1.547-5.345 1.416-8.073-.115-2.405-2.238-4.577-1.921-6.964.261-1.973 3.033-5.146 3.033-5.146l-2.528-2.22s-2.715 1.983-3.438 3.43c-1.079 2.16-1.046 4.754-1.011 7.166.023 1.603 1.138 3.173.809 4.743-.315 1.497-1.016 3.585-2.528 3.834-1.138.188-2.127-1.139-2.73-2.119-.829-1.343-.873-3.066-.911-4.642-.06-2.549 1.737-5.096 1.112-7.568-.4-1.586-1.614-2.966-2.932-3.936-.49-.36-1.72-.606-1.72-.606l-1.82 3.028s1.88.924 2.225 1.816c.91 2.348-1.015 4.953-1.112 7.468-.093 2.392-.176 4.87.505 7.165.514 1.732 1.186 3.652 2.63 4.743 1.407 1.064 3.41 1.469 5.157 1.21z" fill="#FF5"/><path d="M246.324 346.999c-12.29-16.238-22.653-34.33-28.87-53.66-5.443-16.926-6.23-35.125-6.839-52.891-.277-8.073.337-16.188 1.454-24.188.407-2.916 1.222-5.76 1.905-8.624" stroke="#55A" stroke-width="2" stroke-linecap="round" stroke-linejoin="round"/><g stroke="#000" stroke-linecap="round" stroke-linejoin="round" stroke-width="2"><path d="M293.25 320.497c-14.388-10.767-27.765-23.313-38.08-37.963-7.356-10.447-12.663-22.433-16.319-34.668-2.96-9.906-4.75-21.668-4.351-30.704l26.25 12.224c1.029 8.747 3.02 17.51 6.768 25.45 5.064 10.729 12.26 20.631 20.744 28.937A44.859 44.859 0 0 0 301 292.505v21.954l-7.75 6.038z" fill="#FF5"/><path d="M296.25 316.705c-9.136-5.693-17.308-12.306-24.497-20.016-8.75-9.384-16.373-20.007-22.2-31.43-4.82-9.446-8.266-19.695-10.261-30.106-.99-5.162-1.076-10.478-.792-15.746M300.25 297.245a88.42 88.42 0 0 1-16.587-12.968c-6.242-6.21-11.86-13.165-16.37-20.722-3.632-6.085-6.412-12.722-8.423-19.514-1.623-5.48-3.279-12.764-2.87-16.9"/><path d="M250.75 225.145l.25 4.49-4-.249v-3.492l-4.25-.998 1 9.23 7.5-.748 2.25 8.482-3.25.998-1.5-4.49-4 .998 2.5 8.232 7.5-2.494 4 8.482-4.25 1.497-1.75-3.742-4 1.247 3.5 8.732 7.5-3.742 4.25 7.983-3.75 2.744-2-4.24-4.25 1.995 4.75 7.734 7-4.241 5 6.736-3.75 2.744-1.75-2.744-3.25 1.996 4.75 6.985 7.25-5.738 5.5 6.486-3.5 3.493-3.25-3.742-2.5 2.495 6.25 7.235 6.5-5.988 6.25 5.988-3 3.742-4-3.992-2.25 3.493 6.75 5.987 6.5-6.486 6.822 5.239-3.572 3.493-3.25-2.495-3 2.744 7 4.74 3.25-3.492"/></g><path d="M242.185 349.116c-12.437-16.634-22.777-35.179-29.154-54.882-5.168-15.967-6.383-33.092-6.907-49.863-.308-9.86.804-19.749 2.222-29.511.458-3.153 1.263-6.24 2.024-9.341" stroke="#55A" stroke-width="2" stroke-linecap="round" stroke-linejoin="round"/><g><path d="M245.617 344.53s4.047-8.833 5.657-13.408c1.643-4.672 3.267-9.402 4.066-14.289.816-4.997 1.008-10.118.707-15.171-.234-3.928-1.014-7.82-1.945-11.643-.862-3.542-1.853-7.088-3.359-10.408-2.037-4.493-4.773-8.658-7.601-12.702-2.95-4.217-6.049-8.39-9.723-11.996-2.933-2.878-6.29-5.323-9.722-7.585-3.874-2.552-12.198-6.704-12.198-6.704" stroke="#55A" stroke-width="2" stroke-linecap="round" stroke-linejoin="round"/><path d="M228.823 319.126c.855-8.214 1.42-16.762-.62-24.764-1.373-5.381-4.313-10.354-7.611-14.827-2.173-2.948-5.048-5.334-7.856-7.686 0 0 3.08 16.305 5.736 24.137 2.714 8.001 10.351 23.14 10.351 23.14z" stroke="#55A" stroke-width="2" fill="#55A" stroke-linecap="round" stroke-linejoin="round"/><path d="M241.905 339.943s3.411-.027 4.596-1.059c1.377-1.2 2.01-3.293 1.944-5.116-.065-1.814-1.127-3.55-2.298-4.94-1.662-1.972-4.07-3.224-6.364-4.41-1.837-.949-5.833-2.116-5.833-2.116M236.07 307.483s4.838.157 7.249.353c2.069.168 4.298-.154 6.187.706 1.745.794 3.374 2.174 4.243 3.88.724 1.425.864 3.202.53 4.764-.486 2.268-1.654 4.636-3.536 5.998-1.562 1.13-3.726 1.223-5.656 1.235-3.79.022-11.137-2.294-11.137-2.294" stroke="#55A" stroke-width="2" stroke-linecap="round" stroke-linejoin="round"/><path d="M235.01 319.39s5.788 1.856 8.662 1.326c1.377-.254 2.963-.82 3.713-2.083.696-1.173.661-2.877.176-4.166-.607-1.616-2.025-2.953-3.535-3.598-2.572-1.1-8.309 0-8.309 0l-.707 8.521z" fill="#55A"/><path d="M233.817 293.465s4.64-1.342 6.991-1.901c2.017-.48 4.032-1.466 6.096-1.247 1.907.202 3.888.984 5.25 2.305 1.137 1.103 1.83 2.712 2.005 4.269.254 2.26-.108 4.823-1.466 6.668-1.127 1.533-3.152 2.285-4.98 2.89-3.591 1.187-11.295 1.292-11.295 1.292" stroke="#55A" stroke-width="2" stroke-linecap="round" stroke-linejoin="round"/><path d="M235.661 304.12s6.518.072 9.32-1.34c1.233-.622 2.57-1.622 2.911-2.947.318-1.231-.216-2.697-1.055-3.666-1.05-1.213-2.79-1.935-4.412-2.03-2.765-.163-7.887 2.556-7.887 2.556l1.123 7.427z" fill="#55A"/><path d="M228.018 279.807s4.19-2.4 6.342-3.499c1.845-.943 3.57-2.376 5.626-2.651 1.901-.255 4.011.038 5.648 1 1.366.802 2.422 2.202 2.96 3.673.783 2.136 1.04 4.711.159 6.825-.732 1.756-2.52 2.965-4.154 3.984-3.207 2.002-10.667 3.924-10.667 3.924" stroke="#55A" stroke-width="2" stroke-linecap="round" stroke-linejoin="round"/><path d="M233.244 289.904s5.563-1.496 7.653-3.33c1.039-.912 2.113-2.185 2.13-3.553.017-1.27-.85-2.569-1.894-3.311-1.31-.931-3.17-1.222-4.77-.931-2.724.495-7.056 4.346-7.056 4.346l3.937 6.78z" fill="#55A"/><path d="M218.855 268.885s3.325-3.498 5.07-5.166c1.498-1.431 2.738-3.298 4.63-4.15 1.748-.787 3.853-1.11 5.698-.657 1.539.378 2.952 1.418 3.891 2.673 1.363 1.822 2.348 4.217 2.111 6.494-.196 1.89-1.563 3.56-2.835 5.004-2.498 2.835-9.092 6.81-9.092 6.81" stroke="#55A" stroke-width="2" stroke-linecap="round" stroke-linejoin="round"/><path d="M226.54 276.945s5.124-3.193 6.665-5.65c.738-1.176 1.397-2.696 1.02-4.012-.349-1.222-1.552-2.218-2.766-2.63-1.52-.518-3.388-.265-4.836.471-2.468 1.254-5.512 6.183-5.512 6.183l5.43 5.638z" fill="#55A"/><path d="M232.784 325.979c2.095.58 4.427.958 6.079 2.37 1.782 1.525 3.469 3.736 3.537 6.078.023.752-.458 1.512-1.019 2.014-.49.44-1.298.769-1.852.697-2.254-3.716-4.511-7.43-6.745-11.16z" stroke="#55A" stroke-width="2" fill="#55A" stroke-linecap="round" stroke-linejoin="round"/><path d="M219.367 268.672c2.644-2.353 5.87-5.81 7.139-9.584.785-2.336.94-5.09.058-7.392-.731-1.908-2.269-3.61-4.134-4.53-1.88-.927-4.332-1.298-6.32-.604-2.16.754-3.47 2.956-4.793 4.728" stroke="#55A" stroke-width="2" stroke-linecap="round" stroke-linejoin="round"/><path d="M215.866 267.18s4.63-5.01 5.544-8.169c.384-1.325.638-2.994-.136-4.137-.984-1.451-3.076-2.304-4.822-2.117-1.922.206-3.698 2.126-4.693 3.401-.342 3.752.362 8.182.362 8.182l3.745 2.84z" fill="#55A"/></g><g stroke="#55A" stroke-linecap="round" stroke-linejoin="round"><path d="M107.927 412.95s.118 2.691-.265 3.956c-.205.68-1.057 1.847-1.057 1.847s4.343-1.573 6.608-1.583c2.35-.01 4.55 1.216 6.872 1.583 2.795.44 5.637.96 8.458.735 3.169-.252 6.389-.935 9.25-2.318 1.3-.628 3.436-2.637 3.436-2.637s-5.855 2.736-8.986 3.428c-2.415.535-4.935.72-7.4.528-2.344-.182-4.53-1.39-6.873-1.583a29.487 29.487 0 0 0-8.457.528c-.751.158-2.16.797-2.16.797s.679-1.692.776-2.587c.097-.895-.202-1.639-.202-2.694zM110.76 409.886s1.593-.547 2.375-.374c1.887.418 3.003 2.544 4.807 3.238 1.484.57 3.134.62 4.724.673 1.781.06 3.609.052 5.332-.404 2.334-.618 4.481-1.848 6.546-3.098 1.785-1.08 3.22-2.672 4.994-3.771.684-.424 2.16-1.078 2.16-1.078s-3.848-.364-5.737-.067c-3.07.482-5.795 2.343-8.84 2.963-1.681.343-3.415.402-5.13.404-1.634.002-3.264-.192-4.889-.372-.609-.067-1.213-.356-1.819-.264-1.651.249-4.522 2.15-4.522 2.15z" stroke-width="2"/><path d="M134.611 404.6s-3.185-3.035-5.196-3.77c-1.44-.527-3.056-.363-4.59-.337-2.307.039-4.704-.02-6.883.74-1.308.457-2.398 1.4-3.512 2.223-.792.586-2.244 1.923-2.244 1.923s2.771 1.226 4.204 1.714c1.436.489 2.877 1.062 4.387 1.212 2.199.219 4.47.067 6.613-.471 2.559-.643 7.221-3.233 7.221-3.233z" stroke-width="2"/><path d="M117.537 404.466c0-2.008 2.417-3.637 5.4-3.637 2.98 0 5.398 1.629 5.398 3.637 0 2.009-2.417 3.637-5.399 3.637s-5.399-1.628-5.399-3.637z" stroke-width="2.003"/><path d="M120.642 405.308c0-.837.876-1.515 1.957-1.515 1.08 0 1.957.678 1.957 1.515 0 .837-.876 1.515-1.957 1.515s-1.957-.678-1.957-1.515zM76.25 411.382s1.715 1.276 2.75 3.244c.941 1.789 2.953 2.982 4.875 3.617 1.582.523 3.338.128 5 0 1.892-.146 3.73-.959 5.625-.873 1.03.046 2.003.488 3 .748.46.12 1.375.374 1.375.374l-1-5.572.375 4.949s-2.452-1.021-3.75-1.248c-1.683-.293-3.416-.156-5.125-.124-2.045.037-4.172.982-6.125.374-2.833-.882-7-5.489-7-5.489z" stroke-width="2" fill="#55A"/><path d="M98.791 411.714c-.013-2.143-.039-4.869-.436-7.26-.432-2.607-1.543-5.06-2.106-7.64-.486-2.226-.656-4.51-1.095-6.746-.198-1.008-.665-1.976-.694-3.002-.03-1.057-.063-2.257.54-3.127 1.2-1.729 3.809-1.876 5.455-3.19.732-.584 1.314-1.332 1.92-2.049M111.625 388.804c1.262.463 2.455-.799 3.106-1.802.481-.741.512-1.783.279-2.636-.336-1.227-1.15-2.477-2.28-3.065-1.293-.672-2.993-.6-4.37-.124-1.037.358-1.568 1.572-2.528 2.101-1.214.67-2.616.938-3.957 1.285" stroke-width="2"/><path d="M122.125 379.948s2.754.858 4.125.623c.698-.119 1.44-.44 1.875-.997.74-.946.989-2.299.875-3.493-.122-1.278-.602-2.715-1.625-3.493-1.613-1.225-3.988-1.251-6-.998-1.943.245-3.615 1.513-5.375 2.37-1.19.58-2.269 1.387-3.5 1.871-1.363.536-2.785 1.105-4.25 1.123-.9.011-2.361.234-2.625-.624-.199-.647.757-1.217 1.375-1.497 1.67-.755 3.7.225 5.5-.124 1.968-.382 3.706-1.544 5.625-2.12 1.8-.542 3.629-1.428 5.5-1.248 1.541.148 3.158.775 4.25 1.87.737.74 1.178 1.83 1.25 2.87.074 1.077-.192 2.281-.875 3.118-.859 1.053-2.265 1.834-3.625 1.871-.913.025-2.5-1.122-2.5-1.122zM87.125 381.32s-2.307-.92-3-1.871c-.606-.832-.746-1.965-.75-2.994-.005-1.412.073-3.05 1-4.116.588-.677 1.604-.941 2.5-.998 1.331-.085 2.626.531 3.875.998 1.309.488 2.47 1.31 3.75 1.87 1.184.518 2.337 1.273 3.625 1.373.807.062 1.747-1.008 2.375-.5.259.21.16.707 0 .999-.332.607-1.06 1.054-1.75 1.122-1.024.102-1.937-.699-2.875-1.122-1.324-.598-2.575-1.347-3.875-1.996-1.367-.682-2.608-1.813-4.125-1.996-1.185-.143-2.657-.094-3.5.749-.993.992-1.01 2.72-.875 4.116.112 1.168.57 2.387 1.375 3.243.574.61 2.25 1.123 2.25 1.123zM116 367.349s-2.664.757-4 1.123c-1.248.34-2.456 1.001-3.75.998-1.425-.004-2.73-.835-4.125-1.123-1.154-.238-2.349-.751-3.5-.499-.824.18-1.29 1.248-2.125 1.372-1.2.179-2.399-.49-3.5-.998-.682-.314-1.875-1.247-1.875-1.247s1.862.94 2.875.998c1.322.074 2.557-.743 3.875-.873 1.66-.164 3.342-.054 5 .124 1.097.118 2.16.457 3.25.624 1.078.165 2.162.455 3.25.374 1.119-.083 2.138-.726 3.25-.873.454-.06 1.375 0 1.375 0z" stroke-width="2" fill="#55A"/><path d="M108.75 362.983s-2.264-1.162-3.5-1.372a8.509 8.509 0 0 0-3.375.125c-1.25.3-3.5 1.621-3.5 1.621M97.5 408.014s-3.289 2.47-5.125 3.368c-1.502.736-3.08 1.507-4.75 1.622-1.524.105-3.035-.438-4.5-.873-1.164-.346-2.2-1.066-3.375-1.372-.975-.255-3-.375-3-.375" stroke-width="2"/><path d="M78.17 405.983s2.889-2.502 4.586-3.336a11.52 11.52 0 0 1 3.87-1.13c2.002-.204 4.103-.193 6.017.485 1.15.408 2.116 1.31 3.103 2.09.701.556 1.992 1.838 1.992 1.838s-2.394 1.327-3.634 1.867c-1.243.542-2.49 1.168-3.803 1.374-1.914.3-3.897.232-5.776-.226-2.243-.547-6.356-2.962-6.356-2.962z" stroke-width="2"/><path d="M93.059 405.33c-.037-2.006-2.176-3.594-4.778-3.546-2.602.047-4.682 1.712-4.645 3.718.037 2.007 2.176 3.595 4.778 3.547 2.602-.048 4.681-1.713 4.645-3.719z" stroke-width="2.002"/><path d="M90.365 406.213c-.016-.836-.793-1.5-1.736-1.482-.943.017-1.695.709-1.68 1.545.016.836.793 1.5 1.736 1.482.943-.017 1.695-.709 1.68-1.545z" stroke-width="2.009" fill="#55A"/><path d="M115.25 400.655l5.125-4.491M95.25 399.033l-5.125-3.742" stroke-width="2"/></g><path d="M106.63 246.038c-.33-.64-.86-1.301-1.854-1.413-1.789-.2-3.16 1.252-3.383 3.236-.157 1.388.253 2.36.614 3.483.384 1.195 1.025 2.296 1.63 3.396.775 1.413 2.556 4.103 2.556 4.103s2.335-2.229 3.406-3.434c.835-.939 1.705-1.87 2.345-2.95.602-1.015 1.217-1.872 1.374-3.26.223-1.984-.79-3.704-2.58-3.905-.993-.111-1.656.417-2.12.967l-.177-.22.62-1.94c.311-.969 1.13-2.885 1.13-2.885-2.031.174-2.031.174-3.974-.446 0 0 .373 2.05.46 3.064l.174 2.028-.221.176zM102.677 271.213c-.27-.667-.735-1.375-1.715-1.578-1.762-.365-3.262.956-3.668 2.91-.284 1.368.033 2.374.289 3.525.271 1.225.808 2.38 1.308 3.532.642 1.478 2.166 4.321 2.166 4.321s2.531-2.004 3.709-3.105c.918-.858 1.87-1.705 2.608-2.722.693-.954 1.386-1.751 1.67-3.12.406-1.953-.444-3.76-2.207-4.125-.979-.202-1.688.262-2.202.767l-.155-.236c.4-.936.4-.936.798-1.873.399-.936 1.393-2.769 1.393-2.769-2.04-.014-2.04-.014-3.917-.81 0 0 .181 2.075.174 3.093l-.014 2.035-.237.155zM94.65 295.097c-.157-.702-.502-1.476-1.436-1.834-1.68-.644-3.374.416-4.091 2.28-.503 1.303-.352 2.347-.287 3.524.07 1.254.412 2.48.72 3.697.393 1.562 1.436 4.614 1.436 4.614s2.823-1.57 4.164-2.466c1.045-.699 2.122-1.38 3.015-2.265.838-.83 1.65-1.505 2.153-2.809.717-1.863.171-3.783-1.509-4.427-.933-.358-1.709-.014-2.297.402l-.115-.258 1.09-1.72c.546-.86 1.824-2.508 1.824-2.508-2.01-.343-2.01-.343-3.734-1.432 0 0-.158 2.078-.33 3.08l-.344 2.007-.258.115zM82.708 318.488c-.047-.718-.268-1.535-1.135-2.033-1.56-.896-3.398-.11-4.395 1.62-.698 1.212-.711 2.266-.83 3.44-.124 1.248.024 2.513.139 3.763.147 1.603.705 4.78.705 4.78s3.032-1.115 4.495-1.794c1.14-.53 2.31-1.037 3.33-1.773.957-.691 1.864-1.232 2.562-2.443.997-1.73.755-3.711-.805-4.607-.867-.498-1.686-.277-2.332.042l-.074-.272 1.345-1.531c.672-.765 2.189-2.197 2.189-2.197-1.933-.65-1.933-.65-3.467-1.99 0 0-.477 2.028-.803 2.993l-.65 1.929-.274.073zM68.718 338.206c.084-.715.016-1.559-.745-2.206-1.371-1.164-3.322-.724-4.618.796-.907 1.064-1.112 2.099-1.442 3.23-.351 1.206-.436 2.476-.55 3.726-.148 1.604-.179 4.828-.179 4.828s3.185-.546 4.748-.948c1.218-.313 2.46-.6 3.597-1.138 1.067-.506 2.057-.873 2.965-1.937 1.296-1.52 1.419-3.512.048-4.676-.762-.647-1.607-.58-2.3-.382l-.023-.281 1.6-1.262c.8-.63 2.554-1.762 2.554-1.762-1.783-.99-1.783-.99-3.046-2.587 0 0-.84 1.908-1.335 2.797L69 338.183l-.282.023zM223.175 347.473c-.004.72-.175 1.549-1.01 2.098-1.503.988-3.385.314-4.486-1.352-.77-1.167-.847-2.219-1.036-3.383-.2-1.239-.13-2.51-.09-3.764.049-1.61.413-4.814.413-4.814s3.094.93 4.596 1.519c1.17.46 2.369.895 3.43 1.568.998.632 1.936 1.117 2.707 2.284 1.1 1.666.979 3.658-.524 4.647-.835.549-1.666.378-2.33.098l-.057.277 1.434 1.447c.718.723 2.32 2.06 2.32 2.06-1.89.765-1.89.765-3.34 2.197 0 0-.6-1.996-.983-2.94l-.767-1.886-.277-.056zM212.616 327.446c-.124.71-.43 1.499-1.345 1.902-1.647.725-3.39-.251-4.198-2.077-.566-1.278-.466-2.328-.459-3.507.008-1.255.29-2.497.537-3.728.317-1.579 1.21-4.678 1.21-4.678s2.896 1.43 4.28 2.26c1.077.647 2.186 1.276 3.121 2.115.879.789 1.723 1.423 2.288 2.701.808 1.826.357 3.77-1.29 4.496-.915.403-1.706.097-2.314-.29l-.102.264 1.173 1.664c.587.832 1.944 2.416 1.944 2.416-1.991.441-1.991.441-3.66 1.613 0 0-.258-2.068-.48-3.062l-.441-1.987-.264-.102zM203.639 306.887c-.16.702-.505 1.475-1.44 1.832-1.68.642-3.373-.422-4.088-2.286-.5-1.304-.348-2.348-.28-3.525.07-1.253.415-2.479.723-3.696.396-1.561 1.444-4.611 1.444-4.611s2.82 1.573 4.16 2.471c1.044.7 2.12 1.384 3.012 2.27.837.831 1.648 1.507 2.149 2.812.715 1.864.166 3.783-1.515 4.425-.934.356-1.71.011-2.297-.405l-.116.258 1.089 1.72c.544.862 1.82 2.512 1.82 2.512-2.012.34-2.012.34-3.737 1.426 0 0-.154-2.078-.325-3.081l-.34-2.007-.26-.115zM196.173 283.232c-.266.67-.727 1.38-1.705 1.588-1.76.375-3.268-.936-3.686-2.888-.292-1.366.02-2.374.268-3.526.265-1.228.795-2.385 1.288-3.54.633-1.481 2.14-4.334 2.14-4.334s2.544 1.99 3.728 3.084c.923.852 1.88 1.693 2.624 2.706.699.95 1.396 1.743 1.688 3.11.418 1.951-.422 3.763-2.182 4.138-.978.208-1.69-.252-2.207-.754l-.153.237.808 1.868c.405.934 1.41 2.761 1.41 2.761-2.04.027-2.04.027-3.913.834 0 0 .17-2.077.156-3.095l-.026-2.035-.238-.154zM193.2 258.927c-.329.64-.856 1.305-1.849 1.42-1.788.207-3.164-1.24-3.395-3.223-.161-1.388.245-2.362.601-3.486.38-1.197 1.017-2.3 1.618-3.402.77-1.415 2.542-4.112 2.542-4.112s2.343 2.22 3.418 3.422c.838.936 1.711 1.863 2.356 2.941.605 1.013 1.224 1.868 1.385 3.256.23 1.982-.777 3.706-2.565 3.913-.993.115-1.658-.41-2.125-.959l-.176.221.628 1.937c.314.968 1.141 2.882 1.141 2.882-2.033-.167-2.033-.167-3.973.46 0 0 .365-2.052.448-3.066l.167-2.028-.222-.176z" fill="#FFF"/><path d="M150.435 223.26S141 230.884 141 240.863c0 9.98 8.87 17.79 8.87 17.79s11.13-7.81 11.13-17.79c0-9.979-10.565-17.601-10.565-17.601z" stroke="#000" stroke-width="2" fill="#FF5" stroke-linecap="round" stroke-linejoin="round"/><path d="M151.1 229.299s-5.665 3.528-5.665 12.276c0 6.303 5.1 10.96 5.1 10.96s6.607-5.221 6.607-11.524c0-6.304-6.042-11.712-6.042-11.712z" stroke="#000" stroke-width="2" fill="#FF5" stroke-linecap="round" stroke-linejoin="round"/><path d="M151.1 234.924s-2.085 4.035-2.085 6.463 2.085 5.71 2.085 5.71 2.461-4.223 2.461-6.65c0-2.428-2.461-5.523-2.461-5.523z" stroke="#000" stroke-width="2" fill="#FF5" stroke-linecap="round" stroke-linejoin="round"/><path d="M119 230.883v19.959h20s-3-4.99-3-9.98 3-9.979 3-9.979h-20zM183 230.883v19.959h-20s3-4.99 3-9.98-3-9.979-3-9.979h20z" fill="#F55"/><path d="M220.105 359.155c15.22-5.59 30.137-12.151 44.281-20.051 12.856-7.18 25.382-14.997 36.614-24.703" stroke="#55A" stroke-width="2" stroke-linecap="round" stroke-linejoin="round"/><path d="M1 190.148V269M301 212.056v80.52" stroke="#000" stroke-width="2" stroke-linecap="square"/></g></svg>