<svg width="8" height="8" viewBox="0 0 8 8" fill="none" xmlns="http://www.w3.org/2000/svg">
<path d="M4 0C4.82843 0 5.5 0.671573 5.5 1.5C5.5 2.09231 5.15474 2.85756 4.65625 3.24707C4.65868 3.24919 4.66068 3.25177 4.66309 3.25391C4.90204 3.0931 5.19031 3 5.5 3C6.32843 3 7 3.67157 7 4.5C7 5.32843 6.32843 6 5.5 6C4.94098 6 4.4543 5.69368 4.19629 5.24023C4.54312 6.48852 5.25195 7.75195 5.5 8H2.5C2.74805 7.75195 3.45688 6.48852 3.80371 5.24023C3.5457 5.69368 3.05902 6 2.5 6C1.67157 6 1 5.32843 1 4.5C1 3.67157 1.67157 3 2.5 3C2.8094 3 3.09711 3.09337 3.33594 3.25391C3.33834 3.25177 3.34035 3.24919 3.34277 3.24707C2.84461 2.85741 2.5 2.09207 2.5 1.5C2.5 0.671573 3.17157 0 4 0Z" fill="black"/>
</svg>
