<svg width="8" height="8" viewBox="0 0 8 8" fill="none" xmlns="http://www.w3.org/2000/svg">
<g clip-path="url(#clip0_5_27)">
<path d="M4 0C4.82843 0 5.5 0.671573 5.5 1.5C5.5 2.09231 5.15474 2.85756 4.65625 3.24707C4.69762 3.28316 4.73653 3.32189 4.77148 3.36426C5.03423 3.13768 5.37583 3 5.75 3C6.57843 3 7.25 3.67157 7.25 4.5C7.25 5.32843 6.57843 6 5.75 6C5.0773 6 4.50764 5.55731 4.31738 4.94727C4.27585 4.96117 4.23321 4.97206 4.18945 4.98047C4.41819 6.31132 4.8542 7.6771 5.5 8H2.5C3.14578 7.67711 3.58082 6.31127 3.80957 4.98047C3.76583 4.97202 3.72315 4.96121 3.68164 4.94727C3.4913 5.55716 2.92259 6 2.25 6C1.42157 6 0.75 5.32843 0.75 4.5C0.75 3.67157 1.42157 3 2.25 3C2.62391 3 2.96486 3.13797 3.22754 3.36426C3.26244 3.3219 3.30146 3.28316 3.34277 3.24707C2.84461 2.85741 2.5 2.09207 2.5 1.5C2.5 0.671573 3.17157 0 4 0Z" fill="#262626"/>
</g>
<defs>
<clipPath id="clip0_5_27">
<rect width="8" height="8" fill="white"/>
</clipPath>
</defs>
</svg>
