<svg width="302" height="483" xmlns="http://www.w3.org/2000/svg"><g fill="none" fill-rule="evenodd"><path fill="#FF5" d="M231.22 273.677l-9.531.673-12.224-2.374-13.465-5.28-11.728-6.625-9.036-7.512-16.653-20.764-8.859-12.401-8.326-7.335-16.193-11.905-13.96-7.477-17.186-5.102-13.43-1.382-9.708-.177-11.055 3.26 11.197 19.665 9.531-.673 12.26 2.41 13.43 5.243 11.763 6.662 9 7.476 16.69 20.764 8.857 12.437 8.327 7.299 16.158 11.906 13.96 7.511 17.185 5.103 13.43 1.346 9.708.177 11.055-3.224z"/><path fill="#FF5" d="M141.079 155.791l37.878 30.756-.284 62.717-3.862 2.657-6.803-6.803-10.347-13.89-8.574-12.118-3.863-4.145-4.712-3.863zM193.165 264.642l24.839-18.036 2.374 4.748-21.295 16.866z"/><path fill="#FF5" d="M174.811 251.354l36.106-23.669 2.055 4.713-33.732 22.216z"/><path fill="#F55" d="M188.134 179.744l-.319 63.035 23.988-15.696-3.862-17.752-2.658-17.15-.602-15.98.319-8.575z"/><path d="M178.673 254.614l34.3-22.783s2.409 6.094 3.543 9.177a578.15 578.15 0 0 1 2.09 5.598l-25.44 18.355s-6.485-2.126-9.178-4.146c-2.197-1.63-5.315-6.2-5.315-6.2zM119.004 139.102l59.244 47.268L205 169.362l-.248-13.996.744-13.252.496-10.488-27.248 18.496-35.008-28.772-4.5-2.232-2.48-2.268-4.004-.496-2.268-3.26-2.976.78-3.012-3.756h-3.012l-2.48-2.268z" fill="#000"/><path fill="#000" d="M109.012 102.854l-.248 89.008 5.988 2.232 4.996 2.764-.248-89.256-3.26-.496-3.224-3.26-2.02.78z"/><path d="M231.008 179.602l20.232-9.992s3.898 11.055 6.024 16.512c2.126 5.457 4.04 11.02 6.732 16.228 1.807 3.508 3.827 6.91 6.236 10.028 2.374 3.012 8.008 8.22 8.008 8.22l-.248 78.52s-9.886-11.976-13.996-18.496c-3.579-5.705-6.307-11.94-9.248-18-3.827-7.937-7.902-15.768-10.984-24.024-2.09-5.527-3.544-11.267-5.032-16.972-1.523-5.953-2.87-11.976-3.968-18-.815-4.394-1.311-8.858-2.02-13.252-.567-3.614-1.736-10.772-1.736-10.772z" stroke="#55A" stroke-width="1.984" fill="#F55" stroke-linecap="round" stroke-linejoin="round"/><path fill="#FF5" d="M234.764 120.854l27.248 14.74-2.764 10.276.992 9.992 3.012 6.732-8.008 6.024-13.748 5.988-10.24 4.252-.992-9.992v-12.012l.744-13.996 2.232-15.732z"/><path d="M197.488 268.114l22.748-17.008s3.969 8.681 6.024 13.004c1.63 3.437 4.996 10.24 4.996 10.24s-11.09.709-16.512-.248c-5.988-1.063-17.256-5.988-17.256-5.988z" fill="#55A"/><path fill="#000" d="M300.988 354.11l-16.866-14.634.248-279.744 16.618-.106z"/><path d="M66.988 119.968l.177 66.827-6.91 2.126s-11.196-15.626-16.936-23.35c-4.181-5.563-8.681-10.914-12.756-16.618-.992-1.382-2.835-4.217-2.835-4.217s11.09-8.079 16.796-11.87a246.712 246.712 0 0 1 12.401-7.583c3.295-1.878 10.063-5.315 10.063-5.315z" fill="#55A"/><path d="M83.252 111.854l-.354 74.233s-5.528-.284-8.292-.178c-2.87.142-8.504.886-8.504.886l.178-66.827s6.307-3.401 9.531-4.925c2.445-1.169 7.441-3.189 7.441-3.189z" fill="#000"/><path d="M176.228 35.496c-7.05.106-14.137-.106-21.189.354-5.882.355-11.728 1.028-17.504 1.914-3.826.602-7.547 1.559-11.338 2.303-.567 4.146-1.205 8.256-1.772 12.366-.602 4.677-1.098 9.319-1.736 13.996-.496 3.473-.78 6.98-1.595 10.417-.496 2.056-1.31 4.004-1.948 6.024l-2.658.354c-.886-.885-1.453-2.303-2.657-2.657-1.595-.496-3.473.07-4.96.886-2.127 1.134-3.65 3.224-4.926 5.28-1.24 1.984-2.232 4.216-2.48 6.554a9.064 9.064 0 0 0 .708 4.43c.46 1.027 1.099 2.16 2.126 2.657.992.46 2.232 0 3.366 0 .567.815.957 1.807 1.737 2.445 1.204.992 2.834 1.31 4.252 1.949.78.886 1.24 2.161 2.303 2.657.921.425 2.02 0 3.012 0 .885.815 1.523 2.02 2.657 2.48.921.355 1.984 0 2.976 0 1.028 1.17 1.595 2.906 3.012 3.544 1.028.425 2.232-.142 3.366-.177.886 1.063 1.418 2.586 2.658 3.189 1.027.46 2.232 0 3.366 0 1.098.92 2.09 2.055 3.33 2.799 1.453.886 3.012 1.559 4.607 1.949 1.665.39 3.437.673 5.138.354 1.842-.319 3.614-1.205 5.138-2.303 1.665-1.205 3.082-2.835 4.216-4.571 1.595-2.374 2.658-5.067 3.543-7.795 1.595-4.926 2.09-10.099 3.012-15.201 1.17-6.626 2.02-13.323 3.19-19.984 1.133-6.59 2.409-13.217 3.684-19.772 1.099-5.492 2.268-10.984 3.366-16.441z" fill="#FF5"/><path d="M102.988 1.374l20.02 40.004s10.17-2.693 15.378-3.543c8.15-1.311 16.37-2.197 24.626-2.48 9.992-.32 20.02.141 29.976.991 11.764 1.063 35.008 5.032 35.008 5.032l22.996-40.004H102.988z" stroke="#55A" stroke-width="1.984" fill="#F55" stroke-linecap="round" stroke-linejoin="round"/><path d="M117.835 2.827L133 32.377c6.484-2.267 11.41-2.338 19.7-3.259l-3.897-26.291h-5.74l5.102 22.748c-4.748.319-8.504.283-12.614 1.913L124.425 2.827h-6.59zM157.697 2.827l3.047 25.299c10.063-.921 18.142-1.488 28.205-.46l5.492-24.84h-6.449l-3.047 19.808c-7.902-.46-12.579.035-19.205.496l-2.232-20.303h-5.811zM204.256 2.827l-7.335 25.05c7.37.639 18.071 1.595 26.079 3.473l13.713-28.523h-6.343l-10.382 23.527c-4.464-1.204-12.012-1.736-16.476-2.374l6.236-21.153h-5.492z" stroke="#55A" stroke-width="1.984" fill="#55A" stroke-linecap="round" stroke-linejoin="round"/><path d="M176.016 36.346S172.543 53 170.984 61.362c-1.807 9.957-2.905 20.09-4.996 30.012-1.382 6.732-1.594 13.996-4.996 19.984-2.303 4.11-5.421 8.788-9.992 9.992-4.43 1.17-10.205-.177-13.252-3.578-2.551-2.87-3.083-7.796-1.736-11.41 1.417-3.933 5.28-8.327 9.46-8.185 4.359.142 9.178 4.89 9.248 9.213.036 3.897-4.18 8.256-8.078 8.504-2.41.177-5.315-2.126-5.634-4.536-.39-2.799 2.161-6.838 4.996-6.803 1.7 0 4.004 1.984 2.94 4.146" stroke="#55A" stroke-width="1.984" stroke-linecap="round" stroke-linejoin="round"/><path d="M170.17 35.531c-2.942 8.965-3.686 18.071-5.245 27.178-1.594 9.035-2.02 18.248-4.145 27.177-1.701 7.086-3.615 14.634-6.804 20.764M163.472 35.531c-2.232 7.796-2.905 16.052-4.145 24.095-1.205 7.866-1.63 15.874-3.154 23.67-1.098 5.669-1.913 11.338-4.323 16.688M157.52 35.921c-1.985 7.441-2.587 15.343-3.685 23.032-1.063 7.512-1.453 15.2-2.8 22.641-.992 5.386-1.7 10.843-3.862 15.945M151.709 36.559c-1.807 7.087-2.339 14.563-3.331 21.898-.957 7.122-1.311 14.385-2.516 21.472-.886 5.138-1.523 10.311-3.472 15.13M146.004 37.09c-1.772 6.733-2.339 13.855-3.295 20.8-.992 6.803-1.311 13.712-2.552 20.445-.885 4.89-1.523 9.78-3.472 14.385M139.626 37.976c-1.736 6.307-2.126 12.58-3.047 18.85-.922 6.343-1.276 12.757-2.48 19.028-.851 4.536-1.453 9.107-3.367 13.394M133.46 38.898c-1.665 5.74-2.16 11.799-3.047 17.716-.885 5.776-1.204 11.658-2.303 17.398-.815 4.145-1.417 8.327-3.189 12.26M126.48 40.846c-1.417 5.138-1.842 10.205-2.586 15.343-.78 5.173-1.028 10.453-1.985 15.59-.673 3.721-1.169 7.477-2.692 10.985M146.43 98.567c-1.63-1.099-3.084-3.083-5.032-3.154-3.225-.106-6.414 2.055-8.504 4.465-2.233 2.587-3.579 6.272-3.331 9.673.142 2.445 1.346 5.067 3.295 6.555.957.709 2.02.532 3.579.674" stroke="#55A" stroke-width="1.984" stroke-linecap="round" stroke-linejoin="round"/><path d="M139.945 95.342c-1.347-1.488-2.374-2.657-3.969-2.763-3.224-.177-6.413 2.055-8.504 4.5-2.232 2.55-3.578 6.236-3.33 9.638.141 2.444 1.204 5.279 3.295 6.555.992.602 1.878.708 3.472-.071" stroke="#55A" stroke-width="1.984" stroke-linecap="round" stroke-linejoin="round"/><path d="M135.055 92.366c-1.63-1.098-3.083-3.083-5.031-3.153-3.225-.107-6.414 2.055-8.504 4.5-2.233 2.55-3.58 6.236-3.331 9.637.142 2.445 1.205 5.244 3.295 6.555.886.567 1.63.603 3.19.071" stroke="#55A" stroke-width="1.984" stroke-linecap="round" stroke-linejoin="round"/><path d="M128.323 89c-1.24-1.772-2.48-2.658-4.146-2.764-3.189-.142-6.413 2.055-8.504 4.5-2.197 2.551-3.543 6.236-3.33 9.638.177 2.445 1.31 5.138 3.295 6.555.921.638 1.63.85 3.366.46" stroke="#55A" stroke-width="1.984" stroke-linecap="round" stroke-linejoin="round"/><path d="M122.618 85.634c-.602-1.488-2.232-2.516-3.756-2.622-3.189-.213-6.413 2.055-8.468 4.464-2.233 2.587-3.579 6.272-3.366 9.674.177 2.444 1.31 5.102 3.33 6.52.744.566 1.17.247 2.729.389" stroke="#55A" stroke-width="1.984" stroke-linecap="round" stroke-linejoin="round"/><path d="M116.665 83.047c-.602-1.771-1.771-2.374-3.082-2.48-3.19-.319-6.414 2.02-8.504 4.464-2.233 2.587-3.437 6.237-3.331 9.638.035 1.807.638 3.827 1.984 4.996 1.063.957 2.551.992 4.11 1.099M227.783 41.839c-.85 10.169-1.452 20.303-2.515 30.437-.567 5.527-1.063 11.09-2.02 16.582-1.311 7.264-1.63 14.988-4.996 21.544-2.055 3.968-5.35 7.299-8.858 9.992-3.225 2.48-6.945 4.5-10.914 5.456-4.11 1.028-8.54 1.099-12.72.248-4.146-.885-7.83-3.224-11.551-5.244-4.678-2.515-8.93-5.74-13.394-8.61M173.96 55.232c3.934-1.134 7.76-2.764 11.8-3.401 2.622-.39 5.421-.922 7.972-.213 1.276.354 3.579 1.382 3.402 2.162-.106.39-.744.318-1.134.318-1.488.036-2.835-.92-4.323-1.133-2.161-.284-4.394-.213-6.59 0-3.756.39-7.406 1.523-11.126 2.267zM196 63.524c.46-.496 1.736-.922 1.346-1.453-.46-.744-3.295-2.551-5.208-3.295-1.807-.71-3.792-.993-5.776-1.028-2.055-.07-4.145.248-6.165.78-1.382.39-2.48.992-4.04 1.665M171.8 64.8c3.33-.851 6.59-2.127 9.991-2.517 2.41-.283 4.89-.354 7.264.107 1.949.39 3.862 1.134 5.492 2.197 1.063.744 1.878 1.771 2.693 2.799-1.63.708-3.153 1.736-4.89 2.161-2.728.709-5.598.992-8.397.673-2.374-.248-4.642-1.169-6.803-2.161-1.914-.85-3.544-2.197-5.35-3.26z" stroke="#55A" stroke-width="1.984" stroke-linecap="round" stroke-linejoin="round"/><path d="M180.197 63.311c.106 1.17-.32 2.48.248 3.508.673 1.24 2.055 2.055 3.401 2.516 1.028.319 2.268.354 3.296 0 .992-.39 1.842-1.17 2.374-2.055.744-1.24.602-2.8.921-4.217" stroke="#55A" stroke-width="1.984" stroke-linecap="round" stroke-linejoin="round"/><path d="M183.988 64.126c-.319.354-.177 1.028.071 1.417.284.46.815.815 1.311.815.532.036 1.063-.319 1.311-.744.319-.46.496-1.24.106-1.63-.673-.638-2.196-.496-2.799.142h0zM179.878 75.217c2.374-.461 5.705-.993 8.398-2.02 2.374-.921 4.641-2.693 6.696-3.65" stroke="#55A" stroke-width="1.984" fill="#55A" stroke-linecap="round" stroke-linejoin="round"/><path d="M208.154 57.854c-.603 1.488-1.524 2.87-1.843 4.43-.567 3.188-.142 6.52.248 9.779.46 3.968 1.913 7.83 2.587 11.8.425 2.267 1.452 4.64.92 6.909-.247 1.133-1.097 2.055-1.912 2.834-1.028.957-2.445 1.453-3.65 2.162M194.866 82.622c-1.559 1.7-3.827 2.941-4.677 5.102-.39 1.028-.46 2.268 0 3.296.567 1.169 1.7 2.197 2.976 2.48 1.028.248 2.126-.319 3.048-.78 1.204-.637 1.878-2.055 3.082-2.622.85-.425 1.914-.92 2.835-.567.283.107.638.497.567.78-.32 1.028-1.984.78-2.941 1.134-1.311.496-2.587.921-3.862 1.382" stroke="#55A" stroke-width="1.984" stroke-linecap="round" stroke-linejoin="round"/><path d="M187.319 103.811c1.594-.815 3.862-.638 5.775-.602 1.985.035 3.898.956 5.847.885 2.232-.106 4.287-1.594 6.555-1.594 1.63-.035 3.508.709 4.784 1.063-.071.567-.249 1.311 0 1.736-1.63-.602-3.969-1.488-5.989-1.24-1.913.248-3.295 2.445-5.244 2.48-2.232.071-3.968-2.48-6.236-2.586-2.161-.071-4.43 1.63-6.13 2.02.46-.638.673-1.701.638-2.162z" stroke="#55A" stroke-width="1.984" fill="#55A" stroke-linecap="round" stroke-linejoin="round"/><path d="M191.252 110.756c1.594.673 3.083 1.7 4.783 2.02 1.24.248 2.587.212 3.863-.036.85-.142 1.63-.567 2.445-.886.744-.319 1.452-.708 2.196-1.027M202.768 115.752c-1.17-.496-2.268-.921-3.437-.921-.992 0-1.914.39-2.835.815" stroke="#55A" stroke-width="1.984" stroke-linecap="round" stroke-linejoin="round"/><path d="M209.287 54.913c1.56-1.842 4.996-2.303 7.69-2.515 1.984-.142 3.932.39 5.846.956 1.346.39 2.657 1.134 3.933 1.737-2.162-.426-4.394-1.205-6.626-1.276-1.949-.035-3.898.354-5.811.78-1.347.318-2.587.956-3.791 1.594-.496.283-1.63-.815-1.24-1.276z" stroke="#55A" stroke-width="1.984" fill="#55A" stroke-linecap="round" stroke-linejoin="round"/><path d="M208.72 61.717c1.56-.78 2.977-1.843 4.642-2.268 2.339-.673 4.89-.992 7.264-.567 1.594.283 2.94 1.346 4.43 1.984M207.693 65.012c1.7-.673 3.791-1.205 5.705-1.453 2.232-.283 4.535-.354 6.767-.07 1.311.176 2.693.424 3.863 1.098.708.425 1.169 1.204 1.771 1.807l-.354 2.728c-1.17.425-2.339 1.028-3.579 1.24-1.665.32-3.437.32-5.138.213-1.842-.107-3.72-.213-5.456-.886-1.311-.532-2.48-1.417-3.58-2.339-.353-.319-.637-.673-.956-1.027.32-.425.46-1.099.957-1.311h0z" stroke="#55A" stroke-width="1.984" stroke-linecap="round" stroke-linejoin="round"/><path d="M212.087 64.268c.07 1.169-.32 2.48.248 3.508.673 1.24 2.055 2.09 3.401 2.515 1.028.355 2.268.39 3.296 0 .956-.354 1.842-1.134 2.374-2.055.744-1.205.602-2.799.92-4.18" stroke="#55A" stroke-width="1.984" stroke-linecap="round" stroke-linejoin="round"/><path d="M215.56 65.118c-.32.354-.178.992.07 1.417.283.426.815.78 1.311.815.531 0 1.063-.319 1.311-.744.319-.46.496-1.275.106-1.665-.673-.602-2.161-.496-2.799.177h0z" stroke="#55A" stroke-width="1.984" fill="#55A" stroke-linecap="round" stroke-linejoin="round"/><path d="M208.508 70.433c1.275 1.382 2.303 3.012 3.791 4.181 1.205.921 2.658 1.417 4.004 2.126" stroke="#55A" stroke-width="1.984" stroke-linecap="round" stroke-linejoin="round"/><path d="M224.56 79.965c.672 2.905 1.38 4.854 2.621 7.015 1.276 2.126 2.728 4.252 4.784 5.634 1.63 1.063 3.614 1.914 5.563 1.736 1.771-.141 3.65-.992 4.748-2.41 1.098-1.416 1.275-3.472 1.169-5.279-.106-1.63-.567-3.401-1.665-4.641-.957-1.134-2.41-1.914-3.863-2.055-1.027-.107-2.197.07-2.94.78-.568.53-.78 1.452-.78 2.231.035.85-.071 1.737.992 2.339-.78-.319-1.311-1.311-1.878-2.055-.744-1.063-1.382-2.268-1.913-3.508-.638-1.382-1.063-2.87-1.489-4.358-.531-2.02-.92-4.11-1.346-6.13a982.198 982.198 0 0 1-2.055-9.638c-.567 5.528-1.347 14.776-1.949 20.339z" stroke="#55A" stroke-width="1.984" fill="#FF5" stroke-linecap="round" stroke-linejoin="round"/><path d="M221.83 99.949c.638 2.905 2.587 8.575 4.855 12.366 1.276 2.126 2.8 4.181 4.784 5.634 1.594 1.17 3.472 2.48 5.456 2.338 1.878-.141 3.756-1.452 4.855-3.011 1.027-1.453 1.275-3.473 1.169-5.245-.106-1.665-.567-3.437-1.666-4.677a6.288 6.288 0 0 0-3.897-2.055c-.992-.106-2.162.106-2.906.78-.567.531-.815 1.452-.78 2.232.072.815.036 1.559 1.064 2.161-.78-.318-1.382-1.133-1.949-1.842-.815-1.063-1.382-2.303-1.949-3.508-.602-1.417-.992-2.94-1.453-4.394-.531-1.736-1.027-3.508-1.559-5.244-1.169-4.11-2.976-9.708-3.508-12.26-.566 5.528-1.948 11.162-2.515 16.725z" stroke="#55A" stroke-width="1.984" fill="#FF5" stroke-linecap="round" stroke-linejoin="round"/><path d="M219.598 107.78s.922 2.87 1.56 4.216c.744 1.524 2.622 4.358 2.622 4.358s3.224 1.453 4.89 2.055c1.558.567 4.747 1.453 4.747 1.453s-3.685-2.87-5.137-4.677c-1.276-1.559-2.162-3.402-3.048-5.244-.815-1.772-1.382-3.685-2.02-5.563-.566-1.665-1.558-5.067-1.558-5.067s-.567 3.33-.993 4.996c-.283 1.17-1.063 3.472-1.063 3.472z" stroke="#55A" stroke-width="1.984" fill="#FF5" stroke-linecap="round" stroke-linejoin="round"/><path stroke="#55A" stroke-width="1.984" fill="#FF5" stroke-linecap="round" stroke-linejoin="round" d="M223.78 116.354l-6.804-3.897 2.622-4.748zM153.41 120.57l24.909 20.694 28.063-18.46-.673 8.964-27.036 18.602-35.114-28.984c2.835.956 6.59.815 9.85-.815z"/><path stroke="#55A" stroke-width="1.984" stroke-linecap="round" stroke-linejoin="round" d="M83.252 129.89l9.354 10.594-9.177 9.709"/><path stroke="#55A" stroke-width="1.984" stroke-linecap="round" stroke-linejoin="round" d="M83.606 136.303l3.366 3.898-3.366 3.508"/><path d="M96.504 117.878l-9.354 9.709 9 9.885 9.106-9.885-8.752-9.71zm-.177 4.181l5.35 4.996-5.35 5.882-5.173-5.173 5.173-5.705z" stroke="#55A" stroke-width="1.984" fill="#55A" fill-rule="nonzero" stroke-linecap="round" stroke-linejoin="round"/><path stroke="#55A" stroke-width="1.984" fill="#FF5" stroke-linecap="round" stroke-linejoin="round" d="M300.988 23.378l-37.984 36h37.984z"/><path stroke="#55A" stroke-width="1.984" fill="#F55" stroke-linecap="round" stroke-linejoin="round" d="M300.988 31.35l-22.996 22.004h22.996z"/><path stroke="#55A" stroke-width="1.984" stroke-linecap="round" stroke-linejoin="round" d="M82.685 155.472l9.354 10.63-9.177 9.709"/><path stroke="#55A" stroke-width="1.984" stroke-linecap="round" stroke-linejoin="round" d="M83.04 161.921l3.366 3.862-3.367 3.544M108.161 130.988l-9.177 9.85 9.177 9.71"/><path stroke="#55A" stroke-width="1.984" stroke-linecap="round" stroke-linejoin="round" d="M107.984 136.657l-3.366 3.898 3.366 3.508M107.453 175.031l-8.61-9.283 9.177-9.709"/><path stroke="#55A" stroke-width="1.984" stroke-linecap="round" stroke-linejoin="round" d="M107.843 169.93l-3.331-3.863 3.33-3.543"/><path d="M95.512 143.638l-9.355 9.708 9 9.886 9.497-10.063-9.142-9.531zm-.177 4.18l5.35 4.997-5.35 5.882-5.174-5.173 5.174-5.705zM95.902 169.008l-9.32 9.709 9 9.425 9.674-9.213-9.354-9.921zm-.142 4.18l5.35 4.997-5.35 5.882-5.209-5.138 5.209-5.74z" stroke="#55A" stroke-width="1.984" fill="#55A" fill-rule="nonzero" stroke-linecap="round" stroke-linejoin="round"/><path stroke="#55A" stroke-width="1.984" stroke-linecap="round" stroke-linejoin="round" d="M108.374 123.654l-8.398-9.071 7.831-8.398"/><path stroke="#55A" stroke-width="1.984" stroke-linecap="round" stroke-linejoin="round" d="M108.232 118.374l-3.366-3.508 2.764-3.33M83.642 125.567l9.956-10.417-5.74-6.06"/><path stroke="#55A" stroke-width="1.984" stroke-linecap="round" stroke-linejoin="round" d="M83.996 119.154l3.366-3.898-3.366-3.543"/><path d="M82.756 181.657l3.862 4.607M108.48 181.445l-7.086 7.3M83.146 112.138l-.567 73.878M108.693 103.102l-.213 88.406" stroke="#55A" stroke-width="1.984" fill="#F55" stroke-linecap="round" stroke-linejoin="round"/><path stroke="#55A" stroke-width="1.984" fill="#55A" stroke-linecap="round" stroke-linejoin="round" d="M92.181 107.531l4.394 4.394 8.468-8.433-1.346-2.303z"/><path stroke="#55A" stroke-width="1.984" fill="#FF5" stroke-linecap="round" stroke-linejoin="round" d="M277.992 59.378v70.972l6.024 2.02V59.378zM284.016 339.37V137.366h-6.024v203.988l22.996 20.02v-7.016z"/><path d="M292.484 61.362c-1.169 0-2.48 1.311-2.48 2.516 0 1.17 1.311 2.48 2.48 2.48 1.205 0 2.516-1.31 2.516-2.48 0-1.205-1.311-2.516-2.516-2.516zM292.484 75.358c-1.169 0-2.48 1.311-2.48 2.516 0 1.17 1.311 2.48 2.48 2.48 1.205 0 2.516-1.31 2.516-2.48 0-1.205-1.311-2.516-2.516-2.516zM295.496 68.378c-1.17 0-2.48 1.311-2.48 2.48 0 1.17 1.31 2.516 2.48 2.516s2.516-1.346 2.516-2.516c0-1.169-1.347-2.48-2.516-2.48zM289.508 68.378c-1.17 0-2.516 1.311-2.516 2.48 0 1.17 1.347 2.516 2.516 2.516 1.17 0 2.48-1.346 2.48-2.516 0-1.169-1.31-2.48-2.48-2.48zM292.661 110.118c-1.204 0-2.515 1.311-2.515 2.516 0 1.17 1.31 2.48 2.515 2.48 1.17 0 2.48-1.31 2.48-2.48 0-1.205-1.31-2.516-2.48-2.516zM292.661 124.114c-1.204 0-2.515 1.347-2.515 2.516 0 1.17 1.31 2.48 2.515 2.48 1.17 0 2.48-1.31 2.48-2.48s-1.31-2.516-2.48-2.516zM295.638 117.134c-1.17 0-2.48 1.31-2.48 2.48 0 1.205 1.31 2.516 2.48 2.516 1.205 0 2.516-1.311 2.516-2.516 0-1.17-1.311-2.48-2.516-2.48zM289.65 117.134c-1.17 0-2.516 1.31-2.516 2.48 0 1.205 1.346 2.516 2.516 2.516 1.169 0 2.515-1.311 2.515-2.516 0-1.17-1.346-2.48-2.515-2.48zM292.449 158.91c-1.17 0-2.48 1.31-2.48 2.48 0 1.204 1.31 2.515 2.48 2.515s2.516-1.31 2.516-2.515c0-1.17-1.347-2.48-2.516-2.48zM292.449 172.905c-1.17 0-2.48 1.312-2.48 2.48 0 1.206 1.31 2.517 2.48 2.517s2.516-1.311 2.516-2.516c0-1.17-1.347-2.48-2.516-2.48zM295.46 165.89c-1.169 0-2.515 1.346-2.515 2.515 0 1.17 1.346 2.48 2.516 2.48 1.169 0 2.48-1.31 2.48-2.48 0-1.169-1.311-2.515-2.48-2.515zM289.472 165.89c-1.204 0-2.515 1.346-2.515 2.515 0 1.17 1.31 2.48 2.515 2.48 1.17 0 2.48-1.31 2.48-2.48 0-1.169-1.31-2.515-2.48-2.515zM292.272 208.445c-1.17 0-2.516 1.31-2.516 2.48 0 1.205 1.346 2.516 2.516 2.516 1.169 0 2.48-1.311 2.48-2.516 0-1.17-1.311-2.48-2.48-2.48zM292.272 222.44c-1.17 0-2.516 1.312-2.516 2.517 0 1.169 1.346 2.48 2.516 2.48 1.169 0 2.48-1.311 2.48-2.48 0-1.205-1.311-2.516-2.48-2.516zM295.248 215.425c-1.17 0-2.48 1.347-2.48 2.516 0 1.17 1.31 2.516 2.48 2.516 1.205 0 2.516-1.347 2.516-2.516 0-1.17-1.311-2.516-2.516-2.516zM289.26 215.425c-1.17 0-2.48 1.347-2.48 2.516 0 1.17 1.31 2.516 2.48 2.516s2.516-1.347 2.516-2.516c0-1.17-1.347-2.516-2.516-2.516zM292.272 256.846c-1.17 0-2.516 1.311-2.516 2.48 0 1.17 1.346 2.516 2.516 2.516 1.169 0 2.48-1.346 2.48-2.515 0-1.17-1.311-2.48-2.48-2.48zM292.272 270.842c-1.17 0-2.516 1.312-2.516 2.48 0 1.206 1.346 2.517 2.516 2.517 1.169 0 2.48-1.311 2.48-2.516 0-1.17-1.311-2.48-2.48-2.48zM295.248 263.827c-1.17 0-2.48 1.31-2.48 2.515 0 1.17 1.31 2.48 2.48 2.48 1.205 0 2.516-1.31 2.516-2.48 0-1.204-1.311-2.515-2.516-2.515zM289.26 263.827c-1.17 0-2.48 1.31-2.48 2.515 0 1.17 1.31 2.48 2.48 2.48s2.516-1.31 2.516-2.48c0-1.204-1.347-2.515-2.516-2.515zM291.705 305.425c-1.205 0-2.516 1.311-2.516 2.48 0 1.205 1.311 2.516 2.516 2.516 1.169 0 2.48-1.31 2.48-2.516 0-1.169-1.311-2.48-2.48-2.48zM291.705 319.421c-1.205 0-2.516 1.311-2.516 2.48 0 1.205 1.311 2.516 2.516 2.516 1.169 0 2.48-1.31 2.48-2.515 0-1.17-1.311-2.48-2.48-2.48zM294.681 312.405c-1.17 0-2.48 1.347-2.48 2.516 0 1.17 1.31 2.48 2.48 2.48s2.516-1.31 2.516-2.48-1.347-2.516-2.516-2.516zM288.693 312.405c-1.17 0-2.516 1.347-2.516 2.516 0 1.17 1.347 2.48 2.516 2.48 1.17 0 2.48-1.31 2.48-2.48s-1.31-2.516-2.48-2.516zM286 98.354v-4.996l13.004-12.012v5.032zM286 106.362v-4.996l13.004-12.012v4.996zM286 148.35v-4.996l13.004-11.976v4.996zM286 156.358v-4.996l13.004-12.012v4.996zM286 198.346v-4.996l13.004-11.976v4.996zM286 206.354v-4.996l13.004-12.012v5.032zM286 246.358v-4.996l13.004-12.012v4.996zM286 254.366v-4.996l13.004-12.012v4.996zM286 293.378v-5.032l13.004-11.976v4.996zM286 301.35v-4.996l13.004-11.976v4.996zM286.142 339.618l-.142-1.24 13.004-12.012v4.996l-9.992 9.886zM292.732 344.862l-2.374-1.984 8.646-8.504v4.996z" fill="#FF5"/><path d="M218.5 142.327l-9.354 9.744 9 9.886 9.673-9.709-9.319-9.921zm-.177 4.216l5.35 4.996-5.35 5.847-5.173-5.138 5.173-5.705zM222.22 114.83l-10.523 8.47 7.689 10.948 10.807-8.398-7.973-11.02zm-.673 4.146l4.642 5.634-6.06 5.138-4.464-5.776 5.882-4.996zM218.146 168.193l-8.256 9.921 10.027 8.22 8.363-9.92-10.134-8.221zm.283 3.898l5.847 4.074-4.678 5.953-5.704-4.252 4.535-5.775zM220.59 191.579l-7.83 10.984 10.346 8.504 8.185-11.02-10.7-8.468zm.461 4.18l6.024 4.146-4.43 6.591-5.881-4.323 4.287-6.413zM224.772 217.374l-6.024 12.047 11.516 6.803 6.378-12.153-11.87-6.697zm1.098 4.04l6.59 3.188-3.366 7.193-6.484-3.366 3.26-7.016zM232.035 242.78l-4.89 12.578 12.119 5.67 5.208-12.686-12.437-5.563zm1.489 3.933l6.838 2.55-2.657 7.477-6.768-2.728 2.587-7.3zM242.772 268.433l-2.41 13.252 12.969 3.295 2.693-13.429-13.252-3.118zm2.197 3.579l7.228 1.205-1.24 7.83-7.158-1.417 1.17-7.618zM256.236 292.138l-1.275 13.429 13.216 2.161 1.524-13.641-13.465-1.95zm2.48 3.401l7.3.567-.532 7.937-7.264-.815.497-7.689z" stroke="#55A" stroke-width="1.984" fill="#55A" fill-rule="nonzero" stroke-linecap="round" stroke-linejoin="round"/><path stroke="#55A" stroke-width="1.984" stroke-linecap="round" stroke-linejoin="round" d="M232.248 130.138l-10.205 8.185 8.079 9.992"/><path stroke="#55A" stroke-width="1.984" stroke-linecap="round" stroke-linejoin="round" d="M231.469 135.346l-3.756 3.296 2.94 3.614M233.488 120.854s-1.453 12.331-1.984 18.496c-.744 8.575-1.843 17.15-1.772 25.76.107 7.547 1.063 15.024 2.02 22.5 1.028 7.973 2.197 15.91 4.004 23.74a232.622 232.622 0 0 0 7.476 25.76c2.729 7.583 5.953 15.024 9.532 22.252a242.053 242.053 0 0 0 12.72 22.748C269.028 287.71 277 298.374 277 298.374M206.028 147.5l10.63-11.339-9.497-11.41"/><path stroke="#55A" stroke-width="1.984" stroke-linecap="round" stroke-linejoin="round" d="M206.453 140.98l4.535-4.748-4.18-5.173M229.52 155.933l-8.54 8.22 7.902 8.682"/><path stroke="#55A" stroke-width="1.984" stroke-linecap="round" stroke-linejoin="round" d="M229.2 160.787l-3.153 3.26 2.906 3.154M205.07 177.405l10.241-11.692-9.85-11.091"/><path stroke="#55A" stroke-width="1.984" stroke-linecap="round" stroke-linejoin="round" d="M205.283 170.886l4.359-4.925-4.359-4.996M207.835 202.705l8.964-12.685-10.913-10.028"/><path stroke="#55A" stroke-width="1.984" stroke-linecap="round" stroke-linejoin="round" d="M207.374 196.185l3.827-5.315-4.855-4.57M212.583 228.04l7.44-13.642-12.047-8.681"/><path stroke="#55A" stroke-width="1.984" stroke-linecap="round" stroke-linejoin="round" d="M211.378 221.626l3.189-5.74-5.35-3.969M223 254.118l5.315-14.634-13.181-6.767"/><path stroke="#55A" stroke-width="1.984" stroke-linecap="round" stroke-linejoin="round" d="M220.839 247.953l2.303-6.166-5.882-3.118M235.543 280.587l3.544-15.166-13.926-5.138"/><path stroke="#55A" stroke-width="1.984" stroke-linecap="round" stroke-linejoin="round" d="M232.673 274.705l1.524-6.378-6.2-2.374"/><path stroke="#55A" stroke-width="2.055" stroke-linecap="round" stroke-linejoin="round" d="M250.319 304.717l2.02-15.414-13.217-3.898"/><path stroke="#55A" stroke-width="2.055" stroke-linecap="round" stroke-linejoin="round" d="M247.165 299.118l.922-6.484-5.918-1.843M268.213 328.067l-.745-16.051-13.677-1.488"/><path stroke="#55A" stroke-width="2.055" stroke-linecap="round" stroke-linejoin="round" d="M264.138 322.433l-.248-6.484-6.13-.744"/><path d="M231.752 275.094c4.004 6.697 7.795 13.465 12.012 20.02 5.386 8.433 10.878 16.795 16.972 24.732 5.173 6.733 11.02 12.863 16.512 19.276M271.756 331.61l5.74.744" stroke="#55A" stroke-width="1.984" stroke-linecap="round" stroke-linejoin="round"/><path stroke="#55A" stroke-width="1.984" fill="#55A" stroke-linecap="round" stroke-linejoin="round" d="M277.248 328.35l-5.492-1.24.496-14.492 4.996 1.24z"/><path stroke="#55A" stroke-width="1.984" stroke-linecap="round" stroke-linejoin="round" d="M273.244 294.618l-.992 13.004 4.996 1.24M230.689 179.177l-7.476 9.284 8.964 7.582"/><path stroke="#55A" stroke-width="1.984" stroke-linecap="round" stroke-linejoin="round" d="M230.972 184.067l-2.728 3.65 3.26 2.763M232.992 203.803l-5.74 10.382 10.098 5.953"/><path stroke="#55A" stroke-width="1.984" stroke-linecap="round" stroke-linejoin="round" d="M234.126 208.551l-2.055 4.04 3.685 2.16M239.512 228.146l-4.855 10.842 10.56 5.103"/><path stroke="#55A" stroke-width="1.984" stroke-linecap="round" stroke-linejoin="round" d="M241.035 232.823l-1.7 4.18 3.862 1.843M247.697 252.594l-2.906 11.516 11.303 3.19"/><path stroke="#55A" stroke-width="1.984" stroke-linecap="round" stroke-linejoin="round" d="M250 256.917l-.957 4.43 4.146 1.133M259.673 275.626l-1.559 11.8 11.587 1.842"/><path stroke="#55A" stroke-width="1.984" stroke-linecap="round" stroke-linejoin="round" d="M262.472 279.665l-.425 4.5 4.217.674"/><path d="M251.984 169.858c3.19 8.752 5.811 17.717 9.532 26.256 2.338 5.386 4.606 10.914 7.972 15.732 2.232 3.19 5.35 5.67 8.008 8.504l-.248-13.996-4.5.992 2.516-6.236-5.776-.248 3.508-4.252-5.244-.496 3.26-4.5-5.776-.248 4.004-4.996-6.484-.496 3.756-4.996-5.776-.532 3.508-4.748-4.996-.744 3.26-5.492-7.016-.248-3.508.744z" stroke="#55A" stroke-width="1.984" fill="#55A" stroke-linecap="round" stroke-linejoin="round"/><path d="M263.004 135.594c2.339-2.515 6.2-3.153 9.496-4.18 1.772-.532 3.65-1.1 5.492-.993 2.09.107 4.288.532 6.024 1.736.921.674 1.913 1.63 1.984 2.764.07.85-.602 1.701-1.24 2.233-.603.496-1.488.566-2.268.744-1.24.354-2.622.141-3.756.744-1.027.567-1.984 1.452-2.41 2.55-.53 1.241-.354 2.765-.106 4.111.284 1.524 1.099 3.118 1.772 4.288l-.248 14.279c-2.835.319-5.81 1.24-8.752.992-1.736-.142-3.685-.354-4.996-1.488-2.374-2.126-3.012-5.67-3.756-8.752-.709-3.189-.957-6.555-.496-9.744.46-3.26 1.028-6.874 3.26-9.284zM231.752 178.858c4.5-1.842 8.079-3.366 12.012-5.244 3.366-1.63 6.697-3.437 9.992-5.244 3.118-1.7 6.732-3.579 9.248-5.244M233.24 120.606c5.421 2.587 10.914 5.067 16.264 7.76 4.287 2.162 8.504 4.5 12.756 6.732" stroke="#55A" stroke-width="1.984" fill="#FFF" stroke-linecap="round" stroke-linejoin="round"/><path d="M257.512 132.866s-2.303 7.228-2.764 10.984c-.46 3.827-.602 7.725 0 11.516.567 3.366 3.26 9.744 3.26 9.744l-12.756 7.264 5.492-9-5.988-6.024 6.484-7.228-5.988-8.256 5.244-4.252-3.26-9.992 10.276 5.244z" stroke="#55A" stroke-width="1.984" fill="#FFF" stroke-linecap="round" stroke-linejoin="round"/><path stroke="#55A" stroke-width="1.984" stroke-linecap="round" stroke-linejoin="round" d="M235.012 122.626l7.476 12.224-6.484 6.272 6.236 8.504-6.484 7.972 5.74 5.776-6.98 13.5"/><path stroke="#55A" stroke-width="1.984" stroke-linecap="round" stroke-linejoin="round" d="M233.488 129.11l2.516 4.004-3.756 3.012M231.504 146.118l3.012 3.756-3.26 4.252M230.76 160.61l3.224 4.5-3.224 4.996"/><path d="M237.74 185.094l11.268-5.492s3.401 11.445 5.492 17.008c1.772 4.748 3.472 9.603 5.988 13.996 2.941 5.067 10.524 13.996 10.524 13.996v52.264s-9.886-15.697-13.996-23.988c-4.252-8.575-8.044-17.433-11.02-26.504-2.48-7.583-4.252-15.413-5.74-23.28-1.134-5.917-2.516-18-2.516-18zM235.685 27.878s.673 7.3 2.303 10.488c1.595 3.083 4.181 5.74 7.016 7.76 2.445 1.736 5.315 2.905 8.256 3.472 2.445.496 4.996.248 7.476 0 1.701-.141 4.996-.992 4.996-.992s-3.189-1.027-4.216-2.232c-2.233-2.551-2.551-6.272-3.508-9.496-.957-3.224-1.17-6.626-2.268-9.78-1.098-3.189-2.09-6.626-4.252-9.248-1.17-1.417-2.764-2.55-4.5-3.224-1.027-.425-3.295-.532-3.295-.532l-8.008 13.784z" stroke="#55A" stroke-width="1.984" fill="#FF5" stroke-linecap="round" stroke-linejoin="round"/><path d="M240.504 20.827c1.205 3.968 2.232 7.795 4.252 11.267 1.7 3.012 4.11 5.528 6.484 8.008 1.56 1.63 3.33 3.012 4.996 4.5" stroke="#55A" stroke-width="1.984" stroke-linecap="round" stroke-linejoin="round"/><path d="M249.114 23.98c-1.771.957-5.705.107-7.653-.283-1.347 2.657-2.445 4.712-2.339 7.193M250.709 28.516c-1.772.956-5.103.673-7.052.283-1.346 2.658-2.444 5.244-2.338 7.725M252.976 34.681c-1.807.957-4.358.248-6.307-.142-1.346 2.658-1.063 5.067-.956 7.548M255.563 39.181c-1.772.992-2.906.07-4.854-.319-1.347 2.658-.638 3.685-.532 6.166M241 19.728c1.772.284 3.543.426 5.315-.354" stroke="#55A" stroke-width="1.984" stroke-linecap="round" stroke-linejoin="round"/><path d="M120.917 112.953c-.85.319-1.948.886-2.055 1.807-.106.886.886 1.665 1.63 2.161.425.284 1.028.248 1.524.425.531.178 1.24.248 1.594.745.355.496.107 1.24.248 1.842.425 1.488.603 3.26 1.736 4.287.993.957 2.516 1.134 3.863 1.276 1.169.106 2.338-.283 3.472-.425.921-.106 1.807-.39 2.728-.32.461.072.957.107 1.311.39.32.284.426.745.497 1.135.212.85.07 1.736.106 2.622.035 1.133-.177 2.303.106 3.366.355 1.275.886 2.657 1.914 3.472 1.098.886 2.622 1.099 4.003 1.17 1.17.035 2.304-.426 3.473-.638.886-.177 1.736-.532 2.657-.496.39 0 .85 0 1.134.283.177.142.177.46.213.673.07.744-.142 1.453-.213 2.197-.07.992-.425 2.02-.248 3.012.177 1.205.532 2.551 1.382 3.437.957.957 2.445 1.382 3.791 1.63 1.17.177 2.374-.248 3.544-.284 1.453 0 3.224-.744 4.358.178.886.708.567 2.161.78 3.26.212 1.027.106 2.09.496 3.011.496 1.134 1.133 2.339 2.161 2.977.85.531 1.984.602 2.976.531.745-.035 1.453-.46 2.197-.673.603-.177 1.276-.78 1.878-.532.177.071.213.32.248.496.284.603.39 1.24.603 1.878.283.78.39 1.737.956 2.374.78.922 1.878 1.808 3.083 1.808 1.17-.036 2.268-.922 3.012-1.808.531-.673.567-1.594.815-2.374.212-.602.319-1.204.531-1.807.071-.106.071-.283.177-.319.142-.106.355-.035.532 0 .602.142 1.134.497 1.7.71.816.283 1.56.779 2.41.85 1.134.07 2.41.035 3.295-.638 1.028-.744 1.524-2.126 1.808-3.366.248-1.028-.071-2.056-.107-3.119-.035-.708-.212-1.452-.106-2.196.035-.178 0-.39.142-.496.283-.248.744-.142 1.098-.142.815.035 1.595.283 2.374.496 1.063.354 2.02 1.205 3.118 1.275.957.036 2.339 0 2.764-.85.46-.85-.283-2.02-.921-2.728-.957-.957-2.48-1.099-3.756-1.488-1.099-.32-2.197-.71-3.33-.71-1.241.036-2.623.107-3.615.851-1.028.78-1.56 2.126-1.843 3.366-.248.993.071 2.056.071 3.083.036.78.638 1.807.071 2.339-.46.425-1.24-.036-1.842-.178-.815-.212-1.524-.779-2.339-.92-1.063-.142-2.232-.249-3.224.212-.957.496-1.595 1.488-2.162 2.41-.39.673-.035 2.16-.815 2.16-.815 0-.425-1.594-.815-2.302-.567-.957-1.169-2.056-2.196-2.445-1.56-.638-3.367.425-5.067.39-.638 0-1.453.247-1.95-.178-.566-.531-.212-1.523-.424-2.267-.603-2.091-.603-4.713-2.304-6.06-1.948-1.559-4.89-.956-7.37-1.027-.92 0-1.807.354-2.693.248-.46-.07-.992-.142-1.275-.496-.177-.177-.213-.46-.248-.744-.071-.744.177-1.488.248-2.232.07-1.028.39-2.056.248-3.048-.213-1.204-.602-2.55-1.56-3.401-1.027-.922-2.55-1.205-3.932-1.311-1.17-.071-2.339.425-3.473.637-.921.142-1.807.497-2.728.497-.425 0-.921 0-1.24-.248-.32-.249-.425-.71-.532-1.099-.177-.85-.035-1.7-.07-2.551-.036-1.134.141-2.303-.142-3.402-.32-1.275-.815-2.657-1.843-3.508-1.027-.885-2.48-1.169-3.827-1.31-1.169-.142-2.338.212-3.507.354-.922.106-1.843.39-2.764.354-.46-.035-1.063 0-1.347-.354-.354-.355-.141-.992-.248-1.453-.319-1.453-.354-3.118-1.31-4.287-.78-.993-2.162-1.418-3.331-1.878-.638-.248-1.276-.355-1.95-.496a1.26 1.26 0 0 0-.354-.071z" fill="#FF5"/><path d="M121.024 124.504a2.153 2.153 0 0 0-1.878 1.382c-.248.78.035 1.736.708 2.232L178 174.004c.673.496 1.665.531 2.374.035l22.748-15.945c.921-.602 1.205-1.948.567-2.834-.602-.886-1.984-1.099-2.835-.46l-21.578 15.13-56.977-44.966a2.082 2.082 0 0 0-1.275-.46z" fill="#FF5"/><path fill="#000" d="M178.07 185.094v63.886l9.745-6.803.319-63.319z"/><path fill="#F55" d="M119.5 139.244l21.012 16.866.283 54.425-21.295-14.492z"/><path d="M140.795 155.189l.603 56.232M146.713 159.405l.283 57.331M173.642 182.118l.283 68.35" stroke="#000" stroke-width="1.984" stroke-linecap="round" stroke-linejoin="round"/><path d="M211.484 226.8l-36.39 24.235" stroke="#55A" stroke-width="1.984" stroke-linecap="round" stroke-linejoin="round"/><path stroke="#000" stroke-width="1.984" stroke-linecap="round" stroke-linejoin="round" d="M173.606 241.114l-26.326-26.858 26.503-25.654-26.787-27.496"/><path stroke="#000" stroke-width="1.984" stroke-linecap="round" stroke-linejoin="round" d="M162.87 172.551l-16.051 16.406 26.787 27.92-15.165 14.174"/><path stroke="#000" stroke-width="1.984" stroke-linecap="round" stroke-linejoin="round" d="M160.035 182.791l-4.925 5.28 4.925 5.81 5.103-5.279zM159.894 210.465l-4.288 4.712 4.855 4.925 4.322-4.606z"/><path stroke="#000" stroke-width="1.984" fill="#000" stroke-linecap="round" stroke-linejoin="round" d="M147.882 169.043l4.89 5.35-5.138 5.422zM173.075 197.07l-5.244 5.458 5.315 5.173zM147.598 197.035l4.82 5.244-4.926 4.536zM173.217 224.567l-4.607 4.748 4.855 4.748z"/><path d="M103.945 100.87c-7.087 3.543-14.173 7.051-21.225 10.63-5.066 2.551-10.204 5.031-15.2 7.76-7.193 3.933-14.35 7.937-21.225 12.401-6.449 4.181-12.472 8.93-18.744 13.43 4.146 5.527 8.185 11.126 12.402 16.618 3.578 4.641 7.476 9.07 10.949 13.783 3.224 4.358 6.13 8.965 9.177 13.43 2.48-.71 4.89-1.737 7.44-2.127 4.997-.744 10.135-.673 15.201-.354 4.04.248 8.044.992 12.012 1.772 4.288.85 8.61 1.736 12.756 3.189 4.252 1.488 8.398 3.472 12.366 5.669 4.536 2.48 8.859 5.421 13.075 8.468 4.536 3.296 9.106 6.626 13.075 10.595 3.862 3.862 6.945 8.433 10.276 12.756 3.614 4.748 6.838 9.815 10.594 14.492 2.551 3.189 5.173 6.342 8.114 9.177 4.075 3.898 8.327 7.618 13.11 10.595 4.394 2.799 9.248 4.89 14.138 6.732 4.677 1.807 9.496 3.543 14.492 4.252 4.89.708 9.886 0 14.847 0-2.729-5.563-5.634-10.984-8.15-16.618-3.118-7.087-6.059-14.244-8.468-21.58a193.1 193.1 0 0 1-5.67-20.87c-1.488-7.228-2.41-14.562-3.189-21.897-.567-5.527-.885-11.09-1.063-16.618-.177-6.13-.035-12.26 0-18.39.071-5.775.142-11.55.355-17.326.248-6.024.708-12.012 1.063-18.036" stroke="#55A" stroke-width="1.984" stroke-linecap="round" stroke-linejoin="round"/><path fill="#FF5" d="M160.921 326.933l-37.878-30.756.284-62.716 3.862-2.658 6.803 6.803 10.347 13.89 8.574 12.118 3.863 4.146 4.712 3.862zM108.835 218.083l-24.839 18.035-2.374-4.748 21.295-16.866z"/><path fill="#FF5" d="M127.189 231.37l-36.106 23.67-2.055-4.713 33.732-22.217z"/><path fill="#F55" d="M113.866 302.98l.319-63.035-23.988 15.697 3.862 17.752 2.658 17.15.602 15.98-.319 8.574z"/><path d="M123.327 228.11l-34.3 22.784s-2.409-6.095-3.543-9.177c-.708-1.843-2.09-5.599-2.09-5.599l25.44-18.354s6.485 2.126 9.178 4.145c2.197 1.63 5.315 6.201 5.315 6.201zM182.996 343.622l-59.244-47.268L97 313.362l.248 13.996-.744 13.252-.496 10.488 27.248-18.496 35.008 28.772 4.5 2.232 2.48 2.268 4.004.496 2.268 3.26 2.976-.78 3.012 3.756h3.012l2.48 2.268z" fill="#000"/><path fill="#000" d="M192.988 379.87l.248-89.008-5.988-2.232-4.996-2.764.248 89.256 3.26.496 3.224 3.26 2.02-.78z"/><path d="M70.992 303.122l-20.232 9.992s-3.898-11.055-6.024-16.512c-2.126-5.456-4.04-11.02-6.732-16.228-1.807-3.508-3.827-6.91-6.272-10.028-2.338-3.011-7.972-8.22-7.972-8.22l.248-78.52s9.886 11.977 13.996 18.496c3.579 5.705 6.307 11.941 9.248 18 3.827 7.937 7.902 15.768 10.984 24.024 2.09 5.528 3.544 11.268 4.996 16.972a243.823 243.823 0 0 1 4.004 18c.815 4.394 1.311 8.859 2.02 13.252.567 3.615 1.736 10.772 1.736 10.772z" stroke="#55A" stroke-width="1.984" fill="#F55" stroke-linecap="round" stroke-linejoin="round"/><path fill="#FF5" d="M67.236 361.87l-27.248-14.74 2.764-10.276-.992-9.992-3.012-6.732 8.008-6.024 13.748-5.988 10.24-4.252.992 9.992v12.012l-.744 13.996-2.232 15.732z"/><path d="M104.512 214.61l-22.748 17.008s-3.969-8.681-6.024-13.004c-1.63-3.437-4.996-10.24-4.996-10.24s11.09-.709 16.512.248c5.988 1.063 17.256 5.988 17.256 5.988z" fill="#55A"/><path fill="#000" d="M1.012 128.614l16.866 14.634-.248 279.744-16.618.106z"/><path d="M235.012 362.756l-.177-66.827 6.91-2.126s11.196 15.626 16.936 23.35c4.181 5.564 8.681 10.914 12.756 16.619.992 1.382 2.835 4.216 2.835 4.216s-11.09 8.079-16.796 11.87a246.714 246.714 0 0 1-12.401 7.583c-3.295 1.878-10.063 5.315-10.063 5.315z" fill="#55A"/><path d="M218.748 370.87l.354-74.232s5.528.283 8.292.177c2.87-.142 8.504-.886 8.504-.886l-.178 66.827s-6.307 3.401-9.531 4.925c-2.445 1.17-7.441 3.19-7.441 3.19z" fill="#000"/><path d="M125.772 447.228c7.05-.106 14.137.107 21.189-.354 5.882-.354 11.728-1.028 17.504-1.913 3.826-.603 7.547-1.56 11.338-2.304.567-4.145 1.205-8.255 1.772-12.366.602-4.677 1.098-9.319 1.736-13.996.496-3.472.78-6.98 1.595-10.417.496-2.055 1.31-4.004 1.948-6.024l2.658-.354c.886.886 1.453 2.303 2.657 2.657 1.595.497 3.473-.07 4.96-.885 2.127-1.134 3.65-3.225 4.926-5.28 1.24-1.984 2.232-4.216 2.48-6.555a9.064 9.064 0 0 0-.708-4.43c-.46-1.027-1.099-2.16-2.126-2.657-.992-.46-2.232 0-3.366 0-.567-.815-.957-1.807-1.737-2.445-1.204-.992-2.834-1.31-4.252-1.948-.78-.886-1.24-2.162-2.303-2.658-.921-.425-2.02 0-3.012 0-.885-.815-1.523-2.02-2.657-2.48-.921-.354-1.984 0-2.976 0-1.028-1.17-1.595-2.906-3.012-3.543-1.028-.426-2.232.141-3.366.177-.886-1.063-1.418-2.587-2.658-3.19-1.027-.46-2.232 0-3.366 0-1.098-.92-2.09-2.054-3.33-2.798-1.453-.886-3.012-1.56-4.607-1.95-1.665-.389-3.437-.673-5.138-.354-1.842.32-3.614 1.205-5.138 2.304-1.665 1.204-3.082 2.834-4.216 4.57-1.595 2.374-2.658 5.067-3.543 7.796-1.595 4.925-2.09 10.098-3.012 15.2-1.17 6.626-2.02 13.323-3.19 19.985-1.133 6.59-2.409 13.216-3.684 19.771-1.099 5.493-2.268 10.985-3.366 16.441z" fill="#FF5"/><path d="M199.012 481.35l-20.02-40.004s-10.17 2.693-15.378 3.544c-8.15 1.31-16.37 2.197-24.626 2.48-9.992.319-20.02-.142-29.976-.992-11.764-1.063-35.008-5.032-35.008-5.032L51.008 481.35h148.004z" stroke="#55A" stroke-width="1.984" fill="#F55" stroke-linecap="round" stroke-linejoin="round"/><path d="M184.165 479.898L169 450.346c-6.484 2.268-11.41 2.339-19.7 3.26l3.897 26.292h5.74l-5.102-22.748c4.748-.32 8.504-.284 12.614-1.914l11.126 24.662h6.59zM144.303 479.898l-3.047-25.3c-10.063.922-18.142 1.489-28.205.461l-5.492 24.839h6.449l3.047-19.807c7.902.46 12.579-.036 19.205-.497l2.232 20.304h5.811zM97.744 479.898l7.335-25.052c-7.37-.637-18.071-1.559-26.079-3.472l-13.713 28.524h6.343l10.382-23.528c4.464 1.205 12.012 1.736 16.476 2.374l-6.236 21.154h5.492z" stroke="#55A" stroke-width="1.984" fill="#55A" stroke-linecap="round" stroke-linejoin="round"/><path d="M125.984 446.378s3.473-16.654 5.032-25.016c1.807-9.957 2.905-20.09 4.996-30.012 1.382-6.732 1.594-13.996 4.996-19.984 2.303-4.11 5.421-8.787 9.992-9.992 4.43-1.17 10.205.177 13.252 3.579 2.551 2.87 3.083 7.795 1.736 11.41-1.417 3.932-5.28 8.326-9.46 8.184-4.359-.142-9.178-4.89-9.248-9.212-.036-3.898 4.18-8.256 8.078-8.504 2.41-.177 5.315 2.126 5.634 4.535.39 2.8-2.161 6.839-4.996 6.803-1.7 0-4.004-1.984-2.94-4.145" stroke="#55A" stroke-width="1.984" stroke-linecap="round" stroke-linejoin="round"/><path d="M131.83 447.193c2.942-8.965 3.686-18.071 5.245-27.177 1.594-9.036 2.02-18.248 4.145-27.177 1.701-7.087 3.615-14.634 6.804-20.764M138.528 447.193c2.232-7.795 2.905-16.051 4.145-24.095 1.205-7.866 1.63-15.874 3.154-23.669 1.098-5.67 1.913-11.338 4.323-16.689M144.48 446.803c1.985-7.44 2.587-15.342 3.685-23.031 1.063-7.512 1.453-15.201 2.8-22.642.992-5.386 1.7-10.843 3.862-15.945M150.291 446.165c1.807-7.086 2.339-14.563 3.331-21.897.957-7.122 1.311-14.386 2.516-21.473.886-5.138 1.523-10.31 3.472-15.13M155.996 445.634c1.772-6.732 2.339-13.854 3.295-20.8.992-6.803 1.311-13.712 2.552-20.444.885-4.89 1.523-9.78 3.472-14.386M162.374 444.748c1.736-6.307 2.126-12.579 3.047-18.85.922-6.343 1.276-12.756 2.48-19.028.851-4.535 1.453-9.106 3.367-13.394M168.54 443.827c1.665-5.74 2.16-11.8 3.047-17.717.885-5.775 1.204-11.657 2.303-17.397.815-4.146 1.417-8.327 3.189-12.26M175.52 441.878c1.417-5.138 1.842-10.205 2.586-15.343.78-5.173 1.028-10.452 1.985-15.59.673-3.72 1.169-7.477 2.692-10.984M155.57 384.157c1.63 1.134 3.084 3.083 5.032 3.154 3.225.106 6.414-2.055 8.504-4.465 2.233-2.586 3.579-6.271 3.331-9.673-.142-2.445-1.346-5.067-3.295-6.555-.957-.709-2.02-.531-3.579-.673" stroke="#55A" stroke-width="1.984" stroke-linecap="round" stroke-linejoin="round"/><path d="M162.055 387.382c1.347 1.488 2.374 2.657 3.969 2.764 3.224.177 6.413-2.055 8.504-4.5 2.232-2.552 3.578-6.237 3.33-9.638-.141-2.445-1.204-5.28-3.295-6.555-.992-.603-1.878-.709-3.472.07" stroke="#55A" stroke-width="1.984" stroke-linecap="round" stroke-linejoin="round"/><path d="M166.945 390.358c1.63 1.099 3.083 3.083 5.031 3.154 3.225.106 6.414-2.055 8.504-4.5 2.233-2.551 3.58-6.236 3.331-9.638-.142-2.445-1.205-5.244-3.295-6.555-.886-.567-1.63-.602-3.19-.071" stroke="#55A" stroke-width="1.984" stroke-linecap="round" stroke-linejoin="round"/><path d="M173.677 393.724c1.24 1.772 2.48 2.658 4.146 2.764 3.189.142 6.413-2.055 8.504-4.5 2.197-2.551 3.543-6.236 3.33-9.638-.177-2.445-1.31-5.137-3.295-6.555-.921-.638-1.63-.85-3.366-.46" stroke="#55A" stroke-width="1.984" stroke-linecap="round" stroke-linejoin="round"/><path d="M179.382 397.09c.602 1.489 2.232 2.516 3.756 2.623 3.189.212 6.413-2.056 8.468-4.465 2.233-2.587 3.579-6.272 3.366-9.673-.177-2.445-1.31-5.103-3.33-6.52-.744-.567-1.17-.248-2.729-.39" stroke="#55A" stroke-width="1.984" stroke-linecap="round" stroke-linejoin="round"/><path d="M185.335 399.677c.602 1.772 1.771 2.374 3.082 2.48 3.19.32 6.414-2.02 8.504-4.464 2.233-2.587 3.437-6.236 3.331-9.638-.035-1.807-.638-3.827-1.984-4.996-1.063-.957-2.551-.992-4.11-1.098M74.217 440.886c.85-10.17 1.452-20.303 2.515-30.437.567-5.528 1.063-11.09 2.02-16.583 1.311-7.264 1.63-14.988 4.996-21.543 2.055-3.969 5.35-7.3 8.858-9.992 3.225-2.48 6.945-4.5 10.914-5.457 4.11-1.028 8.54-1.098 12.72-.248 4.146.886 7.83 3.224 11.551 5.244 4.678 2.516 8.93 5.74 13.394 8.61M128.04 427.492c-3.934 1.134-7.76 2.764-11.8 3.402-2.622.39-5.421.92-7.972.212-1.276-.354-3.579-1.382-3.402-2.161.106-.39.744-.319 1.134-.319 1.488-.035 2.835.921 4.323 1.134 2.161.283 4.394.212 6.59 0 3.756-.39 7.406-1.524 11.126-2.268zM106 419.2c-.46.497-1.736.922-1.346 1.454.46.744 3.295 2.55 5.208 3.295 1.807.708 3.792.992 5.776 1.027 2.055.071 4.145-.248 6.165-.78 1.382-.389 2.48-.991 4.04-1.665M130.2 417.925c-3.33.85-6.59 2.126-9.991 2.516-2.41.283-4.89.354-7.264-.106-1.949-.39-3.862-1.134-5.492-2.197-1.063-.744-1.878-1.772-2.693-2.8 1.63-.708 3.153-1.736 4.89-2.16 2.728-.71 5.598-.993 8.397-.674 2.374.248 4.642 1.17 6.803 2.161 1.914.85 3.544 2.197 5.35 3.26z" stroke="#55A" stroke-width="1.984" stroke-linecap="round" stroke-linejoin="round"/><path d="M121.803 419.413c-.106-1.169.32-2.48-.248-3.508-.673-1.24-2.055-2.055-3.401-2.515-1.028-.32-2.268-.355-3.296 0-.992.39-1.842 1.169-2.374 2.055-.744 1.24-.602 2.8-.921 4.216" stroke="#55A" stroke-width="1.984" stroke-linecap="round" stroke-linejoin="round"/><path d="M118.012 418.598c.319-.354.177-1.027-.071-1.417-.284-.46-.815-.815-1.311-.815-.532-.035-1.063.319-1.311.744-.319.46-.496 1.24-.106 1.63.673.638 2.196.496 2.799-.142h0zM122.122 407.508c-2.374.46-5.705.992-8.398 2.02-2.374.92-4.641 2.692-6.696 3.65" stroke="#55A" stroke-width="1.984" fill="#55A" stroke-linecap="round" stroke-linejoin="round"/><path d="M93.846 424.87c.603-1.488 1.524-2.87 1.843-4.43.567-3.188.142-6.519-.248-9.779-.46-3.968-1.913-7.83-2.587-11.799-.425-2.268-1.452-4.642-.92-6.91.247-1.133 1.097-2.054 1.912-2.834 1.028-.957 2.445-1.453 3.65-2.161M107.134 400.102c1.559-1.7 3.827-2.94 4.677-5.102.39-1.028.46-2.268 0-3.295-.567-1.17-1.7-2.197-2.976-2.48-1.028-.249-2.126.318-3.048.779-1.204.638-1.878 2.055-3.082 2.622-.85.425-1.914.921-2.835.567-.283-.106-.638-.496-.567-.78.32-1.027 1.984-.78 2.941-1.133 1.311-.497 2.587-.922 3.862-1.382" stroke="#55A" stroke-width="1.984" stroke-linecap="round" stroke-linejoin="round"/><path d="M114.681 378.913c-1.594.815-3.862.638-5.775.603-1.985-.036-3.898-.957-5.847-.886-2.232.106-4.287 1.594-6.555 1.594-1.63.036-3.508-.708-4.784-1.063.071-.567.249-1.31 0-1.736 1.63.603 3.969 1.488 5.989 1.24 1.913-.248 3.295-2.445 5.244-2.48 2.232-.07 3.968 2.48 6.236 2.587 2.161.07 4.43-1.63 6.13-2.02-.46.638-.673 1.7-.638 2.161z" stroke="#55A" stroke-width="1.984" fill="#55A" stroke-linecap="round" stroke-linejoin="round"/><path d="M110.748 371.968c-1.594-.673-3.083-1.7-4.783-2.02-1.24-.247-2.587-.212-3.863.036-.85.142-1.63.567-2.445.886-.744.319-1.452.709-2.196 1.028M99.232 366.972c1.17.496 2.268.922 3.437.922.992 0 1.914-.39 2.835-.815" stroke="#55A" stroke-width="1.984" stroke-linecap="round" stroke-linejoin="round"/><path d="M92.713 427.811c-1.56 1.843-4.996 2.303-7.69 2.516-1.984.141-3.932-.39-5.846-.957-1.346-.39-2.657-1.134-3.933-1.736 2.162.425 4.394 1.205 6.626 1.275 1.949.036 3.898-.354 5.811-.78 1.347-.318 2.587-.956 3.791-1.594.497-.283 1.63.815 1.24 1.276z" stroke="#55A" stroke-width="1.984" fill="#55A" stroke-linecap="round" stroke-linejoin="round"/><path d="M93.28 421.008c-1.56.78-2.977 1.842-4.642 2.268-2.339.673-4.89.992-7.264.566-1.594-.283-2.94-1.346-4.43-1.984M94.307 417.713c-1.7.673-3.791 1.204-5.705 1.452-2.232.284-4.535.355-6.767.071-1.311-.177-2.693-.425-3.863-1.098-.708-.425-1.169-1.205-1.771-1.807l.354-2.729c1.17-.425 2.339-1.027 3.579-1.24 1.665-.319 3.437-.319 5.138-.212 1.842.106 3.72.212 5.456.885 1.311.532 2.48 1.418 3.58 2.339.353.319.637.673.956 1.028-.32.425-.46 1.098-.957 1.31h0z" stroke="#55A" stroke-width="1.984" stroke-linecap="round" stroke-linejoin="round"/><path d="M89.913 418.457c-.07-1.17.32-2.48-.248-3.508-.673-1.24-2.055-2.09-3.401-2.516-1.028-.354-2.268-.39-3.295 0-.957.354-1.843 1.134-2.375 2.055-.744 1.205-.602 2.8-.92 4.181" stroke="#55A" stroke-width="1.984" stroke-linecap="round" stroke-linejoin="round"/><path d="M86.44 417.606c.32-.354.178-.992-.07-1.417-.283-.425-.815-.78-1.311-.815-.531 0-1.063.319-1.311.744-.319.46-.496 1.276-.106 1.665.673.603 2.161.497 2.799-.177h0z" stroke="#55A" stroke-width="1.984" fill="#55A" stroke-linecap="round" stroke-linejoin="round"/><path d="M93.492 412.291c-1.275-1.382-2.303-3.011-3.791-4.18-1.205-.922-2.658-1.418-4.004-2.127" stroke="#55A" stroke-width="1.984" stroke-linecap="round" stroke-linejoin="round"/><path d="M77.44 402.76c-.672-2.906-1.38-4.855-2.621-7.016-1.276-2.126-2.728-4.252-4.784-5.634-1.63-1.063-3.614-1.913-5.563-1.736-1.771.142-3.65.992-4.748 2.41-1.098 1.417-1.275 3.472-1.169 5.279.106 1.63.567 3.402 1.665 4.642.957 1.134 2.41 1.913 3.863 2.055 1.027.106 2.197-.071 2.94-.78.568-.531.78-1.452.78-2.232-.035-.85.071-1.736-.992-2.339.78.32 1.311 1.311 1.878 2.056.744 1.063 1.382 2.267 1.913 3.507.638 1.382 1.063 2.87 1.489 4.359.531 2.02.92 4.11 1.346 6.13a982.143 982.143 0 0 1 2.055 9.637c.567-5.527 1.347-14.775 1.949-20.338z" stroke="#55A" stroke-width="1.984" fill="#FF5" stroke-linecap="round" stroke-linejoin="round"/><path d="M80.17 382.776c-.639-2.906-2.587-8.575-4.855-12.367-1.276-2.126-2.8-4.18-4.784-5.633-1.594-1.17-3.472-2.48-5.456-2.339-1.878.142-3.756 1.453-4.855 3.012-1.027 1.453-1.275 3.472-1.169 5.244.106 1.665.567 3.437 1.666 4.677a6.288 6.288 0 0 0 3.897 2.055c.992.106 2.162-.106 2.906-.78.567-.53.815-1.452.78-2.232-.072-.815-.036-1.559-1.064-2.161.78.319 1.382 1.134 1.949 1.842.815 1.063 1.382 2.304 1.949 3.508.602 1.418.992 2.941 1.453 4.394.531 1.736 1.027 3.508 1.559 5.244 1.169 4.11 2.976 9.709 3.508 12.26.566-5.528 1.948-11.161 2.515-16.724z" stroke="#55A" stroke-width="1.984" fill="#FF5" stroke-linecap="round" stroke-linejoin="round"/><path d="M82.402 374.945s-.922-2.87-1.56-4.217c-.744-1.523-2.622-4.358-2.622-4.358s-3.224-1.453-4.89-2.055c-1.558-.567-4.747-1.453-4.747-1.453s3.685 2.87 5.137 4.677c1.276 1.56 2.162 3.402 3.048 5.244.815 1.772 1.382 3.685 2.02 5.563.566 1.666 1.558 5.067 1.558 5.067s.567-3.33.993-4.996c.283-1.169 1.063-3.472 1.063-3.472z" stroke="#55A" stroke-width="1.984" fill="#FF5" stroke-linecap="round" stroke-linejoin="round"/><path stroke="#55A" stroke-width="1.984" fill="#FF5" stroke-linecap="round" stroke-linejoin="round" d="M78.22 366.37l6.804 3.898-2.622 4.748zM148.59 362.154l-24.909-20.693-28.063 18.46.673-8.964 27.036-18.603 35.114 28.985c-2.835-.957-6.59-.815-9.85.815z"/><path stroke="#55A" stroke-width="1.984" stroke-linecap="round" stroke-linejoin="round" d="M218.748 352.835l-9.354-10.595 9.177-9.709"/><path stroke="#55A" stroke-width="1.984" stroke-linecap="round" stroke-linejoin="round" d="M218.394 346.421l-3.366-3.897 3.366-3.508"/><path d="M205.496 364.846l9.354-9.708-9-9.886-9.106 9.886 8.752 9.708zm.177-4.18l-5.35-4.997 5.35-5.882 5.173 5.174-5.173 5.704z" stroke="#55A" stroke-width="1.984" fill="#55A" fill-rule="nonzero" stroke-linecap="round" stroke-linejoin="round"/><path stroke="#55A" stroke-width="1.984" fill="#FF5" stroke-linecap="round" stroke-linejoin="round" d="M1.012 459.346l37.984-36H1.012z"/><path stroke="#55A" stroke-width="1.984" fill="#F55" stroke-linecap="round" stroke-linejoin="round" d="M1.012 451.374l22.996-22.004H1.012z"/><path stroke="#55A" stroke-width="1.984" stroke-linecap="round" stroke-linejoin="round" d="M219.315 327.252l-9.354-10.63 9.177-9.709"/><path stroke="#55A" stroke-width="1.984" stroke-linecap="round" stroke-linejoin="round" d="M218.96 320.803l-3.366-3.862 3.367-3.543M193.839 351.736l9.177-9.85-9.177-9.709"/><path stroke="#55A" stroke-width="1.984" stroke-linecap="round" stroke-linejoin="round" d="M194.016 346.067l3.366-3.898-3.366-3.508M194.547 307.693l8.61 9.283-9.177 9.709"/><path stroke="#55A" stroke-width="1.984" stroke-linecap="round" stroke-linejoin="round" d="M194.157 312.795l3.331 3.862-3.33 3.544"/><path d="M206.488 339.087l9.355-9.71-9-9.885-9.497 10.063 9.142 9.532zm.177-4.182l-5.35-4.996 5.35-5.881 5.174 5.173-5.174 5.704zM206.098 313.717l9.32-9.71-9-9.566-9.674 9.354 9.354 9.922zm.142-4.182l-5.35-4.996 5.35-5.882 5.209 5.138-5.209 5.74z" stroke="#55A" stroke-width="1.984" fill="#55A" fill-rule="nonzero" stroke-linecap="round" stroke-linejoin="round"/><path stroke="#55A" stroke-width="1.984" stroke-linecap="round" stroke-linejoin="round" d="M193.626 359.07l8.398 9.072-7.831 8.397"/><path stroke="#55A" stroke-width="1.984" stroke-linecap="round" stroke-linejoin="round" d="M193.768 364.35l3.366 3.508-2.764 3.331M218.358 357.157l-9.956 10.418 5.74 6.059"/><path stroke="#55A" stroke-width="1.984" stroke-linecap="round" stroke-linejoin="round" d="M218.004 363.57l-3.366 3.898 3.366 3.544"/><path d="M219.244 301.067l-3.862-4.606M193.52 301.28l7.086-7.3M218.854 370.587l.674-74.126M193.307 379.622l.213-88.902" stroke="#55A" stroke-width="1.984" fill="#F55" stroke-linecap="round" stroke-linejoin="round"/><path stroke="#55A" stroke-width="1.984" fill="#55A" stroke-linecap="round" stroke-linejoin="round" d="M209.819 375.193l-4.394-4.394-8.468 8.433 1.346 2.303z"/><path stroke="#55A" stroke-width="1.984" fill="#FF5" stroke-linecap="round" stroke-linejoin="round" d="M24.008 423.346v-70.972l-6.024-2.02v72.992zM17.984 143.354v202.004h6.024V141.37L1.012 121.35v7.016z"/><path d="M9.516 421.362c1.169 0 2.48-1.31 2.48-2.516 0-1.169-1.311-2.48-2.48-2.48-1.205 0-2.516 1.311-2.516 2.48 0 1.205 1.311 2.516 2.516 2.516zM9.516 407.366c1.169 0 2.48-1.31 2.48-2.516 0-1.169-1.311-2.48-2.48-2.48-1.205 0-2.516 1.311-2.516 2.48 0 1.205 1.311 2.516 2.516 2.516zM6.504 414.346c1.17 0 2.48-1.31 2.48-2.48s-1.31-2.516-2.48-2.516-2.516 1.347-2.516 2.516c0 1.17 1.347 2.48 2.516 2.48zM12.492 414.346c1.17 0 2.516-1.31 2.516-2.48s-1.347-2.516-2.516-2.516c-1.17 0-2.48 1.347-2.48 2.516 0 1.17 1.31 2.48 2.48 2.48zM9.339 372.606c1.204 0 2.515-1.31 2.515-2.515 0-1.17-1.31-2.48-2.515-2.48-1.17 0-2.48 1.31-2.48 2.48 0 1.204 1.31 2.515 2.48 2.515zM9.339 358.61c1.204 0 2.515-1.346 2.515-2.516 0-1.169-1.31-2.48-2.515-2.48-1.17 0-2.48 1.311-2.48 2.48 0 1.17 1.31 2.516 2.48 2.516zM6.362 365.59c1.17 0 2.48-1.31 2.48-2.48 0-1.205-1.31-2.516-2.48-2.516-1.205 0-2.516 1.311-2.516 2.516 0 1.17 1.311 2.48 2.516 2.48zM12.35 365.59c1.17 0 2.516-1.31 2.516-2.48 0-1.205-1.346-2.516-2.516-2.516-1.169 0-2.515 1.311-2.515 2.516 0 1.17 1.346 2.48 2.515 2.48zM9.551 323.815c1.17 0 2.48-1.311 2.48-2.48 0-1.205-1.31-2.516-2.48-2.516s-2.516 1.31-2.516 2.516c0 1.169 1.347 2.48 2.516 2.48zM9.551 309.819c1.17 0 2.48-1.311 2.48-2.48 0-1.205-1.31-2.516-2.48-2.516s-2.516 1.31-2.516 2.516c0 1.169 1.347 2.48 2.516 2.48zM6.54 316.835c1.169 0 2.515-1.347 2.515-2.516 0-1.17-1.346-2.48-2.516-2.48-1.169 0-2.48 1.31-2.48 2.48s1.311 2.516 2.48 2.516zM12.528 316.835c1.204 0 2.515-1.347 2.515-2.516 0-1.17-1.31-2.48-2.515-2.48-1.17 0-2.48 1.31-2.48 2.48s1.31 2.516 2.48 2.516zM9.728 274.28c1.17 0 2.516-1.312 2.516-2.48 0-1.206-1.346-2.517-2.516-2.517-1.169 0-2.48 1.311-2.48 2.516 0 1.17 1.311 2.48 2.48 2.48zM9.728 260.283c1.17 0 2.516-1.31 2.516-2.515 0-1.17-1.346-2.48-2.516-2.48-1.169 0-2.48 1.31-2.48 2.48 0 1.204 1.311 2.515 2.48 2.515zM6.752 267.3c1.17 0 2.48-1.347 2.48-2.517 0-1.169-1.31-2.515-2.48-2.515-1.205 0-2.516 1.346-2.516 2.515 0 1.17 1.311 2.516 2.516 2.516zM12.74 267.3c1.17 0 2.48-1.347 2.48-2.517 0-1.169-1.31-2.515-2.48-2.515s-2.516 1.346-2.516 2.515c0 1.17 1.347 2.516 2.516 2.516zM9.728 225.878c1.17 0 2.516-1.311 2.516-2.48 0-1.17-1.346-2.516-2.516-2.516-1.169 0-2.48 1.346-2.48 2.516 0 1.169 1.311 2.48 2.48 2.48zM9.728 211.882c1.17 0 2.516-1.311 2.516-2.48 0-1.205-1.346-2.516-2.516-2.516-1.169 0-2.48 1.31-2.48 2.516 0 1.169 1.311 2.48 2.48 2.48zM6.752 218.898c1.17 0 2.48-1.311 2.48-2.516 0-1.17-1.31-2.48-2.48-2.48-1.205 0-2.516 1.31-2.516 2.48 0 1.205 1.311 2.516 2.516 2.516zM12.74 218.898c1.17 0 2.48-1.311 2.48-2.516 0-1.17-1.31-2.48-2.48-2.48s-2.516 1.31-2.516 2.48c0 1.205 1.347 2.516 2.516 2.516zM10.295 177.3c1.205 0 2.516-1.312 2.516-2.481 0-1.205-1.311-2.516-2.516-2.516-1.169 0-2.48 1.311-2.48 2.516 0 1.17 1.311 2.48 2.48 2.48zM10.295 163.303c1.205 0 2.516-1.31 2.516-2.48 0-1.205-1.311-2.516-2.516-2.516-1.169 0-2.48 1.311-2.48 2.516 0 1.17 1.311 2.48 2.48 2.48zM7.319 170.319c1.17 0 2.48-1.347 2.48-2.516 0-1.17-1.31-2.48-2.48-2.48s-2.516 1.31-2.516 2.48 1.347 2.516 2.516 2.516zM13.307 170.319c1.17 0 2.516-1.347 2.516-2.516 0-1.17-1.347-2.48-2.516-2.48-1.17 0-2.48 1.31-2.48 2.48s1.31 2.516 2.48 2.516zM16 384.37v4.996L2.996 401.378v-5.032zM16 376.362v4.996L2.996 393.37v-4.996zM16 334.374v4.996L2.996 351.346v-4.996zM16 326.366v4.996L2.996 343.374v-4.996zM16 284.378v4.996L2.996 301.35v-4.996zM16 276.37v4.996L2.996 293.378v-5.032zM16 236.366v4.996L2.996 253.374v-4.996zM16 228.358v4.996L2.996 245.366v-4.996zM16 189.346v5.032L2.996 206.354v-4.996zM16 181.374v4.996L2.996 198.346v-4.996zM15.858 143.106l.142 1.24-13.004 12.012v-4.996l9.992-9.886zM9.232 137.862l2.41 1.984-8.646 8.504v-4.996z" fill="#FF5"/><path d="M83.5 340.398l9.354-9.744-9-9.886-9.673 9.708 9.319 9.922zm.177-4.217l-5.35-4.996 5.35-5.846 5.173 5.137-5.173 5.705zM79.78 367.894l10.523-8.469-7.689-10.949-10.807 8.398 7.973 11.02zm.673-4.146l-4.642-5.634 6.06-5.138 4.464 5.776-5.882 4.996zM83.854 314.531l8.256-9.92-10.027-8.221-8.363 9.921 10.134 8.22zm-.283-3.897l-5.847-4.075 4.678-5.953 5.704 4.252-4.535 5.776zM81.41 291.146l7.83-10.985-10.346-8.504-8.185 11.02 10.7 8.469zm-.461-4.181l-6.024-4.146 4.43-6.59 5.881 4.322-4.287 6.414zM77.228 265.35l6.024-12.047-11.516-6.803-6.378 12.154 11.87 6.696zm-1.098-4.039l-6.59-3.189 3.366-7.193 6.484 3.366-3.26 7.016zM69.965 239.945l4.89-12.579-12.119-5.67-5.208 12.686 12.437 5.563zm-1.489-3.933l-6.838-2.551 2.657-7.477 6.768 2.729-2.587 7.299zM59.228 214.291l2.41-13.252-12.969-3.295-2.693 13.43 13.252 3.117zm-2.197-3.578l-7.228-1.205 1.24-7.83 7.158 1.416-1.17 7.619zM45.764 190.587l1.275-13.43-13.216-2.161-1.524 13.642 13.465 1.949zm-2.48-3.402l-7.3-.567.532-7.937 7.264.815-.497 7.689z" stroke="#55A" stroke-width="1.984" fill="#55A" fill-rule="nonzero" stroke-linecap="round" stroke-linejoin="round"/><path stroke="#55A" stroke-width="1.984" stroke-linecap="round" stroke-linejoin="round" d="M69.752 352.587l10.205-8.185-8.079-9.993"/><path stroke="#55A" stroke-width="1.984" stroke-linecap="round" stroke-linejoin="round" d="M70.531 347.378l3.756-3.295-2.94-3.615M68.512 361.87s1.453-12.33 1.984-18.496c.744-8.575 1.843-17.15 1.736-25.76-.07-7.547-1.027-15.023-1.984-22.5-1.028-7.972-2.197-15.91-4.004-23.74a225.376 225.376 0 0 0-7.512-25.76c-2.693-7.583-5.917-15.023-9.496-22.252a242.053 242.053 0 0 0-12.72-22.748C32.972 195.016 25 184.35 25 184.35M95.972 335.224l-10.63 11.339 9.497 11.41"/><path stroke="#55A" stroke-width="1.984" stroke-linecap="round" stroke-linejoin="round" d="M95.547 341.744l-4.535 4.748 4.18 5.173M72.48 326.791l8.54-8.22-7.902-8.681"/><path stroke="#55A" stroke-width="1.984" stroke-linecap="round" stroke-linejoin="round" d="M72.8 321.937l3.153-3.26-2.906-3.153M96.93 305.319l-10.241 11.693 9.85 11.09"/><path stroke="#55A" stroke-width="1.984" stroke-linecap="round" stroke-linejoin="round" d="M96.717 311.839l-4.359 4.925 4.359 4.996M94.165 280.02l-8.964 12.685 10.913 10.027"/><path stroke="#55A" stroke-width="1.984" stroke-linecap="round" stroke-linejoin="round" d="M94.626 286.54l-3.827 5.314 4.855 4.571M89.417 254.685l-7.44 13.642 12.047 8.68"/><path stroke="#55A" stroke-width="1.984" stroke-linecap="round" stroke-linejoin="round" d="M90.622 261.098l-3.189 5.74 5.35 3.97M79 228.606l-5.315 14.634 13.181 6.768"/><path stroke="#55A" stroke-width="1.984" stroke-linecap="round" stroke-linejoin="round" d="M81.161 234.772l-2.303 6.165 5.882 3.118M66.457 202.138l-3.544 15.165 13.926 5.138"/><path stroke="#55A" stroke-width="1.984" stroke-linecap="round" stroke-linejoin="round" d="M69.327 208.02l-1.524 6.378 6.2 2.374"/><path stroke="#55A" stroke-width="2.055" stroke-linecap="round" stroke-linejoin="round" d="M51.681 178.008l-2.02 15.413 13.217 3.898"/><path stroke="#55A" stroke-width="2.055" stroke-linecap="round" stroke-linejoin="round" d="M54.835 183.606l-.922 6.485 5.918 1.842M33.787 154.657l.744 16.052 13.678 1.488"/><path stroke="#55A" stroke-width="2.055" stroke-linecap="round" stroke-linejoin="round" d="M37.862 160.291l.248 6.485 6.13.744"/><path d="M70.248 207.63c-4.004-6.697-7.795-13.465-12.012-20.02-5.386-8.433-10.878-16.795-16.972-24.732-5.173-6.732-11.02-12.862-16.512-19.276M30.244 151.114l-5.74-.744" stroke="#55A" stroke-width="1.984" stroke-linecap="round" stroke-linejoin="round"/><path stroke="#55A" stroke-width="1.984" fill="#55A" stroke-linecap="round" stroke-linejoin="round" d="M24.752 154.374l5.492 1.24-.496 14.492-4.996-1.24z"/><path stroke="#55A" stroke-width="1.984" stroke-linecap="round" stroke-linejoin="round" d="M28.756 188.106l.992-13.004-4.996-1.24M71.311 303.547l7.476-9.283-8.964-7.583"/><path stroke="#55A" stroke-width="1.984" stroke-linecap="round" stroke-linejoin="round" d="M71.028 298.657l2.728-3.65-3.26-2.763M69.008 278.921l5.74-10.382-10.098-5.952"/><path stroke="#55A" stroke-width="1.984" stroke-linecap="round" stroke-linejoin="round" d="M67.874 274.173l2.055-4.04-3.685-2.16M62.488 254.579l4.855-10.843-10.56-5.102"/><path stroke="#55A" stroke-width="1.984" stroke-linecap="round" stroke-linejoin="round" d="M60.965 249.902l1.7-4.182-3.862-1.842M54.303 230.13l2.906-11.516-11.303-3.189"/><path stroke="#55A" stroke-width="1.984" stroke-linecap="round" stroke-linejoin="round" d="M52 225.807l.957-4.43-4.146-1.133M42.327 207.098l1.559-11.799-11.587-1.842"/><path stroke="#55A" stroke-width="1.984" stroke-linecap="round" stroke-linejoin="round" d="M39.528 203.059l.425-4.5-4.217-.673"/><path d="M50.016 312.866c-3.19-8.752-5.811-17.716-9.532-26.256-2.338-5.386-4.606-10.913-7.972-15.732-2.232-3.189-5.35-5.67-8.008-8.504l.248 13.996 4.5-.992-2.516 6.236 5.776.248-3.508 4.252 5.244.496-3.26 4.5 5.776.248-4.004 4.996 6.484.496-3.756 4.996 5.776.532-3.508 4.748 4.996.744-3.26 5.492 7.016.248 3.508-.744z" stroke="#55A" stroke-width="1.984" fill="#55A" stroke-linecap="round" stroke-linejoin="round"/><path d="M38.996 347.13c-2.339 2.516-6.2 3.153-9.496 4.181-1.772.531-3.65 1.098-5.492.992-2.09-.106-4.288-.531-6.024-1.736-.921-.673-1.913-1.63-1.984-2.764-.07-.85.602-1.7 1.24-2.232.603-.496 1.488-.567 2.268-.744 1.24-.355 2.622-.142 3.756-.744 1.027-.567 1.984-1.453 2.41-2.552.53-1.24.354-2.763.106-4.11-.284-1.523-1.099-3.118-1.772-4.287l.248-14.28c2.835-.319 5.81-1.24 8.752-.992 1.736.142 3.685.355 4.996 1.488 2.374 2.126 3.012 5.67 3.756 8.752.709 3.19.957 6.555.496 9.744-.46 3.26-1.028 6.874-3.26 9.284zM70.248 303.866c-4.5 1.843-8.079 3.366-12.012 5.244-3.366 1.63-6.697 3.437-9.992 5.244-3.118 1.701-6.732 3.58-9.248 5.244M68.76 362.118c-5.421-2.587-10.914-5.067-16.264-7.76-4.287-2.161-8.504-4.5-12.756-6.732" stroke="#55A" stroke-width="1.984" fill="#FFF" stroke-linecap="round" stroke-linejoin="round"/><path d="M44.488 349.858s2.303-7.228 2.764-10.984c.46-3.827.602-7.724 0-11.516-.567-3.366-3.26-9.744-3.26-9.744l12.756-7.264-5.492 9 5.988 6.024-6.484 7.228 5.988 8.256-5.244 4.252 3.26 9.992-10.276-5.244z" stroke="#55A" stroke-width="1.984" fill="#FFF" stroke-linecap="round" stroke-linejoin="round"/><path stroke="#55A" stroke-width="1.984" stroke-linecap="round" stroke-linejoin="round" d="M66.988 360.098l-7.476-12.224 6.484-6.272-6.236-8.504 6.484-7.972-5.74-5.776 6.98-13.5"/><path stroke="#55A" stroke-width="1.984" stroke-linecap="round" stroke-linejoin="round" d="M68.512 353.614l-2.516-4.004 3.756-3.012M70.496 336.606l-3.012-3.756 3.26-4.252M71.24 322.114l-3.224-4.5 3.224-4.996"/><path d="M64.26 297.63l-11.268 5.492s-3.401-11.445-5.492-17.008c-1.772-4.748-3.472-9.602-5.988-13.996-2.941-5.067-10.524-13.996-10.524-13.996v-52.264s9.886 15.697 13.996 23.988c4.252 8.575 8.044 17.434 11.02 26.504 2.48 7.583 4.252 15.414 5.74 23.28 1.134 5.917 2.516 18 2.516 18zM66.315 454.846s-.673-7.299-2.303-10.488c-1.595-3.082-4.181-5.74-7.016-7.76-2.445-1.736-5.315-2.905-8.256-3.472-2.445-.496-4.996-.248-7.476 0-1.701.142-5.032.992-5.032.992s3.225 1.028 4.252 2.232c2.233 2.552 2.551 6.272 3.508 9.496.957 3.225 1.17 6.626 2.268 9.78 1.098 3.189 2.09 6.626 4.252 9.248 1.17 1.417 2.764 2.551 4.5 3.224 1.027.426 3.295.532 3.295.532l8.008-13.784z" stroke="#55A" stroke-width="1.984" fill="#FF5" stroke-linecap="round" stroke-linejoin="round"/><path d="M61.496 461.898c-1.205-3.969-2.232-7.796-4.252-11.268-1.7-3.012-4.11-5.528-6.484-8.008-1.56-1.63-3.33-3.012-4.996-4.5" stroke="#55A" stroke-width="1.984" stroke-linecap="round" stroke-linejoin="round"/><path d="M52.886 458.744c1.771-.957 5.705-.106 7.653.284 1.347-2.658 2.445-4.713 2.339-7.193M51.291 454.209c1.772-.957 5.103-.674 7.052-.284 1.346-2.657 2.444-5.244 2.338-7.724M49.024 448.043c1.807-.956 4.358-.248 6.307.142 1.346-2.657 1.063-5.067.956-7.547M46.437 443.543c1.772-.992 2.906-.07 4.854.32 1.347-2.658.638-3.686.532-6.166M61 462.996c-1.772-.283-3.543-.425-5.315.354" stroke="#55A" stroke-width="1.984" stroke-linecap="round" stroke-linejoin="round"/><path d="M181.083 369.772c.85-.32 1.948-.886 2.055-1.807.106-.886-.886-1.666-1.63-2.162-.425-.283-1.028-.248-1.524-.425-.531-.177-1.24-.248-1.594-.744-.355-.496-.107-1.24-.248-1.843-.425-1.488-.603-3.26-1.736-4.287-.993-.957-2.516-1.134-3.863-1.276-1.169-.106-2.338.284-3.472.426-.921.106-1.807.39-2.728.318-.461-.07-.957-.106-1.311-.39-.32-.283-.426-.743-.497-1.133-.212-.85-.07-1.736-.106-2.622-.035-1.134.177-2.303-.106-3.366-.355-1.276-.886-2.658-1.914-3.473-1.098-.85-2.622-1.098-4.003-1.17-1.17-.035-2.304.426-3.473.639-.886.177-1.736.531-2.657.496-.39 0-.85 0-1.134-.284-.177-.141-.177-.46-.213-.673-.07-.744.142-1.453.213-2.197.07-.992.425-2.02.248-3.012-.177-1.204-.532-2.55-1.382-3.437-.957-.956-2.445-1.382-3.791-1.63-1.17-.177-2.374.248-3.544.284-1.453 0-3.224.744-4.358-.177-.886-.709-.567-2.162-.78-3.26-.212-1.028-.106-2.09-.496-3.012-.496-1.134-1.133-2.338-2.161-2.976-.85-.532-1.984-.603-2.976-.532-.745.036-1.453.46-2.197.673-.603.178-1.276.78-1.878.532-.177-.071-.213-.319-.248-.496-.284-.602-.39-1.24-.603-1.878-.283-.78-.39-1.736-.956-2.374-.78-.921-1.878-1.807-3.083-1.807-1.17.035-2.268.921-3.012 1.807-.531.673-.567 1.594-.815 2.374-.212.602-.319 1.205-.531 1.807-.071.106-.071.283-.177.319-.142.106-.355.035-.532 0-.602-.142-1.134-.496-1.7-.709-.816-.283-1.56-.78-2.41-.85-1.134-.071-2.41-.036-3.295.638-1.028.744-1.524 2.126-1.808 3.366-.248 1.027.071 2.055.107 3.118.035.709.212 1.453.106 2.197-.035.177 0 .39-.142.496-.283.248-.744.142-1.098.142-.815-.036-1.595-.284-2.374-.497-1.063-.354-2.02-1.204-3.118-1.275-.957-.035-2.339 0-2.764.85-.46.85.283 2.02.921 2.729.957.956 2.48 1.098 3.756 1.488 1.099.319 2.197.708 3.33.708 1.241-.035 2.623-.106 3.615-.85 1.028-.78 1.56-2.126 1.843-3.366.248-.992-.071-2.055-.071-3.083-.036-.78-.638-1.807-.071-2.338.46-.426 1.24.035 1.842.177.815.212 1.524.78 2.339.921 1.063.142 2.232.248 3.224-.212.957-.497 1.595-1.489 2.162-2.41.39-.673.035-2.161.815-2.161.815 0 .425 1.594.815 2.303.567.956 1.169 2.055 2.196 2.445 1.56.637 3.367-.426 5.067-.39.638 0 1.453-.248 1.95.177.566.532.212 1.524.424 2.268.603 2.09.603 4.712 2.304 6.059 1.948 1.559 4.89.957 7.37 1.027.92 0 1.807-.354 2.693-.248.46.071.992.142 1.275.496.177.178.213.461.248.745.071.744-.177 1.488-.248 2.232-.07 1.027-.39 2.055-.248 3.047.213 1.205.602 2.551 1.56 3.402 1.027.92 2.55 1.204 3.932 1.31 1.17.072 2.339-.425 3.473-.637.921-.142 1.807-.496 2.728-.496.425 0 .921 0 1.24.248.32.248.425.709.532 1.098.177.85.035 1.701.07 2.551.036 1.134-.141 2.304.142 3.402.32 1.276.815 2.658 1.843 3.508 1.027.886 2.48 1.17 3.827 1.31 1.169.143 2.338-.212 3.507-.353.922-.107 1.843-.39 2.764-.355.46.036 1.063 0 1.347.355.354.354.141.992.248 1.452.319 1.453.354 3.118 1.31 4.288.78.992 2.162 1.417 3.331 1.878.638.248 1.276.354 1.95.496.106.035.247.07.354.07z" fill="#FF5"/><path d="M180.976 358.22a2.153 2.153 0 0 0 1.878-1.381c.248-.78-.035-1.737-.708-2.233L124 308.72c-.673-.496-1.665-.531-2.374-.035L98.878 324.63c-.921.602-1.205 1.949-.567 2.835.602.885 1.984 1.098 2.835.46l21.578-15.13 56.977 44.965c.354.283.815.46 1.275.46z" fill="#FF5"/><path fill="#000" d="M123.93 297.63v-63.886l-9.745 6.803-.319 63.32z"/><path fill="#F55" d="M182.5 343.48l-21.012-16.866-.283-54.425 21.295 14.492z"/><path d="M161.205 327.535l-.603-56.232M155.287 323.319l-.283-57.33M128.358 300.606l-.283-68.35" stroke="#000" stroke-width="1.984" stroke-linecap="round" stroke-linejoin="round"/><path d="M90.516 255.925l36.39-24.236" stroke="#55A" stroke-width="1.984" stroke-linecap="round" stroke-linejoin="round"/><path stroke="#000" stroke-width="1.984" stroke-linecap="round" stroke-linejoin="round" d="M128.394 241.61l26.326 26.858-26.503 25.654 26.787 27.496"/><path stroke="#000" stroke-width="1.984" stroke-linecap="round" stroke-linejoin="round" d="M139.13 310.173l16.051-16.405-26.787-27.922 15.165-14.173"/><path stroke="#000" stroke-width="1.984" stroke-linecap="round" stroke-linejoin="round" d="M141.965 299.933l4.925-5.28-4.925-5.81-5.103 5.279zM142.106 272.26l4.288-4.713-4.855-4.925-4.322 4.606z"/><path stroke="#000" stroke-width="1.984" fill="#000" stroke-linecap="round" stroke-linejoin="round" d="M154.118 313.681l-4.89-5.35 5.138-5.422zM128.925 285.654l5.244-5.457-5.315-5.173zM154.402 285.689l-4.82-5.244 4.926-4.536zM128.783 258.157l4.607-4.748-4.855-4.748z"/><path d="M198.055 381.854c7.087-3.543 14.173-7.05 21.225-10.63 5.066-2.55 10.204-5.031 15.2-7.76 7.193-3.933 14.35-7.936 21.225-12.401 6.449-4.181 12.472-8.93 18.744-13.43-4.146-5.527-8.185-11.125-12.402-16.617-3.579-4.642-7.476-9.071-10.949-13.784-3.224-4.358-6.13-8.964-9.177-13.429-2.48.709-4.89 1.736-7.44 2.126-4.997.744-10.135.673-15.201.354-4.04-.248-8.044-.992-12.012-1.771-4.288-.85-8.61-1.736-12.756-3.19-4.252-1.487-8.398-3.472-12.366-5.668-4.536-2.48-8.859-5.422-13.075-8.469-4.536-3.295-9.106-6.626-13.075-10.594-3.862-3.863-6.945-8.434-10.276-12.756-3.614-4.748-6.838-9.815-10.594-14.493-2.551-3.188-5.173-6.342-8.114-9.177-4.075-3.897-8.327-7.618-13.11-10.594-4.394-2.8-9.248-4.89-14.138-6.732-4.677-1.808-9.496-3.544-14.492-4.252-4.89-.71-9.886 0-14.847 0 2.729 5.563 5.634 10.984 8.15 16.618 3.118 7.086 6.059 14.244 8.468 21.578a193.1 193.1 0 0 1 5.67 20.87c1.488 7.229 2.41 14.564 3.189 21.898.567 5.528.885 11.09 1.063 16.618.177 6.13.035 12.26 0 18.39-.071 5.776-.142 11.551-.355 17.327-.248 6.023-.708 12.012-1.063 18.035" stroke="#55A" stroke-width="1.984" stroke-linecap="round" stroke-linejoin="round"/><path d="M158.937 240.83c-.673.072-1.417.674-2.835 1.701l-3.118 2.197-3.082 2.233c-3.863 2.303-2.8 2.586-.178 5.74l2.941 3.543 2.906 3.508c2.693 3.614 2.551 3.862 5.705.957l2.834-2.587 2.835-2.587c3.33-2.586 2.657-2.763.142-5.775l-2.622-3.154-2.658-3.153c-1.382-1.914-2.02-2.693-2.87-2.622zm-.531 5.528c.673 0 1.452.248 1.948.744.32.355.426.886.426 1.347 0 .212-.284.496-.107.673.142.142.39-.177.603-.177.496.035 1.027.142 1.381.496.497.46.745 1.24.745 1.913 0 .709-.248 1.453-.745 1.95-.354.318-.885.389-1.381.424-.213.036-.461-.283-.603-.106-.177.142.107.39.107.602 0 .496-.107 1.028-.426 1.382-.496.496-1.275.744-1.948.744-.674 0-1.453-.248-1.95-.744-.318-.354-.424-.886-.46-1.382 0-.212.319-.46.177-.602-.177-.177-.46.142-.673.106-.496-.035-.992-.106-1.346-.425-.497-.496-.745-1.24-.745-1.949 0-.673.248-1.452.745-1.913.354-.354.85-.46 1.346-.496.213 0 .496.319.673.177.142-.177-.177-.46-.177-.673.035-.46.142-.992.46-1.347.497-.496 1.276-.744 1.95-.744zM172.437 256.598c-.638.142-1.311.886-2.516 2.126l-2.693 2.693-2.657 2.693c-3.473 2.941-2.339 3.047.744 5.705l3.508 3.012 3.437 2.976c3.26 3.118 3.153 3.402 5.81 0l2.34-3.047 2.373-2.976c2.87-3.119 2.197-3.19-.814-5.74l-3.119-2.694-3.118-2.657c-1.7-1.665-2.48-2.339-3.295-2.09zm.39 5.528c.708-.106 1.488 0 2.055.425.39.284.567.78.638 1.24.07.213-.177.532 0 .674.177.141.354-.248.602-.248.46-.071 1.028-.036 1.417.212.567.39.957 1.099 1.063 1.807.107.673 0 1.453-.425 2.02-.283.39-.815.567-1.275.673-.213.036-.496-.212-.638-.035-.107.177.212.39.248.602.035.46.035 1.028-.213 1.417-.39.567-1.098.957-1.807 1.063-.673.107-1.453 0-2.02-.425-.39-.283-.602-.78-.708-1.275-.036-.213.248-.496.07-.638-.176-.142-.39.212-.637.248-.46.035-.992.07-1.382-.213-.567-.39-.957-1.098-1.063-1.771-.106-.71 0-1.489.425-2.056.284-.39.78-.566 1.24-.673.213-.07.532.213.674.036.106-.178-.248-.39-.284-.603-.035-.496-.035-1.027.248-1.417.39-.567 1.099-.957 1.772-1.063zM188.311 268.93c-.567.353-.957 1.275-1.736 2.834l-1.701 3.401-1.665 3.402c-2.374 3.862-1.24 3.614 2.515 5.173l4.252 1.736 4.217 1.737c4.075 1.913 4.075 2.232 5.492-1.843l1.276-3.614 1.31-3.579c1.737-3.897 1.064-3.72-2.586-5.209l-3.791-1.523-3.827-1.56c-2.126-1.027-3.047-1.452-3.756-.956zm2.126 5.137c.602-.319 1.382-.46 2.055-.248.46.142.78.567 1.028.957.106.212-.036.566.177.637.212.107.283-.319.496-.425.425-.177.957-.354 1.417-.212.673.177 1.24.744 1.56 1.346.354.602.46 1.417.247 2.055-.141.46-.567.78-.992 1.028-.177.141-.567-.036-.602.212-.071.213.283.284.39.46.212.462.39.958.248 1.454-.178.637-.744 1.24-1.347 1.559-.602.319-1.417.46-2.055.248-.46-.142-.815-.567-1.063-.992-.106-.178.035-.567-.142-.638-.212-.071-.319.319-.531.425-.425.213-.921.39-1.382.248-.673-.177-1.276-.744-1.595-1.346-.318-.638-.46-1.418-.248-2.09.142-.462.567-.78.993-1.028.177-.107.566.035.637-.178.071-.212-.354-.319-.46-.496-.213-.425-.32-.956-.213-1.417.213-.673.744-1.24 1.382-1.56zM207.02 276.76c-.426.531-.567 1.523-.815 3.224l-.638 3.756-.602 3.756c-1.134 4.358-.142 3.791 3.933 4.181l4.57.425 4.571.426c4.43.637 4.5.92 4.678-3.367l.177-3.826.177-3.827c.531-4.217-.071-3.827-3.969-4.181l-4.11-.39-4.11-.354c-2.339-.355-3.33-.461-3.862.177zm3.508 4.287c.496-.46 1.24-.85 1.913-.815.496 0 .921.284 1.276.638.141.142.141.532.354.532.248 0 .177-.39.354-.532.355-.319.815-.638 1.276-.638.708-.035 1.417.32 1.913.815.496.496.85 1.205.85 1.914 0 .46-.354.92-.673 1.275-.141.177-.531.142-.531.355 0 .212.39.177.531.354.32.354.674.815.674 1.275 0 .71-.355 1.418-.85 1.914-.497.496-1.206.85-1.879.85-.496-.035-.956-.319-1.31-.673-.178-.142-.107-.531-.355-.531-.213 0-.177.39-.354.531-.355.319-.78.638-1.276.673-.673 0-1.417-.354-1.878-.85-.496-.496-.85-1.205-.85-1.914 0-.46.283-.92.602-1.275.177-.177.602-.106.567-.354 0-.213-.425-.178-.567-.355-.319-.354-.602-.78-.602-1.275-.036-.674.354-1.418.815-1.914zM144.693 244.055c.638-.07 1.417-.673 2.835-1.665l3.082-2.233 3.118-2.196c3.863-2.304 2.764-2.622.178-5.776l-2.941-3.508-2.906-3.543c-2.693-3.579-2.551-3.862-5.705-.957l-2.834 2.622-2.835 2.551c-3.366 2.587-2.693 2.764-.142 5.776l2.622 3.153 2.658 3.154c1.382 1.913 2.02 2.728 2.87 2.622zm.531-5.527c-.708 0-1.452-.249-1.948-.745-.32-.354-.426-.85-.426-1.346-.035-.213.248-.496.107-.638-.142-.177-.39.177-.603.142-.496-.035-1.027-.142-1.382-.46-.496-.497-.744-1.24-.744-1.95 0-.673.248-1.452.744-1.948.355-.32.886-.39 1.382-.426.213 0 .461.284.603.142.141-.177-.142-.425-.107-.638 0-.496.107-1.027.426-1.382.496-.496 1.24-.744 1.948-.744.674 0 1.453.248 1.914.744.354.355.46.886.496 1.382 0 .213-.319.461-.177.638.177.142.425-.142.673-.142.46.036.992.107 1.346.426.496.496.744 1.275.744 1.948 0 .71-.248 1.453-.744 1.95-.354.318-.885.424-1.346.46-.248.035-.496-.319-.673-.142-.142.142.177.425.177.638-.036.496-.142.992-.496 1.346-.46.496-1.24.745-1.914.745zM131.476 228.004c.638-.177 1.311-.921 2.552-2.126l2.657-2.728 2.693-2.693c3.437-2.906 2.303-3.012-.78-5.705l-3.472-2.976-3.472-3.012c-3.225-3.083-3.119-3.366-5.776.035l-2.339 3.012-2.374 3.012c-2.87 3.118-2.197 3.153.78 5.704l3.118 2.693 3.154 2.658c1.7 1.665 2.444 2.338 3.26 2.126zm-.39-5.528c-.673.107-1.488-.035-2.02-.425-.389-.283-.566-.78-.672-1.275-.036-.213.212-.532.035-.638-.177-.142-.39.212-.602.248-.46.035-1.028.035-1.418-.248-.567-.39-.956-1.099-1.063-1.772-.141-.673 0-1.488.39-2.055.284-.39.815-.532 1.311-.638.213-.07.496.213.638 0 .106-.177-.213-.354-.248-.567-.07-.496-.07-1.063.213-1.452.39-.567 1.098-.957 1.771-1.063.673-.107 1.488 0 2.055.425.39.283.567.815.674 1.275.035.213-.213.496-.036.638.177.142.39-.212.603-.212.496-.071 1.027-.071 1.417.177.567.39.957 1.134 1.063 1.807.106.673 0 1.488-.425 2.02-.284.39-.78.602-1.24.708-.213.036-.567-.248-.674-.07-.106.212.248.424.248.637.071.46.036.992-.212 1.417-.39.567-1.134.922-1.807 1.063zM114.362 214.398c.567-.39.957-1.276 1.736-2.835l1.701-3.402 1.666-3.437c2.338-3.826 1.24-3.578-2.516-5.137l-4.252-1.737-4.252-1.771c-4.04-1.914-4.04-2.197-5.457 1.878l-1.275 3.614-1.311 3.579c-1.737 3.862-1.063 3.685 2.586 5.173l3.792 1.559 3.826 1.523c2.126 1.063 3.048 1.453 3.756.993zm-2.126-5.138c-.602.319-1.382.46-2.055.248-.46-.142-.78-.567-1.027-.992-.107-.177.035-.567-.178-.638-.212-.071-.283.354-.496.425-.425.213-.956.39-1.417.248-.673-.177-1.24-.744-1.594-1.346-.32-.638-.461-1.418-.249-2.09.178-.461.603-.78 1.028-1.028.177-.107.532.035.602-.178.071-.212-.319-.283-.39-.496-.212-.425-.39-.956-.283-1.417.213-.673.78-1.24 1.382-1.559.602-.319 1.382-.46 2.055-.248.46.142.815.567 1.063.992.106.177-.07.532.142.602.212.071.319-.318.531-.39.426-.212.922-.39 1.382-.247.674.177 1.24.744 1.595 1.346.319.602.46 1.417.248 2.055-.177.46-.567.815-.992 1.063-.177.107-.567-.07-.638.177-.071.178.354.284.425.496.213.426.354.922.248 1.418-.212.638-.78 1.24-1.382 1.559zM95.689 206.425c.425-.496.531-1.488.815-3.189l.602-3.756.603-3.756c1.134-4.393.141-3.826-3.933-4.216l-4.571-.425-4.536-.426c-4.429-.637-4.535-.92-4.712 3.402l-.142 3.827-.213 3.791c-.531 4.217.071 3.862 4.004 4.217l4.075.354 4.11.354c2.339.39 3.366.496 3.898-.177zm-3.543-4.287c-.496.496-1.205.85-1.914.85-.46 0-.886-.319-1.24-.638-.177-.141-.177-.567-.39-.567-.212 0-.141.426-.319.567-.354.32-.814.638-1.31.638-.674 0-1.418-.354-1.914-.85-.46-.46-.85-1.205-.815-1.878 0-.496.319-.921.638-1.276.142-.177.531-.142.531-.354 0-.248-.39-.213-.531-.354-.319-.355-.638-.815-.673-1.311 0-.674.354-1.382.85-1.878s1.205-.85 1.913-.85c.461 0 .957.318 1.311.637.142.142.107.567.32.567.212 0 .212-.425.39-.567.353-.319.743-.638 1.24-.638.708 0 1.417.355 1.913.85.46.461.85 1.205.815 1.879 0 .496-.284.92-.603 1.275-.141.177-.567.142-.567.354 0 .248.426.213.567.355.32.354.603.815.638 1.31 0 .674-.354 1.383-.85 1.879z" fill="#000" fill-rule="nonzero"/><path d="M232.283 277.504l-1.559.319c-2.126.248-3.011.425-3.33 1.205-.213.602-.107 1.523.07 3.26l.355 3.79.354 3.827c.071 4.5.78 3.721 4.394 3.048l4.004-.78 3.898-.708-1.914-3.296a2.677 2.677 0 0 1-.78.39c-.425.106-.885-.07-1.275-.283-.177-.107-.213-.496-.39-.426-.212.036-.106.426-.212.638-.248.39-.532.78-.957.886-.567.213-1.276.07-1.807-.283-.532-.355-1.028-.993-1.17-1.666-.106-.46.036-.957.213-1.382.071-.177.496-.248.425-.46-.07-.213-.425-.107-.602-.213-.354-.248-.709-.638-.815-1.098-.177-.674-.035-1.453.284-2.055.318-.567.85-1.134 1.417-1.276.425-.142.886.07 1.24.283.177.107.248.496.46.461l.107-.106-2.41-4.075zM70.354 205.717l1.56-.32c2.125-.247 3.011-.425 3.33-1.204.248-.602.106-1.56-.035-3.26l-.39-3.827-.354-3.791c-.036-4.5-.78-3.72-4.359-3.047l-4.039.78-3.898.708 1.95 3.295c.212-.177.495-.319.743-.39.425-.106.886.071 1.276.284.177.106.212.46.425.425.177-.035.07-.425.177-.638.248-.39.532-.78.957-.921.567-.177 1.275-.035 1.807.319.531.354 1.028.992 1.205 1.63.106.496-.036.957-.248 1.417-.071.177-.496.248-.426.46.071.213.426.107.603.213.354.248.708.638.815 1.099.177.638.035 1.453-.284 2.02-.283.602-.815 1.169-1.417 1.31-.425.107-.85-.07-1.24-.283-.177-.106-.248-.496-.46-.46-.036 0-.072.07-.107.106l2.41 4.075z" fill="#000"/></g></svg>