<svg width="302" height="482" xmlns="http://www.w3.org/2000/svg"><g fill="none" fill-rule="evenodd"><path d="M115.438 166.486l-5.844 2.994-3.375 3.71-5.469-3.367-6-1.06-5.5 3.368-4.406 6.174 5.844 6.705 6.718 9.168 5.813 10.23 5.5 11.101 4.594 13.067 3 14.282 1.062.031 2.188 14.501s1.25 15.519 1.25 14.813c0-.705 1.78 13.067 1.78 13.067l4.407 8.638 7.438 6.33 8.656 1.061 6.531 5.832 7.438 4.584 7.937-.717 7.438-2.994 6.187 4.584 7.938 2.65 5.843-2.993 3.375-3.711 5.469 3.368 6 1.06 5.5-3.368 4.406-6.174-5.844-6.705-6.718-9.169-5.813-10.228-5.5-11.102-4.594-13.067-3-14.282-1.062-.032-2.188-14.5s-1.25-15.52-1.25-14.813c0 .705-1.78-13.067-1.78-13.067L175 187.817l-7.438-6.33-8.656-1.061-6.531-5.832-7.438-4.584-7.937.717-7.438 2.994-6.187-4.584-7.938-2.65z" fill="#000"/><path d="M115.78 41.406c-2.298 5.115-4.122 10.47-6.894 15.347-1.775 3.122-4.323 5.752-6.187 8.82-1.722 2.834-3.465 5.706-4.597 8.821-.843 2.32-1.642 4.765-1.59 7.233.047 2.31 1.178 4.469 1.767 6.703l-4.95 7.41c-2.533.294-5.332-.281-7.6.882-2.339 1.198-4.357 3.375-5.304 5.821-.956 2.468-.86 5.436 0 7.939.872 2.536 2.722 4.85 4.95 6.35 2.132 1.438 4.864 2.378 7.424 2.117 2.91-.296 5.442-2.3 7.778-4.057 2.73-2.053 4.714-4.94 7.071-7.41.707 2 .918 4.251 2.122 5.998 1.184 1.72 2.836 3.275 4.773 4.058 1.696.686 3.668.612 5.48.353 2.048-.293 4.043-1.081 5.833-2.117.868-.503 1.35-1.614 2.298-1.94 4.515-1.557 9.546.352 14.32.529l6.363-16.23-1.767-3.528c2.298.353 4.592 1.388 6.894 1.058 2.061-.296 4.223-1.138 5.657-2.646 1.4-1.473 2.029-3.632 2.298-5.645a11.801 11.801 0 0 0-.707-5.822c-.807-2.034-2.11-4.015-3.89-5.292-1.104-.792-2.592-.823-3.888-1.235.648-2.47 1.12-4.992 1.944-7.409.927-2.72 2.155-5.33 3.359-7.938.937-2.03 2.087-3.96 3.005-5.998 1.3-2.889 2.592-5.797 3.536-8.82.79-2.534 1.206-5.17 1.767-7.763.496-2.288.943-4.586 1.415-6.88-3.89.118-7.792.014-11.668.353-3.262.285-6.484.926-9.722 1.411-3.42.513-6.863.904-10.253 1.588-3.096.625-6.203 1.278-9.193 2.293-2.373.806-4.638 1.908-6.894 3-1.684.814-3.3 1.763-4.95 2.646z" fill="#FF5"/><path d="M96.043 117.475s3.661-1.453 5.228-2.609c1.693-1.25 4.357-4.565 4.357-4.565l.218 61.74s-3.787-2.347-5.882-3.044c-1.257-.418-3.921-.652-3.921-.652v-50.87z" fill="#000"/><path d="M105.192 142.04l78.206-.435-25.27 39.566s-8.972-8.837-14.813-10.218c-4.567-1.079-13.942 1.957-13.942 1.957s-8.446-5.983-13.289-5.87c-4.058.095-10.892 5.435-10.892 5.435" fill="#F55"/><path d="M198 120.364l-39 60.374s4.07-.28 6 .25c1.187.324 3.25 1.746 3.25 1.746L210 118.118l-3.5-1.996-3.25 2.246-5.25 1.996z" fill="#000"/><path stroke="#55A" stroke-width="2" fill="#FF5" stroke-linecap="round" stroke-linejoin="round" d="M106 141.07h78l12.785-19.54-90.785-.418z"/><path fill="#55A" d="M189.375 260.072l10.75 6.861 7.375 6.487 6.5 8.232 5 8.857 3.375 8.482.625 6.861-.5 6.611-8.75-10.727-5.5-6.736-5.25-7.61-4.375-6.985-4.75-8.108-3.5-7.484z"/><path d="M184.868 202.245c7 1.33 11.439 2.573 16.882 4.688 9.238 3.59 18.256 7.978 26.5 13.472 6.833 4.554 13.12 9.994 18.75 15.967 6.931 7.354 13.316 15.386 18.25 24.2 3.811 6.808 6.525 14.25 8.56 21.78 2.1 7.775 3.169 15.839 3.69 23.874.452 6.973.23 14.007-.5 20.957-.425 4.039-1.46 7.99-2.25 11.975-.793 4-1.667 7.983-2.5 11.975 0 0 9.299 4 14.12 5.516 4.785 1.504 14.63 3.528 14.63 3.528V202.29l-82.513-51.865-33.62 51.819z" stroke="#55A" stroke-width="2" fill="#55A" stroke-linecap="round" stroke-linejoin="round"/><path d="M267.908 339.698c1.298-6.368 2.78-12.76 3.092-19.251.444-9.239-.076-18.596-1.75-27.693-1.323-7.192-3.565-14.256-6.5-20.956a115.607 115.607 0 0 0-13-22.453c-4.07-5.485-8.866-10.46-14-14.969-6.319-5.55-13.258-10.437-20.5-14.72-3.656-2.16-7.546-3.935-11.5-5.488-4.145-1.628-8.443-2.857-12.75-3.992-3.387-.892-7.022-1.833-10.272-2.207l2.064 18.626 11.448 3.596 17.808 7.405 19.293 17.348 11.872 16.925 6.784 17.349 3.18 20.733-1.272 13.751-2.756 13.964c6.784 5.292 11.024 7.59 16.536 11 0 0 1.608-5.95 2.223-8.968z" stroke="#55A" stroke-width="2" fill="#55A" stroke-linecap="round" stroke-linejoin="round"/><path d="M91 1.361l25 39.917s6.475-3.782 10-4.99c8.038-2.752 16.543-4.153 25-4.989 9.951-.983 20.034-.823 30 0 10.103.835 30 4.99 30 4.99L236 1.36H91z" stroke="#55A" stroke-width="2" fill="#F55" stroke-linecap="round" stroke-linejoin="round"/><path d="M210.478 36.32s3.14 9.271 2.353 13.906c-.45 2.647-3.22 4.456-3.89 7.056a6.332 6.332 0 0 0 0 3.176c1.77 6.564 8.079 11.199 10.253 17.64.304.9.701 1.94.354 2.823-1.405 3.575-7.214 3.929-8.839 7.41-1.045 2.238.783 5.066 0 7.409-.372 1.115-1.86 1.675-2.121 2.822-.399 1.755 1.276 3.506 1.06 5.292-.232 1.933-1.989 3.407-2.474 5.293-.441 1.712.543 3.767-.354 5.292-1.422 2.42-4.45 3.57-7.071 4.587-3.34 1.296-7.022 1.757-10.607 1.764-5.134.01-10.362-.76-15.202-2.47-4.479-1.582-8.453-4.38-12.375-7.056-2.481-1.694-4.959-3.47-7.01-5.664-3.005-3.216-7.584-10.805-7.584-10.805" stroke="#55A" stroke-width="2" stroke-linecap="round" stroke-linejoin="round"/><path d="M205.53 47.025s-4.335-3.623-6.994-4.188c-3.777-.802-7.811.259-11.501 1.396-3.122.961-5.825 2.956-8.704 4.498-1.41.755-4.196 2.326-4.196 2.326s5.201-2.865 7.926-4.032c2.575-1.103 5.165-2.32 7.927-2.792 2.655-.454 5.431-.48 8.082 0 2.613.473 7.46 2.792 7.46 2.792zM198.07 50.592s-3.418-.818-5.13-.62c-2.246.258-4.378 1.259-6.371 2.326-1.927 1.031-3.649 2.43-5.285 3.877-1.755 1.553-4.818 5.119-4.818 5.119M201.489 52.453s-2 1.218-3.108 1.55c-2.05.617-4.278.339-6.373.776-1.588.332-3.158.79-4.662 1.396-1.676.676-3.237 1.61-4.818 2.482-1.159.64-2.225 1.446-3.42 2.016-.798.381-2.486.93-2.486.93M199.624 62.38s-2.48 3.2-3.886 4.652a26.488 26.488 0 0 1-2.953 2.637c-.981.75-3.108 2.016-3.108 2.016M199.469 76.958s-1.969 2.916-1.71 4.498c.237 1.45 1.467 2.783 2.797 3.412 1.311.62 2.937.316 4.352 0 .95-.212 1.8-.753 2.642-1.24 1.095-.633 1.889-1.839 3.109-2.172.651-.178 1.85-.497 2.02.155.236.902-1.498 1.13-2.331 1.551-1.082.547-2.25.919-3.42 1.241-1.321.364-2.669.8-4.04.776-1.382-.026-3.049.03-4.041-.931-.73-.707-.805-1.932-.777-2.947.04-1.52 1.399-4.343 1.399-4.343zM185.48 89.056s-2.18-2.208-3.574-2.171c-1.192.031-2.253 1.052-2.953 2.016-.76 1.046-1.23 2.437-1.088 3.722.13 1.173.793 2.357 1.71 3.102 1.64 1.332 3.956 2.058 6.061 1.861 2.1-.196 3.775-1.884 5.595-2.947 1.65-.963 3.158-2.157 4.818-3.101 1.409-.802 2.75-1.923 4.352-2.172 1.658-.257 3.692-.306 4.973.776.376.316.783 1.02.467 1.396-.91 1.08-2.784-.69-4.197-.62-1.706.083-3.39.6-4.973 1.24-2.108.852-3.842 2.458-5.906 3.412-2.096.97-4.223 2.496-6.528 2.327-1.756-.13-3.465-1.193-4.662-2.482-.962-1.035-1.732-2.466-1.71-3.877.02-1.318.67-2.754 1.71-3.568.999-.782 2.5-1.09 3.73-.775.925.237 2.176 1.861 2.176 1.861zM207.55 96.035c-1.498.279-3.003.524-4.507.776-2.226.372-4.59.243-6.683 1.086-.76.305-2.02 1.395-2.02 1.395s2.523-1.195 3.885-1.395c1.95-.288 3.935.323 5.906.31 1.558-.011 4.663-.31 4.663-.31l1.865-2.482s-2.07.427-3.109.62z" stroke="#55A" stroke-width="2" stroke-linecap="round" stroke-linejoin="round"/><path d="M194.961 54.935c1.159 0 2.402.634 3.109 1.55.935 1.214 1.507 3.079.932 4.498-.517 1.277-2.043 2.234-3.419 2.327-1.734.117-3.69-.89-4.663-2.327-.726-1.075-.949-2.748-.31-3.877.796-1.41 2.73-2.171 4.351-2.171z" stroke="#55A" stroke-width="2" stroke-linecap="round" stroke-linejoin="round"/><path d="M179.42 60.828s3.664-.218 5.439.155c1.478.311 2.73 1.343 4.196 1.706 2.022.501 6.217.62 6.217.62" stroke="#55A" stroke-width="2" stroke-linecap="round" stroke-linejoin="round"/><path d="M195.738 57.106c-.955-.025-1.844 1.218-1.865 2.171-.02.92.788 2.187 1.71 2.172.964-.016 1.72-1.365 1.71-2.327-.01-.848-.705-1.994-1.555-2.016zM105.445 1.361l14.505 28.473c6.488-2.247 12.085-3.332 20.356-4.257l-3.9-24.216h-5.73l5.12 20.689c-4.75.331-9.186 1.29-13.286 2.919L112.027 1.361h-6.582zM145.303 1.361l3.048 23.243c10.076-.934 18.152-1.482 28.229-.486l5.485-22.757h-6.46l-3.048 17.77c-7.916-.472-12.561.008-19.209.486L151.123 1.36h-5.82zM191.866 1.361l-7.314 23c7.355.61 14.06 1.016 22.062 2.92l15.724-25.92H216l-12.067 21.297c-4.47-1.216-8.33-1.572-12.799-2.19l6.217-19.107h-5.485z" stroke="#55A" stroke-width="2" fill="#55A" stroke-linecap="round" stroke-linejoin="round"/><path d="M115.971 41.544s-4.623 10.599-7.412 15.654c-3.053 5.532-7.918 10.096-10.17 15.998-1.265 3.312-2.35 7.004-1.725 10.493.513 2.857 2.063 5.727 4.31 7.57 1.825 1.496 4.36 2.227 6.723 2.236 2.598.009 5.613-.537 7.412-2.409 1.917-1.994 2.419-5.224 2.24-7.981-.18-2.774-1.191-5.827-3.274-7.673-1.074-.951-2.702-1.252-4.137-1.204-1.835.062-3.893.578-5.172 1.892-1.518 1.562-2.208 4.022-2.068 6.193.118 1.843.897 3.93 2.413 4.989 1.42.99 3.597 1.237 5.171.516 1.275-.584 2.235-2.052 2.413-3.44.158-1.239-.444-2.61-1.31-3.51-.579-.6-2.31-.963-2.31-.963" stroke="#55A" stroke-width="2" stroke-linecap="round" stroke-linejoin="round"/><path d="M135.01 34.32s-4.428 14.106-7.412 20.854c-2.217 5.013-6.002 9.31-7.757 14.503-1.496 4.425-3.181 9.256-2.24 13.831.56 2.728 2.369 5.34 4.481 7.056 1.886 1.533 4.36 2.405 6.723 2.414 2.598.01 5.536-.776 7.412-2.6 2.192-2.129 3.445-5.507 3.275-8.555-.174-3.124-1.911-6.327-4.31-8.342-1.105-.93-2.7-1.352-4.136-1.3-1.835.067-3.893.623-5.172 2.043-1.518 1.685-2.208 4.34-2.068 6.684.118 1.99.918 4.105 2.413 5.385 1.357 1.162 3.453 1.909 5.172 1.418 1.547-.442 2.923-1.975 3.275-3.542.377-1.681-.445-4.138-1.552-4.932-2.973-2.131-4.31.792-4.31.792" stroke="#55A" stroke-width="2" stroke-linecap="round" stroke-linejoin="round"/><path d="M154.63 31.395s-1.652 11.983-6.378 22.747c-2.257 5.14-5.443 9.942-6.896 15.363-1.318 4.922-2.512 10.203-1.551 15.207.585 3.05 1.967 6.218 4.31 8.26 1.793 1.564 4.344 2.292 6.722 2.415 2.66.137 5.784-.127 7.757-1.912 2.426-2.195 3.55-5.987 3.276-9.243-.268-3.172-2.183-6.332-4.655-8.343-1.12-.911-2.692-1.352-4.137-1.3-1.852.067-3.912.685-5.171 2.043-1.587 1.711-2.21 4.357-2.069 6.685.12 1.963.918 4.104 2.414 5.385 1.356 1.161 3.452 1.908 5.171 1.417 1.548-.442 2.923-1.974 3.275-3.542.378-1.681-.444-4.138-1.551-4.931-2.973-2.132-4.31.791-4.31.791M122.177 38.792c-1.15 3.612-1.933 7.362-3.448 10.837-1.867 4.285-4.436 8.237-6.895 12.214-1.674 2.706-3.825 5.116-5.344 7.913-1.546 2.846-2.815 6.02-3.792 8.945M128.555 36.642c-.968 3.38-1.628 6.887-2.904 10.14-1.572 4.008-3.696 7.71-5.806 11.426-1.604 2.825-3.796 5.313-5.199 8.242-1.17 2.445-1.817 4.956-2.64 7.692M140.966 32.771c-.968 3.876-1.628 7.899-2.903 11.628-1.573 4.598-3.697 8.844-5.807 13.105-1.603 3.239-3.795 6.092-5.198 9.451-1.172 2.804-1.818 5.684-2.64 8.821M148.378 32.255c-.907 3.55-1.526 7.235-2.722 10.651-1.474 4.212-3.533 8.048-5.443 12.004-1.438 2.979-3.216 5.794-4.529 8.83-1.111 2.568-2.049 5.034-2.82 7.908" stroke="#55A" stroke-width="2" stroke-linecap="round" stroke-linejoin="round"/><path d="M161.134 30.879c-.877 4.45-1.344 9-2.63 13.349-1.428 4.823-3.805 9.315-5.608 14.012-1.511 3.94-3.151 7.841-4.366 11.882-.999 3.322-1.647 6.525-2.393 10.127M168.202 31.137c-.827 3.83-1.39 7.804-2.48 11.488-1.343 4.543-3.157 8.738-4.96 12.948-1.37 3.2-3.242 6.02-4.44 9.338-1 2.77-1.553 5.615-2.255 8.715M115.268 90.992c-2.333 5.239-4.035 10.758-7.31 15.407-2.638 3.742-5.72 7.465-9.708 9.723-2.69 1.523-5.95 2.759-9 2.246-2.553-.43-4.93-2.188-6.5-4.242-1.647-2.153-2.513-5.025-2.5-7.733.013-2.63.806-5.47 2.5-7.485 1.462-1.739 3.795-2.685 6-3.243 1.858-.47 4-.778 5.75 0 2.048.91 3.54 2.968 4.5 4.99.94 1.976 1.682 4.407 1 6.486-.697 2.124-2.681 3.885-4.75 4.74-1.77.732-4.04.865-5.75 0-1.383-.699-2.268-2.272-2.75-3.742-.415-1.265-.599-2.803 0-3.992.606-1.203 1.907-2.276 3.25-2.41 1.1-.109 2.401.485 3 1.412.545.845.27 2.388.043 3.012" stroke="#55A" stroke-width="2" stroke-linecap="round" stroke-linejoin="round"/><path d="M139.923 87.54c-2.032 4.545-2.922 10.608-5.37 15.497-2.258 4.51-4.364 9.61-8.48 12.532-2.61 1.854-6.125 2.97-9.288 2.465-2.224-.355-4.293-1.897-5.66-3.679-1.434-1.868-2.213-4.359-2.177-6.71.032-2.151.82-4.405 2.177-6.079 1.287-1.59 3.254-2.668 5.224-3.227 1.606-.456 3.483-.675 5.007 0 1.784.79 3.086 2.57 3.919 4.328.738 1.557 1.25 3.457.767 5.11-.573 1.964-2.168 3.782-4.033 4.63-1.518.69-3.518.75-5.007 0-1.204-.607-2.047-1.948-2.394-3.247-.319-1.189-.24-2.626.414-3.67.506-.805 1.471-1.4 2.416-1.524 1.083-.143 2.48.092 3.13.97.615.829.56 2.787.01 3.095M97.999 88.61c-1.39 2.677-3.12 4.67-4.77 6.83M102.25 92.542c-1.618 2.532-2.893 4.039-4.251 5.794M108.47 93.68c-2.445 4.346-4.99 8.29-7.983 10.45M120.91 90.473c-.145 2.366-1.461 4.67-2.177 7.346M126.56 93.008c-.145 2.366-1.461 4.67-2.177 7.345M132.262 93.008c-.248 3.399-3.75 10.847-5.702 13.967M143.718 92.75c-.69 3.965-2.15 7.614-3.628 11.276-1.322 3.276-2.903 6.138-4.666 9.518M148.487 97.612c-.76 2.93-1.729 5.91-2.799 8.793-.952 2.565-2.039 4.828-3.214 7.553" stroke="#55A" stroke-width="2" stroke-linecap="round" stroke-linejoin="round"/><path d="M281.773 54.107s5.47-6.657 7.071-10.585c1.447-3.546 2.85-7.53 2.122-11.29-.583-3.01-2.471-5.95-4.95-7.762-2.952-2.158-6.99-3.379-10.607-2.822-3.037.467-5.849 2.552-7.778 4.94-1.497 1.853-2.243 4.333-2.475 6.703-.289 2.963.367 6.032 1.415 8.82.78 2.078 2.266 3.823 3.535 5.645 1.488 2.136 4.77 6.184 4.77 6.184l-9.893 13.58 9.738 13.921s-4.713 5.483-6.383 8.653c-1.508 2.865-2.862 5.954-3.182 9.174-.258 2.598-.064 5.404 1.061 7.762 1.111 2.329 3.162 4.2 5.303 5.645 1.886 1.272 4.09 2.384 6.364 2.47 2.832.106 5.87-.768 8.132-2.47 1.906-1.434 3.12-3.744 3.89-5.998.913-2.677.973-5.64.7-8.455a23.635 23.635 0 0 0-2.301-8.121c-1.657-3.356-6.718-9-6.718-9l9.732-13.234-9.546-13.76z" stroke="#55A" stroke-width="2" fill="#FF5" stroke-linecap="round" stroke-linejoin="round"/><path d="M278.47 49.102s-4.778-5.665-6.25-9.01c-.74-1.68-1.45-3.55-1.215-5.37.225-1.742 1.177-3.445 2.43-4.678 1.29-1.269 3.05-2.4 4.861-2.425 1.787-.026 3.63.96 4.862 2.252 1.378 1.444 2.109 3.555 2.257 5.544.145 1.956-.583 3.929-1.39 5.717-1.33 2.951-3.152 5.354-5.555 7.97zM278.397 86.178s-4.757 6.278-6.25 9.875c-.704 1.696-1.45 3.55-1.216 5.371.225 1.742 1.177 3.445 2.431 4.678 1.29 1.269 3.05 2.4 4.861 2.425 1.787.026 3.63-.96 4.861-2.252 1.379-1.444 2.11-3.555 2.257-5.544.146-1.956-.625-3.91-1.389-5.717-1.353-3.204-3.152-6.22-5.555-8.836z" stroke="#55A" stroke-width="2" fill="#F55" stroke-linecap="round" stroke-linejoin="round"/><path stroke="#55A" stroke-width="2" fill="#55A" stroke-linecap="round" stroke-linejoin="round" d="M277.95 76.13l-5.904-8.143 6.077-8.836 6.076 8.316z"/><g stroke="#55A" stroke-linecap="round" stroke-linejoin="round" stroke-width="2"><path d="M245.875 140.696c2.21-4.82 3.847-10.17 7.445-14.078 3.396-3.687 7.946-6.432 12.675-8.107 3.812-1.35 8.013-1.342 12.057-1.354 1.716-.005 4.021-.772 5.12.544 1.217 1.457.57 4.06-.43 5.674-1.618 2.613-5 3.775-7.925 4.732-2.487.813-5.198.658-7.817.739.615 4.227.796 7.771.055 11.55-.47 2.4-2.16 4.866-2.805 6.787"/><path d="M273.125 117.993c0 1.29-.68 2.77 0 3.867.539.87 1.76 1.107 2.75 1.373 1.29.346 2.667.333 4 .249.889-.056 1.75-.333 2.625-.499M284 123.482c1.083.291 2.43.109 3.25.873 1.03.96 1.556 2.596 1.375 3.992-.135 1.04-1.004 1.88-1.75 2.62-1.238 1.227-2.79 2.14-4.375 2.868a19.463 19.463 0 0 1-5.625 1.622c-1.53.195-3.125.233-4.625-.125-.852-.203-1.808-.456-2.375-1.122-.392-.462-.556-1.144-.5-1.747.069-.74.468-1.474 1-1.996a5.047 5.047 0 0 1 2.875-1.372c.974-.113 2.088.04 2.875.624.689.51 1.035 1.417 1.25 2.245.157.604.118 1.259 0 1.871-.085.44-.333.832-.5 1.248"/><path d="M287.375 131.091c.958.79 2.319 1.26 2.875 2.37.392.782.45 1.808.125 2.62-.513 1.284-1.859 2.085-3 2.869-1.367.938-2.914 1.636-4.5 2.12-1.572.48-3.237.603-4.875.749-1.62.144-3.263.335-4.875.125-.732-.096-1.538-.177-2.125-.624-.505-.386-.927-.991-1-1.622-.076-.653.246-1.333.625-1.87.58-.825 1.402-1.607 2.375-1.872.893-.243 1.876.072 2.75.374.776.269 1.67.564 2.125 1.248.349.524.304 1.244.25 1.87-.06.695-.417 1.331-.625 1.997"/><path d="M287.5 139.2c.625.956 1.62 1.755 1.875 2.868.29 1.267.22 2.785-.5 3.867-.827 1.242-2.462 1.761-3.875 2.246-1.75.6-3.654.623-5.5.748-1.58.107-3.206.348-4.75 0-.945-.213-1.917-.587-2.625-1.247-.559-.521-1.087-1.234-1.125-1.996-.036-.726.359-1.485.875-1.996.676-.67 1.685-.972 2.625-1.123.95-.152 2.02-.192 2.875.25.63.325 1.096.97 1.375 1.621.313.73.411 1.592.25 2.37-.155.748-.75 1.331-1.125 1.996"/><path d="M285.625 148.056c.792.374 2.16.69 2.5 1.621.343.94-.342 2.023-.875 2.87-.753 1.195-1.825 2.309-3.125 2.868-1.074.463-2.33.268-3.5.25-1.633-.025-3.296-.08-4.875-.499-1.19-.316-2.627-.52-3.375-1.497-.333-.434-.388-1.092-.25-1.622.239-.917.935-1.757 1.75-2.245 1.052-.63 2.496-1.101 3.625-.624 1.022.432 1.581 1.677 1.875 2.745a3.117 3.117 0 0 1-.125 1.996c-.266.622-.917.998-1.375 1.496M278.625 156.413c-.358 1.165-2.257 2.329-4.25 3.493"/></g><path d="M106 121.112h81.364s-9.907-.705-14.485-2.44c-2.079-.787-5.657-3.527-5.657-3.527l-39.244-1.059s-3.598 2.514-5.657 3.175c-2.032.653-4.276 1.147-6.364.706-1.602-.338-3.033-1.369-4.243-2.47-.749-.681-1.321-1.561-1.768-2.47-.541-1.102-.882-2.313-1.06-3.528-.171-1.163 0-3.528 0-3.528L106 111.133v9.979z" stroke="#55A" stroke-width="2" fill="#55A" stroke-linecap="round" stroke-linejoin="round"/><path d="M106 126.102h87" stroke="#55A" stroke-width="2" stroke-linecap="round" stroke-linejoin="round"/><path d="M138.384 151.95c1.406-1.403-1.405-4.549 0-5.952 1.406-1.403 4.558-1.403 5.964 0 1.406 1.403-1.406 4.549 0 5.952 1.406 1.402 4.558-1.403 5.964 0 1.406 1.402 1.406 4.548 0 5.951-1.406 1.403-4.558-1.403-5.964 0-1.406 1.403 1.406 4.549 0 5.952-1.406 1.402-4.558 1.402-5.964 0-1.405-1.403 1.406-4.55 0-5.952-1.405-1.403-4.558 1.403-5.964 0-1.405-1.403-1.405-4.549 0-5.951 1.406-1.403 4.559 1.402 5.964 0z" fill="#FFF"/><path d="M209.674 118.303l6.826 4.805-42 65.114s-1.31-2.171-2.25-2.994c-1.15-1.006-4-2.245-4-2.245l41.424-64.68z" fill="#FF5"/><path fill="#55A" d="M216.305 122.978l3.945 2.375-43 66.611-2.5-3.991z"/><path fill="#FF5" d="M219.924 125.657l4.826 3.438-45 69.356-2.315-7.088z"/><path fill="#F55" d="M225.25 129.095L300 176.247v7.983l-77.5-49.397z"/><path fill="#000" d="M221.935 134.166l-5.473 8.67L300 196.455V184.28z"/><path fill="#F55" d="M216.555 142.334l-2.843 4.778L300 202.193v-5.987z"/><path d="M301 242.858s-16.21-12.636-22.75-20.457c-5.586-6.68-10.379-14.18-13.75-22.204-3.096-7.37-5.723-23.283-5.723-23.283l-7.75-4.878s3.66 21.662 7.973 31.654c3.988 9.237 9.7 17.801 16.25 25.447 7.442 8.688 25.75 22.703 25.75 22.703v-8.982z" stroke="#55A" stroke-width="2" fill="#FF5" stroke-linecap="round" stroke-linejoin="round"/><path d="M234.25 162.027s1.638 25.293 5 37.422c2.468 8.903 6.124 17.594 11 25.447 6.727 10.834 15.18 20.748 24.75 29.189 7.759 6.843 26 16.965 26 16.965v6.686s-21.109-12.03-30.25-19.909c-8.71-7.507-16.68-16.098-23-25.696-6.1-9.267-10.767-19.58-14-30.187-2.48-8.136-4-25.198-4-25.198l-20.625 32.682-6.5-2.62 30.125-45.78 1.5.999z" stroke="#55A" stroke-width="2" fill="#FF5" stroke-linecap="round" stroke-linejoin="round"/><path d="M301 360.613c-9.97-2.23-19.678-5.047-29-8.981-1.923-.812-3.7-1.938-5.5-2.994-5.78-3.392-11.701-6.628-17-10.728-1.537-1.19-2.818-2.677-4.25-3.991-4.453-4.086-9.124-7.933-13.5-12.1-3.09-2.944-6.11-5.967-9-9.106a190.465 190.465 0 0 1-8.875-10.354c-4.412-5.54-8.883-11.077-12.625-17.089-4.602-7.393-9.071-15.004-12-23.202-1.487-4.163-1.89-8.637-2.75-12.973-1.07-5.392-2.096-10.794-3-16.216-.373-2.239-.713-4.484-1-6.736-.794-6.222-1.342-12.473-2-18.71-.338-3.202-.317-6.46-1-9.606-.465-2.144-1.095-4.286-2.094-6.24a18.841 18.841 0 0 0-3.151-4.402c-1.755-1.837-3.762-3.49-5.988-4.717-1.512-.834-3.193-1.38-4.884-1.73-1.495-.31-3.046-.21-4.57-.314 0 0-9.12-8.971-15.063-10.123-4.809-.932-14.377 3.044-14.377 3.044s-8.98-6.961-14.16-6.522c-3.717.315-9.225 6.323-9.225 6.323s-7.439-5.21-11.47-4.452c-4.363.821-9.803 8.998-9.803 8.998" stroke="#55A" stroke-width="2" stroke-linecap="round" stroke-linejoin="round"/><path stroke="#55A" stroke-width="2" stroke-linecap="round" stroke-linejoin="round" d="M158.814 180.424L187 136.08h-81"/><path d="M249.625 337.91c1-6.819 2.843-13.398 3.125-20.208.341-8.246.121-16.659-1.75-24.698-1.954-8.394-5.492-16.454-9.75-23.95-4.372-7.698-9.597-15.086-16-21.206-5.843-5.585-12.788-10.064-20-13.722-7.166-3.634-15.667-5.322-22.75-7.983 2.167 13.06 4.333 23.172 6.5 33.68 5 3.326 11.525 7.17 16.5 11.726a54.002 54.002 0 0 1 8.5 9.979c2.877 4.343 5.205 9.082 7 13.97 1.091 2.974 1.97 6.077 2.25 9.231.235 2.656-.5 5.822-.5 7.984L236 326.185l13.625 11.725z" stroke="#55A" stroke-width="2" fill="#FF5" stroke-linecap="round" stroke-linejoin="round"/><path d="M244.5 332.671c.917-5.572 2.593-11.07 2.75-16.715.217-7.775-.594-15.66-2.5-23.202-1.782-7.052-4.703-13.853-8.25-20.208-4.064-7.28-8.795-14.365-14.75-20.207-5.375-5.273-11.806-9.518-18.5-12.973-5.736-2.961-12.167-4.325-18.25-6.487l2.5 15.717c2.833 1.165 5.795 2.056 8.5 3.493 3.713 1.973 7.196 4.388 10.5 6.986 2.988 2.349 5.822 4.92 8.375 7.733a69.624 69.624 0 0 1 7.375 9.73c2.237 3.56 4.222 7.31 5.75 11.227 1.474 3.779 2.62 7.72 3.25 11.725.621 3.947.514 7.98.5 11.975-.012 3.414-.5 7.152-.5 10.23l13.25 10.976z" stroke="#55A" stroke-width="2" fill="#55A" stroke-linecap="round" stroke-linejoin="round"/><path d="M188.25 255.083c4.167 1.372 8.365 3.776 12.125 6.362 4.254 2.925 8.153 6.41 11.625 10.228 2.868 3.153 5.313 6.697 7.5 10.354 2.11 3.529 4.057 7.208 5.375 11.102 1.266 3.739 1.998 7.672 2.375 11.6.373 3.891-.125 8.067-.125 11.726" stroke="#55A" stroke-width="2" stroke-linecap="round" stroke-linejoin="round"/><g fill="#F55"><path d="M193.967 228.611s-6.188-2.87-7.875-5.613c-1.455-2.366-1.25-8.233-1.25-8.233s4.943 2.935 6.5 5.239c1.68 2.486 2.625 8.607 2.625 8.607zM194.217 228.611s4.664-5.22 7.875-5.863c2.358-.472 7 1.747 7 1.747s-3.498 3.866-5.875 4.615c-2.865.902-9-.499-9-.499zM196.342 222.748c-1.812-.29-3.718-2.423-3.5-4.24.248-2.065 2.949-4.106 5-3.743 1.957.346 3.675 3.052 3.25 4.99-.4 1.825-2.901 3.29-4.75 2.993z"/></g><path d="M267.967 182.246s-3.548 4.2-3.95 6.785c-.235 1.515-.119 3.44 1 4.49 1.169 1.096 3.161.955 4.75.75 3.612-.468 10-4.391 10-4.391l-3.75-2.195s-3.143 2.88-5 2.593c-1.048-.16-2.006-1.215-2.25-2.245-.302-1.28 1.25-3.742 1.25-3.742l-2.05-2.045zM281.36 191.155s-6.314 2.526-8.55 4.939c-1.441 1.557-2.65 3.62-2.75 5.738-.078 1.682.53 3.577 1.75 4.74 1.48 1.41 3.806 1.87 5.85 1.847 2.167-.025 4.244-1.07 6.15-2.097 2.509-1.351 4.514-3.475 6.75-5.239 1.023-.806 3.05-2.444 3.05-2.444l-3.45-2.195s-4.986 4.681-8.1 5.887c-1.406.545-3.089 1.034-4.5.499-1.047-.398-2.319-1.378-2.25-2.495.103-1.648 2.436-2.242 3.75-3.243 1.93-1.47 6.05-4.041 6.05-4.041l-3.75-1.896zM295.3 200.048s-7.636 5.282-10.8 8.632c-1.681 1.78-4.042 3.55-4.25 5.987-.18 2.113.953 4.608 2.75 5.738 1.128.71 2.74.437 4 0 2.41-.836 4.025-3.13 6-4.74 2.701-2.203 8-6.736 8-6.736v-3.89s-4.23 3.44-6.4 5.088c-2.164 1.645-3.98 4.058-6.6 4.79-.966.27-2.617.676-3-.25-.835-2.018 2.68-3.47 4.25-4.99 1.516-1.466 3.28-2.654 4.952-3.942 1.563-1.205 4.748-3.542 4.748-3.542l-3.65-2.145zM301 212.374s-9.493 5.65-12 10.276c-.92 1.697-1.43 3.933-.75 5.738.664 1.766 2.385 3.444 4.25 3.743 1.88.3 3.865-.942 5.25-2.246 1.762-1.658 3.25-6.485 3.25-6.485s-3.804 4.842-6.25 4.24c-1.375-.339-2.178-2.34-2-3.742.17-1.343 1.735-2.095 2.75-2.994 1.688-1.495 5.5-3.941 5.5-3.941v-4.59z" fill="#FF5"/><path d="M250.25 176.497s-6.763-3.152-9.75-1.747c-1.384.651-2.868 2.595-2.25 3.992.45 1.015 2.14.806 3.25.748 3.08-.159 8.75-2.993 8.75-2.993z" fill="#FFF"/><g stroke="#55A" stroke-linecap="round" stroke-linejoin="round" stroke-width="2"><path d="M200.851 239.45c-1.716-.647-3.845-.556-5.498.237-1.647.788-3.052 2.38-3.606 4.115-.516 1.616-.293 3.57.516 5.06.817 1.505 2.366 2.715 4.003 3.227 1.555.486 3.408.353 4.877-.352 1.532-.736 2.884-2.142 3.462-3.737.592-1.638.448-3.634-.278-5.217-.669-1.458-1.973-2.766-3.476-3.333z" fill="#FF5"/><path d="M198.804 243.133c-1.203-.296-2.877.673-3.215 1.863-.34 1.198.564 2.967 1.769 3.294 1.279.346 3.09-.781 3.392-2.069.278-1.184-.763-2.797-1.946-3.088z"/></g><path d="M199.116 267.183c-1.535-.365-3.683 1.019-4 2.654-.267 1.37.966 3.136 2.25 3.45 1.49.365 3.63-.812 4-2.389.334-1.429-.897-3.393-2.25-3.715zM204.161 273.438c-1.837-.482-4.408 1.346-4.788 3.505-.319 1.809 1.156 4.141 2.693 4.556 1.785.481 4.347-1.073 4.789-3.154.4-1.887-1.074-4.482-2.694-4.907zM209.74 280.553c-2.199-.51-5.278 1.428-5.734 3.717-.381 1.92 1.385 4.393 3.226 4.833 2.137.51 5.206-1.138 5.734-3.346.48-2.001-1.285-4.753-3.225-5.204zM214.48 288.65c-1.958-.438-4.7 1.223-5.104 3.185-.34 1.645 1.232 3.765 2.87 4.142 1.903.437 4.634-.976 5.104-2.867.427-1.716-1.144-4.074-2.87-4.46zM218.366 296.742c-1.535-.343-3.683.958-4 2.495-.267 1.288.966 2.948 2.25 3.243 1.49.343 3.63-.763 4-2.245.334-1.343-.897-3.19-2.25-3.493z" stroke="#55A" stroke-width="2" fill="#FF5" stroke-linecap="round" stroke-linejoin="round"/><path stroke="#55A" stroke-width="2" stroke-linecap="round" stroke-linejoin="round" d="M111 130.093v1.996h10v-1.996z"/><g stroke="#55A" stroke-linecap="round" stroke-linejoin="round" stroke-width="2"><path d="M213.13 246.837c-1.716-.647-3.845-.556-5.499.237-1.646.788-3.051 2.38-3.606 4.115-.515 1.616-.292 3.57.517 5.06.816 1.505 2.365 2.715 4.002 3.227 1.556.486 3.409.353 4.878-.352 1.532-.736 2.884-2.142 3.461-3.737.593-1.638.449-3.634-.278-5.217-.668-1.458-1.972-2.766-3.475-3.333z" fill="#FF5"/><path d="M211.083 250.52c-1.204-.296-2.877.673-3.215 1.863-.34 1.198.564 2.967 1.769 3.294 1.278.346 3.089-.781 3.392-2.069.278-1.184-.763-2.797-1.946-3.088z"/></g><g stroke="#55A" stroke-linecap="round" stroke-linejoin="round" stroke-width="2"><path d="M223.13 255.819c-1.716-.647-3.845-.557-5.499.236-1.646.789-3.051 2.38-3.606 4.116-.515 1.615-.292 3.569.517 5.06.816 1.504 2.365 2.715 4.002 3.226 1.556.487 3.409.353 4.878-.352 1.532-.735 2.884-2.142 3.461-3.737.593-1.638.449-3.634-.278-5.217-.668-1.458-1.972-2.766-3.475-3.332z" fill="#FF5"/><path d="M221.083 259.501c-1.204-.296-2.877.674-3.215 1.863-.34 1.199.564 2.968 1.769 3.294 1.278.347 3.089-.781 3.392-2.068.278-1.184-.763-2.798-1.946-3.089z"/></g><g stroke="#55A" stroke-linecap="round" stroke-linejoin="round" stroke-width="2"><path d="M230.88 266.796c-1.716-.647-3.845-.557-5.499.236-1.646.789-3.051 2.38-3.606 4.116-.515 1.615-.292 3.569.517 5.06.816 1.505 2.365 2.715 4.002 3.226 1.556.487 3.409.354 4.878-.352 1.532-.735 2.884-2.141 3.461-3.737.593-1.638.449-3.633-.278-5.217-.668-1.458-1.972-2.766-3.475-3.332z" fill="#FF5"/><path d="M228.833 270.478c-1.204-.295-2.877.674-3.215 1.863-.34 1.199.564 2.968 1.769 3.294 1.278.347 3.089-.78 3.392-2.068.278-1.184-.763-2.797-1.946-3.089z"/></g><g stroke="#55A" stroke-linecap="round" stroke-linejoin="round" stroke-width="2"><path d="M236.88 279.395c-1.716-.647-3.845-.557-5.499.236-1.646.789-3.051 2.38-3.606 4.116-.515 1.615-.292 3.569.517 5.06.816 1.504 2.365 2.714 4.002 3.226 1.556.487 3.409.353 4.878-.352 1.532-.736 2.884-2.142 3.461-3.737.593-1.638.449-3.634-.278-5.217-.668-1.458-1.972-2.766-3.475-3.332z" fill="#FF5"/><path d="M234.833 283.077c-1.204-.296-2.877.673-3.215 1.863-.34 1.199.564 2.967 1.769 3.294 1.278.347 3.089-.781 3.392-2.068.278-1.184-.763-2.798-1.946-3.089z"/></g><g stroke="#55A" stroke-linecap="round" stroke-linejoin="round" stroke-width="2"><path d="M241.255 292.492c-1.716-.647-3.845-.556-5.499.236-1.646.79-3.051 2.38-3.606 4.116-.515 1.616-.292 3.57.517 5.06.816 1.505 2.365 2.715 4.002 3.227 1.556.486 3.409.353 4.878-.352 1.532-.736 2.884-2.142 3.461-3.738.593-1.637.449-3.633-.278-5.216-.668-1.458-1.972-2.766-3.475-3.333z" fill="#FF5"/><path d="M239.208 296.175c-1.204-.296-2.877.673-3.215 1.863-.34 1.198.564 2.967 1.769 3.294 1.278.346 3.089-.781 3.392-2.069.278-1.184-.763-2.797-1.946-3.088z"/></g><g stroke="#55A" stroke-linecap="round" stroke-linejoin="round" stroke-width="2"><path d="M242.13 319.087c-1.716.647-3.845.557-5.499-.236-1.646-.789-3.051-2.38-3.606-4.116-.515-1.615-.292-3.569.517-5.06.816-1.505 2.365-2.715 4.002-3.227 1.556-.486 3.409-.353 4.878.353 1.532.735 2.884 2.141 3.461 3.737.593 1.638.449 3.633-.278 5.217-.668 1.458-1.972 2.766-3.475 3.332z" fill="#FF5"/><path d="M240.083 315.404c-1.204.296-2.877-.673-3.215-1.862-.34-1.199.564-2.968 1.769-3.294 1.278-.347 3.089.78 3.392 2.068.278 1.184-.763 2.797-1.946 3.088z"/></g><g stroke="#55A" stroke-linecap="round" stroke-linejoin="round" stroke-width="2"><path d="M242.883 330.98c1.718-1.639 2.152-4.74 1.347-6.964-.618-1.71-2.434-3.126-4.225-3.457-2.2-.408-5.595.067-6.374 2.107" fill="#FF5"/><path d="M239.857 329.047c1.051-.615 1.13-3.112.149-4.035-.84-.789-2.848-.99-3.444.334"/></g><g stroke="#55A" stroke-linecap="round" stroke-linejoin="round" stroke-width="2.001"><path d="M187.012 247.257c2.305-.183 4.557-2.263 5.335-4.44.599-1.674.173-3.862-1.018-5.215-1.476-1.677-4.619-3.387-6.47-2.322" fill="#FF5"/><path d="M185.945 243.935c1.17.18 2.78-1.66 2.618-2.963-.139-1.113-1.518-2.5-2.788-1.865"/></g><g fill="#F55"><path d="M216.726 239.794s-4.915-4.132-5.78-7.081c-.745-2.543.864-7.948.864-7.948s3.77 3.898 4.624 6.408c.92 2.708.292 8.62.292 8.62zM216.953 239.853s5.495-3.748 8.563-3.586c2.253.12 5.924 3.28 5.924 3.28s-4.11 2.766-6.447 2.9c-2.817.16-8.04-2.594-8.04-2.594zM220.302 234.907c-1.573-.7-2.784-3.132-2.145-4.77.725-1.86 3.67-3.118 5.442-2.296 1.69.785 2.592 3.707 1.736 5.407-.806 1.602-3.428 2.372-5.033 1.659z"/></g><g fill="#F55"><path d="M234.756 257.224s-3.711-5.54-3.734-8.637c-.02-2.67 3.112-7.306 3.112-7.306s2.64 4.945 2.777 7.619c.146 2.884-2.155 8.324-2.155 8.324zM234.965 257.354s6.523-1.792 9.525-.64c2.205.846 4.956 5.056 4.956 5.056s-4.868 1.304-7.228.672c-2.845-.762-7.253-5.088-7.253-5.088zM239.695 253.72c-1.364-1.177-1.878-3.893-.778-5.25 1.248-1.54 4.53-1.783 6.058-.422 1.457 1.3 1.524 4.38.192 5.726-1.255 1.267-4.08 1.149-5.472-.053z"/></g><g fill="#F55"><path d="M248.212 279.796s-2.251-6.157-1.532-9.168c.62-2.596 4.75-6.442 4.75-6.442s1.36 5.354.852 7.979c-.55 2.83-4.07 7.63-4.07 7.63zM248.381 279.966s6.718-.375 9.335 1.372c1.923 1.283 3.567 5.946 3.567 5.946s-5.005.248-7.129-.86c-2.56-1.335-5.773-6.458-5.773-6.458zM253.811 277.428c-1.033-1.43-.877-4.174.507-5.26 1.572-1.234 4.795-.784 5.94.858 1.095 1.566.422 4.571-1.185 5.599-1.513.967-4.207.262-5.262-1.197z"/></g><g fill="#F55"><path d="M254.091 303.528s.051-6.642 1.832-9.277c1.535-2.271 6.904-4.554 6.904-4.554s-.62 5.576-2.057 7.912c-1.552 2.52-6.679 5.92-6.679 5.92zM254.194 303.748s6.612 1.908 8.506 4.46c1.39 1.874 1.293 6.885 1.293 6.885s-4.916-1.452-6.563-3.226c-1.987-2.14-3.236-8.12-3.236-8.12zM260.345 303.155c-.48-1.715.66-4.285 2.387-4.856 1.961-.65 4.906.868 5.419 2.823.49 1.866-1.244 4.51-3.164 4.95-1.809.415-4.152-1.168-4.642-2.917z"/></g><g fill="#F55"><path d="M252.813 328.814s1.979-6.309 4.457-8.312c2.138-1.727 7.968-2.378 7.968-2.378s-2.216 5.133-4.278 6.949c-2.225 1.96-8.147 3.741-8.147 3.741zM252.848 329.052s5.81 3.692 6.89 6.66c.795 2.178-.754 6.92-.754 6.92s-4.31-2.775-5.38-4.932c-1.29-2.6-.756-8.648-.756-8.648zM258.94 330.232c.036-1.768 1.88-3.892 3.708-3.946 2.076-.061 4.469 2.218 4.395 4.225-.07 1.915-2.508 3.942-4.483 3.816-1.86-.119-3.656-2.29-3.62-4.095z"/></g><path d="M251.94 188.518s-7.236-1.829-9.905.11c-1.237.899-2.33 3.086-1.46 4.342.632.913 2.254.391 3.333.127 2.995-.733 8.032-4.58 8.032-4.58zM254.691 199.5s-7.431-.693-9.769 1.634c-1.083 1.078-1.824 3.407-.77 4.514.765.805 2.286.04 3.312-.388 2.846-1.185 7.227-5.76 7.227-5.76zM258.761 209.94s-7.42.803-9.246 3.548c-.845 1.273-1.105 3.703.148 4.578.911.636 2.249-.417 3.169-1.04 2.55-1.729 5.93-7.085 5.93-7.085zM265.01 221.24s-7.42.801-9.246 3.547c-.846 1.272-1.106 3.702.148 4.577.91.636 2.248-.417 3.168-1.04 2.551-1.728 5.93-7.085 5.93-7.085zM272.459 230.595s-7.216 1.905-8.607 4.894c-.645 1.384-.536 3.826.835 4.503.997.492 2.16-.75 2.976-1.503 2.262-2.092 4.796-7.894 4.796-7.894zM281.67 240.05s-7.215 1.906-8.606 4.894c-.645 1.385-.536 3.827.835 4.504.997.492 2.16-.75 2.976-1.504 2.262-2.09 4.796-7.893 4.796-7.893zM290.682 248.066s-6.97 2.664-8.034 5.784c-.492 1.445-.122 3.861 1.313 4.388 1.044.383 2.068-.975 2.798-1.812 2.025-2.32 3.923-8.36 3.923-8.36zM299.859 254.187s-6.56 3.551-7.206 6.783c-.299 1.497.385 3.844 1.878 4.179 1.084.243 1.921-1.237 2.535-2.162 1.704-2.565 2.793-8.8 2.793-8.8z" fill="#FFF"/><g fill="#FFF"><path d="M195.472 193.1s2.919 5.732 5.7 6.458c1.48.386 3.87-.059 4.33-1.515.335-1.058-1.033-2.068-1.945-2.703-2.293-1.598-8.085-2.24-8.085-2.24zM193.016 193.158c-.776 4.84-1.174 6.067.981 8.563.999 1.156 3.273 2.063 4.456 1.095.86-.703.255-2.29-.147-3.325-.994-2.563-5.29-6.333-5.29-6.333zM194.393 190.93s6.222 2.45 8.851 1.068c1.123-.591 2.188-2.178 1.759-3.37-.374-1.041-1.95-1.322-3.058-1.298-2.789.061-7.552 3.6-7.552 3.6z"/></g><g fill="#FFF"><path d="M206.856 177.434s2.213 5.818 4.826 6.632c1.46.456 3.87-.059 4.33-1.514.335-1.059-1.05-2.045-1.944-2.704-2.04-1.503-7.212-2.414-7.212-2.414zM203.701 177.2s-1.165 6.736.806 9.029c.997 1.158 3.274 2.063 4.457 1.095.86-.703.228-2.28-.147-3.325-.958-2.668-5.116-6.798-5.116-6.798zM205.66 175.031s5.65 2.716 8.094 1.475c1.364-.692 2.698-2.772 1.992-4.126-.513-.985-2.19-.695-3.29-.541-2.48.344-6.795 3.192-6.795 3.192z"/></g><g fill="#FFF"><path d="M216.493 160.445s2.322 6.172 5.088 7.039c1.46.457 3.871-.059 4.331-1.515.335-1.058-1.063-2.028-1.945-2.704-2.112-1.619-7.474-2.82-7.474-2.82zM213.63 160.705s-1.172 6.669.777 8.941c.995 1.16 3.273 2.064 4.456 1.096.86-.704.23-2.282-.147-3.326-.953-2.638-5.086-6.71-5.086-6.71zM215.152 158.129s5.902 3.07 8.502 1.794c1.373-.673 2.697-2.771 1.992-4.126-.513-.984-2.186-.661-3.291-.541-2.57.28-7.203 2.873-7.203 2.873z"/></g><path d="M300.448 203.218l-86.902-55.702M206.082 116.115L301 176.65M225.462 128.536l-45.85 69.97" stroke="#55A" stroke-width="2" fill="#000" stroke-linecap="round" stroke-linejoin="round"/><path stroke="#55A" stroke-width="2" stroke-linecap="round" stroke-linejoin="round" d="M126 130.093v1.996h10v-1.996zM141 130.093v1.996h10v-1.996zM156 130.093v1.996h10v-1.996zM171 130.093v1.996h10v-1.996zM186 130.093v1.996h3.3l1.2-1.996z"/><path fill="#F55" d="M57 126.102v22.328l-17.375-11.85z"/><path fill="#000" d="M65.75 122.235l.25 34.553-9.625-8.233.375-22.329z"/><path d="M70.125 120.613l.125 40.042 13.25 14.22 1.375 1.372s1.654-1.84 2.5-2.744c1.232-1.317 3.75-3.901 3.75-3.901L91 119.366l-4.375-1.622-3.375-2.12-13.125 4.989z" stroke="#55A" stroke-width="2" fill="#55A" stroke-linecap="round" stroke-linejoin="round"/><path d="M83.225 116.777c-.314 2.868-.217 6.861-.812 9.044-.517 1.895-1.44 3.771-2.531 5.613-1.268 2.139-3.711 4.122-5.407 7.173-1.583 2.85-3.443 6.101-3.75 9.917-.262 3.266.519 4.575 1.97 7.422 1.675 3.288 4.591 4.952 6.093 6.83 1.187 1.483 3.174 2.603 3.906 4.022.58 1.126 1.93 6.273 2.531 7.983l5.125-4.054c-.48-1.366-1.554-4.837-2.468-6.61-.993-1.925-2.555-3.255-3.72-4.71-2.142-2.678-4.308-3.862-5.28-5.77-1.135-2.226-1.6-3.267-1.407-5.675.215-2.666.924-4.585 2.5-7.422 1.19-2.141 3.583-4.076 5.344-7.048 1.187-2.002 2.311-4.196 2.969-6.61.813-2.984.668-5.841.937-8.296l-6-1.809z" stroke="#55A" stroke-width="2" fill="#FF5"/><path d="M78.875 118.212l-6 1.434c.266 3.18-.337 7.026.969 10.946 1.19 3.577 3.73 6.027 5.219 8.42 1.748 2.81 3.819 4.83 4.374 6.923.466 1.754.135 4.008-.28 6.393-.368 2.106-1.008 4.188-1.938 6.081-.599 1.218-1.769 2.477-2.875 4.148-.924 1.395-1.669 2.17-2.531 3.524l4 4.865c.887-1.392 2.97-4.887 3.843-6.206.843-1.273 2.167-2.633 3.125-4.584a26.626 26.626 0 0 0 2.313-7.142c.413-2.37.992-5.166.219-8.077-.95-3.573-3.525-5.875-4.876-8.045-1.828-2.94-3.988-5.168-4.78-7.547-.91-2.731-.464-7.328-.782-11.133z" stroke="#55A" stroke-width="2" fill="#FF5" stroke-linecap="round" stroke-linejoin="round"/><path d="M83.375 115.25a218.947 218.947 0 0 0-15.875 5.737c-4.281 1.744-8.547 3.563-12.625 5.738-5.792 3.09-11.167 6.903-16.75 10.354" stroke="#55A" stroke-width="2" stroke-linecap="round" stroke-linejoin="round"/><path d="M106 141.277v31.65" stroke="#55A" stroke-width="2" fill="#FFF" stroke-linecap="round" stroke-linejoin="round"/><path d="M84.223 177.578s-4.598-6.64-7.162-9.756c-1.991-2.42-4.184-4.67-6.366-6.92-1.882-1.94-3.788-3.863-5.797-5.672-2.778-2.5-5.648-4.906-8.64-7.147-5.455-4.086-16.938-11.457-16.938-11.457" stroke="#55A" stroke-width="2" stroke-linecap="round" stroke-linejoin="round"/><path d="M136.281 233.877l-.093 4.023c-3.839.48-5.932-1.06-9.094-2.963-.635 3.567-1.127 6.11-1.344 10.79 3.122-2.209 5.468-2.9 9.094-2.806l-.25 4.927h31.125l.093-4.023c3.839-.48 5.932 1.06 9.094 2.963.635-3.567 1.128-6.11 1.344-10.79-3.122 2.209-5.468 2.899-9.094 2.806l.25-4.927h-31.125z" fill="#FF5"/><path d="M149.014 225.753s-.218-14.715 0-22.933c.063-2.378 1.363-4.832 3.182-6.35 1.602-1.338 3.928-1.915 6.01-1.765 2.394.173 4.853 1.298 6.541 3 1.318 1.327 2.257 3.256 2.298 5.115.18 8.058-.353 22.404-.353 22.404l-17.678.53z" fill="#F55"/><path d="M156.616 209.963s-4.597-.923-4.42-5.428c.094-2.387 2.803-5.048 5.303-5.067 2.626-.02 4.705 2.899 5.657 5.236.728 1.787.312 3.934-.353 5.743-.743 2.019-2.943 3.296-3.89 5.236-.591 1.213-.788 2.572-1.06 3.885-.254 1.226-.53 3.715-.53 3.715s-1.362-3.888-1.591-5.911c-.178-1.568-.056-3.169.176-4.73.136-.913.708-2.68.708-2.68z" fill="#000"/><path d="M128.4 225.675s-.219-23.359 0-31.577c.063-2.379 1.81-4.706 3.712-6.175 1.652-1.274 3.927-1.914 6.01-1.764 2.393.173 4.792 1.36 6.541 3 1.269 1.188 2.433 2.727 2.475 4.586.18 8.058.177 31.754.177 31.754l-18.915.176z" fill="#F55"/><path d="M137.688 203.954s-5.304-.431-5.127-5.37c.094-2.617 2.803-5.534 5.303-5.555 2.626-.021 4.705 3.178 5.657 5.74.728 1.96.312 4.313-.353 6.296-.743 2.214-2.943 3.614-3.89 5.74-.591 1.33-.807 2.818-1.06 4.26-.297 1.693-.53 5.131-.53 5.131s-1.368-4.98-1.591-7.539c-.15-1.723-.18-3.496.176-5.185.262-1.242 1.415-3.518 1.415-3.518z" fill="#000"/><path d="M108.67 212.357s-1.457-13.833-1.238-22.051c.063-2.379 1.81-4.706 3.712-6.175 1.652-1.274 3.928-1.914 6.01-1.764 2.394.173 4.792 1.36 6.541 3 1.269 1.188 2.433 2.727 2.475 4.586.18 8.058.177 35.635.177 35.635l-13.082.176c-1.187-4.293-2.48-9.115-4.596-13.407z" fill="#F55"/><path d="M116.651 198.926s-5.303-.43-5.126-5.37c.093-2.616 2.803-5.534 5.303-5.554 2.625-.022 4.704 3.177 5.657 5.74.728 1.959.312 4.312-.354 6.295-.742 2.214-2.942 3.614-3.889 5.74-.592 1.33-.863 2.81-1.06 4.26-.295 2.161-.177 6.543-.177 6.543s-1.67-5.91-1.945-8.95c-.155-1.723-.179-3.497.177-5.185.262-1.243 1.414-3.519 1.414-3.519z" fill="#000"/><path d="M106.057 206.7s-2.437-3.834-3.535-5.82c-.764-1.382-2.121-4.234-2.121-4.234s.268-4.017 0-5.998c-.238-1.753-.376-3.683-1.415-5.116-.747-1.031-1.936-1.845-3.182-2.117-1.107-.242-2.444-.139-3.358.53-.32.232-.53 1.058-.53 1.058l-1.769-2.294s1.394-2.107 2.475-2.646c1.485-.74 3.347-.956 4.95-.53 2.323.62 4.357 2.341 5.834 4.235 1.169 1.5 2.072 3.393 2.121 5.292.168 6.489.53 17.64.53 17.64z" fill="#F55"/><g><path d="M150.986 255.972s.218 14.715 0 22.933c-.063 2.378-1.363 4.832-3.182 6.35-1.602 1.338-3.928 1.915-6.01 1.765-2.394-.173-4.853-1.298-6.541-3-1.318-1.327-2.257-3.256-2.298-5.115-.18-8.058.353-22.404.353-22.404l17.678-.53zM171.6 256.05s.219 23.359 0 31.577c-.063 2.379-1.81 4.706-3.712 6.175-1.652 1.274-3.927 1.914-6.01 1.764-2.393-.173-4.792-1.36-6.541-3-1.269-1.188-2.433-2.727-2.475-4.586-.18-8.058-.177-31.754-.177-31.754l18.915-.176zM191.33 269.368s1.457 13.833 1.238 22.051c-.063 2.379-1.81 4.706-3.712 6.175-1.652 1.274-3.928 1.914-6.01 1.764-2.394-.173-4.792-1.36-6.541-3-1.269-1.188-2.433-2.727-2.475-4.586-.18-8.058-.177-35.635-.177-35.635l13.082-.176c1.187 4.293 2.48 9.114 4.596 13.407zM193.943 275.024s2.437 3.835 3.535 5.822c.764 1.381 2.121 4.233 2.121 4.233s-.268 4.017 0 5.998c.238 1.753.376 3.683 1.415 5.116.747 1.031 1.936 1.845 3.182 2.117 1.107.242 2.444.139 3.358-.53.32-.232.53-1.058.53-1.058l1.769 2.294s-1.394 2.107-2.475 2.646c-1.485.74-3.347.956-4.95.529-2.323-.62-4.357-2.34-5.834-4.234-1.169-1.5-2.072-3.393-2.121-5.292-.168-6.489-.53-17.641-.53-17.641z" fill="#F55"/><path d="M186.22 440.32c2.298-5.116 4.122-10.472 6.894-15.348 1.775-3.122 4.323-5.752 6.187-8.82 1.722-2.834 3.465-5.706 4.597-8.821.843-2.32 1.642-4.765 1.59-7.233-.047-2.31-1.178-4.469-1.767-6.703l4.95-7.41c2.533-.294 5.332.281 7.6-.882 2.339-1.198 4.357-3.375 5.304-5.821.956-2.468.86-5.436 0-7.939-.872-2.536-2.722-4.85-4.95-6.35-2.132-1.438-4.864-2.378-7.424-2.117-2.91.296-5.442 2.3-7.778 4.057-2.73 2.053-4.714 4.94-7.071 7.41-.707-2-.918-4.251-2.122-5.999-1.184-1.718-2.836-3.274-4.773-4.057-1.696-.686-3.668-.612-5.48-.353-2.048.293-4.043 1.081-5.833 2.117-.868.503-1.35 1.614-2.298 1.94-4.515 1.557-9.546-.352-14.32-.529l-6.363 16.23 1.767 3.528c-2.298-.353-4.592-1.389-6.894-1.058-2.061.296-4.223 1.138-5.657 2.646-1.4 1.473-2.029 3.632-2.298 5.645a11.801 11.801 0 0 0 .707 5.822c.807 2.034 2.11 4.015 3.89 5.292 1.104.792 2.592.823 3.888 1.235-.648 2.47-1.12 4.992-1.944 7.409-.927 2.72-2.155 5.33-3.359 7.938-.937 2.03-2.087 3.96-3.005 5.998-1.3 2.889-2.592 5.797-3.536 8.82-.79 2.534-1.206 5.17-1.767 7.763-.496 2.288-.943 4.586-1.415 6.88 3.89-.118 7.792-.014 11.668-.353 3.262-.285 6.484-.926 9.722-1.411 3.42-.513 6.863-.904 10.253-1.588 3.096-.625 6.203-1.278 9.193-2.293 2.373-.806 4.638-1.908 6.894-3 1.684-.814 3.3-1.764 4.95-2.646z" fill="#FF5"/><path d="M205.957 364.25s-3.661 1.453-5.228 2.609c-1.693 1.25-4.357 4.565-4.357 4.565l-.218-61.74s3.787 2.347 5.882 3.044c1.257.418 3.921.652 3.921.652v50.87z" fill="#000"/><path d="M196.808 339.685l-78.206.434 25.27-39.565s8.972 8.837 14.813 10.218c4.567 1.079 13.942-1.957 13.942-1.957s8.446 5.983 13.289 5.87c4.058-.095 10.892-5.435 10.892-5.435" fill="#F55"/><path d="M104 361.361l39-60.374s-4.07.28-6-.25c-1.187-.324-3.25-1.746-3.25-1.746L92 363.607l3.5 1.996 3.25-2.246 5.25-1.996z" fill="#000"/><path stroke="#55A" stroke-width="2" fill="#FF5" stroke-linecap="round" stroke-linejoin="round" d="M196 340.655h-78l-12.785 19.54 90.785.418z"/><path fill="#55A" d="M112.625 221.653l-10.75-6.861-7.375-6.487-6.5-8.233-5-8.856-3.375-8.482-.625-6.861.5-6.611 8.75 10.727 5.5 6.736 5.25 7.61 4.375 6.985 4.75 8.108 3.5 7.484z"/><path d="M117.132 279.48c-7-1.33-11.439-2.573-16.882-4.688-9.238-3.59-18.256-7.978-26.5-13.472-6.833-4.554-13.12-9.994-18.75-15.967-6.931-7.354-13.316-15.386-18.25-24.2-3.811-6.808-6.525-14.25-8.56-21.78-2.1-7.775-3.169-15.839-3.69-23.874-.452-6.973-.23-14.007.5-20.957.425-4.039 1.46-7.99 2.25-11.975.793-4 1.667-7.983 2.5-11.975 0 0-9.299-4-14.12-5.516C10.845 123.572 1 121.548 1 121.548v157.886L83.513 331.3l33.62-51.819z" stroke="#55A" stroke-width="2" fill="#55A" stroke-linecap="round" stroke-linejoin="round"/><path d="M34.092 142.027c-1.298 6.368-2.78 12.76-3.092 19.251-.444 9.239.076 18.596 1.75 27.693 1.323 7.192 3.565 14.256 6.5 20.956a115.607 115.607 0 0 0 13 22.453c4.07 5.485 8.866 10.46 14 14.969 6.319 5.55 13.258 10.437 20.5 14.72 3.656 2.16 7.546 3.935 11.5 5.488 4.145 1.628 8.443 2.857 12.75 3.992 3.387.892 7.022 1.833 10.272 2.207l-2.064-18.626-11.448-3.597-17.808-7.404-19.293-17.348-11.872-16.925-6.784-17.349-3.18-20.733 1.272-13.751 2.756-13.964c-6.784-5.292-11.024-7.59-16.536-11 0 0-1.608 5.95-2.223 8.968z" stroke="#55A" stroke-width="2" fill="#55A" stroke-linecap="round" stroke-linejoin="round"/><path d="M211 480.364l-25-39.917s-6.475 3.782-10 4.99c-8.038 2.752-16.543 4.153-25 4.989-9.951.983-20.034.823-30 0-10.103-.835-30-4.99-30-4.99l-25 34.928h145z" stroke="#55A" stroke-width="2" fill="#F55" stroke-linecap="round" stroke-linejoin="round"/><path d="M91.522 445.405s-3.14-9.271-2.353-13.906c.45-2.647 3.22-4.456 3.89-7.056a6.332 6.332 0 0 0 0-3.176c-1.77-6.564-8.079-11.199-10.253-17.64-.304-.9-.701-1.94-.354-2.823 1.405-3.575 7.214-3.929 8.839-7.41 1.045-2.238-.783-5.066 0-7.409.372-1.115 1.86-1.675 2.121-2.822.399-1.755-1.276-3.506-1.06-5.292.232-1.933 1.989-3.407 2.474-5.293.441-1.712-.543-3.767.354-5.292 1.422-2.42 4.45-3.57 7.071-4.587 3.34-1.296 7.022-1.757 10.607-1.764 5.134-.01 10.362.76 15.202 2.47 4.479 1.582 8.453 4.38 12.375 7.056 2.481 1.694 4.959 3.47 7.01 5.664 3.005 3.216 7.584 10.805 7.584 10.805" stroke="#55A" stroke-width="2" stroke-linecap="round" stroke-linejoin="round"/><path d="M96.47 434.7s4.335 3.623 6.994 4.188c3.777.802 7.811-.259 11.501-1.396 3.122-.962 5.825-2.956 8.704-4.498 1.41-.755 4.196-2.326 4.196-2.326s-5.201 2.865-7.926 4.032c-2.575 1.103-5.165 2.32-7.927 2.792-2.655.454-5.431.48-8.082 0-2.613-.473-7.46-2.792-7.46-2.792zM103.93 431.133s3.418.818 5.13.62c2.246-.259 4.378-1.259 6.371-2.326 1.927-1.031 3.649-2.43 5.285-3.877 1.755-1.553 4.818-5.119 4.818-5.119M100.511 429.272s2-1.218 3.108-1.55c2.05-.617 4.278-.339 6.373-.776a27.549 27.549 0 0 0 4.662-1.396c1.676-.676 3.237-1.61 4.818-2.482 1.159-.64 2.225-1.446 3.42-2.016.798-.381 2.486-.93 2.486-.93M102.376 419.346s2.48-3.2 3.886-4.653a26.488 26.488 0 0 1 2.953-2.637c.981-.75 3.108-2.016 3.108-2.016M102.531 404.767s1.969-2.916 1.71-4.498c-.237-1.45-1.467-2.783-2.797-3.412-1.311-.62-2.937-.316-4.352 0-.95.212-1.8.753-2.642 1.24-1.095.633-1.889 1.839-3.109 2.172-.651.178-1.85.497-2.02-.155-.236-.902 1.498-1.13 2.331-1.551 1.082-.547 2.25-.919 3.42-1.241 1.321-.364 2.669-.8 4.04-.776 1.382.026 3.049-.03 4.041.931.73.707.805 1.932.777 2.947-.04 1.52-1.399 4.343-1.399 4.343zM116.52 392.669s2.18 2.208 3.574 2.171c1.192-.031 2.253-1.052 2.953-2.016.76-1.046 1.23-2.438 1.088-3.722-.13-1.173-.793-2.357-1.71-3.102-1.64-1.332-3.956-2.058-6.061-1.861-2.1.196-3.775 1.884-5.595 2.946-1.65.963-3.158 2.158-4.818 3.102-1.409.802-2.75 1.923-4.352 2.172-1.658.257-3.692.306-4.973-.776-.376-.316-.783-1.02-.467-1.396.91-1.08 2.784.69 4.197.62 1.706-.083 3.39-.6 4.973-1.24 2.108-.852 3.842-2.458 5.906-3.412 2.096-.97 4.223-2.496 6.528-2.327 1.756.13 3.465 1.193 4.662 2.482.962 1.035 1.732 2.466 1.71 3.877-.02 1.318-.67 2.754-1.71 3.568-.999.782-2.5 1.09-3.73.775-.925-.237-2.176-1.861-2.176-1.861zM94.45 385.69c1.498-.279 3.003-.524 4.507-.776 2.226-.372 4.59-.243 6.683-1.086.76-.305 2.02-1.395 2.02-1.395s-2.523 1.195-3.885 1.395c-1.95.288-3.935-.324-5.906-.31-1.558.011-4.663.31-4.663.31l-1.865 2.482s2.07-.427 3.109-.62z" stroke="#55A" stroke-width="2" stroke-linecap="round" stroke-linejoin="round"/><path d="M107.039 426.79c-1.159 0-2.402-.634-3.109-1.55-.935-1.214-1.507-3.079-.932-4.498.517-1.277 2.043-2.234 3.419-2.327 1.734-.117 3.69.89 4.663 2.327.726 1.075.949 2.748.31 3.877-.796 1.41-2.73 2.171-4.351 2.171z" stroke="#55A" stroke-width="2" stroke-linecap="round" stroke-linejoin="round"/><path d="M122.58 420.897s-3.664.218-5.439-.155c-1.478-.311-2.73-1.343-4.196-1.706-2.022-.501-6.217-.62-6.217-.62" stroke="#55A" stroke-width="2" stroke-linecap="round" stroke-linejoin="round"/><path d="M106.262 424.62c.955.024 1.844-1.22 1.865-2.172.02-.92-.788-2.187-1.71-2.172-.964.016-1.72 1.365-1.71 2.327.01.848.705 1.994 1.555 2.016zM196.555 480.364L182.05 451.89c-6.488 2.247-12.085 3.332-20.356 4.257l3.9 24.216h5.73l-5.12-20.689c4.75-.331 9.186-1.29 13.286-2.919l10.483 23.608h6.582zM156.697 480.364l-3.048-23.243c-10.076.934-18.152 1.482-28.229.486l-5.485 22.757h6.46l3.048-17.77c7.916.472 12.561-.008 19.209-.486l2.225 18.256h5.82zM110.134 480.364l7.314-23c-7.355-.61-14.06-1.016-22.062-2.92l-15.724 25.92H86l12.067-21.297c4.47 1.216 8.33 1.572 12.799 2.19l-6.217 19.107h5.485z" stroke="#55A" stroke-width="2" fill="#55A" stroke-linecap="round" stroke-linejoin="round"/><path d="M186.029 440.18s4.623-10.598 7.412-15.653c3.053-5.532 7.918-10.096 10.17-15.998 1.265-3.312 2.35-7.004 1.725-10.493-.513-2.857-2.063-5.727-4.31-7.57-1.825-1.496-4.36-2.227-6.723-2.236-2.598-.009-5.613.537-7.412 2.409-1.917 1.994-2.419 5.224-2.24 7.981.18 2.774 1.191 5.827 3.274 7.673 1.074.951 2.702 1.252 4.137 1.204 1.835-.062 3.893-.578 5.172-1.892 1.518-1.562 2.208-4.022 2.068-6.193-.118-1.843-.897-3.93-2.413-4.989-1.42-.99-3.597-1.237-5.171-.516-1.275.584-2.235 2.052-2.413 3.44-.158 1.239.444 2.61 1.31 3.51.579.6 2.31.963 2.31.963" stroke="#55A" stroke-width="2" stroke-linecap="round" stroke-linejoin="round"/><path d="M166.99 447.406s4.428-14.107 7.412-20.855c2.217-5.013 6.002-9.31 7.757-14.503 1.496-4.425 3.181-9.256 2.24-13.831-.56-2.728-2.369-5.34-4.481-7.056-1.886-1.533-4.36-2.406-6.723-2.414-2.598-.01-5.536.776-7.412 2.6-2.192 2.129-3.445 5.507-3.275 8.555.174 3.123 1.911 6.327 4.31 8.342 1.105.93 2.7 1.352 4.136 1.3 1.835-.067 3.893-.623 5.172-2.043 1.518-1.685 2.208-4.34 2.068-6.684-.118-1.99-.918-4.105-2.413-5.386-1.357-1.161-3.453-1.908-5.172-1.417-1.547.442-2.923 1.975-3.275 3.542-.377 1.681.444 4.138 1.552 4.932 2.973 2.131 4.31-.792 4.31-.792" stroke="#55A" stroke-width="2" stroke-linecap="round" stroke-linejoin="round"/><path d="M147.37 450.33s1.652-11.983 6.378-22.747c2.257-5.14 5.443-9.942 6.896-15.363 1.318-4.922 2.512-10.203 1.551-15.207-.585-3.05-1.967-6.218-4.31-8.26-1.793-1.564-4.344-2.292-6.722-2.415-2.66-.137-5.784.127-7.757 1.912-2.426 2.195-3.55 5.987-3.276 9.243.268 3.172 2.183 6.332 4.655 8.343 1.12.911 2.692 1.352 4.137 1.3 1.852-.067 3.912-.685 5.171-2.043 1.587-1.712 2.21-4.357 2.069-6.685-.12-1.963-.918-4.104-2.414-5.385-1.356-1.161-3.452-1.908-5.171-1.417-1.548.442-2.923 1.974-3.275 3.542-.378 1.681.444 4.138 1.551 4.931 2.973 2.132 4.31-.791 4.31-.791M179.823 442.933c1.15-3.612 1.933-7.362 3.448-10.837 1.867-4.285 4.436-8.237 6.895-12.214 1.674-2.706 3.825-5.116 5.344-7.913 1.546-2.846 2.815-6.02 3.792-8.945M173.445 445.083c.968-3.38 1.628-6.887 2.904-10.14 1.572-4.009 3.696-7.71 5.806-11.426 1.604-2.825 3.796-5.313 5.199-8.242 1.17-2.445 1.817-4.956 2.64-7.692M161.034 448.954c.968-3.876 1.628-7.899 2.903-11.628 1.573-4.598 3.697-8.844 5.807-13.105 1.603-3.239 3.795-6.092 5.198-9.451 1.172-2.804 1.818-5.684 2.64-8.821M153.622 449.47c.907-3.55 1.526-7.235 2.722-10.651 1.474-4.212 3.533-8.048 5.443-12.004 1.438-2.979 3.216-5.794 4.529-8.83 1.111-2.568 2.049-5.034 2.82-7.908" stroke="#55A" stroke-width="2" stroke-linecap="round" stroke-linejoin="round"/><path d="M140.866 450.846c.877-4.45 1.344-9 2.63-13.349 1.428-4.823 3.805-9.315 5.608-14.012 1.511-3.94 3.151-7.841 4.366-11.882.999-3.322 1.647-6.525 2.393-10.127M133.798 450.588c.827-3.83 1.39-7.804 2.48-11.488 1.343-4.543 3.157-8.738 4.96-12.948 1.37-3.2 3.242-6.02 4.44-9.338 1-2.77 1.553-5.615 2.255-8.715M186.732 390.733c2.333-5.239 4.035-10.758 7.31-15.407 2.638-3.742 5.72-7.465 9.708-9.723 2.69-1.523 5.95-2.759 9-2.246 2.553.43 4.93 2.188 6.5 4.241 1.647 2.154 2.513 5.026 2.5 7.734-.013 2.63-.806 5.47-2.5 7.485-1.462 1.739-3.795 2.685-6 3.243-1.858.47-4 .778-5.75 0-2.048-.91-3.54-2.968-4.5-4.99-.94-1.976-1.682-4.407-1-6.486.697-2.124 2.681-3.885 4.75-4.74 1.77-.732 4.04-.865 5.75 0 1.383.699 2.268 2.272 2.75 3.742.415 1.265.599 2.803 0 3.992-.606 1.203-1.907 2.276-3.25 2.41-1.1.109-2.401-.485-3-1.412-.545-.845-.27-2.388-.043-3.012" stroke="#55A" stroke-width="2" stroke-linecap="round" stroke-linejoin="round"/><path d="M162.077 394.185c2.032-4.545 2.922-10.608 5.37-15.498 2.258-4.508 4.364-9.61 8.48-12.531 2.61-1.854 6.125-2.97 9.288-2.465 2.224.355 4.293 1.897 5.66 3.679 1.434 1.868 2.213 4.359 2.177 6.71-.032 2.151-.82 4.405-2.177 6.079-1.287 1.59-3.254 2.668-5.224 3.227-1.606.456-3.483.675-5.007 0-1.784-.79-3.086-2.57-3.919-4.328-.738-1.557-1.25-3.457-.767-5.11.573-1.964 2.168-3.782 4.033-4.63 1.518-.69 3.518-.75 5.007 0 1.204.607 2.047 1.948 2.394 3.246.319 1.19.24 2.627-.414 3.67-.506.806-1.471 1.4-2.416 1.525-1.083.143-2.481-.092-3.13-.97-.615-.829-.56-2.787-.01-3.095M204.001 393.114c1.39-2.676 3.12-4.67 4.77-6.828M199.75 389.183c1.618-2.532 2.893-4.039 4.251-5.794M193.53 388.045c2.445-4.346 4.99-8.29 7.983-10.45M181.09 391.252c.145-2.366 1.461-4.67 2.177-7.346M175.44 388.717c.145-2.366 1.461-4.67 2.177-7.345M169.738 388.717c.248-3.399 3.75-10.847 5.702-13.967M158.282 388.976c.69-3.966 2.15-7.615 3.628-11.277 1.322-3.276 2.903-6.138 4.666-9.518M153.513 384.113c.76-2.931 1.729-5.91 2.799-8.794.952-2.564 2.039-4.828 3.214-7.552" stroke="#55A" stroke-width="2" stroke-linecap="round" stroke-linejoin="round"/><path d="M20.227 427.618s-5.47 6.657-7.072 10.585c-1.446 3.546-2.848 7.53-2.12 11.29.582 3.01 2.47 5.95 4.949 7.762 2.952 2.158 6.99 3.379 10.607 2.822 3.037-.467 5.849-2.552 7.778-4.94 1.497-1.853 2.243-4.333 2.475-6.703.289-2.963-.367-6.032-1.415-8.82-.78-2.078-2.266-3.823-3.535-5.645-1.488-2.136-4.77-6.184-4.77-6.184l9.893-13.58-9.738-13.921s4.713-5.483 6.383-8.654c1.508-2.864 2.862-5.953 3.182-9.173.258-2.598.064-5.404-1.061-7.762-1.111-2.329-3.162-4.2-5.303-5.645-1.886-1.272-4.09-2.384-6.364-2.47-2.832-.106-5.87.768-8.132 2.47-1.906 1.434-3.12 3.744-3.89 5.998-.913 2.677-.973 5.64-.7 8.455a23.635 23.635 0 0 0 2.301 8.121c1.657 3.356 6.718 9 6.718 9l-9.732 13.234 9.546 13.76z" stroke="#55A" stroke-width="2" fill="#FF5" stroke-linecap="round" stroke-linejoin="round"/><path d="M23.53 432.623s4.778 5.665 6.25 9.01c.74 1.68 1.45 3.55 1.215 5.37-.225 1.742-1.177 3.445-2.43 4.678-1.29 1.269-3.05 2.4-4.861 2.425-1.787.026-3.63-.96-4.862-2.252-1.378-1.444-2.109-3.555-2.257-5.544-.145-1.956.583-3.929 1.39-5.717 1.33-2.951 3.152-5.354 5.555-7.97zM23.603 395.547s4.757-6.278 6.25-9.875c.704-1.696 1.45-3.55 1.216-5.371-.225-1.742-1.177-3.445-2.431-4.678-1.29-1.269-3.05-2.4-4.861-2.425-1.787-.026-3.63.96-4.861 2.252-1.379 1.444-2.11 3.555-2.257 5.544-.146 1.956.625 3.91 1.389 5.717 1.353 3.204 3.152 6.22 5.555 8.836z" stroke="#55A" stroke-width="2" fill="#F55" stroke-linecap="round" stroke-linejoin="round"/><path stroke="#55A" stroke-width="2" fill="#55A" stroke-linecap="round" stroke-linejoin="round" d="M24.05 405.596l5.904 8.142-6.077 8.836-6.076-8.316z"/><g stroke="#55A" stroke-linecap="round" stroke-linejoin="round" stroke-width="2"><path d="M56.125 341.029c-2.21 4.82-3.847 10.17-7.445 14.078-3.396 3.687-7.946 6.432-12.675 8.107-3.812 1.35-8.013 1.341-12.057 1.354-1.716.005-4.021.772-5.12-.544-1.217-1.457-.57-4.06.43-5.674 1.618-2.613 5-3.775 7.925-4.732 2.487-.813 5.198-.658 7.817-.739-.615-4.227-.796-7.771-.055-11.55.47-2.401 2.16-4.866 2.805-6.787"/><path d="M28.875 363.732c0-1.29.68-2.77 0-3.867-.539-.87-1.76-1.107-2.75-1.373-1.29-.346-2.667-.333-4-.249-.889.056-1.75.333-2.625.499M18 358.243c-1.083-.291-2.43-.109-3.25-.873-1.03-.96-1.556-2.597-1.375-3.992.135-1.04 1.004-1.88 1.75-2.62 1.238-1.227 2.79-2.14 4.375-2.868a19.463 19.463 0 0 1 5.625-1.622c1.53-.195 3.125-.233 4.625.125.852.203 1.808.456 2.375 1.122.392.462.556 1.144.5 1.747-.069.74-.468 1.474-1 1.996a5.047 5.047 0 0 1-2.875 1.372c-.974.113-2.088-.04-2.875-.624-.689-.51-1.035-1.417-1.25-2.245-.157-.604-.118-1.259 0-1.871.085-.44.333-.832.5-1.248"/><path d="M14.625 350.634c-.958-.79-2.319-1.26-2.875-2.37-.392-.782-.45-1.808-.125-2.62.513-1.284 1.859-2.085 3-2.869 1.367-.938 2.914-1.636 4.5-2.12 1.572-.48 3.237-.603 4.875-.749 1.62-.144 3.263-.335 4.875-.125.732.096 1.538.177 2.125.624.505.386.927.991 1 1.622.076.653-.246 1.333-.625 1.87-.58.825-1.402 1.607-2.375 1.872-.893.243-1.876-.072-2.75-.374-.776-.269-1.67-.564-2.125-1.248-.349-.524-.304-1.244-.25-1.87.06-.695.417-1.331.625-1.997"/><path d="M14.5 342.526c-.625-.957-1.62-1.756-1.875-2.87-.29-1.266-.22-2.784.5-3.866.827-1.242 2.462-1.761 3.875-2.246 1.75-.6 3.654-.623 5.5-.748 1.58-.107 3.206-.348 4.75 0 .945.213 1.917.587 2.625 1.247.559.521 1.087 1.234 1.125 1.996.036.725-.359 1.485-.875 1.996-.676.67-1.685.972-2.625 1.123-.95.152-2.02.192-2.875-.25-.63-.325-1.096-.97-1.375-1.621a4.066 4.066 0 0 1-.25-2.37c.155-.748.75-1.331 1.125-1.996"/><path d="M16.375 333.67c-.792-.375-2.16-.69-2.5-1.622-.343-.94.342-2.023.875-2.87.753-1.195 1.825-2.309 3.125-2.869 1.074-.462 2.33-.267 3.5-.249 1.633.025 3.296.08 4.875.499 1.19.316 2.627.52 3.375 1.497.333.434.388 1.092.25 1.621-.239.918-.935 1.758-1.75 2.246-1.052.63-2.496 1.1-3.625.623-1.022-.431-1.581-1.676-1.875-2.744a3.117 3.117 0 0 1 .125-1.996c.266-.622.917-.998 1.375-1.497M23.375 325.312c.358-1.165 2.257-2.329 4.25-3.493"/></g><path d="M196 360.613h-81.364s9.907.705 14.485 2.44c2.079.787 5.657 3.527 5.657 3.527l39.244 1.059s3.598-2.514 5.657-3.176c2.032-.652 4.276-1.146 6.364-.705 1.602.338 3.033 1.369 4.243 2.47.749.681 1.321 1.56 1.768 2.47.541 1.102.882 2.313 1.06 3.527.171 1.164 0 3.529 0 3.529l2.886-5.162v-9.979z" stroke="#55A" stroke-width="2" fill="#55A" stroke-linecap="round" stroke-linejoin="round"/><path d="M196 355.623h-87" stroke="#55A" stroke-width="2" stroke-linecap="round" stroke-linejoin="round"/><path d="M163.616 329.775c-1.406 1.403 1.405 4.549 0 5.952-1.406 1.402-4.558 1.402-5.964 0-1.406-1.403 1.406-4.549 0-5.952-1.406-1.402-4.558 1.403-5.964 0-1.406-1.402-1.406-4.548 0-5.951 1.406-1.403 4.558 1.403 5.964 0 1.406-1.403-1.406-4.549 0-5.952 1.406-1.402 4.558-1.402 5.964 0 1.405 1.403-1.406 4.55 0 5.952 1.405 1.403 4.558-1.403 5.964 0 1.405 1.403 1.405 4.549 0 5.951-1.406 1.403-4.559-1.402-5.964 0z" fill="#FFF"/><path d="M92.326 363.422l-6.826-4.805 42-65.114s1.31 2.171 2.25 2.994c1.15 1.006 4 2.245 4 2.245l-41.424 64.68z" fill="#FF5"/><path fill="#55A" d="M85.695 358.747l-3.945-2.375 43-66.611 2.5 3.991z"/><path fill="#FF5" d="M82.076 356.068l-4.826-3.438 45-69.356 2.315 7.088z"/><path fill="#F55" d="M76.75 352.63L2 305.478v-7.983l77.5 49.397z"/><path fill="#000" d="M80.065 347.559l5.473-8.67L2 285.27v12.175z"/><path fill="#F55" d="M85.445 339.39l2.843-4.777L2 279.532v5.987z"/><path d="M1 238.867s16.21 12.636 22.75 20.457c5.586 6.68 10.379 14.18 13.75 22.204 3.096 7.37 5.723 23.283 5.723 23.283l7.75 4.878s-3.66-21.662-7.973-31.654c-3.988-9.237-9.7-17.801-16.25-25.447C19.308 243.9 1 229.885 1 229.885v8.982z" stroke="#55A" stroke-width="2" fill="#FF5" stroke-linecap="round" stroke-linejoin="round"/><path d="M67.75 319.698s-1.638-25.293-5-37.422c-2.468-8.903-6.124-17.594-11-25.447-6.727-10.834-15.18-20.748-24.75-29.189-7.759-6.843-26-16.965-26-16.965v-6.686s21.109 12.03 30.25 19.909c8.71 7.507 16.68 16.098 23 25.696 6.1 9.267 10.767 19.58 14 30.187 2.48 8.136 4 25.198 4 25.198l20.625-32.682 6.5 2.62-30.125 45.78-1.5-.999z" stroke="#55A" stroke-width="2" fill="#FF5" stroke-linecap="round" stroke-linejoin="round"/><path d="M1 121.112c9.97 2.23 19.678 5.047 29 8.981 1.923.812 3.7 1.938 5.5 2.994 5.78 3.392 11.701 6.628 17 10.728 1.537 1.19 2.818 2.677 4.25 3.991 4.453 4.086 9.124 7.933 13.5 12.1 3.09 2.944 6.11 5.967 9 9.106a190.465 190.465 0 0 1 8.875 10.354c4.412 5.54 8.883 11.077 12.625 17.089 4.602 7.393 9.071 15.004 12 23.202 1.487 4.163 1.89 8.637 2.75 12.973 1.07 5.392 2.096 10.794 3 16.216.373 2.239.713 4.484 1 6.736.794 6.222 1.342 12.473 2 18.71.338 3.202.317 6.46 1 9.606.465 2.144 1.095 4.286 2.094 6.24a18.841 18.841 0 0 0 3.151 4.402c1.755 1.837 3.762 3.49 5.988 4.717 1.512.834 3.193 1.379 4.884 1.73 1.495.31 3.046.21 4.57.314 0 0 9.12 8.971 15.063 10.123 4.809.932 14.377-3.044 14.377-3.044s8.98 6.961 14.16 6.522c3.717-.315 9.225-6.323 9.225-6.323s7.439 5.21 11.47 4.452c4.363-.821 9.803-8.998 9.803-8.998" stroke="#55A" stroke-width="2" stroke-linecap="round" stroke-linejoin="round"/><path stroke="#55A" stroke-width="2" stroke-linecap="round" stroke-linejoin="round" d="M143.186 301.301L115 345.644h81"/><path d="M52.375 143.815c-1 6.819-2.843 13.398-3.125 20.208-.341 8.246-.121 16.659 1.75 24.698 1.954 8.394 5.492 16.454 9.75 23.95 4.372 7.698 9.597 15.086 16 21.206 5.843 5.584 12.788 10.064 20 13.721 7.166 3.635 15.667 5.323 22.75 7.984-2.167-13.06-4.333-23.173-6.5-33.68-5-3.326-11.525-7.17-16.5-11.726a54.002 54.002 0 0 1-8.5-9.979c-2.877-4.343-5.205-9.082-7-13.97-1.091-2.974-1.97-6.077-2.25-9.231-.235-2.656.5-5.822.5-7.984L66 155.54l-13.625-11.725z" stroke="#55A" stroke-width="2" fill="#FF5" stroke-linecap="round" stroke-linejoin="round"/><path d="M57.5 149.054c-.917 5.571-2.593 11.07-2.75 16.715-.217 7.775.594 15.66 2.5 23.202 1.782 7.052 4.703 13.853 8.25 20.208 4.064 7.28 8.795 14.365 14.75 20.207 5.375 5.273 11.806 9.518 18.5 12.973 5.736 2.961 12.167 4.325 18.25 6.487l-2.5-15.717c-2.833-1.165-5.795-2.056-8.5-3.493-3.713-1.973-7.196-4.388-10.5-6.986-2.988-2.349-5.822-4.92-8.375-7.733a69.624 69.624 0 0 1-7.375-9.73c-2.237-3.56-4.222-7.31-5.75-11.227-1.474-3.779-2.62-7.72-3.25-11.725-.621-3.947-.514-7.98-.5-11.975.012-3.414.5-7.152.5-10.23L57.5 149.055z" stroke="#55A" stroke-width="2" fill="#55A" stroke-linecap="round" stroke-linejoin="round"/><path d="M113.75 226.642c-4.167-1.372-8.365-3.776-12.125-6.362-4.254-2.925-8.153-6.41-11.625-10.228-2.868-3.153-5.313-6.697-7.5-10.354-2.11-3.53-4.057-7.208-5.375-11.102-1.266-3.739-1.998-7.672-2.375-11.6-.373-3.891.125-8.067.125-11.726" stroke="#55A" stroke-width="2" stroke-linecap="round" stroke-linejoin="round"/><g fill="#F55"><path d="M108.033 253.114s6.188 2.87 7.875 5.613c1.455 2.366 1.25 8.233 1.25 8.233s-4.943-2.935-6.5-5.239c-1.68-2.486-2.625-8.607-2.625-8.607zM107.783 253.114s-4.664 5.22-7.875 5.863c-2.358.472-7-1.747-7-1.747s3.498-3.866 5.875-4.615c2.865-.902 9 .499 9 .499zM105.658 258.977c1.812.29 3.718 2.422 3.5 4.24-.248 2.065-2.949 4.106-5 3.743-1.957-.346-3.675-3.052-3.25-4.99.4-1.825 2.901-3.29 4.75-2.993z"/></g><path d="M34.033 299.48s3.548-4.201 3.95-6.786c.235-1.515.12-3.44-1-4.49-1.169-1.096-3.161-.955-4.75-.75-3.612.468-10 4.391-10 4.391l3.75 2.195s3.143-2.88 5-2.593c1.048.16 2.006 1.215 2.25 2.245.302 1.28-1.25 3.742-1.25 3.742l2.05 2.045zM20.64 290.57s6.314-2.526 8.55-4.939c1.441-1.557 2.65-3.62 2.75-5.738.078-1.682-.53-3.577-1.75-4.74-1.48-1.41-3.806-1.87-5.85-1.847-2.167.025-4.244 1.07-6.15 2.097-2.509 1.351-4.514 3.475-6.75 5.239-1.023.806-3.05 2.444-3.05 2.444l3.45 2.195s4.986-4.681 8.1-5.887c1.406-.545 3.089-1.034 4.5-.499 1.047.398 2.319 1.378 2.25 2.495-.103 1.648-2.436 2.242-3.75 3.243-1.93 1.47-6.05 4.041-6.05 4.041l3.75 1.896zM6.7 281.677s7.636-5.283 10.8-8.632c1.681-1.78 4.042-3.55 4.25-5.987.18-2.113-.953-4.608-2.75-5.738-1.128-.71-2.74-.437-4 0-2.41.836-4.025 3.129-6 4.74-2.701 2.203-8 6.736-8 6.736v3.89s4.23-3.44 6.4-5.088c2.164-1.645 3.98-4.058 6.6-4.79.966-.27 2.617-.676 3 .25.835 2.018-2.68 3.47-4.25 4.99-1.516 1.466-3.28 2.654-4.952 3.942-1.563 1.205-4.748 3.542-4.748 3.542l3.65 2.145zM1 269.351s9.493-5.65 12-10.276c.92-1.697 1.43-3.933.75-5.738-.664-1.766-2.385-3.444-4.25-3.743-1.88-.3-3.865.942-5.25 2.246-1.762 1.658-3.25 6.485-3.25 6.485s3.804-4.842 6.25-4.24c1.375.339 2.178 2.34 2 3.742-.17 1.343-1.735 2.095-2.75 2.994-1.688 1.495-5.5 3.941-5.5 3.941v4.59z" fill="#FF5"/><path d="M51.75 305.228s6.763 3.151 9.75 1.747c1.384-.651 2.868-2.595 2.25-3.992-.45-1.015-2.14-.806-3.25-.748-3.08.159-8.75 2.993-8.75 2.993z" fill="#FFF"/><g stroke="#55A" stroke-linecap="round" stroke-linejoin="round" stroke-width="2"><path d="M101.149 242.275c1.716.647 3.845.556 5.499-.237 1.646-.788 3.05-2.38 3.605-4.115.516-1.616.293-3.57-.516-5.06-.817-1.505-2.366-2.715-4.003-3.227-1.555-.486-3.408-.353-4.877.352-1.532.736-2.884 2.142-3.462 3.737-.592 1.638-.448 3.634.278 5.217.669 1.458 1.973 2.766 3.476 3.333z" fill="#FF5"/><path d="M103.196 238.592c1.203.296 2.877-.673 3.215-1.863.34-1.198-.564-2.967-1.769-3.294-1.279-.346-3.09.781-3.392 2.069-.278 1.183.763 2.797 1.946 3.088z"/></g><path d="M102.884 214.542c1.535.365 3.683-1.019 4-2.654.267-1.37-.966-3.136-2.25-3.45-1.49-.365-3.63.812-4 2.389-.334 1.429.897 3.393 2.25 3.715zM97.839 208.287c1.837.482 4.408-1.346 4.788-3.505.319-1.809-1.156-4.141-2.693-4.556-1.785-.481-4.347 1.073-4.789 3.154-.4 1.887 1.074 4.482 2.694 4.907zM92.26 201.172c2.199.51 5.278-1.428 5.734-3.717.381-1.92-1.385-4.393-3.226-4.833-2.137-.51-5.206 1.138-5.734 3.346-.48 2.001 1.285 4.753 3.225 5.204zM87.52 193.075c1.958.438 4.7-1.223 5.104-3.185.34-1.645-1.232-3.765-2.87-4.142-1.903-.437-4.634.976-5.104 2.867-.427 1.716 1.144 4.074 2.87 4.46zM83.634 184.983c1.535.343 3.683-.958 4-2.495.267-1.288-.966-2.948-2.25-3.243-1.49-.343-3.63.763-4 2.245-.334 1.343.897 3.19 2.25 3.493z" stroke="#55A" stroke-width="2" fill="#FF5" stroke-linecap="round" stroke-linejoin="round"/><path stroke="#55A" stroke-width="2" stroke-linecap="round" stroke-linejoin="round" d="M191 351.632v-1.996h-10v1.996z"/><g stroke="#55A" stroke-linecap="round" stroke-linejoin="round" stroke-width="2"><path d="M88.87 234.888c1.716.647 3.845.556 5.499-.237 1.646-.788 3.051-2.38 3.606-4.115.515-1.616.292-3.57-.517-5.06-.816-1.505-2.365-2.715-4.002-3.227-1.556-.486-3.409-.353-4.878.352-1.532.736-2.884 2.142-3.461 3.737-.593 1.638-.449 3.634.278 5.217.668 1.458 1.972 2.766 3.475 3.333z" fill="#FF5"/><path d="M90.917 231.205c1.204.296 2.877-.673 3.215-1.863.34-1.198-.564-2.967-1.769-3.294-1.278-.346-3.089.781-3.392 2.069-.278 1.183.763 2.797 1.946 3.088z"/></g><g stroke="#55A" stroke-linecap="round" stroke-linejoin="round" stroke-width="2"><path d="M78.87 225.906c1.716.647 3.845.557 5.499-.236 1.646-.789 3.051-2.38 3.606-4.116.515-1.615.292-3.569-.517-5.06-.816-1.504-2.365-2.715-4.002-3.226-1.556-.487-3.409-.353-4.878.352-1.532.735-2.884 2.142-3.461 3.737-.593 1.638-.449 3.634.278 5.217.668 1.458 1.972 2.766 3.475 3.332z" fill="#FF5"/><path d="M80.917 222.224c1.204.296 2.877-.674 3.215-1.863.34-1.199-.564-2.968-1.769-3.294-1.278-.347-3.089.78-3.392 2.068-.278 1.184.763 2.798 1.946 3.089z"/></g><g stroke="#55A" stroke-linecap="round" stroke-linejoin="round" stroke-width="2"><path d="M71.12 214.93c1.716.646 3.845.556 5.499-.237 1.646-.789 3.051-2.38 3.606-4.116.515-1.615.292-3.569-.517-5.06-.816-1.505-2.365-2.715-4.002-3.227-1.556-.486-3.409-.353-4.878.353-1.532.735-2.884 2.141-3.461 3.737-.593 1.638-.449 3.633.278 5.217.668 1.458 1.972 2.766 3.475 3.332z" fill="#FF5"/><path d="M73.167 211.247c1.204.295 2.877-.674 3.215-1.863.34-1.199-.564-2.968-1.769-3.294-1.278-.347-3.089.78-3.392 2.068-.278 1.184.763 2.797 1.946 3.089z"/></g><g stroke="#55A" stroke-linecap="round" stroke-linejoin="round" stroke-width="2"><path d="M65.12 202.33c1.716.647 3.845.557 5.499-.236 1.646-.789 3.051-2.38 3.606-4.116.515-1.615.292-3.569-.517-5.06-.816-1.504-2.365-2.714-4.002-3.226-1.556-.487-3.409-.353-4.878.352-1.532.736-2.884 2.142-3.461 3.737-.593 1.638-.449 3.634.278 5.217.668 1.458 1.972 2.766 3.475 3.332z" fill="#FF5"/><path d="M67.167 198.648c1.204.296 2.877-.674 3.215-1.863.34-1.199-.564-2.968-1.769-3.294-1.278-.347-3.089.781-3.392 2.068-.278 1.184.763 2.798 1.946 3.089z"/></g><g stroke="#55A" stroke-linecap="round" stroke-linejoin="round" stroke-width="2"><path d="M60.745 189.233c1.716.647 3.845.556 5.499-.236 1.646-.79 3.051-2.38 3.606-4.116.515-1.616.292-3.57-.517-5.06-.816-1.505-2.365-2.715-4.002-3.227-1.556-.486-3.409-.353-4.878.352-1.532.736-2.884 2.142-3.461 3.738-.593 1.637-.449 3.633.278 5.216.668 1.458 1.972 2.766 3.475 3.333z" fill="#FF5"/><path d="M62.792 185.55c1.204.296 2.877-.673 3.215-1.863.34-1.198-.564-2.967-1.769-3.294-1.278-.346-3.089.781-3.392 2.069-.278 1.184.763 2.797 1.946 3.088z"/></g><g stroke="#55A" stroke-linecap="round" stroke-linejoin="round" stroke-width="2"><path d="M59.87 162.638c1.716-.647 3.845-.557 5.499.236 1.646.789 3.051 2.38 3.606 4.116.515 1.615.292 3.569-.517 5.06-.816 1.505-2.365 2.715-4.002 3.227-1.556.486-3.409.353-4.878-.353-1.532-.735-2.884-2.141-3.461-3.737-.593-1.638-.449-3.633.278-5.217.668-1.458 1.972-2.766 3.475-3.332z" fill="#FF5"/><path d="M61.917 166.32c1.204-.295 2.877.674 3.215 1.863.34 1.199-.564 2.968-1.769 3.294-1.278.347-3.089-.78-3.392-2.068-.278-1.184.763-2.797 1.946-3.089z"/></g><g stroke="#55A" stroke-linecap="round" stroke-linejoin="round" stroke-width="2"><path d="M59.117 150.746c-1.718 1.638-2.152 4.74-1.347 6.963.618 1.71 2.434 3.126 4.225 3.457 2.2.408 5.595-.067 6.374-2.107" fill="#FF5"/><path d="M62.143 152.678c-1.051.615-1.13 3.112-.149 4.035.84.789 2.848.99 3.444-.334"/></g><g stroke="#55A" stroke-linecap="round" stroke-linejoin="round" stroke-width="2.001"><path d="M114.988 234.468c-2.305.183-4.557 2.263-5.335 4.44-.599 1.674-.173 3.862 1.018 5.215 1.476 1.677 4.619 3.387 6.47 2.322" fill="#FF5"/><path d="M116.055 237.79c-1.17-.18-2.78 1.66-2.618 2.963.139 1.113 1.518 2.5 2.788 1.865"/></g><g fill="#F55"><path d="M85.274 241.931s4.915 4.132 5.78 7.081c.745 2.543-.864 7.948-.864 7.948s-3.77-3.898-4.624-6.408c-.92-2.708-.292-8.62-.292-8.62zM85.047 241.872s-5.495 3.748-8.563 3.586c-2.253-.12-5.924-3.28-5.924-3.28s4.11-2.766 6.447-2.9c2.817-.16 8.04 2.594 8.04 2.594zM81.698 246.818c1.573.7 2.784 3.132 2.145 4.77-.725 1.86-3.67 3.118-5.442 2.296-1.69-.785-2.592-3.707-1.736-5.407.806-1.602 3.428-2.372 5.033-1.659z"/></g><g fill="#F55"><path d="M67.244 224.501s3.711 5.54 3.734 8.637c.02 2.67-3.112 7.306-3.112 7.306s-2.64-4.946-2.777-7.619c-.146-2.884 2.155-8.324 2.155-8.324zM67.035 224.371s-6.523 1.792-9.525.64c-2.205-.846-4.956-5.056-4.956-5.056s4.868-1.304 7.228-.672c2.845.762 7.253 5.088 7.253 5.088zM62.305 228.004c1.364 1.178 1.878 3.894.778 5.25-1.248 1.54-4.53 1.784-6.058.423-1.457-1.3-1.524-4.38-.192-5.726 1.255-1.267 4.08-1.15 5.472.053z"/></g><g fill="#F55"><path d="M53.788 201.93s2.251 6.156 1.532 9.167c-.62 2.596-4.75 6.442-4.75 6.442s-1.36-5.355-.852-7.979c.55-2.83 4.07-7.63 4.07-7.63zM53.619 201.76s-6.718.374-9.335-1.373c-1.923-1.283-3.567-5.946-3.567-5.946s5.005-.248 7.129.86c2.56 1.335 5.773 6.458 5.773 6.458zM48.189 204.297c1.033 1.43.877 4.173-.507 5.26-1.572 1.234-4.795.784-5.94-.858-1.095-1.566-.422-4.572 1.185-5.599 1.513-.967 4.207-.262 5.262 1.197z"/></g><g fill="#F55"><path d="M47.909 178.197s-.051 6.642-1.832 9.277c-1.535 2.271-6.904 4.554-6.904 4.554s.62-5.576 2.057-7.912c1.552-2.52 6.679-5.92 6.679-5.92zM47.806 177.977s-6.612-1.908-8.506-4.46c-1.39-1.874-1.293-6.885-1.293-6.885s4.916 1.452 6.563 3.226c1.987 2.14 3.236 8.119 3.236 8.119zM41.655 178.57c.48 1.715-.66 4.285-2.387 4.856-1.961.65-4.906-.868-5.419-2.823-.49-1.866 1.244-4.51 3.164-4.95 1.809-.415 4.152 1.168 4.642 2.917z"/></g><g fill="#F55"><path d="M49.187 152.91s-1.979 6.31-4.457 8.313c-2.138 1.727-7.968 2.377-7.968 2.377s2.216-5.132 4.278-6.948c2.225-1.96 8.147-3.741 8.147-3.741zM49.152 152.672s-5.81-3.691-6.89-6.658c-.795-2.179.754-6.922.754-6.922s4.31 2.776 5.38 4.933c1.29 2.6.756 8.647.756 8.647zM43.06 151.493c-.036 1.768-1.88 3.892-3.708 3.946-2.076.061-4.469-2.218-4.395-4.225.07-1.915 2.508-3.942 4.483-3.816 1.86.119 3.656 2.29 3.62 4.095z"/></g><path d="M50.06 293.207s7.236 1.829 9.905-.11c1.237-.899 2.33-3.087 1.46-4.343-.632-.912-2.254-.39-3.333-.126-2.995.733-8.032 4.58-8.032 4.58zM47.309 282.226s7.431.692 9.769-1.635c1.083-1.078 1.824-3.407.77-4.514-.765-.805-2.286-.04-3.312.388-2.846 1.185-7.227 5.76-7.227 5.76zM43.239 271.784s7.42-.802 9.246-3.547c.845-1.273 1.105-3.703-.148-4.578-.911-.636-2.249.417-3.169 1.04-2.55 1.729-5.93 7.085-5.93 7.085zM36.99 260.486s7.42-.802 9.246-3.548c.846-1.272 1.106-3.702-.148-4.577-.91-.636-2.248.417-3.168 1.04-2.551 1.728-5.93 7.085-5.93 7.085zM29.541 251.13s7.216-1.905 8.607-4.894c.645-1.384.536-3.826-.835-4.503-.997-.492-2.16.75-2.976 1.503-2.262 2.091-4.796 7.894-4.796 7.894zM20.33 241.674s7.215-1.905 8.606-4.893c.645-1.385.536-3.827-.835-4.504-.997-.492-2.16.75-2.976 1.504-2.262 2.09-4.796 7.893-4.796 7.893zM11.318 233.659s6.97-2.664 8.034-5.784c.492-1.445.122-3.861-1.313-4.388-1.044-.383-2.068.975-2.798 1.812-2.025 2.32-3.923 8.36-3.923 8.36zM2.141 227.538s6.56-3.551 7.206-6.783c.299-1.497-.385-3.844-1.878-4.179-1.084-.243-1.921 1.237-2.535 2.162-1.704 2.565-2.793 8.8-2.793 8.8z" fill="#FFF"/><g fill="#FFF"><path d="M106.528 288.625s-2.919-5.732-5.7-6.458c-1.48-.386-3.87.059-4.33 1.515-.335 1.058 1.033 2.068 1.945 2.703 2.293 1.598 8.085 2.24 8.085 2.24zM108.984 288.567c.776-4.84 1.174-6.067-.981-8.563-.999-1.156-3.273-2.063-4.456-1.095-.86.703-.255 2.29.147 3.325.994 2.563 5.29 6.333 5.29 6.333zM107.607 290.795s-6.222-2.45-8.851-1.068c-1.123.591-2.188 2.178-1.759 3.37.374 1.041 1.95 1.322 3.058 1.298 2.789-.061 7.552-3.6 7.552-3.6z"/></g><g fill="#FFF"><path d="M95.144 304.29s-2.213-5.817-4.826-6.631c-1.46-.456-3.87.058-4.33 1.514-.335 1.059 1.05 2.045 1.944 2.704 2.04 1.503 7.212 2.414 7.212 2.414zM98.299 304.524s1.165-6.735-.806-9.028c-.997-1.159-3.274-2.063-4.457-1.095-.86.703-.228 2.28.147 3.325.958 2.668 5.116 6.798 5.116 6.798zM96.34 306.694s-5.65-2.716-8.094-1.475c-1.364.692-2.698 2.772-1.992 4.126.513.985 2.19.695 3.29.541 2.48-.344 6.795-3.192 6.795-3.192z"/></g><g fill="#FFF"><path d="M85.507 321.28s-2.322-6.172-5.088-7.039c-1.46-.457-3.871.059-4.331 1.515-.335 1.058 1.063 2.028 1.945 2.704 2.112 1.618 7.474 2.82 7.474 2.82zM88.37 321.02s1.172-6.669-.777-8.941c-.995-1.16-3.273-2.064-4.456-1.096-.86.704-.23 2.282.147 3.325.953 2.64 5.086 6.712 5.086 6.712zM86.848 323.596s-5.902-3.07-8.502-1.794c-1.373.673-2.697 2.771-1.992 4.126.513.984 2.186.661 3.291.54 2.57-.278 7.203-2.872 7.203-2.872z"/></g><path d="M1.552 278.507l86.902 55.702M95.918 365.61L1 305.075" stroke="#55A" stroke-width="2" fill="#000" stroke-linecap="round" stroke-linejoin="round"/><path d="M1 305.075v-26.052" stroke="#55A" stroke-width="2" stroke-linecap="round"/><path d="M76.538 353.189l45.85-69.97" stroke="#55A" stroke-width="2" fill="#000" stroke-linecap="round" stroke-linejoin="round"/><path stroke="#55A" stroke-width="2" stroke-linecap="round" stroke-linejoin="round" d="M176 351.632v-1.996h-10v1.996zM161 351.632v-1.996h-10v1.996zM146 351.632v-1.996h-10v1.996zM131 351.632v-1.996h-10v1.996zM116 351.632v-1.996h-3.3l-1.2 1.996z"/><path fill="#F55" d="M245 355.623v-22.328l17.375 11.85z"/><path fill="#000" d="M236.25 359.49l-.25-34.553 9.625 8.233-.375 22.329z"/><path d="M231.875 361.112l-.125-40.042-13.25-14.22-1.375-1.372s-1.654 1.84-2.5 2.744c-1.232 1.317-3.75 3.901-3.75 3.901L211 362.36l4.375 1.622 3.375 2.12 13.125-4.989z" stroke="#55A" stroke-width="2" fill="#55A" stroke-linecap="round" stroke-linejoin="round"/><path d="M218.775 364.948c.314-2.868.217-6.861.812-9.044.517-1.895 1.44-3.771 2.531-5.613 1.268-2.14 3.711-4.122 5.407-7.173 1.583-2.85 3.443-6.101 3.75-9.917.262-3.266-.519-4.575-1.97-7.422-1.675-3.288-4.591-4.952-6.093-6.83-1.187-1.483-3.174-2.603-3.906-4.022-.58-1.126-1.93-6.273-2.531-7.983l-5.125 4.054c.48 1.366 1.554 4.837 2.468 6.61.993 1.925 2.555 3.255 3.72 4.71 2.142 2.678 4.308 3.862 5.28 5.769 1.135 2.227 1.6 3.268 1.407 5.676-.215 2.666-.924 4.585-2.5 7.422-1.19 2.141-3.583 4.076-5.344 7.048-1.187 2.002-2.311 4.196-2.969 6.61-.813 2.984-.668 5.841-.937 8.296l6 1.809z" stroke="#55A" stroke-width="2" fill="#FF5"/><path d="M223.125 363.513l6-1.434c-.266-3.18.337-7.026-.969-10.946-1.19-3.577-3.73-6.027-5.219-8.42-1.748-2.81-3.819-4.83-4.375-6.923-.465-1.754-.134-4.008.282-6.393.367-2.106 1.007-4.188 1.937-6.081.599-1.218 1.769-2.477 2.875-4.148.924-1.395 1.669-2.17 2.531-3.524l-4-4.865c-.887 1.392-2.97 4.887-3.843 6.206-.843 1.273-2.167 2.633-3.125 4.584a26.626 26.626 0 0 0-2.313 7.142c-.413 2.37-.992 5.166-.219 8.077.95 3.573 3.525 5.875 4.875 8.045 1.829 2.94 3.99 5.168 4.782 7.547.91 2.731.463 7.328.781 11.133z" stroke="#55A" stroke-width="2" fill="#FF5" stroke-linecap="round" stroke-linejoin="round"/><path d="M218.625 366.476a218.947 218.947 0 0 0 15.875-5.738c4.281-1.744 8.547-3.563 12.625-5.738 5.792-3.09 11.167-6.903 16.75-10.354" stroke="#55A" stroke-width="2" stroke-linecap="round" stroke-linejoin="round"/><path d="M196 340.448v-31.65" stroke="#55A" stroke-width="2" fill="#FFF" stroke-linecap="round" stroke-linejoin="round"/><path d="M217.777 304.147s4.598 6.64 7.162 9.756c1.991 2.42 4.184 4.67 6.366 6.92 1.882 1.94 3.788 3.863 5.797 5.672 2.778 2.5 5.648 4.906 8.64 7.147 5.455 4.086 16.938 11.457 16.938 11.457" stroke="#55A" stroke-width="2" stroke-linecap="round" stroke-linejoin="round"/><path d="M145.384 271.762s4.597.923 4.42 5.428c-.094 2.387-2.803 5.048-5.303 5.067-2.626.02-4.705-2.899-5.657-5.236-.728-1.787-.312-3.934.353-5.743.743-2.019 2.943-3.296 3.89-5.236.591-1.213.788-2.572 1.06-3.885.254-1.226.53-3.715.53-3.715s1.362 3.888 1.591 5.911c.178 1.568.056 3.169-.176 4.73-.136.913-.708 2.68-.708 2.68zM164.312 277.77s5.304.432 5.127 5.37c-.094 2.617-2.803 5.535-5.303 5.556-2.626.021-4.705-3.178-5.657-5.74-.728-1.96-.312-4.313.353-6.296.743-2.214 2.943-3.614 3.89-5.74.591-1.33.808-2.818 1.06-4.26.297-1.693.53-5.131.53-5.131s1.368 4.98 1.591 7.539c.15 1.723.18 3.496-.176 5.185-.262 1.242-1.415 3.518-1.415 3.518zM185.349 282.798s5.303.432 5.126 5.37c-.093 2.617-2.803 5.535-5.303 5.555-2.625.022-4.704-3.177-5.657-5.74-.728-1.959-.312-4.312.354-6.296.742-2.213 2.943-3.613 3.889-5.74.592-1.33.863-2.81 1.06-4.259.295-2.162.177-6.543.177-6.543s1.67 5.91 1.945 8.95c.155 1.723.179 3.497-.177 5.185-.262 1.243-1.414 3.518-1.414 3.518z" fill="#000"/></g><path d="M301 202.193V176.65" stroke="#55A" stroke-width="2" stroke-linecap="round"/></g></svg>