<svg width="302" height="482" xmlns="http://www.w3.org/2000/svg"><g fill="none" fill-rule="evenodd"><path stroke="#030000" stroke-width="2" fill="#000" stroke-linecap="round" stroke-linejoin="round" d="M34.664 156.502l8.304-5.524.23 88.392-6.04-.64-5.039-1.057 2.417-6.394.59-3.879z"/><path fill="#FF5655" d="M197.474 247.328l-.967-17.039 3.544-22.825 4.972-21.218 5.337-18.967 4.51-12.217 6.765-13.502 5.477-9.645 3.221-6.75 2.255-2.573 2.577.322 2.578-2.893h3.543l19.652 10.93.322 3.858-6.443 8.68-6.765 11.895-7.41 14.788-5.799 17.039-3.866 18.967-1.933 14.788-1.288 12.86-8.327-.042-8.691 2.516-8.11 6.527z"/><path d="M123.646 179.017l-.481 49.177s2.764 1.593 3.606 2.879c.68 1.04.8 2.367.961 3.598.177 1.348 0 4.078 0 4.078s2.42-1.781 3.846-1.919c1.49-.144 3.053.416 4.327 1.2 1.015.623 2.404 2.638 2.404 2.638s1.446-10.705 1.202-16.072c-.265-5.83-1.434-11.618-2.885-17.272-1.325-5.17-3.052-10.266-5.288-15.113-2.132-4.622-7.692-13.194-7.692-13.194zM9.221 281.929L1 281.689v-98.354l13.75-12.234 15.626-11.515-.24 65.97-6.01.959-4.568 4.798.63 3.91 3.478 3.912-4.108 4.172-4.567 1.44-3.217 3.968.834 6.11-1.944 3.835.611 4.318 2.24 1.327-.612 4.706-.076 3.562 2.164 1.2-.24 3.838-5.049.96zM292.709 199.692l8.221.24v98.353l-13.75 12.235-15.625 11.514.24-65.969 6.01-.96 4.567-4.797-4.936-7.65 3.494-1.945 1.442-2.4 4.568-1.439 2.07-2.789.57-4.107-1.474-3.113 2.828-7.471-3.4-1.828 1.536-4.048.033-4.47-2.163-1.2.24-3.838 5.048-.96z" fill="#F55"/><path stroke="#030000" stroke-width="2" fill="#000" stroke-linecap="round" stroke-linejoin="round" d="M267.266 324.968l-8.304 5.675-.23-88.392 10.31 2.463-1.243 4.153-.662 3.412-.332 4.344z"/><path fill="#000" d="M151.435 357.017l-28.872-20.385-23.288 14.27-5.856-2.31-4.086.815-3.132 1.495-1.362-1.088-4.086.136 41.674-25.822 38.54 27.317-2.995 2.175-.545 1.223-2.588-1.087-2.179 1.087z"/><path fill="#F55" d="M150.972 356.597l-28.638-20.11-24.042 14.818 3.298 2.45 4.766 5.165.273-6.252 2.86-4.348 3.54-3.398 5.448-1.36 8.852-.271 8.989 4.62 6.673 7.204 3.95 6.115 2.996 5.029.68-5.844z"/><path fill="#000" d="M41.505 330.43l-.721-41.5 2.884-1.2 4.808 2.4 5.048-2.16.962-5.037-3.125-3.359h-5.53l-8.894.48-9.134 2.399-6.49-.48-4.328-3.118v-3.119l3.366.48 5.529-.24 4.567.96 7.212-.72 3.846-.96 3.125-5.997.961-7.916v-7.916l-1.442-6.237-1.923-3.839-3.606-4.078 19.471.48 6.01 3.838 3.846 2.4-1.442 12.473-3.606 21.11-5.048 18.232-4.567 11.514-5.048 10.315zM162.9 237.354l-23.808 6.237-1.433 20.87 1.193 18.731 2.654 11.735 3.605 13.914 4.808 12.714 5.53 11.034 5.047 9.836 5.53 8.156 5.528-2.16 3.365.24 5.289-.719 3.365 1.68 5.289-.96 2.884 2.878 1.683 2.16 3.846 2.398 2.164 2.4 1.202 3.358 14.663-6.957 13.943-6.717-11.78-7.197-15.144-11.754-12.019-11.515-9.856-11.274-6.73-10.795-6.01-12.235-4.087-16.312-1.202-13.673z"/><path fill="#FF5655" d="M104.457 234.293l.966 17.038-3.543 22.826-4.973 21.218-5.336 18.967-4.51 12.217-6.766 13.502-5.476 9.644-3.222 6.751-2.255 2.572-2.577-.321-2.577 2.893h-3.544l-19.651-10.93-.322-3.858 6.443-8.68 6.765-11.895 7.41-14.788 5.798-17.039 3.866-18.967 1.933-14.789 1.288-12.859 8.327.042 8.692-2.516 8.11-6.527z"/><path d="M74.25 248.282c-1.368 16.904-3.73 33.92-8.783 50.109-3.798 12.166-9.506 23.762-15.994 34.738-2.44 4.129-5.655 7.943-8.55 11.576l.126-11.793c7.512-12.746 14.45-26.19 18.946-40.35 4.754-14.973 6.222-30.811 8.245-46.397l6.01 2.117h0z" stroke="#000" stroke-width="2" fill="#FF5" stroke-linecap="round" stroke-linejoin="round"/><path stroke="#FF5" stroke-width="2" fill="#FF5" stroke-linecap="round" stroke-linejoin="round" d="M164.463 351.52l-2.477-.494-39.004-27.872-42.744 26.883-.495 2.72-2.725-.99-4.46 3.214 8.176-15.327 9.66-20.518 5.698-18.623 4.211-16.48 2.725-15.326 2.18-12.46.05-9.294 3.22 2.472 6.44-.989-.495 6.922 2.973 4.697 5.945.247 4.955-2.472.743-4.203-1.239-4.944 6.193 1.236 3.716-3.213-.495 16.81.512 13.144 1.717 11.082 3.303 14.387 3.7 11.19 5.784 15.91 6.287 9.684 7.432 11.618z"/><path d="M72.13 355.539c7.856-13.76 15.152-27.988 20.137-43.01 6.763-20.38 11.167-41.697 12.979-63.088.49-5.78-.16-11.61-.59-17.389" stroke="#020000" stroke-width="2" stroke-linecap="round" stroke-linejoin="round"/><path stroke="#55A" stroke-width="2" stroke-linecap="round" stroke-linejoin="round" d="M60.87 361.336l-9.98-5.209-9.96-5.476"/><g stroke="#55A" stroke-linecap="round" stroke-linejoin="round" stroke-width="2.002"><path fill="#FFF" d="M40.843 287.317v142.617l-14.5 12.197-12.5-12.197V284.97"/><path d="M25.788 441.74s2.943-16.073 3.144-24.207c.204-8.224-2.059-16.376-1.966-24.602.104-9.225 3.135-18.312 2.825-27.533-.224-6.654-3.056-13.038-3.37-19.689-.33-6.998 1.826-13.957 1.578-20.96-.164-4.615-1.785-9.095-2.016-13.708-.223-4.467-.132-8.994.616-13.403.682-4.022 3.5-11.729 3.5-11.729"/><path d="M19.468 231.84c0-3.801 3.206-6.883 7.16-6.883s7.16 3.082 7.16 6.883c0 3.802-3.206 6.884-7.16 6.884s-7.16-3.082-7.16-6.884z" fill="#FF5"/><path d="M29.082 238.21c1.732-1.635 1.885-2.956 1.789-4.597-.111-1.9-1.293-3.738-2.679-5.045-.671-.633-1.608-.991-2.517-1.154-.77-.138-1.904-.11-2.342.177" fill="#FF5"/></g><path d="M54.513 285.125c-.457 2.394-3.496 4.785-5.397 4.945-1.901.16-4.9-2.594-6.862-2.325-3.926.538-7.926.701-11.799.828-5.198.17-10.553.87-15.598-.392-3.24-.81-7.258-1.616-8.95-4.488-1.55-2.63-1.794-7.002.383-9.143 2.312-2.273 7.09-2.138 9.733-.26 1.754 1.247.242 4.835 1.948 6.146 3.896 2.995 9.824.917 14.737.704 3.899-.168 7.7-1.524 11.601-1.564 2.666-.028 5.772-.634 7.947.904 1.407.995 2.58 2.955 2.257 4.645z" stroke="#55A" stroke-width="2" fill="#FF5" stroke-linecap="round" stroke-linejoin="round"/><path d="M201.045 361.709c18.042-7.835 37.18-17.706 54.482-28.761 16.04-10.249 32.09-21.016 45.403-34.618" stroke="#55A" stroke-width="2" stroke-linecap="round" stroke-linejoin="round"/><path d="M249.351 299.47l5.423-18.317s-1.537 1.366-2.445 1.248c-.767-.099-1.305-.899-1.728-1.544-.866-1.32-1.487-4.492-1.487-4.492s-.298 2.797-1.014 3.955c-.414.67-1.005 1.439-1.786 1.547-.718.099-1.967-.925-1.967-.925l5.004 18.528z" fill="#55A"/><path d="M178.285 302.603l.48-49.176s-2.764-1.593-3.605-2.879c-.68-1.04-.8-2.367-.962-3.598-.177-1.348 0-4.078 0-4.078s-2.42 1.781-3.846 1.919c-1.49.143-3.052-.416-4.327-1.2-1.014-.623-2.404-2.638-2.404-2.638s-1.446 10.705-1.202 16.072c.265 5.83 1.435 11.617 2.885 17.272 1.326 5.17 3.052 10.266 5.288 15.113 2.133 4.622 7.693 13.193 7.693 13.193z" fill="#F55"/><path d="M26.112 434.083L13.977 422.55M27.268 425.722l-12.135-11.533M29.002 418.225L14.266 403.81M28.135 408.71l-13.77-13.163M27.283 399.618L14.33 387.27M26.45 390.8l-12.543-12.145M27.268 382.185l-13.36-12.553M28.424 374.976l-13.565-13.571M29.445 366.854l-15.2-14.388M28.424 358.254l-14.178-13.572M26.296 347.888l-12.135-11.533M26.331 339.935L14.196 328.4M26.824 332.15L14.69 320.617M27.846 325.096l-13.156-12.96M26.162 314.97l-11.318-10.922M25.753 305.828L14.844 295.11M26.585 297.565l-9.275-8.679" stroke="#55A" stroke-width="2" stroke-linecap="round" stroke-linejoin="round"/><g stroke="#55A" stroke-linecap="round" stroke-linejoin="round"><path d="M142.903 426.031c-.293.786-4.449 1.18-6.71 1.503-2.72.388-5.49.86-8.209.516-3.056-.386-6.143-1.248-8.857-2.866-1.233-.735-3.22-3.017-3.22-3.017s5.557 3.209 8.558 4.078c2.314.67 4.743.857 7.137.835 2.341-.022 4.644-.758 6.98-.944 1.438-.115 4.883-1.614 4.32-.105zM143.063 415.603s-1.677 1.403-2.574 2.025c-1.445 1.001-2.898 2.03-4.507 2.738-1.278.563-2.633 1.028-4.023 1.173a14.939 14.939 0 0 1-5.331-.404c-2.335-.618-4.483-1.846-6.547-3.098-1.356-.822-2.6-1.826-3.792-2.871-.555-.488-1.558-1.578-1.558-1.578s3.593-.524 5.336-.167c2.68.55 4.792 2.767 7.438 3.463 1.658.436 3.42.538 5.13.404 1.67-.131 3.242-.855 4.888-1.172.602-.115 1.21-.2 1.82-.264 1.235-.131 3.72-.249 3.72-.249z" stroke-width="2"/><path d="M120.014 412.717s3.202-2.993 5.197-3.772c1.434-.56 3.049-.506 4.589-.536 1.899-.037 3.867-.121 5.681.44 1.734.538 3.233 1.675 4.714 2.723.804.57 2.245 1.923 2.245 1.923s-2.772 1.226-4.204 1.714c-1.436.489-2.877 1.062-4.387 1.212-2.2.219-4.47.067-6.614-.471-2.558-.643-7.221-3.233-7.221-3.233z" stroke-width="2"/><path d="M137.088 412.582c0-2.008-2.417-3.637-5.399-3.637-2.981 0-5.399 1.629-5.399 3.637 0 2.009 2.418 3.637 5.4 3.637 2.981 0 5.398-1.628 5.398-3.637z" stroke-width="2.003"/><path d="M133.984 413.424c0-.837-.876-1.515-1.957-1.515s-1.957.678-1.957 1.515c0 .837.876 1.515 1.957 1.515 1.08 0 1.957-.678 1.957-1.515zM179.564 422.77s-1.857 1.061-3.12 2.89c-1.15 1.664-3.335 2.432-5.276 3.007-1.623.48-3.407.603-5.072.294-1.933-.36-3.662-1.463-5.37-2.435-1.017-.578-2.095-1.136-2.877-2.004-.88-.978-1.908-3.456-1.908-3.456.86 2.212 2.9 3.613 4.874 4.717 1.503.84 3.303 1.025 5.007 1.285 2.023.307 4.147.812 6.132.312 2.877-.725 7.61-4.61 7.61-4.61z" stroke-width="2" fill="#55A"/><path d="M155.834 419.83c.014-2.143.04-4.869.436-7.26.433-2.606 1.543-5.06 2.107-7.64.486-2.226.655-4.51 1.094-6.746.198-1.008.666-1.975.695-3.002.03-1.057.063-2.257-.54-3.126-1.2-1.73-3.81-1.877-5.455-3.19-.732-.585-1.314-1.332-1.92-2.05" stroke-width="2"/><path d="M141.96 398.949c-1.15.34-2.81-1.062-3.426-2.008-.807-1.24-.13-3.325.965-4.312 1.476-1.33 3.977-1.1 5.927-.702 1.629.331 2.729 2.015 4.326 2.475.966.279 2.185.693 3.015.127.491-.336.871-1.17.577-1.686-.417-.733-1.642-.407-2.478-.524-1.15-.16-2.339-.004-3.475-.243-1.29-.27-2.403-1.325-3.721-1.333-1.494-.009-3.264.33-4.235 1.463-1.047 1.223-1.52 3.29-.848 4.752.544 1.184 3.372 1.99 3.372 1.99zM130.896 389.706s-2.455 1.101-3.732.99c-.65-.056-1.357-.31-1.803-.825-.757-.876-1.098-2.2-1.092-3.4.006-1.284.327-2.759 1.201-3.625 1.379-1.365 3.555-1.603 5.422-1.531 1.803.069 3.44 1.182 5.127 1.878 1.14.47 2.196 1.178 3.366 1.55 1.295.412 2.646.85 3.992.737.826-.069 2.185.022 2.356-.856.129-.662-.795-1.145-1.385-1.368-1.595-.603-3.376.555-5.056.37-1.837-.205-3.528-1.207-5.336-1.609-1.697-.377-3.447-1.096-5.15-.75-1.4.286-2.832 1.056-3.743 2.245-.615.803-.93 1.927-.909 2.97.022 1.079.366 2.255 1.061 3.027.876.972 2.23 1.624 3.481 1.539.84-.057 2.2-1.342 2.2-1.342zM167.26 389.86s2.347-.81 3.084-1.728c.645-.802.839-1.928.89-2.955.072-1.41.071-3.05-.804-4.159-.555-.704-1.558-1.015-2.45-1.114-1.326-.148-2.648.407-3.918.815-1.33.426-2.529 1.193-3.834 1.692-1.207.462-2.394 1.161-3.686 1.2-.808.025-1.697-1.088-2.349-.61-.268.198-.192.698-.047.997.304.623 1.01 1.103 1.695 1.204 1.019.15 1.969-.608 2.925-.986 1.351-.535 2.636-1.224 3.965-1.812 1.397-.617 2.69-1.688 4.215-1.8 1.19-.086 2.658.031 3.46.913.945 1.038.88 2.764.68 4.153-.167 1.161-.682 2.357-1.526 3.175-.602.582-2.3 1.015-2.3 1.015h0zM138.934 376.596s2.448-.757 3.676-1.123c1.147-.34 2.25-1.01 3.447-.997 1.224.012 2.305.85 3.505 1.094.604.123 1.226.238 1.84.184 1.249-.111 2.363-1.044 3.617-1.029 1.122.013 2.204.49 3.217.998.626.315 1.723 1.247 1.723 1.247s-1.711-.94-2.643-.998c-1.215-.074-2.35.744-3.561.874-1.525.163-3.072.053-4.596-.125-1.008-.118-1.985-.457-2.987-.624-.99-.165-1.988-.455-2.987-.374-1.029.083-1.965.726-2.987.873-.418.06-1.264 0-1.264 0z" stroke-width="2" fill="#55A"/><path d="M157.125 416.13s3.289 2.47 5.125 3.368c1.503.736 3.088 1.431 4.75 1.622 1.565.18 3.156-.17 4.7-.473 1.118-.22 2.275-.43 3.276-.973 1.117-.606 2.9-2.473 2.9-2.473" stroke-width="2"/><path d="M177.486 413.278s-3.08-2.759-4.917-3.633c-1.36-.648-2.87-1.059-4.374-1.126-1.975-.087-3.98.33-5.858.964-1.184.4-2.25 1.083-3.317 1.759-.76.481-2.186 1.628-2.186 1.628s2.232 1.596 3.404 2.276c1.175.681 2.344 1.447 3.626 1.799 1.869.512 3.878.8 5.766.408 2.883-.597 7.856-4.075 7.856-4.075z" stroke-width="2"/><path d="M161.552 412.781c.262-2.012 2.566-3.372 5.147-3.038 2.58.335 4.46 2.237 4.2 4.249-.262 2.012-2.567 3.372-5.147 3.038-2.581-.334-4.461-2.236-4.2-4.249z" stroke-width="2.002"/><path d="M164.131 413.966c.11-.839.956-1.42 1.891-1.299.936.121 1.606.899 1.497 1.737-.109.839-.956 1.42-1.891 1.299-.936-.121-1.606-.899-1.497-1.737z" stroke-width="2.011" fill="#55A"/><path d="M139.375 408.77l-5.125-4.49M159.375 407.15l5.125-3.743" stroke-width="2"/></g><path stroke="#55A" stroke-width="2" stroke-linecap="round" stroke-linejoin="round" d="M180.142 432.124l-.066-5.783-1.302-9.796-.501-7.497.2-9.796-.701-7.797-2.104-10.596-1.47-7.879.168-4.616"/><path d="M178.78 415.144s.402-2.344.936-3.387c.681-1.332 1.611-2.604 2.809-3.504 1.215-.913 2.693-1.83 4.213-1.752 1.552.08 3.214.943 4.096 2.22.827 1.196.861 2.894.586 4.32-.255 1.32-.84 2.808-1.99 3.505-.9.546-2.186.52-3.16.117-.689-.285-1.215-.958-1.522-1.636-.322-.713-.234-2.335-.234-2.335s-1.31 2.116-1.755 3.27c-.58 1.497-.878 3.093-1.17 4.672-.237 1.272-.248 2.579-.469 3.854-.211 1.22-.82 3.62-.82 3.62M178.428 407.436s.639-4.415 1.288-6.54c.616-2.02 1.372-4.028 2.457-5.84.67-1.118 1.434-2.233 2.458-3.037 1.29-1.013 4.448-2.103 4.448-2.103s-2.482 1.801-2.575 3.154c-.072 1.046.782 2.08 1.638 2.686.911.646 2.172.864 3.278.7 1.278-.187 2.571-.873 3.394-1.868.887-1.073 1.305-2.58 1.287-3.97-.019-1.404-.494-2.902-1.404-3.972-1.153-1.355-2.923-2.289-4.682-2.57-1.881-.3-3.898.234-5.618 1.052-1.524.724-2.843 1.926-3.862 3.27-1.19 1.57-2.458 5.373-2.458 5.373" stroke="#55A" stroke-width="2" stroke-linecap="round" stroke-linejoin="round"/><g stroke="#55A" stroke-linecap="round" stroke-linejoin="round" stroke-width="2"><path d="M114.805 360.25c-3.344.732-3.749-4.07-2.495-5.738 1.461-1.943 5.73-.987 7.244.915 2.024 2.544 1.436 7.54-1 9.694-2.143 1.895-6.158 1.358-8.59-.152-2.222-1.38-3.517-4.358-3.59-6.97-.121-4.262 1.622-9.375 5.212-11.687 6.222-4.008 16-3.89 22.215.126 5.309 3.43 7.858 7.632 11.01 12.07 1.756 2.47 3.784 6.843 4.325 7.996"/><path d="M143.959 366.427c-1.521-3.354-3.398-6.325-5.92-8.807-3.301-3.247-7.205-6.279-11.657-7.565-3.44-.994-7.406-1.153-10.746.14-1.361.526-2.689 2.402-3.274 2.904"/><path d="M139.398 366.752c-2.211-3.203-5.17-7.183-8.844-9.448-3.587-1.642-7.293-3.256-10.862-2.417M134.675 368.702c-1.656-2.831-3.767-5.54-6.483-7.365-2.012-1.351-4.5-1.851-6.872-2.387M130.278 371.14c-1.937-2.225-3.58-4.124-5.817-5.637-1.245-.842-3.058-1.421-4.118-1.84M126.695 374.39c-1.603-2.345-3.561-4.536-5.917-6.12-1.246-.839-3.26-1.262-4.181-1.68M122.786 377.479c-2.093-2.917-3.703-4.476-5.939-6.304-2.005-1.639-5.97-3.551-6.602-4.098M118.714 380.73c-1.197-2.343-2.846-4.457-4.705-6.308-.723-.72-1.622-1.24-2.46-1.82"/></g><g fill="#FFF" stroke="#55A" stroke-linecap="round" stroke-linejoin="round" stroke-width="2"><path d="M45.659 267.347c-.434 1.887-1.334 3.672-2.388 5.297-.773 1.19-1.575 2.516-2.831 3.178-1.446.76-3.238.458-4.865.617-2.53.249-5.145 1.157-7.608.53-.848-.216-1.366-1.187-2.211-1.412-1.769-.47-3.707.698-5.485.265-.795-.195-1.663-.56-2.123-1.236-.334-.493-.265-1.766-.265-1.766s-2.641.704-3.715.089c-.847-.486-1.269-1.597-1.416-2.56-.2-1.307.278-2.668.796-3.885a8.917 8.917 0 0 1 1.947-2.824c.378-.373 1.326-.883 1.326-.883s-2.705 1.353-3.98.883c-.83-.307-1.42-1.253-1.592-2.119-.184-.924.38-1.853.707-2.736.466-1.26.818-2.67 1.77-3.62.997-.996 3.803-1.853 3.803-1.853s-2.717.913-3.892.353c-.767-.367-1.252-1.286-1.415-2.119-.225-1.15.15-2.411.707-3.443.415-.77 1.098-1.419 1.858-1.853.608-.348 2.034-.53 2.034-.53s-2.66-.812-2.83-1.942c-.19-1.264 1.255-2.408 2.388-3.001 2.329-1.22 5.315.08 7.873-.53 1.465-.35 2.694-1.409 4.158-1.766 2.24-.546 4.652-1.048 6.9-.53 1.699.393 3.26 1.435 4.51 2.649 1.473 1.428 2.377 3.365 3.274 5.208.916 1.884 1.69 3.866 2.123 5.915.592 2.8.547 5.701.619 8.562.033 1.324-.055 2.649-.089 3.973-.026 1.03.143 2.085-.088 3.09h0z"/><path d="M18.414 272.114c1.54-2.236 3.975-4.108 6.814-4.052 1.92-.374 3.856.727 5.67.243 1.253-.808 1.852-2.524 3.152-3.33 1.422-.882 3.46-1.533 4.802-1.475"/><path d="M16.998 262.492c3.159-1.827 5.732-3.6 9.405-3.96 1.604-.021 3.804-.113 4.586 1.614.685 1.363.138 3.144-1.272 3.801-2.373 1.376-4.824 3.724-7.411 4.636"/><path d="M27.648 264.964c-1.583-.017-4.293-1.353-4.515-3.165-.222-.626-.24-1.299-.262-1.955M17.352 253.488c4.034-.762 7.33-2.145 11.443-1.508 1.413.479 3.342.946 3.807 2.567.112 1.569-1.314 2.87-2.641 3.446-.522.15-2.418.46-2.959.5"/><path d="M26.313 258.326c-1.588-.772-3.133-3.146-2.63-4.758.046-.264.098-.526.161-.786M27.083 275.38c-.41-1.331-1.048-3.11-2.725-3.11-1.984-.109-3.864.612-5.59 1.521M26.798 251.723c2.422-.16 3.947-1.744 3.643-3.367-.45-2.405-2.84-2.886-6.835-2.708-2.47-.066-2.932.493-5.402.13-.55-.045-1.099-.093-1.648-.146"/><path d="M25.844 245.632c1.95-.684 3.85-2.666 2.508-3.915-.695-.877-2.527-1.467-3.57-1.647M24.287 251.458c-1.087-.84-1.566-1.805-1.61-2.913-.035-.871.869-1.984 1.079-2.384M23.456 245.19c-1.138-.737-2.475-2.028-1.62-3.48.156-.413.345-.813.558-1.198"/></g><path d="M32.216 237.426s3.527 9.25 4.063 14.117c.447 4.063-.747 12.241-.747 12.241l-5.129 4.517-5.567-1.005s4.718-2.316 5.875-4.49c.4-.753.513-1.782.15-2.553-.41-.872-2.33-1.711-2.33-1.711s2.249-.478 2.973-1.277c.64-.705 1.181-1.823.862-2.719-.618-1.734-4.626-3.03-4.626-3.03s3.012-1.29 2.67-4.028c-.302-2.413-5.53-1.676-5.53-1.676s3.906-.67 3.597-3.333c-.241-2.076-3.889-2.164-3.889-2.164l3.916-1.254 3.712-1.635z" stroke="#55A" stroke-width="2" fill="#FF5" stroke-linecap="round" stroke-linejoin="round"/><g stroke="#000" stroke-linecap="round" stroke-linejoin="round" stroke-width="2"><path d="M161.578 351.305l-38.89-27.52-50.199 31.377"/><path d="M153.8 332.253l-31.113-22.228-39.951 25.403"/><path d="M148.007 316.457l-24.966-17.722-33.234 21.522"/><path d="M142.84 302.263l-20.506-15.17-27.224 18.346"/><path d="M140.012 287.798L121.3 275.816l-21.948 15.51"/><path d="M137.537 274.39l-15.76-9.648-20.982 14.791M137.537 263.806l-8.486-7.762M115.127 256.302l-11.735 10.638M105.717 253.927l5.888-4.912M155.921 346.366V335.78M144.608 338.696v-12.441M133.79 331.02l-.142-12.174M123.04 323.432l-.353-13.054M111.02 330.489l-.284-12.28M99.353 338.25v-12.348M87.508 345.485l.178-12.88"/></g><g stroke="#55A" stroke-linecap="round" stroke-linejoin="round" stroke-width="2"><path d="M111.472 436.271c-2.307-11.467-4.152-39.612-4.772-50.16-.736-9.712-1.82-18.343-6.122-24.745-1.03-3.072-3.746-5.29-7.229-5.275-3.821-.34-5.835 8.517 1.36 8.57"/><path d="M117.608 437.122c-3.97-17.14-3.984-46.33-6.436-62.497-1.379-9.089-5.357-19.618-13.448-23.889-3.577-1.888-9.393-1.967-12.095 1.039-3.251 3.616-2.724 10.788.33 14.571 2.649 3.28 8.61 4.996 12.31 2.969 2.296-1.257 2.746-4.85 2.545-7.417"/><path d="M105.54 435.852c-3.352-14.565-3.031-18.283-3.55-33.856-.17-5.081-.23-14.746-1.698-21.93-.654-3.202-1.835-7.617-3.14-9.29M100.08 434.272c-3.353-14.565-3.032-18.283-3.551-33.856-.17-5.08.105-12.642-1.222-18.77-.785-3.62-2.628-8.723-3.933-10.396M95.331 433.561c-3.352-13.944-3.031-17.504-3.55-32.413-.17-4.864.105-12.104-1.223-17.971-.784-3.466-2.627-8.351-3.932-9.953M89.792 432.535c-3.109-13.214-2.811-16.588-3.293-30.717-.158-4.61.098-11.47-1.133-17.03-.728-3.284-2.437-7.914-3.647-9.431M84.568 431.745c-3.108-12.375-2.81-15.534-3.293-28.765-.157-4.317.099-10.741-1.133-15.948-.727-3.076-2.436-7.41-3.646-8.832M85.733 372.078c-.55 1.12-1.48 2.448-2.737 2.59-2.49.28-4.968-1.806-6.458-3.787-2.494-3.316-3.448-7.915-2.998-12.015.252-2.302 1.218-4.883 3.107-6.238.771-.553 1.632-.952 2.821-.388"/><path d="M80.36 374.277c-.314 1.103-.908 2.438-1.9 2.692-1.963.504-4.184-1.213-5.603-2.926-2.375-2.867-3.661-7.088-3.767-10.975-.059-2.183.422-4.696 1.782-6.15.554-.592 1.199-1.049 2.215-.635"/><path d="M75.564 376.724c-.313 1.104-.907 2.438-1.898 2.693-1.963.504-4.185-1.213-5.604-2.926-2.375-2.868-3.661-7.088-3.766-10.976-.06-2.182.42-4.696 1.78-6.149.555-.592 1.2-1.05 2.216-.635"/><path d="M70.232 378.456c-.33 1.066-.941 2.352-1.937 2.585-1.97.462-4.167-1.232-5.562-2.913-2.334-2.813-3.562-6.924-3.612-10.695-.03-2.118.245-4.641 1.867-5.94.828-.663 2.163-.686 3.174-.27M91.137 369.902c-.55 1.12-1.479 2.448-2.737 2.59-2.49.28-4.968-1.806-6.458-3.787-2.494-3.315-3.448-7.915-2.998-12.015.253-2.302 1.047-5.116 3.108-6.238 1.151-.627 2.739-.162 3.928.403"/></g><g stroke="#55A" stroke-linecap="round" stroke-linejoin="round" stroke-width="2"><path d="M175.479 374.978c2.38-6.238 5.386-8.293 10.14-11.271 1.792-2.702 5.058-5.365 7.27-3.767 1.96 1.416 2.36 6.645-1.168 7.15"/><path d="M174.48 368.824c2.28-8.074 8.73-14.021 15.947-14.807 3.73-.407 8.445 2.17 9.703 5.698 1.536 4.308-.088 10.86-4.78 12.86-2.923 1.246-6.566.08-8.6-2.047-1.835-1.918-1.356-6.291-1.485-7.814"/><path d="M168.953 368.502c2.46-6.768 8.398-18.028 16.87-19.438 3.02-.502 6.284 1.873 7.941 4.608"/><path d="M164.36 367.31c2.598-6.794 3.465-13.51 8.77-17.122 2.936-1.999 8.074-2.604 10.61-1.053"/><path d="M159.501 366.735c1.751-6.225 2.364-11.956 6.688-15.626 2.3-1.952 6.221-3.656 8.795-2.17M155.044 366.755c.927-4.736.762-10.37 4.205-13.678 1.197-1.15 2.803-2.815 4.817-1.277M150.041 366.743c.976-4.212.472-5.837 1.854-9.968.567-1.696 2.886-3.725 4.826-2.34M190.717 374.165c-.857.756-1.912 1.55-3.054 1.551-1.894.001-3.844-1.122-5.067-2.565-1.217-1.436-1.438-3.519-1.684-5.386M185.151 375.633c-.612.47-1.365.963-2.181.963-1.353 0-2.746-.696-3.62-1.592-.868-.891-1.027-2.184-1.202-3.343M181.06 376.74s-1.376 1.407-2.286 1.545c-.837.127-2.432-.736-2.432-.736"/></g><path d="M165.605 349.218s-7.43-10.31-10.39-15.907c-3.873-7.32-6.865-15.1-9.547-22.933-2.33-6.803-4.272-13.76-5.656-20.816-1.118-5.698-1.768-11.493-2.122-17.288-.316-5.165-.063-10.35 0-15.524.06-4.823.354-14.466.354-14.466m25.456-4.587s-1.1 9.867-1.061 14.819c.042 5.43.376 10.899 1.414 16.23 1.152 5.916 2.958 11.734 5.303 17.288a105.958 105.958 0 0 0 10.253 18.699c2.79 4.062 6.235 7.64 9.546 11.29 3.748 4.131 7.518 8.267 11.668 11.996 3.118 2.803 6.563 5.222 9.9 7.762 3.147 2.397 6.267 4.84 9.545 7.056 2.25 1.522 6.936 4.28 6.936 4.28" stroke="#030000" stroke-width="2" stroke-linecap="round" stroke-linejoin="round"/><path d="M178.884 303.028l.018-49.807" stroke="#000" stroke-width="2" stroke-linecap="round" stroke-linejoin="round"/><path d="M258.683 330.704l.122-88.773M267.164 325.196v-71.26M272.014 321.428l-.127-64.932" stroke="#55A" stroke-width="2" stroke-linecap="round" stroke-linejoin="round"/><path d="M192.309 270.505l5.423-18.317s-1.538 1.367-2.446 1.25c-.767-.1-1.304-.9-1.728-1.546-.865-1.319-1.487-4.491-1.487-4.491s-.297 2.797-1.014 3.955c-.414.669-1.004 1.439-1.785 1.547-.718.099-1.967-.925-1.967-.925l5.004 18.527z" fill="#55A"/><path d="M123.046 178.592l-.018 49.807" stroke="#000" stroke-width="2" stroke-linecap="round" stroke-linejoin="round"/><path d="M65.474 332.581c-.184-1.049-.66-2.258-2.12-3.058-2.631-1.44-5.453-.455-6.79 1.975-1.335 2.43-.784 5.578 1.846 7.017 1.461.8 2.02.474 3.298.225l.159.403c-1.278.25-4.526 1.317-5.461 3.018-1.069 1.944-.36 5.494 1.979 6.774 2.338 1.28 5.72-.03 6.788-1.975.936-1.7.092-5.008-.384-6.217l.426-.083c.476 1.209.501 1.855 1.962 2.655 2.63 1.44 5.586.213 6.922-2.218 1.337-2.43.652-5.334-1.978-6.774-1.462-.8-2.74-.551-3.724-.142l-.16-.403c1.095-1.298.961-1.055 1.921-2.11.96-1.055 3.173-3.006 3.173-3.006-3.19-1.114-3.19-1.114-5.844-3.2 0 0-.46 2.91-.836 4.286-.375 1.375-.242 1.132-.751 2.75l-.426.083zM85.1 264.032c-.57-.9-1.472-1.837-3.129-2.02-2.981-.33-5.214 1.653-5.52 4.408-.307 2.756 1.405 5.455 4.386 5.786 1.657.183 2.05-.331 3.135-1.048l.3.313c-1.085.716-3.68 2.939-3.894 4.867-.246 2.204 1.767 5.216 4.417 5.51 2.65.293 5.276-2.205 5.521-4.409.215-1.928-1.828-4.665-2.73-5.601l.362-.24c.902.937 1.172 1.525 2.828 1.709 2.982.33 5.246-1.93 5.552-4.684.307-2.756-1.436-5.18-4.418-5.51-1.656-.184-2.742.533-3.497 1.286l-.3-.312c.515-1.617.484-1.341.969-2.682.484-1.34 1.785-3.986 1.785-3.986-3.374.184-3.374.184-6.626-.734 0 0 .687 2.865.865 4.28.178 1.414.209 1.138.356 2.828l-.362.239zM286.18 287.439c-.5-.665-1.25-1.33-2.5-1.33-2.25 0-3.75 1.773-3.75 3.99 0 2.218 1.5 4.214 3.75 4.214 1.25 0 1.5-.443 2.25-1.108l.25.221c-.75.666-2.5 2.661-2.5 4.214 0 1.774 1.75 3.991 3.75 3.991s3.75-2.217 3.75-3.991c0-1.553-1.75-3.548-2.5-4.214l.25-.221c.75.665 1 1.108 2.25 1.108 2.25 0 3.75-1.996 3.75-4.213 0-2.218-1.5-3.992-3.75-3.992-1.25 0-2 .666-2.5 1.33l-.25-.22c.25-1.332.25-1.11.5-2.218.25-1.11 1-3.327 1-3.327-2.5.443-2.5.443-5 0 0 0 .75 2.218 1 3.327.25 1.108.25.886.5 2.217l-.25.222zM286.18 257.501c-.5-.665-1.25-1.33-2.5-1.33-2.25 0-3.75 1.774-3.75 3.991 0 2.218 1.5 4.214 3.75 4.214 1.25 0 1.5-.444 2.25-1.109l.25.222c-.75.665-2.5 2.66-2.5 4.213 0 1.774 1.75 3.992 3.75 3.992s3.75-2.218 3.75-3.992c0-1.552-1.75-3.548-2.5-4.213l.25-.222c.75.665 1 1.109 2.25 1.109 2.25 0 3.75-1.996 3.75-4.214 0-2.217-1.5-3.991-3.75-3.991-1.25 0-2 .665-2.5 1.33l-.25-.221c.25-1.331.25-1.11.5-2.218.25-1.109 1-3.327 1-3.327-2.5.444-2.5.444-5 0 0 0 .75 2.218 1 3.327s.25.887.5 2.218l-.25.221z" fill="#FFF"/><g stroke-linecap="round" stroke-linejoin="round" stroke-width="2"><path d="M68.93 303.627c0-5.511 4.477-9.979 10-9.979s10 4.468 10 9.98c0 5.51-4.477 9.979-10 9.979s-10-4.468-10-9.98z" stroke="#FFFDFF"/><path d="M73.93 303.627a4.995 4.995 0 0 1 5-4.99c2.762 0 5 2.235 5 4.99a4.995 4.995 0 0 1-5 4.99c-2.761 0-5-2.234-5-4.99z" stroke="#FFF" fill="#FFF"/></g><g fill="#FF5"><path d="M191.806 343.905c-.936.213-1.94-.502-2.633-1.164-1.061-1.012-.952-2.871-1.963-3.931-.934-.978-2.303-1.437-3.54-1.983-1.81-.799-3.738-1.297-5.63-1.873 3.222-1.336 7.005-2.296 10.287-1.224 2.18.712 4.245 2.536 5.028 4.687.493 1.357.048 2.975-.534 4.296-.21.477-.505 1.075-1.015 1.192zM173.243 325.171s-3.408-.267-4.38-1.457c-1.107-1.353-1.086-3.518-.626-5.203.482-1.768 1.692-3.559 3.337-4.372 1.495-.739 3.397-.44 5.006 0 2.104.576 4.241 1.652 5.632 3.33 1.177 1.422 1.638 3.376 1.877 5.205.207 1.588.127 3.28-.417 4.787-.746 2.064-2.003 4.085-3.755 5.412-1.524 1.154-3.547 1.5-5.423 1.873-2.254.449-4.631.876-6.883.416-2.59-.528-5.11-1.793-7.092-3.538-2.63-2.318-4.53-5.494-5.84-8.742-1.03-2.55-1.147-5.387-1.46-8.118a63.925 63.925 0 0 1-.417-8.326c.055-3.341.628-6.656.834-9.991.107-1.733.524-3.497.208-5.204-.192-1.04-.541-2.13-1.251-2.914-.48-.53-1.165-1.116-1.877-1.04-.735.077-1.431.758-1.669 1.456-.228.67.417 2.082.417 2.082s-2.112-1.542-2.503-2.706c-.443-1.323-.343-2.993.417-4.163.61-.938 1.808-1.53 2.92-1.665 1.006-.122 2.04.335 2.92.832 1.243.701 3.13 2.914 3.13 2.914s.874-6.093.834-9.158c-.032-2.375-.248-4.775-.835-7.077-.46-1.81-1.055-3.644-2.085-5.204-.542-.819-1.178-1.706-2.086-2.081-.964-.399-3.129 0-3.129 0s2.139 1.255 2.712 2.29c.476.858.68 1.968.417 2.913-.266.95-1.012 1.813-1.877 2.29-.982.541-2.271.761-3.338.416-1.357-.438-2.454-1.66-3.128-2.914-.8-1.487-1.236-3.355-.835-4.995.247-1.011 1.045-1.87 1.877-2.498 1.546-1.165 3.488-2.026 5.424-2.082 1.824-.052 3.72.62 5.214 1.666 1.583 1.107 2.714 2.838 3.546 4.579 1.17 2.445 1.672 5.208 1.877 7.91.258 3.4-.359 6.82-.834 10.199-.345 2.452-1.147 4.828-1.46 7.285-.158 1.24-.126 2.499-.209 3.747-.12 1.805-.417 5.412-.417 5.412s3.12-2.495 5.006-2.706c1.794-.201 3.85.279 5.215 1.457 1.554 1.34 2.338 3.576 2.503 5.62a6.308 6.308 0 0 1-1.043 3.954c-.728 1.067-1.9 1.889-3.129 2.29-.859.28-1.908.413-2.712 0-.531-.273-1.042-1.457-1.042-1.457s1.497-.601 1.877-1.249c.458-.78.398-1.821.208-2.706-.182-.85-.502-1.846-1.251-2.29-.897-.53-2.148-.354-3.129 0-1.532.554-2.994 1.685-3.754 3.123-.685 1.294-.37 2.908-.418 4.37-.074 2.29-.106 4.6.21 6.87.314 2.267.66 4.604 1.668 6.66.891 1.821 2.24 3.438 3.754 4.788 1.583 1.411 3.413 2.65 5.423 3.33 1.92.65 4.055.987 6.05.625 1.223-.223 2.373-.88 3.336-1.665.96-.781 1.838-1.767 2.295-2.915.567-1.424.86-3.11.417-4.579-.384-1.276-1.3-2.545-2.503-3.122-1.128-.541-2.723-.707-3.754 0-.799.547-1.012 1.74-1.043 2.706-.038 1.162 1.043 3.33 1.043 3.33z"/><path d="M160.306 289.994c0-2.024 1.776-3.665 3.968-3.665 2.19 0 3.967 1.641 3.967 3.665 0 2.025-1.776 3.666-3.967 3.666-2.192 0-3.968-1.641-3.968-3.666zM144.123 250.03a5.243 5.243 0 0 1 5.237-5.25 5.243 5.243 0 0 1 5.237 5.25 5.243 5.243 0 0 1-5.237 5.249 5.243 5.243 0 0 1-5.237-5.25z"/></g><path d="M191.806 309.768l5.423-18.317s-1.537 1.367-2.445 1.25c-.767-.1-1.305-.9-1.728-1.546-.866-1.319-1.487-4.491-1.487-4.491s-.298 2.797-1.014 3.955c-.414.669-1.005 1.439-1.785 1.547-.718.099-1.968-.925-1.968-.925l5.004 18.527zM211.267 331.95l5.423-18.317s-1.537 1.366-2.446 1.249c-.766-.1-1.304-.9-1.728-1.545-.865-1.32-1.486-4.492-1.486-4.492s-.298 2.797-1.015 3.955c-.414.67-1.004 1.44-1.785 1.547-.718.099-1.967-.924-1.967-.924l5.004 18.527zM230.057 344.841l5.424-18.317s-1.538 1.367-2.446 1.25c-.767-.1-1.304-.9-1.728-1.546-.865-1.319-1.487-4.491-1.487-4.491s-.298 2.797-1.014 3.955c-.414.669-1.005 1.439-1.785 1.547-.718.099-1.968-.925-1.968-.925l5.004 18.527zM249.016 329.271l5.423-18.317s-1.538 1.366-2.446 1.249c-.767-.1-1.304-.9-1.728-1.545-.865-1.32-1.487-4.491-1.487-4.491s-.297 2.797-1.014 3.954c-.414.67-1.004 1.44-1.785 1.547-.718.1-1.967-.924-1.967-.924l5.004 18.527z" fill="#55A"/><path d="M234.438 292.104s1.558 4.569 2.845 6.586c1.47 2.307 5.461 6.131 5.461 6.131s-3.405 2.34-5.348 2.953c-2.037.642-6.372.681-6.372.681s-1.64 3.019-2.617 4.428c-1.274 1.838-4.21 5.224-4.21 5.224s-4.222-3.24-5.803-5.337c-.969-1.285-2.162-4.315-2.162-4.315s-4.007.059-5.917-.454c-2.277-.612-6.372-3.066-6.372-3.066s4.634-3.87 6.258-6.36c1.402-2.15 2.845-7.153 2.845-7.153s4.8 1.549 7.282 1.93c2.44.376 4.939.571 7.396.341 2.29-.214 6.714-1.59 6.714-1.59z" stroke="#000" stroke-width="2" fill="#FF5" stroke-linecap="round" stroke-linejoin="round"/><path d="M229.317 294.034s.929 3.682 1.82 5.337c.705 1.307 2.732 3.52 2.732 3.52s-2.108.6-3.186.568c-1.288-.04-3.755-.909-3.755-.909s-.858 2.927-1.48 4.315c-.443.99-1.593 2.839-1.593 2.839s-1.778-2.003-2.39-3.18c-.623-1.2-1.25-3.86-1.25-3.86s-2.338.532-3.528.568c-1.143.034-3.414-.341-3.414-.341s2.154-2.532 2.959-3.974c.952-1.708 2.162-5.45 2.162-5.45s3.91 1.058 5.917 1.135c1.678.064 5.006-.568 5.006-.568z" stroke="#000200" stroke-width="2" fill="#000" stroke-linecap="round" stroke-linejoin="round"/><path d="M194.105 263.1c0-16.757 13.376-30.342 29.875-30.342 16.5 0 29.876 13.585 29.876 30.342 0 16.758-13.376 30.343-29.876 30.343s-29.875-13.585-29.875-30.343z" stroke="#000" stroke-width="2" fill="#000" stroke-linecap="round" stroke-linejoin="round"/><path d="M200.441 261.987a2.497 2.497 0 0 1 2.5-2.494c1.381 0 2.5 1.117 2.5 2.494a2.497 2.497 0 0 1-2.5 2.495c-1.38 0-2.5-1.117-2.5-2.495zM221.56 264.646a2.497 2.497 0 0 1 2.5-2.495c1.38 0 2.5 1.117 2.5 2.495a2.497 2.497 0 0 1-2.5 2.494c-1.381 0-2.5-1.117-2.5-2.494zM210.978 263.856a2.497 2.497 0 0 1 2.5-2.494c1.38 0 2.5 1.117 2.5 2.494a2.497 2.497 0 0 1-2.5 2.495c-1.38 0-2.5-1.117-2.5-2.495zM221.727 275.36a2.497 2.497 0 0 1 2.5-2.494c1.38 0 2.5 1.117 2.5 2.495a2.497 2.497 0 0 1-2.5 2.494c-1.38 0-2.5-1.117-2.5-2.494zM221.224 284.904a2.497 2.497 0 0 1 2.5-2.495c1.38 0 2.5 1.117 2.5 2.495a2.497 2.497 0 0 1-2.5 2.495c-1.38 0-2.5-1.117-2.5-2.495zM232.968 263.641a2.497 2.497 0 0 1 2.5-2.495c1.38 0 2.5 1.117 2.5 2.495a2.497 2.497 0 0 1-2.5 2.495c-1.38 0-2.5-1.117-2.5-2.495zM243.316 262.015a2.497 2.497 0 0 1 2.5-2.495c1.38 0 2.5 1.117 2.5 2.495a2.497 2.497 0 0 1-2.5 2.495c-1.38 0-2.5-1.117-2.5-2.495z" fill="#FF5"/><path d="M217.852 291.266l-.336-20.76s-8.766-.455-13.086-1.173c-2.783-.462-8.22-2.009-8.22-2.009" stroke="#FF5" stroke-width="2" stroke-linecap="round" stroke-linejoin="round"/><path d="M213.49 289.926l-.336-15.57s-6.075-.436-9.06-1.004c-2.505-.477-7.381-2.01-7.381-2.01M230.1 290.596l.67-20.593s7.417-.402 11.073-1.004c3.292-.543 9.731-2.344 9.731-2.344" stroke="#FF5" stroke-width="2" stroke-linecap="round" stroke-linejoin="round"/><path d="M234.294 289.592l.67-15.906s5.95-.645 8.893-1.172c2.483-.444 7.382-1.674 7.382-1.674M250.567 252.424c-6.101 2.363-13.22 4.196-20.073 4.791-6.048.526-12.171-.234-18.179-1.108-4.886-.71-12.537-2.704-14.428-3.349" stroke="#FF5" stroke-width="2" stroke-linecap="round" stroke-linejoin="round"/><path d="M244.3 246.935c-1.277.973-3.349-.452-4.59-1.47-1.543-1.268-1.753-3.605-2.9-5.238-1.107-1.578-3.805-4.353-3.805-4.353s5.345 2.388 7.604 4.197c1.4 1.12 2.893 2.364 3.566 4.024.355.878.88 2.265.125 2.84z" stroke="#FF5" fill="#FF5" stroke-linecap="round" stroke-linejoin="round"/><path d="M228.635 236.236s2.806 2.809 4.096 4.315c.808.944 1.803 1.804 2.276 2.952.465 1.13.712 2.44.455 3.634-.169.78-.544 1.67-1.252 2.044-.671.354-1.678.354-2.276-.114-.935-.73-.774-2.247-1.024-3.406-.241-1.12-.223-2.285-.455-3.407-.254-1.232-.654-2.43-1.024-3.633-.246-.801-.796-2.385-.796-2.385zM224.993 236.009s1.107 4.215 1.48 6.359c.28 1.614.932 3.285.569 4.883-.268 1.177-.924 2.4-1.935 3.065-.609.401-1.48.602-2.162.341-.73-.28-1.229-1.078-1.48-1.817-.4-1.184-.063-2.51.115-3.747a23.733 23.733 0 0 1 1.365-5.223c.53-1.357 2.048-3.861 2.048-3.861zM220.897 236.35s-2.178 3.691-2.959 5.677c-.574 1.462-.688 3.076-1.251 4.542-.304.79-.497 1.717-1.138 2.271-.634.55-1.622 1.135-2.39.795-.605-.268-.721-1.16-.796-1.817-.14-1.224.18-2.508.683-3.633.584-1.307 1.672-2.331 2.617-3.407.848-.966 1.74-1.906 2.73-2.725.778-.643 2.504-1.703 2.504-1.703zM214.98 236.009s-2.123 2.239-3.072 3.438c-.951 1.201-1.884 2.428-2.617 3.75-.664 1.197-.457 2.905-1.593 3.751-.538.4-1.41.557-2.049.313-.728-.278-1.23-1.06-1.365-1.771-.196-1.03.336-2.119.91-3.022.81-1.273 2.137-2.228 3.414-3.125.903-.635 1.97-1.045 2.958-1.563 1.136-.594 3.414-1.771 3.414-1.771z" stroke="#FF5" stroke-width="2" fill="#FF5" stroke-linecap="round" stroke-linejoin="round"/><path d="M206.77 480.364c-9.272-17.167-17.565-31.405-26.836-48.571-9.965 3.768-21.234 4.774-32.045 5.67-11.478.95-23.086.755-34.55-.343-9.44-.904-18.836-2.697-27.98-5.121l-31.345 48.365h152.755z" stroke="#55A" stroke-width="2" fill="#FF5"/><path d="M165.665 461.846c.695.378 1.022 2.128.573 3.066-.13.271-.494.464-.795.428-.848-.104-1.623-.898-1.857-1.704-.168-.574.464-1.136.465-1.734.002-.594-.092-1.25-.451-1.723-.703-.927-1.85-1.718-3.013-1.768-1.936-.083-4.38.817-5.247 2.501-.799 1.555.041 3.659 1.029 5.11.669.981 1.803 1.879 3.017 1.993 1.099.103 2.094-.717 3.043-1.263-.554 1.66-1.165 3.585-.47 5.186.665 1.534 2.349 2.658 3.987 3.181.69.22 1.455-.027 2.177-.107 1.296-.65 2.628-1.651 3.106-2.982.48-1.341-.044-2.888-.535-4.226-.377-1.024-1.128-1.886-1.795-2.763.954.314 2.06.335 2.938-.082 1.664-.789 3.46-2.367 3.517-4.152.055-1.721-1.534-3.414-3.126-4.195-1.472-.723-3.53-.804-4.957.028-1.112.649-1.69 2.084-1.916 3.349-.11.618.31 1.857.31 1.857zM192.039 458.734c-.005.683-.484.713-.412 1.538.07.82 1.325 1.299 2.124 1.186.283-.04.618-1.2.678-1.485l5.176 9.06c-.305.401-.644.76-.995 1.089-.638.257-1.256.708-1.94.668-1.623-.096-3.459-.756-4.45-2.07-1.033-1.372-.957-3.383-.869-5.124-.727.765-1.421 1.793-2.448 1.968-1.134.194-2.392-.383-3.248-1.165-1.263-1.153-2.564-2.988-2.226-4.69.367-1.842 2.374-3.214 4.15-3.707 1.321-.366 2.787.2 4.027.797M119.772 456.92c2.27-.291 4.663.635 6.618 1.848 1.04.645 1.473 2.027 2.478 2.739.458.323 1.006.092 1.552.65-.311-3.1-1.37-3.421-2.596-4.744-1.61-1.74-3.756-3.027-5.957-3.886-2.368-.924-4.977-1.439-7.505-1.252-2.977.22-5.92 1.292-8.54 2.755-1.777.994-3.447 2.325-4.668 3.978-.679.919-1.257 2.277-1.37 3.157 1.136-1.41 3.028-3.056 4.913-3.979 1.719-.84 3.687-1.558 5.575-1.292 1.831.26 3.19 1.257 4.874 2.708 1.78-.986 2.867-2.458 4.626-2.683z" fill="#000"/><path d="M142.861 456.258c-2.394-.17-4.808.949-6.838 2.195-1.07.656-1.69 1.84-2.625 2.665-.443.39-.525 1.14-1.408 1.073.161-3.111 1.243-3.603 2.457-5.016 1.597-1.858 3.778-3.22 6.04-4.194 2.432-1.048 5.14-1.699 7.8-1.646 3.132.062 6.274.979 9.096 2.302 1.917.899 3.838 2.045 5.105 3.727.68.903 1 2.31 1.165 3.183-1.266-1.349-3.02-2.983-4.922-3.817-1.83-.803-3.948-1.363-5.912-.997-1.906.355-3.278 1.424-4.966 2.96-1.917-.89-3.135-2.302-4.992-2.435zM89.716 454.184c1.876.059 3.763 1.253 5.268 2.646.802.742 1.237 1.895 1.819 2.871.456.766.617 2.324 1.31 2.34-.02-2.89-.762-4.419-1.854-6.25-1.128-1.888-2.842-3.317-4.575-4.422-1.865-1.188-3.958-2.035-6.039-2.226-2.449-.225-4.935.338-7.185 1.306-1.528.658-2.886 1.808-4.115 2.984-1.044.998-2.555 2.61-2.713 3.401 1.451-.515 2.381-1.826 5.383-3.513 1.366-.768 3.354-1.013 4.94-.522 1.558.482 2.512 1.612 3.778 3.185 1.529-.65 2.529-1.845 3.983-1.8zM181.028 452.068c1.899-.7 4.464-.363 6.375.586 1.142.567 1.743 1.86 2.577 2.823.639.738 2.112 3.537 1.859 2.265-.387-1.937-1.725-4.973-3.599-6.67-1.72-1.558-4.232-2.258-6.428-2.69-2.362-.467-4.81-.489-6.968.156-2.543.76-4.79 2.343-6.633 4.248-1.25 1.293-2.382 2.95-2.86 4.728-.265.98-.118 2.17.055 3.047.759-2.15 1.34-3.8 2.796-5.064 1.208-1.05 2.875-1.683 4.487-1.712 1.811-.032 3.188.639 5.113 1.742 1.255-1.285 1.753-2.918 3.226-3.46z" fill="#000"/><path d="M187.954 447.652s-4.962-1.56-7.546-1.714c-3.062-.183-6.29-.08-9.143.95-2.018.728-3.655 2.182-5.229 3.551-1.067.928-2.81 3.118-2.81 3.118s-5.614-2.962-8.718-3.635c-3.074-.666-6.327-.63-9.465-.322-3.017.295-6.122.788-8.818 2.064-2.168 1.025-5.588 4.337-5.588 4.337s-4.176-4.273-6.965-5.347c-2.71-1.043-5.834-.861-8.768-.785-2.678.069-5.375.425-7.94 1.129-2.558.7-7.287 3.04-7.287 3.04s-2.614-3.42-4.394-4.668c-1.657-1.161-3.66-1.881-5.639-2.473-1.993-.597-4.091-1.193-6.18-1.058-2.554.166-7.273 2.256-7.273 2.256l4.144-6.695s15.4 2.605 23.163 3.389c6.28.634 12.595.88 18.904 1.059 6.794.192 13.6.274 20.39.013 5.676-.217 11.334-.746 16.98-1.316 4.248-.429 8.507-.808 12.704-1.582 3.794-.7 11.239-2.759 11.239-2.759l4.24 7.448z" fill="#000"/><path d="M183.691 440.39s-16.078 4.003-29.68 5.385c-13.167 1.339-26.493 1.652-39.7.77-11.35-.758-33.726-5.193-33.726-5.193l5.203-8.27s17.96 4.118 27.11 4.937c13.671 1.224 27.517 1.266 41.179-.064 8.556-.834 25.31-4.936 25.31-4.936l4.304 7.371z" fill="#F55"/><path d="M71.141 458.425c-.035.682.441.74.321 1.56-.12.814-1.4 1.218-2.19 1.058-.281-.056-.547-1.233-.59-1.522l-5.702 8.739c.28.419.597.797.928 1.146.622.294 1.212.78 1.897.78 1.626.001 3.498-.55 4.564-1.804 1.113-1.308 1.156-3.32 1.171-5.063.68.806 1.313 1.873 2.328 2.109 1.12.26 2.41-.242 3.31-.972 1.33-1.077 2.738-2.832 2.5-4.55-.257-1.862-2.18-3.349-3.923-3.946-1.297-.443-2.793.035-4.067.559M97.738 462.295c-.694.378-1.021 2.128-.572 3.066.13.27.494.464.795.428.848-.104 1.622-.898 1.857-1.704.167-.575-.4-1.14-.466-1.734-.046-.418.054-1.26.054-1.26 1.111-.907 2.054-2.14 3.41-2.23 1.934-.13 4.381.815 5.247 2.5.8 1.554-.04 3.658-1.028 5.11-.67.981-1.803 1.879-3.017 1.993-1.1.103-2.095-.717-3.043-1.263.553 1.66 1.165 3.585.47 5.186-.666 1.534-2.35 2.658-3.987 3.181-.69.22-1.455-.027-2.177-.107-1.296-.65-2.628-1.651-3.106-2.982-.481-1.341.044-2.888.535-4.226.376-1.024 1.128-1.886 1.795-2.763-.954.314-2.06.335-2.939-.082-1.663-.789-3.46-2.367-3.517-4.153-.055-1.72 1.535-3.413 3.127-4.194 1.472-.723 3.531-.807 4.956.028 1.196.7 1.322 2.29 2.05 3.614l-.444 1.592zM131.939 463.618c.574.543.44 2.318-.235 3.11-.196.228-.597.322-.879.21-.793-.318-1.309-1.285-1.356-2.122-.03-.528.54-.92.697-1.425.137-.44.206-1.363.206-1.363-.842-1.162-1.236-2.582-2.458-3.03-1.819-.668-4.444-.334-5.714 1.073-1.172 1.297-.901 3.546-.32 5.201.394 1.12 1.26 2.279 2.403 2.7 1.036.381 2.209-.157 3.266-.442-.961 1.463-2.048 3.167-1.788 4.892.249 1.653 1.587 3.17 3.035 4.096.61.39 1.414.346 2.132.454 1.42-.297 2.965-.923 3.769-2.086.81-1.173.7-2.803.57-4.222-.1-1.086-.606-2.112-1.024-3.13.841.548 1.904.851 2.86.674 1.811-.337 3.953-1.402 4.468-3.113.496-1.65-.605-3.693-1.943-4.855-1.237-1.076-3.206-1.684-4.798-1.243-1.336.371-1.866 1.876-2.91 2.969l.019 1.652zM150.496 124.603l28.872 20.386 23.288-14.27 5.856 2.31 4.085-.815 3.133-1.495 1.362 1.087 4.085-.136-41.673 25.822-38.541-27.317 2.996-2.174.544-1.223 2.588 1.087 2.179-1.087z" fill="#000"/><path fill="#F55" d="M150.959 125.023l28.637 20.111 24.042-14.818-3.298-2.451-4.766-5.164-.273 6.251-2.86 4.35-3.54 3.397-5.448 1.359-8.852.272-8.988-4.621-6.674-7.203-3.95-6.116-2.995-5.028-.681 5.844z"/><path fill="#000" d="M260.426 151.19l.72 41.5-2.884 1.2-4.808-2.399-5.048 2.16-.961 5.037 3.125 3.358h5.529l8.894-.48 9.135-2.398 6.49.48 4.327 3.118v3.119l-3.365-.48-5.53.24-4.567-.96-7.211.72-3.846.96-3.125 5.997-.962 7.916v7.916l1.442 6.237 1.923 3.838 3.606 4.078-19.471-.48-6.01-3.838-3.846-2.398 1.442-12.475 3.606-21.11 5.048-18.231 4.568-11.515 5.048-10.315zM139.03 244.267l23.808-6.238 1.433-20.87-1.192-18.73-2.654-11.735-3.606-13.914-4.808-12.714-5.529-11.035-5.048-9.835-5.529-8.156-5.529 2.159-3.365-.24-5.289.72-3.365-1.68-5.288.96-2.885-2.879-1.683-2.159-3.846-2.398-2.163-2.4-1.202-3.358-14.664 6.957-13.942 6.717 11.779 7.196 15.144 11.755 12.02 11.514 9.855 11.275 6.73 10.795 6.01 12.234 4.087 16.313 1.202 13.673z"/><path d="M227.68 233.339c1.368-16.904 3.731-33.92 8.784-50.11 3.797-12.166 9.505-23.761 15.993-34.737 2.44-4.129 5.655-7.943 8.55-11.576l-.126 11.793c-7.512 12.746-14.45 26.19-18.946 40.35-4.754 14.973-6.221 30.81-8.245 46.397l-6.01-2.117h0z" stroke="#000" stroke-width="2" fill="#FF5" stroke-linecap="round" stroke-linejoin="round"/><path stroke="#FF5" stroke-width="2" fill="#FF5" stroke-linecap="round" stroke-linejoin="round" d="M137.468 130.1l2.477.495 39.003 27.872 42.744-26.883.496-2.72 2.725.99 4.459-3.214-8.175 15.326-9.661 20.518-5.698 18.623-4.211 16.48-2.725 15.327-2.18 12.46-.05 9.294-3.22-2.472-6.44.989.495-6.922-2.973-4.697-5.945-.247-4.954 2.472-.743 4.202 1.238 4.945-6.193-1.236-3.716 3.213.496-16.81-.513-13.145-1.717-11.08-3.303-14.388-3.7-11.19-5.784-15.91-6.287-9.684-7.432-11.619z"/><path d="M229.801 126.082c-7.857 13.76-15.153 27.988-20.138 43.01-6.763 20.38-11.166 41.696-12.978 63.088-.49 5.779.16 11.61.59 17.388" stroke="#020000" stroke-width="2" stroke-linecap="round" stroke-linejoin="round"/><path stroke="#55A" stroke-width="2" stroke-linecap="round" stroke-linejoin="round" d="M241.06 120.284l9.981 5.21 9.959 5.475"/><g fill="#FFF" stroke="#55A" stroke-linecap="round" stroke-linejoin="round" stroke-width="2"><path d="M256.271 214.274c.435-1.887 1.334-3.672 2.389-5.297.772-1.19 1.574-2.517 2.83-3.178 1.446-.76 3.239-.458 4.866-.618 2.53-.248 5.144-1.157 7.607-.53.848.217 1.366 1.188 2.212 1.413 1.768.47 3.706-.699 5.484-.265.796.194 1.663.56 2.123 1.236.335.493.265 1.766.265 1.766s2.641-.705 3.716-.089c.846.486 1.268 1.597 1.415 2.56.2 1.307-.278 2.668-.796 3.884a8.917 8.917 0 0 1-1.946 2.825c-.379.372-1.327.883-1.327.883s2.706-1.354 3.98-.883c.83.306 1.421 1.253 1.593 2.119.183.924-.381 1.852-.708 2.736-.465 1.26-.818 2.67-1.77 3.62-.997.995-3.803 1.853-3.803 1.853s2.717-.914 3.892-.353c.768.366 1.253 1.286 1.416 2.119.225 1.15-.151 2.41-.708 3.442-.415.77-1.098 1.42-1.858 1.854-.608.348-2.034.53-2.034.53s2.66.812 2.83 1.942c.19 1.263-1.254 2.407-2.388 3.001-2.329 1.22-5.315-.08-7.873.53-1.464.35-2.694 1.409-4.157 1.765-2.241.546-4.653 1.05-6.9.53-1.7-.393-3.26-1.435-4.511-2.648-1.473-1.429-2.376-3.365-3.273-5.208-.917-1.884-1.69-3.866-2.123-5.915-.593-2.8-.548-5.702-.62-8.563-.033-1.324.055-2.648.089-3.972.026-1.03-.143-2.085.088-3.09h0z"/><path d="M283.517 209.507c-1.541 2.236-3.976 4.107-6.814 4.051-1.92.374-3.857-.727-5.67-.243-1.254.808-1.853 2.524-3.153 3.33-1.422.883-3.46 1.534-4.802 1.476"/><path d="M284.932 219.129c-3.158 1.826-5.731 3.6-9.404 3.96-1.605.02-3.805.113-4.587-1.614-.685-1.364-.138-3.144 1.272-3.802 2.373-1.375 4.824-3.723 7.411-4.635"/><path d="M274.282 216.657c1.584.017 4.293 1.353 4.516 3.165.222.626.239 1.298.261 1.955M284.578 228.133c-4.034.762-7.33 2.145-11.443 1.507-1.413-.478-3.342-.945-3.806-2.567-.112-1.568 1.313-2.868 2.64-3.445.523-.15 2.418-.46 2.959-.5"/><path d="M275.617 223.295c1.588.772 3.134 3.146 2.631 4.758-.046.263-.099.526-.162.786M274.848 206.24c.409 1.332 1.047 3.112 2.724 3.11 1.984.11 3.864-.612 5.59-1.52M275.133 229.898c-2.423.16-3.947 1.743-3.644 3.367.45 2.404 2.84 2.886 6.835 2.707 2.47.067 2.932-.492 5.402-.129.55.044 1.1.093 1.648.146"/><path d="M276.086 235.99c-1.95.683-3.85 2.665-2.507 3.914.694.877 2.527 1.466 3.569 1.646M277.644 230.163c1.087.84 1.565 1.805 1.61 2.913.035.87-.87 1.984-1.08 2.383M278.474 236.43c1.138.737 2.475 2.029 1.62 3.481a9.095 9.095 0 0 1-.558 1.198"/></g><g stroke="#55A" stroke-linecap="round" stroke-linejoin="round" stroke-width="2.002"><path fill="#FFF" d="M261.087 194.304V51.687l14.5-12.198 12.5 12.198V196.65"/><path d="M276.143 39.88s-2.944 16.074-3.145 24.208c-.203 8.224 2.059 16.376 1.966 24.602-.103 9.225-3.135 18.312-2.824 27.533.224 6.654 3.055 13.038 3.37 19.688.33 6.999-1.827 13.958-1.578 20.96.163 4.616 1.784 9.096 2.015 13.709.224 4.467.132 8.993-.616 13.403-.682 4.022-3.5 11.728-3.5 11.728"/><path d="M282.462 249.78c0 3.802-3.205 6.884-7.16 6.884-3.954 0-7.159-3.082-7.159-6.884 0-3.801 3.205-6.883 7.16-6.883 3.954 0 7.159 3.082 7.159 6.883z" fill="#FF5"/><path d="M272.849 243.41c-1.733 1.636-1.886 2.956-1.79 4.598.112 1.9 1.293 3.738 2.68 5.045.67.633 1.608.99 2.517 1.153.77.138 1.904.111 2.341-.176" fill="#FF5"/></g><path d="M247.417 196.496c.457-2.395 3.497-4.785 5.398-4.945 1.9-.16 4.899 2.594 6.862 2.325 3.926-.538 7.925-.702 11.798-.828 5.199-.17 10.553-.87 15.599.392 3.239.809 7.258 1.616 8.95 4.488 1.55 2.63 1.794 7.002-.384 9.143-2.312 2.272-7.09 2.138-9.733.26-1.753-1.247-.241-4.836-1.947-6.146-3.897-2.995-9.824-.917-14.738-.705-3.899.169-7.7 1.525-11.601 1.565-2.666.028-5.771.634-7.946-.904-1.408-.995-2.58-2.955-2.258-4.645z" stroke="#55A" stroke-width="2" fill="#FF5" stroke-linecap="round" stroke-linejoin="round"/><path d="M100.885 119.912c-18.042 7.834-37.18 17.706-54.482 28.76C30.363 158.923 14.314 169.69 1 183.29" stroke="#55A" stroke-width="2" stroke-linecap="round" stroke-linejoin="round"/><path d="M52.58 182.151l-5.424 18.317s1.537-1.366 2.446-1.249c.767.1 1.304.9 1.728 1.545.865 1.32 1.486 4.492 1.486 4.492s.298-2.797 1.015-3.955c.414-.67 1.004-1.44 1.785-1.547.718-.1 1.967.924 1.967.924l-5.004-18.527z" fill="#55A"/><path d="M275.818 47.537l12.135 11.533M274.662 55.899l12.135 11.533M272.929 63.395l14.735 14.417M273.795 72.91l13.77 13.164M274.648 82.003L287.6 94.35M275.48 90.821l12.543 12.145M274.662 99.436l13.361 12.553M273.507 106.644l13.565 13.572M272.485 114.767l15.2 14.387M273.507 123.367l14.177 13.572M275.634 133.733l12.135 11.533M275.6 141.686l12.134 11.533M275.106 149.471l12.135 11.533M274.084 156.525l13.157 12.96M275.768 166.651l11.318 10.922M276.177 175.793l10.91 10.718M275.345 184.056l9.275 8.678" stroke="#55A" stroke-width="2" stroke-linecap="round" stroke-linejoin="round"/><g stroke="#55A" stroke-linecap="round" stroke-linejoin="round"><path d="M159.027 55.59c.293-.786 4.45-1.18 6.71-1.503 2.72-.388 5.49-.86 8.21-.517 3.055.387 6.143 1.249 8.856 2.866 1.233.736 3.22 3.018 3.22 3.018s-5.556-3.209-8.557-4.078c-2.315-.67-4.744-.857-7.138-.835-2.34.021-4.644.758-6.98.944-1.438.114-4.883 1.614-4.32.105zM158.867 66.018s1.677-1.403 2.575-2.025c1.444-1.002 2.897-2.03 4.506-2.738 1.278-.563 2.634-1.029 4.023-1.174a14.939 14.939 0 0 1 5.332.404c2.334.618 4.482 1.847 6.546 3.098 1.356.823 2.6 1.827 3.792 2.872.556.488 1.559 1.578 1.559 1.578s-3.593.524-5.336.167c-2.68-.55-4.793-2.767-7.439-3.463-1.658-.436-3.42-.538-5.129-.404-1.67.13-3.243.855-4.889 1.171-.602.116-1.21.2-1.819.265-1.236.131-3.72.249-3.72.249z" stroke-width="2"/><path d="M181.916 68.904s-3.201 2.993-5.196 3.771c-1.435.56-3.05.507-4.59.537-1.899.037-3.867.121-5.681-.441-1.734-.537-3.233-1.674-4.714-2.722-.804-.57-2.244-1.923-2.244-1.923s2.771-1.226 4.204-1.714c1.436-.49 2.877-1.062 4.386-1.212 2.2-.22 4.47-.067 6.614.471 2.559.643 7.221 3.233 7.221 3.233z" stroke-width="2"/><path d="M164.842 69.039c0 2.008 2.417 3.636 5.399 3.636s5.399-1.628 5.399-3.636c0-2.009-2.417-3.637-5.399-3.637s-5.399 1.628-5.399 3.637z" stroke-width="2.003"/><path d="M167.946 68.197c0 .837.877 1.515 1.958 1.515 1.08 0 1.957-.678 1.957-1.515 0-.837-.877-1.516-1.957-1.516-1.081 0-1.958.679-1.958 1.516zM122.366 58.85s1.857-1.06 3.121-2.89c1.15-1.663 3.334-2.431 5.275-3.006 1.624-.48 3.407-.603 5.072-.294 1.933.36 3.663 1.463 5.371 2.435 1.016.577 2.094 1.136 2.876 2.004.881.978 1.908 3.455 1.908 3.455-.86-2.211-2.9-3.612-4.874-4.716-1.503-.841-3.303-1.026-5.007-1.285-2.023-.308-4.147-.812-6.131-.312-2.878.725-7.61 4.61-7.61 4.61z" stroke-width="2" fill="#55A"/><path d="M146.096 61.79c-.013 2.144-.039 4.87-.436 7.261-.433 2.606-1.543 5.06-2.106 7.64-.486 2.226-.656 4.51-1.095 6.745-.198 1.008-.665 1.976-.694 3.003-.03 1.057-.063 2.257.54 3.126 1.2 1.73 3.809 1.877 5.455 3.19.732.584 1.313 1.332 1.92 2.05" stroke-width="2"/><path d="M159.971 82.672c1.15-.34 2.81 1.062 3.426 2.008.806 1.239.13 3.325-.965 4.312-1.477 1.33-3.978 1.099-5.927.702-1.63-.332-2.73-2.015-4.326-2.476-.967-.278-2.185-.692-3.016-.126-.49.335-.87 1.17-.577 1.686.417.733 1.642.406 2.479.523 1.15.161 2.338.004 3.474.243 1.29.271 2.403 1.326 3.721 1.334 1.494.009 3.265-.33 4.235-1.463 1.047-1.223 1.52-3.29.849-4.752-.545-1.185-3.373-1.991-3.373-1.991zM171.034 91.915s2.456-1.101 3.732-.99c.65.056 1.357.31 1.803.825.758.876 1.098 2.2 1.092 3.4-.006 1.284-.326 2.759-1.2 3.625-1.38 1.365-3.556 1.603-5.422 1.531-1.803-.07-3.442-1.183-5.128-1.879-1.139-.47-2.196-1.178-3.365-1.55-1.296-.411-2.647-.85-3.992-.737-.826.07-2.186-.022-2.357.857-.129.662.796 1.144 1.386 1.367 1.594.603 3.375-.555 5.056-.368 1.836.203 3.527 1.205 5.336 1.608 1.696.377 3.447 1.096 5.149.749 1.401-.286 2.832-1.055 3.743-2.244.615-.803.93-1.927.91-2.97-.022-1.08-.366-2.255-1.062-3.027-.875-.972-2.23-1.624-3.48-1.539-.84.057-2.201 1.342-2.201 1.342zM134.671 91.76s-2.347.81-3.085 1.729c-.645.802-.838 1.927-.89 2.955-.072 1.41-.071 3.05.804 4.159.555.703 1.558 1.015 2.45 1.114 1.326.147 2.648-.407 3.918-.815 1.33-.427 2.53-1.194 3.834-1.693 1.207-.461 2.394-1.16 3.686-1.2.809-.024 1.697 1.089 2.349.61.268-.197.193-.698.047-.997-.303-.622-1.01-1.102-1.695-1.203-1.018-.15-1.968.607-2.925.986-1.351.535-2.636 1.224-3.965 1.811-1.397.618-2.69 1.689-4.214 1.8-1.19.087-2.66-.03-3.461-.912-.945-1.038-.88-2.764-.68-4.153.167-1.162.682-2.358 1.527-3.175.602-.582 2.3-1.016 2.3-1.016h0zM162.997 105.025s-2.45.757-3.677 1.122c-1.147.341-2.25 1.01-3.447.998-1.224-.013-2.305-.85-3.504-1.094-.605-.123-1.227-.239-1.841-.184-1.249.11-2.363 1.043-3.616 1.029-1.123-.014-2.205-.49-3.217-.998-.627-.315-1.724-1.248-1.724-1.248s1.712.941 2.643.998c1.215.075 2.35-.743 3.562-.873 1.524-.164 3.072-.054 4.595.125 1.008.118 1.985.456 2.987.624.991.165 1.988.454 2.988.374 1.028-.083 1.965-.727 2.987-.873.417-.06 1.264 0 1.264 0z" stroke-width="2" fill="#55A"/><path d="M144.805 65.49s-3.289-2.469-5.125-3.368c-1.503-.735-3.088-1.43-4.75-1.621-1.564-.18-3.155.169-4.7.473-1.118.22-2.275.43-3.275.972-1.117.607-2.9 2.474-2.9 2.474" stroke-width="2"/><path d="M124.444 68.343s3.08 2.758 4.917 3.633c1.36.648 2.87 1.059 4.374 1.125 1.976.088 3.981-.33 5.858-.963 1.184-.4 2.25-1.083 3.317-1.76.76-.48 2.186-1.627 2.186-1.627s-2.231-1.597-3.404-2.276c-1.175-.682-2.343-1.447-3.626-1.799-1.869-.512-3.877-.8-5.766-.408-2.883.597-7.856 4.075-7.856 4.075z" stroke-width="2"/><path d="M140.378 68.84c-.262 2.011-2.566 3.372-5.147 3.037-2.58-.334-4.46-2.236-4.199-4.248.262-2.012 2.566-3.372 5.147-3.038 2.58.334 4.46 2.236 4.199 4.248z" stroke-width="2.002"/><path d="M137.8 67.655c-.11.838-.957 1.42-1.892 1.299-.936-.121-1.606-.9-1.497-1.738.11-.838.956-1.42 1.892-1.298.935.12 1.605.899 1.496 1.737z" stroke-width="2.011" fill="#55A"/><path d="M162.555 72.85l5.125 4.49M142.555 74.472l-5.125 3.742" stroke-width="2"/></g><path stroke="#55A" stroke-width="2" stroke-linecap="round" stroke-linejoin="round" d="M121.788 49.496l.067 5.783 1.302 9.797.5 7.497-.2 9.796.702 7.797 2.103 10.596 1.47 7.879-.168 4.616"/><path d="M123.151 66.476s-.403 2.344-.936 3.388c-.682 1.332-1.612 2.604-2.81 3.503-1.215.914-2.693 1.83-4.213 1.752-1.551-.079-3.214-.943-4.096-2.219-.827-1.196-.861-2.894-.585-4.321.255-1.318.84-2.807 1.99-3.504.9-.546 2.186-.52 3.16-.117.688.285 1.214.957 1.521 1.635.323.714.234 2.336.234 2.336s1.31-2.116 1.756-3.27c.579-1.498.878-3.093 1.17-4.672.236-1.273.247-2.579.468-3.854.212-1.22.82-3.62.82-3.62M123.502 74.185s-.638 4.415-1.287 6.54c-.617 2.02-1.373 4.028-2.458 5.84-.669 1.117-1.433 2.232-2.458 3.037-1.289 1.013-4.447 2.102-4.447 2.102s2.482-1.8 2.574-3.153c.072-1.046-.782-2.08-1.638-2.686-.91-.646-2.172-.864-3.277-.701-1.278.188-2.572.874-3.394 1.869-.887 1.073-1.306 2.58-1.288 3.97.019 1.404.495 2.901 1.405 3.972 1.152 1.355 2.923 2.288 4.681 2.57 1.882.3 3.898-.234 5.618-1.052 1.525-.724 2.844-1.927 3.862-3.27 1.19-1.57 2.458-5.373 2.458-5.373" stroke="#55A" stroke-width="2" stroke-linecap="round" stroke-linejoin="round"/><g stroke="#55A" stroke-linecap="round" stroke-linejoin="round" stroke-width="2"><path d="M187.125 121.37c3.344-.73 3.75 4.071 2.495 5.74-1.46 1.942-5.73.986-7.244-.916-2.024-2.544-1.435-7.54 1-9.694 2.144-1.895 6.159-1.358 8.59.152 2.222 1.38 3.518 4.358 3.591 6.969.12 4.263-1.622 9.375-5.213 11.688-6.221 4.007-15.999 3.89-22.215-.126-5.308-3.431-7.857-7.632-11.01-12.07-1.756-2.471-3.784-6.843-4.325-7.996"/><path d="M157.972 115.194c1.52 3.354 3.397 6.325 5.92 8.807 3.3 3.247 7.204 6.278 11.656 7.565 3.441.994 7.406 1.153 10.746-.14 1.362-.527 2.689-2.403 3.274-2.905"/><path d="M162.532 114.869c2.212 3.203 5.17 7.183 8.845 9.448 3.586 1.641 7.292 3.256 10.862 2.417M167.255 112.919c1.656 2.831 3.767 5.54 6.484 7.365 2.012 1.351 4.499 1.85 6.871 2.386M171.652 110.48c1.938 2.225 3.58 4.124 5.818 5.638 1.244.842 3.057 1.421 4.117 1.839M175.236 107.23c1.602 2.346 3.56 4.537 5.916 6.121 1.246.838 3.26 1.261 4.181 1.68M179.144 104.142c2.093 2.917 3.704 4.476 5.94 6.303 2.004 1.64 5.969 3.552 6.601 4.099M183.216 100.891c1.198 2.342 2.846 4.457 4.706 6.308.722.72 1.621 1.239 2.46 1.819"/></g><path d="M269.715 244.194s-3.528-9.25-4.063-14.116c-.448-4.064.747-12.242.747-12.242l5.128-4.516 5.567 1.005s-4.718 2.316-5.875 4.49c-.4.753-.513 1.781-.15 2.553.41.871 2.331 1.71 2.331 1.71s-2.25.48-2.974 1.278c-.639.705-1.181 1.823-.862 2.719.618 1.734 4.626 3.03 4.626 3.03s-3.012 1.29-2.67 4.028c.302 2.413 5.53 1.675 5.53 1.675s-3.906.67-3.597 3.334c.241 2.076 3.89 2.164 3.89 2.164l-3.916 1.254-3.712 1.634z" stroke="#55A" stroke-width="2" fill="#FF5" stroke-linecap="round" stroke-linejoin="round"/><g stroke="#000" stroke-linecap="round" stroke-linejoin="round" stroke-width="2"><path d="M140.352 130.316l38.89 27.52 50.2-31.377"/><path d="M148.13 149.368l31.113 22.227 39.951-25.402"/><path d="M153.923 165.164l24.966 17.722 33.234-21.522"/><path d="M159.09 179.358l20.506 15.17 27.224-18.346"/><path d="M161.919 193.823l18.71 11.982 21.948-15.51"/><path d="M164.394 207.23l15.76 9.648 20.982-14.79M164.394 217.815l8.485 7.762M186.804 225.319l11.734-10.638M196.214 227.694l-5.888 4.912M146.009 135.255v10.585M157.323 142.925v12.44M168.14 150.602l.143 12.173M178.89 158.188l.353 13.055M190.91 151.132l.284 12.279M202.577 143.37v12.349M214.423 136.136l-.178 12.88"/></g><g stroke="#55A" stroke-linecap="round" stroke-linejoin="round" stroke-width="2"><path d="M190.458 45.35c2.307 11.467 4.153 39.612 4.772 50.16.736 9.712 1.821 18.343 6.122 24.744 1.03 3.073 3.746 5.29 7.229 5.276 3.821.34 5.836-8.518-1.36-8.57"/><path d="M184.322 44.499c3.971 17.14 3.985 46.33 6.436 62.497 1.379 9.088 5.358 19.618 13.448 23.889 3.577 1.888 9.394 1.967 12.096-1.04 3.25-3.616 2.723-10.787-.33-14.57-2.65-3.281-8.61-4.996-12.311-2.969-2.296 1.257-2.746 4.85-2.545 7.417"/><path d="M196.39 45.77c3.352 14.564 3.031 18.282 3.551 33.855.17 5.08.228 14.746 1.697 21.93.654 3.202 1.836 7.617 3.14 9.29M201.85 47.349c3.353 14.564 3.032 18.282 3.552 33.855.17 5.081-.106 12.643 1.222 18.771.784 3.62 2.627 8.723 3.932 10.396M206.599 48.06c3.352 13.944 3.032 17.503 3.551 32.413.17 4.864-.106 12.103 1.222 17.97.784 3.467 2.627 8.352 3.932 9.953M212.139 49.086c3.108 13.214 2.81 16.588 3.293 30.716.157 4.61-.098 11.47 1.133 17.03.727 3.285 2.436 7.914 3.646 9.432M217.362 49.876c3.109 12.374 2.811 15.533 3.293 28.765.157 4.316-.098 10.74 1.133 15.948.727 3.075 2.436 7.41 3.646 8.832M216.197 109.543c.55-1.12 1.48-2.448 2.737-2.59 2.49-.28 4.968 1.806 6.458 3.787 2.495 3.315 3.448 7.915 2.998 12.015-.252 2.302-1.217 4.883-3.107 6.238-.77.553-1.632.951-2.82.387"/><path d="M221.571 107.344c.314-1.104.907-2.438 1.899-2.692 1.963-.504 4.185 1.212 5.604 2.926 2.374 2.867 3.66 7.087 3.766 10.975.059 2.182-.421 4.696-1.781 6.149-.555.593-1.2 1.05-2.216.636"/><path d="M226.366 104.896c.314-1.103.907-2.437 1.899-2.692 1.963-.504 4.184 1.213 5.603 2.926 2.375 2.868 3.661 7.088 3.767 10.975.059 2.183-.421 4.696-1.781 6.15-.555.592-1.2 1.049-2.216.635"/><path d="M231.699 103.165c.329-1.066.94-2.352 1.936-2.585 1.97-.463 4.167 1.232 5.562 2.913 2.335 2.813 3.562 6.923 3.613 10.695.028 2.118-.245 4.641-1.867 5.94-.829.663-2.164.685-3.174.27M210.793 111.718c.55-1.12 1.48-2.447 2.737-2.589 2.49-.28 4.968 1.805 6.458 3.787 2.495 3.315 3.448 7.915 2.998 12.014-.252 2.302-1.047 5.117-3.107 6.239-1.152.627-2.74.161-3.929-.403"/></g><g stroke="#55A" stroke-linecap="round" stroke-linejoin="round" stroke-width="2"><path d="M126.451 106.643c-2.38 6.238-5.386 8.293-10.14 11.27-1.792 2.703-5.058 5.365-7.27 3.768-1.96-1.417-2.359-6.646 1.168-7.15"/><path d="M127.45 112.797c-2.28 8.074-8.729 14.02-15.947 14.807-3.73.406-8.445-2.17-9.703-5.699-1.535-4.307.089-10.859 4.78-12.859 2.923-1.246 6.566-.081 8.6 2.047 1.835 1.917 1.356 6.291 1.486 7.813"/><path d="M132.977 113.118c-2.46 6.768-8.398 18.029-16.87 19.438-3.02.503-6.283-1.872-7.94-4.607"/><path d="M137.57 114.311c-2.598 6.794-3.464 13.51-8.77 17.122-2.936 1.998-8.073 2.603-10.609 1.053"/><path d="M142.43 114.886c-1.752 6.224-2.365 11.956-6.688 15.625-2.3 1.953-6.222 3.657-8.795 2.17M146.887 114.865c-.928 4.737-.763 10.37-4.206 13.678-1.197 1.15-2.803 2.816-4.817 1.277M151.889 114.878c-.976 4.212-.472 5.837-1.853 9.967-.568 1.697-2.886 3.726-4.827 2.34M111.213 107.455c.857-.755 1.912-1.55 3.054-1.55 1.894-.001 3.844 1.121 5.067 2.565 1.217 1.436 1.439 3.518 1.684 5.386M116.78 105.987c.611-.469 1.365-.962 2.18-.962 1.353 0 2.746.696 3.62 1.592.869.891 1.027 2.184 1.203 3.343M120.87 104.88s1.376-1.406 2.286-1.544c.838-.127 2.433.735 2.433.735"/></g><path d="M136.325 132.403s7.43 10.309 10.391 15.906c3.872 7.32 6.864 15.1 9.546 22.934 2.33 6.803 4.273 13.76 5.657 20.816 1.118 5.698 1.767 11.493 2.121 17.288.316 5.165.063 10.35 0 15.524-.059 4.823-.353 14.466-.353 14.466m-25.456 4.586s1.099-9.866 1.06-14.818c-.042-5.43-.376-10.9-1.414-16.23-1.152-5.916-2.958-11.734-5.303-17.288a105.958 105.958 0 0 0-10.253-18.7c-2.79-4.061-6.235-7.639-9.546-11.29-3.747-4.13-7.518-8.266-11.667-11.995-3.119-2.803-6.564-5.222-9.9-7.762-3.148-2.397-6.268-4.84-9.546-7.057-2.25-1.521-6.935-4.279-6.935-4.279" stroke="#030000" stroke-width="2" stroke-linecap="round" stroke-linejoin="round"/><path d="M43.248 150.917l-.123 92.762M34.767 156.424v71.41M29.916 160.192l.127 64.933" stroke="#55A" stroke-width="2" stroke-linecap="round" stroke-linejoin="round"/><path d="M109.622 211.115l-5.423 18.317s1.537-1.366 2.445-1.248c.767.099 1.305.899 1.728 1.544.866 1.32 1.487 4.492 1.487 4.492s.298-2.797 1.014-3.955c.414-.67 1.005-1.439 1.785-1.547.718-.099 1.968.925 1.968.925l-5.004-18.528z" fill="#55A"/><g stroke="#55A" stroke-linecap="round" stroke-linejoin="round" stroke-width="2"><path d="M174.431 232.634s-2.196-6.815-.22-9.056c2.574-2.92 8.56-3.449 11.49-.905 2.54 2.203.885 10.187.885 10.187s6.446-1.609 8.397.453c2.36 2.493 2.458 7.805.221 10.414-1.809 2.11-8.176.905-8.176.905s.409 6.486-1.768 8.15c-2.545 1.946-7.07 1.411-9.503-.679-2.094-1.799-1.989-8.15-1.989-8.15s-7.091 1.898-9.06-.453c-2.315-2.764-1.536-8.428 1.105-10.866 2.134-1.97 8.618 0 8.618 0z" fill="#FFF"/><path fill="#55A" d="M180.18 229.305l-9.05 8.826 9.256 8.826 10.079-9.441z"/><path d="M185.908 238.038c0 2.814-2.227 5.094-4.973 5.094s-4.972-2.28-4.972-5.094c0-2.813 2.226-5.093 4.972-5.093 2.746 0 4.973 2.28 4.973 5.093z" fill="#FF5"/></g><path d="M236.456 149.04c.184 1.048.66 2.258 2.121 3.058 2.63 1.44 5.453.455 6.789-1.975 1.336-2.43.785-5.578-1.846-7.018-1.46-.8-2.02-.474-3.298-.224l-.158-.403c1.277-.25 4.525-1.317 5.46-3.018 1.07-1.944.36-5.495-1.978-6.774-2.338-1.28-5.72.03-6.789 1.974-.935 1.702-.092 5.009.384 6.218l-.426.083c-.476-1.21-.5-1.855-1.962-2.655-2.63-1.44-5.586-.213-6.922 2.218-1.336 2.43-.651 5.334 1.979 6.774 1.461.8 2.739.55 3.724.142l.158.403c-1.093 1.298-.96 1.055-1.92 2.11s-3.173 3.006-3.173 3.006c3.19 1.113 3.19 1.113 5.845 3.2 0 0 .46-2.91.835-4.286.376-1.375.242-1.132.751-2.75l.426-.084zM216.83 217.589c.57.9 1.472 1.836 3.129 2.02 2.982.33 5.215-1.654 5.521-4.409.307-2.755-1.405-5.455-4.387-5.785-1.657-.183-2.05.33-3.135 1.047l-.3-.312c1.085-.716 3.68-2.939 3.895-4.867.245-2.204-1.768-5.216-4.418-5.51-2.65-.294-5.276 2.204-5.521 4.408-.215 1.929 1.829 4.666 2.73 5.602l-.361.239c-.902-.937-1.172-1.524-2.829-1.708-2.982-.33-5.245 1.93-5.552 4.684-.306 2.755 1.436 5.18 4.418 5.51 1.657.183 2.742-.533 3.497-1.286l.3.312c-.515 1.616-.484 1.34-.969 2.682-.484 1.34-1.784 3.986-1.784 3.986 3.374-.184 3.374-.184 6.625.734 0 0-.687-2.866-.865-4.28-.178-1.414-.209-1.139-.356-2.828l.362-.24zM15.75 194.182c.5.665 1.25 1.33 2.5 1.33 2.25 0 3.75-1.774 3.75-3.991 0-2.218-1.5-4.214-3.75-4.214-1.25 0-1.5.444-2.25 1.109l-.25-.222c.75-.665 2.5-2.66 2.5-4.213 0-1.774-1.75-3.992-3.75-3.992s-3.75 2.218-3.75 3.992c0 1.552 1.75 3.548 2.5 4.213l-.25.222c-.75-.665-1-1.109-2.25-1.109-2.25 0-3.75 1.996-3.75 4.214 0 2.217 1.5 3.992 3.75 3.992 1.25 0 2-.666 2.5-1.331l.25.222c-.25 1.33-.25 1.109-.5 2.217-.25 1.11-1 3.327-1 3.327 2.5-.444 2.5-.444 5 0 0 0-.75-2.218-1-3.327-.25-1.108-.25-.887-.5-2.217l.25-.222zM15.75 224.12c.5.665 1.25 1.33 2.5 1.33 2.25 0 3.75-1.774 3.75-3.991 0-2.218-1.5-4.214-3.75-4.214-1.25 0-1.5.444-2.25 1.109l-.25-.222c.75-.665 2.5-2.661 2.5-4.213 0-1.775-1.75-3.992-3.75-3.992s-3.75 2.217-3.75 3.992c0 1.552 1.75 3.548 2.5 4.213l-.25.222c-.75-.665-1-1.109-2.25-1.109-2.25 0-3.75 1.996-3.75 4.214 0 2.217 1.5 3.991 3.75 3.991 1.25 0 2-.665 2.5-1.33l.25.221c-.25 1.33-.25 1.11-.5 2.218-.25 1.109-1 3.326-1 3.326 2.5-.443 2.5-.443 5 0 0 0-.75-2.217-1-3.326s-.25-.887-.5-2.218l.25-.222z" fill="#FFF"/><g stroke-linecap="round" stroke-linejoin="round" stroke-width="2"><path d="M233 177.993c0 5.512-4.477 9.98-10 9.98s-10-4.468-10-9.98c0-5.51 4.477-9.979 10-9.979s10 4.468 10 9.98z" stroke="#FFFDFF"/><path d="M228 177.993a4.995 4.995 0 0 1-5 4.99c-2.761 0-5-2.234-5-4.99a4.995 4.995 0 0 1 5-4.99c2.761 0 5 2.235 5 4.99z" stroke="#FFF" fill="#FFF"/></g><g fill="#FF5"><path d="M110.124 137.716c.936-.213 1.94.502 2.634 1.164 1.06 1.011.951 2.87 1.963 3.931.933.978 2.303 1.436 3.54 1.983 1.809.799 3.737 1.296 5.63 1.872-3.223 1.337-7.006 2.297-10.288 1.225-2.18-.712-4.245-2.536-5.027-4.687-.493-1.357-.048-2.975.533-4.296.21-.478.506-1.076 1.015-1.192zM128.688 156.45s3.407.266 4.38 1.456c1.107 1.354 1.086 3.519.626 5.204-.482 1.768-1.693 3.558-3.338 4.371-1.495.74-3.396.44-5.006 0-2.104-.575-4.241-1.652-5.631-3.33-1.177-1.421-1.64-3.376-1.877-5.204-.208-1.588-.128-3.28.417-4.787.746-2.064 2.003-4.086 3.754-5.412 1.524-1.154 3.547-1.5 5.423-1.873 2.254-.45 4.631-.876 6.883-.417 2.59.528 5.11 1.793 7.092 3.539 2.631 2.318 4.53 5.493 5.84 8.742 1.03 2.55 1.148 5.386 1.46 8.118.317 2.76.464 5.547.418 8.326-.056 3.341-.629 6.655-.835 9.99-.107 1.734-.524 3.497-.208 5.205.192 1.039.542 2.13 1.251 2.914.48.53 1.166 1.116 1.878 1.04.735-.078 1.43-.758 1.668-1.457.228-.67-.417-2.081-.417-2.081s2.113 1.542 2.503 2.706c.443 1.322.344 2.993-.417 4.163-.61.938-1.807 1.53-2.92 1.665-1.005.121-2.04-.335-2.92-.833-1.242-.7-3.13-2.914-3.13-2.914s-.874 6.094-.833 9.159c.031 2.375.248 4.775.834 7.077.46 1.81 1.055 3.644 2.086 5.204.541.819 1.177 1.706 2.085 2.081.964.398 3.13 0 3.13 0s-2.14-1.256-2.712-2.29c-.476-.858-.682-1.969-.418-2.914.266-.95 1.013-1.812 1.878-2.29.981-.54 2.27-.76 3.337-.416 1.357.44 2.454 1.66 3.129 2.914.8 1.488 1.235 3.356.834 4.996-.247 1.011-1.045 1.87-1.877 2.498-1.545 1.165-3.487 2.026-5.423 2.081-1.825.053-3.72-.62-5.215-1.665-1.583-1.107-2.713-2.838-3.546-4.58-1.169-2.445-1.672-5.207-1.877-7.909-.258-3.401.36-6.821.834-10.2.345-2.452 1.148-4.828 1.46-7.284.159-1.241.126-2.499.209-3.747.12-1.805.417-5.412.417-5.412s-3.12 2.495-5.006 2.706c-1.794.201-3.849-.279-5.214-1.457-1.554-1.34-2.338-3.576-2.503-5.62a6.308 6.308 0 0 1 1.043-3.955c.727-1.067 1.9-1.888 3.128-2.29.86-.28 1.908-.412 2.712 0 .532.274 1.043 1.458 1.043 1.458s-1.497.601-1.877 1.249c-.459.78-.4 1.821-.209 2.706.183.85.502 1.845 1.252 2.29.896.53 2.148.353 3.128 0 1.532-.554 2.994-1.685 3.755-3.123.684-1.295.37-2.908.417-4.371.074-2.29.106-4.6-.209-6.869-.314-2.267-.662-4.605-1.668-6.66-.892-1.821-2.24-3.438-3.755-4.788-1.583-1.411-3.413-2.65-5.423-3.33-1.92-.651-4.055-.988-6.049-.625-1.223.223-2.373.88-3.337 1.665-.96.781-1.837 1.766-2.295 2.914-.567 1.425-.859 3.112-.417 4.58.385 1.276 1.3 2.544 2.503 3.122 1.128.54 2.723.707 3.755 0 .798-.547 1.012-1.74 1.043-2.706.037-1.163-1.043-3.33-1.043-3.33z"/><path d="M141.624 191.626c0 2.025-1.776 3.666-3.967 3.666s-3.968-1.641-3.968-3.666c0-2.024 1.777-3.665 3.968-3.665s3.967 1.641 3.967 3.665zM157.808 231.59a5.243 5.243 0 0 1-5.238 5.25 5.243 5.243 0 0 1-5.237-5.25 5.243 5.243 0 0 1 5.237-5.248 5.243 5.243 0 0 1 5.238 5.249z"/></g><path d="M110.124 171.852l-5.423 18.317s1.537-1.366 2.445-1.248c.767.099 1.305.899 1.728 1.544.866 1.32 1.487 4.492 1.487 4.492s.298-2.797 1.014-3.955c.415-.67 1.005-1.439 1.786-1.547.718-.099 1.967.925 1.967.925l-5.004-18.528zM90.663 149.671l-5.423 18.317s1.538-1.366 2.446-1.249c.767.1 1.304.9 1.728 1.545.865 1.32 1.487 4.491 1.487 4.491s.297-2.797 1.014-3.954c.414-.67 1.005-1.44 1.785-1.547.718-.1 1.967.924 1.967.924l-5.004-18.527zM71.873 136.78l-5.423 18.316s1.537-1.366 2.445-1.248c.767.099 1.305.899 1.728 1.544.866 1.32 1.487 4.492 1.487 4.492s.298-2.797 1.014-3.955c.414-.67 1.005-1.439 1.786-1.547.718-.099 1.967.925 1.967.925l-5.004-18.528zM52.915 152.35l-5.423 18.317s1.537-1.366 2.445-1.25c.767.1 1.305.9 1.728 1.546.866 1.319 1.487 4.491 1.487 4.491s.298-2.797 1.014-3.955c.414-.669 1.005-1.439 1.785-1.546.718-.1 1.968.924 1.968.924l-5.004-18.527z" fill="#55A"/><g><path d="M107.825 218.52c0 16.758-13.375 30.343-29.875 30.343s-29.875-13.585-29.875-30.343c0-16.757 13.375-30.342 29.875-30.342s29.875 13.585 29.875 30.342z" stroke="#000" stroke-width="2" fill="#000" stroke-linecap="round" stroke-linejoin="round"/><path d="M67.493 189.517s-1.559-4.569-2.845-6.586c-1.472-2.307-5.462-6.132-5.462-6.132s3.405-2.34 5.348-2.952c2.037-.642 6.372-.681 6.372-.681s1.64-3.02 2.617-4.429c1.274-1.837 4.21-5.223 4.21-5.223s4.222 3.239 5.804 5.337c.968 1.285 2.162 4.315 2.162 4.315s4.007-.06 5.917.454c2.277.612 6.372 3.066 6.372 3.066s-4.634 3.869-6.259 6.359c-1.402 2.15-2.844 7.154-2.844 7.154s-4.8-1.55-7.283-1.93c-2.439-.376-4.939-.571-7.396-.341-2.29.214-6.713 1.59-6.713 1.59z" stroke="#000" stroke-width="2" fill="#FF5" stroke-linecap="round" stroke-linejoin="round"/><path d="M72.613 187.587s-.929-3.682-1.82-5.337c-.705-1.307-2.732-3.52-2.732-3.52s2.108-.6 3.187-.568c1.287.04 3.755.908 3.755.908s.858-2.926 1.479-4.314c.443-.99 1.593-2.84 1.593-2.84s1.779 2.004 2.39 3.18c.623 1.201 1.251 3.86 1.251 3.86s2.337-.531 3.528-.567c1.143-.034 3.413.34 3.413.34s-2.154 2.533-2.958 3.975c-.953 1.707-2.162 5.45-2.162 5.45s-3.91-1.058-5.917-1.135c-1.679-.064-5.007.568-5.007.568z" stroke="#000200" stroke-width="2" fill="#000" stroke-linecap="round" stroke-linejoin="round"/><path d="M101.489 219.633a2.497 2.497 0 0 1-2.5 2.495c-1.38 0-2.5-1.117-2.5-2.495a2.497 2.497 0 0 1 2.5-2.494c1.38 0 2.5 1.116 2.5 2.494zM80.37 216.975a2.497 2.497 0 0 1-2.5 2.495c-1.38 0-2.5-1.117-2.5-2.495a2.497 2.497 0 0 1 2.5-2.495c1.382 0 2.5 1.117 2.5 2.495zM90.952 217.764a2.497 2.497 0 0 1-2.5 2.495c-1.38 0-2.5-1.117-2.5-2.495a2.497 2.497 0 0 1 2.5-2.495c1.38 0 2.5 1.117 2.5 2.495zM80.203 206.26a2.497 2.497 0 0 1-2.5 2.495c-1.38 0-2.5-1.117-2.5-2.495a2.497 2.497 0 0 1 2.5-2.495c1.38 0 2.5 1.117 2.5 2.495zM80.706 196.717a2.497 2.497 0 0 1-2.5 2.495c-1.38 0-2.5-1.117-2.5-2.495a2.497 2.497 0 0 1 2.5-2.495c1.381 0 2.5 1.117 2.5 2.495zM68.962 217.98a2.497 2.497 0 0 1-2.5 2.495c-1.38 0-2.5-1.117-2.5-2.495a2.497 2.497 0 0 1 2.5-2.495c1.381 0 2.5 1.117 2.5 2.495zM58.615 219.606a2.497 2.497 0 0 1-2.5 2.495c-1.381 0-2.5-1.117-2.5-2.495a2.497 2.497 0 0 1 2.5-2.495c1.38 0 2.5 1.117 2.5 2.495z" fill="#FF5"/><path d="M84.078 190.355l.336 20.76s8.766.455 13.086 1.172c2.783.462 8.221 2.01 8.221 2.01" stroke="#FF5" stroke-width="2" stroke-linecap="round" stroke-linejoin="round"/><path d="M88.44 191.694l.336 15.57s6.075.437 9.06 1.005c2.505.477 7.382 2.01 7.382 2.01M71.831 191.025l-.671 20.593s-7.416.401-11.073 1.004c-3.292.543-9.73 2.344-9.73 2.344" stroke="#FF5" stroke-width="2" stroke-linecap="round" stroke-linejoin="round"/><path d="M67.637 192.03l-.671 15.904s-5.95.646-8.892 1.172c-2.484.445-7.382 1.675-7.382 1.675M51.363 229.197c6.101-2.363 13.22-4.196 20.074-4.792 6.047-.525 12.17.235 18.178 1.109 4.886.71 12.537 2.704 14.428 3.348" stroke="#FF5" stroke-width="2" stroke-linecap="round" stroke-linejoin="round"/><path d="M57.63 234.686c1.277-.973 3.349.451 4.59 1.47 1.544 1.267 1.753 3.604 2.9 5.238 1.107 1.577 3.805 4.353 3.805 4.353s-5.344-2.388-7.604-4.197c-1.4-1.12-2.893-2.364-3.565-4.024-.356-.879-.88-2.265-.126-2.84z" stroke="#FF5" fill="#FF5" stroke-linecap="round" stroke-linejoin="round"/><path d="M73.296 245.385s-2.807-2.809-4.097-4.315c-.808-.944-1.802-1.804-2.275-2.953-.465-1.129-.713-2.44-.456-3.633.169-.78.545-1.671 1.252-2.044.672-.354 1.678-.354 2.276.113.935.732.774 2.248 1.024 3.407.242 1.12.223 2.285.455 3.407.255 1.232.654 2.43 1.024 3.633.247.801.797 2.385.797 2.385zM76.937 245.612s-1.106-4.215-1.48-6.36c-.28-1.613-.931-3.284-.568-4.882.268-1.178.924-2.401 1.934-3.066.61-.4 1.48-.6 2.162-.34.73.279 1.229 1.077 1.48 1.816.4 1.184.064 2.51-.114 3.748a23.733 23.733 0 0 1-1.366 5.223c-.529 1.357-2.048 3.86-2.048 3.86zM81.033 245.271s2.178-3.692 2.959-5.677c.575-1.462.688-3.076 1.252-4.542.303-.79.497-1.717 1.137-2.272.635-.548 1.623-1.135 2.39-.794.605.268.721 1.16.796 1.816.14 1.225-.179 2.509-.682 3.634-.585 1.307-1.672 2.33-2.617 3.407-.849.966-1.74 1.905-2.731 2.725-.778.643-2.504 1.703-2.504 1.703zM86.95 245.612s2.124-2.24 3.073-3.438c.95-1.202 1.883-2.428 2.617-3.751.663-1.196.456-2.905 1.593-3.75.537-.4 1.41-.557 2.048-.313.728.278 1.23 1.059 1.365 1.77.197 1.03-.336 2.12-.91 3.022-.81 1.274-2.137 2.23-3.413 3.126-.904.634-1.97 1.045-2.959 1.563a980.856 980.856 0 0 1-3.414 1.77z" stroke="#FF5" stroke-width="2" fill="#FF5" stroke-linecap="round" stroke-linejoin="round"/></g><g><path d="M95.16 1.257c9.272 17.167 17.565 31.404 26.836 48.57 9.966-3.768 21.234-4.774 32.045-5.669 11.478-.95 23.086-.755 34.551.343 9.438.904 18.835 2.697 27.979 5.12l31.345-48.364H95.161z" stroke="#55A" stroke-width="2" fill="#FF5"/><path d="M136.265 19.775c-.695-.378-1.022-2.128-.572-3.066.13-.271.494-.465.795-.428.848.103 1.622.898 1.857 1.703.167.575-.464 1.136-.466 1.735-.002.594.093 1.25.452 1.723.702.927 1.849 1.717 3.012 1.767 1.937.083 4.38-.816 5.247-2.5.8-1.555-.041-3.659-1.029-5.11-.668-.982-1.803-1.88-3.016-1.993-1.1-.104-2.095.717-3.043 1.263.553-1.66 1.164-3.585.47-5.186-.666-1.534-2.35-2.658-3.987-3.181-.69-.22-1.455.027-2.177.107-1.296.65-2.629 1.65-3.106 2.982-.482 1.34.043 2.888.535 4.226.376 1.024 1.128 1.886 1.794 2.763-.954-.315-2.059-.336-2.938.081-1.664.79-3.46 2.367-3.517 4.153-.055 1.72 1.534 3.414 3.126 4.195 1.473.722 3.53.804 4.957-.028 1.112-.649 1.69-2.084 1.916-3.35.11-.617-.31-1.856-.31-1.856zM109.891 22.887c.005-.683.484-.713.413-1.538-.071-.82-1.326-1.299-2.124-1.186-.284.04-.619 1.199-.678 1.485l-5.176-9.06c.305-.401.643-.76.994-1.089.638-.258 1.257-.708 1.94-.668 1.623.095 3.459.756 4.45 2.07 1.033 1.372.957 3.383.87 5.124.726-.765 1.42-1.793 2.448-1.969 1.134-.193 2.392.384 3.247 1.165 1.263 1.154 2.565 2.989 2.226 4.69-.367 1.843-2.374 3.215-4.15 3.708-1.32.366-2.786-.2-4.026-.797M182.158 24.702c-2.27.29-4.663-.636-6.618-1.849-1.04-.645-1.473-2.027-2.478-2.739-.458-.324-1.006-.092-1.552-.65.311 3.1 1.37 3.42 2.596 4.744 1.61 1.739 3.757 3.026 5.958 3.886 2.367.924 4.976 1.438 7.505 1.252 2.977-.22 5.92-1.292 8.538-2.755 1.778-.994 3.448-2.326 4.67-3.978.678-.92 1.256-2.278 1.37-3.158-1.137 1.411-3.03 3.057-4.914 3.98-1.718.84-3.687 1.558-5.574 1.291-1.832-.258-3.191-1.257-4.874-2.707-1.78.985-2.868 2.457-4.627 2.683z" fill="#000"/><path d="M159.07 25.362c2.393.17 4.807-.948 6.838-2.194 1.07-.657 1.689-1.841 2.624-2.665.443-.39.525-1.14 1.409-1.073-.162 3.111-1.244 3.602-2.458 5.015-1.596 1.858-3.778 3.22-6.039 4.195-2.433 1.048-5.14 1.699-7.8 1.646-3.133-.063-6.275-.979-9.097-2.302-1.916-.899-3.838-2.045-5.105-3.727-.68-.903-1-2.31-1.164-3.183 1.265 1.349 3.02 2.983 4.922 3.817 1.83.802 3.947 1.362 5.911.997 1.907-.355 3.278-1.424 4.966-2.96 1.918.89 3.136 2.302 4.992 2.434zM212.214 27.437c-1.876-.059-3.762-1.253-5.268-2.647-.801-.742-1.237-1.894-1.819-2.87-.456-.766-.617-2.324-1.31-2.341.02 2.89.762 4.42 1.855 6.25 1.127 1.889 2.841 3.318 4.575 4.422 1.865 1.189 3.958 2.035 6.038 2.227 2.45.225 4.935-.338 7.185-1.306 1.528-.658 2.886-1.809 4.116-2.984 1.044-.998 2.554-2.61 2.713-3.401-1.452.515-2.382 1.826-5.384 3.513-1.366.768-3.354 1.012-4.94.522-1.558-.483-2.512-1.612-3.778-3.185-1.528.65-2.528 1.845-3.983 1.8zM120.903 29.553c-1.9.699-4.465.363-6.375-.586-1.142-.567-1.743-1.86-2.577-2.823-.64-.739-2.113-3.537-1.86-2.265.387 1.937 1.726 4.973 3.6 6.67 1.72 1.558 4.231 2.257 6.427 2.69 2.363.466 4.81.489 6.969-.156 2.542-.76 4.79-2.343 6.632-4.248 1.251-1.293 2.382-2.95 2.86-4.728.265-.981.119-2.17-.055-3.047-.758 2.15-1.339 3.799-2.796 5.064-1.208 1.05-2.875 1.683-4.487 1.712-1.81.032-3.188-.64-5.113-1.742-1.255 1.285-1.752 2.917-3.225 3.46z" fill="#000"/><path d="M113.976 33.968s4.962 1.56 7.546 1.715c3.062.183 6.29.08 9.144-.95 2.017-.729 3.654-2.182 5.228-3.551 1.067-.928 2.81-3.119 2.81-3.119s5.614 2.962 8.718 3.635c3.075.667 6.327.63 9.465.323 3.018-.295 6.123-.789 8.819-2.064 2.168-1.025 5.587-4.337 5.587-4.337s4.177 4.273 6.965 5.347c2.71 1.043 5.834.86 8.768.785 2.678-.07 5.375-.426 7.941-1.129 2.557-.7 7.286-3.04 7.286-3.04s2.615 3.42 4.395 4.668c1.656 1.161 3.659 1.88 5.638 2.473 1.994.596 4.092 1.193 6.18 1.057 2.554-.165 7.273-2.255 7.273-2.255l-4.144 6.694s-15.399-2.604-23.163-3.388c-6.279-.634-12.594-.88-18.904-1.06-6.794-.192-13.6-.273-20.39-.012-5.676.217-11.334.746-16.98 1.316-4.247.428-8.507.808-12.704 1.582-3.793.7-11.239 2.759-11.239 2.759l-4.239-7.449z" fill="#000"/><path d="M118.24 41.23s16.078-4.002 29.678-5.385c13.168-1.338 26.495-1.651 39.701-.769 11.35.758 33.726 5.193 33.726 5.193l-5.203 8.27s-17.96-4.118-27.11-4.937c-13.67-1.224-27.517-1.266-41.179.064-8.555.833-25.31 4.936-25.31 4.936l-4.304-7.372z" fill="#F55"/><path d="M230.79 23.196c.035-.682-.442-.74-.322-1.56.12-.814 1.4-1.218 2.19-1.059.281.057.547 1.234.59 1.523l5.703-8.739a8.734 8.734 0 0 0-.929-1.146c-.621-.295-1.212-.78-1.897-.781-1.625 0-3.497.55-4.564 1.804-1.113 1.309-1.156 3.32-1.171 5.064-.68-.806-1.313-1.874-2.328-2.11-1.12-.26-2.41.243-3.31.972-1.33 1.077-2.737 2.832-2.5 4.55.257 1.862 2.18 3.35 3.923 3.946 1.298.444 2.794-.034 4.067-.558M204.192 19.326c.695-.378 1.022-2.128.572-3.066-.13-.271-.494-.465-.795-.428-.848.103-1.622.898-1.857 1.703-.167.575.4 1.14.466 1.735.046.418-.053 1.26-.053 1.26-1.112.906-2.055 2.14-3.411 2.23-1.934.13-4.38-.816-5.247-2.5-.8-1.555.041-3.659 1.029-5.11.668-.982 1.803-1.88 3.016-1.993 1.1-.104 2.095.717 3.043 1.263-.553-1.66-1.164-3.585-.47-5.186.666-1.534 2.35-2.658 3.987-3.181.69-.22 1.455.027 2.177.107 1.296.65 2.629 1.65 3.106 2.982.482 1.34-.043 2.888-.535 4.226-.376 1.024-1.128 1.886-1.794 2.763.954-.315 2.059-.336 2.938.081 1.664.79 3.46 2.368 3.517 4.153.055 1.72-1.534 3.414-3.126 4.195-1.473.722-3.532.806-4.957-.028-1.196-.7-1.321-2.291-2.049-3.614l.443-1.592zM169.991 18.003c-.574-.543-.44-2.318.236-3.11.195-.228.597-.322.878-.21.793.317 1.309 1.285 1.357 2.122.03.528-.54.92-.697 1.425-.137.439-.206 1.363-.206 1.363.84 1.162 1.235 2.582 2.457 3.03 1.82.667 4.444.333 5.714-1.073 1.172-1.298.902-3.546.32-5.201-.394-1.121-1.259-2.279-2.403-2.7-1.036-.381-2.209.156-3.266.441.962-1.462 2.048-3.166 1.788-4.891-.249-1.653-1.587-3.17-3.035-4.096-.61-.39-1.413-.346-2.132-.454-1.42.297-2.964.922-3.768 2.086-.81 1.173-.701 2.803-.57 4.222.1 1.086.605 2.112 1.023 3.13-.84-.548-1.903-.852-2.86-.674-1.811.337-3.953 1.402-4.468 3.113-.495 1.649.605 3.692 1.943 4.855 1.237 1.075 3.206 1.684 4.798 1.242 1.336-.37 1.866-1.875 2.91-2.968l-.019-1.652z" fill="#000"/></g><g stroke="#55A" stroke-linecap="round" stroke-linejoin="round" stroke-width="2"><path d="M127.499 248.987s2.196 6.815.221 9.056c-2.575 2.92-8.56 3.449-11.492.905-2.54-2.203-.884-10.187-.884-10.187s-6.446 1.609-8.397-.453c-2.36-2.493-2.458-7.805-.221-10.414 1.809-2.11 8.176-.906 8.176-.906s-.409-6.485 1.768-8.15c2.545-1.945 7.07-1.41 9.503.68 2.095 1.799 1.989 8.15 1.989 8.15s7.092-1.899 9.06.452c2.315 2.764 1.536 8.429-1.104 10.867-2.134 1.97-8.619 0-8.619 0z" fill="#FFF"/><path fill="#55A" d="M121.75 252.315l9.05-8.826-9.256-8.826-10.078 9.442z"/><path d="M116.023 243.582c0-2.813 2.226-5.093 4.972-5.093 2.746 0 4.972 2.28 4.972 5.093 0 2.814-2.226 5.094-4.972 5.094-2.746 0-4.972-2.28-4.972-5.094z" fill="#FF5"/></g><path d="M1 184.067v96.505M301 297.565v-96.477" stroke="#000" stroke-width="2" stroke-linecap="square"/></g></svg>