<svg width="302" height="482" xmlns="http://www.w3.org/2000/svg"><g fill="none" fill-rule="evenodd"><path fill="#FF5" d="M251.707 301.112l17.555-5.32 13.318-10.339 9.382-9.121 7.718-7.754.303-12.466-48.124-.304 2.27 6.537-.454 6.233-2.422 6.538 5.297 3.04 4.389 3.649v2.888l-3.935 3.497-7.415 3.8 1.967 5.17z"/><path d="M260.636 256.112s-1.654 2.574-2.724 3.649c-1.07 1.075-3.632 2.736-3.632 2.736M270.775 256.112s-5.706 5.487-8.928 7.754c-2.46 1.73-7.87 4.408-7.87 4.408M252.01 275.268s7.219-2.717 10.593-4.561a63.113 63.113 0 0 0 9.686-6.537c2.903-2.377 8.02-7.906 8.02-7.906M289.692 256.112s-5.2 6.133-8.172 8.818c-3.188 2.88-6.66 5.461-10.29 7.753-3.802 2.4-11.956 6.233-11.956 6.233M299.226 257.328s-8.095 8.615-12.56 12.467c-3.912 3.373-7.987 6.613-12.41 9.273-4.782 2.877-15.133 7.146-15.133 7.146M251.253 295.335s9.52-2.664 14.074-4.56c3.98-1.659 7.773-3.76 11.502-5.93 3.85-2.24 7.692-4.545 11.199-7.297 4.078-3.2 11.35-10.642 11.35-10.642" stroke="#000" stroke-width="2" stroke-linecap="round" stroke-linejoin="round"/><path fill="#F55" d="M268.354 296.703l-16.798 5.321-1.967 9.426 10.139-7.297zM206.458 301.416l10.442-.152 4.54-2.128 5.297-4.105 3.48 1.368 3.784-1.52 5.297 3.345 5.902 4.865 2.875 5.929.303 2.736-11.653 7.145-16.344 7.602-8.777-13.53z"/><path fill="#55A" d="M193.897 265.538l1.06 3.496 5.902.305 7.113-1.977 6.658.304 6.962 1.673 4.842 4.408 1.514-2.888 3.178-.152 3.48 1.824-.15-33.446-11.805 11.554-6.81 4.105-10.442 5.777z"/><path fill="#F55" d="M246.26 157.143l8.474 2.128 13.62 14.139-.605 81.638-16.496.608-4.086 4.713-4.994 5.625-8.475 5.929.303-31.774 9.231-12.162 5.297-13.226 3.632-17.027.152-17.18-3.481-15.658z"/><path fill="#55A" d="M261.393 158.663l7.264-1.368 6.658-3.04 7.87 4.104 8.02 1.976 8.324 1.216v35.727zM280.079 190.767h10.884v3.645h-10.884z"/><path fill="#000" d="M215.95 153.583l12.019-14.807 9.523 12.073 6.576 16.629 2.948 15.49-.227 16.173-4.988 19.59-7.937 13.895-11.337 11.161-10.884 7.973-18.14 8.428-1.815-17.767 12.699-7.29 14.285-12.984 7.03-12.756 4.08-14.123-.453-10.934-2.947-12.3-4.535-10.25zM233.147 344.369l12.437-5.77 14.586-9.11 10.002-7.728 9.864-7.713 10.835-9.4 9.136-8.267.033 12.34-16.254 13.6-12.363 9.653-10.697 7.452-10.002 5.659-11.96 7.108zM224.013 331.794l16.305-8.341 15.852-10.01 10.87-8.493 10.72-8.038 11.775-10.768 10.115-9.251-.15 11.526-17.664 16.38-13.437 11.374-11.625 8.19-10.87 6.218-16.607 8.645z"/><path d="M220.506 326.678s10.245-4.539 15.194-7.158c4.233-2.241 8.361-4.69 12.374-7.308 5.908-3.854 11.627-8.007 17.194-12.342a255.62 255.62 0 0 0 15.278-12.885c6.732-6.145 19.46-19.215 19.46-19.215v8.838s-13.15 12.285-19.996 18.117c-5.373 4.577-10.866 9.02-16.527 13.23-4.952 3.682-9.99 7.264-15.236 10.507-3.888 2.403-7.974 4.47-12.008 6.615-4.1 2.18-12.396 6.356-12.396 6.356l-3.337-4.755z" stroke="#000" stroke-width="2" fill="#FF5" stroke-linecap="round" stroke-linejoin="round"/><path fill="#F55" d="M134 223.061l33.838-.309.923-9.58 2.153-14.215 2-10.352 4.306-15.451-43.682 42.182zM106.16 126.182l6.153 15.142 6.46 15.451 3.845 10.507 2.153 6.953 45.22-42.8-6.46.618-8.306-2.163-5.383-3.4-3.691-6.18-3.23-8.189h-2.154l-.769 5.254-3.999 5.407-5.69 1.391-4.154 2.781-5.69-.772-3.538 2.008h-5.384l-4.152-2.317z"/><path fill="#FF5" d="M132.462 204.52l-1.692-6.18L128 185.67l-2.615-11.126 56.14-54.234 4.461 1.545 5.076-1.545 3.076-2.163 3.538 2.318-9.075 19.777-6.921 17.306z"/><path d="M182.78 298.833l9.847 11.003-.704-10.435s-1.103-1.963-1.91-2.721c-1.146.096-3.344-2.046-3.344-2.046s-.094 2.88-1.044 3.739c-.719.65-2.845.46-2.845.46zM226.266 363.865l-1.066-6.684s-1.492 2.157-2.656 2.354c-1.468.247-4.13-1.707-4.13-1.707s.373 3.225-.56 4.346c-.706.848-3.148 1-3.148 1l5.802 3.583" fill="#55A"/><path d="M198.088 121.346s-7.437 13.302-10.539 20.253c-3.005 6.735-5.531 13.69-7.79 20.714-3.062 9.527-5.753 19.198-7.789 28.999-1.482 7.137-2.488 14.379-3.207 21.634-.895 9.02-1.282 18.094-1.375 27.158-.052 5.065-.039 10.149.458 15.19 1.267 12.852 3.675 25.587 6.415 38.205 2.259 10.4 4.828 20.765 8.248 30.84 2.563 7.552 5.574 14.977 9.164 22.095 4.274 8.473 14.663 24.396 14.663 24.396s12.983-3.88 19.244-6.445c5.82-2.384 16.954-8.285 16.954-8.285s-7.856-9.032-11.455-13.81c-3.912-5.191-7.437-10.669-10.997-16.11-2.677-4.09-5.43-8.144-7.79-12.428-2.215-4.023-5.956-12.428-5.956-12.428" stroke="#000" stroke-width="2" stroke-linecap="round" stroke-linejoin="round"/><path d="M196.677 145.382l12.698-10.934-2.04 16.629s-1.552-2.114-2.722-2.278c-1.474-.206-4.081 1.822-4.081 1.822s.283-3.234-.68-4.328c-.73-.827-3.175-.91-3.175-.91zM210.457 123.303l8.24-5.045 3.841.766-3.073 9.995s-1.22-1.952-2.241-2.177c-1.288-.284-3.736 1.297-3.736 1.297s.482-2.796-.292-3.817c-.585-.773-2.739-1.019-2.739-1.019zM186.44 168.545l11.729-11.978-.628 16.743s-1.725-1.974-2.904-2.038c-1.486-.08-3.912 2.164-3.912 2.164s.009-3.246-1.044-4.254c-.797-.763-3.24-.637-3.24-.637zM178.9 193.115l9.13-13.59 2.691 15.963s-2.08-1.536-3.248-1.37c-1.473.212-3.408 2.801-3.408 2.801s-.632-3.074-1.863-3.825c-.931-.568-3.301.021-3.301.021zM174.972 218.092l8.12-14.689 3.844 16.304s-2.187-1.44-3.34-1.185c-1.454.322-3.196 3.135-3.196 3.135s-.854-3.132-2.136-3.82c-.97-.521-3.292.255-3.292.255zM174.482 242.057l5.548-13.975 6.516 13.6s-2.397-.927-3.49-.534c-1.38.496-2.627 3.2-2.627 3.2s-1.366-2.594-2.745-3.002c-1.044-.309-3.202.711-3.202.711zM175.062 253.124l8.119 13.685 3.844-15.19s-2.187 1.342-3.34 1.104c-1.454-.3-3.195-2.92-3.195-2.92s-.855 2.917-2.137 3.559c-.97.485-3.291-.238-3.291-.238zM191.255 321.419l13.187 10.334-2.802-16.516s-1.453 2.184-2.614 2.401c-1.463.274-4.16-1.631-4.16-1.631s.431 3.217-.481 4.355c-.691.86-3.13 1.057-3.13 1.057zM203.302 343.591l11.32 9.495-2.182-14.878s-1.299 1.938-2.313 2.114c-1.278.223-3.597-1.532-3.597-1.532s.325 2.896-.487 3.903c-.615.761-2.74.898-2.74.898zM205.124 132.357a2.49 2.49 0 0 1-2.484 2.495 2.49 2.49 0 0 1-2.483-2.495 2.49 2.49 0 0 1 2.483-2.494 2.49 2.49 0 0 1 2.484 2.494zM213.963 130.955a2.49 2.49 0 0 1-2.483 2.495 2.49 2.49 0 0 1-2.484-2.495 2.49 2.49 0 0 1 2.484-2.494 2.49 2.49 0 0 1 2.483 2.494zM218.616 139.056a2.49 2.49 0 0 1-2.484 2.495 2.49 2.49 0 0 1-2.483-2.495 2.49 2.49 0 0 1 2.483-2.494 2.49 2.49 0 0 1 2.484 2.494zM193.183 153.233a2.49 2.49 0 0 1-2.484 2.495 2.49 2.49 0 0 1-2.483-2.495 2.49 2.49 0 0 1 2.483-2.495 2.49 2.49 0 0 1 2.484 2.495zM201.712 152.922a2.49 2.49 0 0 1-2.484 2.494 2.49 2.49 0 0 1-2.483-2.494 2.49 2.49 0 0 1 2.483-2.495 2.49 2.49 0 0 1 2.484 2.495zM206.364 161.178a2.49 2.49 0 0 1-2.483 2.495 2.49 2.49 0 0 1-2.484-2.495 2.49 2.49 0 0 1 2.484-2.494 2.49 2.49 0 0 1 2.483 2.494zM191.632 176.134a2.49 2.49 0 0 1-2.484 2.495 2.49 2.49 0 0 1-2.483-2.495 2.49 2.49 0 0 1 2.483-2.495 2.49 2.49 0 0 1 2.484 2.495zM184.498 179.094a2.49 2.49 0 0 1-2.483 2.495 2.49 2.49 0 0 1-2.484-2.495 2.49 2.49 0 0 1 2.484-2.495 2.49 2.49 0 0 1 2.483 2.495zM197.06 183.145a2.49 2.49 0 0 1-2.484 2.494 2.49 2.49 0 0 1-2.483-2.494 2.49 2.49 0 0 1 2.483-2.495 2.49 2.49 0 0 1 2.484 2.495zM186.049 200.126a2.49 2.49 0 0 1-2.484 2.494 2.49 2.49 0 0 1-2.483-2.494 2.49 2.49 0 0 1 2.483-2.495 2.49 2.49 0 0 1 2.484 2.495zM191.632 206.98a2.49 2.49 0 0 1-2.484 2.495 2.49 2.49 0 0 1-2.483-2.495 2.49 2.49 0 0 1 2.483-2.495 2.49 2.49 0 0 1 2.484 2.495zM179.225 202.93a2.49 2.49 0 0 1-2.483 2.495 2.49 2.49 0 0 1-2.483-2.495 2.49 2.49 0 0 1 2.483-2.495 2.49 2.49 0 0 1 2.483 2.495zM175.193 230.972a2.49 2.49 0 0 1-2.483 2.495 2.49 2.49 0 0 1-2.484-2.495 2.49 2.49 0 0 1 2.484-2.495 2.49 2.49 0 0 1 2.483 2.495zM182.792 224.584a2.49 2.49 0 0 1-2.483 2.495 2.49 2.49 0 0 1-2.484-2.495 2.49 2.49 0 0 1 2.484-2.494 2.49 2.49 0 0 1 2.483 2.494zM189.15 230.349a2.49 2.49 0 0 1-2.483 2.494 2.49 2.49 0 0 1-2.483-2.494 2.49 2.49 0 0 1 2.483-2.495 2.49 2.49 0 0 1 2.483 2.495zM182.482 247.018a2.49 2.49 0 0 1-2.483 2.495 2.49 2.49 0 0 1-2.484-2.495 2.49 2.49 0 0 1 2.484-2.495 2.49 2.49 0 0 1 2.483 2.495zM185.584 269.763a2.49 2.49 0 0 1-2.484 2.495 2.49 2.49 0 0 1-2.483-2.495 2.49 2.49 0 0 1 2.483-2.495 2.49 2.49 0 0 1 2.484 2.495zM191.477 262.441a2.49 2.49 0 0 1-2.484 2.495 2.49 2.49 0 0 1-2.483-2.495 2.49 2.49 0 0 1 2.483-2.495 2.49 2.49 0 0 1 2.484 2.495zM178.14 264.778a2.49 2.49 0 0 1-2.484 2.495 2.49 2.49 0 0 1-2.483-2.495 2.49 2.49 0 0 1 2.483-2.495 2.49 2.49 0 0 1 2.484 2.495zM181.086 290.327a2.49 2.49 0 0 1-2.483 2.495 2.49 2.49 0 0 1-2.484-2.495 2.49 2.49 0 0 1 2.484-2.494 2.49 2.49 0 0 1 2.483 2.494zM188.53 311.359a2.49 2.49 0 0 1-2.483 2.495 2.49 2.49 0 0 1-2.484-2.495 2.49 2.49 0 0 1 2.484-2.495 2.49 2.49 0 0 1 2.483 2.495zM196.904 313.228a2.49 2.49 0 0 1-2.483 2.495 2.49 2.49 0 0 1-2.483-2.495 2.49 2.49 0 0 1 2.483-2.495 2.49 2.49 0 0 1 2.483 2.495zM202.953 307.62a2.49 2.49 0 0 1-2.484 2.495 2.49 2.49 0 0 1-2.483-2.495 2.49 2.49 0 0 1 2.483-2.495 2.49 2.49 0 0 1 2.484 2.495zM211.947 325.847a2.49 2.49 0 0 1-2.483 2.495 2.49 2.49 0 0 1-2.484-2.495 2.49 2.49 0 0 1 2.484-2.495 2.49 2.49 0 0 1 2.483 2.495zM207.295 335.194a2.49 2.49 0 0 1-2.484 2.495 2.49 2.49 0 0 1-2.483-2.495 2.49 2.49 0 0 1 2.483-2.494 2.49 2.49 0 0 1 2.484 2.494zM197.99 333.17a2.49 2.49 0 0 1-2.483 2.494 2.49 2.49 0 0 1-2.484-2.495 2.49 2.49 0 0 1 2.484-2.495 2.49 2.49 0 0 1 2.483 2.495zM211.327 356.85a2.49 2.49 0 0 1-2.484 2.494 2.49 2.49 0 0 1-2.483-2.495 2.49 2.49 0 0 1 2.483-2.495 2.49 2.49 0 0 1 2.484 2.495zM218.926 355.447a2.49 2.49 0 0 1-2.484 2.495 2.49 2.49 0 0 1-2.483-2.495 2.49 2.49 0 0 1 2.483-2.495 2.49 2.49 0 0 1 2.484 2.495zM224.043 347.813a2.49 2.49 0 0 1-2.483 2.495 2.49 2.49 0 0 1-2.483-2.495 2.49 2.49 0 0 1 2.483-2.494 2.49 2.49 0 0 1 2.483 2.494z" fill="#55A"/><path d="M125.023 174.084l56.38-53.28" stroke="#000" stroke-width="2" stroke-linecap="round" stroke-linejoin="round"/><path d="M236.927 139.15s2.405 4.972 4.35 6.81c2.876 2.72 6.558 4.604 10.304 5.754 2.641.811 5.49.866 8.243.705 2.72-.16 5.462-.667 8.013-1.644 2.674-1.024 7.442-4.344 7.442-4.344s4.616 3.609 7.201 4.946c2.605 1.348 5.413 2.317 8.254 3.038 2.38.603 7.286 1.057 7.286 1.057V139.62l-61.093-.47z" stroke="#000" stroke-width="2" fill="#55A" stroke-linecap="round" stroke-linejoin="round"/><path stroke="#000" stroke-width="2" fill="#000" stroke-linecap="round" stroke-linejoin="round" d="M244.29 119.66l-12.856 13.62 5.26 5.988 61.326.47.175-20.196z"/><path d="M271.293 105.843l-9.588 12.715h25.952c-5.495-4.308-10.657-8.428-16.364-12.715zM251.025 105.22l10.02 13.448-28.817.17c5.742-4.555 12.833-9.084 18.797-13.617z" fill="#F55"/><path d="M223.714 119.243l75.745.065" stroke="#000" stroke-width="2" stroke-linecap="round" stroke-linejoin="round"/><g stroke="#55A" stroke-linecap="round" stroke-linejoin="round" stroke-width="2"><path d="M294.225 46.831c0 4.714-3.37 8.535-7.529 8.535-4.158 0-7.53-3.821-7.53-8.535s3.372-8.535 7.53-8.535 7.53 3.821 7.53 8.535zM246.563 33.022s3.08-.151 4.144-1.11c1.14-1.027 1.852-2.777 1.658-4.303-.18-1.413-1.326-2.65-2.487-3.47-1.097-.774-2.54-1.293-3.868-1.11-2.09.29-4.059 1.687-5.388 3.331-1.203 1.489-1.934 5.413-1.934 5.413l.138 32.614s-2.788-.05-3.868.694c-1.244.857-2.326 2.371-2.349 3.886-.024 1.595 1.162 3.105 2.349 4.164 1.157 1.032 2.741 1.947 4.283 1.804 1.755-.162 3.196-1.64 4.42-2.915 1.048-1.09 1.92-2.433 2.35-3.886.406-1.375.137-4.302.137-4.302l.415-30.81z" fill="#FF5"/><path d="M286.765 43.153s2.184.295 2.625 2.637c.276 1.466-.882 3.694-2.21 3.886-3.873.56-4.421-2.637-4.421-2.637" fill-opacity=".331" fill="#FF5"/><path d="M212.025 37.602l26.525.139M238.688 58.42h-28.321M222.11 38.018l-.138 20.124" fill="#FF5"/><path d="M227.636 43.431h6.493v9.437h-6.493zM221.004 47.872l-14.367-.139M209.123 43.015h12.572M208.57 53.423l12.987.14"/></g><path d="M232.621 344.514s11.853-6.043 17.562-9.45c5.266-3.14 10.375-6.55 15.365-10.117a268.819 268.819 0 0 0 16.313-12.623c6.254-5.239 18.146-16.431 18.146-16.431v-8.128s-11.398 10.818-17.286 16.016c-5.551 4.9-11.112 9.809-17.002 14.292-5.043 3.838-10.23 7.512-15.665 10.766-6.777 4.058-21.048 10.875-21.048 10.875l3.615 4.8zM242.522 356.141s6.192-3.058 9.21-4.733c5.085-2.822 10.101-5.78 14.978-8.95 5.474-3.557 10.834-7.304 16.011-11.285 5.956-4.579 17.286-14.469 17.286-14.469v-7.983s-11.144 10.273-17.026 15.04c-5.082 4.117-10.363 7.992-15.754 11.693a279.105 279.105 0 0 1-16.785 10.636c-3.724 2.184-11.387 6.162-11.387 6.162l3.467 3.89z" stroke="#000" stroke-width="2" fill="#FF5" stroke-linecap="round" stroke-linejoin="round"/><g stroke="#55A" stroke-linecap="round" stroke-linejoin="round"><path d="M148.293 51.738c2.213-.841 4.165-1.1 6.3-1.303a37.73 37.73 0 0 1 8.13.12c2.958.364 6.014.82 8.708 2.033 1.224.55 3.234 2.312 3.234 2.312s-5.512-2.399-8.459-3.006c-2.272-.468-4.64-.539-6.966-.462-2.657.087-5.277.657-7.907 1.047-2.18.322-3.837.303-6.523 1.067l3.483-1.808zM144.826 62.114s1.99-2.244 3.188-3.124c1.443-1.058 3.03-1.98 4.73-2.528 1.425-.458 2.951-.544 4.448-.59 1.677-.051 3.397-.045 5.018.354 2.198.542 4.219 1.62 6.162 2.716 1.68.947 3.365 1.932 4.701 3.306.725.745 1.724 2.6 1.724 2.6s-3.393-1.065-5.09-1.596c-2.774-.868-5.455-2.054-8.323-2.598-1.581-.3-3.213-.352-4.828-.354-1.538-.002-3.072.168-4.602.326-.573.059-1.145.128-1.712.232-1.823.334-5.416 1.256-5.416 1.256z" stroke-width="2.003"/><path d="M171.06 65.432s-5.267 1.601-7.6 2.88c-1.267.695-2.795.814-4.235.89-2.168.117-4.43.018-6.48-.648-1.232-.4-2.25-1.226-3.306-1.949-1.391-.952-3.974-3.13-3.974-3.13s3.867-.927 5.819-1.299c1.574-.3 3.146-.709 4.747-.752 2.016-.055 4.04.232 6.02.62 3.595.703 10.553 3.077 10.553 3.077l-1.545.31z" stroke-width="2.003"/><path d="M152.364 65.72c0 1.76 2.275 3.188 5.082 3.188s5.082-1.428 5.082-3.188c0-1.76-2.275-3.188-5.082-3.188s-5.082 1.427-5.082 3.188z" stroke-width="2.006"/><path d="M155.286 64.982c0 .733.825 1.328 1.842 1.328 1.018 0 1.842-.595 1.842-1.328 0-.734-.824-1.328-1.842-1.328-1.017 0-1.842.594-1.842 1.328zM112.828 56.297s.304.114 1.277-1.61c.886-1.57 2.236-1.663 3.532-2.11 2.033-.7 4.258-1.002 6.398-.807 1.77.162 3.589.65 5.084 1.616 1.483.958 2.819 2.428 3.546 3.943-1.466-.72-2.343-1.835-3.648-2.531-1.48-.79-3.024-1.59-4.68-1.837-2.41-.36-4.982-.224-7.289.565-1.59.544-4.22 2.77-4.22 2.77z" stroke-width="2.003" fill="#55A"/><path d="M134.126 59.111c-.013 1.88-.274 4.54-.58 6.79-.298 2.194-.828 4.349-1.221 6.527-.356 1.969-.684 3.942-1.03 5.913-.329 1.87-1 3.709-.992 5.607.003.93-.048 1.998.508 2.74 1.019 1.36 2.991 1.604 4.542 2.287.811.357 1.914.317 2.485.946" stroke-width="2.003"/><path d="M144.812 81.445c1.188-.405 2.31.7 2.923 1.58.453.65.483 1.563.263 2.31-.316 1.076-1.082 2.171-2.146 2.687-1.217.589-2.818.526-4.114.109-.976-.314-1.476-1.379-2.38-1.842-1.142-.587-2.461-.822-3.724-1.126" stroke-width="2.003"/><path d="M150.917 98.257s-2.508-.664-3.765-.985c-1.175-.299-2.313-.878-3.53-.874-1.342.003-2.57.731-3.883.984-1.086.209-2.211.658-3.295.437-.775-.158-1.215-1.094-2-1.203-1.13-.156-2.258.43-3.295.875-.641.276-1.765 1.094-1.765 1.094s1.753-.825 2.707-.875c1.244-.065 2.407.651 3.647.765 1.562.144 3.147.047 4.707-.11 1.032-.103 2.033-.4 3.06-.546 1.014-.145 2.035-.398 3.058-.328 1.053.073 2.013.637 3.06.766.427.052 1.294 0 1.294 0z" stroke-width="2.003" fill="#55A"/><path d="M144.092 104.08s-2.131 1.018-3.294 1.202a8.587 8.587 0 0 1-3.177-.109c-1.177-.263-3.295-1.422-3.295-1.422M132.686 61.69s-2.895-2.16-4.515-2.925c-1.415-.669-2.9-1.321-4.471-1.422-1.435-.092-2.858.384-4.236.766-1.096.303-2.193.641-3.177 1.202-1.16.661-3.133 2.5-3.133 2.5" stroke-width="2.003"/><path d="M113.783 64.92s2.895 2.461 4.596 3.281c1.208.582 2.538.977 3.877 1.111 2.006.202 4.11.19 6.028-.476 1.151-.401 2.12-1.288 3.108-2.056.703-.546 1.996-1.808 1.996-1.808s-2.398-1.304-3.64-1.836c-1.246-.533-2.494-1.148-3.81-1.35a15.11 15.11 0 0 0-5.787.221c-2.247.538-6.368 2.913-6.368 2.913z" stroke-width="2.003"/><path d="M128.7 65.56c-.033 1.973-2.175 3.536-4.782 3.49-2.607-.045-4.692-1.682-4.658-3.655.034-1.973 2.175-3.536 4.782-3.49 2.607.046 4.693 1.682 4.659 3.655z" stroke-width="2.009"/><path d="M126.002 64.693c-.015.822-.792 1.475-1.737 1.459-.945-.017-1.7-.697-1.686-1.519.015-.822.792-1.475 1.737-1.459.945.017 1.7.697 1.686 1.519z" stroke-width="2.021" fill="#55A"/><path d="M150.21 69.061l7.194 6.997M131.385 70.482l-5.755 7.106" stroke-width="2.003"/></g><path d="M82.805 1.377l29.99 39.901c10.37-3.768 20.26-2.984 30.47-3.256 10.641-.282 21.312.516 31.892 1.703 10.488 1.177 21.692 2.937 31.207 5.361 10.873-16.122 24.527-27.588 35.4-43.71H82.804z" stroke="#55A" stroke-width="2" fill="#FF5"/><path d="M127.236 20.04c-.723-.379-1.063-2.129-.595-3.067.135-.27.514-.464.827-.427.882.103 1.688.897 1.932 1.703.175.575-.482 1.136-.484 1.735-.002.593.096 1.249.47 1.722.731.927 1.924 1.718 3.135 1.768 2.015.083 4.558-.816 5.46-2.5.831-1.555-.043-3.66-1.07-5.11-.697-.982-1.877-1.88-3.14-1.994-1.144-.103-2.18.717-3.167 1.263.576-1.66 1.212-3.585.49-5.185-.693-1.534-2.445-2.658-4.15-3.182-.717-.22-1.514.028-2.265.107-1.349.65-2.735 1.651-3.232 2.982-.5 1.341.045 2.888.557 4.226.391 1.024 1.174 1.886 1.867 2.764-.993-.315-2.143-.336-3.057.08-1.732.79-3.6 2.368-3.66 4.154-.058 1.72 1.596 3.413 3.253 4.194 1.532.723 3.673.804 5.158-.028 1.157-.648 1.758-2.083 1.994-3.349.115-.617-.323-1.857-.323-1.857zM102.286 23.398c-.053-.68.441-.753.297-1.57-.144-.81-1.486-1.174-2.304-.99-.29.065-.564 1.07-.602 1.36l-6.266-8.357c.282-.428.755-.841 1.091-1.2.64-.314 1.242-.818 1.954-.84 1.691-.05 3.651.444 4.79 1.665 1.189 1.274 1.281 3.284 1.339 5.027.688-.828 1.32-1.914 2.37-2.18 1.16-.295 2.513.167 3.467.869 1.407 1.036 2.913 2.748 2.707 4.473-.223 1.87-2.187 3.416-3.986 4.066-1.338.483-2.906.05-4.243-.434M168.63 26.899c-2.114-.04-4.153-1.298-5.748-2.777-.85-.787-1.03-2.215-1.838-3.062-.367-.386-.902-.236-1.314-.865-.195 3.106.722 3.576 1.635 5.06 1.2 1.948 2.958 3.529 4.832 4.694 2.017 1.253 4.316 2.136 6.65 2.316 2.749.21 5.597-.426 8.211-1.496 1.774-.726 3.503-1.801 4.87-3.258.761-.81 1.498-2.07 1.737-2.923-1.253 1.23-3.233 2.585-5.094 3.225-1.696.584-3.602 1.01-5.282.476-1.63-.52-2.715-1.7-4.026-3.375-1.775.717-2.994 2.015-4.633 1.985z" fill="#000"/><path d="M147.734 25.71c2.153.282 4.39-.724 6.286-1.874.999-.606 1.618-1.76 2.504-2.54.42-.37.532-1.115 1.327-1.007-.304 3.1-1.306 3.54-2.474 4.896-1.536 1.781-3.574 3.04-5.665 3.909-2.25.934-4.727 1.459-7.126 1.283-2.825-.208-5.615-1.268-8.096-2.72-1.684-.986-3.36-2.22-4.42-3.958-.568-.933-.784-2.354-.89-3.233 1.075 1.405 2.576 3.119 4.25 4.04 1.612.886 3.495 1.543 5.287 1.269 1.74-.267 3.032-1.27 4.634-2.727 1.686.978 2.714 2.445 4.383 2.663zM198.32 32.046c-1.932-.058-3.83-1.416-5.424-2.646-.757-.584-1.165-1.533-1.873-2.176-.407-.37-.635-.935-1.349-.952.021 2.89 1.019 2.927 1.91 4.167 1.258 1.75 2.842 3.355 4.71 4.422 1.73.988 3.753 1.484 5.734 1.671 2.628.249 5.407.166 7.883-.75 1.619-.6 2.972-1.809 4.238-2.984 1.075-.998 2.63-2.61 2.794-3.402-1.495.515-2.453 1.826-5.544 3.514-1.406.768-3.454 1.012-5.086.522-1.605-.483-2.587-1.612-3.891-3.186-1.574.65-2.604 1.846-4.102 1.8zM112.942 29.232c-1.781.715-4.275.414-6.182-.502-1.139-.548-1.839-1.8-2.678-2.763-.547-.628-1.865-3.219-1.532-1.963.507 1.913 1.65 4.684 3.514 6.302 1.692 1.468 4.233 2.182 6.378 2.584 2.308.433 4.667.425 6.702-.24 2.395-.782 4.45-2.377 6.093-4.284 1.115-1.295 2.089-2.95 2.426-4.715.186-.974-.037-2.149-.265-3.015-.581 2.137-1.026 3.776-2.341 5.046-1.09 1.053-2.653 1.701-4.203 1.75-1.742.053-3.115-.594-5.046-1.663-1.12 1.288-1.485 2.91-2.866 3.463z" fill="#000"/><path d="M210.616 37.72s-4.824 1.256-7.291 1.287c-2.79.035-5.723-.124-8.275-1.247-1.804-.793-3.232-2.299-4.607-3.717-.931-.962-2.425-3.207-2.425-3.207s-5.228 2.777-8.08 3.348c-2.823.565-5.778.423-8.62.014-2.73-.394-5.534-.987-7.932-2.35-1.929-1.094-4.9-4.513-4.9-4.513s-3.976 4.132-6.557 5.114c-2.508.954-5.34.67-8.006.499-2.432-.156-4.87-.6-7.174-1.386-2.295-.784-6.498-3.275-6.498-3.275s-2.52 3.332-4.19 4.52c-1.556 1.106-3.406 1.76-5.231 2.288-1.838.53-3.764 1.041-5.664.855-2.613-.257-7.414-2.67-7.414-2.67l5.637 7.002s11.09-3.019 19.951-3.17c5.744-.099 14.117-.126 21.171.097 5.293.167 10.586.46 15.858.93 4.548.405 9.433 1.103 14.132 1.787 3.84.56 7.68 1.14 11.487 1.894 3.331.66 9.926 2.303 9.926 2.303l4.702-6.403zM216.817 29.514c-.589-.478-.196-1.121 0-1.927.588-.702.972-.936 1.777-1 .285.082.457.541.476.833l6.729-7.686c-.254-.443-.55-1.095-.862-1.474-.618-.35-1.188-.89-1.897-.953-1.685-.15-3.674.226-4.89 1.376-1.269 1.201-1.49 3.2-1.659 4.936-.634-.866-1.196-1.987-2.227-2.316-1.14-.362-2.52.019-3.518.662-1.472.95-3.085 2.569-2.99 4.302.102 1.878 1.964 3.537 3.72 4.293 1.305.561 2.898.223 4.264-.181M189.775 24.95c.723-.378 1.064-2.129.596-3.066-.135-.271-.514-.465-.827-.428-.883.103-1.688.898-1.933 1.703-.174.575.417 1.14.485 1.735.048.417-.055 1.259-.055 1.259-1.157.907-2.138 2.14-3.55 2.231-2.012.13-4.558-.816-5.46-2.5-.831-1.555.043-3.659 1.07-5.11.697-.982 1.877-1.88 3.14-1.993 1.144-.104 2.18.716 3.167 1.263-.576-1.66-1.213-3.585-.49-5.186.693-1.534 2.445-2.658 4.15-3.182.717-.22 1.513.028 2.265.108 1.349.65 2.735 1.65 3.232 2.981.5 1.342-.045 2.889-.557 4.226-.391 1.025-1.174 1.887-1.867 2.764.992-.315 2.142-.336 3.057.081 1.731.79 3.6 2.367 3.66 4.153.057 1.72-1.596 3.414-3.253 4.195-1.532.722-3.675.806-5.158-.029-1.245-.7-1.375-2.29-2.132-3.613l.46-1.592zM157.935 20.875c-.598-.543-.458-2.319.245-3.11.203-.229.62-.322.914-.21.825.317 1.362 1.284 1.411 2.122.032.528-.561.92-.725 1.425-.142.439-.214 1.363-.214 1.363.875 1.161 1.285 2.582 2.557 3.03 1.893.667 4.624.333 5.946-1.073 1.22-1.298.938-3.547.333-5.202-.41-1.12-1.31-2.278-2.5-2.7-1.078-.38-2.3.157-3.4.442 1.001-1.462 2.132-3.166 1.861-4.892-.258-1.653-1.65-3.17-3.158-4.096-.635-.39-1.47-.346-2.218-.454-1.478.297-3.086.923-3.922 2.087-.843 1.173-.73 2.802-.593 4.221.104 1.087.63 2.112 1.065 3.131-.875-.549-1.98-.852-2.977-.674-1.884.337-4.113 1.402-4.648 3.113-.516 1.649.63 3.692 2.021 4.855 1.288 1.075 3.337 1.684 4.993 1.242 1.39-.37 1.942-1.876 3.028-2.968l-.02-1.652z" fill="#000"/><g stroke="#55A" stroke-linecap="round" stroke-linejoin="round" stroke-width="2"><path d="M179.003 40.78c6.181 16.232 12.435 33.824 18.362 49.1 3.322 8.566 2.95 21.179-3.387 28.178-2.677 2.958-8.155 4.445-11.665 2.56-3.847-2.067-6.784-8.351-4.776-12.242 1.755-3.401 7.855-4.735 11.11-2.74 2.132 1.307 2.055 5.11 1.74 7.319"/><path d="M174.145 40.469c3.752 9.851 9.954 24.518 13.67 37.196 2.658 9.066 7.956 18.402 6.133 27.673-.773 3.932-3.535 8.857-6.847 9.86-2.203.639-3.512-1.308-3.896-3.22"/><path d="M183.85 40.985c3.313 10.761 7.807 20.372 11.426 30.662 3.563 10.13 9.376 19.867 10.125 30.584.342 4.903.62 10.841-2.641 14.505-1.827 2.053-5.007 3.765-7.876 2.382"/><path d="M188.56 42.218c3.313 10.374 8.349 21.586 12.45 32.407 3.588 9.466 9.768 18.347 10.637 28.446.37 4.288.482 9.504-2.384 12.686-1.84 2.042-5.007 3.629-7.876 2.296"/><path d="M193.943 42.857c3.313 10.304 8.349 21.44 12.45 32.188 3.589 9.402 9.768 18.223 10.638 28.254.369 4.26.482 9.44-2.385 12.6-1.84 2.03-5.006 3.605-7.875 2.282"/><path d="M199.323 44.401c3.313 10.06 8.349 20.93 12.45 31.424 3.589 9.178 9.768 17.79 10.638 27.582.369 4.158.482 9.216-2.385 12.301-1.84 1.98-5.006 3.52-7.875 2.227"/><path d="M204.723 45.234c3.313 9.954 8.529 20.833 12.687 31.292 3.607 9.074 9.767 17.604 10.637 27.295.37 4.115.482 9.12-2.384 12.173-1.84 1.96-5.007 3.482-7.876 2.203"/></g><path d="M168.132 119.89c2.733-.662 3.745 3.78 2.566 5.375-1.297 1.754-5.11.718-6.445-1.005-1.798-2.32-1.444-6.82.817-8.78 1.743-1.511 4.971-.961 7.017.137 1.954 1.048 3.386 3.285 3.664 5.43.384 2.96-.472 6.743-2.984 8.47-4.931 3.393-13.071 3.524-18.15-.114-4.337-3.107-6.312-5.228-8.469-8.64-1.64-2.596-2.74-7.61-3.182-8.653l-2.471.083c-.777 5.655-1.052 6.689-3.27 8.957-1.905 1.947-4.374 2.634-7.604 2.955" stroke="#55A" stroke-width="2" stroke-linecap="round" stroke-linejoin="round"/><path d="M148.454 112.356c1.22 3.038 1.796 4.88 3.344 6.918 2.352 3.1 4.986 6.528 8.752 7.708 2.937.921 6.562.537 9.214-.981" stroke="#55A" stroke-width="2" stroke-linecap="round" stroke-linejoin="round"/><path d="M152.545 111.003c1.218 2.727 2.547 5.948 4.872 8.045 1.46 1.315 3.36 3.224 5.326 2.509M156.405 109.236c.962 2.309 1.52 3.277 2.713 4.594 1.205 1.331 2.964 2.744 4.342 3.18M160.577 107.028c1.055 2.015 1.901 3.112 3.167 4.4 1.064 1.084 3.069 2.346 3.646 2.725M164.534 104.084c2 3.715 4.444 7.187 7.384 9.697 1.554 1.328 4.068 1.997 5.217 2.661M168.605 101.43c1.268 2.081 2.064 3.574 3.458 5.07 1.283 1.376 4.044 3.105 4.427 3.495M172.094 97.344c.943 2.121 2.116 4.445 3.705 6.284.82.95 2.27 1.835 2.93 2.36M189.531 105.885c.136-6.642-1.079-9.884-2.754-14.512-1.18-3.264-4.316-7.86-5.053-9.097M185.886 103.976c-1.143-3.856-1.785-6.516-3.101-9.615-1.047-2.465-3.445-6.358-3.79-7.08M181.403 104.353c-.781-3.283-1.811-6.235-3.07-8.842-.697-1.442-1.882-2.84-2.43-3.653M98.65 97.932c.851 1.753 4.264.354 5.11-1.183 1.043-1.893-.343-4.905-2.117-6.134-1.265-.876-3.213-.511-4.608.138-1.484.691-2.853 2.08-3.283 3.666-.707 2.606-.533 6.307 1.608 7.941 3.077 2.35 8.62 2.307 11.566-.82 2.93-3.112 4.86-6.48 6.258-10.227.772-2.07.8-5.493 1.09-6.537" stroke="#55A" stroke-width="2" stroke-linecap="round" stroke-linejoin="round"/><path d="M113.035 71.686c-.967 6.097-1.296 11.268-3.514 16.395-1.474 3.404-4.07 8.619-6.333 9.137M94.786 101.718c.172 2.783 1.87 5.14 4.067 6.354 2.66 1.47 6.486 1.6 9.107.061 4.335-2.543 6.31-7.856 7.312-13.226" stroke="#55A" stroke-width="2" stroke-linecap="round" stroke-linejoin="round"/><path d="M96.2 106.238c.171 2.783 1.552 5.823 3.89 7.235 2.603 1.571 6.434 1.506 9.108.062 4.122-2.226 6.66-6.444 7.663-11.815" stroke="#55A" stroke-width="2" stroke-linecap="round" stroke-linejoin="round"/><path d="M99.361 113.295c1.05 3.311 2.111 4.165 4.066 5.118 2.731 1.332 6.474 1.579 9.108.062 4.336-2.498 6.485-7.68 7.487-13.05" stroke="#55A" stroke-width="2" stroke-linecap="round" stroke-linejoin="round"/><path d="M102.566 117.955c1.289 4.541 2.835 4.544 5.175 5.373 3.119 1.104 7.134.672 9.844-1.23 3.952-2.775 6.353-7.465 6.612-12.923" stroke="#55A" stroke-width="2" stroke-linecap="round" stroke-linejoin="round"/><path d="M105.286 122.42c1.763 3.236 3.315 4.819 5.914 5.524 3.143.853 6.917-.2 9.528-2.154 4.143-3.099 7.315-7.927 7.594-13.57M121.088 126.823c3.252.142 6.034-.522 8.125-2.431 3.157-2.881 5.061-5.462 4.807-11.91M113.237 70.565s-.4 2.344-.93 3.387c-.677 1.332-1.6 2.604-2.79 3.504-1.208.913-2.676 1.83-4.186 1.752-1.541-.08-3.193-.943-4.07-2.22-.82-1.196-.855-2.893-.58-4.32.253-1.319.834-2.807 1.976-3.505.895-.546 2.172-.519 3.14-.116.683.284 1.206.957 1.51 1.635.321.713.233 2.336.233 2.336s1.3-2.117 1.744-3.27c.576-1.498.872-3.094 1.163-4.672.234-1.273.245-2.58.465-3.855.21-1.219.814-3.62.814-3.62" stroke="#55A" stroke-width="2" stroke-linecap="round" stroke-linejoin="round"/><path d="M112.501 41.053c-.527 8.875-.456 17.785.05 26.656.414 7.234 1.457 14.42 2.436 21.599.543 3.98.722 8.027 1.904 11.9" stroke="#55A" stroke-width="2" stroke-linecap="round" stroke-linejoin="round"/><g fill="#FFF" stroke="#55A" stroke-linecap="round" stroke-linejoin="round" stroke-width="2.01"><path d="M255.15 67.527c-1.72-.48-3.34-1.442-4.81-2.563-1.075-.82-2.276-1.675-2.86-2.99-.672-1.515-.363-3.373-.481-5.066-.184-2.633-.97-5.364-.352-7.914.212-.878 1.11-1.402 1.332-2.277.461-1.83-.576-3.863-.147-5.704.192-.824.54-1.72 1.169-2.187.457-.34 1.621-.249 1.621-.249s-.599-2.755-.016-3.862c.46-.873 1.484-1.293 2.369-1.432 1.2-.187 2.438.33 3.543.888.955.481 1.833 1.206 2.553 2.065.335.4.785 1.393.785 1.393s-1.192-2.833-.739-4.15c.295-.858 1.172-1.457 1.968-1.623.85-.176 1.69.425 2.494.778 1.145.503 2.43.891 3.284 1.894.894 1.052 1.631 3.982 1.631 3.982s-.79-2.838-.255-4.05c.348-.793 1.199-1.282 1.964-1.44 1.057-.215 2.206.195 3.14.79.698.442 1.282 1.162 1.666 1.958.308.638.45 2.123.45 2.123s.79-2.753 1.828-2.912c1.16-.178 2.182 1.341 2.707 2.528 1.076 2.439-.167 5.522.347 8.19.295 1.528 1.244 2.822 1.545 4.348.46 2.337.879 4.85.364 7.178-.389 1.76-1.37 3.367-2.504 4.648-1.333 1.508-3.123 2.418-4.826 3.321-1.742.924-3.57 1.697-5.454 2.116-2.574.572-5.231.481-7.852.512-1.213.014-2.425-.098-3.636-.153-.943-.043-1.913.116-2.828-.14h0z"/><path d="M251.26 39.14c2.02 1.636 3.692 4.194 3.591 7.143.31 2.002-.733 3.997-.321 5.89.718 1.314 1.457 2.519 1.893 3.928.397 1.28.706 2.616.63 4.01"/><path d="M260.096 37.817c1.618 3.31 3.162 8.09 3.427 11.913-.008 1.667.038 3.955-1.557 4.741-1.26.691-2.882.095-3.46-1.38-1.218-2.488-3.29-7.15-4.08-9.852"/><path d="M257.612 50.925c.043-1.646 1.314-4.44 2.977-4.644.577-.221 1.193-.229 1.795-.242M268.336 38.323c.627 4.204 1.593 9.116.937 13.381-.462 1.461-.573 4.17-2.208 4.529-1.406.308-2.605-1.409-3.11-2.797-.129-.545-.225-3.501-.252-4.064"/><path d="M263.865 48.916c.735-1.638 2.017-1.862 3.28-2.104.573-.11 1.452.277 1.69.347M248.117 48.099c1.227-.405 2.868-1.041 2.896-2.784.134-2.06-.494-4.025-1.296-5.833M269.524 48.583c-.383 2.48.93 6.237 3.24 5.969 2.631-.306 2.29-4.873 2.607-7.53.104-2.567-.365-5.134.01-7.695.05-.57.105-1.14.163-1.71M275.43 47.267c.592 2.038 1.795 3 3.193 2.68 1.342-.306 1.688-2.616 1.87-3.696"/><path d="M270.039 47.639c.788-1.117 1.68-1.6 2.695-1.628.799-.023 1.803.934 2.165 1.158M275.828 44.794c.695-1.171 1.546-1.163 2.451-1.321.624-.11 1.503.062 1.852.29"/></g><path d="M263.879 67.762c-2.57.076-5.14-.162-7.708-.33-1.86-.123-3.94-1.6-5.575-.496-1.303.878-2.408 3.026-2.132 4.827.373 2.442 2.755 3.87 4.624 4.788 2.772 1.362 5.95.621 8.932.659 3.392.042 6.927.74 10.169-.495 2.182-.83 4.963-1.863 5.81-4.484.641-1.982.148-5.025-1.294-6.201-1.375-1.122-3.25.682-4.886.92-2.637.382-5.285.733-7.94.812z" stroke="#000" stroke-width="2" fill="#FF5" stroke-linecap="round" stroke-linejoin="round"/><g stroke="#000" stroke-linecap="round" stroke-linejoin="round"><path d="M262.605 76.985c-3.093.084-6.187-.179-9.276-.365-2.24-.136-4.743-1.769-6.712-.548-1.567.971-2.898 3.347-2.566 5.339.45 2.7 3.317 4.28 5.567 5.295 3.336 1.507 7.16.688 10.75.729 4.083.047 8.337.818 12.24-.547 2.626-.919 5.973-2.061 6.993-4.96.772-2.192.177-5.557-1.558-6.859-1.654-1.24-3.911.755-5.88 1.018-3.175.423-6.362.81-9.558.898z" stroke-width="2" fill="#000"/><path d="M265.075 82.27c0 2.694-1.206 4.878-2.694 4.878s-2.694-2.184-2.694-4.878c0-2.695 1.206-4.879 2.694-4.879s2.694 2.184 2.694 4.879z" stroke-width="2.004" fill="#FFF555"/><path d="M257.792 82.287c-.577 2.605-2.238 4.45-3.71 4.12-1.471-.328-2.196-2.707-1.618-5.312.578-2.606 2.239-4.45 3.71-4.121 1.471.33 2.196 2.708 1.618 5.313zM266.28 82.783c.577 2.605 2.238 4.45 3.71 4.12 1.47-.328 2.195-2.707 1.617-5.312-.577-2.605-2.238-4.45-3.71-4.121-1.471.33-2.195 2.708-1.618 5.313z" stroke-width="2.006" fill="#FFF555"/><path d="M251.054 81.455c-1.206 1.764-3.05 2.597-4.12 1.86-1.068-.737-.957-2.766.25-4.53 1.205-1.765 3.05-2.598 4.119-1.86 1.068.737.957 2.765-.25 4.53zM273.363 81.041c1.206 1.765 3.05 2.598 4.12 1.86 1.068-.737.957-2.765-.25-4.53-1.206-1.764-3.05-2.597-4.119-1.86-1.068.738-.957 2.766.25 4.53z" stroke-width="2.041" fill="#FFF555"/></g><path d="M246.01 85.483s-3.502 11.157-6.079 16.376c-2.985 6.047-10.776 17.114-10.776 17.114s1.986-.312 2.89-.725c7.109-3.251 19.215-13.474 19.215-13.474l10.085 12.906 10.223-11.796s10.843 9.876 17.546 12.352c1.389.513 4.42.416 4.42.416s-8.033-11.57-11.052-17.903c-2.34-4.91-5.388-15.405-5.388-15.405s-3.767 1.161-7.598 1.943c-4.515.92-9.185.92-13.815.416-5.228-.568-9.67-2.22-9.67-2.22z" stroke="#000" stroke-width="2" fill="#FFF555" stroke-linecap="round" stroke-linejoin="round"/><path d="M230.813 118.652s9.2-9.854 12.987-15.405c3.32-4.867 8.427-15.544 8.427-15.544s1.507 7.905 3.177 11.52c1.48 3.2 5.941 8.743 5.941 8.743s5.084-6.11 6.631-9.715c1.38-3.217 2.21-10.27 2.21-10.27s5.123 11.252 8.704 16.237c3.927 5.467 13.816 14.712 13.816 14.712" stroke="#000" stroke-width="2" stroke-linecap="round" stroke-linejoin="round"/><path d="M257.477 88.12c.416 4.285 2.316 9.262 4.144 10.547 2.119-3.007 3.408-6.847 3.869-10.686l-8.013.138z" stroke="#000" stroke-width="2" fill="#000001" stroke-linecap="round" stroke-linejoin="round"/><path d="M231.33 133.565l-3.677 4.483c6.437 6.959 11.53 14.91 14.578 23.668 4.213 12.111 6.175 25.497 4.525 38.219-1.506 11.615-5.9 23.294-12.894 32.667-7.193 9.639-18.116 15.98-28.382 22.206-3.797 2.303-9.558 3.784-12.124 5.506l.92 4.977c8.271-3.888 18.728-7.805 26.687-13.928 8.8-6.771 17.25-14.795 22.487-24.608 5.888-11.029 8.53-23.945 8.947-36.452.32-9.56-1.736-19.26-4.962-28.26-3.682-10.272-6.954-18.053-16.106-28.478z" stroke="#000" stroke-width="2" fill="#FF5" stroke-linecap="round" stroke-linejoin="round"/><path d="M246.213 156.963c2.878 1.967 5.876 1.646 8.274 2.048l45.52 46.328v-6.866l-39.524-39.703c5.3-.394 10.288-1.622 14.63-4.578 5.197 3.08 9.404 4.428 14.391 5.782 3.417.928 10.503 1.566 10.503 1.566v-5.42s-11.28-1.885-16.499-4.097c-3.209-1.36-8.874-5.541-8.874-5.541s-7.584 4.263-11.752 5.3c-3.655.91-7.619 1.634-11.273.723-4.005-.999-10.553-6.505-10.553-6.505l5.157 10.963z" stroke="#000" stroke-width="2" fill="#FF5" stroke-linecap="round" stroke-linejoin="round"/><path d="M227.546 138.277s-9.444 10.86-13.352 16.879c-3.752 5.777-6.743 12.036-9.594 18.311-2.923 6.43-5.74 12.96-7.675 19.757-2.392 8.406-3.79 17.097-4.797 25.78-.731 6.31-.933 12.683-.894 19.035.025 3.892.367 7.778.694 11.657.295 3.507 1.146 10.496 1.146 10.496" stroke="#000" stroke-width="2" stroke-linecap="round" stroke-linejoin="round"/><path d="M215.48 153.544l-2.718 4.374c4.123 4.45 7.503 9.582 9.443 15.239 2.6 7.577 3.58 15.959 2.552 23.907-.918 7.094-3.58 14.16-7.63 20.045-4.225 6.142-10.701 10.424-16.666 14.877-2.767 2.066-7.225 4.287-8.807 5.446l-.155 5.021c5.125-2.65 13.068-7.09 18.606-11.967 5.342-4.704 10.487-10.02 13.742-16.362 3.627-7.066 5.611-15.156 5.905-23.1.234-6.324-1.15-12.75-3.328-18.687-2.499-6.81-5.075-12.119-10.944-18.793z" stroke="#000" stroke-width="2" fill="#FF5" stroke-linecap="round" stroke-linejoin="round"/><path d="M203.507 175.78c1.991 2.53 3.21 5.76 3.906 8.939.84 3.83.9 7.899.229 11.762-.588 3.385-1.833 6.726-3.66 9.631-2.025 3.22-4.885 5.894-7.852 8.263-1.122.896-2.874 1.59-3.7 2.2l-.47 5.12c2.652-1.368 6.771-3.495 9.541-6.051a33.924 33.924 0 0 0 7.222-9.592c1.888-3.748 3.156-7.9 3.581-12.078.363-3.57.062-7.276-.917-10.728-1.199-4.227-3.112-7.972-5.939-11.758l-1.941 4.293z" stroke="#000" stroke-width="2" fill="#FF5" stroke-linecap="round" stroke-linejoin="round"/><path d="M126.837 180.462l59.41-58.314" stroke="#000" stroke-width="2" stroke-linecap="round" stroke-linejoin="round"/><path stroke="#000" stroke-width="2" fill="#000" stroke-linecap="round" stroke-linejoin="round" d="M132.733 205.063l48.525-48.291-4.535 15.945-43.096 42.824z"/><path d="M267.877 173.173l.454 82.46M274.226 180.462l.454 74.26" stroke="#000" stroke-width="2" stroke-linecap="round" stroke-linejoin="round"/><path fill="#55A" d="M280.079 246.521h10.884v3.645h-10.884zM280.079 238.556h10.884v3.645h-10.884zM280.079 230.591h10.884v3.645h-10.884zM280.079 222.626h10.884v3.645h-10.884zM280.079 214.661h10.884v3.645h-10.884zM280.079 206.696h10.884v3.645h-10.884zM280.079 198.731h10.884v3.645h-10.884z"/><g stroke="#000" stroke-linecap="round" stroke-linejoin="round" stroke-width="2"><path d="M226.382 294.812c-1.57 2.47-4.293 4.223-7.03 5.24-4.05 1.504-8.608.759-12.925.91-3.55.126-7.142.519-10.657 0-1.562-.23-3.433-.231-4.535-1.366-.602-.62-.86-1.66-.68-2.506.223-1.055.967-2.462 2.04-2.506 4.909-.198 14.74.228 14.74.228s-11.514-.662-17.234-1.367c-1.825-.224-3.922.129-5.442-.91-.729-.5-1.42-1.395-1.36-2.279.065-.97.995-1.758 1.814-2.277 1.115-.709 2.537-1 3.854-.912 5.573.373 16.78.684 16.78.684s-12.61-.433-19.047-.456c-1.468-.005-3.059-.138-4.308-.911-.825-.51-1.772-1.306-1.814-2.278-.036-.82.725-1.533 1.36-2.05.948-.773 2.18-1.387 3.401-1.367 7.267.123 19.543.29 19.501.228 0 0-11.944-.21-17.913-.683-1.025-.081-1.978-.93-2.495-1.823-.343-.594-.482-1.412-.226-2.05.44-1.1 1.357-2.307 2.72-2.278 3.588.079 19.958.492 19.955.228 0 0-10.253.387-15.193-.485-.898-.16-1.84-1.202-1.749-2.114.104-1.037 1.45-1.611 2.43-1.957 1.782-.629 3.788.187 5.668 0 3.836-.381 7.489-2.088 11.338-2.278 3.035-.149 6.191-.065 9.07.912 2.186.741 4.167 2.11 5.896 3.644 1.088.966 2.175 2.066 2.72 3.417.886 2.191.568 4.7.681 7.062.091 1.896.193 3.806 0 5.694-.228 2.237-.156 4.711-1.36 6.606z"/><path d="M197.439 270.405s.451.707.516 1.686c.067 1.004-.387 2.01-.387 2.01M191.496 275.042s.451.918.516 2.19c.067 1.302-.387 2.61-.387 2.61M187.622 281.268s.842 1.067.963 2.544c.124 1.514-.722 3.033-.722 3.033M189.882 287.753s.897 1.006 1.026 2.397c.133 1.426-.77 2.857-.77 2.857M197.952 295.212s.562.93.644 2.218c.083 1.32-.483 2.646-.483 2.646"/></g><path d="M251.862 255.553l47.257.26M131.385 198.957l3.691-3.708-7.536-8.962 7.844-6.953 3.691 4.327-3.537 3.399 3.845 3.554 7.844-6.644-7.69-8.653 8.46-7.571 3.537 3.554-2.922 4.017 3.076 3.245 7.998-7.88-7.69-7.726 8.459-8.344 3.999 4.172-3.538 4.326 3.692 3.245 7.844-7.416-7.998-8.499 8.613-7.88 3.538 3.863-3.692 3.708 4.307 4.481 8.613-9.425-8.151-7.88 7.69-7.417 3.384 3.863-3.384 3.245 2.307 2.472" stroke="#000" stroke-width="2" stroke-linecap="round" stroke-linejoin="round"/><g stroke="#000" stroke-linecap="round" stroke-linejoin="round" stroke-width="2"><path d="M234.044 271.507s4.728-2.891 6.843-4.669c1.984-1.668 3.673-3.664 5.423-5.578 1.693-1.85 4.906-5.707 4.906-5.707s1.789 3.798 2.195 5.837c.499 2.503.78 5.155.259 7.653-.47 2.252-2.97 6.226-2.97 6.226s3.379 1.36 4.906 2.335c1.884 1.202 4.213 2.252 5.165 4.28.33.704.304 1.62 0 2.335-.562 1.322-1.986 2.08-3.099 2.983-1.495 1.213-3.088 2.322-4.777 3.243-1.068.582-3.357 1.427-3.357 1.427s1.512 4.082 1.678 6.226c.216 2.775-.323 5.58-.904 8.301-.375 1.762-1.656 5.143-1.656 5.143s-1.087-4.78-2.346-6.83c-1.359-2.21-3.418-3.935-5.423-5.577-2.101-1.72-6.843-4.41-6.843-4.41s.477-4.23.516-6.355c.053-2.9-.3-5.792-.387-8.69-.082-2.724-.13-8.173-.13-8.173z" fill="#FF5"/><path d="M235.487 275.528s5.259.32 7.7 1.213c3.479 1.272 9.511 5.763 9.511 5.763s-4.958 5.15-8.152 6.522c-3.083 1.323-9.965 1.364-9.965 1.364"/><path d="M235.034 280.38c3.221-.252 6.29 1.012 9.663 2.579-2.97 2.528-6.543 3.084-10.267 3.337M251.49 255.963l-2.264 8.493-3.02 6.977-2.717 5.005M241.375 290.087s2.972 3.579 4.076 5.612a27.594 27.594 0 0 1 2.567 6.673c.667 2.767.906 8.493.906 8.493"/></g><path d="M226.684 273.194s.45-1.503 1.033-1.946c.808-.614 1.99-.905 2.97-.648 1.445.378 2.679 1.645 3.357 2.983 1.134 2.238.612 4.991.71 7.501.108 2.73.079 5.47-.128 8.194-.133 1.74.25 3.734-.712 5.188-.609.92-1.749 1.55-2.84 1.686-1.514.19-4.39-1.297-4.39-1.297.94-6.866 2.172-13.623 0-21.661z" stroke="#000" stroke-width="2" fill="#FF5" stroke-linecap="round" stroke-linejoin="round"/><path d="M234.415 332.94a2.49 2.49 0 0 1-2.483 2.494 2.49 2.49 0 0 1-2.484-2.495 2.49 2.49 0 0 1 2.484-2.494 2.49 2.49 0 0 1 2.483 2.494zM242.802 328.003a2.49 2.49 0 0 1-2.484 2.495 2.49 2.49 0 0 1-2.483-2.495 2.49 2.49 0 0 1 2.483-2.495 2.49 2.49 0 0 1 2.484 2.495zM250.652 323.605a2.49 2.49 0 0 1-2.483 2.494 2.49 2.49 0 0 1-2.484-2.494 2.49 2.49 0 0 1 2.484-2.495 2.49 2.49 0 0 1 2.483 2.495zM258.2 319.055a2.49 2.49 0 0 1-2.483 2.494 2.49 2.49 0 0 1-2.483-2.494 2.49 2.49 0 0 1 2.483-2.495 2.49 2.49 0 0 1 2.484 2.495zM265.599 313.747a2.49 2.49 0 0 1-2.484 2.494 2.49 2.49 0 0 1-2.483-2.494 2.49 2.49 0 0 1 2.483-2.495 2.49 2.49 0 0 1 2.484 2.495zM273.45 307.983a2.49 2.49 0 0 1-2.484 2.495 2.49 2.49 0 0 1-2.484-2.495 2.49 2.49 0 0 1 2.484-2.494 2.49 2.49 0 0 1 2.483 2.494zM280.696 301.614a2.49 2.49 0 0 1-2.484 2.494 2.49 2.49 0 0 1-2.483-2.494 2.49 2.49 0 0 1 2.483-2.495 2.49 2.49 0 0 1 2.484 2.495zM288.093 295.547a2.49 2.49 0 0 1-2.483 2.495 2.49 2.49 0 0 1-2.484-2.495 2.49 2.49 0 0 1 2.484-2.495 2.49 2.49 0 0 1 2.483 2.495zM295.038 288.419a2.49 2.49 0 0 1-2.483 2.495 2.49 2.49 0 0 1-2.484-2.495 2.49 2.49 0 0 1 2.484-2.495 2.49 2.49 0 0 1 2.483 2.495zM297 307.225a2.49 2.49 0 0 1-2.483 2.495 2.49 2.49 0 0 1-2.483-2.495 2.49 2.49 0 0 1 2.483-2.495 2.49 2.49 0 0 1 2.484 2.495zM289.603 313.595a2.49 2.49 0 0 1-2.483 2.495 2.49 2.49 0 0 1-2.484-2.495 2.49 2.49 0 0 1 2.484-2.495 2.49 2.49 0 0 1 2.483 2.495zM282.81 319.51a2.49 2.49 0 0 1-2.484 2.494 2.49 2.49 0 0 1-2.484-2.494 2.49 2.49 0 0 1 2.484-2.495 2.49 2.49 0 0 1 2.483 2.495zM275.412 325.425a2.49 2.49 0 0 1-2.484 2.494 2.49 2.49 0 0 1-2.483-2.494 2.49 2.49 0 0 1 2.483-2.495 2.49 2.49 0 0 1 2.484 2.495zM267.41 331.188a2.49 2.49 0 0 1-2.483 2.495 2.49 2.49 0 0 1-2.484-2.495 2.49 2.49 0 0 1 2.484-2.495 2.49 2.49 0 0 1 2.483 2.495zM259.56 335.89a2.49 2.49 0 0 1-2.484 2.494 2.49 2.49 0 0 1-2.483-2.495 2.49 2.49 0 0 1 2.483-2.495 2.49 2.49 0 0 1 2.484 2.495zM251.558 340.742a2.49 2.49 0 0 1-2.483 2.495 2.49 2.49 0 0 1-2.484-2.495 2.49 2.49 0 0 1 2.484-2.494 2.49 2.49 0 0 1 2.483 2.494zM243.406 346.05a2.49 2.49 0 0 1-2.484 2.495 2.49 2.49 0 0 1-2.483-2.494 2.49 2.49 0 0 1 2.483-2.495 2.49 2.49 0 0 1 2.484 2.495zM220.94 148.116s1.36 1.588 2.267 2.05c2.961 1.51 7.792-.644 9.75 2.05 3.048 4.191-3.498 10.667-1.587 15.49 1.586 4.001 8.83 4.22 9.75 8.428 1.016 4.646-5.883 8.227-5.895 12.984-.013 4.996 7.302 8.814 6.122 13.667-.982 4.044-7.801 4.072-9.75 7.745-2.746 5.175 2.333 12.999-1.36 17.54-2.438 2.996-8.283.562-11.112 3.189-3.495 3.245-1.033 10.78-4.988 13.44-3.708 2.493-9.39-2.464-13.378-.456-3.787 1.906-7.257 10.478-7.257 10.478l-.453-4.556s2.94-7.762 6.349-9.339c3.799-1.757 8.93 3.6 12.471 1.367 4.212-2.656 1.417-10.648 4.989-14.123 2.679-2.606 8.434-.41 10.657-3.417 2.885-3.902-1.796-10.164.227-14.579 1.813-3.958 8.845-4.394 9.75-8.656.953-4.486-5.753-7.941-5.668-12.528.078-4.244 6.513-7.23 5.668-11.39-.793-3.905-7.574-4.052-9.07-7.744-1.83-4.521 4.135-10.572 1.36-14.579-1.83-2.646-6.569-.807-9.296-2.506-.728-.453-1.7-1.936-1.7-1.936l2.153-2.62z" fill="#FF5"/><path fill="#000" d="M205.792 171.156l6.621-12.599 7.173 9.012 3.345 10.1 2.003 9.934-.154 10.371-3.39 12.563-5.813 8.206-7.283 6.735-7.395 6.241-9.096 5.406.031-15.203 7.084-3.547 6.477-6.07 5.056-7.757 2.072-9.057.394-7.012-2.003-7.888-3.082-6.574z"/><path fill="#FF5" d="M210.893 174.451l1.123-6.912 6.74 3.668-.983 7.193zM214.634 190.714l4.558-5.3 3.832 6.669-4.585 5.613zM210.862 206.2l6.862-1.234-1.2 7.605-7.08 1.461zM203.11 227.644l-6.97-.08 2.599-7.244 7.227-.102z"/><path fill="#000" d="M192.92 216.203l2.106-15.093 3.37-12.413 5.335-12.412 3.932 9.732.14 9.451-3.089 9.733-4.633 5.783z"/><path d="M252.01 301.568s5.98-1.947 8.929-3.04c3.822-1.418 11.35-4.561 11.35-4.561" stroke="#000" stroke-width="2" stroke-linecap="round" stroke-linejoin="round"/><g><path fill="#FF5" d="M50.293 180.628l-17.555 5.321-13.318 10.338-9.382 9.122-7.718 7.753-.303 12.466 48.124.304-2.27-6.537.454-6.233 2.422-6.537-5.297-3.04-4.389-3.65v-2.888l3.935-3.496 7.415-3.801-1.967-5.169z"/><path d="M41.364 225.628s1.654-2.573 2.724-3.648c1.07-1.075 3.632-2.737 3.632-2.737M31.225 225.628s5.706-5.487 8.928-7.753c2.46-1.73 7.87-4.409 7.87-4.409M49.99 206.473s-7.219 2.716-10.593 4.56a63.113 63.113 0 0 0-9.686 6.538c-2.903 2.377-8.02 7.905-8.02 7.905M12.308 225.628s5.2-6.132 8.172-8.817c3.188-2.88 6.66-5.462 10.29-7.754 3.802-2.4 11.956-6.233 11.956-6.233M2.774 224.412s8.095-8.615 12.56-12.466c3.912-3.374 7.987-6.613 12.41-9.274 4.782-2.876 15.133-7.145 15.133-7.145M50.747 186.405s-9.52 2.664-14.074 4.561c-3.98 1.658-7.773 3.76-11.502 5.93-3.85 2.239-7.692 4.545-11.199 7.296-4.078 3.201-11.35 10.642-11.35 10.642" stroke="#000" stroke-width="2" stroke-linecap="round" stroke-linejoin="round"/><path fill="#F55" d="M33.646 185.037l16.798-5.32 1.967-9.427-10.139 7.298zM95.542 180.324l-10.442.152-4.54 2.129-5.297 4.104-3.48-1.368-3.784 1.52-5.297-3.344-5.902-4.865-2.875-5.93-.303-2.736 11.653-7.145 16.344-7.601 8.777 13.53z"/><path fill="#55A" d="M108.103 216.203l-1.06-3.497-5.902-.304-7.113 1.976-6.658-.304-6.962-1.672-4.842-4.409-1.514 2.889-3.178.152-3.48-1.825.15 33.446 11.805-11.554 6.81-4.105 10.442-5.777z"/><path fill="#F55" d="M55.74 324.598l-8.474-2.129-13.62-14.138.605-81.639 16.496-.608 4.086-4.713 4.994-5.625 8.475-5.929-.303 31.774-9.231 12.162-5.297 13.227-3.632 17.027-.152 17.179 3.481 15.658z"/><path fill="#55A" d="M40.607 323.077l-7.264 1.369-6.658 3.04-7.87-4.104-8.02-1.977-8.324-1.216v-35.726zM21.921 290.973H11.037v-3.645h10.884z"/><path fill="#000" d="M86.05 328.158L74.03 342.964l-9.523-12.073-6.576-16.628-2.948-15.49.227-16.173 4.988-19.59 7.937-13.895 11.337-11.162 10.884-7.973 18.14-8.428 1.815 17.768-12.699 7.29-14.285 12.983-7.03 12.756-4.08 14.123.453 10.934 2.947 12.3 4.535 10.251zM68.853 137.372l-12.437 5.77-14.586 9.109-10.002 7.728-9.864 7.713-10.835 9.4-9.136 8.267-.033-12.34 16.254-13.6 12.363-9.652 10.697-7.453 10.002-5.658 11.96-7.109zM77.987 149.946l-16.305 8.342-15.852 10.01-10.87 8.492-10.72 8.038-11.775 10.769-10.115 9.25.15-11.525 17.664-16.38 13.437-11.375 11.625-8.19 10.87-6.218 16.607-8.644z"/><path d="M81.494 155.063S71.249 159.6 66.3 162.22c-4.233 2.24-8.361 4.69-12.374 7.307-5.908 3.854-11.627 8.007-17.194 12.343a255.62 255.62 0 0 0-15.278 12.885c-6.732 6.144-19.46 19.215-19.46 19.215v-8.839s13.15-12.285 19.996-18.117c5.373-4.577 10.866-9.02 16.527-13.23 4.952-3.682 9.99-7.264 15.236-10.507 3.888-2.403 7.974-4.47 12.008-6.615 4.1-2.18 12.396-6.355 12.396-6.355l3.337 4.755z" stroke="#000" stroke-width="2" fill="#FF5" stroke-linecap="round" stroke-linejoin="round"/><path fill="#F55" d="M167.703 258.679l-33.54.309-.924 9.58-2.153 14.215-2 10.352-4.306 15.452 43.682-42.182zM195.84 355.559l-6.153-15.143-6.46-15.45-3.845-10.508-2.153-6.953-45.22 42.8 6.46-.618 8.306 2.163 5.383 3.4 3.691 6.18 3.23 8.19h2.154l.769-5.254 3.999-5.408 5.69-1.39 4.154-2.782 5.69.773 3.538-2.009h5.384l4.152 2.318z"/><path fill="#FF5" d="M169.538 277.22l1.692 6.181 2.769 12.67 2.615 11.125-56.14 54.234-4.461-1.545-5.076 1.545-3.076 2.163-3.538-2.317 9.075-19.778 6.921-17.305z"/><path d="M119.22 182.908l-9.847-11.003.704 10.435s1.103 1.963 1.91 2.72c1.146-.096 3.344 2.047 3.344 2.047s.094-2.88 1.044-3.74c.719-.65 2.845-.46 2.845-.46zM75.734 117.876l1.066 6.683s1.492-2.157 2.656-2.353c1.468-.248 4.13 1.706 4.13 1.706s-.373-3.225.56-4.345c.706-.848 3.148-1 3.148-1l-5.802-3.583" fill="#55A"/><path d="M103.912 360.395s7.437-13.302 10.539-20.254c3.005-6.735 5.531-13.69 7.79-20.713 3.062-9.528 5.753-19.198 7.789-29 1.482-7.136 2.488-14.378 3.207-21.633.895-9.02 1.282-18.094 1.375-27.158.052-5.066.039-10.15-.458-15.19-1.267-12.852-3.675-25.587-6.415-38.205-2.259-10.4-4.828-20.766-8.248-30.84-2.563-7.552-5.574-14.978-9.164-22.095-4.274-8.474-14.663-24.396-14.663-24.396s-12.983 3.879-19.244 6.444c-5.82 2.384-16.954 8.286-16.954 8.286s7.856 9.031 11.455 13.809c3.912 5.192 7.437 10.669 10.997 16.11 2.677 4.091 5.43 8.145 7.79 12.428 2.215 4.024 5.956 12.429 5.956 12.429" stroke="#000" stroke-width="2" stroke-linecap="round" stroke-linejoin="round"/><path d="M105.323 336.358l-12.698 10.934 2.04-16.629s1.552 2.115 2.722 2.278c1.474.206 4.081-1.822 4.081-1.822s-.283 3.234.68 4.328c.73.828 3.175.911 3.175.911zM91.543 358.437l-8.24 5.045-3.841-.765 3.073-9.995s1.22 1.951 2.241 2.176c1.288.285 3.736-1.296 3.736-1.296s-.482 2.796.292 3.816c.585.773 2.739 1.02 2.739 1.02zM115.56 313.195l-11.729 11.978.628-16.743s1.725 1.975 2.904 2.038c1.486.08 3.912-2.164 3.912-2.164s-.009 3.247 1.044 4.254c.797.763 3.24.637 3.24.637zM123.1 288.625l-9.13 13.59-2.691-15.963s2.08 1.537 3.248 1.37c1.473-.211 3.408-2.8 3.408-2.8s.632 3.073 1.863 3.824c.931.568 3.301-.02 3.301-.02zM127.028 263.649l-8.12 14.688-3.844-16.303s2.187 1.44 3.34 1.184c1.454-.322 3.196-3.134 3.196-3.134s.854 3.131 2.136 3.82c.97.52 3.292-.255 3.292-.255zM127.518 239.683l-5.548 13.976-6.516-13.6s2.397.927 3.49.533c1.38-.496 2.627-3.2 2.627-3.2s1.366 2.595 2.745 3.003c1.044.308 3.202-.712 3.202-.712zM126.938 228.617l-8.119-13.686-3.844 15.19s2.187-1.342 3.34-1.104c1.454.3 3.195 2.921 3.195 2.921s.855-2.918 2.137-3.56c.97-.485 3.291.239 3.291.239zM110.745 160.322l-13.187-10.335 2.802 16.517s1.453-2.184 2.614-2.402c1.463-.274 4.16 1.632 4.16 1.632s-.431-3.218.481-4.355c.691-.86 3.13-1.057 3.13-1.057zM98.698 138.15l-11.32-9.495 2.182 14.877s1.299-1.938 2.313-2.114c1.278-.222 3.597 1.533 3.597 1.533s-.325-2.897.487-3.903c.615-.762 2.74-.899 2.74-.899zM96.876 349.383a2.49 2.49 0 0 1 2.484-2.495 2.49 2.49 0 0 1 2.483 2.495 2.49 2.49 0 0 1-2.483 2.495 2.49 2.49 0 0 1-2.484-2.495zM88.037 350.785a2.49 2.49 0 0 1 2.483-2.495 2.49 2.49 0 0 1 2.484 2.495 2.49 2.49 0 0 1-2.484 2.495 2.49 2.49 0 0 1-2.483-2.495zM83.384 342.684a2.49 2.49 0 0 1 2.484-2.495 2.49 2.49 0 0 1 2.483 2.495 2.49 2.49 0 0 1-2.483 2.495 2.49 2.49 0 0 1-2.484-2.495zM108.817 328.507a2.49 2.49 0 0 1 2.484-2.494 2.49 2.49 0 0 1 2.483 2.494 2.49 2.49 0 0 1-2.483 2.495 2.49 2.49 0 0 1-2.484-2.495zM100.288 328.819a2.49 2.49 0 0 1 2.484-2.495 2.49 2.49 0 0 1 2.483 2.495 2.49 2.49 0 0 1-2.483 2.495 2.49 2.49 0 0 1-2.484-2.495zM95.636 320.562a2.49 2.49 0 0 1 2.483-2.495 2.49 2.49 0 0 1 2.484 2.495 2.49 2.49 0 0 1-2.484 2.495 2.49 2.49 0 0 1-2.483-2.495zM110.368 305.606a2.49 2.49 0 0 1 2.484-2.494 2.49 2.49 0 0 1 2.483 2.494 2.49 2.49 0 0 1-2.483 2.495 2.49 2.49 0 0 1-2.484-2.495zM117.502 302.646a2.49 2.49 0 0 1 2.483-2.494 2.49 2.49 0 0 1 2.484 2.494 2.49 2.49 0 0 1-2.484 2.495 2.49 2.49 0 0 1-2.483-2.495zM104.94 298.596a2.49 2.49 0 0 1 2.484-2.495 2.49 2.49 0 0 1 2.483 2.495 2.49 2.49 0 0 1-2.483 2.495 2.49 2.49 0 0 1-2.484-2.495zM115.951 281.615a2.49 2.49 0 0 1 2.484-2.495 2.49 2.49 0 0 1 2.483 2.495 2.49 2.49 0 0 1-2.483 2.495 2.49 2.49 0 0 1-2.484-2.495zM110.368 274.76a2.49 2.49 0 0 1 2.484-2.495 2.49 2.49 0 0 1 2.483 2.495 2.49 2.49 0 0 1-2.483 2.495 2.49 2.49 0 0 1-2.484-2.495zM122.775 278.81a2.49 2.49 0 0 1 2.483-2.494 2.49 2.49 0 0 1 2.483 2.495 2.49 2.49 0 0 1-2.483 2.494 2.49 2.49 0 0 1-2.483-2.494zM126.807 250.769a2.49 2.49 0 0 1 2.483-2.495 2.49 2.49 0 0 1 2.484 2.495 2.49 2.49 0 0 1-2.484 2.494 2.49 2.49 0 0 1-2.483-2.494zM119.208 257.156a2.49 2.49 0 0 1 2.483-2.495 2.49 2.49 0 0 1 2.484 2.495 2.49 2.49 0 0 1-2.484 2.495 2.49 2.49 0 0 1-2.483-2.495zM112.85 251.392a2.49 2.49 0 0 1 2.483-2.495 2.49 2.49 0 0 1 2.483 2.495 2.49 2.49 0 0 1-2.483 2.495 2.49 2.49 0 0 1-2.483-2.495zM119.518 234.722a2.49 2.49 0 0 1 2.483-2.494 2.49 2.49 0 0 1 2.484 2.494 2.49 2.49 0 0 1-2.484 2.495 2.49 2.49 0 0 1-2.483-2.495zM116.416 211.977a2.49 2.49 0 0 1 2.484-2.495 2.49 2.49 0 0 1 2.483 2.495 2.49 2.49 0 0 1-2.483 2.495 2.49 2.49 0 0 1-2.484-2.495zM110.523 219.3a2.49 2.49 0 0 1 2.484-2.495 2.49 2.49 0 0 1 2.483 2.494 2.49 2.49 0 0 1-2.483 2.495 2.49 2.49 0 0 1-2.484-2.495zM123.86 216.963a2.49 2.49 0 0 1 2.484-2.495 2.49 2.49 0 0 1 2.483 2.495 2.49 2.49 0 0 1-2.483 2.494 2.49 2.49 0 0 1-2.484-2.494zM120.914 191.413a2.49 2.49 0 0 1 2.483-2.495 2.49 2.49 0 0 1 2.484 2.495 2.49 2.49 0 0 1-2.484 2.495 2.49 2.49 0 0 1-2.483-2.495zM113.47 170.382a2.49 2.49 0 0 1 2.483-2.495 2.49 2.49 0 0 1 2.484 2.495 2.49 2.49 0 0 1-2.484 2.494 2.49 2.49 0 0 1-2.483-2.494zM105.096 168.512a2.49 2.49 0 0 1 2.483-2.495 2.49 2.49 0 0 1 2.483 2.495 2.49 2.49 0 0 1-2.483 2.495 2.49 2.49 0 0 1-2.483-2.495zM99.047 174.12a2.49 2.49 0 0 1 2.484-2.494 2.49 2.49 0 0 1 2.483 2.495 2.49 2.49 0 0 1-2.483 2.494 2.49 2.49 0 0 1-2.484-2.494zM90.053 155.893a2.49 2.49 0 0 1 2.483-2.495 2.49 2.49 0 0 1 2.484 2.495 2.49 2.49 0 0 1-2.484 2.495 2.49 2.49 0 0 1-2.483-2.495zM94.705 146.546a2.49 2.49 0 0 1 2.484-2.495 2.49 2.49 0 0 1 2.483 2.495 2.49 2.49 0 0 1-2.483 2.495 2.49 2.49 0 0 1-2.484-2.495zM104.01 148.571a2.49 2.49 0 0 1 2.483-2.495 2.49 2.49 0 0 1 2.484 2.495 2.49 2.49 0 0 1-2.484 2.495 2.49 2.49 0 0 1-2.483-2.495zM90.673 124.891a2.49 2.49 0 0 1 2.484-2.495 2.49 2.49 0 0 1 2.483 2.495 2.49 2.49 0 0 1-2.483 2.495 2.49 2.49 0 0 1-2.484-2.495zM83.074 126.293a2.49 2.49 0 0 1 2.484-2.494 2.49 2.49 0 0 1 2.483 2.494 2.49 2.49 0 0 1-2.483 2.495 2.49 2.49 0 0 1-2.484-2.495zM77.957 133.927a2.49 2.49 0 0 1 2.483-2.495 2.49 2.49 0 0 1 2.483 2.495 2.49 2.49 0 0 1-2.483 2.495 2.49 2.49 0 0 1-2.483-2.495z" fill="#55A"/><path d="M176.977 307.657l-56.38 53.279" stroke="#000" stroke-width="2" stroke-linecap="round" stroke-linejoin="round"/><path d="M65.073 342.59s-2.405-4.971-4.35-6.81c-2.876-2.719-6.558-4.604-10.304-5.754-2.641-.81-5.49-.866-8.243-.704-2.72.16-5.462.666-8.013 1.644-2.674 1.024-7.442 4.344-7.442 4.344s-4.616-3.61-7.201-4.947c-2.605-1.347-5.413-2.317-8.254-3.037-2.38-.604-7.286-1.057-7.286-1.057v15.851l61.093.47z" stroke="#000" stroke-width="2" fill="#55A" stroke-linecap="round" stroke-linejoin="round"/><path stroke="#000" stroke-width="2" fill="#000" stroke-linecap="round" stroke-linejoin="round" d="M57.71 362.08l12.856-13.62-5.26-5.988-61.326-.47-.175 20.196z"/><path d="M30.707 375.897l9.588-12.715H14.343c5.495 4.308 10.657 8.429 16.364 12.715zM50.975 376.52l-10.02-13.448 28.817-.17c-5.742 4.556-12.833 9.084-18.797 13.618z" fill="#F55"/><path d="M78.286 362.497l-75.745-.064" stroke="#000" stroke-width="2" stroke-linecap="round" stroke-linejoin="round"/><g stroke="#55A" stroke-linecap="round" stroke-linejoin="round" stroke-width="2"><path d="M7.775 434.91c0-4.715 3.37-8.536 7.529-8.536 4.158 0 7.53 3.821 7.53 8.535s-3.372 8.536-7.53 8.536-7.53-3.822-7.53-8.536zM55.437 448.718s-3.08.152-4.144 1.11c-1.14 1.027-1.852 2.778-1.658 4.303.18 1.414 1.326 2.65 2.487 3.47 1.097.774 2.54 1.293 3.868 1.11 2.09-.289 4.059-1.686 5.388-3.331 1.203-1.488 1.934-5.413 1.934-5.413l-.138-32.614s2.788.05 3.868-.694c1.244-.857 2.326-2.37 2.349-3.886.024-1.595-1.162-3.104-2.349-4.163-1.157-1.033-2.741-1.947-4.283-1.804-1.755.162-3.196 1.64-4.42 2.914-1.048 1.09-1.92 2.433-2.35 3.886-.406 1.375-.137 4.302-.137 4.302l-.415 30.81z" fill="#FF5"/><path d="M15.235 438.587s-2.184-.294-2.625-2.637c-.276-1.466.882-3.693 2.21-3.886 3.873-.56 4.421 2.637 4.421 2.637" fill-opacity=".331" fill="#FF5"/><path d="M89.975 444.138L63.45 444M63.312 423.32h28.321M79.89 443.722l.138-20.124" fill="#FF5"/><path d="M74.364 438.31H67.87v-9.438h6.493zM80.996 433.868l14.367.14M92.877 438.726H80.305M93.43 428.317l-12.987-.139"/></g><path d="M69.379 137.227s-11.853 6.042-17.562 9.449c-5.266 3.141-10.375 6.551-15.365 10.117a268.819 268.819 0 0 0-16.313 12.624c-6.254 5.238-18.146 16.43-18.146 16.43v8.129s11.398-10.819 17.286-16.017c5.551-4.9 11.112-9.808 17.002-14.291 5.043-3.839 10.23-7.512 15.665-10.766 6.777-4.058 21.048-10.876 21.048-10.876l-3.615-4.8zM59.478 125.6s-6.192 3.057-9.21 4.732c-5.085 2.822-10.101 5.78-14.978 8.95-5.474 3.558-10.834 7.305-16.011 11.285-5.956 4.579-17.286 14.469-17.286 14.469v7.983s11.144-10.272 17.026-15.039c5.082-4.118 10.363-7.992 15.754-11.693a279.105 279.105 0 0 1 16.785-10.637c3.724-2.183 11.387-6.162 11.387-6.162l-3.467-3.889z" stroke="#000" stroke-width="2" fill="#FF5" stroke-linecap="round" stroke-linejoin="round"/><g stroke="#55A" stroke-linecap="round" stroke-linejoin="round"><path d="M153.707 430.003c-2.213.84-4.165 1.1-6.3 1.302a37.73 37.73 0 0 1-8.13-.12c-2.958-.363-6.014-.82-8.708-2.032-1.224-.55-3.234-2.312-3.234-2.312s5.512 2.398 8.459 3.005c2.272.469 4.64.539 6.966.463 2.657-.087 5.277-.658 7.907-1.047 2.18-.323 3.837-.304 6.523-1.068l-3.483 1.809zM157.174 419.626s-1.99 2.244-3.188 3.124c-1.443 1.058-3.03 1.98-4.73 2.528-1.425.458-2.951.544-4.448.59-1.677.052-3.397.046-5.018-.354-2.198-.542-4.219-1.62-6.162-2.716-1.68-.947-3.365-1.931-4.701-3.306-.725-.744-1.724-2.6-1.724-2.6s3.393 1.066 5.09 1.597c2.774.867 5.455 2.053 8.323 2.597 1.581.3 3.213.353 4.828.355 1.538.001 3.072-.169 4.602-.326a21.973 21.973 0 0 0 1.712-.232c1.823-.335 5.416-1.257 5.416-1.257z" stroke-width="2.003"/><path d="M130.94 416.309s5.267-1.602 7.6-2.881c1.267-.695 2.795-.813 4.235-.89 2.168-.117 4.43-.017 6.48.649 1.232.4 2.25 1.226 3.306 1.948 1.391.952 3.974 3.131 3.974 3.131s-3.867.926-5.819 1.298c-1.574.3-3.146.71-4.747.753-2.016.055-4.04-.233-6.02-.62-3.595-.704-10.553-3.078-10.553-3.078l1.545-.31z" stroke-width="2.003"/><path d="M149.636 416.02c0-1.76-2.275-3.187-5.082-3.187s-5.082 1.427-5.082 3.188c0 1.76 2.275 3.188 5.082 3.188s5.082-1.428 5.082-3.188z" stroke-width="2.006"/><path d="M146.714 416.759c0-.734-.825-1.329-1.842-1.329-1.018 0-1.842.595-1.842 1.329 0 .733.824 1.328 1.842 1.328 1.017 0 1.842-.595 1.842-1.328zM189.172 425.444s-.304-.115-1.277 1.61c-.886 1.569-2.236 1.662-3.532 2.109-2.033.7-4.258 1.003-6.398.807-1.77-.162-3.589-.65-5.084-1.615-1.483-.958-2.819-2.429-3.546-3.944 1.466.72 2.343 1.835 3.648 2.532 1.48.79 3.024 1.589 4.68 1.836 2.41.36 4.982.224 7.289-.564 1.59-.544 4.22-2.771 4.22-2.771z" stroke-width="2.003" fill="#55A"/><path d="M167.874 422.63c.013-1.88.274-4.54.58-6.79.298-2.194.828-4.35 1.221-6.528.356-1.968.684-3.942 1.03-5.912.329-1.87 1-3.71.992-5.608-.003-.929.048-1.998-.508-2.74-1.019-1.36-2.991-1.603-4.542-2.287-.811-.357-1.914-.317-2.485-.946" stroke-width="2.003"/><path d="M157.188 400.296c-1.188.405-2.31-.7-2.923-1.58-.453-.65-.483-1.563-.263-2.31.316-1.077 1.082-2.172 2.146-2.687 1.217-.59 2.818-.526 4.114-.11.976.314 1.476 1.379 2.38 1.843 1.142.586 2.461.821 3.724 1.126" stroke-width="2.003"/><path d="M151.083 383.484s2.508.664 3.765.984c1.175.299 2.313.878 3.53.875 1.342-.004 2.57-.732 3.883-.984 1.086-.21 2.211-.659 3.295-.438.775.159 1.215 1.094 2 1.203 1.13.157 2.258-.43 3.295-.875.641-.275 1.765-1.093 1.765-1.093s-1.753.825-2.707.875c-1.244.065-2.407-.652-3.647-.766-1.562-.143-3.147-.047-4.707.11-1.032.103-2.033.4-3.06.546-1.014.145-2.035.399-3.058.328-1.053-.072-2.013-.636-3.06-.765-.427-.053-1.294 0-1.294 0z" stroke-width="2.003" fill="#55A"/><path d="M157.908 377.66s2.131-1.018 3.294-1.202a8.587 8.587 0 0 1 3.177.11c1.177.262 3.295 1.421 3.295 1.421M169.314 420.05s2.895 2.16 4.515 2.926c1.415.668 2.9 1.32 4.471 1.421 1.435.092 2.858-.384 4.236-.765 1.096-.303 2.193-.642 3.177-1.203 1.16-.66 3.133-2.5 3.133-2.5" stroke-width="2.003"/><path d="M188.217 416.82s-2.895-2.46-4.596-3.28a11.704 11.704 0 0 0-3.877-1.112c-2.006-.201-4.11-.19-6.028.477-1.151.4-2.12 1.287-3.108 2.055-.703.547-1.996 1.808-1.996 1.808s2.398 1.305 3.64 1.837c1.246.532 2.494 1.148 3.81 1.35a15.11 15.11 0 0 0 5.787-.222c2.247-.538 6.368-2.913 6.368-2.913z" stroke-width="2.003"/><path d="M173.3 416.18c.033-1.973 2.175-3.536 4.782-3.49 2.607.045 4.692 1.682 4.658 3.655-.034 1.973-2.175 3.536-4.782 3.49-2.607-.045-4.693-1.682-4.659-3.655z" stroke-width="2.009"/><path d="M175.998 417.048c.015-.823.792-1.476 1.737-1.46.945.017 1.7.697 1.686 1.52-.015.821-.792 1.475-1.737 1.458-.945-.016-1.7-.696-1.686-1.518z" stroke-width="2.021" fill="#55A"/><path d="M151.79 412.68l-7.194-6.997M170.615 411.258l5.755-7.106" stroke-width="2.003"/></g><path d="M219.195 480.364l-29.99-39.902c-10.37 3.769-20.26 2.985-30.47 3.256-10.641.283-21.312-.515-31.892-1.702-10.488-1.177-21.692-2.937-31.207-5.362-10.873 16.122-24.527 27.588-35.4 43.71h158.96z" stroke="#55A" stroke-width="2" fill="#FF5"/><path d="M174.764 461.701c.723.378 1.063 2.128.595 3.066-.135.271-.514.464-.827.428-.882-.103-1.688-.898-1.932-1.703-.175-.575.482-1.137.484-1.735.002-.594-.096-1.25-.47-1.723-.731-.927-1.924-1.717-3.135-1.767-2.015-.083-4.558.816-5.46 2.5-.831 1.555.043 3.659 1.07 5.11.697.982 1.877 1.88 3.14 1.993 1.144.103 2.18-.717 3.167-1.263-.576 1.66-1.212 3.585-.49 5.186.693 1.534 2.445 2.658 4.15 3.181.717.22 1.514-.027 2.265-.107 1.349-.65 2.735-1.651 3.232-2.982.5-1.34-.045-2.888-.557-4.226-.391-1.024-1.174-1.886-1.867-2.763.993.314 2.143.335 3.057-.082 1.732-.789 3.6-2.367 3.66-4.152.058-1.72-1.596-3.414-3.253-4.195-1.532-.722-3.673-.804-5.158.028-1.157.649-1.758 2.084-1.994 3.35-.115.617.323 1.856.323 1.856zM199.714 458.342c.053.68-.441.754-.297 1.57.144.81 1.486 1.175 2.304.991.29-.065.564-1.07.602-1.361l6.266 8.358c-.282.427-.755.84-1.091 1.2-.64.313-1.242.818-1.954.839-1.691.05-3.651-.443-4.79-1.664-1.189-1.275-1.281-3.284-1.339-5.027-.688.827-1.32 1.913-2.37 2.18-1.16.295-2.513-.168-3.467-.87-1.407-1.036-2.913-2.747-2.707-4.472.223-1.87 2.187-3.416 3.986-4.066 1.338-.484 2.906-.051 4.243.433M133.37 454.842c2.114.039 4.153 1.298 5.748 2.777.85.787 1.03 2.214 1.838 3.062.367.385.902.236 1.314.865.195-3.106-.722-3.576-1.635-5.06-1.2-1.949-2.958-3.53-4.832-4.694-2.017-1.254-4.316-2.137-6.65-2.316-2.749-.211-5.597.426-8.211 1.495-1.774.726-3.503 1.802-4.87 3.259-.761.81-1.498 2.069-1.737 2.922 1.253-1.23 3.233-2.585 5.094-3.225 1.696-.584 3.602-1.01 5.282-.475 1.63.519 2.715 1.7 4.026 3.375 1.775-.718 2.994-2.016 4.633-1.985z" fill="#000"/><path d="M154.266 456.03c-2.153-.282-4.39.724-6.286 1.875-.999.606-1.618 1.76-2.504 2.54-.42.369-.532 1.115-1.327 1.006.304-3.1 1.306-3.54 2.474-4.895 1.536-1.782 3.574-3.041 5.665-3.91 2.25-.933 4.727-1.458 7.126-1.282 2.825.207 5.615 1.267 8.096 2.72 1.684.986 3.36 2.22 4.42 3.958.568.933.784 2.353.89 3.233-1.075-1.406-2.576-3.12-4.25-4.04-1.612-.886-3.495-1.544-5.287-1.27-1.74.267-3.032 1.27-4.634 2.728-1.686-.978-2.714-2.445-4.383-2.663zM103.68 449.694c1.932.059 3.83 1.416 5.424 2.646.757.584 1.165 1.533 1.873 2.177.407.37.635.934 1.349.951-.021-2.89-1.019-2.927-1.91-4.166-1.258-1.75-2.842-3.356-4.71-4.423-1.73-.988-3.753-1.483-5.734-1.67-2.628-.25-5.407-.166-7.883.75-1.619.599-2.972 1.808-4.238 2.984-1.075.998-2.63 2.609-2.794 3.401 1.495-.515 2.453-1.826 5.544-3.514 1.406-.768 3.454-1.012 5.086-.521 1.605.482 2.587 1.612 3.891 3.185 1.574-.65 2.604-1.845 4.102-1.8zM189.058 452.508c1.781-.715 4.275-.413 6.182.503 1.139.547 1.839 1.8 2.678 2.762.547.629 1.865 3.22 1.532 1.963-.507-1.912-1.65-4.683-3.514-6.301-1.692-1.469-4.233-2.183-6.378-2.585-2.308-.432-4.667-.424-6.702.24-2.395.783-4.45 2.377-6.093 4.285-1.115 1.295-2.089 2.949-2.426 4.714-.186.974.037 2.149.265 3.015.581-2.136 1.026-3.776 2.341-5.046 1.09-1.053 2.653-1.7 4.203-1.749 1.742-.054 3.115.594 5.046 1.662 1.12-1.287 1.485-2.909 2.866-3.463z" fill="#000"/><path d="M91.384 444.02s4.824-1.255 7.291-1.286c2.79-.036 5.723.124 8.275 1.246 1.804.793 3.232 2.299 4.607 3.718.931.961 2.425 3.206 2.425 3.206s5.228-2.776 8.08-3.347c2.823-.566 5.778-.423 8.62-.014 2.73.393 5.534.987 7.932 2.349 1.929 1.094 4.9 4.514 4.9 4.514s3.976-4.133 6.557-5.114c2.508-.955 5.34-.67 8.006-.5 2.432.157 4.87.6 7.174 1.387 2.295.783 6.498 3.274 6.498 3.274s2.52-3.332 4.19-4.52c1.556-1.106 3.406-1.76 5.231-2.287 1.838-.53 3.764-1.042 5.664-.855 2.613.257 7.414 2.67 7.414 2.67l-5.637-7.002s-11.09 3.018-19.951 3.17c-5.744.098-14.117.126-21.171-.097a277.143 277.143 0 0 1-15.858-.93c-4.548-.406-9.433-1.103-14.132-1.788-3.84-.559-7.68-1.139-11.487-1.894-3.331-.66-9.926-2.303-9.926-2.303l-4.702 6.404zM85.183 452.226c.589.479.196 1.122 0 1.927-.588.702-.972.937-1.777 1-.285-.082-.457-.54-.476-.833l-6.729 7.687c.254.443.55 1.095.862 1.473.618.351 1.188.89 1.897.953 1.685.15 3.674-.225 4.89-1.376 1.269-1.2 1.49-3.2 1.659-4.936.634.867 1.196 1.988 2.227 2.316 1.14.363 2.52-.018 3.518-.662 1.472-.95 3.085-2.568 2.99-4.302-.102-1.878-1.964-3.537-3.72-4.292-1.305-.562-2.898-.223-4.264.18M112.225 456.79c-.723.379-1.064 2.129-.596 3.067.135.27.514.464.827.428.883-.104 1.688-.898 1.933-1.704.174-.575-.417-1.14-.485-1.735-.048-.417.055-1.258.055-1.258 1.157-.908 2.138-2.14 3.55-2.232 2.012-.13 4.558.816 5.46 2.5.831 1.555-.043 3.66-1.07 5.11-.697.982-1.877 1.88-3.14 1.994-1.144.103-2.18-.717-3.167-1.263.576 1.66 1.213 3.585.49 5.186-.693 1.534-2.445 2.658-4.15 3.181-.717.22-1.513-.028-2.265-.107-1.349-.65-2.735-1.651-3.232-2.982-.5-1.341.045-2.888.557-4.226.391-1.024 1.174-1.886 1.867-2.764-.992.315-2.142.336-3.057-.08-1.731-.79-3.6-2.368-3.66-4.154-.057-1.72 1.596-3.413 3.253-4.194 1.532-.723 3.675-.807 5.158.028 1.245.7 1.375 2.29 2.132 3.614l-.46 1.592zM144.065 460.866c.598.543.458 2.318-.245 3.11-.203.228-.62.322-.914.21-.825-.318-1.362-1.285-1.411-2.123-.032-.527.561-.92.725-1.424.142-.44.214-1.363.214-1.363-.875-1.162-1.285-2.582-2.557-3.03-1.893-.668-4.624-.334-5.946 1.073-1.22 1.297-.938 3.546-.333 5.201.41 1.12 1.31 2.279 2.5 2.7 1.078.381 2.3-.157 3.4-.442-1.001 1.463-2.132 3.167-1.861 4.892.258 1.653 1.65 3.17 3.158 4.096.635.39 1.47.346 2.218.454 1.478-.297 3.086-.923 3.922-2.087.843-1.172.73-2.802.593-4.22-.104-1.087-.63-2.113-1.065-3.132.875.549 1.98.852 2.977.674 1.884-.336 4.113-1.401 4.648-3.112.516-1.65-.63-3.693-2.021-4.855-1.288-1.076-3.337-1.684-4.993-1.243-1.39.371-1.942 1.876-3.028 2.969l.02 1.652z" fill="#000"/><g stroke="#55A" stroke-linecap="round" stroke-linejoin="round" stroke-width="2"><path d="M122.997 440.96c-6.181-16.232-12.435-33.823-18.362-49.1-3.322-8.565-2.95-21.178 3.387-28.178 2.677-2.958 8.155-4.445 11.665-2.56 3.847 2.068 6.784 8.352 4.776 12.243-1.755 3.4-7.855 4.734-11.11 2.739-2.132-1.306-2.055-5.109-1.74-7.318"/><path d="M127.855 441.272c-3.752-9.852-9.954-24.518-13.67-37.197-2.658-9.065-7.956-18.402-6.133-27.673.773-3.931 3.535-8.856 6.847-9.86 2.203-.639 3.512 1.308 3.896 3.221"/><path d="M118.15 440.756c-3.313-10.762-7.807-20.372-11.426-30.662-3.563-10.13-9.376-19.867-10.125-30.585-.342-4.903-.62-10.84 2.641-14.505 1.827-2.053 5.007-3.764 7.876-2.382"/><path d="M113.44 439.522c-3.313-10.373-8.349-21.585-12.45-32.407-3.588-9.465-9.768-18.346-10.637-28.445-.37-4.288-.482-9.505 2.384-12.687 1.84-2.042 5.007-3.628 7.876-2.296"/><path d="M108.057 438.884c-3.313-10.304-8.349-21.44-12.45-32.189-3.589-9.402-9.768-18.223-10.638-28.254-.369-4.259-.482-9.44 2.385-12.6 1.84-2.03 5.006-3.605 7.875-2.281"/><path d="M102.677 437.34c-3.313-10.06-8.349-20.931-12.45-31.424-3.589-9.178-9.768-17.79-10.638-27.582-.369-4.159-.482-9.217 2.385-12.302 1.84-1.98 5.006-3.519 7.875-2.227"/><path d="M97.277 436.507c-3.313-9.954-8.529-20.833-12.687-31.293-3.607-9.074-9.767-17.604-10.637-27.294-.37-4.115-.482-9.12 2.384-12.173 1.84-1.96 5.007-3.483 7.876-2.204"/></g><path d="M133.868 361.85c-2.733.662-3.745-3.78-2.566-5.375 1.297-1.753 5.11-.717 6.445 1.006 1.798 2.319 1.444 6.82-.817 8.78-1.743 1.51-4.971.96-7.017-.138-1.954-1.048-3.386-3.285-3.664-5.43-.384-2.96.472-6.742 2.984-8.47 4.931-3.393 13.071-3.524 18.15.114 4.337 3.108 6.312 5.228 8.469 8.64 1.64 2.596 2.74 7.61 3.182 8.654l2.471-.083c.777-5.655 1.052-6.69 3.27-8.958 1.905-1.947 4.374-2.633 7.604-2.955" stroke="#55A" stroke-width="2" stroke-linecap="round" stroke-linejoin="round"/><path d="M153.546 369.385c-1.22-3.038-1.796-4.88-3.344-6.919-2.352-3.1-4.986-6.527-8.752-7.708-2.937-.92-6.562-.537-9.214.982" stroke="#55A" stroke-width="2" stroke-linecap="round" stroke-linejoin="round"/><path d="M149.455 370.737c-1.218-2.727-2.547-5.948-4.872-8.044-1.46-1.316-3.36-3.224-5.326-2.51M145.595 372.504c-.962-2.308-1.52-3.277-2.713-4.594-1.205-1.331-2.964-2.744-4.342-3.18M141.423 374.712c-1.055-2.015-1.901-3.112-3.167-4.4-1.064-1.083-3.069-2.346-3.646-2.724M137.466 377.657c-2-3.716-4.444-7.187-7.384-9.698-1.554-1.327-4.068-1.997-5.217-2.661M133.395 380.311c-1.268-2.082-2.064-3.575-3.458-5.07-1.283-1.376-4.044-3.106-4.427-3.496M129.906 384.396c-.943-2.12-2.116-4.445-3.705-6.283-.82-.95-2.27-1.836-2.93-2.36M112.469 375.856c-.136 6.641 1.079 9.884 2.754 14.512 1.18 3.263 4.316 7.86 5.053 9.097M116.114 377.765c1.143 3.855 1.785 6.516 3.101 9.614 1.047 2.465 3.445 6.358 3.79 7.08M120.597 377.387c.781 3.283 1.811 6.235 3.07 8.842.697 1.443 1.882 2.84 2.43 3.653M203.35 383.809c-.851-1.753-4.264-.354-5.11 1.182-1.043 1.894.343 4.906 2.117 6.134 1.265.876 3.213.512 4.608-.137 1.484-.692 2.853-2.08 3.283-3.667.707-2.606.533-6.306-1.608-7.94-3.077-2.35-8.62-2.308-11.566.82-2.93 3.112-4.86 6.48-6.258 10.227-.772 2.069-.8 5.493-1.09 6.537" stroke="#55A" stroke-width="2" stroke-linecap="round" stroke-linejoin="round"/><path d="M188.965 410.055c.967-6.097 1.296-11.269 3.514-16.396 1.474-3.403 4.07-8.618 6.333-9.137M207.214 380.022c-.172-2.782-1.87-5.14-4.067-6.353-2.66-1.47-6.486-1.6-9.107-.062-4.335 2.543-6.31 7.856-7.312 13.226" stroke="#55A" stroke-width="2" stroke-linecap="round" stroke-linejoin="round"/><path d="M205.8 375.502c-.171-2.782-1.552-5.823-3.89-7.235-2.603-1.571-6.434-1.506-9.108-.062-4.122 2.226-6.66 6.445-7.663 11.815" stroke="#55A" stroke-width="2" stroke-linecap="round" stroke-linejoin="round"/><path d="M202.639 368.446c-1.05-3.312-2.111-4.165-4.066-5.118-2.731-1.333-6.474-1.58-9.108-.062-4.336 2.497-6.485 7.68-7.487 13.05" stroke="#55A" stroke-width="2" stroke-linecap="round" stroke-linejoin="round"/><path d="M199.434 363.785c-1.29-4.54-2.835-4.543-5.175-5.372-3.119-1.105-7.134-.672-9.844 1.23-3.952 2.774-6.353 7.464-6.612 12.923" stroke="#55A" stroke-width="2" stroke-linecap="round" stroke-linejoin="round"/><path d="M196.714 359.32c-1.763-3.235-3.315-4.819-5.914-5.524-3.143-.852-6.917.201-9.528 2.154-4.143 3.099-7.315 7.927-7.594 13.57M180.912 354.917c-3.252-.142-6.034.522-8.125 2.431-3.157 2.882-5.061 5.462-4.807 11.911M188.763 411.175s.4-2.343.93-3.387c.677-1.332 1.6-2.604 2.79-3.503 1.208-.914 2.676-1.83 4.186-1.752 1.541.079 3.193.942 4.07 2.219.82 1.196.855 2.894.58 4.321-.253 1.318-.834 2.807-1.976 3.504-.895.546-2.172.52-3.14.117-.683-.285-1.206-.957-1.51-1.635-.321-.714-.233-2.336-.233-2.336s-1.3 2.116-1.744 3.27c-.576 1.498-.872 3.093-1.163 4.672-.234 1.272-.245 2.579-.465 3.854-.21 1.22-.814 3.62-.814 3.62" stroke="#55A" stroke-width="2" stroke-linecap="round" stroke-linejoin="round"/><path d="M189.499 440.688c.527-8.876.456-17.786-.05-26.657-.414-7.234-1.457-14.42-2.436-21.599-.543-3.98-.722-8.027-1.904-11.9" stroke="#55A" stroke-width="2" stroke-linecap="round" stroke-linejoin="round"/><g fill="#FFF" stroke="#55A" stroke-linecap="round" stroke-linejoin="round" stroke-width="2.01"><path d="M46.85 414.213c1.72.48 3.34 1.443 4.81 2.564 1.075.82 2.276 1.675 2.86 2.99.672 1.515.363 3.373.481 5.066.184 2.633.97 5.364.352 7.914-.212.878-1.11 1.401-1.332 2.276-.461 1.831.576 3.863.147 5.704-.192.824-.54 1.72-1.169 2.187-.457.34-1.621.25-1.621.25s.599 2.755.016 3.861c-.46.873-1.484 1.294-2.369 1.432-1.2.187-2.438-.33-3.543-.887-.955-.482-1.833-1.206-2.553-2.066-.335-.4-.785-1.392-.785-1.392s1.192 2.832.739 4.15c-.295.857-1.172 1.457-1.968 1.622-.85.176-1.69-.424-2.494-.777-1.145-.503-2.43-.892-3.284-1.895-.894-1.052-1.631-3.981-1.631-3.981s.79 2.837.255 4.05c-.348.792-1.199 1.282-1.964 1.439-1.057.216-2.206-.195-3.14-.789-.698-.443-1.282-1.163-1.666-1.959-.308-.637-.45-2.122-.45-2.122s-.79 2.753-1.828 2.912c-1.16.177-2.182-1.342-2.707-2.529-1.076-2.439.167-5.522-.347-8.19-.295-1.527-1.244-2.821-1.545-4.347-.46-2.338-.879-4.852-.364-7.179.389-1.76 1.37-3.366 2.504-4.648 1.333-1.508 3.123-2.417 4.826-3.321 1.742-.924 3.57-1.697 5.454-2.115 2.574-.573 5.231-.482 7.852-.512 1.213-.014 2.425.097 3.636.153.943.043 1.913-.116 2.828.14h0z"/><path d="M50.74 442.6c-2.02-1.635-3.692-4.194-3.591-7.143-.31-2.001.733-3.997.321-5.89-.718-1.314-1.457-2.519-1.893-3.928-.397-1.28-.706-2.616-.63-4.01"/><path d="M41.904 443.924c-1.618-3.31-3.162-8.09-3.427-11.913.008-1.668-.038-3.956 1.557-4.742 1.26-.69 2.882-.095 3.46 1.38 1.218 2.488 3.29 7.15 4.08 9.852"/><path d="M44.388 430.816c-.043 1.645-1.314 4.44-2.977 4.644-.577.22-1.193.228-1.795.241M33.664 443.417c-.627-4.204-1.593-9.116-.937-13.38.462-1.462.573-4.171 2.208-4.53 1.406-.307 2.605 1.41 3.11 2.798.129.545.225 3.5.252 4.064"/><path d="M38.135 432.824c-.735 1.638-2.017 1.862-3.28 2.104-.573.11-1.452-.277-1.69-.347M53.883 433.642c-1.227.404-2.868 1.04-2.896 2.783-.134 2.06.494 4.025 1.296 5.834M32.476 433.158c.383-2.48-.93-6.237-3.24-5.97-2.631.306-2.29 4.873-2.607 7.531-.104 2.566.365 5.133-.01 7.694-.05.571-.105 1.141-.163 1.711M26.57 434.473c-.592-2.037-1.795-2.999-3.193-2.68-1.342.306-1.688 2.616-1.87 3.696"/><path d="M31.961 434.101c-.788 1.117-1.68 1.6-2.695 1.629-.799.023-1.803-.934-2.165-1.158M26.172 436.947c-.695 1.17-1.546 1.162-2.451 1.32-.624.11-1.503-.061-1.852-.289"/></g><path d="M38.121 413.979c2.57-.076 5.14.161 7.708.33 1.86.123 3.94 1.599 5.575.495 1.302-.878 2.408-3.026 2.132-4.827-.373-2.442-2.756-3.87-4.624-4.788-2.772-1.362-5.95-.62-8.932-.658-3.392-.043-6.927-.74-10.169.494-2.182.83-4.963 1.864-5.81 4.484-.641 1.982-.148 5.025 1.294 6.201 1.375 1.122 3.25-.682 4.886-.92 2.637-.382 5.285-.733 7.94-.811z" stroke="#000" stroke-width="2" fill="#FF5" stroke-linecap="round" stroke-linejoin="round"/><g stroke="#000" stroke-linecap="round" stroke-linejoin="round"><path d="M39.395 404.756c3.093-.084 6.187.178 9.276.365 2.24.135 4.743 1.768 6.712.548 1.567-.972 2.898-3.347 2.566-5.34-.45-2.7-3.317-4.28-5.567-5.295-3.336-1.506-7.16-.687-10.75-.728-4.083-.047-8.337-.818-12.24.546-2.626.92-5.973 2.062-6.993 4.96-.772 2.192-.177 5.558 1.558 6.859 1.654 1.24 3.911-.755 5.88-1.017 3.175-.424 6.362-.811 9.558-.898z" stroke-width="2" fill="#000"/><path d="M36.925 399.47c0-2.693 1.206-4.877 2.694-4.877s2.694 2.184 2.694 4.878-1.206 4.878-2.694 4.878-2.694-2.184-2.694-4.878z" stroke-width="2.004" fill="#FFF555"/><path d="M44.208 399.453c.577-2.605 2.238-4.45 3.71-4.12 1.471.329 2.196 2.708 1.618 5.313-.578 2.605-2.239 4.45-3.71 4.12-1.471-.329-2.196-2.707-1.618-5.313zM35.72 398.957c-.577-2.605-2.238-4.45-3.71-4.12-1.47.329-2.195 2.708-1.617 5.313.577 2.605 2.238 4.45 3.71 4.12 1.471-.329 2.195-2.708 1.618-5.313z" stroke-width="2.006" fill="#FFF555"/><path d="M50.946 400.286c1.206-1.765 3.05-2.598 4.12-1.86 1.068.737.957 2.765-.25 4.53-1.205 1.764-3.05 2.597-4.119 1.86-1.068-.738-.957-2.766.25-4.53zM28.637 400.699c-1.206-1.765-3.05-2.597-4.12-1.86-1.068.737-.957 2.765.25 4.53 1.206 1.765 3.05 2.597 4.119 1.86 1.068-.737.957-2.765-.25-4.53z" stroke-width="2.041" fill="#FFF555"/></g><path d="M55.99 396.258s3.502-11.157 6.079-16.377c2.985-6.047 10.776-17.114 10.776-17.114s-1.986.312-2.89.726c-7.109 3.25-19.215 13.474-19.215 13.474L40.655 364.06l-10.223 11.797s-10.843-9.876-17.546-12.352c-1.389-.513-4.42-.417-4.42-.417s8.033 11.57 11.052 17.904c2.34 4.909 5.388 15.405 5.388 15.405s3.767-1.162 7.598-1.943c4.515-.921 9.185-.92 13.815-.417 5.228.569 9.67 2.22 9.67 2.22z" stroke="#000" stroke-width="2" fill="#FFF555" stroke-linecap="round" stroke-linejoin="round"/><path d="M71.187 363.088s-9.2 9.855-12.987 15.406c-3.32 4.867-8.427 15.543-8.427 15.543s-1.507-7.905-3.177-11.519c-1.48-3.2-5.941-8.743-5.941-8.743s-5.084 6.109-6.631 9.715c-1.38 3.216-2.21 10.27-2.21 10.27s-5.123-11.253-8.704-16.238c-3.927-5.467-13.816-14.711-13.816-14.711" stroke="#000" stroke-width="2" stroke-linecap="round" stroke-linejoin="round"/><path d="M44.523 393.621c-.416-4.286-2.316-9.263-4.144-10.548-2.119 3.007-3.408 6.847-3.869 10.687l8.013-.139z" stroke="#000" stroke-width="2" fill="#000001" stroke-linecap="round" stroke-linejoin="round"/><path d="M70.67 348.175l3.677-4.482c-6.437-6.96-11.53-14.91-14.578-23.669-4.213-12.11-6.175-25.496-4.525-38.218 1.506-11.616 5.9-23.295 12.894-32.667 7.193-9.64 18.116-15.98 28.382-22.207 3.797-2.302 9.558-3.783 12.124-5.505l-.92-4.978c-8.271 3.888-18.728 7.805-26.687 13.929-8.8 6.77-17.25 14.794-22.487 24.608-5.888 11.028-8.53 23.944-8.947 36.451-.32 9.56 1.736 19.26 4.962 28.26 3.682 10.272 6.954 18.053 16.106 28.478z" stroke="#000" stroke-width="2" fill="#FF5" stroke-linecap="round" stroke-linejoin="round"/><path d="M55.787 324.778c-2.878-1.968-5.876-1.647-8.274-2.048L1.993 276.4v6.867l39.524 39.703c-5.3.394-10.288 1.621-14.63 4.578-5.197-3.08-9.404-4.429-14.391-5.783-3.417-.927-10.503-1.566-10.503-1.566v5.421s11.28 1.884 16.499 4.096c3.209 1.36 8.874 5.542 8.874 5.542s7.584-4.263 11.752-5.3c3.655-.91 7.619-1.635 11.273-.724 4.005 1 10.553 6.506 10.553 6.506l-5.157-10.963z" stroke="#000" stroke-width="2" fill="#FF5" stroke-linecap="round" stroke-linejoin="round"/><path d="M74.454 343.464s9.444-10.86 13.352-16.88c3.752-5.776 6.743-12.036 9.594-18.31 2.923-6.431 5.74-12.96 7.675-19.758 2.392-8.405 3.79-17.097 4.797-25.78.731-6.31.933-12.683.894-19.034-.025-3.893-.367-7.779-.694-11.658-.295-3.507-1.146-10.496-1.146-10.496" stroke="#000" stroke-width="2" stroke-linecap="round" stroke-linejoin="round"/><path d="M86.52 328.196l2.718-4.374c-4.123-4.45-7.503-9.581-9.443-15.238-2.6-7.578-3.58-15.96-2.552-23.907.918-7.094 3.58-14.161 7.63-20.046 4.225-6.141 10.701-10.423 16.666-14.877 2.767-2.065 7.225-4.287 8.807-5.445l.155-5.022c-5.125 2.65-13.068 7.09-18.606 11.967-5.342 4.704-10.487 10.02-13.742 16.362-3.627 7.066-5.611 15.156-5.905 23.101-.234 6.323 1.15 12.75 3.328 18.687 2.499 6.809 5.075 12.118 10.944 18.792z" stroke="#000" stroke-width="2" fill="#FF5" stroke-linecap="round" stroke-linejoin="round"/><path d="M98.493 305.96c-1.991-2.529-3.21-5.76-3.906-8.938-.84-3.83-.9-7.9-.229-11.763.588-3.385 1.833-6.726 3.66-9.63 2.025-3.22 4.885-5.895 7.852-8.264 1.122-.896 2.874-1.59 3.7-2.2l.47-5.119c-2.652 1.368-6.771 3.494-9.541 6.05a33.924 33.924 0 0 0-7.222 9.593c-1.888 3.748-3.156 7.899-3.581 12.078-.363 3.57-.062 7.276.917 10.727 1.199 4.227 3.112 7.972 5.939 11.758l1.941-4.292z" stroke="#000" stroke-width="2" fill="#FF5" stroke-linecap="round" stroke-linejoin="round"/><path d="M175.163 301.279l-59.41 58.314" stroke="#000" stroke-width="2" stroke-linecap="round" stroke-linejoin="round"/><path stroke="#000" stroke-width="2" fill="#000" stroke-linecap="round" stroke-linejoin="round" d="M169.267 276.677l-48.525 48.292 4.535-15.946 43.096-42.824z"/><path d="M34.123 308.568l-.454-82.46M27.774 301.279l-.454-74.26" stroke="#000" stroke-width="2" stroke-linecap="round" stroke-linejoin="round"/><path fill="#55A" d="M21.921 235.22H11.037v-3.646h10.884zM21.921 243.184H11.037v-3.645h10.884zM21.921 251.15H11.037v-3.646h10.884zM21.921 259.114H11.037v-3.645h10.884zM21.921 267.08H11.037v-3.646h10.884zM21.921 275.044H11.037V271.4h10.884zM21.921 283.01H11.037v-3.646h10.884z"/><g stroke="#000" stroke-linecap="round" stroke-linejoin="round" stroke-width="2"><path d="M75.618 186.928c1.57-2.47 4.293-4.222 7.03-5.239 4.05-1.505 8.608-.76 12.925-.911 3.55-.125 7.142-.518 10.657 0 1.562.23 3.433.232 4.535 1.367.602.62.86 1.659.68 2.505-.223 1.056-.967 2.463-2.04 2.506-4.909.199-14.74-.228-14.74-.228s11.514.663 17.234 1.367c1.825.225 3.922-.129 5.442.911.729.498 1.42 1.395 1.36 2.278-.065.97-.995 1.758-1.814 2.278-1.115.708-2.537 1-3.854.911-5.573-.373-16.78-.683-16.78-.683s12.61.432 19.047.455c1.468.005 3.059.139 4.308.911.825.51 1.772 1.307 1.814 2.278.036.82-.725 1.533-1.36 2.05-.948.773-2.18 1.388-3.401 1.367-7.267-.123-19.543-.29-19.501-.228 0 0 11.944.211 17.913.684 1.025.08 1.978.93 2.495 1.822.343.595.482 1.412.226 2.05-.44 1.1-1.357 2.308-2.72 2.278-3.588-.078-19.958-.492-19.955-.228 0 0 10.253-.386 15.193.486.898.159 1.84 1.202 1.749 2.113-.104 1.038-1.45 1.611-2.43 1.957-1.782.63-3.788-.187-5.668 0-3.836.382-7.489 2.089-11.338 2.278-3.035.15-6.191.065-9.07-.911-2.186-.742-4.167-2.11-5.896-3.645-1.088-.966-2.175-2.065-2.72-3.417-.886-2.19-.568-4.699-.681-7.061-.091-1.896-.193-3.806 0-5.695.228-2.237.156-4.71 1.36-6.606z"/><path d="M104.561 211.335s-.451-.707-.516-1.686c-.067-1.003.387-2.01.387-2.01M110.504 206.698s-.451-.918-.516-2.189c-.067-1.303.387-2.61.387-2.61M114.378 200.473s-.842-1.068-.963-2.545c-.124-1.514.722-3.033.722-3.033M112.118 193.987s-.897-1.005-1.026-2.396c-.133-1.426.77-2.857.77-2.857M104.048 186.529s-.562-.93-.644-2.219c-.083-1.32.483-2.645.483-2.645"/></g><path d="M50.138 226.187l-47.257-.26M170.615 282.783l-3.691 3.708 7.536 8.962-7.844 6.953-3.691-4.326 3.537-3.4-3.845-3.553-7.844 6.644 7.69 8.653-8.46 7.57-3.537-3.553 2.922-4.017-3.076-3.245-7.998 7.88 7.69 7.726-8.459 8.343-3.999-4.172 3.538-4.326-3.692-3.245-7.844 7.417 7.998 8.498-8.613 7.88-3.538-3.863 3.692-3.708-4.307-4.48-8.613 9.425 8.151 7.88-7.69 7.416-3.384-3.862 3.384-3.245-2.307-2.472" stroke="#000" stroke-width="2" stroke-linecap="round" stroke-linejoin="round"/><g stroke="#000" stroke-linecap="round" stroke-linejoin="round" stroke-width="2"><path d="M67.956 210.233s-4.728 2.891-6.843 4.67c-1.984 1.668-3.673 3.663-5.423 5.577-1.693 1.851-4.906 5.707-4.906 5.707s-1.789-3.797-2.195-5.837c-.499-2.503-.78-5.154-.259-7.653.47-2.252 2.97-6.226 2.97-6.226s-3.379-1.36-4.906-2.334c-1.884-1.203-4.213-2.253-5.165-4.28-.33-.705-.304-1.62 0-2.335.562-1.322 1.986-2.081 3.099-2.984 1.495-1.213 3.088-2.322 4.777-3.243 1.068-.582 3.357-1.426 3.357-1.426s-1.512-4.083-1.678-6.226c-.216-2.776.323-5.58.904-8.302.375-1.761 1.656-5.142 1.656-5.142s1.087 4.78 2.346 6.829c1.359 2.211 3.418 3.935 5.423 5.577 2.101 1.72 6.843 4.41 6.843 4.41s-.477 4.23-.516 6.356c-.053 2.9.3 5.792.387 8.69.082 2.723.13 8.172.13 8.172z" fill="#FF5"/><path d="M66.513 206.213s-5.259-.32-7.7-1.213c-3.479-1.273-9.511-5.764-9.511-5.764s4.958-5.15 8.152-6.521c3.083-1.324 9.965-1.365 9.965-1.365"/><path d="M66.966 201.36c-3.221.252-6.29-1.011-9.663-2.579 2.97-2.527 6.543-3.083 10.267-3.336M50.51 225.777l2.264-8.493 3.02-6.976 2.717-5.005M60.625 191.653s-2.972-3.579-4.076-5.611a27.594 27.594 0 0 1-2.567-6.673c-.667-2.768-.906-8.493-.906-8.493"/></g><path d="M75.316 208.547s-.45 1.502-1.033 1.945c-.808.614-1.99.906-2.97.649-1.445-.379-2.679-1.646-3.357-2.983-1.134-2.239-.612-4.992-.71-7.502-.108-2.729-.079-5.47.128-8.193.133-1.74-.25-3.735.712-5.188.609-.92 1.749-1.55 2.84-1.687 1.514-.189 4.39 1.297 4.39 1.297-.94 6.867-2.172 13.623 0 21.662z" stroke="#000" stroke-width="2" fill="#FF5" stroke-linecap="round" stroke-linejoin="round"/><path d="M67.585 148.801a2.49 2.49 0 0 1 2.483-2.495 2.49 2.49 0 0 1 2.484 2.495 2.49 2.49 0 0 1-2.484 2.495 2.49 2.49 0 0 1-2.483-2.495zM59.198 153.738a2.49 2.49 0 0 1 2.484-2.495 2.49 2.49 0 0 1 2.483 2.495 2.49 2.49 0 0 1-2.483 2.494 2.49 2.49 0 0 1-2.484-2.494zM51.348 158.136a2.49 2.49 0 0 1 2.483-2.495 2.49 2.49 0 0 1 2.484 2.495 2.49 2.49 0 0 1-2.484 2.495 2.49 2.49 0 0 1-2.483-2.495zM43.8 162.686a2.49 2.49 0 0 1 2.483-2.495 2.49 2.49 0 0 1 2.483 2.495 2.49 2.49 0 0 1-2.483 2.495 2.49 2.49 0 0 1-2.484-2.495zM36.401 167.994a2.49 2.49 0 0 1 2.484-2.495 2.49 2.49 0 0 1 2.483 2.495 2.49 2.49 0 0 1-2.483 2.495 2.49 2.49 0 0 1-2.484-2.495zM28.55 173.757a2.49 2.49 0 0 1 2.484-2.495 2.49 2.49 0 0 1 2.484 2.495 2.49 2.49 0 0 1-2.484 2.495 2.49 2.49 0 0 1-2.483-2.495zM21.304 180.127a2.49 2.49 0 0 1 2.484-2.495 2.49 2.49 0 0 1 2.483 2.495 2.49 2.49 0 0 1-2.483 2.495 2.49 2.49 0 0 1-2.484-2.495zM13.907 186.193a2.49 2.49 0 0 1 2.483-2.494 2.49 2.49 0 0 1 2.484 2.494 2.49 2.49 0 0 1-2.484 2.495 2.49 2.49 0 0 1-2.483-2.495zM6.962 193.322a2.49 2.49 0 0 1 2.483-2.495 2.49 2.49 0 0 1 2.484 2.495 2.49 2.49 0 0 1-2.484 2.494 2.49 2.49 0 0 1-2.483-2.494zM5 174.515a2.49 2.49 0 0 1 2.483-2.494 2.49 2.49 0 0 1 2.483 2.494 2.49 2.49 0 0 1-2.483 2.495 2.49 2.49 0 0 1-2.484-2.495zM12.397 168.146a2.49 2.49 0 0 1 2.483-2.495 2.49 2.49 0 0 1 2.484 2.495 2.49 2.49 0 0 1-2.484 2.494 2.49 2.49 0 0 1-2.483-2.494zM19.19 162.23a2.49 2.49 0 0 1 2.484-2.494 2.49 2.49 0 0 1 2.484 2.495 2.49 2.49 0 0 1-2.484 2.495 2.49 2.49 0 0 1-2.483-2.495zM26.588 156.316a2.49 2.49 0 0 1 2.484-2.495 2.49 2.49 0 0 1 2.483 2.495 2.49 2.49 0 0 1-2.483 2.495 2.49 2.49 0 0 1-2.484-2.495zM34.59 150.553a2.49 2.49 0 0 1 2.483-2.495 2.49 2.49 0 0 1 2.484 2.495 2.49 2.49 0 0 1-2.484 2.495 2.49 2.49 0 0 1-2.483-2.495zM42.44 145.851a2.49 2.49 0 0 1 2.484-2.495 2.49 2.49 0 0 1 2.483 2.495 2.49 2.49 0 0 1-2.483 2.495 2.49 2.49 0 0 1-2.484-2.495zM50.442 140.998a2.49 2.49 0 0 1 2.483-2.495 2.49 2.49 0 0 1 2.484 2.495 2.49 2.49 0 0 1-2.484 2.495 2.49 2.49 0 0 1-2.483-2.495zM58.594 135.69a2.49 2.49 0 0 1 2.484-2.495 2.49 2.49 0 0 1 2.483 2.495 2.49 2.49 0 0 1-2.483 2.495 2.49 2.49 0 0 1-2.484-2.495zM81.06 333.625s-1.36-1.588-2.267-2.05c-2.961-1.51-7.792.643-9.75-2.05-3.048-4.192 3.498-10.668 1.587-15.49-1.586-4.002-8.83-4.221-9.75-8.428-1.016-4.647 5.883-8.227 5.895-12.984.013-4.996-7.302-8.814-6.122-13.668.982-4.043 7.801-4.072 9.75-7.745 2.746-5.175-2.333-12.998 1.36-17.54 2.438-2.996 8.283-.562 11.112-3.188 3.495-3.246 1.033-10.78 4.988-13.44 3.708-2.494 9.39 2.464 13.378.456 3.787-1.907 7.257-10.479 7.257-10.479l.453 4.556s-2.94 7.763-6.349 9.34c-3.799 1.756-8.93-3.6-12.471-1.367-4.212 2.655-1.417 10.647-4.989 14.123-2.679 2.606-8.434.409-10.657 3.416-2.885 3.902 1.796 10.164-.227 14.579-1.813 3.958-8.845 4.395-9.75 8.656-.953 4.486 5.753 7.942 5.668 12.528-.078 4.244-6.513 7.231-5.668 11.39.793 3.906 7.574 4.052 9.07 7.745 1.83 4.52-4.135 10.571-1.36 14.578 1.83 2.647 6.569.808 9.296 2.506.728.453 1.7 1.936 1.7 1.936l-2.153 2.62z" fill="#FF5"/><path fill="#000" d="M96.208 310.585l-6.621 12.598-7.173-9.012-3.345-10.1-2.003-9.933.154-10.372 3.39-12.563 5.813-8.206 7.283-6.735 7.395-6.241 9.096-5.405-.031 15.203-7.084 3.546-6.477 6.07-5.056 7.757-2.072 9.057-.394 7.012 2.003 7.889 3.082 6.574z"/><path fill="#FF5" d="M91.107 307.29l-1.123 6.911-6.74-3.667.983-7.194zM87.366 291.027l-4.558 5.299-3.832-6.669 4.585-5.613zM91.138 275.54l-6.862 1.235 1.2-7.605 7.08-1.462zM98.89 254.097l6.97.08-2.599 7.243-7.227.102z"/><path fill="#000" d="M109.08 265.537l-2.106 15.093-3.37 12.413-5.335 12.413-3.932-9.733-.14-9.45 3.089-9.733 4.633-5.784z"/><path d="M49.99 180.172s-5.98 1.947-8.929 3.04c-3.822 1.418-11.35 4.562-11.35 4.562" stroke="#000" stroke-width="2" stroke-linecap="round" stroke-linejoin="round"/></g><path fill="#000" d="M134.475 222.616l33.474-.39-.89 18.412 1.145 18.022-33.857.519.891-18.67z"/><path stroke="#000" stroke-width="2" fill="#FF5" stroke-linecap="round" stroke-linejoin="round" d="M146.033 225.894h9.934v9.979h-9.934zM136.099 235.873h9.934v9.979h-9.934zM155.967 235.873h9.934v9.979h-9.934zM146.033 245.852h9.934v9.979h-9.934z"/></g></svg>