<svg width="302" height="482" xmlns="http://www.w3.org/2000/svg"><g fill="none" fill-rule="evenodd"><path d="M123.75 228.139l56.25.499s-1.943 7.59-2.25 11.476c-.367 4.645.5 13.97.5 13.97l-56.5-.498s2.177-8.916 2.5-13.472c.283-3.985-.5-11.975-.5-11.975z" fill="#000"/><path d="M165.985 146.193l17.677.352s-10.836 15.954-15.202 24.521c-3.115 6.113-5.696 12.517-7.779 19.052-1.888 5.927-3.115 12.054-4.242 18.17-.635 3.444-.961 6.937-1.414 10.409-.43 3.29-1.238 9.879-1.238 9.879h-8.308s1.338-10.713 2.12-16.054c.753-5.127 1.523-10.253 2.476-15.347.884-4.728 1.755-9.468 3.005-14.113 1.527-5.675 3.549-11.208 5.48-16.759 2.348-6.749 7.425-20.11 7.425-20.11z" fill="#FF5"/><path d="M165.1 228.4l8.663-.177s1.53-6.078 2.652-8.997c1.661-4.322 3.63-8.552 6.01-12.525 2.921-4.876 6.226-9.576 10.076-13.76 2.853-3.1 6.22-5.7 9.546-8.291 3.002-2.34 5.931-4.892 9.37-6.527 3.652-1.738 7.724-2.443 11.667-3.352 5.304-1.224 10.667-2.295 16.086-2.823 2.875-.28 5.776-.275 8.662-.176 3.962.136 11.844 1.058 11.844 1.058l8.84-11.643s-7.287-3.344-10.784-5.292c-2.127-1.185-4.259-2.396-6.187-3.88-2.047-1.577-5.657-5.293-5.657-5.293l-38.007-.353s-5.205 5.51-7.778 8.291c-4.216 4.558-8.88 8.755-12.552 13.76-3.54 4.826-6.32 10.182-9.015 15.524-2.943 5.835-5.583 11.84-7.778 17.994-1.664 4.665-3.065 9.44-4.066 14.289-.828 4.008-1.591 12.172-1.591 12.172z" fill="#FF5655"/><path fill="#F55" d="M114.012 146.193l33.058.176-6.364 20.993-3.536 20.11-2.652 23.992.177 16.759h-10.43l-2.651-11.114-6.895-14.465-2.12-3.176 4.949-8.467 3.535-10.761.354-10.585-1.414-11.29-2.829-6.175z"/><path fill="#FF5" d="M93.75 145.312l5-6.986 6.75-9.48 7.5-10.977 2.75-5.24 3.5-5.987 36.75-.748 5.25 4.24 5.5.999 7.25-1.248 3.5-1.497 44.75.5 2.75 4.989 3.25 5.489 3.25 5.738 2.75 4.49 3.25 5.738 3.75 4.99 4.5 6.486z"/><g stroke="#000" stroke-linecap="round" stroke-linejoin="round" stroke-width="2"><path d="M115.5 113.378l109.25.748M112.25 118.617l116.25 1.248M98.5 139.324l142.25.748M94.25 145.561l151.5.998" fill="#55A"/><path fill="#000" d="M112.375 119.116l-6.125 9.73h11.375l6.125-9.051zM119.263 129.968l-5.013 8.233 13.487-.499 4.263-8.157zM138.637 119.99l-5.012 8.98h11.987l5.513-9.155zM147.137 129.968l-5.262 8.732 12.237-.748 5.513-8.657zM164.887 120.738l-4.262 8.233h12.237l4.263-8.906zM173.387 129.719l-5.512 9.23 13.487-.498 5.763-8.657zM192.575 119.74l-5.2 9.48 12.55.25 5.2-9.156zM201.137 130.218l-5.512 8.233 12.487.25 4.513-8.657zM218.637 120.738l-4.262 8.482 11.738.748 4.006-5.825-1.744-2.581zM225.887 130.717l-5.512 8.233h13.238l2.63-3.83-1.868-4.328z"/></g><path fill="#55A" d="M191.264 102.09l27.577.353 4.066 6.704-47.023-.177z"/><path d="M118.785 107.03h37.83s-6.074-6.641-8.131-10.585c-2.169-4.157-3.096-8.862-4.243-13.407-1.157-4.585-1.9-9.268-2.651-13.936-.717-4.45-1.31-8.923-1.768-13.407-.33-3.226-.707-9.703-.707-9.703s-2.034 10.398-3.36 15.524c-1.43 5.53-3.042 11.021-4.949 16.406-1.717 4.85-3.87 9.534-5.834 14.29-2.042 4.947-6.187 14.818-6.187 14.818z" fill="#000"/><path d="M278 1.361a109.838 109.838 0 0 0 0 29.938c1.413 10.254 4.276 20.277 8 29.938a173.836 173.836 0 0 0 15 29.937 57.445 57.445 0 0 0-15-1.996c-5.06 0-10.118.674-15 1.996L221 1.361h57" stroke="#55A" stroke-width="2" fill="#FF5" stroke-linecap="round" stroke-linejoin="round"/><path d="M232.43 1.361s-3.889 5.302-1.035 9.858c1.595 2.55 8.696 3.137 8.696 3.137s-2.712 7.95-.85 11.203c1.845 3.224 10.016 4.919 10.016 4.919s-3.62 7.166-1.306 11.212c3.355 5.867 9.755 3.885 9.755 3.885s-4.019 7.062.793 12.694c2.498 2.924 8.02 2.983 8.02 2.983-2.742 2.804-2.755 7.928-.894 11.168 1.446 2.517 7.854 3.785 7.854 3.785s-2.567 6.58-.21 8.931c2.357 2.353 6.008 3.355 6.008 3.355" stroke="#000100" stroke-width="2" stroke-linecap="round" stroke-linejoin="round"/><path d="M258.432 48.334c.269 1.03.598 2.068 1.157 2.97.737 1.19 1.542 2.518 2.826 3.11 1.615.746 3.872 1.213 5.405.223 1.495-.965 2.203-3.178 1.97-4.889-.268-1.973-3.675-4.666-3.675-4.666s4.888-.979 5.961-2.889c1.009-1.793.52-4.413-.698-6-1.202-1.564-3.607-2.804-5.563-2.221-2.196.654-4.022 5.555-4.022 5.555s-.366-3.82-1.398-5.333c-.917-1.344-2.307-2.719-3.962-2.889-1.467-.15-3.271.554-4.12 1.778-1.335 1.925-1.223 4.843-.233 6.888.992 2.05 5.536 4.053 5.536 4.053s-.929-2.835 1.504-4.1c1.945-1.01 4.978.862 5.738 2.836.644 1.672-.176 4.625-1.954 5.135-3.55 1.018-4.865-2.34-4.865-2.34s.157 1.876.393 2.779zM242.342 17.897c.299 1.036.664 2.079 1.283 2.986.817 1.196 1.71 2.53 3.133 3.126 1.79.749 4.292 1.219 5.992.224 1.657-.97 2.442-3.195 2.184-4.914-.298-1.983-4.075-4.69-4.075-4.69s5.419-.983 6.609-2.903c1.118-1.802.576-4.435-.774-6.03-1.333-1.572-3.999-2.819-6.167-2.233-2.434.658-4.459 5.583-4.459 5.583s.035-4.173-1.11-5.693H236c-1.48 1.935-1.628 4.258-.698 6.14 1.028 2.083 6.137 4.073 6.137 4.073s-1.03-2.85 1.667-4.12c2.156-1.016 5.517.865 6.36 2.85.714 1.68-.195 4.648-2.166 5.16-3.934 1.024-5.393-2.35-5.393-2.35s.174 1.885.435 2.791zM274.809 78.463c.23.94.51 1.887.986 2.71.628 1.086 1.314 2.298 2.408 2.838 1.376.68 3.298 1.106 4.605.203 1.274-.88 1.877-2.9 1.679-4.46-.229-1.8-3.132-4.257-3.132-4.257s4.165-.894 5.08-2.636c.859-1.636.442-4.026-.596-5.474-1.024-1.427-3.073-2.559-4.74-2.027-1.87.597-3.426 5.068-3.426 5.068s-.312-3.485-1.191-4.865c-.782-1.226-1.966-2.48-3.376-2.636-1.25-.138-2.787.506-3.51 1.622-1.137 1.757-1.042 4.419-.199 6.285.845 1.87 4.717 3.697 4.717 3.697s-.792-2.586 1.282-3.74c1.657-.922 4.24.786 4.889 2.588.548 1.525-.15 4.218-1.666 4.684-3.023.929-4.145-2.134-4.145-2.134s.134 1.711.335 2.534z" stroke="#000100" stroke-width="2" fill="#000" stroke-linecap="round" stroke-linejoin="round"/><path d="M162.334 2.31s3.777 13.691 12.651 20.549c8.875 6.857 19.274 9.787 19.274 9.787" stroke="#55A" stroke-width="2" stroke-linecap="round" stroke-linejoin="round"/><path d="M167.502 1.894s3.212 10.642 10.428 16.642c7.215 6 15.04 8.618 15.04 8.618" stroke="#55A" stroke-width="2" stroke-linecap="round" stroke-linejoin="round"/><path d="M173.608 2.102s2.41 8.666 7.792 13.238c5.381 4.571 10.497 6.512 10.497 6.512M178.63 1.998s.73 5.55 5.028 9.093 6.999 5.023 6.999 5.023M184.255 2.31s.097 3.654 2.648 5.825c2.551 2.172 3.363 2.095 3.363 2.095M162.28 2.413s-1.312 8.506-6.616 17.359c-5.303 8.853-15.276 14.017-15.276 14.017M156.392 2.36s.884 4.934-3.94 12.431c-4.824 7.497-11.998 11.761-11.998 11.761M152.02 2.36s-.932 5.813-3.508 10.384c-2.575 4.572-7.86 7.882-7.86 7.882M146.895 2.36s.18 2.762-1.943 6.305c-2.123 3.543-4.09 3.976-4.09 3.976M158.648 42.503s.398 5.161 0 7.695c-.5 3.18-1.985 6.123-2.963 9.19-.785 2.462-2.203 4.823-2.33 7.393-.072 1.465-.002 3.13.906 4.313.786 1.025 2.525.979 3.495 1.849.82.734 1.813 2.711 1.813 2.711" stroke="#55A" stroke-width="2" stroke-linecap="round" stroke-linejoin="round"/><path d="M170.96 65.344s3.173 3.538 2.719 5.545c-.292 1.288-1.813 2.191-3.107 2.465-1.44.304-2.907-.56-4.272-1.11-1.56-.627-2.775-2.895-4.401-2.464-.65.172-1.313 1.115-1.036 1.725.76 1.674 3.603.821 5.437.986 2.235.201 5.023 1.452 6.732 0 .825-.701.743-2.146.517-3.204-.328-1.537-2.589-3.943-2.589-3.943zM194.29 39.194s-7.256-3.833-11.137-4.556c-2.642-.492-5.444-.649-8.021.195-1.378.45-3.722 2.518-3.722 2.518s3.415-1.2 5.175-1.455c2.65-.382 5.364-.527 8.008-.09 3.338.551 9.696 3.388 9.696 3.388zM140.902 37.23s5.292-2.95 8.12-2.627c3.521.402 9.115 5.468 9.115 5.468s-5.934-4.213-9.375-4.324c-2.888-.092-8.086 3.12-8.086 3.12l.226-1.638zM174.815 84.205s-4.811-1.633-7.318-1.78c-1.882-.11-3.73.607-5.613.684-2.15.088-4.355-.744-6.45-.255-1.145.268-3.1 1.687-3.1 1.687s2.135-.401 3.21-.346c2.185.112 4.231 1.363 6.42 1.366 2.414.003 4.653-1.269 7.088-1.492 1.913-.174 5.763.136 5.763.136z" stroke="#55A" stroke-width="2" fill="#55A" stroke-linecap="round" stroke-linejoin="round"/><path d="M171.247 94.263s-4.102-1.448-6.344-1.478c-2.537-.035-7.276 1.478-7.276 1.478M168.767 88.44s-3.75 1.193-5.696 1.232c-1.667.033-4.92-.863-4.92-.863M157.402 46.72s-4.784-4.062-9.174-4.16c-4.699-.106-7.506 2.496-7.506 2.496M194.689 48.61s-8.137-7.248-12.808-7.086c-6.121.211-10.692 5.5-10.692 5.5" stroke="#55A" stroke-width="2" stroke-linecap="round" stroke-linejoin="round"/><path d="M199.312 50.403c-5.564-.75-9.654-3.265-14.776-3.72-4.392-.39-13.257 1.026-13.257 1.026M140.124 50.475c5.122-2.515 4.025-3.316 9.147-3.77 4.392-.391 8.98 2.202 8.98 2.202" stroke="#55A" stroke-width="2" stroke-linecap="round" stroke-linejoin="round"/><path d="M196.235 49.924c-5.008 1.187-10.239 5.028-15.904 5.322-4.198.218-8.7-2.784-9.07-6.825" stroke="#55A" stroke-width="2" stroke-linecap="round" stroke-linejoin="round"/><path d="M185.693 47.734c.891 5.01-3.82 6.49-7.205 6.058-2.296-.294-4.425-3.226-3.32-6.09" stroke="#55A" stroke-width="2" stroke-linecap="round" stroke-linejoin="round"/><path d="M177.85 50.085c-.093-.907.71-2.157 1.622-2.207.799-.043 1.64.968 1.622 1.766-.018.832-.936 1.744-1.77 1.765-.66.018-1.406-.667-1.474-1.324z" stroke="#55A" stroke-width="2" fill="#55A" stroke-linecap="round" stroke-linejoin="round"/><path d="M140.517 52.227c2.672 1.8 6.094 2.863 10.459 2.742 3.234-.09 6.521-2.533 6.579-5.485" stroke="#55A" stroke-width="2" stroke-linecap="round" stroke-linejoin="round"/><path d="M145.792 47.925c-1.112 4.274 1.762 7.011 5.81 6.939 1.78-.032 3.922-4.542 2.914-6.553" stroke="#55A" stroke-width="2" stroke-linecap="round" stroke-linejoin="round"/><path d="M152.59 50.154c.026-.71-.805-1.628-1.656-1.609-.745.017-1.457.854-1.387 1.472.073.643.987 1.292 1.763 1.257.616-.028 1.262-.607 1.28-1.12z" stroke="#55A" stroke-width="2" fill="#55A" stroke-linecap="round" stroke-linejoin="round"/><path d="M140.096 2.402s-.173 21.084-.208 31.627c-.02 6.034-.34 12.077 0 18.102.418 7.387 1.017 14.806 2.502 22.055 1.41 6.88 3.174 13.773 6.047 20.183 1.898 4.235 3.903 8.69 7.297 11.86 2.18 2.035 5.037 3.406 7.923 4.161 2.354.616 4.905.652 7.298.208 4.962-.92 9.424-3.638 13.97-5.826 4.286-2.063 8.487-4.329 12.51-6.866 4.924-3.106 14.178-10.195 14.178-10.195M156.777 54.211c-1.99 2.434-2.133 4.595-6.255 6.659M170.538 52.547c1.75 4.598 4.071 8.479 8.966 10.611" stroke="#55A" stroke-width="2" stroke-linecap="round" stroke-linejoin="round"/><path d="M197.084 2.223S238.993 88.85 263 130.507c2.297 3.985 4.476 8.105 7.457 11.609 2.597 3.052 5.585 5.851 8.948 8.036 2.648 1.72 5.607 3.02 8.65 3.87 2.315.646 4.763 1.106 7.158.892 1.66-.148 4.772-1.488 4.772-1.488L206.032 2.223h-8.948z" fill="#000"/><g stroke="#55A" stroke-linecap="round" stroke-linejoin="round" stroke-width="2"><path d="M189.496 1.89s2.801 20.79 4.95 31.048c1.246 5.947 2.817 11.83 4.596 17.64 3.834 12.522 7.957 24.994 13.081 37.047 3.19 7.505 7.036 14.725 10.96 21.874 5.74 10.455 11.383 21.039 18.385 30.696 2.743 3.782 5.596 7.599 9.193 10.584 4.833 4.011 10.39 7.29 16.263 9.526 4.728 1.801 9.825 2.85 14.883 2.988 3.679.101 7.376-.611 10.927-1.576 2.702-.735 7.778-3.176 7.778-3.176s-9.866 1.034-14.496-.353c-5.324-1.594-9.953-5.173-14.142-8.82-3.468-3.02-6.296-6.757-8.839-10.585-4.689-7.058-7.805-15.04-11.667-22.58-4.51-8.805-8.903-17.669-13.435-26.461-5.474-10.619-11.225-21.094-16.617-31.754-4.726-9.344-9.122-18.852-13.789-28.225-4.643-9.327-14.142-27.873-14.142-27.873h-3.889zM191.131 9.983c4.523 5.405 9.045 10.905 13.568 15.546M192.247 20.104c6.007 6.314 11.444 12.628 19.71 18.942M194.8 29.41c11.18 12.103 16.536 16.455 23.223 22.58M196.92 38.936c11.026 11.786 21.135 21.971 28.992 28.225M198.435 47.734c11.65 11.943 22.916 24.403 33.807 31.798M202.224 59.4c11.875 11.886 25.01 25.624 35.355 31.4M206.224 71.505c13.411 12.067 27.733 25.355 38.073 31.29M209.472 81.042c12.047 11.421 27.014 23.61 39.852 31.875M216.72 95.74c11.374 9.447 22.938 18.704 36.659 25.81M222.355 108.122c11.001 9.572 23.053 16.525 35.642 22.139M230.078 120.955c11.11 7.096 22.221 14.392 33.332 19.184M236.684 131.65c10.664 6.975 21.814 12.98 34.019 16.88M244.386 143.646c12.61 6.106 27.904 14.906 40.514 14.355"/></g><path stroke="#55A" stroke-width="2" fill="#F55" stroke-linecap="round" stroke-linejoin="round" d="M271 91.174l-8 2.994-57-92.807h15l50 89.813M135.402 2.243s.32 15.588-.707 23.286c-1.071 8.03-2.756 16.072-5.657 23.639-2.299 5.996-5.706 11.54-9.192 16.935-4.65 7.195-10.825 13.32-15.556 20.463-4.192 6.328-8.107 12.881-11.314 19.758-2.596 5.566-5 11.302-6.364 17.288a58.673 58.673 0 0 0-1.414 14.819c.165 5.237 2.475 15.524 2.475 15.524s8.597-12.392 12.728-18.7c5.938-9.069 12.31-17.91 17.324-27.52 4.902-9.396 8.805-19.307 12.374-29.284 3.222-9.007 6.514-18.093 8.132-27.52 1.136-6.616.8-13.402 1.06-20.11.37-9.522.708-28.578.708-28.578h-4.597zM1.75 230.634L71.5 174.5l4.75 5.738L1.5 240.114z"/><path stroke="#55A" stroke-width="2" stroke-linecap="round" stroke-linejoin="round" d="M72 173.752l27.75 37.173 5-2.903-28.866-39.466z"/><path d="M75.75 168.264l15-17.713s4.967 5.166 6.75 8.232c1.933 3.326 3.457 6.986 4.134 10.77.627 3.507.643 7.21-.134 10.686-.658 2.942-2.103 5.706-3.75 8.233-1.094 1.679-4 4.49-4 4.49l-18-24.698z" stroke="#55A" stroke-width="2" fill="#55A" stroke-linecap="round" stroke-linejoin="round"/><path d="M97 146.559s6.092 6.243 8.25 9.98c1.91 3.304 3.323 6.972 4 10.727.694 3.846.732 7.886 0 11.725-.636 3.338-1.995 6.57-3.75 9.48-2.162 3.586-8.177 9.541-8.177 9.541l-3.853-5.093c3.078-3.064 5.067-4.735 6.78-7.69 1.719-2.965 3.04-6.316 3.31-9.73.26-3.29-.531-6.664-1.676-9.76-1.44-3.894-3.788-7.455-6.384-10.698-1.435-1.792-5-4.74-5-4.74l2.75-3.742H97z" stroke="#55A" stroke-width="2" fill="#000" stroke-linecap="round" stroke-linejoin="round"/><path d="M101.75 201.445s3.895-3.106 5.5-4.99a32.904 32.904 0 0 0 4.53-6.955c1.577-3.249 2.884-6.698 3.47-10.26.5-3.035.397-6.179 0-9.23a52.699 52.699 0 0 0-3.5-13.222c-1.462-3.55-5.75-9.98-5.75-9.98l7.866.323s4.663 7.658 5.945 11.902c1.21 4.007 1.444 8.277 1.543 12.461.074 3.154-.117 6.34-.72 9.438-.568 2.917-1.652 5.716-2.707 8.495-.781 2.055-1.59 4.118-2.677 6.03-.855 1.505-3 4.241-3 4.241s3.34 5.396 4.75 8.233c1.527 3.072 2.969 6.21 4 9.48 1.432 4.543 2.713 9.217 3 13.971.388 6.418-.51 12.9-1.75 19.21-1.207 6.144-2.815 12.304-5.5 17.963-2.186 4.607-5.216 8.82-8.5 12.723-3.259 3.875-6.925 7.47-11 10.478-4.38 3.233-9.196 5.955-14.25 7.984-6.788 2.724-13.984 4.627-21.25 5.488-4.966.59-10.04.39-15-.25-4.51-.581-8.944-1.784-13.25-3.242-3.534-1.197-7.06-2.558-10.25-4.491-3.292-1.996-6.164-4.633-9-7.235-1.866-1.712-5.25-5.489-5.25-5.489l-8 6.487v-8.482l94-75.593 4.25 4.74 6.25-5.239-3.75-4.99z" stroke="#55A" stroke-width="2" fill="#FFF954" stroke-linecap="round" stroke-linejoin="round"/><path stroke="#55A" stroke-width="2" fill="#55A" stroke-linecap="round" stroke-linejoin="round" d="M1.5 276.289L92 201.694l-12.25-16.715-78.25 62.37zM32.5 265.312l12.75-9.73 30.25-24.948 13.543-11.312s2.874 6.905 3.457 10.563c.747 4.682.63 9.523 0 14.22-.63 4.7-1.407 9.598-3.75 13.722-2.907 5.116-7.276 9.569-12.25 12.724-4.382 2.778-9.6 4.332-14.75 4.99-4.558.58-9.326.243-13.75-.999-2.978-.835-5.596-2.654-8.25-4.24-2.518-1.506-7.25-4.99-7.25-4.99z"/><path d="M46 256.33l29.75-24.698s1.69 4.923 1.75 7.484c.076 3.212-.303 6.61-1.75 9.48-1.483 2.944-4.029 5.369-6.75 7.235-2.48 1.701-5.412 2.841-8.375 3.368-2.709.482-5.56.324-8.25-.25-2.247-.478-6.375-2.619-6.375-2.619z" fill="#FF5554"/><path d="M13.5 281.777l14.75-12.723s7.836 6.707 12.5 8.732c4.766 2.069 10.053 3.179 15.25 3.243 5.426.066 10.912-1.111 16-2.994 5.146-1.904 10.079-4.673 14.25-8.233a37.476 37.476 0 0 0 8.5-10.478c2.305-4.227 3.74-8.969 4.5-13.721.577-3.614.186-7.323 0-10.978-.209-4.09-.27-8.247-1.25-12.224-.643-2.61-3-7.484-3-7.484l13.5-10.728s4.457 6.59 6 10.229c1.82 4.292 3.12 8.854 3.75 13.471.529 3.873.343 7.833 0 11.726-.46 5.216-1.29 10.438-2.75 15.468-1.653 5.696-3.615 11.428-6.75 16.466-2.99 4.805-7.038 8.938-11.25 12.723-3.952 3.552-8.272 6.8-13 9.23-4.076 2.097-8.511 3.557-13 4.491-5.237 1.09-10.65 1.249-16 1.248-4.263 0-8.54-.324-12.75-.998-3.812-.61-7.666-1.313-11.25-2.744-3.57-1.426-6.947-3.405-10-5.738-2.994-2.289-8-7.984-8-7.984z" stroke="#000" stroke-width="2" fill="#000" stroke-linecap="round" stroke-linejoin="round"/><g stroke="#000" stroke-linecap="round" stroke-linejoin="round" stroke-width="2.008"><path d="M23.128 274.542s4.987-.831 7.46-.499c2.506.337 5.079 1.021 7.243 2.495 1.33.907 3.291 3.742 3.291 3.742s-4.274 2.332-6.583 2.495c-2.606.185-5.356-.394-7.68-1.746a8.046 8.046 0 0 1-3.073-3.243c-.489-.96-.658-3.244-.658-3.244z" fill="#FF5"/><path d="M23.567 275.29s2.976 2.078 4.608 2.745c1.337.546 4.17.998 4.17.998"/></g><path d="M56.5 184.73s-3.848-4.958-6-7.236c-2.266-2.396-4.623-4.74-7.25-6.736-2.024-1.537-4.072-3.232-6.5-3.991-1.434-.448-3.125-.854-4.5-.25-1.084.477-2.05 1.58-2.25 2.745-.375 2.177 1.086 4.357 2.25 6.237 1.27 2.051 3.22 3.609 5 5.239 1.18 1.08 3.12 1.525 3.75 2.993.757 1.765-.25 3.835-.5 5.739-.187 1.423-.75 4.24-.75 4.24" stroke="#55A" stroke-width="2" stroke-linecap="round" stroke-linejoin="round"/><path d="M33.5 171.142s.426 1.584 1 2.111c.524.482 1.292.822 2 .749 1.08-.113 2.75-1.747 2.75-1.747M29.5 168.513s-3.465-1.727-5-.998c-1.615.768-2.494 2.955-2.5 4.74-.01 2.716 2.32 4.925 3.75 7.235 1.19 1.925 2.218 4.09 4 5.489 1.204.945 2.755 2.082 4.25 1.746 1.209-.271 2.257-1.532 2.5-2.744.243-1.212-.496-2.512-1.25-3.493-.802-1.043-1.938-2.366-3.25-2.245-1.032.095-1.569 1.374-2.19 2.202-.616.823-1.487 2.702-1.487 2.702" stroke="#55A" stroke-width="2" stroke-linecap="round" stroke-linejoin="round"/><path d="M21.25 173.503s-2.448.815-3.25 1.746c-.807.938-1.302 2.258-1.25 3.493.084 2.008 1.353 3.837 2.5 5.488 1.343 1.934 3.255 3.409 5 4.99 1.359 1.231 2.503 2.932 4.25 3.493 1.193.383 2.894.663 3.75-.25.797-.85.25-2.355 0-3.492-.256-1.163-.428-2.722-1.5-3.244-1.308-.636-3.14.059-4.25.998-.826.7-1.25 2.994-1.25 2.994" stroke="#55A" stroke-width="2" stroke-linecap="round" stroke-linejoin="round"/><path d="M17.25 182.983s-3.043 2.104-3.25 3.742c-.14 1.107.791 2.131 1.5 2.994 1.807 2.2 4.322 3.748 6.75 5.24 1.492.915 2.998 2.223 4.75 2.244.82.01 1.842-.287 2.25-.998.376-.653.077-1.566-.25-2.245-.613-1.272-1.587-3.04-3-2.994-.885.03-1.401 1.184-1.75 1.996-.362.845-.25 2.745-.25 2.745" stroke="#55A" stroke-width="2" stroke-linecap="round" stroke-linejoin="round"/><path d="M15.75 191.715s-1.098 1.946-1 2.994c.159 1.705 1.297 3.27 2.5 4.49 1.56 1.583 3.646 2.704 5.78 3.33 1.111.324 2.587.91 3.47.163 1.088-.92 1.159-2.978.5-4.241-.568-1.09-2.034-1.934-3.25-1.747-.918.142-1.506 1.177-1.94 1.996-.436.826-.56 2.745-.56 2.745" stroke="#55A" stroke-width="2" stroke-linecap="round" stroke-linejoin="round"/><path d="M18.768 200.739L14 210.426s.336 3.03 1.5 3.639c.982.514 2.322-.101 3.25-.706 1.187-.773 2.5-3.432 2.5-3.432l2.06-6.827" stroke="#55A" stroke-width="2" fill="#FF5" stroke-linecap="round" stroke-linejoin="round"/><path d="M14.366 210.955s2.081-1.843 3.384-2.026c1.281-.18 3.75.998 3.75.998" stroke="#55A" stroke-width="2" stroke-linecap="round" stroke-linejoin="round"/><path d="M30.75 166.018s-5.512-1.226-8-2.494c-1.896-.967-3.746-2.19-5.116-3.816-1.486-1.763-2.56-3.932-3.134-6.164-.642-2.498-.25-7.734-.25-7.734s3.56 2.67 5.5 3.743c2.093 1.157 4.519 1.654 6.573 2.878 1.532.912 2.945 2.04 4.22 3.286 1.02.997 2.03 2.06 2.707 3.316.661 1.228 1.04 2.614 1.25 3.992.176 1.15 0 3.492 0 3.492l-3.75-.499z" stroke="#55A" stroke-width="2" fill="#FF5" stroke-linecap="round" stroke-linejoin="round"/><path d="M19.5 154.542s2.02 2.612 3.263 3.682c1.878 1.617 4.191 2.652 6.237 4.052 1.526 1.045 4.5 3.243 4.5 3.243" stroke="#55A" stroke-width="2" stroke-linecap="round" stroke-linejoin="round"/><path stroke="#55A" stroke-width="2" fill="#FF5" stroke-linecap="round" stroke-linejoin="round" d="M35.44 166.785l7.456-13.77L47 155.291l-7.53 13.283zM42.25 168.763s3.313-3.888 5.5-5.106c2.535-1.411 5.506-2.038 8.396-2.306 2.7-.25 5.396.786 8.104.676 2.532-.104 7.5-1.248 7.5-1.248s-1.936 5.406-4 7.235c-2.152 1.908-5.223 2.49-8 3.243-3.332.905-6.802 1.69-10.25 1.497-1.635-.091-3.35-.4-4.75-1.247-1.06-.641-2.5-2.744-2.5-2.744z"/><path d="M43.409 169.012s4.326-1.622 6.591-1.996c2.468-.407 5.052.264 7.5-.25 1.318-.275 3.75-1.496 3.75-1.496" stroke="#55A" stroke-width="2" stroke-linecap="round" stroke-linejoin="round"/><path stroke="#55A" stroke-width="2" fill="#55A" stroke-linecap="round" stroke-linejoin="round" d="M52.5 144.064L54 151.3l6 1.497-.5-7.235zM52.5 135.083l1.5-6.986 6.25-1.497-1 7.235zM42.25 135.083l-7.043-1.333-.957-6.9 7 1.247zM36 145.81l-1 6.986 7-2.245v-5.988z"/><path d="M43.841 143.152s-2.059 2.986-2.164 4.71c-.106 1.722.449 3.622 1.573 4.934.848.99 2.207 1.574 3.5 1.746 1.685.225 3.697.092 5-.998 1.577-1.319 2.248-3.684 2.25-5.738.002-1.606-1.75-4.49-1.75-4.49s3.173 2.213 5 2.245c1.98.034 4.323-.656 5.5-2.245 1.094-1.478 1.193-3.787.5-5.489-.578-1.42-2.048-2.492-3.5-2.994-1.891-.654-4.137-.482-6 .25-.715.28-1.75 1.497-1.75 1.497s1.395-3.087 1.5-4.74c.117-1.856.07-3.966-1-5.489-.664-.946-1.874-1.48-3-1.746-1.3-.308-2.824-.384-4 .25-1.467.789-2.622 2.371-3 3.99-.308 1.32.396 2.686.75 3.992.323 1.194 1.25 3.493 1.25 3.493s-3.72-1.982-5.75-1.996c-1.845-.012-3.916.475-5.25 1.747-.84.8-1.194 2.086-1.25 3.243-.075 1.552.217 3.328 1.25 4.49 1.017 1.144 2.718 1.737 4.25 1.747 2.184.014 6.091-2.41 6.091-2.41z" stroke="#55A" stroke-width="2" fill="#FF5" stroke-linecap="round" stroke-linejoin="round"/><path d="M41 139.573c3.43-.472 5.72-3.218 7.75-6.486 1.435 2.252 1.709 4.116 5.75 7.235-3.551 1.29-5.55 3.819-6.75 6.985-1.536-2.934-2.518-6.145-6.75-7.734z" stroke="#55A" stroke-width="2" fill="#F55" stroke-linecap="round" stroke-linejoin="round"/><path d="M146.5 146.06s-4.923 15.86-6.75 23.95c-1.524 6.749-2.544 13.606-3.5 20.457-.856 6.131-1.647 12.282-2 18.462-.38 6.642-.125 19.958-.125 19.958h12.125s1.432-13.67 2.5-20.457c1.436-9.12 2.825-18.285 5.25-27.193 1.506-5.534 3.724-10.85 5.75-16.217 1.266-3.352 2.659-6.655 4-9.979 1.243-3.08 3.75-9.23 3.75-9.23l-21 .249zM182.75 146.06s-11.477 17.36-16 26.694c-2.87 5.924-5.088 12.165-7 18.462-1.935 6.37-3.395 12.894-4.5 19.46-.652 3.876-.885 7.811-1.25 11.725-.194 2.077-.5 6.237-.5 6.237l11.5.25s3.617-18.558 6.75-27.443c2.685-7.616 6.161-14.988 10.25-21.955 4.255-7.249 9.298-14.056 14.75-20.457 2.9-3.405 6.27-6.384 9.5-9.48 1.063-1.02 3.25-2.994 3.25-2.994l-26.75-.499z" fill="#000003"/><path d="M174 227.89s3.582-11.94 6.5-17.404c3.293-6.165 7.477-11.914 12.25-17.025 4.691-5.023 9.916-9.735 15.879-13.162 5.883-3.38 12.501-5.498 19.121-7.003 5.224-1.187 10.642-1.498 16-1.54 5.183-.04 15.5 1.248 15.5 1.248" stroke="#55A" stroke-width="2" stroke-linecap="round" stroke-linejoin="round"/><path d="M133.75 161.445c.5.499 1.25.997 2.5.997 2.25 0 3.75-1.33 3.75-2.993 0-1.663-1.5-3.16-3.75-3.16-1.25 0-1.5.332-2.25.831l-.25-.166c.75-.499 2.5-1.996 2.5-3.16 0-1.33-1.75-2.994-3.75-2.994s-3.75 1.663-3.75 2.994c0 1.164 1.75 2.661 2.5 3.16l-.25.166c-.75-.499-1-.831-2.25-.831-2.25 0-3.75 1.497-3.75 3.16s1.5 2.993 3.75 2.993c1.25 0 2-.498 2.5-.997l.25.166c-.25.998-.25.831-.5 1.663-.25.832-1 2.495-1 2.495 2.5-.333 2.5-.333 5 0 0 0-.75-1.663-1-2.495-.25-.832-.25-.665-.5-1.663l.25-.166zM126.25 198.118c.5.5 1.25.998 2.5.998 2.25 0 3.75-1.33 3.75-2.994 0-1.663-1.5-3.16-3.75-3.16-1.25 0-1.5.333-2.25.832l-.25-.166c.75-.5 2.5-1.996 2.5-3.16 0-1.331-1.75-2.994-3.75-2.994s-3.75 1.663-3.75 2.993c0 1.165 1.75 2.662 2.5 3.16l-.25.167c-.75-.5-1-.832-2.25-.832-2.25 0-3.75 1.497-3.75 3.16 0 1.664 1.5 2.994 3.75 2.994 1.25 0 2-.499 2.5-.998l.25.166c-.25.998-.25.832-.5 1.664-.25.831-1 2.494-1 2.494 2.5-.332 2.5-.332 5 0 0 0-.75-1.663-1-2.494-.25-.832-.25-.666-.5-1.664l.25-.166zM195 182.65c.5.5 1.25.998 2.5.998 2.25 0 3.75-1.33 3.75-2.993 0-1.664-1.5-3.16-3.75-3.16-1.25 0-1.5.332-2.25.831l-.25-.166c.75-.5 2.5-1.996 2.5-3.16 0-1.33-1.75-2.994-3.75-2.994S190 173.669 190 175c0 1.164 1.75 2.66 2.5 3.16l-.25.166c-.75-.499-1-.832-2.25-.832-2.25 0-3.75 1.497-3.75 3.16 0 1.664 1.5 2.994 3.75 2.994 1.25 0 2-.499 2.5-.998l.25.167c-.25.998-.25.831-.5 1.663-.25.832-1 2.495-1 2.495 2.5-.333 2.5-.333 5 0 0 0-.75-1.663-1-2.495-.25-.832-.25-.665-.5-1.663l.25-.167zM216.5 164.438c.5.5 1.25.998 2.5.998 2.25 0 3.75-1.33 3.75-2.994 0-1.663-1.5-3.16-3.75-3.16-1.25 0-1.5.333-2.25.832l-.25-.166c.75-.5 2.5-1.996 2.5-3.16 0-1.331-1.75-2.994-3.75-2.994s-3.75 1.663-3.75 2.994c0 1.164 1.75 2.66 2.5 3.16l-.25.166c-.75-.499-1-.832-2.25-.832-2.25 0-3.75 1.497-3.75 3.16 0 1.664 1.5 2.994 3.75 2.994 1.25 0 2-.499 2.5-.998l.25.167c-.25.998-.25.831-.5 1.663-.25.831-1 2.495-1 2.495 2.5-.333 2.5-.333 5 0 0 0-.75-1.664-1-2.495-.25-.832-.25-.665-.5-1.663l.25-.167zM245.5 162.193c.5.499 1.25.998 2.5.998 2.25 0 3.75-1.33 3.75-2.994 0-1.663-1.5-3.16-3.75-3.16-1.25 0-1.5.333-2.25.832l-.25-.167c.75-.499 2.5-1.995 2.5-3.16 0-1.33-1.75-2.993-3.75-2.993s-3.75 1.663-3.75 2.993c0 1.165 1.75 2.661 2.5 3.16l-.25.167c-.75-.5-1-.832-2.25-.832-2.25 0-3.75 1.497-3.75 3.16s1.5 2.994 3.75 2.994c1.25 0 2-.499 2.5-.998l.25.166c-.25.998-.25.832-.5 1.664-.25.831-1 2.494-1 2.494 2.5-.332 2.5-.332 5 0 0 0-.75-1.663-1-2.494-.25-.832-.25-.666-.5-1.664l.25-.166z" fill="#FFF"/><path d="M267.75 161.528l-12.25 16.465s9.346 1.38 13.75 2.994c4.165 1.526 8.094 3.73 11.75 6.237 4.186 2.872 11.5 9.98 11.5 9.98l8.5-6.238v-31.933s-6.082 2.443-9.25 3.243c-3.6.909-7.288 1.66-11 1.747-2.263.053-4.528-.318-6.75-.749-2.124-.412-6.25-1.746-6.25-1.746z" fill="#55A"/><path d="M187.813 146.808c-2.359.768-.738 3.1.616 3.98l2.758 2.632-11.375 5.769c-1.756 1.265.053 3.156.534 4.63.306.96 1.64 2.27-.038 2.557-2.541 1.422-5.246 2.6-7.679 4.181-.901 1.591.72 3.083 1.208 4.577.16.948 1.747 2.263.808 2.929-2.192 1.637-5.31 2.573-7.385 4.345-.659 1.687 1.764 3.59 2.344 5.098 1.222 1.162-.035 1.682-1.06 2.262-1.65 1.124-3.474 2.03-5.006 3.304-.762 1.647.934 3.022 1.517 4.48.377.918 1.859 2.193.1 2.418-1.487.766-3.138 1.262-4.51 2.218-.977 1.642.79 3.126 1.353 4.627.14.834 2.028 2.373.553 2.557-1.568.56-3.22.916-4.725 1.63-1.532 1.552.628 2.823 1.448 4.03.394.803 2.41 1.836.805 2.356-1.18 1.034-3.44 1.497-3.254 3.408.68 1.278 1.78 2.286 2.644 3.445-1.127 1.295-2.941 2.169-3.449 3.855 1.482.86 3.203.824 4.252-.494.951-1.156 2.892-1.924 2.64-3.653-.662-1.175-1.664-2.125-2.475-3.2 1.234-.991 2.95-1.536 3.754-2.932-.046-1.855-2.408-3.282-3.032-5.019.632-.498 3.235-.724 4.218-1.05 2.47-.358 1.308-2.904.39-4.224l-1.954-3.616c1.83-.932 3.827-1.588 5.542-2.708.994-1.65-.822-3.109-1.412-4.594-.253-.897-1.968-2.162-.418-2.606 1.96-1.322 4.098-2.42 5.937-3.892.756-1.643-.921-3.03-1.493-4.493-1.078-1.126-.545-1.884.715-2.477 1.83-1.373 3.827-2.556 5.547-4.056.66-1.648-.892-3.108-1.396-4.632-.109-.87-1.858-2.285-.466-2.66 2.65-1.465 5.453-2.697 8.002-4.313.926-1.57-.667-3.082-1.127-4.579-.69-1.083-1.06-2.056.533-2.347 3.642-1.887 7.351-3.661 10.95-5.618 1.452-1.708-.798-2.896-1.803-4.003-1.506-1.324-2.806-2.92-4.457-4.053-.862-.175-1.122.398-1.715.99l1.06-1.059zM157.875 147.307c-2.55 1.163-4.87 2.852-7.329 4.226-2 .658-1.557 2.788-.36 4.004l2.689 4.026c-2.257 1.475-4.708 2.701-6.837 4.343-.81 1.639.985 2.867 1.671 4.211l2.228 3.265c-2.043 1.548-4.284 2.874-6.198 4.568-.681 1.681 1.117 2.9 1.818 4.279.444.849 1.496 1.786 1.562 2.58-1.945 1.658-4.069 3.137-5.897 4.914-.586 1.62 1.031 2.88 1.643 4.272.22.845 1.825 1.981.971 2.6-1.594 1.213-3.395 2.196-4.848 3.568-.665 1.703 1.174 2.892 1.908 4.26.79.877 1.4 1.727-.029 2.274-1.087.972-3.387 1.877-2.275 3.687l2.377 3.632c-1.107 1.025-3.421 1.652-2.813 3.555l2.219 4.397c-1.022 1.01-2.94 1.562-2.834 3.256.79 1.609 1.995 2.994 2.959 4.51 2.613 2.143 3.35-1.868 1.444-3.207-.966-.912-.987-1.676.293-2.235 1.56-.713 1.774-2.464.753-3.746l-1.584-3.162c1.092-1.002 3.109-1.504 3.046-3.251-.713-1.548-1.822-2.895-2.702-4.358 1.16-.96 2.499-1.73 3.526-2.831.621-1.693-1.19-2.87-1.918-4.232-.803-.873-1.356-1.704.088-2.196 1.335-1.018 2.844-1.837 4.054-2.997.67-1.636-1.004-2.922-1.625-4.328-.266-.841-1.631-1.873-1.176-2.59 1.927-1.647 4.034-3.114 5.839-4.884.598-1.665-1.151-2.853-1.846-4.216-.403-.81-1.483-1.739-1.492-2.479 1.998-1.515 4.192-2.808 6.06-4.47.681-1.68-1.115-2.901-1.814-4.28l-2.071-3.033c2.257-1.475 4.708-2.701 6.837-4.343.802-1.633-.97-2.877-1.643-4.23l-1.85-2.779c2.282-1.55 4.813-2.785 6.905-4.58 1.424-1.694.455-1.192.126-1.625-.385-.507-1.875-.375-1.875-.375z" fill="#FF5"/><path d="M60.146 205.258l14.303-3.27-7.859 14.054s.662-3.398-.413-4.414c-.932-.88-3.847-.15-3.847-.15s2.315-3.07 1.675-4.556c-.553-1.285-3.859-1.664-3.859-1.664zM34.913 226.406l14.303-3.27-7.86 14.055s.662-3.398-.413-4.415c-.931-.88-3.846-.15-3.846-.15s2.314-3.07 1.674-4.556c-.553-1.285-3.858-1.664-3.858-1.664zM8.396 246.87L22.7 243.6l-7.859 14.054s.662-3.398-.413-4.414c-.932-.88-3.847-.15-3.847-.15s2.314-3.07 1.675-4.557c-.553-1.284-3.859-1.663-3.859-1.663zM74.808 195.483c.588.481.522 1.805-.076 2.274-.507.399-1.548.151-1.898-.39-.279-.433-.022-1.14.342-1.506.394-.395 1.2-.732 1.632-.378h0zM82.217 194.795c.588.482.522 1.805-.076 2.274-.507.399-1.548.152-1.898-.39-.28-.432-.022-1.14.342-1.505.394-.395 1.2-.733 1.632-.379h0zM80.217 202.404c.588.482.522 1.805-.076 2.275-.507.398-1.548.15-1.898-.39-.28-.433-.022-1.141.342-1.506.394-.395 1.2-.732 1.632-.379h0zM49.388 216.003c.587.481.521 1.805-.076 2.274-.508.399-1.548.151-1.898-.39-.28-.433-.023-1.141.341-1.506.394-.395 1.201-.732 1.633-.378h0zM56.796 215.315c.588.481.522 1.805-.076 2.274-.507.399-1.547.151-1.897-.39-.28-.433-.023-1.14.341-1.506.394-.395 1.2-.732 1.632-.378h0zM54.796 222.924c.588.482.522 1.805-.076 2.274-.507.399-1.547.151-1.897-.39-.28-.433-.023-1.14.341-1.505.394-.396 1.2-.733 1.632-.379h0zM24.138 235.961c.587.482.521 1.805-.076 2.274-.508.399-1.548.152-1.898-.39-.28-.433-.023-1.14.341-1.505.394-.395 1.201-.733 1.633-.379h0zM31.546 235.273c.588.482.522 1.805-.076 2.275-.507.398-1.547.15-1.897-.39-.28-.433-.023-1.141.341-1.506.394-.395 1.2-.732 1.632-.379h0zM29.546 242.882c.588.482.522 1.805-.076 2.275-.507.398-1.547.15-1.897-.39-.28-.433-.023-1.141.341-1.506.394-.395 1.2-.732 1.632-.379h0zM6.967 256.916c.588.481.522 1.805-.076 2.274-.507.399-1.548.151-1.898-.39-.28-.433-.022-1.14.342-1.506.394-.395 1.2-.732 1.632-.378h0z" stroke="#FFF" stroke-width="2" fill="#FFF" stroke-linecap="round" stroke-linejoin="round"/><g stroke="#000" stroke-linecap="round" stroke-linejoin="round" stroke-width="2"><path d="M19.012 277.353s5.072 2.691 7.147 4.627c2.101 1.96 4.06 4.247 5.175 6.893.686 1.629.808 5.236.808 5.236s-5.305-1.002-7.522-2.427c-2.502-1.608-4.686-3.928-6.02-6.585-.715-1.422-1.074-3.105-.903-4.686.12-1.103 1.315-3.058 1.315-3.058z" fill="#FF5"/><path d="M18.972 278.252s1.504 3.682 2.608 5.32c.905 1.34 3.24 3.614 3.24 3.614"/></g><g stroke="#000" stroke-linecap="round" stroke-linejoin="round" stroke-width="2"><path d="M32.559 285.045s5.612 1.21 8.136 2.51c2.555 1.315 5.06 2.982 6.853 5.226 1.103 1.38 2.202 4.819 2.202 4.819s-5.378.478-7.899-.29c-2.845-.868-5.577-2.507-7.584-4.701-1.074-1.174-1.877-2.696-2.142-4.264-.185-1.094.434-3.3.434-3.3z" fill="#FF5"/><path d="M32.765 285.92s2.448 3.135 3.956 4.41c1.235 1.045 4.1 2.599 4.1 2.599"/></g><g stroke="#000" stroke-linecap="round" stroke-linejoin="round" stroke-width="2"><path d="M50.311 292.754s5.348-2.092 8.169-2.403c2.856-.316 5.866-.31 8.6.57 1.682.541 4.497 2.8 4.497 2.8s-4.218 3.37-6.744 4.122c-2.85.849-6.034.991-8.918.272-1.544-.386-3.055-1.21-4.142-2.37-.759-.81-1.462-2.991-1.462-2.991z" fill="#FF5"/><path d="M50.967 293.37s3.772 1.26 5.734 1.49c1.606.188 4.853-.1 4.853-.1"/></g><g stroke="#000" stroke-linecap="round" stroke-linejoin="round" stroke-width="2"><path d="M70.886 292.242s4.445-3.635 7.034-4.799c2.62-1.178 5.487-2.098 8.359-2.101 1.766-.002 5.14 1.281 5.14 1.281s-2.978 4.504-5.15 5.996c-2.451 1.685-5.437 2.8-8.403 3.001-1.588.108-3.278-.213-4.67-.982-.97-.538-2.31-2.396-2.31-2.396z" fill="#FF5"/><path d="M71.7 292.626s3.976.039 5.913-.345c1.587-.314 4.588-1.586 4.588-1.586"/></g><g stroke="#000" stroke-linecap="round" stroke-linejoin="round" stroke-width="2"><path d="M87.8 282.911s3.34-4.671 5.533-6.472c2.221-1.823 4.746-3.462 7.517-4.217 1.705-.464 5.297-.109 5.297-.109s-1.696 5.126-3.4 7.135c-1.926 2.268-4.515 4.125-7.325 5.097-1.504.52-3.22.652-4.764.274-1.078-.264-2.857-1.708-2.857-1.708z" fill="#FF5"/><path d="M88.687 283.07s3.848-1.004 5.617-1.882c1.45-.719 4.012-2.732 4.012-2.732"/></g><g stroke="#000" stroke-linecap="round" stroke-linejoin="round" stroke-width="2"><path d="M100.528 270.543s1.648-5.5 3.141-7.914c1.512-2.444 3.37-4.811 5.748-6.422 1.463-.991 4.977-1.817 4.977-1.817s.054 5.4-.91 7.852c-1.087 2.768-2.936 5.363-5.28 7.191-1.256.98-2.836 1.66-4.42 1.801-1.105.1-3.256-.69-3.256-.69z" fill="#FF5"/><path d="M101.418 270.406s3.316-2.194 4.706-3.597c1.139-1.15 2.912-3.883 2.912-3.883"/></g><g stroke="#000" stroke-linecap="round" stroke-linejoin="round" stroke-width="2.002"><path d="M106.63 254.052s.26-6.122 1.125-9.026c.876-2.94 2.11-5.9 4.033-8.229 1.183-1.432 4.406-3.274 4.406-3.274s1.373 5.537 1.033 8.331c-.383 3.155-1.551 6.346-3.389 8.889-.984 1.36-2.358 2.507-3.866 3.1-1.054.414-3.343.21-3.343.21z" fill="#FF5"/><path d="M107.463 253.66s2.695-3.194 3.707-5.03c.829-1.503 1.889-4.816 1.889-4.816"/></g><g stroke="#000" stroke-linecap="round" stroke-linejoin="round" stroke-width="2.002"><path d="M110.525 236.6s-1.862-5.838-2.05-8.862c-.19-3.062-.052-6.266.953-9.114.617-1.752 3.01-4.591 3.01-4.591s3.194 4.726 3.838 7.466c.726 3.094.728 6.492-.122 9.512-.455 1.617-1.35 3.166-2.563 4.242-.846.752-3.066 1.347-3.066 1.347z" fill="#FF5"/><path d="M111.173 235.945s1.43-3.927 1.749-5.998c.26-1.697.115-5.172.115-5.172"/></g><g stroke="#000" stroke-linecap="round" stroke-linejoin="round" stroke-width="2.024"><path d="M109.278 237.79s-.197-6.087-.935-9.01c-.748-2.958-1.805-5.954-3.467-8.354-1.021-1.477-3.815-3.456-3.815-3.456s-1.22 5.43-.939 8.218c.318 3.148 1.318 6.37 2.904 8.98.849 1.396 2.038 2.599 3.347 3.258.914.46 2.905.364 2.905.364z" fill="#FF5"/><path d="M108.555 237.362s-2.328-3.296-3.199-5.165c-.713-1.531-1.619-4.868-1.619-4.868"/></g><g stroke="#000" stroke-linecap="round" stroke-linejoin="round" stroke-width="2.024"><path d="M107.358 255.876s.796-6.038.543-9.042c-.255-3.04-.812-6.168-2.06-8.807-.768-1.623-3.202-4.03-3.202-4.03s-2.088 5.158-2.264 7.956c-.198 3.158.264 6.499 1.404 9.332.61 1.516 1.588 2.896 2.772 3.759.827.603 2.807.832 2.807.832z" fill="#FF5"/><path d="M106.715 255.336s-1.761-3.63-2.316-5.617c-.455-1.626-.806-5.066-.806-5.066"/></g><g stroke="#000" stroke-linecap="round" stroke-linejoin="round" stroke-width="2.024"><path d="M99.379 271.514s2.416-5.59 2.995-8.549c.585-2.995.905-6.155.426-9.035-.295-1.771-1.978-4.752-1.978-4.752s-3.419 4.39-4.353 7.034c-1.054 2.983-1.523 6.323-1.201 9.36.172 1.625.735 3.22 1.638 4.374.63.806 2.473 1.568 2.473 1.568z" fill="#FF5"/><path d="M98.907 270.819s-.7-3.974-.691-6.036c.007-1.69.61-5.094.61-5.094"/></g><g stroke="#000" stroke-linecap="round" stroke-linejoin="round" stroke-width="2.017"><path d="M109.228 225.877s1.196-5.17 1.215-7.796c.019-2.658-.223-5.417-1.119-7.81-.551-1.472-2.52-3.763-2.52-3.763s-2.274 4.3-2.657 6.71c-.432 2.723-.291 5.659.493 8.21.42 1.367 1.177 2.645 2.16 3.493.686.592 2.428.956 2.428.956z" fill="#FF5"/><path d="M108.7 225.355s-1.272-3.296-1.605-5.065c-.272-1.448-.305-4.46-.305-4.46"/></g><g stroke="#000" stroke-linecap="round" stroke-linejoin="round" stroke-width="2.024"><path d="M85.412 284.733s4.22-4.392 5.796-6.96c1.597-2.601 3.002-5.45 3.56-8.316.344-1.762-.19-5.144-.19-5.144s-4.739 2.918-6.538 5.067c-2.032 2.426-3.64 5.391-4.4 8.348-.407 1.583-.438 3.274.004 4.671.31.976 1.768 2.334 1.768 2.334z" fill="#FF5"/><path d="M85.214 283.917s.734-3.968 1.464-5.897c.597-1.58 2.353-4.558 2.353-4.558"/></g><g stroke="#000" stroke-linecap="round" stroke-linejoin="round" stroke-width="2.024"><path d="M70.362 290.951s4.976-3.51 7.012-5.734c2.061-2.25 3.982-4.78 5.074-7.488.672-1.665.79-5.087.79-5.087s-5.207 1.966-7.382 3.734c-2.455 1.996-4.596 4.602-5.904 7.361-.7 1.477-1.052 3.131-.883 4.587.118 1.017 1.293 2.627 1.293 2.627z" fill="#FF5"/><path d="M70.322 290.112s1.474-3.756 2.556-5.511c.887-1.438 3.177-4.029 3.177-4.029"/></g><g stroke="#000" stroke-linecap="round" stroke-linejoin="round" stroke-width="2.024"><path d="M51.265 292.21s5.9-1.51 8.594-2.864c2.726-1.37 5.421-3.052 7.405-5.194 1.221-1.317 2.548-4.473 2.548-4.473s-5.565-.015-8.227.864c-3.004.992-5.933 2.666-8.137 4.78-1.18 1.13-2.096 2.552-2.456 3.972-.251.992.273 2.915.273 2.915z" fill="#FF5"/><path d="M51.527 291.412s2.713-2.987 4.35-4.242c1.34-1.028 4.401-2.635 4.401-2.635"/></g><g stroke="#000" stroke-linecap="round" stroke-linejoin="round" stroke-width="2.002"><path d="M34.422 284.011s4.832-2.642 7.47-3.318c2.67-.685 5.522-1.101 8.21-.686 1.655.256 4.575 1.909 4.575 1.909s-3.619 3.642-5.927 4.677c-2.606 1.167-5.606 1.741-8.42 1.492-1.505-.133-3.028-.67-4.188-1.569-.81-.628-1.72-2.505-1.72-2.505z" fill="#FF5"/><path d="M35.112 284.478s3.715.614 5.6.548c1.542-.053 4.585-.767 4.585-.767"/></g><g><path d="M136.015 335.532l-17.677-.352s10.836-15.954 15.202-24.521c3.115-6.113 5.696-12.517 7.779-19.053 1.888-5.926 3.115-12.053 4.242-18.17.635-3.443.961-6.936 1.414-10.408.43-3.29 1.238-9.879 1.238-9.879h8.308s-1.338 10.713-2.12 16.054c-.753 5.127-1.523 10.253-2.476 15.347-.884 4.728-1.755 9.468-3.005 14.113-1.527 5.675-3.549 11.208-5.48 16.759-2.348 6.748-7.425 20.11-7.425 20.11z" fill="#FF5"/><path d="M136.9 253.326l-8.663.176s-1.53 6.078-2.652 8.997c-1.661 4.322-3.63 8.552-6.01 12.525-2.921 4.876-6.226 9.576-10.076 13.76-2.853 3.1-6.22 5.7-9.546 8.291-3.002 2.339-5.931 4.892-9.37 6.527-3.652 1.738-7.724 2.442-11.667 3.352-5.304 1.224-10.667 2.295-16.086 2.823-2.875.28-5.776.275-8.662.176-3.962-.136-11.844-1.058-11.844-1.058l-8.84 11.643s7.287 3.344 10.784 5.292c2.127 1.185 4.259 2.396 6.187 3.88 2.047 1.576 5.657 5.293 5.657 5.293l38.007.353s5.205-5.51 7.778-8.291c4.216-4.558 8.88-8.755 12.552-13.76 3.54-4.826 6.32-10.182 9.015-15.524 2.943-5.835 5.583-11.84 7.778-17.994 1.664-4.665 3.065-9.44 4.066-14.29.828-4.007 1.591-12.171 1.591-12.171z" fill="#FF5655"/><path fill="#F55" d="M187.988 335.532l-33.058-.176 6.364-20.993 3.536-20.11 2.652-23.992-.177-16.759h10.43l2.651 11.114 6.895 14.465 2.12 3.176-4.949 8.467-3.535 10.761-.354 10.585 1.414 11.29 2.829 6.174z"/><path fill="#FF5" d="M208.25 336.413l-5 6.986-6.75 9.48-7.5 10.977-2.75 5.24-3.5 5.987-36.75.748-5.25-4.24-5.5-.999-7.25 1.248-3.5 1.496-44.75-.498-2.75-4.99-3.25-5.489-3.25-5.738-2.75-4.49-3.25-5.738-3.75-4.99-4.5-6.486z"/><g stroke="#000" stroke-linecap="round" stroke-linejoin="round" stroke-width="2"><path d="M186.5 368.347l-109.25-.749M189.75 363.108L73.5 361.86M203.5 342.4l-142.25-.747M207.75 336.164l-151.5-.998" fill="#55A"/><path fill="#000" d="M189.625 362.609l6.125-9.73h-11.375l-6.125 9.051zM182.738 351.756l5.012-8.232-13.487.499L170 352.18zM163.363 361.736l5.012-8.982h-11.987l-5.513 9.156zM154.863 351.756l5.262-8.731-12.237.748-5.513 8.656zM137.113 360.987l4.262-8.233h-12.237l-4.263 8.906zM128.613 352.006l5.512-9.23-13.487.498-5.763 8.657zM109.425 361.985l5.2-9.48-12.55-.25-5.2 9.156zM100.862 351.507l5.513-8.233-12.487-.25-4.513 8.657zM83.362 360.987l4.263-8.482-11.738-.749-4.006 5.826 1.744 2.581zM76.113 351.008l5.512-8.233H68.387l-2.63 3.83 1.868 4.328z"/></g><path fill="#55A" d="M110.736 379.635l-27.577-.353-4.066-6.704 47.023.177z"/><path d="M183.215 374.695h-37.83s6.074 6.641 8.131 10.585c2.169 4.157 3.096 8.862 4.243 13.407 1.157 4.585 1.9 9.268 2.651 13.936.717 4.45 1.31 8.923 1.768 13.407.33 3.226.707 9.703.707 9.703s2.034-10.398 3.36-15.524c1.43-5.53 3.042-11.021 4.949-16.406 1.717-4.85 3.87-9.534 5.834-14.29a3798.731 3798.731 0 0 1 6.187-14.818z" fill="#000"/><path d="M24 480.364a109.838 109.838 0 0 0 0-29.938c-1.413-10.255-4.276-20.277-8-29.938a173.836 173.836 0 0 0-15-29.937 57.445 57.445 0 0 0 15 1.995c5.06 0 10.118-.673 15-1.995l50 89.813H24" stroke="#55A" stroke-width="2" fill="#FF5" stroke-linecap="round" stroke-linejoin="round"/><path d="M69.57 480.364s3.889-5.302 1.035-9.859c-1.595-2.548-8.696-3.136-8.696-3.136s2.712-7.95.85-11.203c-1.845-3.224-10.016-4.919-10.016-4.919s3.62-7.166 1.306-11.212c-3.355-5.867-9.755-3.886-9.755-3.886s4.019-7.06-.793-12.693c-2.498-2.924-8.02-2.983-8.02-2.983 2.742-2.804 2.755-7.928.894-11.168-1.446-2.517-7.854-3.786-7.854-3.786s2.567-6.578.21-8.93c-2.357-2.353-6.008-3.355-6.008-3.355" stroke="#000100" stroke-width="2" stroke-linecap="round" stroke-linejoin="round"/><path d="M43.568 433.391c-.269-1.03-.598-2.068-1.157-2.97-.737-1.19-1.542-2.518-2.826-3.11-1.615-.746-3.872-1.213-5.405-.223-1.495.965-2.203 3.178-1.97 4.888.268 1.974 3.675 4.667 3.675 4.667s-4.888.979-5.961 2.889c-1.009 1.793-.52 4.413.698 6 1.202 1.564 3.607 2.804 5.563 2.221 2.196-.654 4.022-5.555 4.022-5.555s.366 3.82 1.398 5.333c.917 1.344 2.307 2.719 3.962 2.889 1.467.15 3.271-.554 4.12-1.778 1.335-1.925 1.223-4.843.233-6.888-.992-2.05-5.536-4.053-5.536-4.053s.929 2.835-1.504 4.1c-1.945 1.01-4.978-.862-5.738-2.837-.644-1.671.176-4.624 1.954-5.134 3.55-1.018 4.865 2.34 4.865 2.34s-.157-1.876-.393-2.779zM59.658 463.827c-.299-1.035-.664-2.078-1.283-2.985-.817-1.196-1.71-2.53-3.133-3.126-1.79-.75-4.292-1.219-5.992-.224-1.657.97-2.442 3.195-2.184 4.914.298 1.983 4.075 4.69 4.075 4.69s-5.419.983-6.609 2.903c-1.118 1.802-.576 4.435.774 6.03 1.333 1.572 3.999 2.819 6.167 2.233 2.434-.658 4.459-5.583 4.459-5.583s-.035 4.172 1.11 5.693H66c1.48-1.935 1.628-4.258.698-6.14-1.028-2.083-6.137-4.073-6.137-4.073s1.03 2.85-1.667 4.12c-2.156 1.016-5.517-.865-6.36-2.85-.714-1.68.195-4.648 2.166-5.16 3.934-1.024 5.393 2.35 5.393 2.35s-.174-1.885-.435-2.792zM27.191 403.262c-.23-.94-.51-1.887-.986-2.71-.628-1.086-1.314-2.298-2.408-2.838-1.376-.68-3.298-1.107-4.605-.203-1.274.88-1.877 2.9-1.679 4.46.229 1.8 3.132 4.257 3.132 4.257s-4.165.893-5.08 2.636c-.859 1.636-.442 4.026.596 5.474 1.024 1.427 3.073 2.559 4.74 2.027 1.87-.597 3.426-5.068 3.426-5.068s.312 3.485 1.191 4.865c.782 1.226 1.966 2.48 3.376 2.636 1.25.137 2.787-.506 3.51-1.622 1.137-1.757 1.042-4.419.199-6.285-.845-1.87-4.717-3.697-4.717-3.697s.792 2.586-1.282 3.74c-1.657.922-4.24-.786-4.889-2.588-.548-1.525.15-4.219 1.666-4.684 3.023-.929 4.145 2.134 4.145 2.134s-.134-1.711-.335-2.534z" stroke="#000100" stroke-width="2" fill="#000" stroke-linecap="round" stroke-linejoin="round"/><path d="M139.666 479.415s-3.777-13.692-12.651-20.549c-8.875-6.857-19.274-9.787-19.274-9.787" stroke="#55A" stroke-width="2" stroke-linecap="round" stroke-linejoin="round"/><path d="M134.498 479.831s-3.212-10.642-10.428-16.642c-7.215-6-15.04-8.618-15.04-8.618" stroke="#55A" stroke-width="2" stroke-linecap="round" stroke-linejoin="round"/><path d="M128.392 479.623s-2.41-8.666-7.792-13.238c-5.381-4.571-10.497-6.512-10.497-6.512M123.37 479.727s-.73-5.55-5.028-9.093-6.999-5.023-6.999-5.023M117.745 479.415s-.097-3.654-2.648-5.825c-2.551-2.172-3.363-2.095-3.363-2.095M139.72 479.312s1.312-8.506 6.616-17.359c5.303-8.853 15.276-14.017 15.276-14.017M145.608 479.366s-.884-4.935 3.94-12.432c4.824-7.497 11.998-11.761 11.998-11.761M149.98 479.366s.932-5.814 3.508-10.386c2.575-4.571 7.86-7.881 7.86-7.881M155.105 479.366s-.18-2.763 1.943-6.306 4.09-3.976 4.09-3.976M143.352 439.221s-.398-5.16 0-7.694c.5-3.18 1.985-6.123 2.963-9.19.785-2.462 2.203-4.823 2.33-7.394.072-1.464.002-3.128-.906-4.313-.786-1.024-2.525-.978-3.495-1.848-.82-.734-1.813-2.711-1.813-2.711" stroke="#55A" stroke-width="2" stroke-linecap="round" stroke-linejoin="round"/><path d="M131.04 416.381s-3.173-3.538-2.719-5.545c.292-1.288 1.813-2.191 3.107-2.465 1.44-.304 2.907.56 4.272 1.11 1.56.627 2.775 2.895 4.401 2.464.65-.172 1.313-1.115 1.036-1.725-.76-1.674-3.603-.821-5.437-.986-2.235-.201-5.023-1.452-6.732 0-.825.701-.743 2.146-.517 3.204.328 1.537 2.589 3.943 2.589 3.943zM107.71 442.53s7.256 3.834 11.137 4.557c2.642.492 5.444.649 8.021-.195 1.378-.45 3.722-2.518 3.722-2.518s-3.415 1.2-5.175 1.455c-2.65.382-5.364.527-8.008.09-3.338-.551-9.696-3.388-9.696-3.388zM161.098 444.496s-5.292 2.948-8.12 2.626c-3.521-.402-9.115-5.468-9.115-5.468s5.934 4.213 9.375 4.323c2.888.093 8.086-3.118 8.086-3.118l-.226 1.637zM127.185 397.52s4.811 1.633 7.318 1.78c1.882.11 3.73-.607 5.613-.684 2.15-.088 4.355.744 6.45.254 1.145-.267 3.1-1.686 3.1-1.686s-2.135.401-3.21.346c-2.185-.112-4.231-1.363-6.42-1.366-2.414-.003-4.653 1.269-7.088 1.492-1.913.174-5.763-.136-5.763-.136z" stroke="#55A" stroke-width="2" fill="#55A" stroke-linecap="round" stroke-linejoin="round"/><path d="M130.753 387.461s4.102 1.449 6.344 1.48c2.537.033 7.276-1.48 7.276-1.48M133.233 393.286s3.75-1.195 5.696-1.233c1.667-.033 4.92.863 4.92.863M144.598 435.004s4.784 4.063 9.174 4.162c4.699.105 7.506-2.497 7.506-2.497M107.311 433.114s8.137 7.249 12.808 7.087c6.121-.211 10.692-5.5 10.692-5.5" stroke="#55A" stroke-width="2" stroke-linecap="round" stroke-linejoin="round"/><path d="M102.688 431.322c5.564.75 9.654 3.265 14.776 3.72 4.392.39 13.257-1.026 13.257-1.026M161.876 431.25c-5.122 2.515-4.025 3.315-9.147 3.77-4.392.391-8.98-2.202-8.98-2.202" stroke="#55A" stroke-width="2" stroke-linecap="round" stroke-linejoin="round"/><path d="M105.765 431.8c5.008-1.187 10.239-5.027 15.904-5.321 4.198-.218 8.7 2.784 9.07 6.825" stroke="#55A" stroke-width="2" stroke-linecap="round" stroke-linejoin="round"/><path d="M116.307 433.99c-.891-5.01 3.82-6.49 7.205-6.057 2.296.294 4.425 3.226 3.32 6.09" stroke="#55A" stroke-width="2" stroke-linecap="round" stroke-linejoin="round"/><path d="M124.15 431.64c.093.907-.71 2.157-1.622 2.207-.799.043-1.64-.968-1.622-1.766.018-.832.936-1.744 1.77-1.766.66-.017 1.406.668 1.474 1.325z" stroke="#55A" stroke-width="2" fill="#55A" stroke-linecap="round" stroke-linejoin="round"/><path d="M161.483 429.498c-2.672-1.8-6.094-2.864-10.459-2.742-3.234.09-6.521 2.533-6.579 5.485" stroke="#55A" stroke-width="2" stroke-linecap="round" stroke-linejoin="round"/><path d="M156.208 433.8c1.112-4.275-1.762-7.011-5.81-6.939-1.78.032-3.922 4.542-2.914 6.553" stroke="#55A" stroke-width="2" stroke-linecap="round" stroke-linejoin="round"/><path d="M149.41 431.57c-.026.71.805 1.629 1.656 1.61.745-.017 1.457-.854 1.387-1.472-.073-.644-.987-1.292-1.763-1.257-.616.028-1.262.607-1.28 1.12z" stroke="#55A" stroke-width="2" fill="#55A" stroke-linecap="round" stroke-linejoin="round"/><path d="M161.904 479.323s.173-21.084.208-31.627c.02-6.034.34-12.077 0-18.102-.418-7.387-1.017-14.806-2.502-22.055-1.41-6.88-3.174-13.773-6.047-20.183-1.898-4.235-3.903-8.69-7.297-11.86-2.18-2.035-5.037-3.406-7.923-4.161-2.354-.616-4.905-.652-7.298-.208-4.962.92-9.424 3.638-13.97 5.826-4.286 2.063-8.487 4.329-12.51 6.866-4.924 3.106-14.178 10.195-14.178 10.195M145.223 427.514c1.99-2.435 2.133-4.595 6.255-6.659M131.462 429.178c-1.75-4.598-4.071-8.479-8.966-10.611" stroke="#55A" stroke-width="2" stroke-linecap="round" stroke-linejoin="round"/><path d="M104.916 479.502S63.007 392.875 39 351.217c-2.297-3.984-4.476-8.104-7.457-11.608-2.597-3.052-5.585-5.851-8.948-8.036-2.648-1.72-5.607-3.02-8.65-3.87-2.315-.646-4.763-1.106-7.158-.892-1.66.148-4.772 1.488-4.772 1.488l93.953 151.203h8.948z" fill="#000"/><g stroke="#55A" stroke-linecap="round" stroke-linejoin="round" stroke-width="2"><path d="M112.504 479.835s-2.801-20.79-4.95-31.048c-1.246-5.947-2.817-11.83-4.596-17.64-3.834-12.522-7.957-24.994-13.081-37.047-3.19-7.505-7.036-14.725-10.96-21.875-5.74-10.454-11.383-21.038-18.385-30.695-2.743-3.782-5.596-7.599-9.193-10.584-4.833-4.011-10.39-7.29-16.263-9.526-4.728-1.801-9.824-2.85-14.883-2.988-3.679-.101-7.376.611-10.927 1.576-2.702.735-7.778 3.176-7.778 3.176s9.866-1.034 14.496.353c5.324 1.594 9.953 5.173 14.142 8.82 3.468 3.02 6.296 6.757 8.839 10.585 4.689 7.058 7.805 15.04 11.667 22.58 4.51 8.804 8.903 17.668 13.435 26.461 5.474 10.619 11.225 21.094 16.617 31.754 4.726 9.344 9.122 18.852 13.789 28.225 4.643 9.327 14.142 27.873 14.142 27.873h3.889zM110.869 471.742c-4.523-5.405-9.045-10.905-13.568-15.546M109.753 461.62c-6.007-6.313-11.444-12.627-19.71-18.941M107.2 452.315c-11.18-12.103-16.536-16.455-23.223-22.58M105.08 442.79c-11.026-11.788-21.135-21.972-28.992-28.226M103.566 433.99c-11.651-11.942-22.917-24.402-33.808-31.797M99.776 422.326c-11.875-11.887-25.01-25.625-35.355-31.401M95.776 410.22c-13.411-12.068-27.733-25.355-38.073-31.291M92.528 400.683c-12.047-11.422-27.014-23.61-39.852-31.875M85.28 385.985c-11.374-9.447-22.938-18.704-36.659-25.81M79.645 373.603c-11.001-9.572-23.053-16.525-35.642-22.139M71.922 360.77c-11.11-7.096-22.221-14.392-33.332-19.185M65.316 350.075c-10.664-6.975-21.814-12.98-34.019-16.88M57.614 338.079c-12.61-6.106-27.904-14.906-40.514-14.355"/></g><path stroke="#55A" stroke-width="2" fill="#F55" stroke-linecap="round" stroke-linejoin="round" d="M31 390.55l8-2.993 57 92.807H81L31 390.55M166.598 479.482s-.32-15.588.707-23.286c1.071-8.03 2.756-16.072 5.657-23.639 2.299-5.996 5.706-11.54 9.192-16.935 4.65-7.196 10.825-13.32 15.556-20.463 4.192-6.328 8.107-12.881 11.314-19.758 2.596-5.566 5-11.302 6.364-17.288a58.673 58.673 0 0 0 1.414-14.819c-.165-5.237-2.475-15.524-2.475-15.524s-8.597 12.392-12.728 18.7c-5.938 9.069-12.31 17.91-17.324 27.52-4.902 9.396-8.805 19.307-12.374 29.283-3.222 9.007-6.514 18.094-8.132 27.52-1.136 6.617-.8 13.403-1.06 20.111-.37 9.522-.708 28.578-.708 28.578h4.597zM300.25 251.091l-69.75 56.133-4.75-5.738 74.75-59.875z"/><path stroke="#55A" stroke-width="2" stroke-linecap="round" stroke-linejoin="round" d="M230 307.973L202.25 270.8l-5 2.903 28.866 39.466z"/><path d="M226.25 313.461l-15 17.713s-4.967-5.166-6.75-8.233c-1.933-3.325-3.457-6.985-4.134-10.77-.627-3.506-.643-7.208.134-10.685.658-2.942 2.103-5.706 3.75-8.233 1.094-1.679 4-4.49 4-4.49l18 24.698z" stroke="#55A" stroke-width="2" fill="#55A" stroke-linecap="round" stroke-linejoin="round"/><path d="M205 335.166s-6.092-6.243-8.25-9.98c-1.91-3.305-3.323-6.972-4-10.727-.694-3.847-.732-7.886 0-11.725.636-3.338 1.995-6.57 3.75-9.48 2.162-3.586 8.177-9.541 8.177-9.541l3.853 5.092c-3.078 3.065-5.067 4.736-6.78 7.692-1.719 2.964-3.04 6.315-3.31 9.73-.261 3.29.531 6.663 1.676 9.76 1.44 3.893 3.788 7.454 6.384 10.697 1.435 1.792 5 4.74 5 4.74l-2.75 3.742H205z" stroke="#55A" stroke-width="2" fill="#000" stroke-linecap="round" stroke-linejoin="round"/><path d="M200.25 280.28s-3.895 3.106-5.5 4.99a32.904 32.904 0 0 0-4.53 6.955c-1.577 3.249-2.884 6.698-3.47 10.26-.5 3.035-.397 6.179 0 9.23a52.699 52.699 0 0 0 3.5 13.222c1.462 3.55 5.75 9.98 5.75 9.98l-7.866-.323s-4.663-7.658-5.945-11.902c-1.21-4.007-1.444-8.277-1.543-12.461-.074-3.155.117-6.34.72-9.438.568-2.917 1.652-5.716 2.707-8.495.781-2.055 1.59-4.118 2.677-6.03.855-1.505 3-4.241 3-4.241s-3.34-5.396-4.75-8.233c-1.527-3.072-2.969-6.21-4-9.48-1.432-4.544-2.713-9.217-3-13.971-.388-6.418.51-12.9 1.75-19.21 1.207-6.144 2.815-12.304 5.5-17.963 2.186-4.607 5.216-8.82 8.5-12.723 3.259-3.875 6.925-7.47 11-10.478 4.38-3.233 9.196-5.955 14.25-7.984 6.788-2.724 13.984-4.627 21.25-5.488 4.966-.59 10.04-.39 15 .25 4.51.581 8.944 1.784 13.25 3.242 3.534 1.197 7.06 2.558 10.25 4.49 3.292 1.997 6.164 4.634 9 7.236 1.866 1.712 5.25 5.488 5.25 5.488l8-6.486v8.482l-94 75.593-4.25-4.74-6.25 5.239 3.75 4.99z" stroke="#55A" stroke-width="2" fill="#FFF954" stroke-linecap="round" stroke-linejoin="round"/><path stroke="#55A" stroke-width="2" fill="#55A" stroke-linecap="round" stroke-linejoin="round" d="M300.5 205.436L210 280.031l12.25 16.715 78.25-62.37zM269.5 216.413l-12.75 9.73-30.25 24.948-13.543 11.312s-2.874-6.905-3.457-10.563c-.747-4.682-.63-9.523 0-14.22.63-4.7 1.407-9.598 3.75-13.722 2.907-5.116 7.276-9.57 12.25-12.724 4.382-2.778 9.6-4.333 14.75-4.99 4.558-.58 9.326-.243 13.75.999 2.978.835 5.596 2.654 8.25 4.24 2.518 1.506 7.25 4.99 7.25 4.99z"/><path d="M256 225.395l-29.75 24.698s-1.69-4.923-1.75-7.484c-.076-3.213.303-6.61 1.75-9.48 1.483-2.944 4.029-5.37 6.75-7.235 2.48-1.701 5.412-2.841 8.375-3.368 2.709-.482 5.56-.324 8.25.25 2.247.478 6.375 2.619 6.375 2.619z" fill="#FF5554"/><path d="M288.5 199.948l-14.75 12.723s-7.836-6.707-12.5-8.732c-4.766-2.069-10.053-3.179-15.25-3.243-5.426-.066-10.912 1.111-16 2.994-5.146 1.904-10.079 4.673-14.25 8.233a37.476 37.476 0 0 0-8.5 10.478c-2.305 4.227-3.74 8.969-4.5 13.721-.577 3.614-.186 7.323 0 10.977.209 4.091.27 8.247 1.25 12.225.643 2.61 3 7.484 3 7.484l-13.5 10.728s-4.457-6.59-6-10.229c-1.82-4.292-3.12-8.854-3.75-13.472-.529-3.872-.343-7.832 0-11.725.46-5.216 1.29-10.438 2.75-15.468 1.653-5.696 3.615-11.428 6.75-16.466 2.99-4.805 7.038-8.938 11.25-12.723 3.952-3.552 8.272-6.8 13-9.23 4.076-2.097 8.511-3.557 13-4.491 5.237-1.09 10.65-1.249 16-1.248 4.263 0 8.54.324 12.75.998 3.812.61 7.666 1.313 11.25 2.744 3.57 1.426 6.947 3.405 10 5.738 2.994 2.289 8 7.984 8 7.984z" stroke="#000" stroke-width="2" fill="#000" stroke-linecap="round" stroke-linejoin="round"/><g stroke="#000" stroke-linecap="round" stroke-linejoin="round" stroke-width="2.008"><path d="M278.872 207.183s-4.987.831-7.46.499c-2.506-.337-5.079-1.021-7.243-2.495-1.33-.907-3.291-3.742-3.291-3.742s4.274-2.332 6.583-2.495c2.606-.185 5.356.394 7.68 1.746a8.046 8.046 0 0 1 3.073 3.243c.489.96.658 3.244.658 3.244z" fill="#FF5"/><path d="M278.433 206.434s-2.976-2.077-4.608-2.744c-1.337-.546-4.17-.998-4.17-.998"/></g><path d="M245.5 296.996s3.848 4.957 6 7.234c2.266 2.397 4.623 4.74 7.25 6.736 2.024 1.538 4.072 3.233 6.5 3.992 1.434.448 3.125.854 4.5.25 1.084-.477 2.05-1.58 2.25-2.745.375-2.177-1.086-4.357-2.25-6.237-1.27-2.052-3.22-3.609-5-5.239-1.18-1.08-3.12-1.525-3.75-2.994-.757-1.764.25-3.834.5-5.738.187-1.423.75-4.24.75-4.24" stroke="#55A" stroke-width="2" stroke-linecap="round" stroke-linejoin="round"/><path d="M268.5 310.583s-.426-1.584-1-2.111c-.524-.482-1.292-.823-2-.749-1.08.113-2.75 1.747-2.75 1.747M272.5 313.212s3.465 1.727 5 .998c1.615-.768 2.494-2.955 2.5-4.74.01-2.716-2.32-4.925-3.75-7.235-1.19-1.925-2.218-4.09-4-5.489-1.204-.945-2.755-2.082-4.25-1.746-1.209.27-2.257 1.532-2.5 2.744-.243 1.212.496 2.512 1.25 3.493.802 1.043 1.938 2.366 3.25 2.245 1.032-.095 1.569-1.374 2.19-2.202.616-.823 1.487-2.702 1.487-2.702" stroke="#55A" stroke-width="2" stroke-linecap="round" stroke-linejoin="round"/><path d="M280.75 308.222s2.448-.815 3.25-1.746c.807-.938 1.302-2.258 1.25-3.493-.084-2.008-1.353-3.837-2.5-5.488-1.343-1.934-3.255-3.409-5-4.99-1.359-1.231-2.503-2.932-4.25-3.493-1.193-.383-2.894-.663-3.75.25-.797.85-.25 2.355 0 3.492.256 1.163.428 2.722 1.5 3.244 1.308.636 3.14-.059 4.25-.998.826-.7 1.25-2.994 1.25-2.994" stroke="#55A" stroke-width="2" stroke-linecap="round" stroke-linejoin="round"/><path d="M284.75 298.742s3.043-2.105 3.25-3.742c.14-1.107-.791-2.131-1.5-2.994-1.807-2.2-4.322-3.748-6.75-5.24-1.492-.916-2.998-2.223-4.75-2.244-.82-.01-1.842.287-2.25.997-.376.654-.077 1.567.25 2.246.613 1.272 1.587 3.04 3 2.994.885-.03 1.401-1.184 1.75-1.996.362-.845.25-2.745.25-2.745" stroke="#55A" stroke-width="2" stroke-linecap="round" stroke-linejoin="round"/><path d="M286.25 290.01s1.098-1.946 1-2.994c-.159-1.705-1.297-3.27-2.5-4.49-1.56-1.583-3.646-2.704-5.78-3.33-1.111-.324-2.587-.91-3.47-.163-1.088.92-1.159 2.978-.5 4.241.568 1.09 2.034 1.934 3.25 1.746.918-.141 1.506-1.176 1.94-1.995.436-.826.56-2.745.56-2.745" stroke="#55A" stroke-width="2" stroke-linecap="round" stroke-linejoin="round"/><path d="M283.232 280.986l4.768-9.687s-.336-3.03-1.5-3.639c-.982-.514-2.322.101-3.25.706-1.187.773-2.5 3.432-2.5 3.432l-2.06 6.827" stroke="#55A" stroke-width="2" fill="#FF5" stroke-linecap="round" stroke-linejoin="round"/><path d="M287.634 270.77s-2.081 1.843-3.384 2.026c-1.281.18-3.75-.998-3.75-.998" stroke="#55A" stroke-width="2" stroke-linecap="round" stroke-linejoin="round"/><path d="M271.25 315.707s5.512 1.226 8 2.494c1.896.967 3.746 2.19 5.116 3.816 1.486 1.763 2.56 3.932 3.134 6.164.642 2.498.25 7.733.25 7.733s-3.56-2.669-5.5-3.742c-2.093-1.157-4.519-1.654-6.573-2.878-1.532-.912-2.945-2.04-4.22-3.286-1.02-.997-2.03-2.06-2.707-3.316-.661-1.228-1.04-2.614-1.25-3.992-.176-1.15 0-3.492 0-3.492l3.75.499z" stroke="#55A" stroke-width="2" fill="#FF5" stroke-linecap="round" stroke-linejoin="round"/><path d="M282.5 327.183s-2.02-2.612-3.263-3.682c-1.878-1.617-4.191-2.652-6.237-4.052-1.526-1.045-4.5-3.243-4.5-3.243" stroke="#55A" stroke-width="2" stroke-linecap="round" stroke-linejoin="round"/><path stroke="#55A" stroke-width="2" fill="#FF5" stroke-linecap="round" stroke-linejoin="round" d="M266.56 314.94l-7.456 13.77-4.104-2.276 7.53-13.283zM259.75 312.962s-3.313 3.888-5.5 5.106c-2.535 1.411-5.506 2.038-8.396 2.306-2.7.25-5.396-.786-8.104-.676-2.532.104-7.5 1.248-7.5 1.248s1.936-5.406 4-7.235c2.152-1.908 5.223-2.49 8-3.244 3.332-.904 6.802-1.69 10.25-1.496 1.635.091 3.35.4 4.75 1.247 1.06.641 2.5 2.744 2.5 2.744z"/><path d="M258.591 312.713s-4.326 1.622-6.591 1.996c-2.468.407-5.052-.264-7.5.25-1.318.275-3.75 1.496-3.75 1.496" stroke="#55A" stroke-width="2" stroke-linecap="round" stroke-linejoin="round"/><path stroke="#55A" stroke-width="2" fill="#55A" stroke-linecap="round" stroke-linejoin="round" d="M249.5 337.66l-1.5-7.234-6-1.497.5 7.235zM249.5 346.642l-1.5 6.986-6.25 1.496 1-7.234zM259.75 346.642l7.043 1.333.957 6.9-7-1.247zM266 335.914l1-6.985-7 2.245v5.988z"/><path d="M258.159 338.573s2.059-2.986 2.164-4.71c.106-1.723-.449-3.622-1.573-4.934-.848-.99-2.207-1.574-3.5-1.746-1.685-.225-3.697-.092-5 .998-1.577 1.319-2.248 3.684-2.25 5.738-.002 1.606 1.75 4.49 1.75 4.49s-3.173-2.214-5-2.245c-1.98-.034-4.323.656-5.5 2.245-1.094 1.478-1.193 3.787-.5 5.489.578 1.42 2.048 2.492 3.5 2.994 1.891.653 4.137.482 6-.25.715-.28 1.75-1.497 1.75-1.497s-1.395 3.087-1.5 4.74c-.117 1.856-.07 3.966 1 5.489.664.946 1.874 1.48 3 1.746 1.3.308 2.824.384 4-.25 1.467-.79 2.622-2.371 3-3.99.308-1.32-.396-2.686-.75-3.993-.323-1.193-1.25-3.492-1.25-3.492s3.72 1.982 5.75 1.996c1.845.012 3.916-.475 5.25-1.747.84-.8 1.194-2.086 1.25-3.243.075-1.552-.217-3.328-1.25-4.49-1.017-1.144-2.718-1.737-4.25-1.747-2.184-.015-6.091 2.41-6.091 2.41z" stroke="#55A" stroke-width="2" fill="#FF5" stroke-linecap="round" stroke-linejoin="round"/><path d="M261 342.151c-3.43.473-5.72 3.219-7.75 6.487-1.435-2.252-1.709-4.117-5.75-7.235 3.551-1.29 5.55-3.819 6.75-6.985 1.536 2.934 2.518 6.144 6.75 7.733z" stroke="#55A" stroke-width="2" fill="#F55" stroke-linecap="round" stroke-linejoin="round"/><path d="M155.5 335.665s4.923-15.86 6.75-23.95c1.524-6.749 2.544-13.606 3.5-20.458.856-6.13 1.647-12.281 2-18.461.38-6.642.125-19.958.125-19.958H155.75s-1.432 13.67-2.5 20.457c-1.436 9.12-2.825 18.285-5.25 27.193-1.506 5.534-3.724 10.85-5.75 16.216-1.266 3.353-2.659 6.656-4 9.98-1.243 3.08-3.75 9.23-3.75 9.23l21-.249zM119.25 335.665s11.477-17.36 16-26.694c2.87-5.924 5.088-12.165 7-18.462 1.935-6.37 3.395-12.894 4.5-19.46.652-3.876.885-7.811 1.25-11.725.194-2.077.5-6.237.5-6.237l-11.5-.25s-3.617 18.558-6.75 27.443c-2.685 7.616-6.161 14.988-10.25 21.955-4.255 7.249-9.298 14.056-14.75 20.457-2.9 3.405-6.27 6.384-9.5 9.48-1.063 1.02-3.25 2.994-3.25 2.994l26.75.499z" fill="#000003"/><path d="M128 253.835s-3.582 11.94-6.5 17.404c-3.293 6.165-7.477 11.914-12.25 17.025-4.691 5.023-9.916 9.735-15.879 13.162-5.883 3.38-12.501 5.498-19.121 7.003-5.224 1.187-10.642 1.498-16 1.54-5.183.04-15.5-1.248-15.5-1.248" stroke="#55A" stroke-width="2" stroke-linecap="round" stroke-linejoin="round"/><path d="M168.25 320.28c-.5-.499-1.25-.998-2.5-.998-2.25 0-3.75 1.331-3.75 2.994 0 1.663 1.5 3.16 3.75 3.16 1.25 0 1.5-.332 2.25-.831l.25.166c-.75.499-2.5 1.996-2.5 3.16 0 1.33 1.75 2.994 3.75 2.994s3.75-1.663 3.75-2.994c0-1.164-1.75-2.661-2.5-3.16l.25-.166c.75.499 1 .831 2.25.831 2.25 0 3.75-1.497 3.75-3.16s-1.5-2.994-3.75-2.994c-1.25 0-2 .5-2.5.998l-.25-.166c.25-.998.25-.832.5-1.663.25-.832 1-2.495 1-2.495-2.5.333-2.5.333-5 0 0 0 .75 1.663 1 2.495.25.831.25.665.5 1.663l-.25.166zM175.75 283.607c-.5-.5-1.25-.998-2.5-.998-2.25 0-3.75 1.33-3.75 2.994 0 1.663 1.5 3.16 3.75 3.16 1.25 0 1.5-.333 2.25-.832l.25.166c-.75.5-2.5 1.996-2.5 3.16 0 1.331 1.75 2.994 3.75 2.994s3.75-1.663 3.75-2.994c0-1.164-1.75-2.66-2.5-3.16l.25-.166c.75.5 1 .832 2.25.832 2.25 0 3.75-1.497 3.75-3.16 0-1.664-1.5-2.994-3.75-2.994-1.25 0-2 .499-2.5.998l-.25-.167c.25-.997.25-.831.5-1.663.25-.831 1-2.495 1-2.495-2.5.333-2.5.333-5 0 0 0 .75 1.664 1 2.495.25.832.25.666.5 1.663l-.25.167zM107 299.075c-.5-.5-1.25-.998-2.5-.998-2.25 0-3.75 1.33-3.75 2.993 0 1.664 1.5 3.16 3.75 3.16 1.25 0 1.5-.332 2.25-.831l.25.166c-.75.5-2.5 1.996-2.5 3.16 0 1.33 1.75 2.994 3.75 2.994s3.75-1.663 3.75-2.994c0-1.164-1.75-2.66-2.5-3.16l.25-.166c.75.499 1 .831 2.25.831 2.25 0 3.75-1.496 3.75-3.16 0-1.663-1.5-2.993-3.75-2.993-1.25 0-2 .499-2.5.998l-.25-.167c.25-.998.25-.831.5-1.663.25-.832 1-2.495 1-2.495-2.5.333-2.5.333-5 0 0 0 .75 1.663 1 2.495.25.832.25.665.5 1.663l-.25.167zM85.5 317.287c-.5-.5-1.25-.998-2.5-.998-2.25 0-3.75 1.33-3.75 2.993 0 1.664 1.5 3.16 3.75 3.16 1.25 0 1.5-.332 2.25-.831l.25.166c-.75.5-2.5 1.996-2.5 3.16 0 1.33 1.75 2.994 3.75 2.994s3.75-1.663 3.75-2.994c0-1.164-1.75-2.66-2.5-3.16l.25-.166c.75.499 1 .832 2.25.832 2.25 0 3.75-1.497 3.75-3.16 0-1.664-1.5-2.994-3.75-2.994-1.25 0-2 .499-2.5.998l-.25-.167c.25-.998.25-.831.5-1.663.25-.832 1-2.495 1-2.495-2.5.333-2.5.333-5 0 0 0 .75 1.663 1 2.495.25.832.25.665.5 1.663l-.25.167zM56.5 319.532c-.5-.499-1.25-.998-2.5-.998-2.25 0-3.75 1.33-3.75 2.994 0 1.663 1.5 3.16 3.75 3.16 1.25 0 1.5-.333 2.25-.832l.25.167c-.75.499-2.5 1.995-2.5 3.16 0 1.33 1.75 2.993 3.75 2.993s3.75-1.663 3.75-2.993c0-1.165-1.75-2.661-2.5-3.16l.25-.167c.75.5 1 .832 2.25.832 2.25 0 3.75-1.497 3.75-3.16s-1.5-2.994-3.75-2.994c-1.25 0-2 .499-2.5.998l-.25-.166c.25-.998.25-.832.5-1.664.25-.831 1-2.494 1-2.494-2.5.332-2.5.332-5 0 0 0 .75 1.663 1 2.494.25.832.25.666.5 1.664l-.25.166z" fill="#FFF"/><path d="M34.25 320.197l12.25-16.465s-9.346-1.38-13.75-2.994c-4.165-1.526-8.094-3.73-11.75-6.237-4.186-2.872-11.5-9.98-11.5-9.98L1 290.76v31.933s6.082-2.443 9.25-3.243c3.6-.91 7.288-1.66 11-1.747 2.263-.053 4.528.318 6.75.749 2.124.411 6.25 1.746 6.25 1.746z" fill="#55A"/><path d="M114.188 334.917c2.358-.768.737-3.1-.617-3.98l-2.758-2.632 11.375-5.769c1.756-1.265-.053-3.156-.534-4.63-.306-.96-1.64-2.27.038-2.557 2.541-1.422 5.246-2.6 7.679-4.181.901-1.591-.72-3.083-1.208-4.577-.16-.948-1.747-2.263-.808-2.929 2.192-1.637 5.31-2.573 7.385-4.345.659-1.687-1.764-3.59-2.344-5.098-1.222-1.162.035-1.682 1.06-2.262 1.65-1.124 3.474-2.03 5.006-3.304.762-1.647-.934-3.022-1.517-4.48-.377-.918-1.859-2.194-.1-2.418 1.487-.766 3.138-1.262 4.51-2.218.977-1.642-.79-3.127-1.353-4.627-.14-.834-2.028-2.373-.553-2.557 1.568-.56 3.22-.916 4.725-1.63 1.532-1.552-.628-2.823-1.448-4.03-.394-.803-2.41-1.836-.805-2.356 1.18-1.034 3.44-1.497 3.254-3.408-.68-1.278-1.78-2.286-2.644-3.445 1.127-1.295 2.942-2.169 3.449-3.855-1.482-.86-3.203-.824-4.252.494-.951 1.155-2.892 1.924-2.64 3.653.662 1.175 1.664 2.124 2.475 3.2-1.234.991-2.95 1.536-3.754 2.932.046 1.855 2.408 3.282 3.032 5.019-.632.498-3.235.724-4.218 1.05-2.47.358-1.308 2.904-.39 4.224l1.955 3.616c-1.83.931-3.828 1.588-5.543 2.708-.994 1.65.822 3.109 1.412 4.594.253.897 1.968 2.162.418 2.606-1.96 1.322-4.098 2.42-5.937 3.892-.756 1.643.921 3.03 1.493 4.493 1.078 1.126.545 1.884-.715 2.476-1.83 1.374-3.827 2.557-5.547 4.057-.66 1.648.892 3.108 1.396 4.632.109.87 1.858 2.285.466 2.66-2.65 1.465-5.453 2.697-8.002 4.313-.926 1.57.667 3.082 1.127 4.579.69 1.083 1.06 2.056-.533 2.347-3.642 1.887-7.351 3.661-10.95 5.618-1.452 1.708.798 2.896 1.803 4.003 1.506 1.324 2.806 2.92 4.457 4.053.862.175 1.122-.398 1.715-.99l-1.06 1.059zM144.125 334.418c2.55-1.163 4.87-2.852 7.329-4.226 2-.658 1.557-2.788.36-4.004l-2.689-4.026c2.257-1.475 4.708-2.701 6.837-4.343.81-1.639-.985-2.867-1.671-4.211l-2.228-3.265c2.043-1.548 4.284-2.874 6.198-4.568.681-1.682-1.117-2.9-1.818-4.279-.444-.849-1.496-1.786-1.562-2.58 1.945-1.659 4.069-3.137 5.897-4.914.586-1.62-1.031-2.88-1.643-4.272-.22-.845-1.825-1.981-.971-2.6 1.594-1.213 3.395-2.196 4.848-3.568.665-1.703-1.174-2.892-1.908-4.26-.79-.877-1.4-1.727.029-2.274 1.087-.972 3.387-1.877 2.275-3.687l-2.377-3.632c1.107-1.025 3.421-1.652 2.813-3.555l-2.219-4.398c1.022-1.009 2.94-1.56 2.834-3.255-.79-1.609-1.995-2.995-2.959-4.51-2.613-2.144-3.35 1.868-1.444 3.207.966.912.987 1.676-.293 2.235-1.56.713-1.774 2.464-.753 3.746l1.584 3.162c-1.092 1.002-3.109 1.504-3.046 3.251.713 1.548 1.822 2.895 2.702 4.358-1.159.96-2.499 1.73-3.526 2.831-.621 1.693 1.19 2.87 1.918 4.232.803.873 1.356 1.704-.088 2.196-1.335 1.018-2.844 1.837-4.054 2.997-.67 1.636 1.004 2.922 1.625 4.328.266.84 1.631 1.873 1.176 2.589-1.927 1.648-4.034 3.115-5.839 4.885-.598 1.665 1.151 2.853 1.846 4.216.403.81 1.483 1.739 1.492 2.479-1.998 1.515-4.192 2.808-6.06 4.47-.681 1.68 1.115 2.9 1.814 4.28l2.071 3.033c-2.257 1.475-4.708 2.701-6.837 4.343-.802 1.633.97 2.877 1.643 4.23l1.85 2.779c-2.282 1.55-4.813 2.785-6.905 4.58-1.424 1.694-.455 1.192-.126 1.625.385.507 1.875.375 1.875.375z" fill="#FF5"/><path d="M241.854 276.467l-14.303 3.27 7.859-14.055s-.662 3.399.413 4.415c.932.88 3.847.15 3.847.15s-2.315 3.07-1.675 4.556c.553 1.285 3.859 1.664 3.859 1.664zM267.087 255.319l-14.303 3.27 7.86-14.055s-.662 3.398.413 4.415c.931.88 3.846.15 3.846.15s-2.314 3.07-1.674 4.556c.553 1.285 3.858 1.664 3.858 1.664zM293.604 234.855l-14.303 3.27 7.859-14.054s-.662 3.398.413 4.414c.932.88 3.847.15 3.847.15s-2.314 3.07-1.675 4.557c.553 1.284 3.859 1.663 3.859 1.663zM227.192 286.242c-.588-.482-.522-1.805.076-2.274.507-.399 1.548-.151 1.898.39.279.433.022 1.14-.342 1.505-.394.396-1.2.733-1.632.379h0zM219.783 286.93c-.588-.482-.522-1.805.076-2.274.507-.4 1.548-.152 1.898.39.28.432.022 1.14-.342 1.505-.394.395-1.2.732-1.632.379h0zM221.783 279.32c-.588-.48-.522-1.804.076-2.274.507-.398 1.548-.15 1.898.39.28.433.022 1.141-.342 1.506-.394.395-1.2.732-1.632.379h0zM252.612 265.722c-.587-.481-.521-1.805.076-2.274.508-.399 1.548-.151 1.898.39.28.433.023 1.14-.341 1.506-.394.395-1.201.732-1.633.378h0zM245.204 266.41c-.588-.481-.522-1.805.076-2.274.507-.399 1.547-.151 1.897.39.28.433.023 1.14-.341 1.506-.394.395-1.2.732-1.632.378h0zM247.204 258.8c-.588-.48-.522-1.804.076-2.273.507-.399 1.547-.152 1.897.39.28.432.023 1.14-.341 1.505-.394.395-1.2.733-1.632.379h0zM277.862 245.764c-.587-.482-.521-1.805.076-2.274.508-.399 1.548-.152 1.898.39.28.432.023 1.14-.341 1.505-.394.395-1.201.733-1.633.379h0zM270.454 246.452c-.588-.482-.522-1.805.076-2.275.507-.398 1.547-.15 1.897.39.28.433.023 1.141-.341 1.506-.394.395-1.2.732-1.632.379h0zM272.454 238.842c-.588-.481-.522-1.805.076-2.274.507-.398 1.547-.151 1.897.39.28.433.023 1.141-.341 1.506-.394.395-1.2.732-1.632.378h0zM295.033 224.81c-.588-.482-.522-1.806.076-2.275.507-.399 1.548-.151 1.898.39.28.433.022 1.14-.342 1.506-.394.395-1.2.732-1.632.378h0z" stroke="#FFF" stroke-width="2" fill="#FFF" stroke-linecap="round" stroke-linejoin="round"/><g stroke="#000" stroke-linecap="round" stroke-linejoin="round" stroke-width="2"><path d="M282.988 204.372s-5.072-2.692-7.147-4.628c-2.101-1.96-4.06-4.246-5.175-6.892-.686-1.629-.808-5.236-.808-5.236s5.305 1.002 7.522 2.427c2.502 1.608 4.686 3.928 6.02 6.585.715 1.422 1.074 3.105.903 4.686-.12 1.103-1.315 3.058-1.315 3.058z" fill="#FF5"/><path d="M283.028 203.473s-1.504-3.682-2.608-5.32c-.905-1.34-3.24-3.614-3.24-3.614"/></g><g stroke="#000" stroke-linecap="round" stroke-linejoin="round" stroke-width="2"><path d="M269.441 196.68s-5.612-1.21-8.136-2.51c-2.555-1.315-5.06-2.982-6.853-5.226-1.103-1.38-2.202-4.819-2.202-4.819s5.378-.478 7.899.29c2.845.867 5.577 2.507 7.584 4.701 1.074 1.174 1.877 2.696 2.142 4.264.185 1.094-.434 3.3-.434 3.3z" fill="#FF5"/><path d="M269.235 195.804s-2.448-3.134-3.956-4.41c-1.235-1.044-4.1-2.598-4.1-2.598"/></g><g stroke="#000" stroke-linecap="round" stroke-linejoin="round" stroke-width="2"><path d="M251.689 188.971s-5.348 2.092-8.169 2.403c-2.856.316-5.866.31-8.6-.57-1.682-.541-4.497-2.8-4.497-2.8s4.218-3.37 6.744-4.122c2.85-.849 6.034-.992 8.918-.272 1.544.386 3.055 1.21 4.142 2.37.759.81 1.462 2.991 1.462 2.991z" fill="#FF5"/><path d="M251.033 188.355s-3.772-1.26-5.734-1.49c-1.606-.188-4.853.1-4.853.1"/></g><g stroke="#000" stroke-linecap="round" stroke-linejoin="round" stroke-width="2"><path d="M231.114 189.483s-4.445 3.635-7.034 4.798c-2.62 1.179-5.487 2.1-8.359 2.102-1.766.002-5.14-1.281-5.14-1.281s2.978-4.504 5.15-5.996c2.451-1.685 5.437-2.8 8.403-3.001 1.588-.108 3.278.213 4.67.982.97.538 2.31 2.396 2.31 2.396z" fill="#FF5"/><path d="M230.3 189.098s-3.976-.038-5.913.346c-1.587.314-4.588 1.586-4.588 1.586"/></g><g stroke="#000" stroke-linecap="round" stroke-linejoin="round" stroke-width="2"><path d="M214.2 198.813s-3.34 4.672-5.533 6.473c-2.221 1.823-4.746 3.462-7.517 4.217-1.705.464-5.297.109-5.297.109s1.696-5.126 3.4-7.135c1.926-2.268 4.515-4.125 7.325-5.097 1.504-.52 3.22-.653 4.764-.274 1.078.264 2.857 1.707 2.857 1.707z" fill="#FF5"/><path d="M213.313 198.655s-3.848 1.004-5.617 1.882c-1.45.719-4.012 2.732-4.012 2.732"/></g><g stroke="#000" stroke-linecap="round" stroke-linejoin="round" stroke-width="2"><path d="M201.472 211.182s-1.648 5.5-3.141 7.914c-1.512 2.444-3.37 4.811-5.748 6.422-1.463.991-4.977 1.817-4.977 1.817s-.054-5.4.91-7.852c1.087-2.768 2.936-5.363 5.28-7.192 1.256-.978 2.836-1.66 4.42-1.8 1.105-.1 3.256.69 3.256.69z" fill="#FF5"/><path d="M200.582 211.319s-3.316 2.194-4.706 3.597c-1.139 1.15-2.912 3.883-2.912 3.883"/></g><g stroke="#000" stroke-linecap="round" stroke-linejoin="round" stroke-width="2.002"><path d="M195.37 227.673s-.26 6.122-1.125 9.026c-.876 2.94-2.11 5.9-4.033 8.229-1.183 1.432-4.406 3.274-4.406 3.274s-1.373-5.537-1.033-8.331c.383-3.155 1.551-6.346 3.389-8.889.984-1.36 2.358-2.507 3.866-3.1 1.054-.414 3.343-.21 3.343-.21z" fill="#FF5"/><path d="M194.537 228.065s-2.695 3.194-3.707 5.03c-.829 1.503-1.889 4.816-1.889 4.816"/></g><g stroke="#000" stroke-linecap="round" stroke-linejoin="round" stroke-width="2.002"><path d="M191.475 245.125s1.862 5.838 2.05 8.862c.19 3.062.052 6.266-.953 9.114-.617 1.752-3.01 4.591-3.01 4.591s-3.194-4.726-3.838-7.467c-.726-3.093-.728-6.491.122-9.511.455-1.617 1.35-3.166 2.563-4.242.846-.752 3.066-1.347 3.066-1.347z" fill="#FF5"/><path d="M190.827 245.78s-1.43 3.926-1.749 5.998c-.26 1.697-.115 5.172-.115 5.172"/></g><g stroke="#000" stroke-linecap="round" stroke-linejoin="round" stroke-width="2.024"><path d="M192.722 243.935s.197 6.087.935 9.01c.748 2.958 1.805 5.954 3.467 8.354 1.021 1.477 3.815 3.456 3.815 3.456s1.22-5.43.939-8.219c-.318-3.148-1.318-6.369-2.904-8.978-.849-1.397-2.038-2.6-3.347-3.259-.914-.46-2.905-.364-2.905-.364z" fill="#FF5"/><path d="M193.445 244.363s2.328 3.296 3.199 5.165c.713 1.53 1.619 4.868 1.619 4.868"/></g><g stroke="#000" stroke-linecap="round" stroke-linejoin="round" stroke-width="2.024"><path d="M194.642 225.849s-.796 6.038-.543 9.042c.255 3.04.812 6.168 2.06 8.807.768 1.623 3.202 4.03 3.202 4.03s2.088-5.158 2.264-7.956c.198-3.158-.264-6.499-1.404-9.332-.61-1.516-1.588-2.896-2.772-3.759-.827-.603-2.807-.832-2.807-.832z" fill="#FF5"/><path d="M195.285 226.389s1.761 3.63 2.316 5.616c.455 1.627.806 5.067.806 5.067"/></g><g stroke="#000" stroke-linecap="round" stroke-linejoin="round" stroke-width="2.024"><path d="M202.621 210.21s-2.416 5.591-2.995 8.55c-.585 2.994-.905 6.155-.426 9.035.295 1.771 1.978 4.752 1.978 4.752s3.419-4.39 4.353-7.034c1.054-2.983 1.523-6.323 1.201-9.36-.172-1.625-.735-3.22-1.638-4.374-.63-.806-2.473-1.568-2.473-1.568z" fill="#FF5"/><path d="M203.093 210.906s.7 3.974.691 6.036c-.007 1.689-.61 5.094-.61 5.094"/></g><g stroke="#000" stroke-linecap="round" stroke-linejoin="round" stroke-width="2.017"><path d="M192.772 255.848s-1.196 5.17-1.215 7.796c-.019 2.658.223 5.417 1.119 7.81.551 1.472 2.52 3.763 2.52 3.763s2.274-4.3 2.657-6.71c.432-2.723.291-5.659-.493-8.21-.42-1.367-1.177-2.645-2.16-3.493-.686-.592-2.428-.956-2.428-.956z" fill="#FF5"/><path d="M193.3 256.37s1.272 3.296 1.605 5.064c.272 1.449.305 4.461.305 4.461"/></g><g stroke="#000" stroke-linecap="round" stroke-linejoin="round" stroke-width="2.024"><path d="M216.588 196.991s-4.22 4.393-5.796 6.961c-1.597 2.601-3.002 5.45-3.56 8.316-.344 1.762.19 5.144.19 5.144s4.739-2.918 6.538-5.067c2.032-2.426 3.64-5.391 4.4-8.348.407-1.583.438-3.274-.004-4.671-.31-.976-1.768-2.335-1.768-2.335z" fill="#FF5"/><path d="M216.786 197.808s-.734 3.968-1.464 5.897c-.597 1.579-2.353 4.558-2.353 4.558"/></g><g stroke="#000" stroke-linecap="round" stroke-linejoin="round" stroke-width="2.024"><path d="M231.638 190.773s-4.976 3.512-7.012 5.735c-2.061 2.25-3.982 4.78-5.074 7.488-.672 1.665-.79 5.086-.79 5.086s5.207-1.965 7.382-3.733c2.455-1.996 4.596-4.602 5.904-7.361.7-1.477 1.052-3.132.883-4.587-.118-1.017-1.293-2.628-1.293-2.628z" fill="#FF5"/><path d="M231.678 191.613s-1.474 3.756-2.556 5.511c-.887 1.438-3.177 4.029-3.177 4.029"/></g><g stroke="#000" stroke-linecap="round" stroke-linejoin="round" stroke-width="2.024"><path d="M250.735 189.514s-5.9 1.512-8.594 2.865c-2.726 1.37-5.421 3.052-7.405 5.193-1.221 1.318-2.548 4.474-2.548 4.474s5.565.015 8.227-.864c3.004-.992 5.933-2.666 8.137-4.78 1.18-1.13 2.096-2.552 2.456-3.972.251-.992-.273-2.916-.273-2.916z" fill="#FF5"/><path d="M250.473 190.313s-2.713 2.987-4.35 4.242c-1.34 1.028-4.401 2.635-4.401 2.635"/></g><g stroke="#000" stroke-linecap="round" stroke-linejoin="round" stroke-width="2.002"><path d="M267.578 197.714s-4.832 2.642-7.47 3.318c-2.67.685-5.522 1.1-8.21.686-1.655-.256-4.575-1.909-4.575-1.909s3.619-3.642 5.927-4.677c2.606-1.167 5.606-1.741 8.42-1.492 1.505.133 3.028.67 4.188 1.569.81.628 1.72 2.505 1.72 2.505z" fill="#FF5"/><path d="M266.888 197.247s-3.715-.614-5.6-.548c-1.542.053-4.585.767-4.585.767"/></g></g><path fill="#FF5" d="M151 250.842l-3-4.794-5.66-.196 2.66-4.99-2.66-4.99 5.66-.195 3-4.794 3 4.794 5.66.196-2.66 4.99 2.66 4.99-5.66.195z"/></g></svg>