<svg width="302" height="482" xmlns="http://www.w3.org/2000/svg"><g fill="none" fill-rule="evenodd"><path d="M116.061 168.638l1.95-7.589s8.623 3.26 13.063 4.476c5.25 1.435 10.627 2.371 15.988 3.307 3.169.553 6.347 1.103 9.554 1.362 6.479.525 12.998.517 19.497.39 6.575-.13 13.143-.59 19.693-1.168 3.324-.294 6.64-.69 9.943-1.168 3.786-.547 11.309-1.945 11.309-1.945l-12.868 12.452-24.177.195-12.479 31.13 19.108 1.363-3.705 21.013s-14.706-.679-22.032-1.362c-6.782-.632-13.544-1.5-20.277-2.53-4.31-.658-8.571-1.601-12.868-2.334-3.244-.553-9.75-1.556-9.75-1.556s-2.68-6.955-4.289-10.313c-2.521-5.263-8.384-15.37-8.384-15.37l17.743 4.28 9.749-28.99-16.768-5.643z" fill="#000"/><path d="M92.023 148.678s8.463 5.504 12.974 7.746c4.211 2.094 13.081 5.293 13.081 5.293l-11.667 37.398s-6.506-9.209-10.253-13.407c-3.5-3.92-7.412-7.466-11.36-10.937-3.388-2.979-10.56-8.468-10.56-8.468l17.785-17.625zM94.39 215.345s4.468 13.467 5.303 20.463c.88 7.359.915 14.927-.353 22.228-1.127 6.486-3.58 12.731-6.364 18.7-2.499 5.357-5.353 10.672-9.192 15.17-3.308 3.875-7.518 6.92-11.668 9.88-5.245 3.74-16.617 9.878-16.617 9.878l-3.535-3.175s1.358-14.203 2.828-21.17c1.568-7.429 3.644-14.783 6.364-21.874 2.526-6.582 5.867-12.834 9.193-19.052 3.283-6.14 6.302-12.519 10.606-17.994 3.858-4.907 13.435-13.054 13.435-13.054z" fill="#55A"/><path d="M88.026 222.049s4.25 12.767 4.596 19.405c.382 7.342-.834 14.797-2.828 21.874-1.956 6.943-4.833 13.755-8.839 19.758-3.05 4.57-7.084 8.483-11.314 11.996-4.85 4.027-15.91 10.232-15.91 10.232s1.499-14.644 2.829-21.875c1.006-5.471 2.06-10.975 3.889-16.23 2.3-6.61 5.59-12.85 8.839-19.052 2.593-4.952 5.208-9.935 8.485-14.465 3.03-4.19 10.253-11.643 10.253-11.643z" fill="#F55"/><g stroke="#55A" stroke-linecap="round" stroke-linejoin="round" stroke-width="2.025"><path d="M18.765 196.592l-5.803 12.966s.831 4.22 2.535 4.974c1.027.453 2.322-.127 3.25-.885 1.187-.968 2.5-4.3 2.5-4.3l4.96-10.416" fill="#FF5"/><path d="M13.949 209.188s2.483-1.007 3.798-1.092c1.053-.069 3.129.473 3.129.473"/></g><path d="M137.208 37.069s-13.782 14.017-19.08 22.211c-5.543 8.576-9.702 18.073-12.99 27.737-2.852 8.381-4.356 17.185-5.74 25.928-.82 5.185-1.101 10.443-1.51 15.677-.393 5.018-.907 15.074-.907 15.074l45.015-41.605s-2.716-9.154-3.324-13.868c-.604-4.686-.251-9.446-.302-14.17-.067-6.33.205-12.665 0-18.993-.194-6.007-1.162-17.991-1.162-17.991z" fill="#000"/><path d="M270.778 145.43c-5.067 2.587-12.066 6.062-18.247 8.775-5.833 2.56-11.714 5.049-17.756 7.07-5.083 1.699-10.308 2.947-15.511 4.233-4.822 1.192-9.636 2.484-14.548 3.228-5.08.768-10.237.887-15.36 1.263-4.12.303-8.237.724-12.368.801-5.003.095-10.01-.118-15.006-.405-4.59-.263-9.195-.498-13.736-1.208-5.119-.801-10.147-2.117-15.157-3.43-4.317-1.132-8.584-2.448-12.827-3.83-4.652-1.514-9.352-2.94-13.84-4.887-5.264-2.281-11.74-6.16-15.276-7.925l45.292-41.962s2.742.508 4.104.805c2.589.565 2.447.945 7.73 1.855 2.495 1.035 4.165 3.563 6.645 4.635 3.023 1.305 6.377 2.033 9.67 2.026 6.29-.014 13.867-1.693 18.448-3.953 2.383-.002 4.485-.4 6.727-.615 3.11-.3 6.23-.522 9.325-.944 3.326-.454 6.69-.81 9.924-1.707 2.766-.767 5.391-1.98 8.026-3.118 2.891-1.248 8.528-4.062 8.528-4.062 3.982 6.625 9.038 15.47 17.592 23.555 4.277 4.043 9.276 9.718 13.55 12.957 4.275 3.238 11.071 5.255 14.071 6.843z" fill="#FFFF58"/><path d="M138.193 74.866s-6.095 9.713-8.584 14.864c-1.787 3.698-3.387 7.513-4.532 11.457a51.647 51.647 0 0 0-1.817 9.534c-.258 2.74.005 8.253.005 8.253l19.033-16.883s-2.644-8.555-3.323-12.964c-.725-4.705-.782-14.261-.782-14.261z" fill="#F55"/><path fill="#000" d="M195 1.361l65.5 83.992 7.833-1.663L209 1.36z"/><path d="M278 1.361a148.95 148.95 0 0 0-2 29.938c.348 10.147 1.752 20.316 5 29.938a80.783 80.783 0 0 0 10 19.958 76.101 76.101 0 0 0-23 1.996L209 1.36h69" stroke="#55A" stroke-width="2" fill="#FF5" stroke-linecap="round" stroke-linejoin="round"/><path d="M244.592 26.779c.396.989.852 1.978 1.518 2.804.88 1.089 1.844 2.307 3.192 2.736 1.695.54 3.992.724 5.39-.449 1.364-1.143 1.79-3.427 1.347-5.095-.512-1.925-4.227-4.175-4.227-4.175s4.728-1.577 5.556-3.605c.777-1.904-.034-4.443-1.44-5.867-1.387-1.403-3.928-2.336-5.796-1.515-2.098.921-3.3 6.01-3.3 6.01s-.838-3.745-2.05-5.118c-1.078-1.22-2.628-2.412-4.291-2.376-1.475.033-3.177.956-3.867 2.275-1.085 2.076-.611 4.957.625 6.864 1.24 1.911 5.998 3.335 5.998 3.335s-1.275-2.697.982-4.254c1.804-1.244 5.046.238 6.047 2.103.847 1.58.4 4.61-1.3 5.337-3.395 1.45-5.119-1.718-5.119-1.718s.389 1.842.735 2.708zM264.168 53.96c.353.894.76 1.789 1.355 2.536.784.985 1.645 2.087 2.847 2.475 1.513.487 3.562.654 4.81-.407 1.217-1.033 1.597-3.099 1.202-4.607-.457-1.741-3.772-3.776-3.772-3.776s3.707-1.823 4.29-3.593c.57-1.728.011-4.026-1.284-5.306-1.096-1.082-3.1-1.67-4.505-1.038-1.881.848-2.945 5.436-2.945 5.436s-.747-3.387-1.83-4.629c-.96-1.103-2.344-2.181-3.827-2.148-1.316.029-2.835.864-3.45 2.057-.968 1.877-.546 4.483.558 6.207 1.106 1.73 5.351 3.017 5.351 3.017s-1.137-2.44.876-3.848c1.61-1.125 4.503.216 5.395 1.903.756 1.428.358 4.17-1.16 4.826-3.029 1.311-4.567-1.554-4.567-1.554s.347 1.666.656 2.45z" stroke="#000100" stroke-width="2" fill="#000" stroke-linecap="round" stroke-linejoin="round"/><path d="M218.333 3.025s.588 11.204 5.5 16.798c4.723 5.378 10.278 5.6 15.167 5.156 0 0-2.3 13.112 2 18.461 4.664 5.802 20 10.312 20 10.312s-3.58 10.027 1.333 16.965c2.72 3.842 11.834 9.48 11.834 9.48" stroke="#000" stroke-width="2" stroke-linecap="round" stroke-linejoin="round"/><path d="M223.094 1.998c-.69.002-1.34.54-1.469 1.216 0 0-1.823 8.316 4.063 14.19.91.908 2.217 1.69 3.812 2.556 1.595.868 3.437 1.757 5.188 2.558 3.054 1.397 5.149 2.195 5.812 2.463.003.705-.023 2.227.375 5.021.48 3.368 1.087 8.143 3.323 11.3 4.14 5.845 8.887 8.346 12.302 10.03 2.235 1.103 3.76 1.488 4.781 1.685.099.767.278 2.42.844 5.27.683 3.44 1.614 7.353 3.188 9.886 1.649 2.653 4.928 5.485 7.875 7.827 2.946 2.342 5.562 4.116 5.562 4.116.654.441 1.652.248 2.094-.405.442-.653-3.085-3.145-3.74-3.586 0 0-2.356-3.357-2.875-6.788-2.852-2.268-4.934-2.318-6.552-4.387-1.584-2.026-1.956-3.94-2.615-7.256-.658-3.316-1-6.112-1-6.112-.083-.68-.69-1.258-1.375-1.31 0 0-5.7-1.431-7.843-3.284-2.471-2.138-5.685-2.955-5.042-8.4-1.73-2.443-5.512-5.89-5.958-9.023-.446-3.132-.438-5.55-.438-5.55a1.536 1.536 0 0 0-.937-1.435s-3.108-1.24-6.531-2.807c-1.712-.783-3.8-1.047-5-2.463-1.468-1.732-1.552-6.111-1.959-6.518-4.655-4.646-4.417-6.954-4.417-6.954.208-.878-.564-1.845-1.468-1.84z" fill="#000"/><path stroke="#55A" stroke-width="2" fill="#F55" d="M182 1.361h13.333L301 139.74v32.266z"/><path d="M157.993 1.361s1.77 11.273 14.652 22.129c12.881 10.855 34.358 15.197 34.358 15.197" stroke="#55A" stroke-width="2" stroke-linecap="round" stroke-linejoin="round"/><path d="M163.16 1.361s5.213 11.806 12.429 17.806c7.216 6 27.532 13.087 27.532 13.087" stroke="#55A" stroke-width="2" stroke-linecap="round" stroke-linejoin="round"/><path d="M169.267 1.361s4.41 10.038 9.792 14.61c5.382 4.571 19.925 10.51 19.925 10.51" stroke="#55A" stroke-width="2" stroke-linecap="round" stroke-linejoin="round"/><path d="M174.288 1.361s2.732 6.818 7.03 10.361c4.298 3.543 12.89 7.375 12.89 7.375M159.939 8.884s-.84 4.077-6.144 12.93-15.747 12.606-15.747 12.606M156.051 1.361s-.173 7.034-4.997 14.531c-4.824 7.497-12.941 11.291-12.941 11.291M150.68 1.361s-1.933 7.443-4.509 12.014c-2.575 4.572-7.86 7.882-7.86 7.882M144.554 1.361s.18 4.392-1.943 7.935c-2.123 3.543-3.59 3.976-3.59 3.976M157.405 54.72s.59 2.576.53 3.88c-.162 3.568-1.195 7.082-2.408 10.443-.795 2.204-3 3.943-3.158 6.28-.132 1.943.616 4.056 1.896 5.526.901 1.035 2.64.963 3.676 1.864.839.73 1.906 2.734 1.906 2.734" stroke="#55A" stroke-width="2" stroke-linecap="round" stroke-linejoin="round"/><path d="M169.748 73.991s3.324 3.552 2.859 5.592c-.304 1.333-1.914 2.278-3.268 2.486-1.78.274-3.4-1.186-5.082-1.824-1.594-.604-3.127-2.426-4.747-1.898-.652.213-1.417 1.14-1.09 1.74.536.982 2.243-.014 3.362.053 3.394.204 7.438 3.112 10.144 1.059.871-.661.78-2.164.545-3.231-.346-1.568-2.723-3.977-2.723-3.977h0zM203.2 51.03s-9.207-6.268-14.497-7.633c-4.162-1.074-8.739-1.366-12.893-.265-1.672.442-4.451 2.658-4.451 2.658s4.075-1.308 6.188-1.535c4.27-.46 8.714-.674 12.878.374 4.62 1.164 12.776 6.401 12.776 6.401zM139.27 45.52s5.568-2.974 8.54-2.648c3.705.405 9.588 5.514 9.588 5.514s-6.24-4.249-9.86-4.36c-3.038-.093-8.505 3.145-8.505 3.145l.238-1.65zM174.94 94.139s-4.704-1.872-7.154-2.04c-1.84-.127-3.647.695-5.488.784-2.101.1-4.257-.852-6.305-.292-1.12.307-3.03 1.933-3.03 1.933s2.086-.46 3.137-.397c2.136.128 4.137 1.562 6.276 1.565 2.36.004 4.55-1.453 6.93-1.709 1.87-.2 5.634.156 5.634.156z" stroke="#55A" stroke-width="2" fill="#55A" stroke-linecap="round" stroke-linejoin="round"/><path d="M168.578 98.991s-3.943 1.369-5.99 1.412c-1.754.038-5.174-.988-5.174-.988M156.626 54.151s-5.032-4.097-9.65-4.196c-4.941-.107-7.894 2.518-7.894 2.518M199.614 56.293s-9.864-7.31-15.527-7.148c-7.42.214-12.961 5.548-12.961 5.548" stroke="#55A" stroke-width="2" stroke-linecap="round" stroke-linejoin="round"/><path d="M200.705 57.865c-5.852-.756-10.154-3.292-15.541-3.752-4.62-.393-13.943 1.035-13.943 1.035M138.453 57.937c5.387-2.536 4.233-3.343 9.62-3.802 4.62-.394 9.446 2.22 9.446 2.22M197.469 58.323c-5.267 1.197-10.77 5.07-16.728 5.367-4.415.22-9.15-2.808-9.54-6.883" stroke="#55A" stroke-width="2" stroke-linecap="round" stroke-linejoin="round"/><path d="M186.381 55.644c.937 5.053-4.018 6.545-7.578 6.109-2.415-.296-4.654-3.253-3.492-6.141" stroke="#55A" stroke-width="2" stroke-linecap="round" stroke-linejoin="round"/><path d="M178.132 58.485c-.098-.915.746-2.175 1.706-2.225.84-.044 1.724.975 1.706 1.78-.02.84-.984 1.759-1.86 1.78-.696.018-1.48-.673-1.552-1.335zM149.558 58.79c.026-.716-.847-1.642-1.742-1.622-.784.016-1.533.86-1.46 1.483.078.65 1.04 1.304 1.855 1.268.648-.028 1.327-.612 1.347-1.13z" stroke="#55A" stroke-width="2" fill="#55A" stroke-linecap="round" stroke-linejoin="round"/><path d="M155.968 62.646c-2.093 2.455-2.244 4.634-6.58 6.715M170.941 55.182c1.605 7.107 3.45 11.343 8.597 13.494M138.55 60.652c2.856 1.8 6.512 2.863 11.176 2.742 3.455-.09 6.968-2.533 7.03-5.485" stroke="#55A" stroke-width="2" stroke-linecap="round" stroke-linejoin="round"/><path d="M143.826 55.352c-1.112 4.889 1.095 7.52 5.143 7.438 1.78-.037 5.422-4.031 2.747-7.829" stroke="#55A" stroke-width="2" stroke-linecap="round" stroke-linejoin="round"/><path d="M140 1.361s-2.295 21.925-2.5 32.932c-.161 8.653.745 17.294 1 25.946.24 8.148-.41 16.348.5 24.449.645 5.737.935 11.79 3.5 16.964 2.252 4.544 5.707 8.767 10 11.477 3.657 2.308 8.179 3.266 12.5 3.492 4.39.23 8.832-.811 13-2.204 5.696-1.904 10.985-4.974 16-8.274 5.042-3.317 9.857-7.09 14-11.476 3.11-3.292 8-10.977 8-10.977M137.353 107.582c4.67 2.402 8.817 2.826 11.95 3.185M182.062 113.144c7.264-1.35 16.236-2.194 24.14-4.264 6.644-1.74 12.96-4.548 19.44-6.822M213.893 87.988l5.981 15.776M210.475 92.252l4.913 13.004M206.63 96.942l3.204 9.38M202.784 100.353l2.99 7.461M198.725 103.764l2.777 6.182M194.88 106.535l1.709 3.624M215.815 51.321c-.997 1.848-2.225 3.588-2.99 5.543-1.044 2.665-1.425 5.542-2.137 8.314M219.874 57.29c-1.282 2.558-2.91 4.971-3.845 7.675-1.163 3.359-1.424 6.964-2.136 10.446M223.506 62.62c-1.14 2.7-2.59 5.29-3.418 8.1-1.284 4.36-1.567 8.954-2.35 13.431M227.565 67.736c-1.353 3.482-3.28 6.793-4.06 10.446-1.201 5.637-.569 11.512-.854 17.268M231.837 73.279c-1.21 2.558-2.972 4.923-3.632 7.674-1.756 7.329-.427 15.065-.64 22.597M236.11 78.821c-1.282 3.198-3.34 7.208-3.846 11.086-.985 7.56 1.14 15.207 1.71 22.81M239.955 85.643c-1.068 3.411-2.237 8.888-2.35 13.43-.187 7.517 1.567 13.857 2.777 22.385M244.655 92.252c-.712 4.76-.911 8.957-.641 13.43.512 8.49 2.136 16.984 4.272 25.156M250.209 100.353c-.142 4.477-.633 9.564 0 14.283 1.078 8.03 4.13 15.349 6.409 23.45M257.045 110.16c-.285 3.268-.283 7.878.427 11.724 1.322 7.16 3.347 13.502 7.05 20.679M263.24 119.113c.499 3.695.386 7.525 1.495 11.085 1.684 5.402 5.484 10.446 7.691 15.136" stroke="#55A" stroke-width="2" stroke-linecap="round" stroke-linejoin="round"/><g stroke="#55A" stroke-linecap="round" stroke-linejoin="round" stroke-width="2"><path d="M60.797 178.953s-4.405-5.198-6.869-7.585c-2.594-2.513-5.292-4.97-8.3-7.063-2.317-1.612-4.681-3.483-7.44-4.185-1.629-.414-3.485-.561-5.04.071-1.144.465-2.42 1.342-2.688 2.545-.508 2.287 1.102 4.717 2.576 6.54 1.495 1.847 3.768 2.985 5.946 3.942 1.314.578 2.915.901 4.182 1.035.829 2.596-1.655 2.004-1.127 7.124.154 1.501.362 3.56.362 3.56"/><path d="M34.467 164.707s.488 1.661 1.145 2.214c.6.505 1.483.777 2.29.785.79.008 2.26-.724 2.26-.724M29.888 161.951s-3.967-1.81-5.724-1.046c-1.849.805-2.854 3.098-2.862 4.97-.011 2.847 2.778 5.106 4.293 7.585.922 1.508 1.534 3.323 2.915 4.426 1.353 1.081 3.172 2.2 4.865 1.831 1.323-.287 2.387-1.612 2.862-2.877.424-1.129.583-2.72-.232-3.61-1.095-1.195-3.223-1.088-4.808-.745-.847.183-1.634.747-2.174 1.423-.554.696-.926 2.5-.926 2.5"/><path d="M20.444 167.183s-2.803.854-3.72 1.83c-.925.984-1.49 2.368-1.432 3.663.097 2.105 1.55 4.022 2.862 5.754 1.537 2.027 3.545 3.84 5.724 5.232 1.616 1.032 3.417 1.902 5.31 2.222 1.413.24 3.31.78 4.292-.261.838-.89.606-2.602 0-3.662-.457-.8-1.498-1.144-2.383-1.408-1.2-.357-2.707-.856-3.756-.171-.94.613-1.209 3.139-1.209 3.139"/><path d="M15.865 177.122s-3.484 2.207-3.72 3.924c-.16 1.16.905 2.234 1.717 3.139 2.068 2.306 4.948 3.93 7.727 5.493 1.708.96 3.432 2.332 5.437 2.354.94.01 2.108-.301 2.576-1.046.43-.685.088-1.643-.286-2.354-.702-1.334-1.816-3.188-3.435-3.14-1.013.032-1.604 1.241-2.003 2.093-.415.886-.286 2.878-.286 2.878"/><path d="M14.148 186.277s-1.257 2.041-1.145 3.14c.182 1.787 1.484 3.428 2.862 4.708 1.786 1.659 4.173 2.835 6.617 3.49 1.272.34 2.96.955 3.972.172 1.245-.966 1.326-3.123.572-4.447-.65-1.142-2.328-2.028-3.72-1.831-1.05.148-1.724 1.233-2.22 2.092-.5.866-.642 2.878-.642 2.878M25.737 199.221s.874 1.361 1.478 1.882c.568.49 1.27.814 1.957 1.117 1.364.603 4.257 1.38 4.257 1.38"/></g><g stroke="#55A" stroke-linecap="round" stroke-linejoin="round" stroke-width="2"><path d="M34.66 161.738s-5.516 1.208-8.307 1.105c-2.126-.08-4.32-.41-6.247-1.308-2.09-.973-3.978-2.488-5.437-4.272-1.634-1.996-3.482-6.91-3.482-6.91s4.352.923 6.564 1.08c2.385.168 4.795-.402 7.174-.157 1.774.183 3.53.611 5.21 1.205 1.347.475 2.71 1.014 3.852 1.868 1.117.836 2.043 1.934 2.814 3.095.644.97 1.47 3.168 1.47 3.168l-3.611 1.126z" fill="#FF5"/><path d="M19.624 156.064s2.932 1.518 4.51 1.966c2.384.676 4.918.64 7.363 1.05 1.824.305 5.447 1.048 5.447 1.048"/></g><path stroke="#55A" stroke-width="2" fill="#FF5" stroke-linecap="round" stroke-linejoin="round" d="M37.526 159.179l.888-10.3 3.068-2.7 2.653 2.675-.592 13.731z"/><g stroke="#55A" stroke-linecap="round" stroke-linejoin="round" stroke-width="2.004"><path d="M45.455 162.932s1.782-4.022 3.316-5.61c1.779-1.839 4.136-3.18 6.52-4.216 2.225-.966 4.79-.913 7.061-1.772 2.124-.803 6.04-3.123 6.04-3.123s-.425 4.766-1.477 6.868a15.21 15.21 0 0 1-4.913 5.644c-2.756 1.886-6.124 2.614-9.33 3.306-1.435.31-2.951.637-4.365.365-1.07-.207-2.852-1.462-2.852-1.462z" fill="#FF5"/><path d="M46.506 162.8s3.198-2.678 5.068-3.457c2.187-.912 4.747-.349 6.916-1.31 1.589-.702 4.218-3.15 4.218-3.15"/></g><path stroke="#55A" stroke-width="2" fill="#55A" stroke-linecap="round" stroke-linejoin="round" d="M51.4 130.781l5.842-4.128 5.616 3.12-5.644 4.65zM37.641 122.617l-4.28-5.74 3.977-5.724 4.306 5.647zM21.828 131.458l-5.474 4.466L23.029 139l4.062-4.407z"/><path d="M24.687 136.801c-1.125 2.21-2.668 4.564-2.462 7.02.156 1.852 1.295 3.664 2.718 4.943 1.855 1.668 4.486 2.579 6.984 3.023 1.215.216 2.561.275 3.696-.208 2.253-.96 5.374-5.002 5.374-5.002s2.912 2.573 4.725 3.053c2.808.744 6.146.896 8.701-.482 1.788-.964 3.038-2.953 3.619-4.896.63-2.109.292-4.493-.368-6.592-.41-1.302-1.193-2.513-2.154-3.484-1.42-1.436-5.12-3.244-5.12-3.244s4.175-2.922 5.416-5.056c.846-1.454 1.338-3.235 1.168-4.908-.168-1.655-.971-3.276-2.109-4.526-1.312-1.441-3.103-2.803-5.1-3.053-2.49-.311-5.14.695-7.202 2.11-1.098.755-1.71 2.05-2.422 3.176-.935 1.48-2.405 4.67-2.405 4.67s-2.745-3.514-4.619-4.631c-2.374-1.417-5.197-2.723-7.953-2.366-1.734.224-3.445 1.276-4.404 2.706-1.174 1.75-1.236 4.143-1.012 6.237.211 1.982.946 4.004 2.183 5.57 1.208 1.528 4.803 3.335 4.803 3.335-.41 1.38-1.326 1.435-2.057 2.605z" stroke="#55A" stroke-width="2" fill="#FF5" stroke-linecap="round" stroke-linejoin="round"/><path d="M37.487 127.298c-3.015.395-6.114 4.009-5.8 7.027.32 3.072 4.179 6.17 7.25 5.788 3.179-.396 6.282-4.488 5.8-7.648-.449-2.93-4.306-5.554-7.25-5.167z" stroke="#55A" stroke-width="2" fill="#F55" stroke-linecap="round" stroke-linejoin="round"/><path d="M28.58 125.644l4.143 3.514M46.808 123.784l-4.143 5.167M43.908 136.806l4.97 3.72M35.209 139.08l-4.35 5.58" stroke="#55A" stroke-width="2" fill="#000" stroke-linecap="round" stroke-linejoin="round"/><path d="M153.718 137.843l-2.476 13.147 13.06 1.213 1.167-12.897-11.751-1.463zm5.376 4.108l3.187 3.173-3.531 2.838-3.094-3.18 3.438-2.831z" fill="#000" fill-rule="nonzero"/><path d="M144.5 124.212l-3.811 12.121 12.957 2.65 2.503-12.795-11.649-1.976zm4.35 3.287l3.187 3.174-3.532 2.838-3.093-3.181 3.437-2.83z" fill="#000" fill-rule="nonzero"/><path d="M129.883 131.902l-5.142 11.923 13.073 4.397 3.733-12.705-11.664-3.615zm4.705 5.101l2.303 3.862-4.125 1.879-2.21-3.846 4.032-1.895z" fill="#000" fill-rule="nonzero"/><path d="M113.287 138.657l-4.706 10.731 11.892 5.523 5.102-11.315-12.288-4.94zm5.734 4.851l1.933 4.059-4.281 1.488-1.843-4.034 4.191-1.513zM126.594 117.382l-5.127 4.215-3.073 5.856 11.787 4.717 4.526-10.388-8.113-4.4zm1.52 4.057l1.786 4.126-4.332 1.333-1.696-4.097 4.243-1.362zM137.709 147.582l-3.46 11.307 14.344 3.114 2.777-11.616-13.661-2.805zm5.533 4.297l3.072 3.285-3.63 2.71-2.978-3.29 3.536-2.705zM166.885 127.186l-1.705 12.697 13.19.14.699-12.719-12.184-.118zm5.897 3.447l3.273 3.086-3.453 2.933-3.179-3.096 3.359-2.923zM163.967 151.53l-1.566 11.912 14.334.723.556-12.219-13.324-.417zm6.483 3.756l3.328 3.026-3.398 2.995-3.236-3.037 3.306-2.984z" fill="#000" fill-rule="nonzero"/><path d="M177.834 139.707l-.959 12.681 13.628-.39-.879-12.23-11.79-.06zm5.878 3.178l3.419 2.924-3.306 3.096-3.326-2.938 3.213-3.082zM188.977 127.3l.714 12.76 12.563-2.24-1.534-11.465-11.743.944zm5.995 3.242l3.68 2.59-3 3.393-3.588-2.612 2.908-3.37z" fill="#000" fill-rule="nonzero"/><path d="M190.3 151.561l.735 11.227 13.57-2.214-1.345-11.323-12.96 2.31zm6.339 2.004l3.973 1.784-2.553 3.157-3.886-1.814 2.466-3.127zM217.39 146.208l2.688 12.148 14.084-4.263-4.633-11.939-12.138 4.054zm7.162 1.286l3.973 1.784-2.553 3.156-3.886-1.813 2.466-3.127zM241.946 138.469l3.493 10.77 12.226-4.527-5.395-10.215-10.324 3.972zm6.6.81l4.234 1.028-1.93 3.57-4.153-1.072 1.85-3.526z" fill="#000" fill-rule="nonzero"/><path d="M225.91 131.317l3.423 11.067 12.726-3.95-4.605-11.943-11.544 4.826zm5.781.79l4.237 1.014-1.92 3.576-4.156-1.06 1.84-3.53zM211.048 123.396l2.776 11.664 12.288-3.982-4.192-11.64-10.872 3.958zm6.495 1.422l4.119 1.418-2.257 3.374-4.034-1.454 2.172-3.338z" fill="#000" fill-rule="nonzero"/><path d="M201.98 137.596l1.456 11.739 14.186-2.726-3.4-11.939-12.241 2.926zm6.34 2.516l3.974 1.785-2.554 3.156-3.886-1.813 2.466-3.128z" fill="#000" fill-rule="nonzero"/><path fill="#000" d="M113.592 138.876l5.034-11.687-1.849-.718-10.581 9.124zM231.837 115.501l5.445 10.97 4.52-1.845-8.013-10.15z"/><path d="M127.27 117.261c10.668 6.426 22.886 8.49 34.885 10.118 8.61 1.169 17.421.577 26.062-.323a141.313 141.313 0 0 0 25.354-5.016c6.56-1.94 12.863-4.692 19.059-7.601M260.914 142.312c-5.068 2.587-9.984 5.493-15.203 7.762-3.794 1.649-7.735 2.947-11.667 4.233-4.784 1.565-9.607 3.035-14.496 4.234-4.668 1.146-9.384 2.137-14.142 2.823-4.684.674-9.736 1.36-14.45 1.776-4.596.406-8.871.492-13.48.694-4.593.2-9.199.228-13.79 0a144.44 144.44 0 0 1-14.142-1.412c-4.754-.71-9.486-1.628-14.142-2.822-4.548-1.167-9.009-2.667-13.435-4.234-4.537-1.607-9.038-3.334-13.435-5.292-3.61-1.608-7.07-3.529-10.606-5.293" stroke="#55A" stroke-width="2" stroke-linecap="round" stroke-linejoin="round"/><path d="M228.631 106.672s-12.747 5.848-19.444 7.86c-6.88 2.067-13.99 3.43-21.125 4.272-6.976.824-14.055 1.25-21.062.749-7.317-.523-14.576-1.985-21.656-3.898-4.218-1.14-12.313-4.491-12.313-4.491l-2.26 2.398s9.073 3.695 13.792 4.962c7.268 1.95 14.678 3.48 22.218 4.022 7.24.52 14.484.073 21.656-.78 7.305-.867 14.582-2.277 21.625-4.396 6.965-2.096 20.229-8.174 20.229-8.174l-1.66-2.524z" fill="#000"/><path d="M209.714 41.355s-.905 14.682.286 21.878c1.142 6.901 3.788 13.507 6.5 19.958 3.49 8.3 7.674 16.346 12.5 23.95 3.246 5.115 7.012 9.907 11 14.47 5.422 6.204 10.707 12.792 17.5 17.464 4.361 2.999 9.582 4.523 14.5 6.486 4.709 1.88 14.345 5.058 14.345 5.058" stroke="#55A" stroke-width="2" stroke-linecap="round" stroke-linejoin="round"/><path d="M74.406 166.611S88.258 176.703 94 182.983c5.329 5.828 13.5 19.46 13.5 19.46s-14.793 12.213-21 19.459c-7.179 8.38-13.32 17.705-18.5 27.443-4.382 8.238-8.005 16.957-10.5 25.946-1.712 6.166-2.17 12.616-3 18.96-.63 4.808-1.5 14.47-1.5 14.47L1 258.825v-25.447" stroke="#000" stroke-width="2" fill="#FFFF58" stroke-linecap="round" stroke-linejoin="round"/><path d="M8 236.87l68-62.37s8.806 7.587 12.58 11.976c3.572 4.156 9.42 13.472 9.42 13.472s-11.816 11.554-17 17.962c-6.475 8.005-12.448 16.48-17.5 25.447-3.583 6.36-6.58 13.074-9 19.959-1.993 5.672-3.552 11.528-4.5 17.463-.815 5.103-1 15.468-1 15.468L8.5 255.831l-.5-18.96z" stroke="#000" stroke-width="2" fill="#000" stroke-linecap="round" stroke-linejoin="round"/><path d="M62.297 192.942c-.06-1.624 1.15-4.738 1.15-4.738s2.866 1.49 4.078 2.534c1.26 1.087 3.228 3.806 3.228 3.806s1.294-2.91 2.24-4.175c1.065-1.424 3.796-3.75 3.796-3.75s1.452 3.16 1.627 4.86c.206 2-.71 5.99-.71 5.99s3.393-1.641 5.225-1.976c1.736-.317 5.295.002 5.295.002s-1.762 3.624-3.034 5.162c-1.297 1.57-4.59 4.032-4.59 4.032s2.356.826 3.283 1.618c1.072.916 2.435 3.455 2.435 3.455s-2.593 1.544-4.042 1.869c-1.268.285-3.9.033-3.9.033s.837 2.79.85 4.226c.013 1.576-.85 4.65-.85 4.65s-2.46-1.166-3.443-2.076c-1.092-1.01-2.593-3.63-2.593-3.63s-1.138 3.954-2.22 5.672c-1.242 1.97-4.77 5.107-4.77 5.107s-.707-4.827-.69-7.257c.014-2.007.654-5.986.654-5.986s-3.08 1.634-4.746 2.097c-1.742.484-5.383.684-5.383.684s.941-3.853 1.99-5.496c1.183-1.853 4.681-4.649 4.681-4.649s-2.949-.718-4.306-1.371c-1.658-.799-4.59-3.067-4.59-3.067s3.269-2.53 5.225-2.945c1.897-.403 5.791.552 5.791.552-1.404-1.178-1.615-3.403-1.681-5.233z" fill="#FFFF58"/><path d="M70.031 197.671c-1.567.126-3.07 1.147-4.094 2.34-1.023 1.191-1.744 2.828-1.687 4.396.066 1.813 1.034 3.638 2.313 4.927 1.268 1.28 3.071 2.348 4.874 2.34 1.72-.01 3.445-1.03 4.626-2.277 1.189-1.256 2.12-3.046 2.03-4.772-.097-1.886-1.317-3.723-2.75-4.958-1.43-1.235-3.426-2.147-5.312-1.996zm.156 1.996c1.385-.112 2.826.62 3.876 1.528 1.032.894 1.964 2.193 2.03 3.555.059 1.195-.644 2.406-1.468 3.275-.83.874-2.012 1.652-3.219 1.652-1.276 0-2.513-.836-3.406-1.746-.932-.95-1.7-2.257-1.75-3.586-.04-1.096.506-2.222 1.219-3.056.684-.802 1.666-1.536 2.719-1.622z" fill="#000" fill-rule="nonzero"/><path d="M28.183 239.245v-8.56s6.303-.7 8.26-2.853c1.83-2.013 1.906-7.926 1.906-7.926h12.072l-22.238 19.339zM42.904 233.145c-1.274 1.287-.72 4.188.635 5.39 1.346 1.194 4.128 1.27 5.401 0 1.123-1.121 1.063-3.578 0-4.756-1.354-1.5-4.614-2.07-6.036-.634zM61.858 230.685l-16.837 20.924 9.213-1.903s-.242-5.34 1.27-7.291c1.566-2.02 6.99-3.17 6.99-3.17l-.636-8.56zM12.617 256.681c3.376.697 6.877.769 9.53 5.072.39-7.219 4.254-10.972 7.943-14.9 2.067 5.178 3.168 10.356 0 15.534 5.736-5.003 10.539-2.559 15.566-1.902-2.356 4.597-5.393 8.741-11.119 11.096 3.926 3.22 5.42 7.652 6.354 12.364-1.906-.444-3.812-.694-5.718-2.219l-20.015-19.973c-1.12-1.69-1.774-3.381-2.541-5.072z" fill="#FFFF58"/><path d="M26.438 263.316c-1.332-.397-2.86.144-4.094.78-1.205.62-2.333 1.616-2.938 2.806l1.6 1.085c.346-.68 1.355-1.639 2.275-2.114.86-.445 1.919-.877 2.844-.593 1.535.472 2.743 1.976 3.344 3.462.577 1.427.164 3.086 0 4.615-.11 1.026-.657 3.025-.657 3.025l1.912 1.41s.606-2.733.713-4.123c.145-1.866.653-3.896-.093-5.613-.906-2.084-2.725-4.09-4.907-4.74z" fill="#000"/><path d="M108.24 203.42s7.784 14.984 9.848 23.09c1.6 6.285 2.03 12.884 1.854 19.365-.24 8.781-1.342 17.664-3.936 26.058-2.61 8.446-6.599 16.547-11.525 23.892-4.867 7.257-17.526 19.506-17.526 19.506" stroke="#000" stroke-width="2" stroke-linecap="round" stroke-linejoin="round"/><path d="M104.746 206.274s6.076 12.37 7.624 19.021c1.898 8.156 2.341 16.684 1.906 25.045a86.642 86.642 0 0 1-3.927 21.593 87.567 87.567 0 0 1-9.265 19.99c-4.126 6.576-9.139 12.663-14.764 18.018-2.958 2.816-9.848 7.292-9.848 7.292" stroke="#000" stroke-width="2" stroke-linecap="round" stroke-linejoin="round"/><path d="M100.933 209.761s4.708 11.432 6.036 17.437c1.47 6.641 2.335 13.501 2.083 20.298-.289 7.791-1.792 15.581-4.103 23.029-2.178 7.016-5.057 13.939-9.099 20.078-4.321 6.565-10 12.218-15.884 17.436C75.2 312.267 64.4 319.135 64.4 319.135" stroke="#000" stroke-width="2" stroke-linecap="round" stroke-linejoin="round"/><path d="M97.174 212.148s3.607 9.055 4.712 13.782c1.288 5.506 2.073 11.167 2.198 16.82.148 6.721-.163 13.556-1.73 20.095a75.565 75.565 0 0 1-8.41 20.783c-3.752 6.337-8.562 12.122-13.978 17.12-6.146 5.672-20.65 14.266-20.65 14.266" stroke="#000" stroke-width="2" stroke-linecap="round" stroke-linejoin="round"/><path stroke="#55A" stroke-width="2" fill="#000" stroke-linecap="round" stroke-linejoin="round" d="M142.288 102.252l-15.49 14.232-29.902 27.56-35.046 33.071-29.902 28.7L1 234.135"/><path fill="#F55" d="M113.128 177.24l17.325 4.587-7.025 21.338-17.294-4.234z"/><path d="M151.773 170.86l-6.64 2.024 3.873 3.498-5.349 2.393 3.505 3.865-6.456 2.577 3.32 4.234-6.456 2.025 4.058 4.418-5.903 2.025 2.583 4.602c-1.476 1.104-3.147 2.209-4.622 3.313 7.132 1.166 14.46 2.332 21.592 3.498l-2.582-4.786 4.242-2.21-2.398-5.522 6.272-2.393-2.767-5.89 5.903-1.105-3.874-4.97 5.903-1.472-3.136-4.234 5.903-2.393c-1.637-.789-3.245-1.676-4.9-2.403l-12.07-1.095z" fill="#FF5"/><path d="M153.423 171.045c-2.37 5.552-5.334 11.408-7.697 17.241-2.557 6.314-4.865 13.382-7.005 19.197M162.616 172.121c-2.798 6.046-5.394 12.12-7.704 18.334-2.154 5.796-4.05 11.696-5.729 17.643" stroke="#000" stroke-width="2" stroke-linecap="round" stroke-linejoin="round"/><path d="M157.075 171.872c-.754.103-1.54 1.1-1.35 1.835.189.733 1.356 1.224 2.064.952.566-.217.865-1.084.714-1.67-.15-.585-.829-1.2-1.428-1.117zM154.418 178.241c-.756.104-1.551 1.097-1.364 1.835.189.743 1.374 1.25 2.09.972.573-.221.867-1.104.71-1.697-.154-.584-.836-1.192-1.436-1.11zM151.467 184.777c-.768.123-1.561 1.172-1.331 1.914.229.739 1.468 1.151 2.17.827.537-.248.762-1.103.591-1.667-.172-.57-.841-1.169-1.43-1.074zM149.18 191.27c-.758.097-1.555 1.091-1.374 1.832.18.743 1.35 1.263 2.069.999.576-.213.888-1.09.74-1.685-.146-.594-.827-1.223-1.435-1.145zM146.869 197.693c-.786.139-1.62 1.222-1.352 1.972.27.755 1.614 1.072 2.313.677.497-.281.627-1.12.432-1.657-.195-.535-.832-1.092-1.393-.992zM144.483 204.127c-.769.12-1.57 1.164-1.343 1.907.227.74 1.472 1.155 2.177.828.535-.248.754-1.104.583-1.668-.172-.565-.832-1.158-1.417-1.067z" fill="#000"/><path fill="#F55" d="M176.408 187.39l19.858.306-9.754 24.062-19.048-1.51z"/><g><path d="M185.939 313.087l-1.95 7.589s-8.623-3.261-13.063-4.476c-5.25-1.435-10.627-2.371-15.988-3.307-3.169-.553-6.347-1.103-9.554-1.362-6.479-.525-12.998-.517-19.497-.39-6.575.13-13.143.59-19.693 1.168-3.324.294-6.64.69-9.943 1.167-3.786.548-11.309 1.946-11.309 1.946L97.81 302.97l24.177-.195 12.479-31.13-19.108-1.363 3.705-21.013s14.706.679 22.032 1.362c6.782.632 13.544 1.5 20.277 2.529 4.31.66 8.571 1.602 12.868 2.335 3.244.553 9.75 1.556 9.75 1.556s2.68 6.955 4.289 10.313c2.521 5.263 8.384 15.37 8.384 15.37l-17.743-4.28-9.749 28.99 16.768 5.643z" fill="#000"/><path d="M209.977 333.047s-8.463-5.504-12.974-7.746c-4.211-2.094-13.081-5.293-13.081-5.293l11.667-37.398s6.506 9.208 10.253 13.407c3.5 3.92 7.412 7.466 11.36 10.937 3.388 2.979 10.56 8.468 10.56 8.468l-17.785 17.625zM207.61 266.38s-4.468-13.467-5.303-20.463c-.879-7.359-.915-14.927.353-22.228 1.127-6.486 3.58-12.731 6.364-18.7 2.499-5.357 5.353-10.672 9.192-15.17 3.308-3.875 7.518-6.92 11.668-9.88 5.245-3.74 16.617-9.878 16.617-9.878l3.535 3.175s-1.358 14.203-2.828 21.169c-1.568 7.43-3.644 14.784-6.364 21.875-2.526 6.582-5.867 12.834-9.193 19.052-3.283 6.14-6.302 12.519-10.606 17.994-3.858 4.907-13.435 13.054-13.435 13.054z" fill="#55A"/><path d="M213.974 259.676s-4.25-12.767-4.596-19.405c-.382-7.342.834-14.797 2.828-21.874 1.956-6.944 4.833-13.755 8.839-19.758 3.05-4.57 7.084-8.483 11.314-11.996 4.85-4.027 15.91-10.232 15.91-10.232s-1.499 14.644-2.829 21.875c-1.006 5.471-2.06 10.975-3.889 16.23-2.3 6.61-5.59 12.85-8.839 19.052-2.593 4.952-5.208 9.935-8.485 14.465-3.03 4.19-10.253 11.643-10.253 11.643z" fill="#F55"/><g stroke="#55A" stroke-linecap="round" stroke-linejoin="round" stroke-width="2.025"><path d="M283.235 285.133l5.803-12.966s-.831-4.22-2.535-4.974c-1.027-.453-2.322.127-3.25.885-1.187.968-2.5 4.3-2.5 4.3l-4.96 10.416" fill="#FF5"/><path d="M288.051 272.537s-2.483 1.007-3.798 1.092c-1.053.069-3.129-.473-3.129-.473"/></g><path d="M164.792 444.656s13.782-14.017 19.08-22.211c5.543-8.576 9.702-18.073 12.99-27.737 2.852-8.381 4.356-17.185 5.74-25.928.82-5.185 1.101-10.443 1.51-15.677.393-5.018.907-15.074.907-15.074l-45.015 41.605s2.716 9.154 3.324 13.868c.604 4.686.251 9.446.302 14.17.067 6.33-.205 12.665 0 18.993.194 6.007 1.162 17.991 1.162 17.991z" fill="#000"/><path d="M31.222 336.295c5.067-2.587 12.066-6.062 18.247-8.775 5.833-2.56 11.714-5.049 17.756-7.07 5.083-1.699 10.308-2.947 15.511-4.233 4.822-1.192 9.636-2.484 14.548-3.228 5.08-.768 10.237-.887 15.36-1.263 4.12-.303 8.237-.724 12.368-.801 5.003-.095 10.01.118 15.006.405 4.59.263 9.195.498 13.736 1.208 5.119.801 10.147 2.117 15.157 3.43 4.317 1.132 8.584 2.448 12.827 3.83 4.652 1.514 9.352 2.94 13.84 4.887 5.264 2.281 11.74 6.16 15.276 7.925l-45.292 41.962s-2.742-.508-4.104-.805c-2.589-.565-2.447-.945-7.73-1.855-2.495-1.035-4.165-3.563-6.645-4.635-3.023-1.305-6.377-2.033-9.67-2.026-6.29.014-13.867 1.693-18.448 3.953-2.383.002-4.485.4-6.727.615-3.11.3-6.23.522-9.325.944-3.326.454-6.69.81-9.924 1.707-2.766.767-5.391 1.98-8.026 3.118-2.891 1.248-8.528 4.062-8.528 4.062-3.982-6.625-9.038-15.47-17.592-23.556-4.277-4.042-9.276-9.717-13.55-12.956-4.275-3.238-11.071-5.255-14.071-6.843z" fill="#FFFF58"/><path d="M163.807 406.86s6.095-9.714 8.584-14.865c1.787-3.698 3.387-7.513 4.532-11.457a51.647 51.647 0 0 0 1.817-9.534c.258-2.74-.005-8.253-.005-8.253l-19.033 16.883s2.644 8.555 3.323 12.964c.725 4.705.782 14.261.782 14.261z" fill="#F55"/><path fill="#000" d="M107 480.364l-65.5-83.992-7.833 1.663L93 480.364z"/><path d="M24 480.364a148.95 148.95 0 0 0 2-29.938c-.348-10.147-1.752-20.316-5-29.938a80.783 80.783 0 0 0-10-19.958 76.101 76.101 0 0 0 23-1.996l59 81.83H24" stroke="#55A" stroke-width="2" fill="#FF5" stroke-linecap="round" stroke-linejoin="round"/><path d="M57.408 454.946c-.396-.989-.852-1.978-1.518-2.804-.88-1.089-1.844-2.307-3.192-2.736-1.695-.54-3.992-.724-5.39.449-1.364 1.143-1.79 3.427-1.347 5.095.512 1.925 4.227 4.175 4.227 4.175s-4.728 1.577-5.556 3.605c-.777 1.904.034 4.443 1.44 5.867 1.387 1.403 3.928 2.336 5.796 1.515 2.098-.921 3.3-6.01 3.3-6.01s.838 3.745 2.05 5.118c1.078 1.22 2.628 2.412 4.291 2.376 1.475-.033 3.177-.956 3.867-2.275 1.085-2.076.611-4.957-.625-6.864-1.24-1.911-5.998-3.335-5.998-3.335s1.275 2.697-.982 4.254c-1.804 1.244-5.046-.238-6.047-2.103-.847-1.58-.4-4.61 1.3-5.337 3.395-1.45 5.119 1.718 5.119 1.718s-.389-1.842-.735-2.708zM37.832 427.765c-.353-.894-.76-1.789-1.355-2.536-.784-.985-1.645-2.087-2.847-2.475-1.513-.487-3.562-.654-4.81.406-1.217 1.034-1.597 3.1-1.202 4.608.457 1.741 3.772 3.776 3.772 3.776s-3.707 1.823-4.29 3.593c-.57 1.728-.011 4.026 1.284 5.306 1.096 1.082 3.1 1.67 4.505 1.038 1.881-.848 2.945-5.436 2.945-5.436s.747 3.387 1.83 4.629c.96 1.103 2.343 2.181 3.827 2.148 1.316-.029 2.835-.864 3.45-2.057.968-1.877.546-4.483-.558-6.208-1.106-1.728-5.351-3.016-5.351-3.016s1.137 2.44-.876 3.848c-1.61 1.125-4.503-.216-5.395-1.903-.756-1.428-.358-4.17 1.16-4.826 3.029-1.311 4.567 1.554 4.567 1.554s-.347-1.666-.656-2.45z" stroke="#000100" stroke-width="2" fill="#000" stroke-linecap="round" stroke-linejoin="round"/><path d="M83.667 478.7s-.588-11.204-5.5-16.798c-4.723-5.378-10.278-5.6-15.167-5.156 0 0 2.3-13.112-2-18.461-4.664-5.802-20-10.312-20-10.312s3.58-10.027-1.333-16.965c-2.72-3.842-11.834-9.48-11.834-9.48" stroke="#000" stroke-width="2" stroke-linecap="round" stroke-linejoin="round"/><path d="M78.906 479.727c.69-.002 1.34-.54 1.469-1.216 0 0 1.823-8.316-4.062-14.19-.91-.908-2.218-1.69-3.813-2.557-1.595-.867-3.437-1.756-5.188-2.557-3.054-1.397-5.149-2.195-5.812-2.463-.003-.706.023-2.227-.375-5.021-.48-3.368-1.087-8.143-3.323-11.3-4.14-5.845-8.887-8.346-12.302-10.03-2.235-1.103-3.76-1.488-4.781-1.685-.099-.767-.278-2.42-.844-5.27-.683-3.44-1.614-7.353-3.187-9.886-1.65-2.653-4.929-5.485-7.876-7.827-2.946-2.343-5.562-4.116-5.562-4.116-.654-.442-1.652-.248-2.094.405-.442.653 3.085 3.145 3.74 3.586 0 0 2.356 3.357 2.875 6.788 2.852 2.268 4.934 2.318 6.552 4.387 1.584 2.026 1.956 3.94 2.614 7.256.659 3.316 1 6.112 1 6.112.084.68.691 1.258 1.376 1.31 0 0 5.7 1.431 7.843 3.284 2.471 2.138 5.685 2.955 5.042 8.4 1.73 2.443 5.512 5.89 5.958 9.022.446 3.133.438 5.551.438 5.551a1.536 1.536 0 0 0 .937 1.435s3.108 1.24 6.532 2.807c1.711.783 3.8 1.047 5 2.463 1.467 1.732 1.55 6.111 1.958 6.518 4.655 4.646 4.416 6.954 4.416 6.954-.207.878.565 1.845 1.47 1.84z" fill="#000"/><path stroke="#55A" stroke-width="2" fill="#F55" d="M120 480.364h-13.333L1 341.985V309.72z"/><path d="M144.007 480.364s-1.77-11.273-14.652-22.129c-12.881-10.855-34.358-15.197-34.358-15.197" stroke="#55A" stroke-width="2" stroke-linecap="round" stroke-linejoin="round"/><path d="M138.84 480.364s-5.213-11.806-12.429-17.806c-7.216-6-27.532-13.087-27.532-13.087" stroke="#55A" stroke-width="2" stroke-linecap="round" stroke-linejoin="round"/><path d="M132.733 480.364s-4.41-10.038-9.792-14.61c-5.382-4.571-19.925-10.51-19.925-10.51" stroke="#55A" stroke-width="2" stroke-linecap="round" stroke-linejoin="round"/><path d="M127.712 480.364s-2.732-6.818-7.03-10.361c-4.298-3.543-12.89-7.375-12.89-7.375M142.061 472.841s.84-4.077 6.144-12.93 15.747-12.606 15.747-12.606M145.949 480.364s.173-7.034 4.997-14.531c4.824-7.497 12.941-11.291 12.941-11.291M151.32 480.364s1.933-7.443 4.509-12.014c2.575-4.572 7.86-7.882 7.86-7.882M157.446 480.364s-.18-4.392 1.943-7.935c2.123-3.543 3.59-3.976 3.59-3.976M144.595 427.181s-.596-2.694-.53-4.055c.172-3.568 1.195-7.083 2.408-10.444.795-2.204 3-3.943 3.158-6.28.132-1.943-.616-4.056-1.896-5.526-.901-1.035-2.64-.963-3.676-1.864-.839-.73-1.906-2.734-1.906-2.734" stroke="#55A" stroke-width="2" stroke-linecap="round" stroke-linejoin="round"/><path d="M132.252 407.734s-3.324-3.552-2.859-5.592c.304-1.333 1.914-2.278 3.268-2.486 1.78-.274 3.4 1.186 5.082 1.824 1.594.604 3.127 2.426 4.747 1.898.652-.213 1.417-1.14 1.09-1.74-.536-.982-2.243.014-3.362-.054-3.394-.203-7.438-3.111-10.144-1.058-.871.661-.78 2.164-.545 3.231.346 1.568 2.723 3.977 2.723 3.977h0zM98.8 430.695s9.207 6.268 14.497 7.633c4.162 1.074 8.739 1.366 12.893.265 1.672-.442 4.451-2.658 4.451-2.658s-4.075 1.308-6.188 1.535c-4.27.46-8.714.674-12.878-.374-4.62-1.164-12.776-6.401-12.776-6.401zM162.73 436.205s-5.568 2.973-8.54 2.648c-3.705-.405-9.588-5.514-9.588-5.514s6.24 4.249 9.86 4.36c3.038.093 8.505-3.145 8.505-3.145l-.238 1.65zM127.06 387.586s4.704 1.872 7.154 2.04c1.84.127 3.647-.695 5.488-.784 2.101-.1 4.257.852 6.305.292 1.12-.307 3.03-1.933 3.03-1.933s-2.086.46-3.137.397c-2.136-.128-4.137-1.562-6.276-1.565-2.36-.004-4.55 1.453-6.93 1.709-1.87.2-5.634-.156-5.634-.156z" stroke="#55A" stroke-width="2" fill="#55A" stroke-linecap="round" stroke-linejoin="round"/><path d="M133.422 382.734s3.943-1.369 5.99-1.412c1.754-.038 5.174.988 5.174.988M145.374 427.573s5.032 4.098 9.65 4.197c4.941.107 7.894-2.518 7.894-2.518M102.386 425.432s9.864 7.31 15.527 7.148c7.42-.214 12.961-5.548 12.961-5.548" stroke="#55A" stroke-width="2" stroke-linecap="round" stroke-linejoin="round"/><path d="M101.295 423.86c5.852.756 10.154 3.292 15.541 3.752 4.62.393 13.943-1.035 13.943-1.035M163.547 423.788c-5.387 2.536-4.233 3.343-9.62 3.802-4.62.394-9.446-2.221-9.446-2.221M104.531 423.402c5.267-1.197 10.77-5.07 16.728-5.367 4.415-.22 9.15 2.808 9.54 6.883" stroke="#55A" stroke-width="2" stroke-linecap="round" stroke-linejoin="round"/><path d="M115.619 426.081c-.937-5.053 4.018-6.545 7.578-6.109 2.415.296 4.654 3.253 3.492 6.141" stroke="#55A" stroke-width="2" stroke-linecap="round" stroke-linejoin="round"/><path d="M123.868 423.24c.098.915-.746 2.175-1.706 2.225-.84.044-1.724-.975-1.706-1.78.02-.84.984-1.759 1.86-1.78.696-.018 1.48.673 1.552 1.335zM152.442 422.935c-.026.716.847 1.642 1.742 1.622.784-.016 1.533-.86 1.46-1.483-.078-.65-1.04-1.304-1.855-1.268-.648.028-1.327.612-1.347 1.13z" stroke="#55A" stroke-width="2" fill="#55A" stroke-linecap="round" stroke-linejoin="round"/><path d="M146.032 419.079c2.093-2.455 2.244-4.634 6.58-6.715M131.485 426.118c-1.605-7.107-3.875-10.918-9.023-13.069M163.45 421.073c-2.856-1.8-6.512-2.863-11.176-2.742-3.455.09-6.968 2.533-7.03 5.485" stroke="#55A" stroke-width="2" stroke-linecap="round" stroke-linejoin="round"/><path d="M158.174 426.373c1.112-4.889-1.095-7.52-5.143-7.438-1.78.037-5.422 4.031-2.747 7.829" stroke="#55A" stroke-width="2" stroke-linecap="round" stroke-linejoin="round"/><path d="M162 480.364s2.295-21.925 2.5-32.932c.161-8.653-.745-17.294-1-25.946-.24-8.148.41-16.348-.5-24.449-.645-5.737-.935-11.79-3.5-16.965-2.252-4.543-5.707-8.766-10-11.476-3.657-2.308-8.179-3.266-12.5-3.492-4.39-.23-8.832.811-13 2.204-5.696 1.904-10.985 4.974-16 8.274-5.042 3.317-9.857 7.09-14 11.476-3.11 3.292-8 10.977-8 10.977M164.647 374.143c-4.67-2.402-8.817-2.826-11.95-3.185M119.938 368.581c-7.264 1.35-16.236 2.194-24.14 4.264-6.644 1.74-12.96 4.548-19.44 6.822M88.107 393.737l-5.981-15.776M91.525 389.473l-4.913-13.004M95.37 384.783l-3.204-9.38M99.216 381.372l-2.99-7.461M103.275 377.961l-2.777-6.182M107.12 375.19l-1.709-3.624M86.185 430.404c.997-1.848 2.225-3.588 2.99-5.543 1.044-2.665 1.425-5.542 2.137-8.314M82.126 424.435c1.282-2.558 2.91-4.971 3.845-7.675 1.163-3.359 1.424-6.964 2.136-10.446M78.494 419.105c1.14-2.7 2.59-5.29 3.418-8.1 1.284-4.36 1.567-8.954 2.35-13.431M74.435 413.989c1.353-3.482 3.28-6.793 4.06-10.446 1.201-5.637.569-11.512.854-17.268M70.163 408.446c1.21-2.558 2.972-4.923 3.632-7.674 1.756-7.329.427-15.065.64-22.598M65.89 402.904c1.282-3.198 3.34-7.208 3.846-11.086.985-7.56-1.14-15.207-1.71-22.81M62.045 396.082c1.068-3.411 2.237-8.888 2.35-13.43.187-7.517-1.567-13.858-2.777-22.385M57.345 389.473c.712-4.761.911-8.957.641-13.43-.512-8.49-2.136-16.984-4.272-25.156M51.791 381.372c.142-4.477.633-9.564 0-14.283-1.078-8.03-4.13-15.349-6.409-23.45M44.955 371.566c.285-3.269.283-7.879-.427-11.725-1.322-7.16-3.347-13.502-7.05-20.679M38.76 362.612c-.499-3.695-.386-7.525-1.495-11.085-1.684-5.402-5.484-10.446-7.691-15.136" stroke="#55A" stroke-width="2" stroke-linecap="round" stroke-linejoin="round"/><g stroke="#55A" stroke-linecap="round" stroke-linejoin="round" stroke-width="2"><path d="M241.203 302.771s4.405 5.199 6.869 7.586c2.594 2.513 5.292 4.97 8.3 7.062 2.317 1.613 4.681 3.484 7.44 4.186 1.629.414 3.485.561 5.04-.071 1.144-.465 2.42-1.342 2.688-2.545.508-2.287-1.102-4.717-2.576-6.54-1.495-1.847-3.768-2.985-5.946-3.942-1.314-.578-2.915-.901-4.182-1.035-.829-2.596 1.655-2.004 1.127-7.124-.154-1.501-.362-3.56-.362-3.56"/><path d="M267.533 317.018s-.488-1.661-1.145-2.214c-.6-.505-1.483-.777-2.29-.785-.79-.008-2.26.724-2.26.724M272.112 319.774s3.967 1.81 5.724 1.046c1.849-.805 2.854-3.098 2.862-4.97.011-2.847-2.778-5.106-4.293-7.586-.922-1.507-1.534-3.322-2.915-4.425-1.353-1.081-3.172-2.2-4.865-1.831-1.323.287-2.387 1.612-2.862 2.877-.424 1.129-.583 2.72.232 3.61 1.095 1.195 3.223 1.088 4.808.745.847-.183 1.634-.747 2.174-1.423.554-.696.926-2.5.926-2.5"/><path d="M281.556 314.542s2.803-.854 3.72-1.83c.925-.984 1.49-2.368 1.432-3.663-.097-2.105-1.55-4.023-2.862-5.754-1.537-2.027-3.545-3.84-5.724-5.232-1.616-1.032-3.417-1.902-5.31-2.222-1.413-.24-3.31-.78-4.292.261-.838.89-.606 2.602 0 3.662.457.8 1.498 1.144 2.383 1.408 1.2.357 2.707.856 3.756.171.94-.613 1.209-3.139 1.209-3.139"/><path d="M286.135 304.602s3.484-2.206 3.72-3.923c.16-1.16-.905-2.234-1.717-3.139-2.068-2.306-4.948-3.93-7.727-5.493-1.708-.96-3.432-2.332-5.437-2.354-.94-.01-2.108.301-2.576 1.046-.43.685-.088 1.643.286 2.354.702 1.334 1.816 3.188 3.435 3.14 1.013-.032 1.604-1.241 2.003-2.093.415-.886.286-2.878.286-2.878"/><path d="M287.852 295.448s1.257-2.041 1.145-3.14c-.182-1.787-1.484-3.428-2.862-4.708-1.786-1.659-4.173-2.835-6.617-3.49-1.272-.34-2.96-.955-3.972-.172-1.245.965-1.326 3.123-.572 4.447.65 1.142 2.328 2.028 3.72 1.831 1.05-.148 1.724-1.233 2.22-2.092.5-.866.642-2.878.642-2.878M276.263 282.504s-.874-1.361-1.478-1.882c-.568-.49-1.27-.814-1.957-1.117-1.364-.603-4.257-1.38-4.257-1.38"/></g><g stroke="#55A" stroke-linecap="round" stroke-linejoin="round" stroke-width="2"><path d="M267.34 319.987s5.516-1.208 8.307-1.105c2.126.08 4.32.41 6.247 1.308 2.09.973 3.978 2.488 5.437 4.272 1.634 1.996 3.482 6.91 3.482 6.91s-4.352-.923-6.564-1.08c-2.385-.168-4.795.402-7.174.157-1.774-.183-3.53-.611-5.21-1.205-1.347-.475-2.71-1.014-3.852-1.868-1.117-.836-2.043-1.934-2.814-3.095-.644-.97-1.47-3.168-1.47-3.168l3.611-1.126z" fill="#FF5"/><path d="M282.376 325.661s-2.932-1.519-4.51-1.966c-2.384-.676-4.918-.641-7.363-1.05-1.824-.305-5.447-1.048-5.447-1.048"/></g><path stroke="#55A" stroke-width="2" fill="#FF5" stroke-linecap="round" stroke-linejoin="round" d="M264.474 322.546l-.888 10.3-3.068 2.7-2.653-2.675.592-13.731z"/><g stroke="#55A" stroke-linecap="round" stroke-linejoin="round" stroke-width="2.004"><path d="M256.545 318.793s-1.782 4.022-3.316 5.61c-1.779 1.839-4.136 3.18-6.52 4.216-2.225.966-4.79.913-7.061 1.772-2.124.803-6.04 3.123-6.04 3.123s.425-4.766 1.477-6.868a15.21 15.21 0 0 1 4.913-5.644c2.756-1.886 6.124-2.614 9.33-3.306 1.435-.31 2.951-.637 4.365-.365 1.07.207 2.852 1.462 2.852 1.462z" fill="#FF5"/><path d="M255.494 318.925s-3.198 2.678-5.068 3.457c-2.187.912-4.747.349-6.916 1.309-1.589.703-4.218 3.15-4.218 3.15"/></g><path stroke="#55A" stroke-width="2" fill="#55A" stroke-linecap="round" stroke-linejoin="round" d="M250.6 350.944l-5.842 4.128-5.616-3.12 5.644-4.65zM264.359 359.108l4.28 5.74-3.977 5.724-4.306-5.647zM280.172 350.267l5.474-4.466-6.675-3.076-4.062 4.407z"/><path d="M277.313 344.924c1.125-2.21 2.668-4.564 2.462-7.02-.156-1.852-1.295-3.664-2.718-4.943-1.855-1.668-4.486-2.579-6.984-3.023-1.215-.216-2.561-.275-3.696.208-2.253.96-5.374 5.002-5.374 5.002s-2.912-2.573-4.725-3.053c-2.808-.744-6.146-.896-8.701.482-1.788.964-3.038 2.953-3.619 4.896-.63 2.109-.292 4.493.368 6.592.41 1.302 1.193 2.513 2.154 3.484 1.42 1.436 5.12 3.244 5.12 3.244s-4.175 2.922-5.416 5.056c-.846 1.454-1.338 3.235-1.168 4.908.168 1.655.971 3.276 2.109 4.526 1.312 1.441 3.103 2.803 5.1 3.053 2.49.311 5.14-.695 7.202-2.11 1.098-.755 1.71-2.05 2.422-3.176.935-1.48 2.405-4.67 2.405-4.67s2.745 3.514 4.619 4.631c2.374 1.417 5.197 2.723 7.953 2.366 1.734-.224 3.445-1.276 4.404-2.706 1.174-1.75 1.236-4.143 1.012-6.237-.211-1.982-.946-4.004-2.183-5.57-1.208-1.528-4.803-3.335-4.803-3.335.41-1.38 1.326-1.435 2.057-2.605z" stroke="#55A" stroke-width="2" fill="#FF5" stroke-linecap="round" stroke-linejoin="round"/><path d="M264.513 354.427c3.015-.395 6.114-4.009 5.8-7.027-.32-3.072-4.179-6.17-7.25-5.788-3.179.396-6.282 4.488-5.8 7.648.449 2.93 4.306 5.554 7.25 5.167z" stroke="#55A" stroke-width="2" fill="#F55" stroke-linecap="round" stroke-linejoin="round"/><path d="M273.42 356.08l-4.143-3.513M255.192 357.941l4.143-5.167M258.092 344.92l-4.97-3.721M266.791 342.646l4.35-5.58" stroke="#55A" stroke-width="2" fill="#000" stroke-linecap="round" stroke-linejoin="round"/><path d="M148.282 343.882l2.476-13.147-13.06-1.213-1.167 12.897 11.751 1.463zm-5.376-4.108l-3.187-3.173 3.531-2.838 3.094 3.18-3.438 2.831z" fill="#000" fill-rule="nonzero"/><path d="M157.5 357.513l3.811-12.121-12.957-2.65-2.503 12.795 11.649 1.976zm-4.349-3.287l-3.188-3.174 3.532-2.838 3.093 3.181-3.437 2.83z" fill="#000" fill-rule="nonzero"/><path d="M172.117 349.823l5.142-11.923-13.073-4.398-3.733 12.706 11.664 3.615zm-4.705-5.101l-2.303-3.862 4.125-1.879 2.21 3.846-4.032 1.895z" fill="#000" fill-rule="nonzero"/><path d="M188.713 343.068l4.706-10.731-11.892-5.524-5.102 11.316 12.288 4.94zm-5.734-4.851l-1.933-4.059 4.281-1.488 1.843 4.034-4.191 1.513zM175.406 364.343l5.127-4.215 3.073-5.856-11.787-4.717-4.526 10.388 8.113 4.4zm-1.52-4.058l-1.786-4.125 4.332-1.333 1.696 4.097-4.243 1.361zM164.291 334.143l3.46-11.307-14.344-3.114-2.777 11.616 13.661 2.805zm-5.533-4.297l-3.072-3.285 3.63-2.71 2.978 3.29-3.536 2.705zM135.115 354.54l1.705-12.698-13.19-.14-.699 12.719 12.184.118zm-5.897-3.448l-3.273-3.086 3.453-2.933 3.179 3.096-3.359 2.923zM138.033 330.196l1.566-11.913-14.334-.723-.556 12.219 13.324.417zm-6.483-3.757l-3.328-3.026 3.398-2.995 3.236 3.037-3.306 2.984z" fill="#000" fill-rule="nonzero"/><path d="M124.166 342.018l.959-12.681-13.628.39.879 12.23 11.79.06zm-5.878-3.178l-3.419-2.924 3.306-3.096 3.326 2.938-3.213 3.082zM113.023 354.426l-.714-12.76-12.563 2.239 1.534 11.465 11.743-.944zm-5.995-3.244l-3.68-2.59 3-3.392 3.588 2.612-2.908 3.37z" fill="#000" fill-rule="nonzero"/><path d="M111.7 330.163l-.735-11.226-13.57 2.214 1.345 11.323 12.96-2.31zm-6.339-2.003l-3.973-1.784 2.553-3.157 3.886 1.814-2.466 3.127zM84.61 335.517l-2.688-12.149-14.084 4.264 4.633 11.939 12.138-4.054zm-7.162-1.286l-3.973-1.784 2.553-3.156 3.886 1.813-2.466 3.127zM60.054 343.256l-3.493-10.77-12.226 4.527 5.395 10.215 10.324-3.972zm-6.6-.81l-4.234-1.028 1.93-3.57 4.153 1.072-1.85 3.526z" fill="#000" fill-rule="nonzero"/><path d="M76.09 350.408l-3.423-11.067-12.726 3.95 4.605 11.943 11.544-4.826zm-5.781-.79l-4.237-1.014 1.92-3.576 4.156 1.06-1.84 3.53zM90.952 358.329l-2.776-11.664-12.288 3.981 4.192 11.642 10.872-3.96zm-6.495-1.422l-4.119-1.418 2.257-3.374 4.034 1.454-2.172 3.338z" fill="#000" fill-rule="nonzero"/><path d="M100.02 344.129l-1.456-11.739-14.186 2.726 3.4 11.939 12.241-2.926zm-6.34-2.516l-3.974-1.785 2.554-3.156 3.886 1.813-2.466 3.128z" fill="#000" fill-rule="nonzero"/><path fill="#000" d="M188.408 342.85l-5.034 11.686 1.849.718 10.581-9.124zM70.163 366.224l-5.445-10.97-4.52 1.845 8.013 10.15z"/><path d="M174.73 364.463c-10.668-6.425-22.886-8.488-34.885-10.117-8.61-1.169-17.421-.577-26.062.323a141.313 141.313 0 0 0-25.354 5.016c-6.56 1.94-12.863 4.692-19.059 7.601M41.086 339.413c5.068-2.587 9.984-5.493 15.203-7.762 3.794-1.649 7.735-2.947 11.667-4.233 4.784-1.565 9.607-3.035 14.496-4.234 4.668-1.146 9.384-2.137 14.142-2.823 4.684-.675 9.736-1.36 14.45-1.776 4.596-.406 8.871-.492 13.48-.694 4.593-.2 9.199-.228 13.79 0 4.731.236 9.456.712 14.142 1.412 4.754.71 9.486 1.628 14.142 2.822 4.548 1.167 9.009 2.667 13.435 4.234 4.537 1.607 9.038 3.334 13.435 5.292 3.61 1.608 7.07 3.529 10.606 5.293" stroke="#55A" stroke-width="2" stroke-linecap="round" stroke-linejoin="round"/><path d="M73.369 375.053s12.747-5.848 19.444-7.86c6.88-2.067 13.99-3.43 21.124-4.272 6.977-.824 14.056-1.25 21.063-.749 7.317.523 14.576 1.985 21.656 3.898 4.218 1.14 12.313 4.491 12.313 4.491l2.26-2.398s-9.073-3.695-13.792-4.962c-7.268-1.95-14.678-3.48-22.218-4.022-7.24-.52-14.484-.073-21.656.78-7.305.867-14.582 2.277-21.626 4.396-6.964 2.096-20.228 8.174-20.228 8.174l1.66 2.524z" fill="#000"/><path d="M92.286 440.37s.905-14.682-.286-21.878c-1.142-6.901-3.788-13.507-6.5-19.958a161.681 161.681 0 0 0-12.5-23.95c-3.246-5.115-7.012-9.907-11-14.47-5.422-6.204-10.707-12.792-17.5-17.464-4.361-2.999-9.582-4.523-14.5-6.486-4.709-1.88-14.345-5.058-14.345-5.058" stroke="#55A" stroke-width="2" stroke-linecap="round" stroke-linejoin="round"/><path d="M227.594 315.114S213.742 305.022 208 298.742c-5.329-5.828-13.5-19.46-13.5-19.46s14.793-12.213 21-19.459c7.179-8.38 13.32-17.705 18.5-27.443 4.382-8.238 8.005-16.957 10.5-25.946 1.712-6.166 2.17-12.616 3-18.96.63-4.808 1.5-14.47 1.5-14.47l52 49.896v25.447" stroke="#000" stroke-width="2" fill="#FFFF58" stroke-linecap="round" stroke-linejoin="round"/><path d="M294 244.854l-68 62.37s-8.806-7.586-12.58-11.975c-3.572-4.156-9.42-13.472-9.42-13.472s11.816-11.554 17-17.962c6.475-8.005 12.448-16.48 17.5-25.447 3.583-6.36 6.58-13.074 9-19.959 1.993-5.672 3.552-11.528 4.5-17.463.815-5.103 1-15.468 1-15.468l40.5 40.416.5 18.96z" stroke="#000" stroke-width="2" fill="#000" stroke-linecap="round" stroke-linejoin="round"/><path d="M239.703 288.783c.06 1.624-1.15 4.738-1.15 4.738s-2.866-1.49-4.078-2.534c-1.26-1.087-3.228-3.806-3.228-3.806s-1.294 2.91-2.24 4.175c-1.065 1.424-3.796 3.75-3.796 3.75s-1.452-3.16-1.627-4.86c-.206-2 .71-5.99.71-5.99s-3.393 1.641-5.225 1.976c-1.736.317-5.295-.002-5.295-.002s1.762-3.624 3.034-5.162c1.297-1.57 4.59-4.032 4.59-4.032s-2.356-.826-3.283-1.618c-1.072-.916-2.435-3.455-2.435-3.455s2.593-1.544 4.042-1.869c1.268-.285 3.9-.033 3.9-.033s-.837-2.79-.85-4.226c-.013-1.576.85-4.65.85-4.65s2.46 1.166 3.443 2.076c1.092 1.01 2.593 3.63 2.593 3.63s1.138-3.954 2.22-5.672c1.242-1.97 4.77-5.107 4.77-5.107s.707 4.827.69 7.257c-.014 2.007-.654 5.986-.654 5.986s3.08-1.634 4.746-2.097c1.742-.484 5.383-.684 5.383-.684s-.941 3.853-1.99 5.496c-1.183 1.853-4.681 4.649-4.681 4.649s2.949.718 4.306 1.371c1.658.799 4.59 3.067 4.59 3.067s-3.269 2.53-5.225 2.945c-1.897.403-5.791-.552-5.791-.552 1.404 1.178 1.615 3.403 1.681 5.233z" fill="#FFFF58"/><path d="M231.969 284.054c1.567-.126 3.07-1.147 4.094-2.34 1.023-1.191 1.744-2.828 1.687-4.396-.066-1.813-1.034-3.639-2.312-4.927-1.269-1.28-3.072-2.348-4.875-2.34-1.72.01-3.445 1.03-4.625 2.277-1.19 1.256-2.122 3.046-2.032 4.772.098 1.886 1.318 3.723 2.75 4.958 1.432 1.235 3.427 2.147 5.313 1.996zm-.156-1.996c-1.385.112-2.826-.62-3.875-1.528-1.033-.894-1.965-2.193-2.032-3.555-.058-1.195.645-2.406 1.469-3.275.83-.874 2.012-1.652 3.219-1.652 1.276 0 2.513.836 3.406 1.746.932.95 1.7 2.257 1.75 3.586.04 1.096-.506 2.222-1.219 3.056-.684.802-1.666 1.536-2.718 1.622z" fill="#000" fill-rule="nonzero"/><path d="M273.817 242.48v8.56s-6.303.7-8.26 2.853c-1.83 2.013-1.906 7.926-1.906 7.926h-12.072l22.238-19.339zM259.096 248.58c1.274-1.287.72-4.188-.635-5.39-1.346-1.194-4.128-1.27-5.401 0-1.123 1.121-1.063 3.578 0 4.756 1.354 1.5 4.614 2.07 6.036.634zM240.142 251.04l16.837-20.924-9.213 1.903s.242 5.34-1.27 7.291c-1.566 2.02-6.99 3.17-6.99 3.17l.636 8.56zM289.383 225.044c-3.376-.697-6.877-.769-9.53-5.072-.39 7.219-4.254 10.972-7.943 14.9-2.067-5.178-3.168-10.356 0-15.534-5.736 5.003-10.539 2.559-15.566 1.902 2.356-4.597 5.393-8.741 11.119-11.096-3.926-3.22-5.42-7.652-6.354-12.364 1.906.444 3.812.694 5.718 2.219l20.015 19.973c1.12 1.69 1.774 3.381 2.541 5.072z" fill="#FFFF58"/><path d="M275.563 218.41c1.33.396 2.859-.145 4.093-.78 1.205-.62 2.333-1.617 2.938-2.807l-1.6-1.085c-.346.68-1.355 1.639-2.275 2.114-.86.444-1.919.877-2.844.593-1.535-.472-2.743-1.976-3.344-3.462-.577-1.427-.164-3.086 0-4.615.11-1.026.657-3.025.657-3.025l-1.912-1.41s-.606 2.733-.713 4.123c-.145 1.866-.653 3.896.093 5.613.906 2.084 2.725 4.09 4.907 4.74z" fill="#000"/><path d="M193.76 278.304s-7.784-14.983-9.848-23.09c-1.6-6.284-2.03-12.883-1.854-19.364.24-8.781 1.342-17.664 3.936-26.059 2.61-8.446 6.599-16.546 11.525-23.89 4.867-7.258 17.526-19.507 17.526-19.507" stroke="#000" stroke-width="2" stroke-linecap="round" stroke-linejoin="round"/><path d="M197.254 275.451s-6.076-12.37-7.624-19.022c-1.898-8.155-2.341-16.683-1.906-25.045a86.642 86.642 0 0 1 3.927-21.593 87.567 87.567 0 0 1 9.265-19.99c4.126-6.575 9.139-12.662 14.764-18.017 2.958-2.816 9.848-7.292 9.848-7.292" stroke="#000" stroke-width="2" stroke-linecap="round" stroke-linejoin="round"/><path d="M201.067 271.964s-4.708-11.432-6.036-17.437c-1.47-6.641-2.335-13.501-2.083-20.298.289-7.791 1.792-15.581 4.103-23.029 2.178-7.016 5.057-13.939 9.099-20.078 4.321-6.565 10-12.218 15.884-17.436 4.766-4.228 15.566-11.096 15.566-11.096" stroke="#000" stroke-width="2" stroke-linecap="round" stroke-linejoin="round"/><path d="M204.826 269.577s-3.607-9.055-4.712-13.782c-1.288-5.506-2.073-11.167-2.198-16.82-.148-6.721.163-13.556 1.73-20.095a75.565 75.565 0 0 1 8.41-20.783c3.752-6.337 8.562-12.122 13.978-17.12 6.146-5.672 20.65-14.266 20.65-14.266" stroke="#000" stroke-width="2" stroke-linecap="round" stroke-linejoin="round"/><path stroke="#55A" stroke-width="2" fill="#000" stroke-linecap="round" stroke-linejoin="round" d="M159.712 379.473l15.49-14.232 29.902-27.56 35.046-33.071 29.902-28.7L301 247.59"/><path fill="#F55" d="M188.872 304.484l-17.325-4.586 7.025-21.338 17.294 4.234z"/><path d="M150.227 310.866l6.64-2.025-3.873-3.498 5.349-2.393-3.505-3.865 6.456-2.577-3.32-4.234 6.456-2.025-4.058-4.418 5.903-2.025-2.583-4.602c1.476-1.104 3.147-2.209 4.622-3.313-7.132-1.166-14.46-2.332-21.592-3.498l2.582 4.786-4.242 2.21 2.398 5.522-6.272 2.393 2.767 5.89-5.903 1.105 3.874 4.97-5.903 1.472 3.136 4.234-5.903 2.393c1.637.788 3.245 1.676 4.9 2.403l12.07 1.095z" fill="#FF5"/><path d="M148.577 310.68c2.37-5.552 5.334-11.408 7.697-17.241 2.557-6.314 4.865-13.382 7.005-19.198M139.384 309.604c2.798-6.046 5.394-12.12 7.704-18.334 2.154-5.796 4.05-11.696 5.729-17.643" stroke="#000" stroke-width="2" stroke-linecap="round" stroke-linejoin="round"/><path d="M144.925 309.853c.754-.103 1.54-1.1 1.35-1.835-.189-.733-1.356-1.224-2.064-.952-.566.217-.865 1.084-.714 1.67.15.585.829 1.2 1.428 1.117zM147.582 303.484c.756-.104 1.551-1.097 1.364-1.835-.189-.744-1.374-1.25-2.09-.972-.573.221-.867 1.104-.71 1.697.154.584.836 1.192 1.436 1.11zM150.533 296.948c.768-.123 1.561-1.172 1.331-1.914-.229-.739-1.468-1.151-2.17-.827-.537.248-.762 1.103-.591 1.667.172.57.841 1.169 1.43 1.074zM152.82 290.454c.758-.096 1.555-1.09 1.374-1.831-.18-.743-1.35-1.263-2.069-.999-.576.213-.888 1.09-.74 1.685.146.594.827 1.223 1.435 1.145zM155.131 284.032c.786-.139 1.62-1.222 1.352-1.972-.27-.755-1.614-1.072-2.313-.677-.497.281-.627 1.12-.432 1.657.195.535.832 1.092 1.393.992zM157.517 277.598c.769-.12 1.57-1.164 1.343-1.907-.227-.74-1.472-1.155-2.177-.828-.535.248-.754 1.104-.583 1.668.172.565.832 1.158 1.417 1.067z" fill="#000"/><path d="M125.592 294.335l-18.797-.262c4.506-7.229 8.155-14.963 10.665-23.714l17.076 1.118-8.944 22.858z" fill="#F55"/></g><path d="M118.574 224.596s1.787 9.155 2.141 13.795c.277 3.631-.018 10.926-.018 10.926s10.79.651 16.174 1.126c5.266.464 10.526 1.009 15.77 1.682 4.76.61 9.501 1.37 14.24 2.136 5.555.9 16.632 2.892 16.632 2.892s-1.766-8.066-2.15-12.166c-.402-4.307-.15-12.975-.15-12.975s-10.745-.299-16.102-.706c-4.91-.373-9.805-.942-14.687-1.59-5.583-.74-11.13-1.726-16.69-2.621-5.056-.814-15.16-2.499-15.16-2.499z" fill="#F55"/><path fill="#000" d="M236.626 161.701l14.873-6.212L301 204.937v16.965z"/><path fill="#55A" d="M251.499 155.489l19.022-9.32 14.873 4.142L301 172.056v33.134z"/><path fill="#000" d="M65.374 319.979l-14.872 6.212L1 276.743v-16.965z"/><path fill="#55A" d="M50.502 326.191l-19.023 9.32-14.873-4.142L1 309.624V276.49z"/></g></svg>