<svg width="301" height="481" xmlns="http://www.w3.org/2000/svg"><g fill="none" fill-rule="evenodd"><path fill="#000" d="M72.937 248.51l13.23-15.747 142.294-.192L215.2 248.64z"/><path fill="#F55" d="M257.395 128.596l-21.927 75.343.25 8.483-2.492 8.233-4.485 4.74-4.485 1.497 7.724.997 15.698-20.956L301 242.703l-1.246-80.926zM1 164.023v77.338l2.367-1.247 15.822-28.191-10.714-12.474 10.216-8.233-14.327-24.574z"/><path stroke="#55A" stroke-width="2" fill="#5455AA" stroke-linecap="round" stroke-linejoin="round" d="M104.53 158.41L70.27 188.72l-8.099-3.243-7.226-.5-8.72 2.87-1.371-3.493-3.115-1.247-3.737 1.746-7.102-6.611 54.07-38.545 8.846 8.233z"/><path fill="#F55" d="M186.022 227.092l34.12-.458-6.398-6.558-2.132-9.14-101.14-91.516-19.345 16.624 15.384 12.353 11.12 12.658 6.092 10.218 1.219 13.421 15.537-.305z"/><path d="M261.133 131.59l38.621 30.187" stroke="#55A" stroke-width="2" stroke-linecap="round" stroke-linejoin="round"/><path d="M101.664 1.361a130.607 130.607 0 0 1 6.977 27.443c1.003 7.101 1.418 14.297.997 21.456a92.376 92.376 0 0 1-4.984 24.948 115.492 115.492 0 0 1 22.924 5.987l45.349-79.834h-71.263" stroke="#55A" stroke-width="2" fill="#FF5" stroke-linecap="round" stroke-linejoin="round"/><path stroke="#55A" stroke-width="2" fill="#F55" stroke-linecap="round" stroke-linejoin="round" d="M128.076 81.195l7.974 5.988L185.385 1.36h-12.458l-44.85 79.834"/><path d="M160.22 1.361s3.984 5.904.747 10.978c-1.811 2.838-9.469 3.492-9.469 3.492s3.069 9.204.499 12.474c-2.62 3.333-12.459 2.495-12.459 2.495s5.13 10.963 2.492 15.468c-3.827 6.533-10.636 4.326-10.636 4.326s4.06 7.863-1.324 14.135c-2.795 3.256-12.708 1.996-12.708 1.996 3.6 4.272 3.44 5.476 3.987 7.734.548 2.258.408 2.992.408 2.992" stroke="#000100" stroke-width="2" stroke-linecap="round" stroke-linejoin="round"/><path d="M130.463 54.41c-.336 1.156-.739 2.321-1.39 3.334-.859 1.336-1.798 2.827-3.24 3.493-1.81.836-4.322 1.36-5.98.25-1.615-1.084-2.314-3.57-1.993-5.49.371-2.215 4.236-5.238 4.236-5.238s-5.363-1.1-6.478-3.244c-1.047-2.013-.409-4.955.997-6.736 1.386-1.757 4.09-3.149 6.229-2.494 2.401.734 4.236 6.237 4.236 6.237s.547-4.29 1.744-5.988c1.063-1.509 2.65-3.052 4.485-3.243 1.627-.17 3.594.622 4.485 1.996 1.403 2.161 1.17 5.437 0 7.733-1.173 2.302-6.269 4.55-6.269 4.55s1.133-3.182-1.508-4.602c-2.11-1.135-5.531.967-6.445 3.184-.775 1.877.021 5.192 1.967 5.765C129.42 55.06 131 51.29 131 51.29s-.243 2.106-.538 3.12zM149.895 19.605c-.336 1.157-.739 2.322-1.39 3.335-.859 1.336-1.798 2.827-3.24 3.492-1.811.837-4.322 1.362-5.98.25-1.615-1.083-2.314-3.569-1.993-5.489.37-2.216 4.236-5.239 4.236-5.239s-5.363-1.099-6.478-3.243c-1.047-2.013-.409-4.955.996-6.736 1.387-1.757 4.091-3.149 6.23-2.495 2.401.735 4.236 6.237 4.236 6.237s.547-4.289 1.744-5.987c2.224-3.053 6.857-2.568 8.97-1.248 1.403 2.162 1.17 5.438 0 7.734-1.173 2.302-6.269 4.55-6.269 4.55s1.133-3.182-1.508-4.602c-2.11-1.135-5.531.967-6.446 3.184-.774 1.877.022 5.192 1.968 5.764 3.882 1.143 5.462-2.626 5.462-2.626s-.244 2.106-.538 3.119z" stroke="#000100" stroke-width="2" fill="#000" stroke-linecap="round" stroke-linejoin="round"/><g stroke="#55A" stroke-linecap="round" stroke-linejoin="round" stroke-width="2"><path d="M156.329 86.834c.523 4.572 1.64 9.651 2.828 12.893M160.538 80.652c.79 8.103 3.087 14.725 4.695 20.601M165.029 73.065c1.392 9.682 3.013 20.44 6.356 29.472M172.804 84.475c.584 7.238 3.041 13.7 4.216 19.164M179.061 91.864c1.033 6.672 2.456 9.371 3.237 12.58M185.682 97.914c.748 2.662 1.618 4.738 2.366 6.744M220.767 1.361s.977 12.852 7.725 19.71c6.748 6.857 15.199 10.228 15.199 10.228"/><path d="M224.879 1.361s1.265 10.747 6.622 16.747 12.065 8.201 12.065 8.201"/><path d="M228.367 1.361s1.555 7.82 5.52 12.391c3.966 4.572 9.929 7.568 9.929 7.568M232.852 1.361s1.054 5.393 4.254 8.936c3.2 3.543 6.71 5.285 6.71 5.285M237.213 1.361s.618 4.07 2.496 6.242c1.879 2.171 4.231 3.239 4.231 3.239"/><g><path d="M220.02 2.609s-.478 9.858-8.472 18.71c-7.994 8.854-21.927 7.984-21.927 7.984"/><path d="M216.656 2.11s-1.265 8.5-8.366 15.998c-7.101 7.497-15.803 6.455-15.803 6.455"/><path d="M211.922 2.11s-1.555 7.82-5.52 12.39c-3.966 4.572-11.673 5.073-11.673 5.073"/><path d="M207.437 2.11s-1.054 5.393-4.254 8.935c-3.2 3.543-5.215 3.04-5.215 3.04"/></g><path d="M244.734 38.22s6.124 18.784 8.419 28.382c2.658 11.113 4.933 22.36 6.174 33.72 1.11 10.156 1.123 30.629 1.123 30.629l-31.994-26.695s8.866-12.156 11.506-19.108c1.996-5.254 2.323-11.01 3.088-16.58.716-5.216 1.118-10.477 1.403-15.735.263-4.865.28-14.612.28-14.612z" fill="#55A"/><g><path d="M223.685 47.494s-.223 5.068 0 7.587c.235 2.654.786 5.276 1.403 7.868.68 2.854 2.388 5.5 2.526 8.43.078 1.67.002 3.567-.982 4.917-.852 1.169-2.738 1.116-3.79 2.108-.887.837-1.964 3.09-1.964 3.09"/><path d="M208.53 70.536s-3.453 4.053-2.947 6.322c.318 1.428 1.94 2.5 3.368 2.81 1.563.341 3.156-.642 4.63-1.264 1.7-.718 2.988-3.285 4.771-2.81.73.194 1.439 1.281 1.123 1.967-.837 1.819-3.903.936-5.894 1.124-2.421.229-5.45 1.586-7.297 0-.933-.802-.809-2.446-.56-3.653.355-1.731 2.806-4.496 2.806-4.496z" fill="#55A"/></g><g><path d="M187.762 38.502s6.249-3.166 9.754-3.772c3.359-.58 7.024-.676 10.282.222 2.34.645 6.064 3.55 6.064 3.55s-5.202-1.93-7.926-2.337c-3.385-.506-6.879-.597-10.265-.104-2.73.398-7.91 2.44-7.91 2.44z" fill="#55A"/><path d="M208.249 45.527l2.806-2.248s-4.434-1.55-6.735-1.967c-2.492-.451-5.097-1.075-7.578-.562-2.376.49-4.469 1.975-6.455 3.372-2.6 1.829-7.016 6.463-7.016 6.463"/><path d="M186.358 50.585s6.76-3.314 10.384-4.215c2.236-.556 4.574-.624 6.876-.703 1.403-.048 4.21.14 4.21.14l2.947 5.059-4.771 2.248 4.379-.731c-1.513 4.456-6.7 7.312-9.43 9.16"/><path d="M204.881 46.791s2.016 3.394 0 6.323c-1.169 1.698-4.334 1.209-6.174.28-3.194-1.61-6.461-2.892-8.42-4.074l5.894-1.405c-1.053 1.727.235 3.523 1.403 4.637 1.397 1.331 3.829 2.137 5.613 1.405 1.827-.749 3.267-3.785 3.087-5.058-.117-.836-1.403-2.108-1.403-2.108z"/><path d="M201.513 48.337c-.815-.282-2.089.831-1.964 1.686.133.913 1.806 1.7 2.526 1.124.745-.597.34-2.498-.562-2.81z"/></g><g><path d="M242.243 36.736s-5.775-2.06-8.575-1.334c-3.394.882-8.3 6.472-8.3 6.472s5.287-4.63 8.58-5.167c2.878-.47 8.54 1.895 8.54 1.895l-.245-1.866z" fill="#55A"/><path d="M223.544 46.51s3.994-4.054 6.596-4.917c2.841-.943 6.194-1.096 8.98 0 1.664.654 3.93 3.653 3.93 3.653M225.088 48.337s4.948-2.086 7.578-2.248c2.271-.14 4.543.51 6.735 1.124 1.456.408 4.21 1.686 4.21 1.686s-2.615 2.542-4.21 3.372c-2.075 1.08-4.397 2.011-6.735 1.967-1.184-.023-3.368-1.124-3.368-1.124l-3.649-1.434c.983 2.057 2.717 5.773 4.07 6.913"/><path d="M229.017 47.775c-1.478 3.072.099 3.086.28 4.496l1.123 1.124M233.788 48.618c-.656.487-1.068 1.747-.561 2.388.58.735 2.145.663 2.806 0 .53-.53.513-1.702 0-2.248-.513-.547-1.643-.588-2.245-.14z"/></g><g><path d="M205.723 91.746s4.788-2.004 7.437-1.985c2.015.014 3.6 1.546 5.613 1.588 2.81.059 5.33-2.51 7.999-1.886 1.084.253 1.964 1.986 1.964 1.986s-1.895-.81-2.946-.795c-2.493.036-4.39 1.944-6.876 2.085-2.5.142-4.8-1.137-7.297-1.29-1.962-.121-5.894.297-5.894.297z" fill="#55A"/><path d="M212.74 98.917s3.084-1.652 4.77-1.686c1.909-.04 5.473 1.686 5.473 1.686M212.038 95.123s4.064 1.362 6.174 1.405c1.807.038 5.332-.983 5.332-.983"/></g><path d="M244.439 2.11s-.078 23.624-.499 35.426c-.466 13.07.476 26.377-2.242 39.168-1.22 5.741-3.706 11.169-6.23 16.466-1.987 4.171-3.518 8.915-6.976 11.975-2.844 2.517-6.704 3.982-10.465 4.49-4.238.574-8.62-.493-12.708-1.746-5.754-1.762-11.197-4.63-16.196-7.983-4.693-3.148-9.037-6.927-12.708-11.226-2.814-3.297-5.229-7.01-6.976-10.978-1.285-2.916-2.492-9.23-2.492-9.23"/></g><path stroke="#000" stroke-width="2" fill="#FF5" stroke-linecap="round" stroke-linejoin="round" d="M272.096 62.484l9.718-16.216 8.72 16.216-9.468 15.717z"/><path stroke="#000" stroke-width="2" fill="#F55" stroke-linecap="round" stroke-linejoin="round" d="M277.329 61.985L281.316 55l3.737 6.736-3.737 7.484z"/><path d="M280.319 81.07c0 3.1-2.399 5.614-5.357 5.614-2.959 0-5.357-2.513-5.357-5.614 0-3.1 2.398-5.613 5.357-5.613 2.958 0 5.357 2.513 5.357 5.613zM291.78 80.571c0 3.238-2.454 5.863-5.481 5.863-3.027 0-5.482-2.625-5.482-5.863 0-3.238 2.455-5.862 5.482-5.862s5.482 2.624 5.482 5.862zM289.787 164.272c0 4.547-4.016 8.233-8.97 8.233-4.954 0-8.97-3.686-8.97-8.233 0-4.547 4.016-8.233 8.97-8.233 4.954 0 8.97 3.686 8.97 8.233z" stroke="#000" stroke-width="2" fill="#FF5" stroke-linecap="round" stroke-linejoin="round"/><path d="M280.568 156.04c-3.835-1.013-7.26-4.406-8.73-8.094-1.717-4.31.406-9.277.896-13.89 1.094-10.306 3.088-20.495 4.556-30.753.96-6.7 2.057-16.46 2.78-20.112 1.887-.528 2.123.824 2.067 2.509 1.897 15.014 4.083 29.994 5.681 45.043.518 4.877 2.057 9.818 1.267 14.658-.564 3.45-1.5 7.374-4.18 9.615-1.14.953-2.9 1.402-4.337 1.023z" stroke="#000" stroke-width="2" fill="#FF5" stroke-linecap="round" stroke-linejoin="round"/><path d="M281.316 102.9s1.54 16.645 2.491 24.948c.516 4.499 1.703 8.944 1.744 13.472.021 2.259.23 4.7-.747 6.736-.712 1.484-3.488 3.493-3.488 3.493M282.312 159.781c1.467 1.53 3.052 3.577 2.807 5.673-.164 1.408-1.41 2.719-2.713 3.273-.873.37-1.894-.114-2.835-.214" stroke="#000" stroke-width="2" stroke-linecap="round" stroke-linejoin="round"/><path d="M276.332 226.642s-2.098-17.772-2.74-26.694c-.431-5.977-1.672-12.042-.748-17.963.41-2.625.776-5.698 2.74-7.484 1.462-1.33 3.757-1.508 5.732-1.497 1.894.01 4.136.162 5.481 1.497 2.39 2.372 2.425 6.375 2.741 9.73.54 5.734-.819 11.494-1.495 17.214-.79 6.68-2.064 13.295-2.99 19.958-.45 3.239-1.246 9.73-1.246 9.73l-7.475-4.49z" stroke="#000" stroke-width="2" fill="#FF5" stroke-linecap="round" stroke-linejoin="round"/><path d="M281.316 177.494s3.063 2.113 3.737 3.743c1.113 2.689.107 5.823 0 8.731-.208 5.667-.687 11.323-1.246 16.965-.727 7.34-2.74 21.954-2.74 21.954" stroke="#000" stroke-width="2" stroke-linecap="round" stroke-linejoin="round"/><path d="M150.252 97.66l-8.97 15.718 77.99 72.599 16.695-62.87 9.376-2.838-17.444-15.313s-5.16 3.5-8.128 4.18c-3.401.782-7.009.229-10.465-.249-3.652-.504-10.715-2.744-10.715-2.744s-13.84-.717-20.68-1.746c-5.8-.873-11.505-2.311-17.193-3.742-3.519-.886-10.466-2.994-10.466-2.994z" stroke="#000" stroke-width="2" fill="#FF5" stroke-linecap="round" stroke-linejoin="round"/><path d="M147.76 102.65s12.869 4.01 19.436 5.489c5.342 1.203 10.763 2.065 16.196 2.744 6.119.766 12.275 1.302 18.439 1.497 4.732.15 9.486.177 14.202-.25 5.114-.461 15.2-2.494 15.2-2.494M147.013 118.368s12.702 3.718 19.186 4.99c6.168 1.208 12.43 1.92 18.688 2.494 4.969.455 9.96.762 14.95.749 5.99-.017 11.977-.441 17.94-.998 6.173-.577 18.439-2.426 18.439-2.426M165.203 128.347s18.559 3.303 27.947 3.817c6.778.372 13.59-.005 20.357-.536 5.19-.408 15.483-2.034 15.483-2.034l-12.21 47.9-51.577-49.147z" stroke="#000" stroke-width="2" stroke-linecap="round" stroke-linejoin="round"/><path d="M182.146 136.58s14.612 1.165 21.927.998c6.124-.14 18.3-1.674 18.3-1.674l-8.084 33.108-32.143-32.432z" stroke="#000" stroke-width="2" stroke-linecap="round" stroke-linejoin="round"/><path stroke="#000" stroke-width="2" stroke-linecap="round" stroke-linejoin="round" d="M205.07 158.783l7.437 3.206 4.274-4.702M198.102 152.407c-.499-.998 13.197 4.131 13.197 4.131l7.229-6.985"/><path stroke="#000" stroke-width="2" stroke-linecap="round" stroke-linejoin="round" d="M190.198 144.102l19.108 7.447 11.32-9.8"/><path stroke="#000" stroke-width="2" stroke-linecap="round" stroke-linejoin="round" d="M186.779 137.047l21.53 9.512 11.14-9.942"/><path stroke="#000" stroke-width="2" stroke-linecap="round" stroke-linejoin="round" d="M198.95 137.58l7.864 4.239 5.233-3.992M188.625 116.621l5.98.569v4.49l-5.98-.568zM145.504 106.833l4.171 1.787-1.9 4.068-4.42-2.536zM153.908 110.415l5.789 1.71-1.033 4.57-5.754-1.852zM165.17 113.15l6.231 1.053-.47 4.466-6.089-1.054zM176.967 115.333l6.26.656-.172 4.488-6.118-.514zM200.175 117.399l5.975.23-.172 4.487-5.975-.23zM211.589 117.193l5.64-.39.186 4.448-5.782.249zM222.268 116.372l5.356-.817.613 4.59-5.356.818z"/><path stroke="#000" stroke-width="2.004" stroke-linecap="round" stroke-linejoin="round" d="M231.89 114.214l2.9-1.125 3.51 3.944-5.302 1.513z"/><path d="M245.37 120.074l11.428 9.297-21.189 74.851s.476 6.594-.238 9.774c-.686 3.054-1.663 6.305-3.81 8.581-2.022 2.145-4.91 4.117-7.856 4.053-2.559-.056-4.865-1.994-6.666-3.814-1.601-1.617-2.624-3.797-3.334-5.96-.599-1.826-.714-5.72-.714-5.72l-102.613-92.969s9.302-8.19 13.332-12.872c4.644-5.395 8.926-11.176 12.38-17.402C153.314 56.854 185.85 1.6 185.85 1.6l17.618.238s-9.325 18.382-14.285 27.414c-7.024 12.79-14.648 25.242-21.904 37.902a5873.793 5873.793 0 0 0-16.665 29.32c-3.187 5.636-9.524 16.926-9.524 16.926l77.853 72.467 17.618-62.217 8.81-3.576z" stroke="#55A" stroke-width="2" fill="#000" stroke-linecap="round" stroke-linejoin="round"/><path stroke="#55A" stroke-width="2" stroke-linecap="round" stroke-linejoin="round" d="M110.344 118.036l-18.646 16.548-7.475 5.488-38.518 27.705-8.09 6.109-7.475 4.99-28.642-14.354"/><path d="M29.308 178.59c3.217 2.013 9.067 6.888 9.067 6.888s1.434-1.884 2.492-1.996c1.847-.196 4.336.752 4.983 2.495.753 2.026-1.704 3.974-2.491 5.987-.858 2.193-1.97 4.323-2.431 6.633a36.372 36.372 0 0 0-.469 11.063c.41 3.687 2.816 7.036 2.9 10.745.034 1.533.263 3.618-.997 4.49-1.932 1.339-6.977-.997-6.977-.997L8.973 236.372c9.115 5.557 14.73 10.214 22.426 14.757 7.192 4.553 19.933 14.183 19.933 14.183s6.694-8.277 9.967-12.474c5.398-6.922 10.175-14.344 15.947-20.957 4.02-4.605 8.421-8.877 12.957-12.973 5.086-4.593 11.595-7.677 15.947-12.973 3.824-4.654 6.835-10.167 8.471-15.967 1.448-5.131 2.4-10.822.997-15.966-1.638-6.008-6.381-10.771-10.465-15.468-6.038-6.944-20.493-18.492-20.493-18.492l5.482-3.992s13.375 9.92 18.998 15.997c5.419 5.859 11.51 11.859 13.953 19.46 1.864 5.8 1.17 12.3 0 18.28-1.185 6.056-3.429 12.1-6.977 17.146-3.724 5.297-9.362 8.973-14.452 12.973-3.008 2.364-6.563 3.997-9.468 6.487-5.893 5.049-11.031 10.958-15.947 16.964-4.907 5.997-9.181 12.496-13.455 18.96-2.8 4.235-7.973 12.974-7.973 12.974L2.993 240.364l15.947-27.942-10.963-12.973 10.465-7.984-14.95-25.946s17.639 7.954 25.816 13.071z" stroke="#55A" stroke-width="2" fill="#FF5" stroke-linecap="round" stroke-linejoin="round"/><path d="M37.877 185.977s-2.612 6.446-3.312 9.833c-1.053 5.094-1.607 10.36-1.289 15.553.261 4.26 2.608 12.535 2.608 12.535" stroke="#55A" stroke-width="2" stroke-linecap="round" stroke-linejoin="round"/><path d="M48.063 181.975c-2.68.152-5.634.231-7.98-1.075-3.051-1.7-4.607-5.26-6.661-8.096 0 0 5.953-.612 8.779.153 2.426.658 4.475 2.313 6.577 3.692 1.78 1.168 5.084 3.864 5.084 3.864s-3.81 1.35-5.8 1.462z" stroke="#55A" stroke-width="2" fill="#FF5" stroke-linecap="round" stroke-linejoin="round"/><path d="M35.884 159.532s1.4 3.988 2.795 5.496c2.167 2.341 5.379 3.437 8.168 4.982 3.575 1.98 7.983 2.69 10.964 5.489 3.028 2.843 6.276 10.77 6.276 10.77-3.02-.561-5.155-2.259-8.176-1.988 0 0-2.514-4.63-4.485-6.284-2.37-1.989-5.585-2.658-8.374-3.995-2.56-1.227-5.436-1.947-7.674-3.695-1.635-1.277-3.127-2.895-3.98-4.788-.897-1.994-.996-6.486-.996-6.486l5.482.499z" stroke="#55A" stroke-width="2" fill="#FF5" stroke-linecap="round" stroke-linejoin="round"/><path fill="#000" d="M24.772 176.663l9.118 17.8-6.52 7.24 5.524 10.22-8.071 16.169-8.764 3.688 10.161-19.355-6.283-11.48 7.28-7.683-10.895-20.457z"/><path d="M28.287 139.927s-3.97-5.442-3.367-8.398c.499-2.444 2.884-4.619 5.282-5.297 1.875-.53 4.217.081 5.682 1.366 1.74 1.527 2.507 4.17 2.491 6.487-.012 1.791-1.993 4.99-1.993 4.99s4.026-3.535 6.478-3.493c2.308.04 4.831 1.489 5.98 3.493 1.076 1.874.626 4.417 0 6.486-.52 1.722-1.322 3.82-2.99 4.49-2.931 1.18-9.253-2.056-9.253-2.056s2.69 5.934 1.58 8.644c-.77 1.878-2.956 3.47-4.984 3.493-2.994.034-6.287-2.237-7.475-4.99-.948-2.199 1.196-7.086 1.196-7.086s-5.064 2.298-7.475 1.497c-2.122-.705-4.35-2.756-4.486-4.99-.173-2.857 2.229-6.074 4.923-7.032 2.747-.976 8.41 2.396 8.41 2.396z" stroke="#55A" stroke-width="2" fill="#FF5" stroke-linecap="round" stroke-linejoin="round"/><path d="M23.924 143.565c3.275-2.16 6.696-3.982 8.97-8.482 2.252 4.668 4.888 6.653 7.475 8.981-2.597 1.275-5.197 2.615-7.974 8.482-1.954-3.254-3.206-6.72-8.471-8.98z" stroke="#55A" stroke-width="2" stroke-linecap="round" stroke-linejoin="round"/><path stroke="#55A" stroke-width="2" fill="#F55" stroke-linecap="round" stroke-linejoin="round" d="M26.224 138.384l-7.928-3.331-1.61-7.194 6.946 2.557zM37.877 137.079l1.97-7.7 7.499-3.277-2.492 8.482zM37.646 148.416l1.228 7.124 7.973 3.992-1.495-8.482zM26.96 147.795l-8.32 3.258-1.6 7.683 7.88-3.2z"/><path d="M45.468 188.15c3.726-1.5 7.6-3.421 11.621-3.265 5.174.201 10.106 2.751 14.587 5.35 1.964 1.139 5.032 2.12 5.213 4.385.156 1.958-1.965 3.903-3.846 4.46-2.467.73-4.89-1.634-7.408-2.163-2.41-.507-9.313-1.12-7.326-.961 4.712.378 9.71 1.177 13.655 3.776 1.593 1.05 3.675 2.562 3.58 4.47-.084 1.706-1.926 3.247-3.582 3.662-3.328.835-6.418-2.634-9.818-3.096-1.597-.218-6.48.162-4.832.17 4.08.016 8.493.728 11.856 3.04 1.444.994 3.558 2.612 3.044 4.29-.626 2.046-3.886 1.984-6.007 2.248-4.784.595-10.557-1.905-14.374-1.595 4.757.188 6.932.217 9.99 1.648 1.656.774 4.377 1.766 4.155 3.583-.238 1.957-3.34 2.29-5.272 2.668-2.923.57-5.935-.998-8.901-.74-2.386.208-4.67 1.087-6.95 1.822" stroke="#55A" stroke-width="2" stroke-linecap="round" stroke-linejoin="round"/><path d="M64.787 185.478c-1.81-3.285-2.675-7.23-2.491-10.977.154-3.152 2.2-5.927 2.99-8.982.678-2.62 1.495-7.983 1.495-7.983s4.132 6.705 4.983 10.478c.696 3.083.539 6.367 0 9.48-.421 2.437-1.46 4.74-2.492 6.986-.56 1.218-1.993 3.493-1.993 3.493s-1.924-1.466-2.492-2.495z" stroke="#55A" stroke-width="2" fill="#FF5" stroke-linecap="round" stroke-linejoin="round"/><g stroke="#55A" stroke-linecap="round" stroke-linejoin="round" stroke-width="2"><path d="M93.442 175l13.455-5.738-5.233 15.218s.05-3.461-1.183-4.272c-1.07-.703-3.8.53-3.8.53s1.729-3.43.84-4.78c-.77-1.167-4.08-.958-4.08-.958z" fill="#55A"/><path d="M102.59 167.207c-.31-.062-.52-.658-.305-.887.21-.224.807-.062.897.23.086.281-.301.716-.592.657zM108.843 174.011c-.234-.183-.208-.688.03-.866.202-.152.617-.058.757.148.111.165.009.435-.136.574-.157.15-.48.279-.651.144h0z"/></g><path d="M185.884 227.89l-45.35-42.662-16.583.097c-1.432 10.67-4.163 16.155-9.08 23.854l15.448 1.247 19.186 17.713" stroke="#55A" stroke-width="2" fill="#FF5" stroke-linecap="round" stroke-linejoin="round"/><path d="M138.728 188.97l-14.513-.034-.409 2.994 14.393.065 37.718 36.237c.57.547 1.587.525 2.133-.046.547-.572.525-1.59-.046-2.136l-38.186-36.674a1.513 1.513 0 0 0-1.09-.405z" fill="#000200"/><path stroke="#55A" stroke-width="2" stroke-linecap="round" stroke-linejoin="round" d="M121.1 197.993l13.953-.041 31.396 29.439"/><path d="M119.678 203.063l-1.659 2.765 13.67.326 22.27 21.548c.515.694 1.672.77 2.273.15.601-.62.49-1.776-.218-2.27l-22.674-21.986a1.51 1.51 0 0 0-.997-.436l-12.665-.097z" fill="#000200"/><path d="M91.698 228.139l139.036-.499" stroke="#55A" stroke-width="2" stroke-linecap="round" stroke-linejoin="round"/><path d="M264.858 136.841c-2.408 1.182-4.33 3.12-6.315 4.837-4.338 4.919-7.682 12.638-6.385 19.37.623 2.692 2.077 5.079 3.462 7.434.148 2.877.537 6.346-1.555 8.646-1.74 1.627-5.825-1.923-5.745 1.744 1.3 2.196 4.664 2.13 6.729 1.02 2.266-.41 3.431-4.78 3.612-4.862.985 4.438 1.648 8.978 1.6 13.535-.913 3.457-2.858 5.49-5.448 7.199-3.03 1.668-6.271-1.022-7.123-3.934.167-2.142-3.17-4.275-3.539-1.252.923 3.548 2.931 7.636 6.877 8.47 3.05.942 6.434-.657 8.143-3.248-1.325 3.425-2.95 7.6-.638 10.99 1.353 2.415 7.627 4.758 8.038.957-1.324-1.978-5.344-.333-6.048-3.575-.703-2.64.87-5.203 1.592-7.69 1.627-3.955 1.103-9.547.96-13.707-.492-6.026-1.605-11.007-5.053-16.105-.635-1.136-2.403-3.898-2.005-4.132 2.046 1.991 5.22 2.274 7.684.898 2.242-.825 5.995-5.537 2.446-6.68-2.11 1.288-3.003 5.546-6.485 4.328-2.597-1.235-5.93-3.472-4.233-6.645.895-2.968 2.705-10.77 10.146-14.458 1.242-1.02 1.288-3.205-.717-3.14z" fill="#FFF"/><g fill="#FFF"><path d="M108.922 128.347c-5.448-.225-11.523 5.376-8.887 10.96 1.028 3.472 6.167 5.42 8.971 3.032.828-1.156-.592-2.814-1.86-2.173-7.038 1.56-5.11-9.341.88-8.702 5.526-1.028 7.733 5.087 8.906 9.287 1.903 5.192.77 10.936 2.801 16.13 1.574 7.897 5.647 15.851 13.233 19.417 4.954 3.021 10.862 2.342 16.147.743 5.542-.474 12.047-2.208 16.668 1.984 3.655 2.75 6.341 7.369 5.861 11.918-2.583 3.434-7.658 6.552-11.233 2.471-2.516-2.213.075-6.186-1.83-8.458-1.297-.915-2.845.675-2.4 2.071-.513 4.14.737 8.935 4.994 10.572 3.764 2.943 9.181-1.615 10.788-2.016.557 5.735 1.988 11.574 4.696 16.678 3.67 6.216 11.718 5.805 17.894 4.852 3.64-2.119 12.673-2.958 12.877 2.603-1.159 3.655-4.445 1.622-6.915 1.487-1.635.537-1.048 2.97.568 3.062 5.486 3.855 13.06-4.858 7.74-9.28-2.943-3.199-10.591-2.186-11.76-2.515 3.498-4.924.01-12.09-5.733-13.056-2.992-.748-6.906 1.026-8.32 3.724-.206 1.754 2.214 2.179 3.07.835 4.231-4.811 12.277 1.968 8.448 6.986-2.163 3.757-6.53 4.234-10.346 3.258-6.36-1.456-6.894-9.067-8.575-14.207-1.539-6.565.49-14.305-4.425-19.8-3.71-5.095-10.15-8.057-16.424-6.79-2.517-.042-8.117 1.951-4.388-1.86 2.999-5.139 1.692-13.19-4.549-15.205-2.395-.536-4.588-2.073-6.917-2.286-3.99-2.288-11.252-1.247-11.827-7.295-1.017-2.84 2.49-4.196 2.447-6.619-.533-1.81-3.107-1.072-3.575.463-3.914 4.67-1.396 13.068 4.87 14.049 2.282.713 6.24.877 2.367 2.807-3.121 2.542-1.642 8.539 1.907 9.887 1.763.143 2.117-2.474.523-3.035-4.122-6 5.813-8.68 9.653-4.904 5.065 2.192 4.186 9.35 1.061 12.865-1.88 4.535-7.753 3.408-11.267 1.692-7.222-3.042-10.95-10.54-12.447-17.847-2.052-5.806-.73-12.196-3.281-17.89-1.28-4.932-4.714-10.142-10.411-9.895z"/><path d="M114.133 147.689c0 1.102-1.004 1.996-2.243 1.996-1.238 0-2.242-.894-2.242-1.996 0-1.103 1.004-1.996 2.242-1.996 1.239 0 2.243.893 2.243 1.996zM159.525 167.134c0 1.102-1.004 1.996-2.242 1.996-1.239 0-2.243-.894-2.243-1.996 0-1.103 1.004-1.996 2.243-1.996 1.238 0 2.242.893 2.242 1.996zM152.554 184.292c0 1.102-1.004 1.996-2.242 1.996-1.239 0-2.243-.894-2.243-1.996 0-1.102 1.004-1.996 2.243-1.996 1.238 0 2.242.894 2.242 1.996zM184.505 192.144c0 1.102-1.004 1.996-2.243 1.996-1.238 0-2.242-.894-2.242-1.996 0-1.102 1.004-1.996 2.242-1.996 1.239 0 2.243.894 2.243 1.996z"/></g><path d="M145.872 127.343s.548 3.595.138 5.322c-.494 2.078-1.75 3.935-3.03 5.645-.587.786-2.114 1.086-2.093 2.067.034 1.554 1.906 3.2 3.457 3.127 1.754-.082 2.904-2.254 3.565-3.883.851-2.095.599-4.557.197-6.783-.35-1.946-2.234-5.495-2.234-5.495zM151.252 131.8s1.02 2.317.995 3.558c-.03 1.494-.683 2.985-1.377 4.38-.318.642-1.438 1.135-1.258 1.792.286 1.04 1.996 1.791 3.172 1.447 1.33-.39 1.848-2.073 2.082-3.296.302-1.574-.303-3.184-.984-4.607-.594-1.244-2.63-3.275-2.63-3.275zM156.12 136.637s1.021 2.318.996 3.559c-.031 1.494-.683 2.985-1.377 4.38-.319.642-1.439 1.135-1.258 1.792.286 1.04 1.995 1.792 3.172 1.447 1.33-.39 1.847-2.072 2.082-3.295.301-1.574-.304-3.185-.984-4.608-.595-1.243-2.63-3.275-2.63-3.275zM131.723 117.74s.369 1.752.092 2.593c-.333 1.012-1.18 1.917-2.044 2.75-.396.383-1.427.53-1.412 1.007.022.758 1.286 1.559 2.333 1.524 1.183-.04 1.959-1.099 2.405-1.892.574-1.02.404-2.22.133-3.305-.237-.948-1.507-2.677-1.507-2.677zM135.383 117.98s1.021 2.317.996 3.558c-.031 1.494-.683 2.985-1.377 4.38-.319.642-1.439 1.135-1.258 1.792.286 1.04 1.995 1.791 3.172 1.447 1.33-.39 1.847-2.072 2.082-3.296.301-1.574-.304-3.184-.984-4.607-.595-1.244-2.63-3.275-2.63-3.275zM140.252 122.818s1.02 2.317.995 3.558c-.03 1.494-.683 2.985-1.376 4.38-.32.642-1.44 1.135-1.259 1.792.286 1.04 1.996 1.792 3.173 1.447 1.33-.39 1.847-2.072 2.081-3.295.302-1.574-.303-3.185-.983-4.607-.595-1.244-2.631-3.275-2.631-3.275zM162.1 142.169s.547 3.725.137 5.513c-.494 2.153-1.75 4.077-3.03 5.849-.587.813-2.114 1.124-2.093 2.14.034 1.611 1.906 3.315 3.458 3.24 1.753-.084 2.903-2.335 3.564-4.022.851-2.171.6-4.722.197-7.028-.35-2.016-2.234-5.692-2.234-5.692zM167.479 146.625s1.02 2.317.995 3.559c-.03 1.494-.683 2.985-1.376 4.38-.32.641-1.44 1.135-1.259 1.792.286 1.04 1.996 1.791 3.173 1.447 1.33-.39 1.847-2.073 2.081-3.296.302-1.574-.303-3.184-.983-4.607-.595-1.244-2.631-3.275-2.631-3.275zM172.347 151.463s1.021 2.318.996 3.559c-.031 1.494-.683 2.985-1.377 4.38-.319.642-1.439 1.135-1.258 1.792.286 1.04 1.995 1.791 3.172 1.447 1.33-.39 1.848-2.072 2.082-3.296.301-1.573-.304-3.184-.984-4.607-.594-1.244-2.63-3.275-2.63-3.275zM177.93 156.274s.547 3.595.137 5.321c-.494 2.079-1.75 3.936-3.03 5.646-.587.785-2.114 1.085-2.093 2.066.034 1.555 1.906 3.2 3.457 3.128 1.754-.082 2.904-2.255 3.565-3.883.851-2.096.599-4.558.197-6.784-.35-1.946-2.234-5.494-2.234-5.494zM182.147 160.584s1.02 2.318.995 3.559c-.03 1.494-.683 2.985-1.376 4.38-.32.642-1.44 1.135-1.259 1.792.286 1.04 1.996 1.792 3.173 1.447 1.33-.39 1.847-2.072 2.081-3.295.302-1.574-.303-3.185-.983-4.608-.595-1.243-2.631-3.275-2.631-3.275z" fill="#FF5"/><path d="M186.435 164.55s1.02 2.318.995 3.559c-.03 1.494-.683 2.985-1.377 4.38-.318.642-1.438 1.135-1.258 1.792.286 1.04 1.996 1.791 3.172 1.447 1.33-.39 1.848-2.073 2.082-3.296.302-1.574-.303-3.184-.984-4.607-.594-1.244-2.63-3.275-2.63-3.275zM191.871 169.652s.548 3.595.138 5.321c-.494 2.078-1.75 3.936-3.03 5.646-.587.785-2.114 1.085-2.093 2.066.034 1.555 1.906 3.2 3.457 3.127 1.754-.081 2.904-2.254 3.565-3.882.851-2.096.599-4.558.197-6.784-.35-1.946-2.234-5.494-2.234-5.494zM196.38 173.817s1.02 2.317.995 3.558c-.031 1.494-.683 2.985-1.377 4.381-.319.641-1.439 1.135-1.258 1.791.286 1.041 1.995 1.792 3.172 1.447 1.33-.39 1.847-2.072 2.082-3.295.301-1.574-.304-3.184-.984-4.607-.595-1.244-2.63-3.275-2.63-3.275zM201.103 178.219s1.02 2.317.995 3.558c-.03 1.494-.683 2.985-1.377 4.381-.318.641-1.438 1.135-1.258 1.791.286 1.041 1.996 1.792 3.172 1.447 1.33-.39 1.848-2.072 2.082-3.295.302-1.574-.303-3.184-.984-4.607-.594-1.244-2.63-3.275-2.63-3.275zM206.975 182.011s.548 3.596.137 5.322c-.493 2.078-1.75 3.935-3.029 5.645-.587.786-2.115 1.086-2.093 2.067.034 1.555 1.906 3.2 3.457 3.127 1.754-.081 2.903-2.254 3.565-3.883.85-2.095.599-4.557.197-6.783-.351-1.946-2.234-5.495-2.234-5.495zM211.338 186.322s1.02 2.317.995 3.558c-.03 1.495-.683 2.985-1.376 4.381-.32.641-1.44 1.135-1.259 1.792.286 1.04 1.996 1.791 3.173 1.447 1.33-.39 1.847-2.073 2.081-3.296.302-1.574-.303-3.184-.983-4.607-.595-1.244-2.631-3.275-2.631-3.275zM232.574 162.213s.588 3.338 1.54 4.672c1.337 1.873 3.748 2.677 5.496 4.173.43.369 1.098.628 1.226 1.181.211.918-.178 2.147-.97 2.654-1.119.715-2.845.379-3.966-.331-1.91-1.21-2.827-3.683-3.401-5.87-.549-2.09.075-6.479.075-6.479zM230.632 169.077s.838 1.49 1.27 2.226c.656 1.118 1.19 2.324 2.01 3.327.636.778 2.284 1.036 2.219 2.04-.076 1.16-1.634 2.127-2.854 2.004-1.379-.139-2.124-1.67-2.65-2.858-.607-1.374-.449-2.99-.384-4.491.032-.76.39-2.248.39-2.248z" fill="#FF5"/><path d="M228.786 174.038s.52 2.354 1.108 3.385a11.661 11.661 0 0 0 3.005 3.413c.578.445 1.805.311 1.959.975.243 1.051-.902 2.527-2.1 2.785-1.356.292-2.611-.94-3.4-1.904-1.013-1.24-1.248-2.945-1.327-4.52-.069-1.377.755-4.134.755-4.134zM227.631 181.244s.588 3.337 1.54 4.671c1.337 1.873 3.749 2.677 5.496 4.173.43.37 1.098.628 1.226 1.182.211.918-.178 2.147-.97 2.654-1.119.714-2.845.378-3.966-.332-1.909-1.21-2.827-3.683-3.401-5.87-.549-2.089.075-6.478.075-6.478zM235.817 152.3s.633 1.42.97 2.122c.352.737.651 1.507 1.099 2.19.707 1.082 2.632 1.696 2.479 2.98-.105.877-1.25 1.663-2.129 1.579-1.188-.114-1.942-1.543-2.423-2.642-.556-1.27-.411-2.764-.352-4.151.03-.703.356-2.078.356-2.078zM234.76 158.424s.438 1.806.934 2.596c.632 1.01 1.517 1.91 2.527 2.617.487.341 1.519.239 1.648.748.205.806-.759 1.938-1.767 2.136-1.14.224-2.196-.722-2.86-1.46-.852-.951-1.05-2.258-1.116-3.467-.058-1.056.635-3.17.635-3.17zM237.66 146.484s.539 3.074 1.412 4.304c1.225 1.725 3.435 2.466 5.036 3.845.396.34 1.008.578 1.125 1.088.193.846-.163 1.978-.89 2.446-1.025.658-2.607.348-3.635-.306-1.75-1.115-2.591-3.393-3.117-5.409-.503-1.924.069-5.968.069-5.968zM240.723 136.57s.792 1.362 1.162 2.058c.464.876.725 1.874 1.324 2.664.69.91 2.61 1.155 2.543 2.296-.062 1.066-1.495 1.966-2.61 1.853-1.262-.128-1.943-1.543-2.424-2.641-.556-1.27-.41-2.764-.352-4.152.03-.702.357-2.078.357-2.078zM239.46 142.386s.438 1.805.934 2.596c.632 1.01 1.517 1.909 2.527 2.617.487.341 1.519.239 1.648.747.205.807-.759 1.938-1.767 2.137-1.14.224-2.196-.722-2.86-1.46-.852-.952-1.05-2.259-1.116-3.467-.058-1.056.635-3.17.635-3.17zM241.78 128.436s.587 3.337 1.54 4.672c1.336 1.872 3.747 2.676 5.494 4.173.432.369 1.1.628 1.227 1.181.211.918-.178 2.147-.971 2.654-1.118.715-2.844.378-3.965-.332-1.91-1.21-2.827-3.682-3.401-5.87-.549-2.088.075-6.478.075-6.478zM245.113 121.162s.936.496 1.344.83c.59.48 1.025 1.127 1.566 1.664.654.65 2.023.96 2.029 1.885.004.72-.846 1.484-1.565 1.488-1.184.008-2.016-1.386-2.606-2.413-.303-.529-.264-1.19-.397-1.786l-.37-1.668zM243.966 124.647s.437 1.805.933 2.596c.632 1.01 1.517 1.909 2.527 2.617.487.341 1.519.239 1.648.748.205.806-.759 1.937-1.767 2.136-1.14.224-2.196-.722-2.86-1.46-.852-.952-1.05-2.259-1.116-3.467-.058-1.056.635-3.17.635-3.17z" fill="#FF5"/><path d="M224.007 193.461c-3.631.025-6.27 2.828-7.88 6.05-1.61 3.222-2.39 7.059-2.336 10.198.053 3.1.95 6.827 2.647 9.948 1.698 3.12 4.387 5.808 7.974 5.738 3.567-.07 6.108-2.855 7.662-6.019 1.553-3.164 2.302-6.882 2.273-9.948-.03-3.098-.86-6.87-2.492-10.042-1.63-3.172-4.242-5.95-7.848-5.925zm0 2.994c2.041-.014 3.834 1.613 5.201 4.272 1.367 2.66 2.125 6.144 2.15 8.701.023 2.525-.663 5.992-1.963 8.638s-3.03 4.295-5.046 4.335c-2.034.04-3.843-1.569-5.263-4.179-1.42-2.61-2.262-6.048-2.305-8.576-.044-2.565.674-6.092 2.024-8.794 1.35-2.702 3.135-4.383 5.202-4.397z" fill="#FF5" fill-rule="nonzero"/><path d="M222.76 209.927s-2.47-1.94-3.737-1.497c-.632.22-1.085 1.082-.996 1.746.117.875.99 1.806 1.868 1.871 1.185.089 2.866-2.12 2.866-2.12zM225.377 209.677s1.068-2.2 2.118-2.494c.885-.248 2.33-.001 2.616.873.27.822-.7 1.782-1.495 2.12-1.005.428-3.239-.499-3.239-.499zM223.508 207.307s-3.361-2.134-3.488-3.867c-.11-1.495 1.007-3.549 2.492-3.742 1.43-.186 2.95 1.455 3.239 2.87.35 1.712-2.243 4.74-2.243 4.74zM223.757 212.297s-2.071 3.3-1.62 4.99c.29 1.08 1.377 2.308 2.493 2.245 1.439-.082 2.886-1.8 2.865-3.243-.026-1.824-3.738-3.992-3.738-3.992z" stroke="#FF5" fill="#FF5" stroke-linecap="round" stroke-linejoin="round"/><g stroke="#55A" stroke-linecap="round" stroke-linejoin="round" stroke-width="2"><path d="M87.669 201.934l14.214-6.855-6.45 14.946s1.072-3.259.035-4.196c-1.173-1.06-4.713.52-4.713.52s1.53-2.992.687-4.084c-.773-1-3.773-.33-3.773-.33h0z" fill="#55A"/><path d="M97.577 193.062c-.31-.061-.52-.647-.305-.872.21-.22.807-.06.897.227.086.275-.302.702-.592.645zM103.829 199.744c-.235-.18-.208-.676.03-.851.202-.15.617-.057.757.146.11.162.008.426-.137.563-.157.148-.478.274-.65.142h0z"/></g><g stroke="#55A" stroke-linecap="round" stroke-linejoin="round" stroke-width="2"><path d="M78.386 187.83l13.455-5.738-5.232 15.219s.05-3.462-1.184-4.273c-1.069-.702-3.8.53-3.8.53s1.73-3.43.84-4.78c-.77-1.167-4.079-.958-4.079-.958z" fill="#55A"/><path d="M87.534 180.038c-.31-.062-.52-.659-.305-.888.21-.224.808-.062.897.231.086.28-.301.715-.592.657zM93.787 186.842c-.234-.184-.208-.688.03-.867.203-.152.618-.057.757.15.111.164.01.434-.136.573-.157.15-.479.278-.65.144h0z"/></g><g stroke="#55A" stroke-linecap="round" stroke-linejoin="round" stroke-width="2.014"><path d="M63.984 224.477l13.442-7.502-4.114 14.155s.284-3.364-.93-3.974c-1.503-.755-4.624 2.015-4.624 2.015s2.375-3.481 1.36-4.798c-1.045-1.357-5.134.104-5.134.104z" fill="#55A"/><path d="M74.858 215.181c-.243-.058-.409-.613-.24-.826.165-.208.635-.057.705.215.068.261-.237.665-.465.611zM79.949 220.983c-.184-.17-.163-.64.024-.806.159-.141.485-.054.595.138.087.154.007.404-.107.534-.124.14-.377.26-.512.134h0z"/></g><g stroke="#55A" stroke-linecap="round" stroke-linejoin="round" stroke-width="2"><path d="M27.644 236.166l13.455-5.738-5.233 15.219s.05-3.462-1.183-4.273c-1.07-.702-3.8.53-3.8.53s1.729-3.43.839-4.78c-.769-1.167-4.078-.958-4.078-.958z" fill="#55A"/><path d="M36.792 228.374c-.31-.062-.52-.659-.305-.888.21-.224.807-.061.897.231.086.281-.302.716-.592.657zM43.045 235.178c-.235-.184-.208-.688.03-.867.202-.151.617-.057.757.15.11.164.009.434-.137.573-.157.15-.478.279-.65.144h0z"/></g><g stroke="#55A" stroke-linecap="round" stroke-linejoin="round" stroke-width="2"><path d="M43.148 247.28l13.455-5.738-5.232 15.218s.05-3.46-1.184-4.272c-1.069-.703-3.8.53-3.8.53s1.73-3.43.84-4.78c-.77-1.167-4.079-.958-4.079-.958z" fill="#55A"/><path d="M52.297 239.488c-.31-.062-.52-.659-.305-.888.21-.224.807-.062.896.231.086.28-.301.715-.591.657zM58.55 246.292c-.235-.184-.209-.688.03-.867.202-.152.617-.057.756.149.112.165.01.434-.136.573-.157.15-.479.28-.65.145h0z"/></g><g><path fill="#F55" d="M43.857 352.63l21.927-75.343-.25-8.483 2.493-8.233 4.485-4.74 4.485-1.497-8.077-.292-13.936 22.247L1 240.05l.498 79.398zM300.252 317.203v-77.338l-2.367 1.247-15.822 28.191 10.714 12.474-10.216 8.233 14.328 24.574z"/><path stroke="#55A" stroke-width="2" fill="#5455AA" stroke-linecap="round" stroke-linejoin="round" d="M196.723 322.817l34.26-30.312 8.098 3.243 7.226.5 8.721-2.87 1.37 3.493 3.115 1.247 3.738-1.746 7.101 6.611-54.07 38.545-8.845-8.233z"/><path fill="#F55" d="M115.23 254.134l-34.119.458 6.397 6.558 2.133 9.14 101.14 91.516 19.344-16.624-15.384-12.353-11.12-12.658-6.092-10.218-1.219-13.421-15.536.305z"/><path d="M40.12 349.636L1.498 319.449" stroke="#55A" stroke-width="2" stroke-linecap="round" stroke-linejoin="round"/><path d="M199.588 479.865a130.607 130.607 0 0 1-6.977-27.443c-1.002-7.101-1.418-14.297-.996-21.456a92.376 92.376 0 0 1 4.983-24.948 115.492 115.492 0 0 1-22.924-5.987l-45.348 79.834h71.262" stroke="#55A" stroke-width="2" fill="#FF5" stroke-linecap="round" stroke-linejoin="round"/><path stroke="#55A" stroke-width="2" fill="#F55" stroke-linecap="round" stroke-linejoin="round" d="M173.176 400.03l-7.973-5.987-49.336 85.822h12.459l44.85-79.834"/><path d="M141.033 479.865s-3.985-5.904-.747-10.978c1.81-2.838 9.468-3.492 9.468-3.492s-3.068-9.204-.498-12.474c2.619-3.333 12.458-2.495 12.458-2.495s-5.13-10.963-2.491-15.468c3.826-6.533 10.635-4.326 10.635-4.326s-4.06-7.863 1.325-14.135c2.795-3.256 12.707-1.996 12.707-1.996-3.6-4.272-3.439-5.476-3.986-7.734-.548-2.258-.408-2.992-.408-2.992" stroke="#000100" stroke-width="2" stroke-linecap="round" stroke-linejoin="round"/><path d="M170.79 426.817c.335-1.157.738-2.322 1.39-3.335.858-1.336 1.798-2.827 3.239-3.493 1.811-.836 4.322-1.36 5.98-.25 1.615 1.084 2.314 3.57 1.993 5.49-.37 2.215-4.236 5.238-4.236 5.238s5.364 1.1 6.479 3.244c1.046 2.013.408 4.955-.997 6.736-1.387 1.757-4.09 3.149-6.23 2.495-2.4-.735-4.235-6.237-4.235-6.237s-.547 4.288-1.744 5.987c-1.064 1.509-2.651 3.052-4.485 3.243-1.628.17-3.594-.622-4.486-1.996-1.403-2.161-1.17-5.437 0-7.733 1.173-2.302 6.27-4.55 6.27-4.55s-1.134 3.182 1.507 4.602c2.11 1.135 5.532-.967 6.446-3.184.774-1.877-.022-5.192-1.967-5.765-3.883-1.142-5.462 2.627-5.462 2.627s.243-2.106.537-3.12zM151.357 461.621c.337-1.157.74-2.322 1.39-3.335.86-1.336 1.799-2.827 3.24-3.492 1.812-.837 4.322-1.362 5.98-.25 1.615 1.083 2.314 3.569 1.993 5.489-.37 2.216-4.236 5.239-4.236 5.239s5.364 1.099 6.479 3.243c1.047 2.013.408 4.955-.997 6.736-1.386 1.757-4.09 3.149-6.23 2.495-2.4-.735-4.235-6.237-4.235-6.237s-.547 4.289-1.744 5.987c-2.225 3.053-6.857 2.568-8.97 1.248-1.403-2.162-1.17-5.438 0-7.734 1.173-2.302 6.268-4.55 6.268-4.55s-1.133 3.183 1.508 4.602c2.111 1.135 5.532-.967 6.446-3.184.774-1.877-.021-5.192-1.967-5.764-3.883-1.143-5.462 2.626-5.462 2.626s.243-2.106.537-3.119z" stroke="#000100" stroke-width="2" fill="#000" stroke-linecap="round" stroke-linejoin="round"/><g stroke="#55A" stroke-linecap="round" stroke-linejoin="round" stroke-width="2"><path d="M144.924 394.392c-.523-4.572-1.641-9.651-2.829-12.893M140.714 400.574c-.79-8.103-3.087-14.725-4.694-20.601M136.224 408.161c-1.393-9.682-3.014-20.44-6.356-29.472M128.448 396.75c-.584-7.237-3.04-13.7-4.215-19.163M122.191 389.362c-1.033-6.672-2.455-9.371-3.236-12.58M115.57 383.312c-.748-2.662-1.617-4.738-2.366-6.744M80.485 479.865s-.976-12.852-7.724-19.71c-6.748-6.857-15.2-10.228-15.2-10.228"/><path d="M76.374 479.865s-1.266-10.747-6.623-16.747c-5.356-6-12.065-8.201-12.065-8.201"/><path d="M72.885 479.865s-1.555-7.82-5.52-12.391c-3.965-4.572-9.928-7.568-9.928-7.568M68.4 479.865s-1.053-5.393-4.254-8.936c-3.2-3.543-6.71-5.285-6.71-5.285M64.04 479.865s-.619-4.07-2.497-6.242c-1.878-2.171-4.23-3.239-4.23-3.239"/><g><path d="M81.233 478.617s.478-9.858 8.471-18.71c7.994-8.854 21.927-7.984 21.927-7.984"/><path d="M84.596 479.116s1.266-8.5 8.367-15.998c7.1-7.497 15.803-6.455 15.803-6.455"/><path d="M89.33 479.116s1.556-7.82 5.52-12.39c3.966-4.572 11.673-5.073 11.673-5.073"/><path d="M93.816 479.116s1.053-5.393 4.253-8.935c3.2-3.543 5.215-3.04 5.215-3.04"/></g><path d="M56.519 443.005s-6.124-18.783-8.42-28.38c-2.657-11.114-4.932-22.361-6.174-33.72-1.11-10.157-1.122-30.63-1.122-30.63l31.994 26.695s-8.866 12.156-11.507 19.108c-1.996 5.254-2.322 11.01-3.087 16.58-.717 5.216-1.119 10.477-1.403 15.735-.264 4.865-.281 14.612-.281 14.612z" fill="#55A"/><g><path d="M77.568 433.732s.223-5.068 0-7.587c-.235-2.654-.786-5.276-1.404-7.868-.68-2.854-2.388-5.5-2.525-8.43-.079-1.67-.002-3.567.982-4.917.852-1.169 2.737-1.116 3.789-2.108.888-.837 1.964-3.09 1.964-3.09"/><path d="M92.723 410.69s3.453-4.053 2.947-6.322c-.319-1.428-1.94-2.5-3.368-2.81-1.563-.34-3.157.642-4.63 1.264-1.701.718-2.989 3.285-4.772 2.81-.729-.194-1.438-1.281-1.123-1.967.837-1.819 3.903-.936 5.894-1.124 2.422-.229 5.451-1.586 7.297 0 .934.802.81 2.446.561 3.653-.355 1.731-2.806 4.496-2.806 4.496z" fill="#55A"/></g><g><path d="M113.491 442.724s-6.25 3.166-9.755 3.772c-3.358.58-7.024.676-10.282-.222-2.34-.645-6.064-3.55-6.064-3.55s5.203 1.93 7.927 2.337c3.384.506 6.879.597 10.265.104 2.73-.398 7.909-2.44 7.909-2.44z" fill="#55A"/><path d="M93.004 435.7l-2.807 2.247s4.434 1.55 6.736 1.967c2.492.451 5.097 1.075 7.577.562 2.377-.49 4.47-1.975 6.455-3.372 2.6-1.829 7.016-6.463 7.016-6.463"/><path d="M114.894 430.641s-6.759 3.314-10.384 4.215c-2.236.556-4.573.624-6.876.703-1.403.048-4.21-.14-4.21-.14l-2.946-5.059 4.77-2.248-4.378.731c1.512-4.456 6.7-7.311 9.43-9.16"/><path d="M96.371 434.435s-2.015-3.394 0-6.323c1.17-1.698 4.335-1.209 6.175-.28 3.193 1.61 6.46 2.892 8.42 4.074l-5.895 1.405c1.054-1.727-.235-3.523-1.403-4.637-1.397-1.331-3.828-2.137-5.613-1.405-1.826.749-3.266 3.785-3.087 5.058.118.836 1.403 2.108 1.403 2.108z"/><path d="M99.74 432.89c.814.28 2.088-.832 1.964-1.687-.134-.913-1.807-1.7-2.526-1.124-.745.597-.34 2.498.561 2.81z"/></g><g><path d="M59.01 444.49s5.775 2.06 8.575 1.334c3.394-.882 8.299-6.472 8.299-6.472s-5.286 4.63-8.58 5.167c-2.878.47-8.54-1.895-8.54-1.895l.245 1.866z" fill="#55A"/><path d="M77.708 434.716s-3.993 4.054-6.595 4.917c-2.842.943-6.195 1.096-8.981 0-1.664-.654-3.93-3.653-3.93-3.653M76.164 432.89s-4.948 2.085-7.577 2.247c-2.272.14-4.544-.51-6.736-1.124-1.455-.408-4.21-1.686-4.21-1.686s2.616-2.542 4.21-3.372c2.076-1.08 4.398-2.011 6.736-1.967 1.183.023 3.368 1.124 3.368 1.124l3.648 1.434c-.983-2.057-2.717-5.773-4.07-6.913"/><path d="M72.235 433.451c1.478-3.072-.098-3.086-.28-4.496l-1.123-1.124M67.464 432.608c.656-.487 1.069-1.747.562-2.388-.581-.735-2.145-.663-2.807 0-.53.53-.512 1.702 0 2.248.514.547 1.643.588 2.245.14z"/></g><g><path d="M95.53 389.48s-4.788 2.004-7.438 1.985c-2.015-.014-3.599-1.546-5.613-1.588-2.81-.059-5.33 2.51-7.998 1.886-1.085-.253-1.965-1.986-1.965-1.986s1.896.81 2.947.795c2.493-.036 4.39-1.944 6.876-2.085 2.499-.142 4.799 1.137 7.297 1.29 1.962.121 5.893-.297 5.893-.297z" fill="#55A"/><path d="M88.513 382.31s-3.085 1.65-4.771 1.685c-1.908.04-5.473-1.686-5.473-1.686M89.215 386.103s-4.064-1.362-6.175-1.405c-1.807-.038-5.332.983-5.332.983"/></g><path d="M56.814 479.116s.078-23.624.498-35.426c.466-13.07-.476-26.377 2.243-39.168 1.22-5.741 3.705-11.169 6.23-16.466 1.986-4.171 3.518-8.915 6.976-11.975 2.844-2.517 6.704-3.982 10.465-4.49 4.237-.574 8.62.493 12.708 1.746 5.754 1.762 11.196 4.63 16.196 7.983 4.693 3.148 9.037 6.927 12.707 11.226 2.815 3.297 5.23 7.01 6.977 10.978 1.284 2.916 2.492 9.23 2.492 9.23"/></g><path stroke="#000" stroke-width="2" fill="#FF5" stroke-linecap="round" stroke-linejoin="round" d="M29.156 418.742l-9.717 16.216-8.721-16.216 9.468-15.717z"/><path stroke="#000" stroke-width="2" fill="#F55" stroke-linecap="round" stroke-linejoin="round" d="M23.924 419.24l-3.987 6.986-3.738-6.736 3.738-7.484z"/><path d="M20.934 400.156c0-3.1 2.398-5.614 5.357-5.614 2.958 0 5.357 2.514 5.357 5.614s-2.399 5.613-5.357 5.613c-2.959 0-5.357-2.513-5.357-5.613zM9.472 400.655c0-3.238 2.454-5.863 5.481-5.863 3.028 0 5.482 2.625 5.482 5.863 0 3.238-2.454 5.862-5.482 5.862-3.027 0-5.481-2.624-5.481-5.862zM11.465 316.954c0-4.547 4.016-8.233 8.97-8.233 4.954 0 8.97 3.686 8.97 8.233 0 4.547-4.016 8.233-8.97 8.233-4.954 0-8.97-3.686-8.97-8.233z" stroke="#000" stroke-width="2" fill="#FF5" stroke-linecap="round" stroke-linejoin="round"/><path d="M20.684 325.187c3.835 1.012 7.26 4.405 8.73 8.093 1.718 4.31-.406 9.277-.896 13.89-1.094 10.306-3.087 20.495-4.556 30.753-.959 6.7-2.056 16.46-2.78 20.112-1.887.528-2.123-.824-2.067-2.509-1.897-15.014-4.082-29.994-5.68-45.043-.519-4.877-2.058-9.818-1.267-14.658.563-3.45 1.5-7.374 4.18-9.615 1.14-.953 2.9-1.402 4.336-1.023z" stroke="#000" stroke-width="2" fill="#FF5" stroke-linecap="round" stroke-linejoin="round"/><path d="M19.937 378.326s-1.54-16.645-2.492-24.948c-.516-4.499-1.703-8.944-1.744-13.472-.02-2.259-.23-4.7.748-6.736.712-1.484 3.488-3.493 3.488-3.493M18.94 321.445c-1.467-1.53-3.052-3.577-2.807-5.673.165-1.408 1.41-2.719 2.714-3.273.872-.37 1.893.114 2.834.214" stroke="#000" stroke-width="2" stroke-linecap="round" stroke-linejoin="round"/><path d="M24.92 254.584s2.098 17.772 2.741 26.694c.431 5.977 1.671 12.042.748 17.963-.41 2.625-.777 5.698-2.741 7.484-1.462 1.33-3.757 1.508-5.731 1.497-1.894-.01-4.137-.162-5.482-1.497-2.39-2.372-2.425-6.375-2.74-9.73-.541-5.734.818-11.494 1.494-17.214.79-6.68 2.065-13.295 2.99-19.958.45-3.239 1.246-9.73 1.246-9.73l7.475 4.49z" stroke="#000" stroke-width="2" fill="#FF5" stroke-linecap="round" stroke-linejoin="round"/><path d="M19.937 303.732s-3.063-2.113-3.738-3.743c-1.112-2.689-.106-5.823 0-8.731.208-5.667.687-11.323 1.246-16.965.727-7.34 2.741-21.954 2.741-21.954" stroke="#000" stroke-width="2" stroke-linecap="round" stroke-linejoin="round"/><path d="M151 383.565l8.97-15.717-77.99-72.599-16.694 62.87-9.377 2.838 17.445 15.313s5.159-3.5 8.128-4.18c3.4-.782 7.008-.229 10.465.249 3.652.504 10.714 2.744 10.714 2.744s13.84.717 20.681 1.746c5.8.873 11.505 2.311 17.193 3.742 3.518.886 10.465 2.994 10.465 2.994z" stroke="#000" stroke-width="2" fill="#FF5" stroke-linecap="round" stroke-linejoin="round"/><path d="M153.492 378.576s-12.868-4.01-19.436-5.489c-5.341-1.203-10.762-2.065-16.196-2.744-6.118-.766-12.275-1.302-18.438-1.497-4.733-.15-9.487-.177-14.203.25-5.113.461-15.2 2.494-15.2 2.494M154.24 362.858s-12.702-3.718-19.187-4.99c-6.167-1.208-12.43-1.92-18.688-2.494-4.968-.455-9.96-.762-14.95-.748-5.989.016-11.977.44-17.94.997-6.172.577-18.438 2.426-18.438 2.426M136.05 352.88s-18.56-3.304-27.948-3.818c-6.777-.372-13.59.005-20.356.536-5.19.408-15.484 2.034-15.484 2.034l12.21-47.9 51.578 49.147z" stroke="#000" stroke-width="2" stroke-linecap="round" stroke-linejoin="round"/><path d="M119.106 344.646s-14.612-1.165-21.927-.998c-6.123.14-18.299 1.674-18.299 1.674l8.083-33.108 32.143 32.432z" stroke="#000" stroke-width="2" stroke-linecap="round" stroke-linejoin="round"/><path stroke="#000" stroke-width="2" stroke-linecap="round" stroke-linejoin="round" d="M96.183 322.443l-7.438-3.206-4.273 4.702M103.151 328.819c.498.998-13.198-4.131-13.198-4.131l-7.228 6.985"/><path stroke="#000" stroke-width="2" stroke-linecap="round" stroke-linejoin="round" d="M111.055 337.124l-19.108-7.447-11.32 9.8"/><path stroke="#000" stroke-width="2" stroke-linecap="round" stroke-linejoin="round" d="M114.474 344.18l-21.53-9.513-11.14 9.942"/><path stroke="#000" stroke-width="2" stroke-linecap="round" stroke-linejoin="round" d="M102.302 343.646l-7.863-4.239-5.233 3.992M112.628 364.605l-5.98-.569v-4.49l5.98.568zM155.749 374.393l-4.172-1.787 1.9-4.068 4.42 2.536zM147.345 370.811l-5.79-1.71 1.033-4.57 5.754 1.852zM136.082 368.077l-6.23-1.054.47-4.466 6.088 1.054zM124.285 365.893l-6.26-.656.173-4.488 6.117.514zM101.078 363.827l-5.976-.23.172-4.487 5.976.23zM89.664 364.033l-5.64.39-.187-4.448 5.782-.249zM78.984 364.854l-5.356.817-.612-4.59 5.356-.818z"/><path stroke="#000" stroke-width="2.004" stroke-linecap="round" stroke-linejoin="round" d="M69.362 367.012l-2.9 1.125-3.51-3.944 5.303-1.513z"/><path d="M55.882 361.152l-11.428-9.297 21.19-74.851s-.477-6.594.238-9.774c.686-3.054 1.663-6.305 3.809-8.581 2.022-2.145 4.911-4.117 7.857-4.053 2.558.056 4.864 1.994 6.666 3.814 1.6 1.617 2.623 3.797 3.333 5.96.6 1.826.714 5.72.714 5.72l102.614 92.969s-9.303 8.19-13.333 12.872c-4.643 5.395-8.926 11.176-12.38 17.402-17.223 31.039-49.76 86.293-49.76 86.293l-17.617-.238s9.325-18.382 14.285-27.414c7.024-12.79 14.647-25.242 21.903-37.902a5873.793 5873.793 0 0 0 16.666-29.32c3.186-5.636 9.523-16.926 9.523-16.926L82.31 295.36l-17.618 62.217-8.809 3.576z" stroke="#55A" stroke-width="2" fill="#000" stroke-linecap="round" stroke-linejoin="round"/><path stroke="#55A" stroke-width="2" stroke-linecap="round" stroke-linejoin="round" d="M190.908 363.19l18.647-16.548 7.475-5.488 38.518-27.705 8.09-6.109 7.474-4.99 28.642 14.355"/><path d="M271.945 302.636c-3.218-2.013-9.068-6.888-9.068-6.888s-1.434 1.884-2.492 1.996c-1.846.196-4.335-.752-4.983-2.495-.753-2.026 1.704-3.974 2.492-5.987.857-2.193 1.97-4.323 2.43-6.633.723-3.62.876-7.394.469-11.063-.41-3.687-2.816-7.036-2.9-10.745-.034-1.533-.262-3.618.997-4.49 1.932-1.339 6.977.997 6.977.997l26.412-12.474c-9.114-5.557-14.73-10.214-22.425-14.757-7.193-4.553-19.934-14.183-19.934-14.183s-6.694 8.277-9.967 12.474c-5.397 6.922-10.175 14.344-15.946 20.957-4.02 4.605-8.421 8.877-12.957 12.973-5.086 4.593-11.596 7.677-15.947 12.973-3.824 4.654-6.835 10.167-8.472 15.967-1.448 5.131-2.4 10.822-.996 15.966 1.638 6.008 6.38 10.771 10.465 15.468 6.038 6.944 20.492 18.492 20.492 18.492l-5.482 3.992s-13.375-9.92-18.997-15.997c-5.42-5.859-11.51-11.859-13.954-19.46-1.864-5.8-1.17-12.3 0-18.28 1.185-6.056 3.43-12.1 6.977-17.146 3.725-5.297 9.363-8.973 14.452-12.973 3.008-2.364 6.563-3.997 9.468-6.487 5.893-5.049 11.032-10.957 15.947-16.964 4.908-5.997 9.181-12.496 13.455-18.96 2.8-4.235 7.974-12.974 7.974-12.974l51.827 34.928-15.947 27.941 10.964 12.973-10.465 7.984 14.95 25.946s-17.64-7.954-25.816-13.071z" stroke="#55A" stroke-width="2" fill="#FF5" stroke-linecap="round" stroke-linejoin="round"/><path d="M263.375 295.25s2.613-6.447 3.313-9.834c1.052-5.094 1.606-10.36 1.288-15.553-.26-4.26-2.607-12.535-2.607-12.535" stroke="#55A" stroke-width="2" stroke-linecap="round" stroke-linejoin="round"/><path d="M253.19 299.25c2.68-.15 5.634-.23 7.979 1.076 3.052 1.7 4.608 5.26 6.662 8.096 0 0-5.954.612-8.78-.153-2.425-.658-4.475-2.313-6.577-3.692-1.78-1.168-5.083-3.864-5.083-3.864s3.809-1.35 5.799-1.462z" stroke="#55A" stroke-width="2" fill="#FF5" stroke-linecap="round" stroke-linejoin="round"/><path d="M265.369 321.694s-1.4-3.988-2.795-5.496c-2.167-2.341-5.379-3.437-8.169-4.982-3.575-1.98-7.982-2.69-10.963-5.489-3.029-2.843-6.276-10.77-6.276-10.77 3.019.561 5.155 2.259 8.175 1.988 0 0 2.515 4.63 4.485 6.284 2.37 1.989 5.586 2.658 8.375 3.995 2.56 1.227 5.435 1.948 7.673 3.695 1.635 1.277 3.128 2.895 3.98 4.788.897 1.994.996 6.486.996 6.486l-5.481-.499z" stroke="#55A" stroke-width="2" fill="#FF5" stroke-linecap="round" stroke-linejoin="round"/><path fill="#000" d="M276.48 304.563l-9.118-17.8 6.52-7.24-5.523-10.22 8.07-16.169 8.765-3.688-10.162 19.355 6.284 11.48-7.28 7.683 10.895 20.457z"/><path d="M272.966 341.299s3.97 5.442 3.366 8.398c-.498 2.445-2.884 4.619-5.282 5.297-1.874.53-4.217-.081-5.681-1.366-1.74-1.527-2.507-4.17-2.492-6.487.012-1.791 1.993-4.99 1.993-4.99s-4.026 3.535-6.478 3.493c-2.307-.04-4.83-1.489-5.98-3.493-1.076-1.874-.626-4.417 0-6.486.52-1.722 1.323-3.82 2.99-4.49 2.932-1.18 9.254 2.056 9.254 2.056s-2.691-5.934-1.58-8.644c.77-1.878 2.956-3.47 4.983-3.493 2.995-.034 6.288 2.237 7.475 4.99.949 2.199-1.195 7.086-1.195 7.086s5.063-2.298 7.475-1.497c2.121.705 4.35 2.756 4.485 4.99.174 2.857-2.228 6.074-4.922 7.032-2.747.976-8.411-2.396-8.411-2.396z" stroke="#55A" stroke-width="2" fill="#FF5" stroke-linecap="round" stroke-linejoin="round"/><path d="M277.329 337.66c-3.276 2.16-6.696 3.983-8.97 8.483-2.253-4.668-4.889-6.653-7.475-8.981 2.597-1.275 5.196-2.615 7.973-8.482 1.955 3.254 3.206 6.72 8.472 8.98z" stroke="#55A" stroke-width="2" stroke-linecap="round" stroke-linejoin="round"/><path stroke="#55A" stroke-width="2" fill="#F55" stroke-linecap="round" stroke-linejoin="round" d="M275.029 342.842l7.928 3.331 1.61 7.194-6.946-2.557zM263.375 344.147l-1.97 7.7-7.498 3.277 2.492-8.482zM263.607 332.81l-1.228-7.124-7.974-3.992 1.495 8.482zM274.293 333.431l8.319-3.258 1.6-7.683-7.88 3.2z"/><path d="M255.785 293.077c-3.726 1.5-7.601 3.42-11.622 3.264-5.174-.201-10.105-2.751-14.586-5.35-1.964-1.139-5.032-2.12-5.213-4.385-.157-1.958 1.965-3.903 3.846-4.46 2.466-.73 4.89 1.634 7.408 2.163 2.41.507 9.313 1.12 7.326.961-4.712-.378-9.71-1.177-13.655-3.776-1.594-1.05-3.675-2.562-3.58-4.47.083-1.706 1.926-3.247 3.581-3.662 3.329-.835 6.418 2.634 9.819 3.096 1.596.218 6.48-.162 4.831-.17-4.08-.016-8.492-.728-11.855-3.04-1.444-.994-3.558-2.612-3.045-4.29.627-2.046 3.886-1.984 6.008-2.248 4.784-.595 10.557 1.905 14.374 1.595-4.758-.188-6.933-.217-9.99-1.648-1.657-.774-4.377-1.766-4.156-3.583.239-1.957 3.34-2.29 5.273-2.668 2.922-.57 5.935.998 8.9.74 2.386-.208 4.67-1.087 6.95-1.822" stroke="#55A" stroke-width="2" stroke-linecap="round" stroke-linejoin="round"/><path d="M236.465 295.748c1.811 3.285 2.676 7.23 2.492 10.977-.155 3.152-2.2 5.927-2.99 8.982-.679 2.62-1.495 7.983-1.495 7.983s-4.132-6.705-4.984-10.478c-.695-3.083-.538-6.367 0-9.48.422-2.437 1.46-4.74 2.492-6.986.56-1.218 1.993-3.493 1.993-3.493s1.924 1.466 2.492 2.495z" stroke="#55A" stroke-width="2" fill="#FF5" stroke-linecap="round" stroke-linejoin="round"/><g stroke="#55A" stroke-linecap="round" stroke-linejoin="round" stroke-width="2"><path d="M207.81 306.226l-13.455 5.738 5.233-15.218s-.05 3.461 1.184 4.272c1.069.703 3.8-.53 3.8-.53s-1.73 3.43-.84 4.78c.77 1.167 4.079.958 4.079.958z" fill="#55A"/><path d="M198.662 314.019c.31.062.52.658.305.887-.21.224-.807.062-.896-.23-.086-.281.301-.716.591-.657zM192.41 307.215c.234.183.208.688-.03.866-.203.152-.618.058-.757-.148-.112-.165-.01-.435.136-.574.157-.15.479-.279.65-.144h0z"/></g><path d="M115.369 253.337l45.349 42.66 16.583-.096c1.433-10.67 4.164-16.155 9.081-23.853l-15.448-1.248-19.186-17.713" stroke="#55A" stroke-width="2" fill="#FF5" stroke-linecap="round" stroke-linejoin="round"/><path d="M162.524 292.255l14.514.035.409-2.993-14.393-.066-37.718-36.237c-.571-.547-1.588-.525-2.134.046-.546.572-.524 1.59.047 2.137l38.185 36.673c.29.273.692.423 1.09.406z" fill="#000200"/><path stroke="#55A" stroke-width="2" stroke-linecap="round" stroke-linejoin="round" d="M180.153 283.233l-13.954.041-31.395-29.439"/><path d="M181.575 278.163l1.658-2.765-13.67-.326-22.27-21.548c-.514-.694-1.671-.77-2.272-.15-.602.62-.491 1.776.217 2.27l22.674 21.986c.263.262.626.421.997.436l12.666.097z" fill="#000200"/><path d="M209.555 253.087l-139.037.499" stroke="#55A" stroke-width="2" stroke-linecap="round" stroke-linejoin="round"/><path d="M36.395 344.385c2.408-1.182 4.329-3.12 6.315-4.837 4.338-4.919 7.682-12.638 6.385-19.37-.623-2.692-2.078-5.079-3.463-7.434-.147-2.877-.537-6.346 1.555-8.646 1.741-1.627 5.826 1.923 5.745-1.744-1.299-2.196-4.664-2.13-6.728-1.02-2.267.41-3.432 4.78-3.612 4.862-.985-4.438-1.649-8.978-1.6-13.535.913-3.457 2.857-5.49 5.447-7.199 3.03-1.668 6.272 1.022 7.124 3.934-.168 2.142 3.17 4.275 3.538 1.252-.923-3.548-2.93-7.636-6.876-8.47-3.051-.942-6.434.657-8.143 3.248 1.325-3.425 2.949-7.6.638-10.99-1.353-2.415-7.628-4.758-8.038-.957 1.323 1.978 5.344.333 6.047 3.575.704 2.64-.87 5.203-1.591 7.69-1.627 3.955-1.103 9.547-.96 13.707.491 6.026 1.605 11.007 5.053 16.105.635 1.136 2.403 3.898 2.004 4.132-2.046-1.991-5.22-2.274-7.683-.898-2.242.825-5.995 5.537-2.447 6.68 2.11-1.288 3.003-5.546 6.486-4.328 2.597 1.235 5.93 3.472 4.232 6.645-.895 2.968-2.705 10.77-10.145 14.458-1.243 1.02-1.289 3.205.717 3.14z" fill="#FFF"/><g fill="#FFF"><path d="M192.331 352.88c5.447.224 11.522-5.377 8.887-10.962-1.029-3.47-6.167-5.419-8.972-3.031-.827 1.156.593 2.814 1.86 2.173 7.038-1.56 5.11 9.341-.88 8.702-5.525 1.028-7.732-5.087-8.906-9.287-1.902-5.192-.77-10.936-2.8-16.13-1.575-7.897-5.648-15.851-13.233-19.417-4.954-3.021-10.862-2.342-16.148-.743-5.542.474-12.046 2.208-16.667-1.984-3.655-2.75-6.342-7.369-5.862-11.918 2.584-3.434 7.658-6.552 11.234-2.471 2.515 2.213-.075 6.186 1.83 8.458 1.297.915 2.845-.675 2.4-2.071.513-4.14-.738-8.935-4.994-10.572-3.765-2.943-9.182 1.615-10.788 2.016-.557-5.735-1.989-11.574-4.697-16.678-3.67-6.216-11.718-5.805-17.893-4.852-3.64 2.119-12.674 2.958-12.878-2.603 1.159-3.655 4.445-1.622 6.916-1.487 1.635-.537 1.048-2.97-.569-3.062-5.486-3.855-13.06 4.858-7.74 9.28 2.943 3.199 10.592 2.186 11.761 2.515-3.499 4.924-.01 12.09 5.732 13.056 2.992.748 6.906-1.026 8.32-3.724.207-1.754-2.214-2.179-3.07-.835-4.231 4.811-12.277-1.968-8.448-6.986 2.163-3.757 6.53-4.234 10.346-3.258 6.36 1.456 6.894 9.067 8.575 14.207 1.54 6.565-.49 14.305 4.425 19.8 3.711 5.095 10.15 8.057 16.425 6.79 2.517.042 8.116-1.951 4.388 1.86-3 5.139-1.693 13.19 4.548 15.205 2.396.536 4.588 2.073 6.917 2.286 3.991 2.288 11.253 1.247 11.828 7.295 1.017 2.84-2.49 4.196-2.447 6.619.533 1.81 3.106 1.072 3.575-.463 3.914-4.67 1.396-13.068-4.87-14.049-2.282-.713-6.24-.877-2.368-2.807 3.122-2.542 1.643-8.539-1.907-9.887-1.762-.143-2.116 2.474-.522 3.035 4.121 6-5.813 8.68-9.654 4.904-5.064-2.192-4.185-9.35-1.06-12.865 1.88-4.535 7.752-3.408 11.266-1.692 7.223 3.042 10.951 10.54 12.448 17.847 2.051 5.806.73 12.196 3.281 17.89 1.28 4.932 4.713 10.142 10.411 9.895z"/><path d="M187.12 333.537c0-1.102 1.004-1.996 2.242-1.996 1.239 0 2.243.894 2.243 1.996 0 1.103-1.004 1.996-2.243 1.996-1.238 0-2.242-.893-2.242-1.996zM141.727 314.092c0-1.102 1.004-1.996 2.243-1.996 1.238 0 2.242.894 2.242 1.996 0 1.103-1.004 1.996-2.242 1.996-1.239 0-2.243-.893-2.243-1.996zM148.698 296.934c0-1.102 1.004-1.996 2.243-1.996 1.238 0 2.242.894 2.242 1.996 0 1.102-1.004 1.996-2.242 1.996-1.239 0-2.243-.894-2.243-1.996zM116.748 289.082c0-1.102 1.004-1.996 2.242-1.996 1.239 0 2.243.894 2.243 1.996 0 1.102-1.004 1.996-2.243 1.996-1.238 0-2.242-.894-2.242-1.996z"/></g><path d="M155.38 353.883s-.547-3.595-.137-5.322c.494-2.078 1.75-3.935 3.03-5.645.586-.786 2.114-1.086 2.093-2.067-.034-1.554-1.906-3.2-3.458-3.127-1.754.082-2.903 2.254-3.565 3.883-.85 2.095-.598 4.557-.197 6.783.351 1.946 2.234 5.495 2.234 5.495zM150 349.427s-1.02-2.318-.995-3.559c.031-1.494.683-2.985 1.377-4.38.319-.642 1.439-1.135 1.258-1.792-.286-1.04-1.995-1.791-3.172-1.447-1.33.39-1.847 2.073-2.082 3.296-.301 1.574.304 3.184.984 4.607.595 1.244 2.63 3.275 2.63 3.275zM145.132 344.589s-1.02-2.318-.995-3.559c.03-1.494.683-2.985 1.376-4.38.32-.642 1.44-1.135 1.259-1.792-.286-1.04-1.996-1.792-3.173-1.447-1.33.39-1.847 2.072-2.081 3.295-.302 1.574.303 3.185.983 4.608.595 1.243 2.631 3.275 2.631 3.275zM169.53 363.486s-.37-1.752-.093-2.593c.334-1.012 1.181-1.917 2.044-2.75.397-.383 1.427-.53 1.413-1.007-.023-.758-1.286-1.559-2.333-1.524-1.184.04-1.96 1.099-2.405 1.892-.575 1.02-.405 2.22-.133 3.305.236.948 1.507 2.677 1.507 2.677zM165.87 363.247s-1.022-2.318-.996-3.559c.03-1.494.683-2.985 1.377-4.38.318-.642 1.438-1.135 1.258-1.792-.286-1.04-1.996-1.791-3.172-1.447-1.33.39-1.848 2.072-2.082 3.296-.302 1.574.303 3.184.984 4.607.594 1.244 2.63 3.275 2.63 3.275zM161 358.408s-1.02-2.317-.995-3.558c.031-1.494.683-2.985 1.377-4.38.319-.642 1.439-1.135 1.258-1.792-.286-1.04-1.995-1.792-3.172-1.447-1.33.39-1.847 2.072-2.082 3.295-.301 1.574.304 3.185.984 4.608.595 1.243 2.63 3.274 2.63 3.274zM139.153 339.057s-.547-3.725-.137-5.513c.494-2.153 1.75-4.077 3.029-5.849.587-.813 2.115-1.124 2.093-2.14-.033-1.611-1.906-3.315-3.457-3.24-1.754.084-2.903 2.335-3.565 4.022-.85 2.171-.599 4.722-.197 7.028.351 2.016 2.234 5.692 2.234 5.692zM133.774 334.6s-1.021-2.316-.996-3.557c.031-1.495.683-2.985 1.377-4.381.319-.641 1.439-1.135 1.258-1.792-.286-1.04-1.995-1.791-3.172-1.447-1.33.39-1.847 2.073-2.082 3.296-.301 1.574.304 3.184.984 4.607.595 1.244 2.63 3.275 2.63 3.275zM128.905 329.763s-1.02-2.318-.995-3.559c.03-1.494.683-2.985 1.376-4.38.32-.642 1.44-1.135 1.259-1.792-.286-1.04-1.996-1.791-3.173-1.447-1.33.39-1.847 2.072-2.081 3.296-.302 1.574.303 3.184.983 4.607.595 1.244 2.631 3.275 2.631 3.275zM123.323 324.952s-.547-3.595-.137-5.321c.494-2.079 1.75-3.936 3.03-5.646.586-.785 2.114-1.085 2.093-2.066-.034-1.555-1.907-3.2-3.458-3.128-1.754.082-2.903 2.255-3.565 3.883-.85 2.096-.598 4.558-.197 6.784.351 1.946 2.234 5.494 2.234 5.494zM119.106 320.642s-1.021-2.318-.996-3.559c.031-1.494.683-2.985 1.377-4.38.319-.642 1.439-1.135 1.258-1.792-.286-1.04-1.995-1.792-3.172-1.447-1.33.39-1.848 2.072-2.082 3.295-.301 1.574.304 3.185.984 4.608.594 1.243 2.63 3.275 2.63 3.275z" fill="#FF5"/><path d="M114.818 316.676s-1.02-2.318-.995-3.559c.03-1.494.682-2.985 1.376-4.38.319-.642 1.439-1.135 1.259-1.792-.286-1.04-1.996-1.791-3.173-1.447-1.33.39-1.847 2.073-2.082 3.296-.301 1.574.304 3.184.984 4.607.595 1.244 2.631 3.275 2.631 3.275zM109.381 311.575s-.547-3.596-.137-5.322c.494-2.078 1.75-3.936 3.03-5.646.587-.785 2.114-1.085 2.093-2.066-.034-1.555-1.906-3.2-3.458-3.127-1.754.081-2.903 2.254-3.564 3.882-.852 2.096-.6 4.558-.198 6.784.351 1.946 2.234 5.495 2.234 5.495zM104.873 307.41s-1.02-2.318-.995-3.56c.03-1.493.683-2.984 1.376-4.38.32-.641 1.44-1.135 1.259-1.791-.286-1.041-1.996-1.792-3.173-1.447-1.33.39-1.847 2.072-2.081 3.295-.302 1.574.303 3.184.983 4.607.595 1.244 2.631 3.275 2.631 3.275zM100.15 303.007s-1.021-2.317-.995-3.558c.03-1.494.682-2.985 1.376-4.381.319-.641 1.439-1.135 1.258-1.791-.286-1.041-1.995-1.792-3.172-1.447-1.33.39-1.847 2.072-2.082 3.295-.301 1.574.304 3.184.984 4.607.595 1.244 2.63 3.275 2.63 3.275zM94.277 299.215s-.547-3.596-.137-5.322c.494-2.078 1.75-3.935 3.03-5.645.587-.786 2.114-1.086 2.093-2.067-.034-1.555-1.906-3.2-3.458-3.127-1.754.081-2.903 2.254-3.564 3.883-.851 2.095-.6 4.557-.198 6.783.352 1.946 2.234 5.495 2.234 5.495zM89.915 294.904s-1.021-2.317-.996-3.558c.031-1.495.683-2.985 1.377-4.381.319-.641 1.439-1.135 1.258-1.792-.286-1.04-1.995-1.791-3.172-1.447-1.33.39-1.848 2.073-2.082 3.296-.301 1.574.304 3.184.984 4.607.594 1.244 2.63 3.275 2.63 3.275zM68.678 319.013s-.588-3.338-1.54-4.672c-1.336-1.873-3.748-2.677-5.495-4.173-.431-.369-1.099-.628-1.226-1.181-.212-.918.177-2.147.97-2.654 1.118-.715 2.845-.379 3.965.331 1.91 1.21 2.828 3.683 3.402 5.87.548 2.09-.076 6.479-.076 6.479zM70.62 312.15s-.837-1.49-1.27-2.227c-.656-1.118-1.19-2.324-2.01-3.327-.636-.778-2.284-1.036-2.218-2.04.076-1.16 1.634-2.127 2.854-2.004 1.379.139 2.124 1.67 2.65 2.858.607 1.374.448 2.99.384 4.491-.033.76-.39 2.248-.39 2.248z" fill="#FF5"/><path d="M72.467 307.188s-.52-2.354-1.109-3.385a11.661 11.661 0 0 0-3.004-3.413c-.579-.445-1.805-.311-1.96-.975-.243-1.051.903-2.527 2.101-2.785 1.355-.292 2.61.94 3.399 1.904 1.014 1.24 1.248 2.945 1.327 4.52.07 1.377-.754 4.134-.754 4.134zM73.621 299.982s-.588-3.337-1.54-4.671c-1.337-1.873-3.748-2.677-5.495-4.173-.431-.37-1.099-.628-1.226-1.182-.212-.918.177-2.147.97-2.654 1.118-.714 2.845-.378 3.965.332 1.91 1.21 2.827 3.683 3.402 5.87.548 2.089-.076 6.478-.076 6.478zM65.435 328.926s-.633-1.42-.969-2.122c-.353-.737-.652-1.507-1.1-2.19-.707-1.082-2.632-1.696-2.478-2.98.105-.877 1.249-1.663 2.128-1.579 1.189.114 1.943 1.543 2.424 2.642.555 1.27.41 2.764.351 4.151-.03.703-.356 2.078-.356 2.078zM66.492 322.802s-.438-1.806-.933-2.596c-.633-1.01-1.517-1.91-2.528-2.617-.486-.341-1.518-.239-1.648-.748-.205-.806.76-1.938 1.768-2.136 1.14-.224 2.196.722 2.859 1.46.853.951 1.05 2.258 1.116 3.467.059 1.056-.634 3.17-.634 3.17zM63.593 334.742s-.54-3.074-1.412-4.304c-1.225-1.725-3.436-2.466-5.037-3.844-.395-.34-1.007-.58-1.124-1.09-.194-.845.163-1.977.89-2.445 1.024-.658 2.607-.348 3.634.306 1.75 1.115 2.592 3.393 3.118 5.409.502 1.924-.07 5.968-.07 5.968zM60.53 344.656s-.793-1.362-1.162-2.058c-.465-.876-.726-1.874-1.325-2.664-.69-.91-2.61-1.155-2.543-2.296.063-1.066 1.495-1.966 2.61-1.853 1.262.128 1.943 1.543 2.424 2.641.556 1.27.411 2.764.352 4.152-.03.702-.356 2.078-.356 2.078zM61.792 338.84s-.438-1.805-.933-2.596c-.633-1.01-1.517-1.909-2.528-2.617-.486-.341-1.518-.239-1.648-.747-.205-.807.76-1.938 1.768-2.137 1.14-.224 2.196.722 2.859 1.46.853.952 1.05 2.259 1.116 3.467.059 1.056-.634 3.17-.634 3.17zM59.473 352.79s-.588-3.337-1.54-4.672c-1.336-1.872-3.748-2.676-5.495-4.172-.431-.37-1.099-.629-1.226-1.182-.212-.918.177-2.147.97-2.654 1.118-.715 2.845-.378 3.965.332 1.91 1.21 2.828 3.682 3.402 5.87.548 2.088-.076 6.478-.076 6.478zM56.14 360.064s-.936-.496-1.344-.83c-.59-.48-1.026-1.127-1.566-1.664-.655-.65-2.024-.96-2.03-1.885-.003-.72.846-1.484 1.566-1.488 1.183-.008 2.016 1.386 2.605 2.413.304.53.265 1.19.397 1.786l.371 1.668zM57.287 356.58s-.438-1.806-.933-2.597c-.633-1.01-1.517-1.909-2.528-2.617-.486-.341-1.518-.239-1.648-.747-.205-.807.76-1.938 1.768-2.137 1.14-.224 2.196.722 2.859 1.46.853.952 1.05 2.259 1.116 3.467.059 1.056-.634 3.17-.634 3.17z" fill="#FF5"/><path d="M77.246 287.765c3.63-.025 6.27-2.828 7.88-6.05 1.61-3.222 2.39-7.059 2.336-10.198-.053-3.1-.95-6.827-2.648-9.948-1.698-3.12-4.387-5.808-7.973-5.738-3.568.07-6.108 2.855-7.662 6.019-1.554 3.164-2.303 6.882-2.274 9.948.03 3.098.861 6.87 2.492 10.042 1.63 3.172 4.243 5.95 7.849 5.925zm0-2.994c-2.042.014-3.835-1.613-5.202-4.272-1.366-2.66-2.124-6.144-2.149-8.7-.024-2.526.663-5.993 1.963-8.64 1.3-2.645 3.03-4.294 5.045-4.334 2.034-.04 3.844 1.569 5.264 4.179 1.42 2.61 2.262 6.048 2.305 8.576.044 2.565-.675 6.092-2.025 8.794-1.35 2.702-3.135 4.383-5.201 4.397z" fill="#FF5" fill-rule="nonzero"/><path d="M78.492 271.3s2.47 1.938 3.737 1.496c.633-.22 1.086-1.082.997-1.746-.117-.875-.99-1.806-1.869-1.871-1.184-.089-2.865 2.12-2.865 2.12zM75.875 271.549s-1.068 2.2-2.118 2.494c-.885.248-2.33.001-2.616-.873-.27-.822.7-1.782 1.495-2.12 1.006-.428 3.24.499 3.24.499zM77.744 273.919s3.362 2.134 3.489 3.867c.11 1.495-1.007 3.549-2.492 3.742-1.43.186-2.95-1.455-3.24-2.87-.35-1.712 2.243-4.74 2.243-4.74zM77.495 268.929s2.072-3.3 1.62-4.99c-.29-1.08-1.376-2.308-2.492-2.245-1.44.082-2.886 1.8-2.866 3.243.027 1.824 3.738 3.992 3.738 3.992z" stroke="#FF5" fill="#FF5" stroke-linecap="round" stroke-linejoin="round"/><g stroke="#55A" stroke-linecap="round" stroke-linejoin="round" stroke-width="2"><path d="M213.584 279.292l-14.215 6.855 6.45-14.946s-1.071 3.259-.035 4.196c1.173 1.06 4.713-.52 4.713-.52s-1.53 2.992-.686 4.084c.772 1 3.773.33 3.773.33h0z" fill="#55A"/><path d="M203.675 288.164c.31.061.52.647.305.872-.21.22-.807.06-.896-.227-.086-.275.301-.702.591-.645zM197.424 281.482c.234.18.208.676-.03.851-.203.15-.618.057-.757-.146-.111-.162-.009-.426.136-.563.157-.148.479-.274.65-.142h0z"/></g><g stroke="#55A" stroke-linecap="round" stroke-linejoin="round" stroke-width="2"><path d="M222.866 293.396l-13.455 5.738 5.233-15.219s-.05 3.462 1.183 4.273c1.07.703 3.8-.53 3.8-.53s-1.729 3.43-.839 4.78c.769 1.167 4.078.958 4.078.958z" fill="#55A"/><path d="M213.718 301.188c.31.062.52.659.305.888-.21.224-.807.062-.897-.231-.086-.28.302-.715.592-.657zM207.465 294.384c.235.184.208.688-.03.867-.202.152-.617.057-.757-.149-.111-.165-.009-.435.137-.573.157-.151.478-.28.65-.145h0z"/></g><g stroke="#55A" stroke-linecap="round" stroke-linejoin="round" stroke-width="2.014"><path d="M237.269 256.749l-13.442 7.502 4.114-14.155s-.285 3.364.93 3.974c1.502.755 4.624-2.015 4.624-2.015s-2.375 3.481-1.361 4.798c1.046 1.357 5.135-.104 5.135-.104z" fill="#55A"/><path d="M226.395 266.045c.243.058.408.613.24.826-.166.208-.635.057-.706-.215-.067-.261.237-.665.466-.61zM221.303 260.243c.185.17.164.64-.023.806-.16.141-.486.054-.595-.138-.088-.154-.007-.404.107-.534.123-.14.376-.26.511-.134h0z"/></g><g stroke="#55A" stroke-linecap="round" stroke-linejoin="round" stroke-width="2"><path d="M273.609 245.06l-13.455 5.738 5.232-15.219s-.05 3.462 1.184 4.273c1.069.702 3.8-.53 3.8-.53s-1.73 3.43-.84 4.78c.77 1.167 4.079.958 4.079.958z" fill="#55A"/><path d="M264.46 252.852c.31.062.52.659.306.888-.21.224-.808.062-.897-.231-.086-.281.301-.716.592-.657zM258.208 246.048c.234.184.208.688-.03.867-.203.151-.618.057-.757-.15-.111-.164-.009-.434.136-.573.157-.15.479-.279.65-.144h0z"/></g><g stroke="#55A" stroke-linecap="round" stroke-linejoin="round" stroke-width="2"><path d="M258.104 233.946l-13.455 5.738 5.233-15.218s-.05 3.46 1.183 4.272c1.07.703 3.8-.53 3.8-.53s-1.729 3.43-.84 4.78c.77 1.167 4.08.958 4.08.958z" fill="#55A"/><path d="M248.956 241.738c.31.062.52.659.305.888-.21.224-.807.062-.897-.231-.086-.28.301-.715.592-.657zM242.703 234.934c.234.184.208.688-.03.867-.202.152-.617.057-.757-.149-.111-.165-.009-.434.136-.573.157-.15.48-.28.651-.145h0z"/></g></g><path d="M1 164.323v154.414M300 162.599v153.856" stroke="#55A" stroke-width="2" stroke-linecap="round"/></g></svg>